<svg width="17" height="16" viewBox="0 0 17 16" fill="none" xmlns="http://www.w3.org/2000/svg">
<rect width="16" height="16" transform="translate(0.5)" fill="white"/>
<rect x="4.5" y="4" width="8" height="8" fill="white"/>
<rect width="16" height="16" transform="translate(0.5)" fill="white"/>
<path d="M8.5 1C7.11553 1 5.76215 1.41054 4.611 2.17971C3.45986 2.94888 2.56265 4.04213 2.03284 5.32122C1.50303 6.6003 1.3644 8.00776 1.6345 9.36563C1.9046 10.7235 2.57128 11.9708 3.55025 12.9497C4.52922 13.9287 5.7765 14.5954 7.13436 14.8655C8.49223 15.1356 9.8997 14.997 11.1788 14.4672C12.4579 13.9373 13.5511 13.0401 14.3203 11.889C15.0895 10.7378 15.5 9.38447 15.5 8C15.5 6.14348 14.7625 4.36301 13.4497 3.05025C12.137 1.7375 10.3565 1 8.5 1ZM7.5 10.7954L5 8.2954L5.7953 7.5L7.5 9.2046L11.205 5.5L12.0028 6.29295L7.5 10.7954Z" fill="#46A758"/>
</svg>
