<svg width="274" height="320" viewBox="0 0 274 320" fill="none" xmlns="http://www.w3.org/2000/svg">
<g clip-path="url(#clip0_1723_4856)">
<path d="M162.803 312.94C162.803 314.816 161.648 316.84 160.285 318.588C159.693 319.338 160.571 320.346 161.391 319.872L172.066 313.69C172.639 313.355 172.639 312.525 172.066 312.19L161.391 306.008C160.562 305.534 159.693 306.542 160.285 307.292C161.648 309.04 162.803 311.064 162.803 312.94" fill="#1CDBBC"/>
<path d="M142.945 312.94C142.945 314.816 141.789 316.84 140.427 318.588C139.834 319.338 140.713 320.346 141.533 319.872L152.207 313.69C152.78 313.355 152.78 312.525 152.207 312.19L141.533 306.008C140.703 305.534 139.834 306.542 140.427 307.292C141.789 309.04 142.945 311.064 142.945 312.94" fill="#1CDBBC"/>
<path d="M123.086 312.94C123.086 314.816 121.931 316.84 120.568 318.588C119.976 319.338 120.855 320.346 121.674 319.872L132.349 313.69C132.922 313.355 132.922 312.525 132.349 312.19L121.674 306.008C120.845 305.534 119.976 306.542 120.568 307.292C121.931 309.04 123.086 311.064 123.086 312.94" fill="#1CDBBC"/>
<path d="M103.228 312.94C103.228 314.816 102.072 316.84 100.71 318.588C100.117 319.338 100.996 320.346 101.816 319.872L112.49 313.69C113.063 313.355 113.063 312.525 112.49 312.19L101.816 306.008C100.986 305.534 100.117 306.542 100.71 307.292C102.072 309.04 103.228 311.064 103.228 312.94" fill="#1CDBBC"/>
<path d="M162.803 291.484C162.803 293.36 161.648 295.384 160.285 297.132C159.693 297.882 160.571 298.889 161.391 298.415L172.066 292.234C172.639 291.898 172.639 291.069 172.066 290.733L161.391 284.552C160.562 284.078 159.693 285.085 160.285 285.836C161.648 287.583 162.803 289.608 162.803 291.484" fill="#1CDBBC"/>
<path d="M142.945 291.484C142.945 293.36 141.789 295.384 140.427 297.132C139.834 297.882 140.713 298.889 141.533 298.415L152.207 292.234C152.78 291.898 152.78 291.069 152.207 290.733L141.533 284.552C140.703 284.078 139.834 285.085 140.427 285.836C141.789 287.583 142.945 289.608 142.945 291.484" fill="#1CDBBC"/>
<path d="M123.086 291.484C123.086 293.36 121.931 295.384 120.568 297.132C119.976 297.882 120.855 298.889 121.674 298.415L132.349 292.234C132.922 291.898 132.922 291.069 132.349 290.733L121.674 284.552C120.845 284.078 119.976 285.085 120.568 285.836C121.931 287.583 123.086 289.608 123.086 291.484" fill="#1CDBBC"/>
<path d="M103.228 291.484C103.228 293.36 102.072 295.384 100.71 297.132C100.117 297.882 100.996 298.889 101.816 298.415L112.49 292.234C113.063 291.898 113.063 291.069 112.49 290.733L101.816 284.552C100.986 284.078 100.117 285.085 100.71 285.836C102.072 287.583 103.228 289.608 103.228 291.484" fill="#1CDBBC"/>
<path d="M103.396 266.097C101.539 266.324 99.3865 265.426 97.4905 264.28C96.6709 263.787 95.7723 264.774 96.345 265.535L103.771 275.389C104.176 275.922 104.995 275.823 105.262 275.211L110.111 263.866C110.486 262.987 109.38 262.246 108.699 262.918C107.128 264.488 105.252 265.87 103.396 266.097" fill="#1CDBBC"/>
<path d="M165.716 272.121C167.563 272.437 169.37 273.908 170.861 275.557C171.503 276.258 172.648 275.577 172.313 274.678L168.017 263.115C167.79 262.493 166.97 262.355 166.536 262.859L158.646 272.338C158.034 273.068 158.883 274.105 159.722 273.651C161.677 272.595 163.87 271.805 165.706 272.121" fill="#1CDBBC"/>
<path d="M142.945 269.198C142.945 271.074 141.789 273.098 140.427 274.846C139.834 275.596 140.713 276.603 141.533 276.129L152.207 269.948C152.78 269.613 152.78 268.783 152.207 268.447L141.533 262.266C140.703 261.792 139.834 262.799 140.427 263.55C141.789 265.298 142.945 267.322 142.945 269.198" fill="#1CDBBC"/>
<path d="M123.086 269.198C123.086 271.074 121.931 273.098 120.568 274.846C119.976 275.596 120.855 276.603 121.674 276.129L132.349 269.948C132.922 269.613 132.922 268.783 132.349 268.447L121.674 262.266C120.845 261.792 119.976 262.799 120.568 263.55C121.931 265.298 123.086 267.322 123.086 269.198" fill="#1CDBBC"/>
<path d="M146.766 250.842C148.613 251.138 150.44 252.59 151.951 254.209C152.602 254.91 153.738 254.209 153.392 253.31L148.958 241.797C148.722 241.175 147.902 241.047 147.477 241.56L139.706 251.138C139.103 251.879 139.962 252.896 140.802 252.432C142.737 251.355 144.92 250.536 146.766 250.832" fill="#1CDBBC"/>
<path d="M122.839 245.046C121.003 245.411 118.791 244.68 116.816 243.683C115.966 243.249 115.147 244.305 115.769 245.026L123.916 254.288C124.35 254.791 125.17 254.624 125.387 253.992L129.367 242.311C129.673 241.412 128.508 240.75 127.885 241.471C126.444 243.15 124.676 244.68 122.839 245.046" fill="#1CDBBC"/>
<path d="M99.1298 245.174C97.3029 245.599 95.0712 244.947 93.0567 244.009C92.1877 243.604 91.4076 244.69 92.0593 245.381L100.512 254.367C100.966 254.851 101.776 254.663 101.974 254.021L105.558 242.212C105.835 241.303 104.65 240.681 104.057 241.422C102.665 243.15 100.957 244.73 99.1396 245.164" fill="#1CDBBC"/>
<path d="M172.402 250.318C174.189 250.861 175.798 252.55 177.072 254.367C177.615 255.147 178.84 254.604 178.623 253.676L175.818 241.659C175.67 241.007 174.87 240.77 174.386 241.224L165.361 249.637C164.66 250.289 165.38 251.414 166.269 251.069C168.333 250.269 170.614 249.756 172.402 250.308" fill="#1CDBBC"/>
<path d="M178.702 232.407C180.44 233.098 181.901 234.915 183.017 236.83C183.501 237.65 184.765 237.216 184.617 236.268L182.81 224.063C182.711 223.402 181.941 223.096 181.417 223.51L171.74 231.163C170.989 231.755 171.611 232.94 172.53 232.673C174.653 232.051 176.964 231.726 178.702 232.417" fill="#1CDBBC"/>
<path d="M153.363 232.328C155.091 233.049 156.513 234.895 157.599 236.83C158.063 237.66 159.337 237.245 159.209 236.297L157.629 224.063C157.54 223.402 156.779 223.086 156.246 223.481L146.421 230.945C145.66 231.518 146.263 232.723 147.181 232.466C149.324 231.883 151.635 231.597 153.363 232.318" fill="#1CDBBC"/>
<path d="M116.302 228.349C114.594 229.109 112.273 228.882 110.121 228.349C109.192 228.122 108.629 229.326 109.4 229.889L119.393 237.127C119.936 237.522 120.687 237.176 120.766 236.515L122.069 224.241C122.168 223.293 120.894 222.908 120.44 223.747C119.403 225.702 118.02 227.579 116.302 228.339" fill="#1CDBBC"/>
<path d="M91.9606 228.526C90.2818 229.356 87.9514 229.228 85.7888 228.773C84.8507 228.576 84.3372 229.81 85.1272 230.333L95.397 237.166C95.95 237.532 96.7005 237.166 96.74 236.505L97.5498 224.192C97.609 223.244 96.3154 222.908 95.9105 223.767C94.9527 225.762 93.6492 227.697 91.9705 228.526" fill="#1CDBBC"/>
<path d="M82.5794 209.845C81.0784 210.96 78.7677 211.247 76.5459 211.187C75.588 211.168 75.3016 212.471 76.1805 212.846L87.507 217.734C88.1192 218.001 88.7809 217.497 88.7117 216.845L87.2996 204.592C87.191 203.644 85.8579 203.545 85.6011 204.463C85.0185 206.606 84.0705 208.729 82.5695 209.854" fill="#1CDBBC"/>
<path d="M163.929 212.52C165.598 213.38 166.872 215.325 167.8 217.339C168.195 218.208 169.498 217.892 169.449 216.934L168.827 204.611C168.797 203.95 168.057 203.565 167.494 203.93L157.115 210.605C156.315 211.118 156.819 212.362 157.747 212.175C159.93 211.76 162.25 211.661 163.919 212.511" fill="#1CDBBC"/>
<path d="M185.673 212.185C187.273 213.162 188.399 215.206 189.169 217.28C189.505 218.168 190.818 217.961 190.848 217.003L191.164 204.671C191.184 204.009 190.473 203.574 189.89 203.89L179.037 209.766C178.198 210.22 178.603 211.494 179.551 211.385C181.753 211.128 184.084 211.207 185.683 212.185" fill="#1CDBBC"/>
<path d="M107.01 209.509C105.43 210.506 103.099 210.625 100.897 210.397C99.9494 210.299 99.5643 211.582 100.404 212.027L111.335 217.744C111.928 218.05 112.629 217.606 112.599 216.944L112.105 204.611C112.066 203.653 110.743 203.466 110.427 204.364C109.686 206.448 108.59 208.512 107 209.509" fill="#1CDBBC"/>
<path d="M58.9192 206.29C57.5959 204.967 56.9738 202.715 56.7072 200.523C56.5887 199.576 55.2556 199.477 55.0087 200.405L51.829 212.323C51.6611 212.965 52.2437 213.557 52.8856 213.38L64.8046 210.2C65.723 209.953 65.6242 208.62 64.6861 208.502C62.484 208.235 60.2424 207.613 58.9192 206.29" fill="#1CDBBC"/>
<path d="M44.8672 220.331C43.544 219.008 42.9218 216.757 42.6552 214.564C42.5367 213.617 41.2036 213.518 40.9567 214.446L37.777 226.364C37.6091 227.006 38.1918 227.598 38.8336 227.421L50.7526 224.241C51.671 223.994 51.5723 222.661 50.6341 222.543C48.432 222.276 46.1904 221.654 44.8672 220.331" fill="#1CDBBC"/>
<path d="M214.241 205.905C215.565 204.582 216.187 202.33 216.453 200.138C216.572 199.19 217.905 199.092 218.152 200.02L221.332 211.938C221.5 212.58 220.917 213.172 220.275 212.994L208.356 209.815C207.438 209.568 207.536 208.235 208.475 208.116C210.677 207.85 212.918 207.228 214.241 205.905" fill="#1CDBBC"/>
<path d="M228.284 219.955C229.607 218.632 230.229 216.381 230.496 214.189C230.614 213.241 231.947 213.142 232.194 214.07L235.374 225.989C235.542 226.63 234.959 227.223 234.317 227.045L222.398 223.866C221.48 223.619 221.578 222.286 222.517 222.167C224.719 221.901 226.96 221.279 228.284 219.955" fill="#1CDBBC"/>
<path d="M199.024 195.675C200.407 196.939 201.128 199.151 201.493 201.343C201.651 202.281 202.984 202.32 203.191 201.392L205.828 189.336C205.966 188.684 205.354 188.122 204.722 188.329L192.961 192.042C192.053 192.328 192.211 193.651 193.159 193.73C195.371 193.898 197.642 194.411 199.024 195.675" fill="#1CDBBC"/>
<path d="M70.0679 193.345C68.6953 194.619 66.434 195.162 64.222 195.359C63.274 195.438 63.1259 196.771 64.0442 197.048L75.8447 200.642C76.4767 200.839 77.089 200.267 76.9408 199.625L74.1759 187.598C73.9586 186.67 72.6255 186.719 72.4774 187.667C72.1318 189.859 71.4405 192.081 70.0679 193.355" fill="#1CDBBC"/>
<path d="M95.95 193.335C94.5774 194.609 92.3062 195.142 90.0942 195.32C89.1462 195.399 88.9981 196.722 89.9066 197.008L101.697 200.642C102.329 200.839 102.941 200.276 102.793 199.625L100.078 187.588C99.8704 186.66 98.5373 186.7 98.3793 187.647C98.0238 189.84 97.3226 192.061 95.95 193.325" fill="#1CDBBC"/>
<path d="M175.976 194.49C177.408 195.695 178.218 197.877 178.682 200.05C178.879 200.978 180.213 200.968 180.38 200.03L182.513 187.875C182.632 187.223 181.99 186.68 181.368 186.907L169.765 191.104C168.866 191.429 169.084 192.743 170.032 192.782C172.244 192.861 174.534 193.286 175.976 194.49" fill="#1CDBBC"/>
<path d="M190.166 177.763C191.638 178.919 192.517 181.081 193.04 183.234C193.267 184.162 194.6 184.103 194.739 183.155L196.496 170.94C196.595 170.279 195.933 169.765 195.321 170.012L183.856 174.574C182.968 174.93 183.224 176.243 184.182 176.243C186.404 176.243 188.705 176.598 190.176 177.763" fill="#1CDBBC"/>
<path d="M212.671 178.464C214.301 179.383 215.505 181.377 216.365 183.421C216.73 184.3 218.043 184.033 218.033 183.086L217.875 170.753C217.875 170.091 217.145 169.677 216.572 170.022L205.956 176.302C205.137 176.786 205.591 178.04 206.529 177.902C208.721 177.566 211.052 177.556 212.681 178.474" fill="#1CDBBC"/>
<path d="M83.9718 175.68C82.4017 176.707 80.0811 176.845 77.8691 176.658C76.9211 176.579 76.5459 177.862 77.3951 178.287L88.4056 183.856C88.9981 184.152 89.6992 183.698 89.6597 183.036L89.008 170.713C88.9586 169.765 87.6354 169.578 87.3292 170.486C86.6084 172.58 85.5419 174.653 83.9718 175.68Z" fill="#1CDBBC"/>
<path d="M60.7658 175.443C59.1463 176.381 56.8158 176.401 54.6236 176.095C53.6756 175.967 53.2411 177.221 54.0706 177.695L64.7651 183.846C65.3378 184.182 66.0587 183.757 66.0587 183.096V170.753C66.0587 169.795 64.7454 169.548 64.3899 170.437C63.5604 172.491 62.3853 174.505 60.7658 175.443" fill="#1CDBBC"/>
<path d="M74.3043 155.981C72.4873 156.436 70.2457 155.804 68.2213 154.895C67.3523 154.51 66.5821 155.596 67.2437 156.278L75.8151 165.154C76.2792 165.628 77.089 165.431 77.2667 164.789L80.6933 152.94C80.9599 152.022 79.7651 151.42 79.1825 152.17C77.8197 153.918 76.1311 155.517 74.3141 155.971" fill="#1CDBBC"/>
<path d="M52.1549 156.307C50.3774 156.9 48.0963 156.465 46.0028 155.725C45.1042 155.409 44.4228 156.554 45.1437 157.186L54.4063 165.332C54.9099 165.776 55.6901 165.51 55.8283 164.858L58.2773 152.762C58.4649 151.824 57.2306 151.321 56.7072 152.12C55.4926 153.977 53.9323 155.705 52.1647 156.307" fill="#1CDBBC"/>
<path d="M219.475 160.889C221.243 161.521 222.754 163.288 223.939 165.164C224.442 165.974 225.696 165.49 225.519 164.552L223.307 152.417C223.188 151.765 222.408 151.479 221.895 151.913L212.474 159.882C211.743 160.494 212.405 161.659 213.313 161.363C215.417 160.662 217.717 160.267 219.475 160.899" fill="#1CDBBC"/>
<path d="M197.089 160.741C198.827 161.432 200.278 163.259 201.394 165.174C201.878 165.994 203.132 165.559 203.004 164.621L201.226 152.417C201.128 151.755 200.357 151.449 199.834 151.864L190.137 159.487C189.386 160.079 189.999 161.264 190.917 160.997C193.05 160.375 195.351 160.059 197.089 160.751" fill="#1CDBBC"/>
<path d="M71.4504 135.058C69.5742 135.078 67.54 133.942 65.7822 132.599C65.0219 132.017 64.0245 132.905 64.5084 133.725L70.7987 144.34C71.1344 144.912 71.9738 144.903 72.2997 144.32L78.3727 133.577C78.8467 132.747 77.8197 131.888 77.0791 132.481C75.351 133.863 73.3365 135.038 71.4603 135.058" fill="#1CDBBC"/>
<path d="M48.2938 135.177C46.4274 135.265 44.3438 134.209 42.5367 132.935C41.7566 132.382 40.7889 133.301 41.3024 134.11L47.9877 144.478C48.3432 145.041 49.1825 145.001 49.4887 144.409L55.1568 133.449C55.5913 132.599 54.5446 131.78 53.8237 132.402C52.145 133.853 50.1799 135.098 48.3037 135.186" fill="#1CDBBC"/>
<path d="M223.741 141.871C225.607 141.96 227.582 143.204 229.261 144.656C229.982 145.278 231.039 144.458 230.594 143.609L224.926 132.649C224.62 132.056 223.79 132.017 223.425 132.58L216.75 142.957C216.236 143.757 217.204 144.675 217.984 144.132C219.791 142.849 221.875 141.792 223.741 141.881" fill="#1CDBBC"/>
<path d="M201.483 141.753C203.349 141.911 205.275 143.224 206.904 144.735C207.606 145.386 208.682 144.596 208.277 143.737L203.004 132.58C202.717 131.977 201.888 131.908 201.513 132.451L194.462 142.582C193.919 143.362 194.857 144.32 195.647 143.797C197.504 142.582 199.617 141.605 201.483 141.763" fill="#1CDBBC"/>
<path d="M243.698 138.524C243.698 140.4 242.543 142.424 241.18 144.172C240.588 144.922 241.467 145.93 242.286 145.456L252.961 139.274C253.534 138.939 253.534 138.109 252.961 137.774L242.286 131.592C241.457 131.118 240.588 132.126 241.18 132.876C242.543 134.624 243.698 136.648 243.698 138.524" fill="#1CDBBC"/>
<path d="M263.557 138.524C263.557 140.4 262.401 142.424 261.039 144.172C260.446 144.922 261.325 145.93 262.145 145.456L272.819 139.274C273.392 138.939 273.392 138.109 272.819 137.774L262.145 131.592C261.315 131.118 260.446 132.126 261.039 132.876C262.401 134.624 263.557 136.648 263.557 138.524" fill="#1CDBBC"/>
<path d="M30.3017 138.524C30.3017 140.4 31.4571 142.424 32.8198 144.172C33.4123 144.922 32.5334 145.93 31.7138 145.456L21.0391 139.274C20.4663 138.939 20.4663 138.109 21.0391 137.774L31.7138 131.592C32.5433 131.118 33.4123 132.126 32.8198 132.876C31.4571 134.624 30.3017 136.648 30.3017 138.524" fill="#1CDBBC"/>
<path d="M10.4433 138.524C10.4433 140.4 11.5987 142.424 12.9614 144.172C13.5539 144.922 12.675 145.93 11.8554 145.456L1.17077 139.274C0.598025 138.939 0.598025 138.109 1.17077 137.774L11.8455 131.592C12.675 131.118 13.544 132.126 12.9515 132.876C11.5888 134.624 10.4334 136.648 10.4334 138.524" fill="#1CDBBC"/>
<path d="M223.346 123.387C225.193 123.081 227.385 123.88 229.33 124.937C230.17 125.391 231.019 124.364 230.417 123.634L222.556 114.125C222.131 113.611 221.312 113.75 221.075 114.372L216.74 125.924C216.404 126.813 217.55 127.514 218.191 126.803C219.692 125.164 221.499 123.703 223.346 123.387Z" fill="#1CDBBC"/>
<path d="M51.1377 117.63C49.3208 117.196 47.6124 115.606 46.2299 113.868C45.6374 113.118 44.4524 113.74 44.7191 114.648L48.2444 126.468C48.432 127.109 49.2418 127.297 49.7059 126.813L58.1983 117.867C58.85 117.176 58.0699 116.09 57.2108 116.485C55.1963 117.403 52.9547 118.055 51.1377 117.62" fill="#1CDBBC"/>
<path d="M199.873 119.18C201.72 118.894 203.902 119.714 205.838 120.79C206.667 121.254 207.536 120.237 206.934 119.496L199.172 109.909C198.758 109.395 197.928 109.524 197.691 110.136L193.238 121.639C192.892 122.528 194.028 123.239 194.679 122.538C196.19 120.918 198.017 119.467 199.864 119.18" fill="#1CDBBC"/>
<path d="M74.8869 113.76C73.0995 113.207 71.4998 111.518 70.2259 109.701C69.6828 108.921 68.4583 109.454 68.6756 110.383L71.4504 122.409C71.5985 123.061 72.3984 123.298 72.8823 122.854L81.9277 114.461C82.6288 113.809 81.9178 112.683 81.0291 113.019C78.9553 113.809 76.6841 114.322 74.8968 113.769" fill="#1CDBBC"/>
<path d="M219.06 102.503C220.779 101.753 223.089 101.99 225.242 102.543C226.17 102.779 226.743 101.575 225.973 101.012L216.019 93.7151C215.486 93.3201 214.725 93.6558 214.646 94.3174L213.274 106.581C213.165 107.529 214.449 107.924 214.893 107.085C215.94 105.13 217.342 103.263 219.051 102.513" fill="#1CDBBC"/>
<path d="M57.6157 98.8201C55.9468 97.9709 54.6631 96.0257 53.725 94.0213C53.3201 93.1523 52.0265 93.4782 52.0759 94.4261L52.7474 106.749C52.7869 107.411 53.5275 107.786 54.0805 107.43L64.4294 100.716C65.2292 100.193 64.7256 98.9583 63.7875 99.1459C61.615 99.5705 59.2845 99.6791 57.6157 98.83" fill="#1CDBBC"/>
<path d="M85.1074 96.4701C83.6558 95.2852 82.8263 93.1129 82.3424 90.9406C82.1351 90.0124 80.8019 90.042 80.6439 90.9801L78.6492 103.155C78.5406 103.807 79.1825 104.34 79.8046 104.103L91.3582 99.768C92.2469 99.4323 92.0198 98.119 91.0718 98.0993C88.8599 98.0499 86.559 97.655 85.1074 96.4701Z" fill="#1CDBBC"/>
<path d="M191.944 98.4647C193.514 97.4477 195.844 97.3094 198.047 97.497C198.995 97.576 199.37 96.3023 198.521 95.8678L187.52 90.2791C186.927 89.973 186.226 90.4272 186.266 91.0986L186.898 103.421C186.947 104.369 188.27 104.557 188.577 103.649C189.297 101.555 190.364 99.4817 191.934 98.4647" fill="#1CDBBC"/>
<path d="M100.552 84.1571C99.5544 82.5773 99.4458 80.247 99.663 78.045C99.7618 77.0971 98.478 76.712 98.0336 77.5513L92.3062 88.482C92.0001 89.0744 92.4445 89.7755 93.1061 89.7458L105.44 89.2719C106.398 89.2324 106.595 87.9093 105.697 87.5933C103.613 86.8429 101.549 85.7468 100.552 84.167" fill="#1CDBBC"/>
<path d="M178.998 83.2288C180.183 81.7773 182.355 80.9281 184.518 80.4443C185.446 80.237 185.407 78.8941 184.469 78.746L172.283 76.8008C171.621 76.6921 171.098 77.3438 171.335 77.9659L175.71 89.4989C176.045 90.3875 177.369 90.1604 177.378 89.2026C177.418 86.9908 177.813 84.6902 178.988 83.2387" fill="#1CDBBC"/>
<path d="M68.5768 82.7056C67.1153 81.5404 66.2464 79.378 65.7329 77.2156C65.5156 76.2874 64.1726 76.3368 64.0344 77.2847L62.2075 89.4891C62.1088 90.1506 62.7605 90.6641 63.3826 90.4271L74.877 85.9344C75.7658 85.5888 75.5189 84.2756 74.561 84.2657C72.3392 84.2459 70.0383 83.8806 68.5768 82.7154" fill="#1CDBBC"/>
<path d="M209.403 84.6309C210.943 83.5645 213.264 83.3571 215.476 83.4953C216.424 83.5546 216.76 82.2611 215.9 81.8563L204.742 76.5835C204.139 76.2971 203.458 76.7711 203.507 77.4326L204.495 89.7358C204.574 90.6837 205.897 90.8318 206.184 89.9234C206.845 87.8103 207.852 85.7072 209.393 84.6407" fill="#1CDBBC"/>
<path d="M160.631 74.4408C161.233 72.6733 162.981 71.1231 164.837 69.9086C165.637 69.3852 165.134 68.151 164.205 68.3386L152.099 70.7478C151.447 70.8762 151.18 71.6661 151.615 72.1697L159.732 81.4613C160.364 82.1821 161.51 81.5007 161.194 80.6022C160.463 78.5089 160.028 76.2181 160.631 74.4506" fill="#1CDBBC"/>
<path d="M119.433 75.4381C119.028 73.6113 119.719 71.3798 120.677 69.3852C121.092 68.5262 120.015 67.7264 119.314 68.3682L110.219 76.7019C109.726 77.1562 109.903 77.9658 110.545 78.1633L122.306 81.8957C123.215 82.1821 123.847 81.0071 123.116 80.4047C121.408 78.9927 119.847 77.2648 119.442 75.4381" fill="#1CDBBC"/>
<path d="M140.298 71.923C140.377 70.0567 141.621 68.0819 143.053 66.3935C143.675 65.6726 142.846 64.6161 141.997 65.0604L131.055 70.7677C130.463 71.0738 130.433 71.9032 130.986 72.2685L141.384 78.904C142.184 79.4174 143.103 78.4399 142.55 77.6697C141.256 75.8627 140.199 73.7892 140.278 71.923" fill="#1CDBBC"/>
<path d="M195.696 68.5459C196.881 67.0944 199.054 66.265 201.226 65.7812C202.155 65.5738 202.125 64.2408 201.187 64.0828L189.011 62.0883C188.359 61.9797 187.826 62.6215 188.063 63.2435L192.398 74.7962C192.734 75.6849 194.047 75.4578 194.067 74.5099C194.116 72.2981 194.511 69.9974 195.696 68.5459" fill="#1CDBBC"/>
<path d="M83.3694 68.6941C82.1252 67.292 81.6314 65.021 81.4932 62.8092C81.4339 61.8612 80.1107 61.6835 79.8046 62.5919L75.9435 74.3125C75.7361 74.9444 76.2891 75.5665 76.9409 75.4283L89.0277 72.94C89.9659 72.7524 89.9461 71.4095 88.9981 71.2416C86.8158 70.8467 84.6137 70.0962 83.3595 68.704" fill="#1CDBBC"/>
<path d="M100.868 57.6449C99.979 55.9959 100.038 53.6656 100.423 51.4835C100.591 50.5454 99.3371 50.0616 98.8335 50.8713L92.3358 61.3576C91.9902 61.9204 92.3753 62.661 93.0468 62.6807L105.381 63.0855C106.338 63.1152 106.625 61.8118 105.756 61.4267C103.731 60.5281 101.756 59.2939 100.868 57.6449" fill="#1CDBBC"/>
<path d="M179.462 56.2922C180.617 54.8111 182.77 53.9224 184.923 53.3892C185.851 53.1621 185.782 51.8291 184.834 51.6909L172.609 49.9925C171.947 49.9037 171.434 50.5554 171.691 51.1774L176.302 62.6215C176.658 63.5102 177.971 63.2436 177.971 62.2957C177.971 60.074 178.307 57.7733 179.462 56.3021" fill="#1CDBBC"/>
<path d="M119.344 51.3355C118.899 49.5186 119.531 47.2772 120.44 45.253C120.835 44.3841 119.739 43.6139 119.057 44.2755L110.16 52.8265C109.676 53.2906 109.884 54.0904 110.516 54.278L122.365 57.7339C123.284 58.0005 123.886 56.8057 123.136 56.2232C121.388 54.8507 119.788 53.1622 119.344 51.3454" fill="#1CDBBC"/>
<path d="M160.512 50.5159C160.897 48.6793 162.438 46.9316 164.126 45.4998C164.857 44.8877 164.205 43.7126 163.297 44.0187L151.585 47.8894C150.953 48.0967 150.785 48.9163 151.279 49.3507L160.473 57.5858C161.184 58.2177 162.24 57.408 161.825 56.5588C160.848 54.5741 160.137 52.3525 160.512 50.5159" fill="#1CDBBC"/>
<path d="M140.357 48.6596C140.308 46.7835 141.414 44.7297 142.727 42.9523C143.3 42.1822 142.402 41.1947 141.582 41.6983L131.065 48.1461C130.502 48.4917 130.522 49.3211 131.105 49.647L141.937 55.5616C142.777 56.0158 143.626 54.9889 143.014 54.2483C141.602 52.5401 140.407 50.5356 140.357 48.6694" fill="#1CDBBC"/>
<path d="M68.4682 54.8804C67.145 56.2035 66.5228 58.4548 66.2562 60.6468C66.1377 61.5948 64.8046 61.6935 64.5577 60.7653L61.378 48.8473C61.2102 48.2055 61.7928 47.613 62.4346 47.7908L74.3536 50.9702C75.272 51.2171 75.1733 52.5501 74.2351 52.6686C72.033 52.9352 69.7914 53.5572 68.4682 54.8804Z" fill="#1CDBBC"/>
<path d="M54.4261 40.8394C53.1029 42.1625 52.4807 44.4138 52.2141 46.6058C52.0956 47.5537 50.7625 47.6525 50.5156 46.7243L47.3359 34.8063C47.168 34.1645 47.7507 33.572 48.3925 33.7497L60.3115 36.9292C61.2299 37.1761 61.1311 38.5091 60.193 38.6276C57.9909 38.8942 55.7493 39.5162 54.4261 40.8394" fill="#1CDBBC"/>
<path d="M205.097 52.2539C206.421 53.577 207.043 55.8283 207.309 58.0204C207.428 58.9683 208.761 59.067 209.008 58.1389L212.187 46.2208C212.355 45.579 211.773 44.9866 211.131 45.1643L199.212 48.3438C198.293 48.5906 198.392 49.9236 199.33 50.0421C201.532 50.3087 203.774 50.9308 205.097 52.2539" fill="#1CDBBC"/>
<path d="M219.139 38.2129C220.463 39.536 221.085 41.7873 221.351 43.9794C221.47 44.9273 222.803 45.026 223.05 44.0979L226.23 32.1798C226.397 31.538 225.815 30.9455 225.173 31.1233L213.254 34.3027C212.336 34.5496 212.434 35.8826 213.372 36.0011C215.575 36.2677 217.816 36.8898 219.139 38.2129" fill="#1CDBBC"/>
<path d="M137.987 29.563C139.864 29.563 141.888 30.7183 143.636 32.0809C144.386 32.6734 145.394 31.7946 144.92 30.975L138.738 20.3011C138.402 19.7284 137.573 19.7284 137.237 20.3011L131.055 30.975C130.581 31.8044 131.589 32.6734 132.339 32.0809C134.087 30.7183 136.111 29.563 137.987 29.563" fill="#1CDBBC"/>
<path d="M137.987 9.70619C139.864 9.70619 141.888 10.8615 143.636 12.2241C144.386 12.8165 145.394 11.9377 144.92 11.1182L138.738 0.434406C138.402 -0.138292 137.573 -0.138292 137.237 0.434406L131.055 11.1083C130.581 11.9377 131.589 12.8067 132.339 12.2142C134.087 10.8516 136.111 9.69632 137.987 9.69632" fill="#1CDBBC"/>
</g>
<defs>
<clipPath id="clip0_1723_4856">
<rect width="272.527" height="320" fill="white" transform="translate(0.736267)"/>
</clipPath>
</defs>
</svg>
