<svg width="206" height="193" viewBox="0 0 206 193" fill="none" xmlns="http://www.w3.org/2000/svg">
<g clip-path="url(#clip0_1672_2680)">
<path d="M50.2941 6.08313C49.9207 6.91262 49.7132 7.83402 49.7132 8.80139V10.6661L48.1103 14.4677C47.8745 15.0258 48.2675 15.6474 48.8703 15.6737L49.7154 15.713V19.7642C49.7154 21.062 50.7658 22.1148 52.0608 22.1148H54.7534V28.8863H42.1791C39.4319 28.8863 37.1476 31.0049 36.9358 33.7494L34.7324 62.2474L25.888 83.79L33.5029 87.3596L45.1709 61.0152" stroke="#ABABAB" stroke-miterlimit="10"/>
<path d="M86.2787 49.9365L82.3129 32.6924C81.7036 30.3768 79.6159 28.766 77.2268 28.766H65.5566V15.84" stroke="#ABABAB" stroke-miterlimit="10"/>
<path d="M52.2922 29.0111C52.2922 31.1188 53.9978 32.8281 56.1008 32.8281H63.8401C65.9431 32.8281 67.6487 31.1188 67.6487 29.0111V28.6412" stroke="#ABABAB" stroke-miterlimit="10"/>
<path d="M50.0822 6.11377H57.5748V11.0994C57.5748 11.6094 57.9876 12.023 58.4964 12.023C59.0052 12.023 59.4179 11.6094 59.4179 11.0994V10.7296C59.4179 9.94823 60.0512 9.31353 60.8309 9.31353C61.6105 9.31353 62.2438 9.94823 62.2438 10.7296V15.8378H65.4365" stroke="#ABABAB" stroke-miterlimit="10"/>
<path d="M41.7292 40.9522L45.1687 51.5386V78.7431L29.4476 127.985L18.1464 174.147L32.3935 177.841L44.3083 131.309L61.0711 91.8879" stroke="#ABABAB" stroke-miterlimit="10"/>
<path d="M57.2058 81.2053L76.3686 133.771" stroke="#ABABAB" stroke-miterlimit="10"/>
<path d="M77.3513 40.335L73.9118 57.3756" stroke="#ABABAB" stroke-miterlimit="10"/>
<path d="M76.4494 75.1603L83.4921 101.763" stroke="#ABABAB" stroke-miterlimit="10"/>
<path d="M73.9118 57.3756V65.572L74.7526 68.7499" stroke="#ABABAB" stroke-miterlimit="10"/>
<path d="M45.1687 65.6945H73.9118" stroke="#ABABAB" stroke-miterlimit="10"/>
<path d="M82.0748 67.1675L85.5798 91.9164" stroke="#ABABAB" stroke-miterlimit="10"/>
<path d="M84.4749 84.4072L87.423 83.79" stroke="#ABABAB" stroke-miterlimit="10"/>
<path d="M88.5476 57.938L90.6157 69.1416" stroke="#ABABAB" stroke-miterlimit="10"/>
<path d="M23.2281 93.3915C23.1342 93.061 23.0971 92.713 23.1189 92.3672L23.7391 89.1412" stroke="#ABABAB" stroke-miterlimit="10"/>
<path d="M25.8836 83.79L24.0558 87.8893C23.5797 88.9574 23.6059 90.183 24.1279 91.2292L25.7832 94.5493C26.0343 95.0527 26.6611 95.2321 27.1393 94.9367C27.5455 94.6872 27.7049 94.175 27.5149 93.7373L26.6174 91.6691L28.6025 90.7411C29.5306 90.3077 30.6312 90.7323 31.0287 91.6778L31.5287 92.8684C31.9371 93.8424 31.4894 94.9651 30.5242 95.3875L27.0956 96.8867C26.1937 97.2807 25.1411 96.9305 24.652 96.0748L24.1257 95.1533" stroke="#ABABAB" stroke-miterlimit="10"/>
<path d="M32.2428 86.7446L30.3058 90.6841" stroke="#ABABAB" stroke-miterlimit="10"/>
<path d="M32.1533 99.5765V97.5149C32.1533 96.5431 31.7121 95.6742 31.0177 95.0964" stroke="#ABABAB" stroke-miterlimit="10"/>
<path d="M31.5942 93.1135C33.0989 94.0021 34.11 95.6414 34.11 97.5148V99.5765" stroke="#ABABAB" stroke-miterlimit="10"/>
<path d="M21.0967 99.7669V97.517C21.0967 95.1905 22.6582 93.2208 24.7874 92.6102" stroke="#ABABAB" stroke-miterlimit="10"/>
<path d="M25.7657 94.4026C24.237 94.6106 23.0556 95.9281 23.0556 97.5149V99.7648" stroke="#ABABAB" stroke-miterlimit="10"/>
<path d="M38.4142 99.6707H11.2042C9.04439 99.6707 7.29517 101.424 7.29517 103.588V124.148C7.29517 126.313 9.04439 128.066 11.2042 128.066H29.4454" stroke="#ABABAB" stroke-miterlimit="10"/>
<path d="M110.178 35.4106L109.014 17.6084C109.01 17.5756 109.008 17.5449 109.008 17.5121C108.981 12.9795 105.306 9.31354 100.779 9.31354H97.8309C93.2865 9.31354 89.6002 13.0057 89.6002 17.5624H95.7411V35.4128H110.176L110.178 35.4106Z" stroke="#ABABAB" stroke-miterlimit="10"/>
<path d="M91.321 17.4377V19.53L89.8295 23.2397C89.6635 23.6555 89.9715 24.1064 90.4191 24.0998L91.321 24.0867V27.5316C91.321 29.1643 92.6422 30.4884 94.2714 30.4884H95.8655" stroke="#ABABAB" stroke-miterlimit="10"/>
<path d="M101.696 41.8583L87.5431 59.1681L71.2083 83.0656L67.4521 84.3481C66.9193 84.3853 66.4236 84.0417 66.1047 83.6128C65.7859 83.1838 65.8427 83.0984 65.6134 82.6169C65.3491 82.061 65.5413 82.3828 65.1526 81.9056C64.8185 81.4986 64.4407 81.1199 64.1961 80.6538C64.1939 80.6494 64.1917 80.645 64.1896 80.6406C63.803 79.879 64.266 78.9532 65.0958 78.7475L69.9176 76.8718L82.4439 55.8195L95.741 35.4128" stroke="#ABABAB" stroke-miterlimit="10"/>
<path d="M90.2772 43.8018L96.1123 48.7722" stroke="#ABABAB" stroke-miterlimit="10"/>
<path d="M107.935 35.4106V63.4775C109.169 67.2922 110.209 71.1201 110.073 75.1275C110.006 77.1607 109.582 79.1633 109.11 81.1418C108.193 84.985 107.09 88.7845 105.804 92.5204L92.9501 132.047L90.3121 184.488L65.6811 181.534L77.9649 126.753L91.8451 63.3549L90.7511 55.2439" stroke="#ABABAB" stroke-miterlimit="10"/>
<path d="M91.8452 63.3549H107.935" stroke="#ABABAB" stroke-miterlimit="10"/>
<path d="M74.9491 182.527C74.4884 185.644 74.0014 188.677 73.5406 191.794C72.191 191.693 70.9222 191.61 69.5726 191.507C69.5268 190.669 68.8454 189.91 68.02 189.774C67.1945 189.638 66.2336 190.177 65.9213 190.956C61.2939 190.5 56.9154 189.555 52.3774 188.535C52.4146 187.299 52.5063 185.933 53.3842 185.066C54.297 184.164 55.7274 184.129 57.0071 184.149C58.8415 184.178 60.6759 184.206 62.5081 184.234C63.5497 184.25 64.622 184.263 65.5981 183.897C66.5743 183.532 67.4522 182.7 67.5526 181.661" stroke="#ABABAB" stroke-miterlimit="10"/>
<path d="M52.681 186.125C59.6145 187.752 66.6835 188.8 73.7895 189.255" stroke="#ABABAB" stroke-miterlimit="10"/>
<path d="M100.198 109.519L104.127 129.955L117.149 183.626L142.083 173.779L118.132 125.523L109.778 77.6356" stroke="#ABABAB" stroke-miterlimit="10"/>
<path d="M137.633 175.397C138.808 177.314 139.965 179.218 141.162 181.148C140.066 181.945 139.046 182.705 137.952 183.501C137.375 182.893 136.366 182.753 135.65 183.184C134.931 183.615 134.547 184.65 134.811 185.445C130.985 188.095 127.037 190.212 122.918 192.374C122.15 191.407 121.337 190.306 121.449 189.076C121.564 187.797 122.632 186.843 123.622 186.027C125.039 184.86 126.456 183.694 127.876 182.527C128.681 181.864 129.507 181.179 130.016 180.269C130.363 179.649 130.533 178.896 130.424 178.209" stroke="#ABABAB" stroke-miterlimit="10"/>
<path d="M121.593 190.339C127.932 187.086 134.001 183.306 139.716 179.05" stroke="#ABABAB" stroke-miterlimit="10"/>
<path d="M108.029 52.031L126.795 82.7264C127.443 83.7747 128.577 84.4247 129.806 84.451L133.239 84.5298L172.545 185.721" stroke="#ABABAB" stroke-miterlimit="10"/>
<path d="M131.088 84.4926C130.64 84.9938 130.69 85.8561 131.191 86.3026C131.599 86.6681 132.208 86.7316 132.741 86.6024C133.274 86.4733 133.748 86.1778 134.211 85.8867L135.211 85.2608C136.052 84.7333 136.563 83.8098 136.563 82.8161C136.563 81.1812 135.239 79.8549 133.608 79.8549H130.046L107.938 35.415" stroke="#ABABAB" stroke-miterlimit="10"/>
<path d="M107.935 50.3064L113.585 46.9841" stroke="#ABABAB" stroke-miterlimit="10"/>
<path d="M153.769 136.772L177.666 127.589C179.396 126.923 181.337 127.788 182.005 129.519L184.207 135.227L186.569 134.312C188.301 133.64 190.247 134.505 190.917 136.24L205.073 172.941L172.305 185.635" stroke="#ABABAB" stroke-miterlimit="10"/>
<path d="M172.617 189.014C173.533 189.014 174.275 188.271 174.275 187.353C174.275 186.436 173.533 185.692 172.617 185.692C171.702 185.692 170.96 186.436 170.96 187.353C170.96 188.271 171.702 189.014 172.617 189.014Z" stroke="#ABABAB" stroke-miterlimit="10"/>
<path d="M93.1685 131.176L109.532 170.825L97.6169 177.472L91.3123 163.602" stroke="#ABABAB" stroke-miterlimit="10"/>
<path d="M18.2709 173.655C17.9477 175.462 16.0325 176.526 14.2396 176.903C11.0578 177.572 7.769 176.903 4.52607 176.675C3.68531 176.616 2.80524 176.596 2.04091 176.951C1.27658 177.305 0.673851 178.15 0.868209 178.973C1.0582 179.783 1.89241 180.249 2.66547 180.549C3.74208 180.965 22.8983 184.828 24.0426 184.983L26.4994 176.242" stroke="#ABABAB" stroke-miterlimit="10"/>
<path d="M101.814 175.053C102.011 176.36 101.452 177.603 100.676 178.741C98.8399 181.431 96.0031 183.225 93.5049 185.311C92.8585 185.852 92.2077 186.445 91.902 187.233C91.5962 188.021 91.7425 189.047 92.4501 189.507C93.1467 189.96 94.0705 189.719 94.8348 189.397C95.9005 188.951 112.399 178.463 113.332 177.78L109.073 169.766" stroke="#ABABAB" stroke-miterlimit="10"/>
<path d="M123.534 25.9318H142.435" stroke="#ABABAB" stroke-miterlimit="10"/>
<path d="M130.062 30.2936H148.962" stroke="#ABABAB" stroke-miterlimit="10"/>
<path d="M123.534 34.6534H142.435" stroke="#ABABAB" stroke-miterlimit="10"/>
<path d="M155.415 97.3989H174.316" stroke="#ABABAB" stroke-miterlimit="10"/>
<path d="M161.941 101.759H180.841" stroke="#ABABAB" stroke-miterlimit="10"/>
<path d="M155.415 106.118H174.316" stroke="#ABABAB" stroke-miterlimit="10"/>
<path d="M50.5387 6.03063C50.0058 5.57759 49.8726 4.54018 50.4164 3.83107C50.8881 3.21607 51.814 3.01253 52.3512 3.30142C52.4713 3.36708 52.6177 3.36489 52.7312 3.28829C52.8338 3.21826 52.8906 3.10226 52.8863 2.9797C52.8666 2.3647 53.3951 1.77158 54.155 1.60525C54.5569 1.51551 54.9521 1.56147 55.2688 1.7103C55.6269 1.87663 56.0615 1.80003 56.3236 1.50457C56.5856 1.20911 57.0071 0.977112 57.5836 0.977112C58.0378 0.977112 58.4462 1.13907 58.7083 1.39952C58.9463 1.63589 59.2957 1.69717 59.608 1.57898C60.036 1.41702 60.5907 1.41484 61.0165 1.62057C61.4074 1.80879 61.687 2.12176 61.8092 2.45881C61.8922 2.68861 62.1521 2.8068 62.3836 2.73457C62.7024 2.6339 63.0911 2.66454 63.4733 2.84838C64.0171 3.11101 64.3403 3.79167 64.325 4.34321C64.3206 4.51173 64.4669 4.63429 64.6329 4.61241C65.0937 4.55331 65.6178 4.80938 65.9432 5.30182C66.2686 5.79426 66.1026 6.61499 65.7663 7.11837C65.6702 7.26282 65.7248 7.46855 65.8864 7.5364C66.3057 7.71587 66.6289 8.18642 66.6769 8.76421C66.7206 9.30043 66.5131 9.7863 66.1747 10.0489C66.0633 10.1343 66.0764 10.2984 66.2009 10.3663C66.5787 10.5698 66.8604 11.0163 66.904 11.5525C66.963 12.2879 66.5546 12.9248 65.9781 13.0276C65.9563 13.032 65.9541 13.0583 65.9737 13.0648C66.5284 13.2771 66.9019 14.0213 66.7053 14.7326C66.5088 15.4439 65.9694 15.8575 65.2465 15.8553" stroke="#ABABAB" stroke-miterlimit="10"/>
<path d="M80.4523 59.1681L76.3686 45.2047" stroke="#ABABAB" stroke-miterlimit="10"/>
</g>
<defs>
<clipPath id="clip0_1672_2680">
<rect width="204.993" height="192.154" fill="white" transform="translate(0.50354 0.637878)"/>
</clipPath>
</defs>
</svg>
