<svg width="245" height="320" viewBox="0 0 245 320" fill="none" xmlns="http://www.w3.org/2000/svg">
<g clip-path="url(#clip0_1723_4299)">
<path d="M202.518 311.868C202.297 314.044 201.347 316.079 199.822 317.641C199.698 317.81 199.634 318.017 199.642 318.228C199.65 318.439 199.729 318.64 199.866 318.8C200.003 318.96 200.19 319.068 200.396 319.107C200.603 319.146 200.816 319.114 201.002 319.015C202.939 318.021 204.813 316.901 206.666 315.78C208.519 314.659 210.351 313.496 212.12 312.333C212.251 312.247 212.357 312.127 212.427 311.986C212.496 311.845 212.527 311.688 212.517 311.531C212.506 311.374 212.454 311.222 212.366 311.092C212.278 310.962 212.156 310.858 212.015 310.79C210.141 309.838 208.288 308.887 206.477 307.83C204.666 306.773 202.876 305.715 201.149 304.679C200.975 304.573 200.769 304.533 200.568 304.564C200.367 304.596 200.183 304.698 200.05 304.852C199.916 305.006 199.842 305.203 199.838 305.407C199.835 305.612 199.904 305.811 200.033 305.969C201.423 307.646 202.287 309.699 202.518 311.868" fill="#1CDBBC"/>
<path d="M226.125 310.049C226.237 312.245 225.607 314.413 224.335 316.202C224.232 316.388 224.198 316.603 224.236 316.811C224.275 317.019 224.385 317.208 224.548 317.343C224.71 317.478 224.914 317.552 225.125 317.553C225.336 317.553 225.541 317.479 225.703 317.344C227.472 316.054 229.157 314.617 230.82 313.263C232.484 311.91 234.084 310.43 235.664 309.034C235.777 308.926 235.861 308.791 235.907 308.641C235.952 308.49 235.959 308.331 235.925 308.178C235.891 308.024 235.818 307.882 235.713 307.766C235.608 307.649 235.475 307.562 235.327 307.512C233.221 306.857 231.347 306.243 229.389 305.398C227.43 304.552 225.535 303.96 223.64 303.114C223.45 303.04 223.241 303.034 223.049 303.1C222.856 303.165 222.692 303.296 222.587 303.47C222.481 303.645 222.44 303.851 222.471 304.053C222.502 304.254 222.602 304.439 222.755 304.573C224.378 306.019 225.548 307.907 226.125 310.007" fill="#1CDBBC"/>
<path d="M178.932 310.007C178.374 312.128 177.121 313.998 175.373 315.315C175.211 315.457 175.105 315.652 175.074 315.866C175.042 316.08 175.087 316.298 175.202 316.481C175.316 316.664 175.491 316.801 175.696 316.866C175.901 316.931 176.123 316.921 176.321 316.837C178.427 316.16 180.427 315.315 182.428 314.49L185.418 313.264L186.871 312.651C187.377 312.439 187.861 312.185 188.345 311.953C188.489 311.889 188.614 311.788 188.706 311.66C188.798 311.532 188.855 311.382 188.87 311.224C188.885 311.067 188.858 310.909 188.792 310.765C188.725 310.622 188.622 310.499 188.493 310.409L187.208 309.521L185.945 308.549L183.46 306.624C181.817 305.335 180.217 304.087 178.68 302.692C178.524 302.557 178.327 302.483 178.122 302.482C177.917 302.481 177.719 302.552 177.562 302.685C177.405 302.817 177.3 303.001 177.265 303.203C177.231 303.406 177.269 303.614 177.374 303.791C178.492 305.664 179.034 307.826 178.932 310.007" fill="#1CDBBC"/>
<path d="M155.937 304.468C155.039 306.472 153.506 308.122 151.578 309.162C151.409 309.283 151.287 309.46 151.232 309.661C151.178 309.863 151.194 310.077 151.278 310.268C151.362 310.459 151.509 310.615 151.694 310.71C151.879 310.805 152.091 310.833 152.294 310.79L155.495 310.198C156.548 310.008 157.601 309.712 158.675 309.479C160.781 308.971 162.886 308.464 164.992 307.914C165.14 307.868 165.273 307.784 165.38 307.672C165.486 307.559 165.562 307.421 165.6 307.27C165.638 307.12 165.637 306.962 165.597 306.812C165.557 306.662 165.479 306.524 165.371 306.413C163.876 304.912 162.423 303.368 161.012 301.846C160.296 301.085 159.58 300.366 158.907 299.562L156.906 297.194C156.764 297.059 156.581 296.975 156.386 296.955C156.191 296.935 155.996 296.981 155.829 297.085C155.663 297.189 155.536 297.345 155.468 297.529C155.4 297.714 155.395 297.916 155.453 298.103C156.259 300.116 156.457 302.322 156.022 304.447" fill="#1CDBBC"/>
<path d="M134.081 295.376C132.885 297.216 131.115 298.607 129.048 299.33C128.855 299.418 128.699 299.572 128.607 299.765C128.516 299.957 128.494 300.176 128.547 300.382C128.6 300.589 128.723 300.771 128.895 300.895C129.068 301.02 129.278 301.079 129.49 301.064C131.596 301.064 133.828 300.937 135.997 300.789L142.315 300.176C142.47 300.159 142.618 300.101 142.743 300.007C142.869 299.914 142.968 299.789 143.03 299.646C143.092 299.502 143.115 299.344 143.097 299.188C143.078 299.032 143.019 298.884 142.925 298.759C141.683 297.025 140.482 295.312 139.324 293.6C138.166 291.887 137.071 290.09 135.997 288.356C135.878 288.198 135.71 288.084 135.519 288.032C135.328 287.981 135.125 287.996 134.944 288.074C134.762 288.152 134.611 288.288 134.516 288.462C134.421 288.636 134.386 288.837 134.418 289.033C134.905 291.142 134.758 293.35 133.997 295.376" fill="#1CDBBC"/>
<path d="M211.996 286.22C211.927 288.414 211.126 290.522 209.721 292.204C209.599 292.381 209.543 292.596 209.564 292.811C209.585 293.025 209.682 293.225 209.836 293.375C209.99 293.525 210.193 293.615 210.407 293.629C210.621 293.643 210.834 293.58 211.006 293.451C214.64 291.123 218.154 288.61 221.535 285.924C221.656 285.824 221.749 285.694 221.805 285.547C221.861 285.401 221.879 285.242 221.855 285.086C221.832 284.931 221.769 284.784 221.672 284.66C221.575 284.537 221.448 284.44 221.303 284.38C217.457 282.836 213.703 281.071 210.058 279.094C209.875 279.019 209.672 279.007 209.481 279.061C209.291 279.116 209.124 279.233 209.007 279.394C208.89 279.554 208.831 279.75 208.839 279.949C208.846 280.148 208.919 280.338 209.048 280.49C210.538 282.065 211.54 284.041 211.932 286.178" fill="#1CDBBC"/>
<path d="M188.999 285.818C188.557 287.971 187.39 289.905 185.693 291.295C185.545 291.447 185.454 291.647 185.438 291.859C185.421 292.072 185.479 292.283 185.602 292.457C185.725 292.631 185.905 292.756 186.11 292.81C186.315 292.864 186.533 292.844 186.725 292.754C187.757 292.331 188.831 291.971 189.757 291.506L192.748 290.132L195.653 288.757C196.622 288.271 197.57 287.742 198.518 287.235C198.653 287.157 198.766 287.045 198.844 286.91C198.923 286.774 198.964 286.62 198.964 286.463C198.964 286.306 198.923 286.152 198.844 286.017C198.766 285.881 198.653 285.769 198.518 285.691C197.633 285.12 196.749 284.592 195.864 284L193.295 282.203L190.789 280.405C189.968 279.834 189.168 279.137 188.367 278.523C187.567 277.91 186.662 278.862 187.146 279.708C188.335 281.521 188.965 283.647 188.957 285.818" fill="#1CDBBC"/>
<path d="M234.694 282.414C235.05 284.6 234.641 286.841 233.536 288.758C233.442 288.955 233.423 289.181 233.481 289.392C233.54 289.603 233.672 289.785 233.854 289.906C234.036 290.027 234.255 290.078 234.471 290.049C234.688 290.021 234.886 289.915 235.031 289.751L237.432 287.552L239.727 285.205C241.243 283.683 242.696 282.034 244.086 280.448C244.189 280.33 244.259 280.187 244.289 280.032C244.319 279.878 244.308 279.719 244.256 279.571C244.205 279.422 244.115 279.29 243.997 279.188C243.878 279.086 243.734 279.017 243.581 278.989C241.475 278.566 239.495 278.143 237.474 277.593L234.505 276.811L231.557 275.902C231.361 275.859 231.157 275.884 230.977 275.972C230.798 276.061 230.653 276.208 230.568 276.39C230.482 276.571 230.46 276.777 230.506 276.972C230.552 277.168 230.662 277.342 230.819 277.467C232.584 278.717 233.934 280.47 234.694 282.499" fill="#1CDBBC"/>
<path d="M113.905 282.964C112.435 284.605 110.465 285.712 108.304 286.114C108.103 286.175 107.929 286.303 107.811 286.478C107.694 286.652 107.641 286.862 107.661 287.072C107.681 287.282 107.772 287.478 107.92 287.627C108.068 287.777 108.263 287.87 108.472 287.89L114.958 288.609C116.011 288.609 117.064 288.779 118.18 288.842L121.381 289.011C121.537 289.016 121.692 288.981 121.831 288.908C121.97 288.835 122.087 288.727 122.172 288.595C122.257 288.463 122.306 288.311 122.315 288.155C122.324 287.998 122.292 287.841 122.223 287.7L120.791 284.867C120.328 283.937 119.865 283.027 119.443 282.055C118.58 280.131 117.759 278.228 116.959 276.367C116.883 276.172 116.739 276.01 116.554 275.913C116.369 275.816 116.155 275.789 115.952 275.839C115.749 275.888 115.571 276.009 115.45 276.18C115.329 276.351 115.274 276.56 115.295 276.769C115.459 278.927 114.975 281.085 113.905 282.964" fill="#1CDBBC"/>
<path d="M166.426 281.209C165.606 283.238 164.12 284.924 162.214 285.988C162.05 286.116 161.934 286.295 161.884 286.497C161.834 286.7 161.853 286.913 161.938 287.103C162.023 287.293 162.169 287.449 162.353 287.546C162.536 287.643 162.747 287.675 162.951 287.637C165.057 287.172 167.163 286.664 169.269 286.157C171.374 285.65 173.48 284.973 175.586 284.36C175.733 284.308 175.864 284.218 175.966 284.101C176.069 283.983 176.139 283.841 176.171 283.688C176.203 283.535 176.195 283.376 176.148 283.227C176.1 283.078 176.016 282.944 175.902 282.837C174.365 281.378 172.849 279.983 171.396 278.482C169.943 276.98 168.574 275.458 167.184 273.957C167.046 273.811 166.863 273.718 166.664 273.693C166.466 273.668 166.265 273.713 166.096 273.82C165.927 273.928 165.8 274.09 165.737 274.281C165.675 274.472 165.68 274.679 165.752 274.866C166.598 276.866 166.84 279.072 166.447 281.209" fill="#1CDBBC"/>
<path d="M145.092 272.603C143.884 274.45 142.099 275.841 140.017 276.557C139.809 276.632 139.635 276.782 139.532 276.978C139.428 277.174 139.401 277.402 139.457 277.617C139.512 277.832 139.646 278.018 139.832 278.139C140.017 278.26 140.241 278.307 140.459 278.27C142.691 278.27 144.839 278.27 147.029 278.016C149.219 277.763 151.241 277.636 153.347 277.403C153.504 277.385 153.653 277.325 153.779 277.229C153.906 277.134 154.004 277.006 154.064 276.859C154.124 276.712 154.144 276.552 154.122 276.395C154.099 276.237 154.035 276.089 153.936 275.965C152.694 274.253 151.494 272.519 150.314 270.827C149.135 269.136 148.209 267.317 147.05 265.605C146.932 265.446 146.763 265.332 146.572 265.281C146.381 265.23 146.179 265.244 145.997 265.322C145.815 265.4 145.665 265.537 145.569 265.711C145.474 265.884 145.439 266.085 145.471 266.281C145.95 268.395 145.789 270.604 145.008 272.624" fill="#1CDBBC"/>
<path d="M95.8814 267.571C94.1822 268.932 92.0747 269.678 89.9009 269.685C89.6824 269.7 89.4765 269.793 89.3212 269.948C89.166 270.103 89.0719 270.309 89.0565 270.529C89.0411 270.748 89.1053 270.965 89.2373 271.141C89.3694 271.316 89.5602 271.438 89.7745 271.483C90.8064 271.821 91.8804 272.096 92.9333 272.371L96.092 273.195L99.2085 273.957L102.367 274.612C102.52 274.643 102.679 274.633 102.827 274.583C102.975 274.532 103.107 274.444 103.209 274.326C103.312 274.208 103.382 274.064 103.411 273.91C103.441 273.756 103.43 273.597 103.378 273.449C103.041 272.434 102.704 271.462 102.388 270.447L101.525 267.423L100.704 264.421C100.43 263.427 100.156 262.433 99.9456 261.418C99.8903 261.227 99.7713 261.061 99.6087 260.948C99.446 260.835 99.2495 260.781 99.0521 260.796C98.8547 260.811 98.6684 260.893 98.5243 261.03C98.3803 261.166 98.2873 261.348 98.261 261.545C98.0651 263.717 97.2376 265.783 95.8814 267.486" fill="#1CDBBC"/>
<path d="M210.371 260.382C210.434 262.596 209.685 264.756 208.266 266.451C207.655 267.254 208.708 268.248 209.634 267.677C213.464 265.307 216.95 262.418 219.995 259.092C220.103 258.977 220.179 258.836 220.214 258.682C220.25 258.527 220.243 258.367 220.196 258.216C220.149 258.065 220.063 257.929 219.946 257.823C219.829 257.717 219.686 257.644 219.532 257.612C215.624 256.762 211.863 255.337 208.371 253.383C207.613 252.961 206.876 254.06 207.465 254.8C208.928 256.365 209.953 258.291 210.434 260.382" fill="#1CDBBC"/>
<path d="M125.678 260.213C124.162 261.801 122.161 262.836 119.992 263.152C119.791 263.197 119.61 263.309 119.481 263.47C119.351 263.632 119.281 263.833 119.281 264.04C119.281 264.247 119.351 264.448 119.481 264.61C119.61 264.771 119.791 264.884 119.992 264.928C122.098 265.309 124.309 265.647 126.499 265.858L129.721 266.197L131.3 266.345H132.922C133.076 266.348 133.227 266.312 133.363 266.241C133.499 266.169 133.615 266.063 133.699 265.934C133.784 265.805 133.834 265.657 133.845 265.503C133.856 265.349 133.829 265.195 133.764 265.055L133.048 263.638C132.838 263.173 132.606 262.687 132.396 262.201L131.132 259.346C130.29 257.464 129.553 255.519 128.858 253.595C128.772 253.412 128.627 253.264 128.446 253.175C128.265 253.087 128.06 253.062 127.863 253.107C127.667 253.151 127.492 253.261 127.366 253.419C127.241 253.577 127.173 253.773 127.173 253.975C127.257 256.14 126.7 258.282 125.573 260.128" fill="#1CDBBC"/>
<path d="M186.64 259.536C186.085 261.669 184.804 263.54 183.018 264.822C182.846 264.963 182.731 265.163 182.696 265.383C182.66 265.604 182.707 265.829 182.826 266.017C182.946 266.205 183.131 266.343 183.345 266.403C183.559 266.463 183.787 266.443 183.987 266.345C186.093 265.689 188.199 264.844 190.304 264.019L191.8 263.406L193.295 262.729L196.201 261.355C196.336 261.277 196.449 261.165 196.528 261.029C196.606 260.894 196.648 260.74 196.648 260.583C196.648 260.426 196.606 260.272 196.528 260.137C196.449 260.001 196.336 259.889 196.201 259.811L193.632 257.993L192.368 257.105L191.147 256.132C189.504 254.842 187.946 253.616 186.451 252.22C185.756 251.586 184.745 252.474 185.166 253.341C186.24 255.222 186.759 257.371 186.661 259.536" fill="#1CDBBC"/>
<path d="M163.728 253.024C162.68 254.947 160.997 256.442 158.969 257.252C158.792 257.364 158.658 257.533 158.588 257.731C158.519 257.929 158.518 258.145 158.587 258.344C158.655 258.542 158.788 258.712 158.965 258.825C159.141 258.937 159.35 258.987 159.558 258.965C160.653 258.965 161.769 258.754 162.864 258.627L166.128 258.183C168.234 257.844 170.34 257.422 172.446 256.978C172.598 256.943 172.739 256.868 172.853 256.76C172.968 256.653 173.052 256.517 173.097 256.367C173.141 256.216 173.146 256.057 173.109 255.904C173.073 255.751 172.996 255.611 172.888 255.498C171.477 253.912 170.129 252.326 168.824 250.74L166.971 248.287C166.36 247.463 165.77 246.68 165.202 245.813C164.633 244.947 163.496 245.644 163.686 246.596C164.283 248.668 164.283 250.867 163.686 252.939" fill="#1CDBBC"/>
<path d="M80.4859 249.493C78.5786 250.607 76.354 251.047 74.1685 250.741C73.9606 250.736 73.7576 250.804 73.5934 250.932C73.4293 251.06 73.3141 251.241 73.2672 251.444C73.2202 251.648 73.2445 251.861 73.3357 252.049C73.427 252.236 73.5797 252.386 73.7684 252.474L76.7165 253.891C77.7062 254.335 78.8223 254.737 79.7278 255.16C81.8336 255.984 83.6868 256.83 85.6873 257.549C85.832 257.602 85.9882 257.617 86.1404 257.591C86.2925 257.565 86.4353 257.5 86.5545 257.402C86.6737 257.303 86.7652 257.176 86.8199 257.031C86.8747 256.886 86.8907 256.729 86.8665 256.576C86.5085 254.462 86.2558 252.347 85.9821 250.233C85.8557 249.197 85.7083 248.119 85.6241 247.146L85.3924 244.038C85.3655 243.836 85.27 243.649 85.1221 243.509C84.9743 243.369 84.783 243.285 84.5804 243.27C84.3778 243.255 84.1764 243.311 84.0098 243.427C83.8432 243.544 83.7217 243.715 83.6657 243.911C83.1602 246.029 82.03 247.945 80.4227 249.408" fill="#1CDBBC"/>
<path d="M108.809 244.482C107.043 245.781 104.889 246.438 102.702 246.343C102.49 246.356 102.29 246.443 102.136 246.589C101.982 246.735 101.884 246.931 101.859 247.142C101.834 247.354 101.884 247.567 101.999 247.745C102.115 247.924 102.289 248.056 102.491 248.119C103.523 248.499 104.597 248.901 105.587 249.218L108.703 250.212L111.799 251.142L114.916 251.925C115.068 251.966 115.229 251.965 115.382 251.922C115.534 251.88 115.672 251.797 115.782 251.683C115.892 251.568 115.969 251.426 116.005 251.272C116.042 251.117 116.036 250.956 115.989 250.804L115.147 247.78L114.431 244.714L113.757 241.691C113.547 240.697 113.399 239.576 113.231 238.667C113.187 238.47 113.078 238.294 112.921 238.167C112.764 238.041 112.569 237.972 112.367 237.972C112.166 237.972 111.971 238.041 111.814 238.167C111.657 238.294 111.548 238.47 111.504 238.667C111.188 240.815 110.251 242.822 108.809 244.439" fill="#1CDBBC"/>
<path d="M143.092 241.289C142.452 242.109 141.63 242.768 140.691 243.213C139.669 243.721 138.586 244.098 137.469 244.334C137.254 244.38 137.063 244.503 136.932 244.68C136.801 244.858 136.738 245.077 136.756 245.297C136.775 245.517 136.872 245.723 137.03 245.877C137.188 246.03 137.397 246.12 137.617 246.131C139.723 246.469 142.039 246.702 144.187 246.934C146.335 247.167 148.398 247.23 150.652 247.251C150.808 247.254 150.962 247.215 151.099 247.138C151.235 247.061 151.348 246.949 151.428 246.813C151.507 246.678 151.549 246.524 151.549 246.367C151.55 246.21 151.509 246.055 151.431 245.919C150.42 244.08 149.494 242.156 148.609 240.337C147.725 238.519 146.946 236.574 146.23 234.692C146.144 234.512 146 234.367 145.821 234.281C145.641 234.196 145.438 234.175 145.246 234.222C145.053 234.269 144.882 234.381 144.762 234.54C144.642 234.699 144.58 234.894 144.587 235.094C144.553 236.222 144.434 237.346 144.229 238.456C144.056 239.471 143.668 240.437 143.092 241.289" fill="#1CDBBC"/>
<path d="M68.0614 229.321C66.0396 230.096 63.821 230.185 61.744 229.575C61.5326 229.517 61.3073 229.54 61.1119 229.64C60.9164 229.739 60.7647 229.908 60.686 230.113C60.6074 230.319 60.6074 230.546 60.6861 230.751C60.7649 230.956 60.9167 231.125 61.1122 231.224C62.9443 232.472 64.7132 233.698 66.5452 234.84C68.3773 235.982 70.2725 236.954 72.1046 238.117C72.2425 238.19 72.3967 238.226 72.5524 238.221C72.7081 238.217 72.86 238.172 72.9934 238.091C73.1268 238.01 73.2372 237.896 73.3139 237.76C73.3906 237.624 73.431 237.47 73.4312 237.314C73.4312 235.199 73.4312 233.085 73.4312 230.971C73.4312 228.856 73.6629 226.742 73.8103 224.754C73.8108 224.552 73.7427 224.356 73.6172 224.198C73.4917 224.04 73.3163 223.93 73.12 223.885C72.9237 223.841 72.7182 223.865 72.5374 223.954C72.3566 224.043 72.2113 224.191 72.1256 224.374C71.3027 226.382 69.893 228.092 68.0824 229.279" fill="#1CDBBC"/>
<path d="M95.0363 225.959C93.0752 226.922 90.8414 227.169 88.7188 226.657C88.508 226.637 88.2966 226.69 88.1199 226.807C87.9433 226.925 87.812 227.099 87.748 227.302C87.684 227.505 87.6911 227.723 87.7681 227.922C87.8451 228.12 87.9874 228.285 88.1713 228.391C91.9189 230.592 95.7777 232.596 99.7322 234.396C99.8746 234.46 100.031 234.486 100.187 234.47C100.342 234.454 100.491 234.396 100.617 234.304C100.743 234.212 100.843 234.087 100.905 233.944C100.968 233.8 100.992 233.642 100.975 233.487C100.571 229.348 100.395 225.191 100.448 221.033C100.445 220.827 100.369 220.63 100.235 220.475C100.1 220.321 99.9152 220.219 99.713 220.189C99.5108 220.158 99.3044 220.201 99.1305 220.309C98.9566 220.417 98.8266 220.584 98.7635 220.779C98.0526 222.835 96.7567 224.636 95.0363 225.959" fill="#1CDBBC"/>
<path d="M125.826 225.008C124.012 226.253 121.824 226.829 119.635 226.636C119.423 226.649 119.223 226.735 119.067 226.878C118.911 227.021 118.808 227.214 118.776 227.424C118.744 227.634 118.785 227.848 118.891 228.032C118.998 228.216 119.163 228.357 119.361 228.433C121.467 229.258 123.572 230.04 125.678 230.738L128.795 231.711C129.827 232.028 130.901 232.324 131.89 232.577C132.043 232.619 132.204 232.618 132.357 232.575C132.509 232.533 132.647 232.45 132.757 232.336C132.866 232.221 132.944 232.079 132.98 231.925C133.017 231.77 133.011 231.608 132.964 231.457C132.67 230.463 132.417 229.342 132.185 228.412L131.511 225.367C131.111 223.253 130.795 221.308 130.5 219.341C130.457 219.149 130.351 218.977 130.198 218.855C130.044 218.732 129.854 218.665 129.658 218.665C129.462 218.665 129.272 218.732 129.119 218.855C128.966 218.977 128.859 219.149 128.816 219.341C128.4 221.463 127.4 223.426 125.931 225.008" fill="#1CDBBC"/>
<path d="M58.9438 207.394C56.8143 207.854 54.5932 207.594 52.6263 206.654C52.4284 206.589 52.2142 206.594 52.0196 206.669C51.825 206.743 51.662 206.883 51.5581 207.065C51.4542 207.246 51.4158 207.458 51.4492 207.664C51.4827 207.871 51.5861 208.059 51.7419 208.198C53.3634 209.699 54.9638 211.158 56.5852 212.596C57.3644 213.315 58.2068 214.013 59.0491 214.71L61.555 216.825C61.677 216.924 61.8229 216.988 61.9779 217.012C62.1328 217.036 62.2913 217.017 62.437 216.959C62.5827 216.901 62.7104 216.805 62.807 216.681C62.9036 216.557 62.9658 216.41 62.9869 216.254L63.4713 213.125C63.6398 212.088 63.7871 211.01 64.0188 210.038C64.461 207.923 64.9032 205.957 65.3454 203.969C65.3735 203.771 65.3345 203.57 65.2345 203.397C65.1346 203.225 64.9796 203.091 64.7946 203.018C64.6096 202.944 64.4054 202.936 64.215 202.993C64.0245 203.051 63.859 203.171 63.745 203.335C62.6204 205.187 60.9705 206.659 59.0069 207.564" fill="#1CDBBC"/>
<path d="M84.9095 205.217C82.8122 205.787 80.584 205.623 78.5921 204.752C78.3887 204.696 78.1727 204.712 77.9796 204.797C77.7865 204.881 77.6278 205.029 77.5297 205.216C77.4316 205.404 77.3999 205.619 77.4399 205.826C77.4799 206.034 77.5892 206.222 77.7497 206.359C79.4625 207.768 81.1471 209.178 82.8037 210.587C84.5305 211.92 86.2993 213.188 88.0051 214.415C88.1344 214.503 88.2845 214.557 88.4406 214.57C88.5967 214.583 88.7535 214.555 88.8957 214.489C89.0379 214.423 89.1605 214.321 89.2517 214.193C89.3429 214.065 89.3995 213.916 89.4159 213.759C89.6265 211.645 89.8371 209.53 90.1109 207.416C90.3846 205.301 90.7847 203.314 91.1427 201.347C91.162 201.15 91.1145 200.951 91.008 200.783C90.9015 200.616 90.742 200.489 90.5551 200.423C90.3683 200.357 90.1648 200.356 89.9773 200.42C89.7899 200.485 89.6293 200.61 89.5212 200.777C88.4651 202.657 86.8839 204.186 84.9727 205.175" fill="#1CDBBC"/>
<path d="M112.621 205.09C111.676 205.52 110.647 205.73 109.61 205.703C108.464 205.703 107.323 205.546 106.219 205.238C106.013 205.204 105.802 205.241 105.62 205.342C105.438 205.444 105.295 205.604 105.214 205.797C105.134 205.99 105.121 206.205 105.177 206.407C105.233 206.608 105.356 206.785 105.524 206.908C107.398 208.198 109.167 209.467 111.042 210.608L113.842 212.279L115.232 213.103L116.643 213.843C116.781 213.919 116.936 213.956 117.093 213.951C117.25 213.946 117.403 213.899 117.536 213.815C117.669 213.731 117.777 213.613 117.85 213.473C117.922 213.333 117.956 213.176 117.949 213.019V211.454V209.868V206.76C117.949 204.646 118.201 202.637 118.37 200.671C118.376 200.471 118.315 200.276 118.195 200.117C118.075 199.959 117.904 199.846 117.711 199.799C117.518 199.752 117.315 199.773 117.136 199.858C116.957 199.944 116.812 200.089 116.727 200.269C116.196 201.256 115.583 202.196 114.895 203.081C114.29 203.943 113.507 204.664 112.6 205.195" fill="#1CDBBC"/>
<path d="M182.996 203.927C182.753 206.094 181.848 208.133 180.406 209.763C180.269 209.924 180.194 210.129 180.194 210.34C180.195 210.552 180.27 210.756 180.407 210.917C180.544 211.078 180.734 211.184 180.942 211.216C181.15 211.249 181.364 211.206 181.543 211.095L192.535 204.752C192.671 204.674 192.784 204.562 192.862 204.426C192.941 204.291 192.982 204.137 192.982 203.98C192.982 203.823 192.941 203.669 192.862 203.534C192.784 203.398 192.671 203.286 192.535 203.208L181.543 196.865C181.364 196.754 181.15 196.711 180.942 196.744C180.734 196.776 180.544 196.882 180.407 197.043C180.27 197.204 180.195 197.408 180.194 197.62C180.194 197.831 180.269 198.036 180.406 198.197C181.856 199.822 182.762 201.863 182.996 204.033" fill="#1CDBBC"/>
<path d="M158.549 203.927C158.321 206.098 157.414 208.141 155.959 209.763C155.822 209.924 155.747 210.129 155.747 210.34C155.748 210.552 155.823 210.756 155.96 210.917C156.097 211.078 156.287 211.184 156.495 211.216C156.703 211.249 156.916 211.206 157.096 211.095L168.109 204.752C168.245 204.674 168.358 204.562 168.436 204.426C168.515 204.291 168.556 204.137 168.556 203.98C168.556 203.823 168.515 203.669 168.436 203.534C168.358 203.398 168.245 203.286 168.109 203.208L157.096 196.865C156.916 196.754 156.703 196.711 156.495 196.744C156.287 196.776 156.097 196.882 155.96 197.043C155.823 197.204 155.748 197.408 155.747 197.62C155.747 197.831 155.822 198.036 155.959 198.197C157.418 199.817 158.325 201.861 158.549 204.033" fill="#1CDBBC"/>
<path d="M134.122 203.927C133.879 206.094 132.974 208.133 131.532 209.763C131.395 209.924 131.32 210.129 131.321 210.34C131.321 210.552 131.397 210.756 131.534 210.917C131.671 211.078 131.861 211.184 132.069 211.216C132.277 211.249 132.49 211.206 132.669 211.095L143.662 204.752C143.797 204.674 143.91 204.562 143.989 204.426C144.067 204.291 144.108 204.137 144.108 203.98C144.108 203.823 144.067 203.669 143.989 203.534C143.91 203.398 143.797 203.286 143.662 203.208L132.669 196.865C132.49 196.754 132.277 196.711 132.069 196.744C131.861 196.776 131.671 196.882 131.534 197.043C131.397 197.204 131.321 197.408 131.321 197.62C131.32 197.831 131.395 198.036 131.532 198.197C132.983 199.822 133.889 201.863 134.122 204.033" fill="#1CDBBC"/>
<path d="M27.1477 203.927C26.9195 206.098 26.0128 208.141 24.5575 209.763C24.4208 209.924 24.3458 210.129 24.3461 210.34C24.3464 210.552 24.422 210.756 24.5591 210.917C24.6962 211.078 24.8859 211.184 25.0941 211.216C25.3023 211.249 25.5153 211.206 25.6947 211.095L36.708 204.752C36.8437 204.674 36.9566 204.562 37.0351 204.426C37.1136 204.291 37.1549 204.137 37.1549 203.98C37.1549 203.823 37.1136 203.669 37.0351 203.534C36.9566 203.398 36.8437 203.286 36.708 203.208L25.6947 196.865C25.5153 196.754 25.3023 196.711 25.0941 196.744C24.8859 196.776 24.6962 196.882 24.5591 197.043C24.422 197.204 24.3464 197.408 24.3461 197.62C24.3458 197.831 24.4208 198.036 24.5575 198.197C26.0165 199.817 26.9238 201.861 27.1477 204.033" fill="#1CDBBC"/>
<path d="M3.68609 203.927C3.45794 206.098 2.55123 208.141 1.09592 209.763C0.959233 209.924 0.884322 210.129 0.884614 210.34C0.884905 210.552 0.960396 210.756 1.09752 210.917C1.23465 211.078 1.42441 211.184 1.63259 211.216C1.84077 211.249 2.0537 211.206 2.23307 211.095L13.2465 204.752C13.3822 204.674 13.4951 204.562 13.5736 204.426C13.652 204.291 13.6934 204.137 13.6934 203.98C13.6934 203.823 13.652 203.669 13.5736 203.534C13.4951 203.398 13.3822 203.286 13.2465 203.208L2.23307 196.865C2.0537 196.754 1.84077 196.711 1.63259 196.744C1.42441 196.776 1.23465 196.882 1.09752 197.043C0.960396 197.204 0.884905 197.408 0.884614 197.62C0.884322 197.831 0.959233 198.036 1.09592 198.197C2.55493 199.817 3.46221 201.861 3.68609 204.033" fill="#1CDBBC"/>
<path d="M207.951 203.589C207.723 205.76 206.816 207.803 205.361 209.425C205.224 209.586 205.149 209.79 205.15 210.002C205.15 210.213 205.226 210.418 205.363 210.579C205.5 210.739 205.69 210.845 205.898 210.878C206.106 210.911 206.319 210.868 206.498 210.757L217.512 204.413C217.647 204.336 217.76 204.224 217.839 204.088C217.917 203.952 217.959 203.798 217.959 203.642C217.959 203.485 217.917 203.331 217.839 203.195C217.76 203.06 217.647 202.947 217.512 202.87L206.498 196.527C206.319 196.416 206.106 196.373 205.898 196.405C205.69 196.438 205.5 196.544 205.363 196.705C205.226 196.865 205.15 197.07 205.15 197.281C205.149 197.493 205.224 197.698 205.361 197.859C206.82 199.478 207.727 201.522 207.951 203.695" fill="#1CDBBC"/>
<path d="M53.3434 184.326C51.1563 184.445 48.9923 183.827 47.1944 182.571C47.0096 182.482 46.8006 182.457 46.6001 182.5C46.3997 182.543 46.2191 182.652 46.0867 182.809C45.9542 182.966 45.8775 183.163 45.8684 183.369C45.8592 183.574 45.9182 183.777 46.0362 183.946C47.405 185.701 48.7948 187.392 50.2478 189.062C50.9428 189.887 51.5956 190.712 52.3537 191.515L54.4595 193.905C54.5671 194.019 54.7023 194.103 54.8519 194.148C55.0014 194.194 55.1603 194.201 55.313 194.167C55.4657 194.132 55.607 194.059 55.7231 193.954C55.8392 193.849 55.9262 193.715 55.9757 193.566L56.9233 190.564C57.2392 189.57 57.6393 188.576 57.9762 187.582C58.7133 185.616 59.4292 183.713 60.2084 181.81C60.2826 181.62 60.2877 181.41 60.2228 181.216C60.1579 181.023 60.0272 180.859 59.8536 180.753C59.68 180.647 59.4747 180.606 59.2738 180.636C59.0729 180.667 58.8893 180.768 58.7554 180.922C57.3331 182.557 55.467 183.74 53.3856 184.326" fill="#1CDBBC"/>
<path d="M78.6965 182.973C76.5094 183.142 74.3292 182.569 72.5054 181.345C72.3196 181.254 72.1084 181.23 71.907 181.277C71.7056 181.323 71.5261 181.437 71.3982 181.6C71.2704 181.763 71.2018 181.965 71.204 182.172C71.2062 182.38 71.2791 182.58 71.4104 182.741C74.1045 186.156 76.9795 189.424 80.0232 192.53C80.1333 192.639 80.2699 192.717 80.4193 192.756C80.5688 192.796 80.7259 192.795 80.875 192.754C81.0241 192.714 81.16 192.634 81.2692 192.525C81.3783 192.415 81.457 192.278 81.4973 192.129C82.6176 188.129 83.9461 184.19 85.4772 180.33C85.8352 179.463 84.656 178.787 83.9821 179.463C82.605 181.133 80.7654 182.354 78.6965 182.973" fill="#1CDBBC"/>
<path d="M104.577 182.634C102.377 182.916 100.147 182.431 98.2599 181.26C98.0678 181.17 97.8501 181.15 97.6448 181.204C97.4396 181.258 97.2599 181.383 97.137 181.557C97.0141 181.73 96.9559 181.942 96.9726 182.154C96.9892 182.367 97.0797 182.567 97.2281 182.719L99.4392 185.235L100.534 186.44L101.692 187.624C103.251 189.189 104.746 190.711 106.388 192.107C106.504 192.21 106.646 192.281 106.798 192.312C106.95 192.344 107.107 192.334 107.255 192.285C107.402 192.236 107.534 192.148 107.637 192.032C107.74 191.915 107.81 191.773 107.841 191.621C108.241 189.506 108.789 187.519 109.337 185.531L109.737 184.051C109.884 183.565 110.052 183.078 110.221 182.592L111.19 179.717C111.237 179.522 111.218 179.316 111.135 179.134C111.052 178.951 110.909 178.802 110.731 178.712C110.552 178.621 110.349 178.593 110.153 178.634C109.957 178.674 109.781 178.78 109.652 178.934C108.336 180.635 106.559 181.919 104.535 182.634" fill="#1CDBBC"/>
<path d="M174.868 182C174.636 184.174 173.721 186.218 172.257 187.836C172.139 188.003 172.081 188.204 172.091 188.408C172.101 188.612 172.18 188.807 172.313 188.961C172.447 189.115 172.629 189.219 172.829 189.256C173.029 189.294 173.235 189.263 173.415 189.168L184.408 182.825C184.544 182.747 184.656 182.635 184.735 182.5C184.813 182.364 184.855 182.21 184.855 182.053C184.855 181.896 184.813 181.742 184.735 181.607C184.656 181.471 184.544 181.359 184.408 181.281L173.415 174.938C173.235 174.843 173.029 174.812 172.829 174.85C172.629 174.888 172.447 174.992 172.313 175.146C172.18 175.3 172.101 175.494 172.091 175.698C172.081 175.902 172.139 176.104 172.257 176.27C173.718 177.891 174.632 179.933 174.868 182.106" fill="#1CDBBC"/>
<path d="M125.992 182C125.759 184.174 124.845 186.218 123.38 187.836C123.262 188.003 123.204 188.204 123.214 188.408C123.224 188.612 123.302 188.807 123.436 188.961C123.57 189.115 123.752 189.219 123.952 189.256C124.151 189.294 124.358 189.263 124.539 189.168L135.531 182.825C135.667 182.747 135.779 182.635 135.858 182.5C135.936 182.364 135.978 182.21 135.978 182.053C135.978 181.896 135.936 181.742 135.858 181.607C135.779 181.471 135.667 181.359 135.531 181.281L124.539 174.938C124.358 174.843 124.151 174.812 123.952 174.85C123.752 174.888 123.57 174.992 123.436 175.146C123.302 175.3 123.224 175.494 123.214 175.698C123.204 175.902 123.262 176.104 123.38 176.27C124.841 177.891 125.755 179.933 125.992 182.106" fill="#1CDBBC"/>
<path d="M150.42 182C150.196 184.173 149.289 186.217 147.83 187.836C147.693 187.997 147.619 188.202 147.619 188.414C147.619 188.625 147.695 188.83 147.832 188.99C147.969 189.151 148.159 189.257 148.367 189.29C148.575 189.322 148.788 189.279 148.967 189.168L159.981 182.825C160.116 182.747 160.229 182.635 160.308 182.5C160.386 182.364 160.427 182.21 160.427 182.053C160.427 181.896 160.386 181.743 160.308 181.607C160.229 181.471 160.116 181.359 159.981 181.281L148.967 174.938C148.788 174.827 148.575 174.784 148.367 174.817C148.159 174.849 147.969 174.956 147.832 175.116C147.695 175.277 147.619 175.481 147.619 175.693C147.619 175.905 147.693 176.109 147.83 176.27C149.285 177.892 150.192 179.935 150.42 182.106" fill="#1CDBBC"/>
<path d="M27.1477 182C26.9238 184.173 26.0165 186.217 24.5575 187.836C24.4208 187.997 24.3458 188.202 24.3461 188.414C24.3464 188.625 24.422 188.83 24.5591 188.99C24.6962 189.151 24.8859 189.257 25.0941 189.29C25.3023 189.322 25.5153 189.279 25.6947 189.168L36.708 182.825C36.8437 182.747 36.9566 182.635 37.0351 182.5C37.1136 182.364 37.1549 182.21 37.1549 182.053C37.1549 181.896 37.1136 181.743 37.0351 181.607C36.9566 181.471 36.8437 181.359 36.708 181.281L25.6947 174.938C25.5153 174.827 25.3023 174.784 25.0941 174.817C24.8859 174.849 24.6962 174.956 24.5591 175.116C24.422 175.277 24.3464 175.481 24.3461 175.693C24.3458 175.905 24.4208 176.109 24.5575 176.27C26.0128 177.892 26.9195 179.935 27.1477 182.106" fill="#1CDBBC"/>
<path d="M3.68609 182C3.46221 184.173 2.55493 186.217 1.09592 187.836C0.959233 187.997 0.884322 188.202 0.884614 188.414C0.884905 188.625 0.960396 188.83 1.09752 188.99C1.23465 189.151 1.42441 189.257 1.63259 189.29C1.84077 189.322 2.0537 189.279 2.23307 189.168L13.2465 182.825C13.3822 182.747 13.4951 182.635 13.5736 182.5C13.652 182.364 13.6934 182.21 13.6934 182.053C13.6934 181.896 13.652 181.743 13.5736 181.607C13.4951 181.471 13.3822 181.359 13.2465 181.281L2.23307 174.938C2.0537 174.827 1.84077 174.784 1.63259 174.817C1.42441 174.849 1.23465 174.956 1.09752 175.116C0.960396 175.277 0.884905 175.481 0.884614 175.693C0.884322 175.905 0.959233 176.109 1.09592 176.27C2.55123 177.892 3.45794 179.935 3.68609 182.106" fill="#1CDBBC"/>
<path d="M199.864 181.662C199.64 183.834 198.733 185.878 197.274 187.498C197.137 187.659 197.062 187.863 197.063 188.075C197.063 188.287 197.138 188.491 197.275 188.652C197.412 188.812 197.602 188.919 197.81 188.951C198.019 188.984 198.232 188.941 198.411 188.83L209.424 182.487C209.56 182.409 209.673 182.297 209.751 182.161C209.83 182.026 209.871 181.872 209.871 181.715C209.871 181.558 209.83 181.404 209.751 181.268C209.673 181.133 209.56 181.021 209.424 180.943L198.411 174.6C198.232 174.489 198.019 174.446 197.81 174.478C197.602 174.511 197.412 174.617 197.275 174.778C197.138 174.939 197.063 175.143 197.063 175.355C197.062 175.566 197.137 175.771 197.274 175.932C198.725 177.556 199.632 179.598 199.864 181.768" fill="#1CDBBC"/>
<path d="M51.4036 160.687C50.3681 160.652 49.3534 160.385 48.4344 159.904C47.429 159.384 46.4888 158.745 45.6337 158.001C45.4648 157.876 45.2585 157.813 45.0487 157.82C44.8389 157.828 44.6381 157.908 44.479 158.045C44.32 158.183 44.2122 158.371 44.1733 158.578C44.1344 158.785 44.1667 158.999 44.2649 159.185C45.2967 161.131 46.476 163.012 47.55 164.873L49.2136 167.622C49.7821 168.531 50.4139 169.44 51.0035 170.328C51.0808 170.465 51.1926 170.578 51.3276 170.657C51.4626 170.736 51.616 170.777 51.7721 170.777C51.9283 170.777 52.0817 170.736 52.2167 170.657C52.3517 170.578 52.4635 170.465 52.5408 170.328C53.0041 169.377 53.4462 168.425 53.9306 167.495L55.4678 164.746C56.4997 162.907 57.4473 161.131 58.5634 159.376C58.6523 159.198 58.6793 158.996 58.6403 158.801C58.6012 158.607 58.4983 158.431 58.3479 158.302C58.1976 158.173 58.0085 158.098 57.8109 158.089C57.6132 158.081 57.4185 158.139 57.2578 158.255C56.3496 158.942 55.3762 159.537 54.3518 160.031C53.4325 160.488 52.4284 160.747 51.4036 160.792" fill="#1CDBBC"/>
<path d="M76.589 159.947C74.4225 159.725 72.3954 158.771 70.8402 157.24C70.6747 157.1 70.4644 157.023 70.2476 157.025C70.0309 157.027 69.8219 157.107 69.6588 157.25C69.4956 157.393 69.3891 157.591 69.3586 157.806C69.3281 158.022 69.3755 158.241 69.4924 158.424L70.2505 159.883L71.0718 161.321L72.7354 164.154C73.304 165.085 73.8304 165.994 74.42 166.903L76.21 169.588C76.2989 169.719 76.4203 169.825 76.5623 169.894C76.7042 169.963 76.8618 169.994 77.0192 169.984C77.1767 169.973 77.3287 169.921 77.4601 169.833C77.5915 169.745 77.6977 169.624 77.7682 169.483L79.137 166.671C79.6214 165.74 80.1478 164.81 80.6532 163.901L82.1694 161.215C82.4432 160.771 82.6748 160.327 82.9486 159.883L83.7067 158.572C84.2331 157.769 83.2013 156.902 82.4221 157.452C80.7395 158.837 78.6897 159.697 76.5258 159.926" fill="#1CDBBC"/>
<path d="M102.008 158.911C99.8266 158.666 97.7961 157.673 96.2591 156.099C96.0937 155.958 95.8834 155.882 95.6667 155.884C95.4499 155.886 95.241 155.965 95.0778 156.109C94.9147 156.252 94.8081 156.449 94.7776 156.665C94.747 156.88 94.7946 157.1 94.9114 157.283C95.4168 158.277 95.9011 159.271 96.4486 160.243L98.1122 163.098C99.1651 164.98 100.408 166.798 101.608 168.553C101.696 168.684 101.817 168.789 101.958 168.857C102.1 168.925 102.257 168.954 102.414 168.941C102.57 168.928 102.72 168.874 102.849 168.783C102.977 168.693 103.08 168.569 103.145 168.426C104.051 166.523 104.956 164.663 106.009 162.865L107.525 160.201C108.052 159.334 108.641 158.467 109.189 157.621C109.736 156.776 108.662 155.972 107.883 156.522C106.191 157.864 104.153 158.692 102.008 158.911Z" fill="#1CDBBC"/>
<path d="M53.1305 136.942C51.0487 136.377 49.212 135.135 47.908 133.411C47.7664 133.248 47.5717 133.142 47.3588 133.11C47.1459 133.078 46.9288 133.124 46.7463 133.238C46.5638 133.353 46.4279 133.529 46.363 133.735C46.298 133.941 46.3082 134.163 46.3918 134.362L46.9394 135.906L47.529 137.449L48.7503 140.494C49.5716 142.503 50.3508 144.469 51.3194 146.415C51.3894 146.553 51.4936 146.671 51.6219 146.758C51.7503 146.844 51.8986 146.897 52.0528 146.909C52.2069 146.922 52.3617 146.895 52.5024 146.831C52.6431 146.766 52.7651 146.667 52.8567 146.541C54.0149 144.808 55.3416 143.116 56.6051 141.467L58.5214 139.035L59.4689 137.83L60.5008 136.667C60.6161 136.506 60.6741 136.31 60.6657 136.112C60.6573 135.913 60.5829 135.723 60.4544 135.573C60.3258 135.422 60.1507 135.318 59.9568 135.279C59.7629 135.24 59.5615 135.267 59.3847 135.356C57.5215 136.485 55.3678 137.037 53.1936 136.942" fill="#1CDBBC"/>
<path d="M78.7376 136.942C76.6184 136.326 74.7698 135.007 73.4941 133.199C73.3521 133.044 73.161 132.943 72.9532 132.914C72.7455 132.885 72.534 132.929 72.355 133.039C72.176 133.149 72.0405 133.317 71.9718 133.516C71.903 133.715 71.9051 133.932 71.9779 134.13C72.6728 136.244 73.3677 138.359 74.0837 140.367C74.7997 142.376 75.7262 144.406 76.5475 146.351C76.6086 146.497 76.7075 146.624 76.8339 146.719C76.9604 146.814 77.1098 146.873 77.2666 146.89C77.4234 146.907 77.5819 146.882 77.7258 146.817C77.8697 146.752 77.9936 146.65 78.0847 146.52C79.3693 144.808 80.6538 143.158 81.9173 141.551C83.1808 139.945 84.6338 138.401 85.9605 136.9C86.0801 136.74 86.1427 136.545 86.1383 136.346C86.1339 136.146 86.0627 135.954 85.9362 135.8C85.8096 135.646 85.6352 135.54 85.441 135.497C85.2468 135.455 85.044 135.48 84.8654 135.568C82.9978 136.63 80.8567 137.109 78.7165 136.942" fill="#1CDBBC"/>
<path d="M174.868 140.071C174.636 142.245 173.721 144.289 172.257 145.907C172.139 146.074 172.081 146.275 172.091 146.479C172.101 146.683 172.18 146.878 172.313 147.032C172.447 147.186 172.629 147.29 172.829 147.327C173.029 147.365 173.235 147.334 173.415 147.239L184.408 140.896C184.543 140.816 184.655 140.701 184.733 140.564C184.811 140.427 184.852 140.272 184.852 140.114C184.852 139.956 184.811 139.801 184.733 139.663C184.655 139.526 184.543 139.412 184.408 139.331L173.415 132.988C173.235 132.893 173.029 132.862 172.829 132.9C172.629 132.937 172.447 133.042 172.313 133.195C172.18 133.349 172.101 133.544 172.091 133.748C172.081 133.952 172.139 134.154 172.257 134.32C173.721 135.939 174.636 137.982 174.868 140.156" fill="#1CDBBC"/>
<path d="M125.992 140.071C125.759 142.245 124.845 144.289 123.38 145.907C123.262 146.074 123.204 146.275 123.214 146.479C123.224 146.683 123.302 146.878 123.436 147.032C123.57 147.186 123.752 147.29 123.952 147.327C124.151 147.365 124.358 147.334 124.539 147.239L135.531 140.896C135.666 140.816 135.778 140.701 135.856 140.564C135.934 140.427 135.975 140.272 135.975 140.114C135.975 139.956 135.934 139.801 135.856 139.663C135.778 139.526 135.666 139.412 135.531 139.331L124.539 132.988C124.358 132.893 124.151 132.862 123.952 132.9C123.752 132.937 123.57 133.042 123.436 133.195C123.302 133.349 123.224 133.544 123.214 133.748C123.204 133.952 123.262 134.154 123.38 134.32C124.845 135.939 125.759 137.982 125.992 140.156" fill="#1CDBBC"/>
<path d="M150.42 140.071C150.196 142.243 149.289 144.288 147.83 145.907C147.693 146.068 147.619 146.273 147.619 146.484C147.619 146.696 147.695 146.9 147.832 147.061C147.969 147.222 148.159 147.328 148.367 147.361C148.575 147.393 148.788 147.35 148.967 147.239L159.981 140.896C160.116 140.815 160.228 140.701 160.306 140.564C160.384 140.427 160.425 140.272 160.425 140.114C160.425 139.956 160.384 139.801 160.306 139.663C160.228 139.526 160.116 139.412 159.981 139.331L148.967 132.988C148.788 132.877 148.575 132.834 148.367 132.867C148.159 132.899 147.969 133.005 147.832 133.166C147.695 133.327 147.619 133.531 147.619 133.743C147.619 133.954 147.693 134.159 147.83 134.32C149.289 135.94 150.196 137.984 150.42 140.156" fill="#1CDBBC"/>
<path d="M27.1477 140.071C26.9238 142.243 26.0165 144.288 24.5575 145.907C24.4208 146.068 24.3458 146.273 24.3461 146.484C24.3464 146.696 24.422 146.9 24.5591 147.061C24.6962 147.222 24.8859 147.328 25.0941 147.361C25.3023 147.393 25.5153 147.35 25.6947 147.239L36.708 140.896C36.8433 140.815 36.9555 140.701 37.0333 140.564C37.1112 140.427 37.1522 140.272 37.1522 140.114C37.1522 139.956 37.1112 139.801 37.0333 139.663C36.9555 139.526 36.8433 139.412 36.708 139.331L25.6947 132.988C25.5153 132.877 25.3023 132.834 25.0941 132.867C24.8859 132.899 24.6962 133.005 24.5591 133.166C24.422 133.327 24.3464 133.531 24.3461 133.743C24.3458 133.954 24.4208 134.159 24.5575 134.32C26.0165 135.94 26.9238 137.984 27.1477 140.156" fill="#1CDBBC"/>
<path d="M3.68609 140.071C3.46221 142.243 2.55493 144.288 1.09592 145.907C0.959233 146.068 0.884322 146.273 0.884614 146.484C0.884905 146.696 0.960396 146.9 1.09752 147.061C1.23465 147.222 1.42441 147.328 1.63259 147.361C1.84077 147.393 2.0537 147.35 2.23307 147.239L13.2465 140.896C13.3818 140.815 13.4939 140.701 13.5718 140.564C13.6497 140.427 13.6906 140.272 13.6906 140.114C13.6906 139.956 13.6497 139.801 13.5718 139.663C13.4939 139.526 13.3818 139.412 13.2465 139.331L2.23307 132.988C2.0537 132.877 1.84077 132.834 1.63259 132.867C1.42441 132.899 1.23465 133.005 1.09752 133.166C0.960396 133.327 0.884905 133.531 0.884614 133.743C0.884322 133.954 0.959233 134.159 1.09592 134.32C2.55493 135.94 3.46221 137.984 3.68609 140.156" fill="#1CDBBC"/>
<path d="M199.864 139.734C199.64 141.906 198.733 143.95 197.274 145.569C197.137 145.73 197.062 145.935 197.063 146.147C197.063 146.358 197.138 146.563 197.275 146.723C197.412 146.884 197.602 146.99 197.81 147.023C198.019 147.055 198.232 147.012 198.411 146.901L209.424 140.558C209.56 140.478 209.672 140.363 209.75 140.226C209.828 140.089 209.868 139.934 209.868 139.776C209.868 139.618 209.828 139.463 209.75 139.325C209.672 139.188 209.56 139.074 209.424 138.993L198.411 132.65C198.232 132.539 198.019 132.496 197.81 132.529C197.602 132.561 197.412 132.668 197.275 132.828C197.138 132.989 197.063 133.193 197.063 133.405C197.062 133.617 197.137 133.821 197.274 133.982C198.733 135.602 199.64 137.646 199.864 139.818" fill="#1CDBBC"/>
<path d="M105.018 135.314C102.957 134.564 101.216 133.123 100.091 131.233C99.967 131.048 99.7801 130.915 99.5651 130.859C99.3502 130.803 99.1223 130.829 98.9248 130.93C98.7273 131.032 98.5739 131.203 98.4937 131.411C98.4136 131.619 98.4123 131.849 98.4901 132.058C98.7007 133.136 99.0377 134.172 99.3325 135.293L100.238 138.465C100.891 140.579 101.628 142.694 102.344 144.597C102.4 144.742 102.494 144.87 102.615 144.968C102.736 145.066 102.881 145.13 103.035 145.153C103.189 145.177 103.346 145.159 103.491 145.102C103.636 145.045 103.763 144.951 103.86 144.829C105.229 143.18 106.576 141.594 107.945 140.072L110.051 137.957C110.767 137.238 111.462 136.519 112.157 135.843C112.852 135.166 112.157 134.13 111.167 134.468C109.191 135.37 107.003 135.699 104.85 135.42" fill="#1CDBBC"/>
<path d="M182.996 118.166C182.753 120.333 181.848 122.371 180.406 124.002C180.269 124.163 180.194 124.367 180.194 124.579C180.195 124.791 180.27 124.995 180.407 125.156C180.544 125.316 180.734 125.423 180.942 125.455C181.15 125.488 181.364 125.445 181.543 125.334L192.535 118.991C192.671 118.913 192.784 118.801 192.862 118.665C192.941 118.53 192.982 118.376 192.982 118.219C192.982 118.062 192.941 117.908 192.862 117.772C192.784 117.637 192.671 117.525 192.535 117.447L181.543 111.104C181.364 110.993 181.15 110.95 180.942 110.982C180.734 111.015 180.544 111.121 180.407 111.282C180.27 111.442 180.195 111.647 180.194 111.859C180.194 112.07 180.269 112.275 180.406 112.436C181.852 114.072 182.757 116.118 182.996 118.293" fill="#1CDBBC"/>
<path d="M158.549 118.166C158.316 120.336 157.41 122.377 155.959 124.002C155.822 124.163 155.747 124.367 155.747 124.579C155.748 124.791 155.823 124.995 155.96 125.156C156.097 125.316 156.287 125.423 156.495 125.455C156.703 125.488 156.916 125.445 157.096 125.334L168.109 118.991C168.245 118.913 168.358 118.801 168.436 118.665C168.515 118.53 168.556 118.376 168.556 118.219C168.556 118.062 168.515 117.908 168.436 117.772C168.358 117.637 168.245 117.525 168.109 117.447L157.096 111.104C156.916 110.993 156.703 110.95 156.495 110.982C156.287 111.015 156.097 111.121 155.96 111.282C155.823 111.442 155.748 111.647 155.747 111.859C155.747 112.07 155.822 112.275 155.959 112.436C157.414 114.066 158.321 116.115 158.549 118.293" fill="#1CDBBC"/>
<path d="M134.122 118.166C133.879 120.333 132.974 122.371 131.532 124.002C131.395 124.163 131.32 124.367 131.321 124.579C131.321 124.791 131.397 124.995 131.534 125.156C131.671 125.316 131.861 125.423 132.069 125.455C132.277 125.488 132.49 125.445 132.669 125.334L143.662 118.991C143.797 118.913 143.91 118.801 143.989 118.665C144.067 118.53 144.108 118.376 144.108 118.219C144.108 118.062 144.067 117.908 143.989 117.772C143.91 117.637 143.797 117.525 143.662 117.447L132.669 111.104C132.49 110.993 132.277 110.95 132.069 110.982C131.861 111.015 131.671 111.121 131.534 111.282C131.397 111.442 131.321 111.647 131.321 111.859C131.32 112.07 131.395 112.275 131.532 112.436C132.978 114.072 133.883 116.118 134.122 118.293" fill="#1CDBBC"/>
<path d="M27.1477 118.166C26.9153 120.336 26.0092 122.377 24.5575 124.002C24.4208 124.163 24.3458 124.367 24.3461 124.579C24.3464 124.791 24.422 124.995 24.5591 125.156C24.6962 125.316 24.8859 125.423 25.0941 125.455C25.3023 125.488 25.5153 125.445 25.6947 125.334L36.708 118.991C36.8437 118.913 36.9566 118.801 37.0351 118.665C37.1136 118.53 37.1549 118.376 37.1549 118.219C37.1549 118.062 37.1136 117.908 37.0351 117.772C36.9566 117.637 36.8437 117.525 36.708 117.447L25.6947 111.104C25.5153 110.993 25.3023 110.95 25.0941 110.982C24.8859 111.015 24.6962 111.121 24.5591 111.282C24.422 111.442 24.3464 111.647 24.3461 111.859C24.3458 112.07 24.4208 112.275 24.5575 112.436C26.0132 114.066 26.9196 116.115 27.1477 118.293" fill="#1CDBBC"/>
<path d="M3.68609 118.166C3.45373 120.336 2.54758 122.377 1.09592 124.002C0.959233 124.163 0.884322 124.367 0.884614 124.579C0.884905 124.791 0.960396 124.995 1.09752 125.156C1.23465 125.316 1.42441 125.423 1.63259 125.455C1.84077 125.488 2.0537 125.445 2.23307 125.334L13.2465 118.991C13.3822 118.913 13.4951 118.801 13.5736 118.665C13.652 118.53 13.6934 118.376 13.6934 118.219C13.6934 118.062 13.652 117.908 13.5736 117.772C13.4951 117.637 13.3822 117.525 13.2465 117.447L2.23307 111.104C2.0537 110.993 1.84077 110.95 1.63259 110.982C1.42441 111.015 1.23465 111.121 1.09752 111.282C0.960396 111.442 0.884905 111.647 0.884614 111.859C0.884322 112.07 0.959233 112.275 1.09592 112.436C2.55159 114.066 3.45802 116.115 3.68609 118.293" fill="#1CDBBC"/>
<path d="M207.951 117.827C207.719 119.997 206.813 122.039 205.361 123.663C205.224 123.824 205.149 124.029 205.15 124.241C205.15 124.452 205.226 124.657 205.363 124.817C205.5 124.978 205.69 125.084 205.898 125.117C206.106 125.149 206.319 125.106 206.498 124.995L217.512 118.652C217.647 118.575 217.76 118.462 217.839 118.327C217.917 118.191 217.959 118.037 217.959 117.88C217.959 117.724 217.917 117.57 217.839 117.434C217.76 117.298 217.647 117.186 217.512 117.109L206.498 110.765C206.319 110.654 206.106 110.611 205.898 110.644C205.69 110.677 205.5 110.783 205.363 110.943C205.226 111.104 205.15 111.309 205.15 111.52C205.149 111.732 205.224 111.936 205.361 112.097C206.817 113.727 207.723 115.777 207.951 117.954" fill="#1CDBBC"/>
<path d="M84.9495 114.698C82.9988 113.708 81.4399 112.083 80.5273 110.089C80.4244 109.896 80.256 109.748 80.0529 109.67C79.8498 109.592 79.6255 109.59 79.421 109.664C79.2166 109.739 79.0457 109.884 78.9395 110.075C78.8333 110.265 78.7989 110.488 78.8427 110.702C79.1164 112.816 79.3902 115.058 79.8324 117.236L80.4431 120.407L80.759 121.993L81.138 123.558C81.1728 123.711 81.2474 123.852 81.3542 123.967C81.4611 124.081 81.5963 124.166 81.7462 124.211C81.8961 124.256 82.0552 124.26 82.2073 124.224C82.3594 124.187 82.4991 124.11 82.6121 124.002L83.7492 122.923L84.9284 121.866L87.308 119.752C88.8453 118.398 90.5089 117.13 92.1304 115.925C92.2861 115.792 92.3911 115.609 92.4276 115.407C92.4641 115.205 92.4298 114.996 92.3305 114.817C92.2313 114.637 92.0731 114.498 91.8831 114.422C91.693 114.347 91.4828 114.34 91.288 114.402C89.2489 115.096 87.0512 115.17 84.9706 114.614" fill="#1CDBBC"/>
<path d="M58.5421 113.81C56.5394 112.939 54.8909 111.411 53.8672 109.476C53.7523 109.29 53.5749 109.153 53.3673 109.088C53.1598 109.023 52.9359 109.035 52.7366 109.123C52.5374 109.21 52.376 109.366 52.282 109.563C52.188 109.76 52.1677 109.984 52.2247 110.194C52.4352 111.273 52.6248 112.309 52.8354 113.408L53.5935 116.622L54.3515 119.752C54.6042 120.788 54.857 121.866 55.1728 122.86C55.2172 123.012 55.3005 123.15 55.4144 123.26C55.5283 123.37 55.6689 123.448 55.8222 123.487C55.9755 123.525 56.1362 123.523 56.2883 123.479C56.4403 123.436 56.5785 123.354 56.689 123.24C57.384 122.458 58.1631 121.718 58.9212 120.999L61.1954 118.885L63.4276 116.77L65.7861 114.656C66.5231 114.064 65.7861 112.901 64.8806 113.197C62.881 114.023 60.6806 114.23 58.5632 113.789" fill="#1CDBBC"/>
<path d="M113.526 112.964C111.692 111.752 110.336 109.935 109.693 107.826C109.605 107.632 109.453 107.474 109.262 107.38C109.071 107.285 108.854 107.259 108.647 107.306C108.439 107.353 108.254 107.471 108.123 107.638C107.991 107.806 107.921 108.014 107.925 108.228C107.925 110.49 107.925 112.711 108.114 114.888L108.409 118.145C108.409 119.223 108.598 120.259 108.767 121.359C108.791 121.513 108.854 121.659 108.95 121.781C109.047 121.904 109.173 122 109.317 122.059C109.461 122.119 109.618 122.14 109.772 122.121C109.927 122.102 110.073 122.043 110.199 121.951C110.999 121.295 111.862 120.682 112.726 120.069L115.295 118.398C117.022 117.278 118.769 116.284 120.475 115.206C120.658 115.108 120.799 114.947 120.87 114.752C120.942 114.557 120.94 114.343 120.865 114.15C120.789 113.956 120.646 113.798 120.461 113.704C120.277 113.61 120.064 113.588 119.865 113.641C117.747 114.047 115.558 113.849 113.547 113.07" fill="#1CDBBC"/>
<path d="M95.12 93.9767C93.3873 92.6404 92.1554 90.7551 91.6244 88.6272C91.5588 88.4181 91.4202 88.24 91.2342 88.1254C91.0481 88.0108 90.8271 87.9676 90.6118 88.0036C90.3965 88.0396 90.2015 88.1525 90.0625 88.3214C89.9235 88.4904 89.85 88.7041 89.8555 88.9232C89.687 91.0376 89.666 93.3424 89.6449 95.5202C89.6449 96.6197 89.6449 97.6347 89.6449 98.7553L89.7713 101.99C89.7817 102.146 89.8316 102.296 89.9163 102.426C90.001 102.556 90.1176 102.663 90.255 102.735C90.3923 102.807 90.5459 102.843 90.7008 102.838C90.8558 102.834 91.007 102.789 91.14 102.709L93.7934 101.018L96.5098 99.453C98.3208 98.4381 100.09 97.4443 101.943 96.5774C102.115 96.475 102.248 96.3167 102.32 96.1286C102.391 95.9404 102.396 95.7336 102.335 95.5419C102.274 95.3502 102.15 95.1851 101.983 95.0736C101.816 94.9621 101.616 94.9108 101.416 94.9282C99.2632 95.246 97.0645 94.9148 95.099 93.9767" fill="#1CDBBC"/>
<path d="M127.005 93.3215C126.254 92.5989 125.671 91.7178 125.3 90.7418C124.871 89.6724 124.595 88.5479 124.478 87.4011C124.433 87.1935 124.319 87.0074 124.154 86.8741C123.99 86.7407 123.784 86.668 123.573 86.668C123.361 86.668 123.156 86.7407 122.991 86.8741C122.827 87.0074 122.712 87.1935 122.667 87.4011C122.183 89.5155 121.678 91.6299 121.32 93.9135C120.962 96.197 120.604 98.1423 120.414 100.257C120.394 100.415 120.418 100.576 120.481 100.723C120.545 100.869 120.647 100.996 120.777 101.089C120.906 101.182 121.058 101.238 121.217 101.252C121.375 101.265 121.534 101.236 121.678 101.166C123.552 100.278 125.573 99.559 127.469 98.8401C129.364 98.1212 131.364 97.5291 133.26 96.9371C133.441 96.8648 133.593 96.733 133.69 96.5629C133.787 96.3929 133.825 96.1948 133.795 96.0009C133.766 95.807 133.672 95.6289 133.529 95.4955C133.386 95.3622 133.202 95.2815 133.007 95.2667C131.898 95.135 130.8 94.9231 129.722 94.6324C128.731 94.358 127.807 93.8831 127.005 93.2368" fill="#1CDBBC"/>
<path d="M67.5131 91.8414C65.668 90.6528 64.2682 88.8828 63.5332 86.8091C63.4592 86.5998 63.3097 86.426 63.1144 86.3219C62.919 86.2178 62.6919 86.1909 62.4778 86.2467C62.2637 86.3024 62.0781 86.4367 61.9577 86.623C61.8374 86.8093 61.7909 87.0341 61.8274 87.2532L61.9327 90.5305V92.1586L62.0591 93.7867C62.2486 95.9011 62.4382 98.0155 62.6698 100.13C62.6868 100.286 62.7445 100.435 62.8373 100.561C62.93 100.687 63.0543 100.786 63.1977 100.849C63.341 100.911 63.4982 100.934 63.6533 100.915C63.8084 100.897 63.9558 100.837 64.0807 100.743C65.8074 99.4957 67.5131 98.2692 69.2188 97.0852L70.4823 96.2183L71.809 95.3725L74.4202 93.7445C74.578 93.625 74.6915 93.456 74.7424 93.2643C74.7934 93.0725 74.779 92.8692 74.7014 92.6867C74.6239 92.5042 74.4877 92.353 74.3146 92.2572C74.1415 92.1615 73.9414 92.1269 73.7463 92.1586C71.6473 92.6547 69.4489 92.5149 67.4289 91.7569" fill="#1CDBBC"/>
<path d="M144.776 77.379C143.701 75.4518 143.314 73.2137 143.68 71.0357C143.706 70.815 143.65 70.5926 143.524 70.4103C143.397 70.2281 143.208 70.0989 142.993 70.0468C142.778 69.9947 142.551 70.0235 142.356 70.1278C142.161 70.2322 142.01 70.4048 141.933 70.613C139.94 74.5125 138.202 78.5384 136.731 82.6651C136.682 82.814 136.672 82.9733 136.702 83.1275C136.732 83.2816 136.801 83.4253 136.903 83.5446C137.005 83.6638 137.135 83.7546 137.282 83.808C137.43 83.8614 137.588 83.8755 137.742 83.8491C141.785 83.1109 145.872 82.6447 149.977 82.4537C150.174 82.4305 150.358 82.3397 150.496 82.1966C150.634 82.0535 150.719 81.867 150.737 81.6682C150.754 81.4695 150.703 81.2709 150.591 81.1058C150.48 80.9408 150.315 80.8194 150.124 80.7622C148.056 80.1701 146.2 78.9961 144.776 77.379" fill="#1CDBBC"/>
<path d="M108.978 75.4548C108.228 74.7347 107.652 73.8524 107.293 72.8752C106.891 71.8059 106.623 70.6911 106.493 69.5556C106.46 69.341 106.352 69.1452 106.188 69.0038C106.024 68.8624 105.814 68.7847 105.598 68.7847C105.382 68.7847 105.173 68.8624 105.009 69.0038C104.844 69.1452 104.736 69.341 104.703 69.5556C103.674 73.7897 102.858 78.0732 102.26 82.3901C102.243 82.5449 102.266 82.7018 102.326 82.8454C102.387 82.989 102.483 83.1146 102.605 83.2101C102.728 83.3056 102.873 83.3678 103.026 83.3909C103.18 83.4139 103.337 83.3969 103.482 83.3416C107.315 81.7685 111.231 80.4062 115.211 79.2608C115.404 79.1984 115.57 79.0696 115.678 78.8971C115.786 78.7246 115.83 78.5194 115.802 78.3175C115.774 78.1156 115.677 77.9299 115.526 77.793C115.376 77.6562 115.182 77.577 114.98 77.5693C113.858 77.452 112.751 77.2253 111.673 76.8926C110.683 76.6242 109.762 76.1406 108.978 75.476" fill="#1CDBBC"/>
<path d="M79.7714 71.5216C78.1347 70.0525 77.0247 68.0835 76.6127 65.9183C76.5662 65.7064 76.444 65.5191 76.2692 65.3915C76.0945 65.2639 75.8792 65.205 75.6642 65.2258C75.4491 65.2466 75.249 65.3457 75.1018 65.5044C74.9545 65.6632 74.8703 65.8706 74.8649 66.0875C74.5911 68.2019 74.3595 70.4644 74.1489 72.5999C73.9383 74.7355 73.8962 76.9556 73.7909 79.0701C73.7831 79.2276 73.8172 79.3843 73.8896 79.5242C73.9621 79.6641 74.0704 79.7821 74.2033 79.8661C74.3363 79.95 74.4891 79.9969 74.646 80.002C74.803 80.007 74.9585 79.9699 75.0965 79.8946C76.9918 78.9219 78.8238 77.9705 80.698 77.0613L86.3627 74.5663C86.5364 74.4726 86.674 74.3232 86.7535 74.142C86.833 73.9608 86.8499 73.758 86.8015 73.566C86.7531 73.374 86.6422 73.2038 86.4864 73.0823C86.3305 72.9609 86.1387 72.8953 85.9415 72.8958C83.7945 73.063 81.6466 72.5846 79.7714 71.5216" fill="#1CDBBC"/>
<path d="M165.604 66.0454C165.038 63.9428 165.186 61.7106 166.025 59.7021C166.091 59.4955 166.081 59.2722 165.997 59.0725C165.913 58.8727 165.761 58.7096 165.568 58.6126C165.374 58.5157 165.153 58.4911 164.944 58.5436C164.734 58.596 164.55 58.722 164.425 58.8986C162.993 60.6324 161.561 62.2606 160.213 64.0578L158.297 66.7008C157.665 67.5678 157.076 68.4981 156.486 69.3862C156.4 69.5185 156.35 69.6715 156.342 69.8294C156.335 69.9873 156.369 70.1443 156.442 70.2844C156.515 70.4245 156.624 70.5426 156.758 70.6263C156.891 70.71 157.045 70.7562 157.202 70.7605C158.255 70.7605 159.308 70.8663 160.319 70.972L163.414 71.3314C165.52 71.5429 167.478 71.9658 169.416 72.3041C169.611 72.3179 169.805 72.2663 169.968 72.1574C170.131 72.0485 170.253 71.8884 170.316 71.7023C170.378 71.5162 170.377 71.3145 170.314 71.1288C170.25 70.9431 170.127 70.7838 169.963 70.676C168.085 69.6179 166.55 68.0399 165.541 66.13" fill="#1CDBBC"/>
<path d="M125.826 59.7654C124.646 57.876 124.155 55.6344 124.436 53.4222C124.43 53.2122 124.353 53.0106 124.218 52.85C124.083 52.6893 123.899 52.5792 123.694 52.5375C123.489 52.4959 123.275 52.5251 123.089 52.6205C122.903 52.7158 122.754 52.8716 122.667 53.0626C121.783 55.1771 120.94 57.1435 120.119 59.1522C119.298 61.1609 118.645 63.233 118.013 65.2417C117.967 65.3914 117.96 65.5506 117.993 65.7037C118.026 65.8569 118.098 65.9989 118.202 66.1159C118.306 66.233 118.438 66.321 118.586 66.3716C118.733 66.4222 118.892 66.4335 119.045 66.4046C121.151 66.0029 123.257 65.6224 125.215 65.2841L131.322 64.5229C131.525 64.4907 131.71 64.3868 131.844 64.2298C131.977 64.0728 132.051 63.873 132.051 63.6665C132.051 63.46 131.977 63.2603 131.844 63.1033C131.71 62.9463 131.525 62.8424 131.322 62.8102C129.219 62.3394 127.301 61.2585 125.805 59.702" fill="#1CDBBC"/>
<path d="M188.599 59.9983C188.516 57.7937 189.193 55.6278 190.516 53.8664C190.619 53.6831 190.656 53.4695 190.62 53.2619C190.584 53.0543 190.477 52.8657 190.318 52.7284C190.159 52.5911 189.957 52.5135 189.748 52.509C189.538 52.5045 189.333 52.5732 189.168 52.7035L186.472 54.6487L183.903 56.7631C183.061 57.4609 182.219 58.1375 181.419 58.8776L179.039 60.992C178.925 61.0992 178.841 61.2348 178.796 61.385C178.751 61.5352 178.747 61.6947 178.783 61.8472C178.82 61.9997 178.896 62.1399 179.003 62.2534C179.111 62.3668 179.247 62.4496 179.397 62.4933L182.366 63.4448C183.356 63.7831 184.325 64.1637 185.293 64.5232L188.136 65.6437L190.916 66.9125C191.737 67.2931 192.453 66.1513 191.821 65.4535C190.244 63.9781 189.125 62.0762 188.599 59.9771" fill="#1CDBBC"/>
<path d="M212.372 59.3854C212.733 57.2199 213.808 55.2389 215.425 53.761C215.577 53.6058 215.668 53.4013 215.682 53.1846C215.696 52.9679 215.632 52.7532 215.503 52.5795C215.373 52.4058 215.186 52.2844 214.974 52.2374C214.763 52.1904 214.542 52.2208 214.351 52.3232C210.371 54.1627 206.539 56.1291 202.812 58.2436C202.676 58.3211 202.563 58.4335 202.485 58.569C202.406 58.7046 202.365 58.8585 202.365 59.0153C202.365 59.1721 202.406 59.3261 202.485 59.4617C202.563 59.5973 202.676 59.7096 202.812 59.7872C206.434 61.9016 209.929 64.2486 213.341 66.6379C214.099 67.1876 215.046 66.2149 214.541 65.3903C213.26 63.6434 212.527 61.5528 212.435 59.3854" fill="#1CDBBC"/>
<path d="M95.0171 53.3589C93.6259 51.6638 92.8401 49.5499 92.785 47.3541C92.7708 47.1347 92.6778 46.9278 92.5234 46.7719C92.369 46.616 92.1636 46.5216 91.9452 46.5062C91.7268 46.4907 91.5101 46.5552 91.3354 46.6877C91.1608 46.8203 91.0398 47.012 90.995 47.2272C90.3843 49.3416 89.8579 51.456 89.3315 53.5705C89.0788 54.6277 88.805 55.6848 88.5944 56.6998L87.9627 59.8714C87.9316 60.0251 87.9417 60.1843 87.9918 60.3328C88.0419 60.4813 88.1303 60.6139 88.2479 60.717C88.3656 60.8201 88.5083 60.89 88.6617 60.9197C88.815 60.9495 88.9734 60.9379 89.1209 60.8863L92.0901 59.8926C93.0798 59.5543 94.1959 59.2793 95.1014 59.0044C97.2072 58.4335 99.0814 57.8627 101.061 57.3764C101.251 57.3208 101.416 57.2014 101.529 57.038C101.642 56.8747 101.695 56.6774 101.68 56.4792C101.666 56.281 101.583 56.0939 101.448 55.9493C101.312 55.8047 101.131 55.7114 100.934 55.6849C98.7776 55.4932 96.7222 54.6779 95.0171 53.3378" fill="#1CDBBC"/>
<path d="M145.22 47.3964C144.444 45.3672 144.356 43.138 144.967 41.0531C145.025 40.8408 145.002 40.6147 144.903 40.4184C144.804 40.2221 144.636 40.0698 144.432 39.9908C144.227 39.9119 144.001 39.9119 143.796 39.991C143.592 40.07 143.424 40.2225 143.325 40.4188L141.472 43.1675C140.861 44.0767 140.271 44.9647 139.724 45.9162C138.587 47.7981 137.492 49.6376 136.481 51.4983C136.402 51.6359 136.361 51.7923 136.362 51.9512C136.363 52.1101 136.407 52.2657 136.489 52.4017C136.571 52.5378 136.687 52.6493 136.827 52.7247C136.966 52.8001 137.123 52.8367 137.281 52.8304C139.387 52.8304 141.493 52.8304 143.599 52.8304C144.609 52.8304 145.704 52.8305 146.673 52.9785L149.726 53.211C149.928 53.2116 150.123 53.1432 150.28 53.0172C150.438 52.8912 150.547 52.7151 150.592 52.518C150.636 52.3209 150.612 52.1144 150.523 51.9329C150.435 51.7513 150.288 51.6056 150.106 51.5195C148.129 50.6727 146.445 49.2609 145.262 47.4598" fill="#1CDBBC"/>
<path d="M234.778 38.0504C235.551 35.9837 236.989 34.2351 238.864 33.0815C239.025 32.9507 239.136 32.7683 239.179 32.5649C239.223 32.3616 239.195 32.1495 239.101 31.9641C239.008 31.7786 238.854 31.6309 238.665 31.5457C238.476 31.4604 238.264 31.4429 238.063 31.4957C235.958 32.0455 233.852 32.5529 231.746 33.1872L228.651 34.1176L225.597 35.1325C225.448 35.1818 225.314 35.2702 225.21 35.3888C225.105 35.5073 225.035 35.6516 225.005 35.8068C224.975 35.962 224.986 36.1224 225.039 36.2715C225.091 36.4206 225.182 36.553 225.302 36.6549L227.661 38.7693L229.935 40.8838C231.43 42.3004 232.862 43.8227 234.273 45.2817C234.419 45.4291 234.613 45.5203 234.819 45.5393C235.025 45.5582 235.232 45.5038 235.403 45.3854C235.573 45.2671 235.697 45.0924 235.752 44.8918C235.807 44.6912 235.791 44.4775 235.705 44.288C234.761 42.3174 234.43 40.1067 234.757 37.9447" fill="#1CDBBC"/>
<path d="M166.572 38.7697C166.156 36.6087 166.49 34.3698 167.519 32.4265C167.603 32.2274 167.613 32.0047 167.548 31.7987C167.483 31.5927 167.347 31.4168 167.165 31.3023C166.982 31.1878 166.765 31.1422 166.552 31.1739C166.34 31.2055 166.145 31.3123 166.003 31.4749L163.729 33.8219C162.971 34.6254 162.234 35.4501 161.518 36.2536C160.065 37.8817 158.633 39.4462 157.306 41.1589C157.209 41.282 157.146 41.4283 157.121 41.5834C157.097 41.7385 157.114 41.8972 157.169 42.0441C157.224 42.191 157.316 42.321 157.436 42.4216C157.556 42.5221 157.7 42.5897 157.854 42.6179C159.96 42.8927 162.065 43.3579 164.024 43.8019C165.035 44.0134 166.024 44.2248 167.014 44.4786L169.983 45.2821C170.182 45.3362 170.394 45.3173 170.58 45.2286C170.766 45.14 170.914 44.9874 170.998 44.7985C171.082 44.6096 171.096 44.3969 171.037 44.1987C170.978 44.0004 170.851 43.8297 170.678 43.7174C168.877 42.5109 167.47 40.797 166.635 38.7908" fill="#1CDBBC"/>
<path d="M112.895 37.7965C111.771 35.8863 111.326 33.6503 111.631 31.4532C111.631 31.2464 111.56 31.0459 111.431 30.8849C111.301 30.7239 111.121 30.6119 110.92 30.5675C110.719 30.5232 110.508 30.549 110.324 30.6408C110.139 30.7327 109.991 30.885 109.904 31.0727C109.42 32.0664 108.957 33.0179 108.515 34.0328L107.251 37.0565L106.03 40.1647L105.44 41.6448L104.914 43.1671C104.859 43.3144 104.844 43.4737 104.871 43.6286C104.897 43.7835 104.964 43.9285 105.065 44.0489C105.165 44.1693 105.296 44.2608 105.443 44.3139C105.591 44.367 105.75 44.3798 105.903 44.3512L107.441 44.0763L109.02 43.8437L112.116 43.442L115.19 43.0402C116.201 42.9345 117.296 42.8711 118.265 42.7865C118.473 42.7732 118.669 42.6847 118.817 42.5374C118.965 42.3902 119.055 42.1942 119.07 41.9855C119.086 41.7768 119.025 41.5694 118.901 41.4019C118.776 41.2344 118.595 41.1178 118.391 41.0738C116.281 40.5522 114.37 39.42 112.895 37.8177" fill="#1CDBBC"/>
<path d="M212.163 33.9484C212.587 31.7908 213.722 29.8394 215.385 28.4086C215.527 28.2534 215.611 28.0534 215.622 27.8428C215.634 27.6323 215.572 27.4242 215.448 27.2543C215.323 27.0844 215.144 26.9633 214.94 26.9116C214.737 26.8598 214.522 26.8808 214.332 26.9708C210.315 28.6376 206.405 30.5511 202.623 32.7008C202.488 32.7813 202.376 32.8958 202.298 33.033C202.22 33.1702 202.179 33.3254 202.179 33.4833C202.179 33.6412 202.22 33.7962 202.298 33.9334C202.376 34.0706 202.488 34.1851 202.623 34.2656C206.176 36.3681 209.594 38.6914 212.858 41.222C213.595 41.7929 214.563 40.8414 214.079 40.0168C212.859 38.2274 212.193 36.1165 212.163 33.9484" fill="#1CDBBC"/>
<path d="M189.124 34.2234C189.044 33.1863 189.202 32.1445 189.587 31.1787C190.002 30.1145 190.547 29.106 191.209 28.1762C191.322 27.9934 191.368 27.7768 191.341 27.5634C191.313 27.3499 191.212 27.1529 191.055 27.0057C190.899 26.8586 190.696 26.7704 190.482 26.7564C190.268 26.7423 190.056 26.8032 189.882 26.9287C186.294 29.3809 182.843 32.0279 179.542 34.8577C179.422 34.9582 179.33 35.0891 179.276 35.2369C179.222 35.3848 179.209 35.5443 179.237 35.6992C179.264 35.8541 179.333 35.9988 179.435 36.1185C179.536 36.2381 179.668 36.3285 179.816 36.3802C183.709 37.7856 187.526 39.3947 191.251 41.201C191.435 41.313 191.655 41.3497 191.866 41.3037C192.076 41.2578 192.261 41.1325 192.383 40.9538C192.504 40.775 192.552 40.5564 192.518 40.3428C192.484 40.1292 192.37 39.937 192.198 39.8056C191.417 38.9609 190.713 38.048 190.093 37.0779C189.551 36.2088 189.192 35.2373 189.04 34.2234" fill="#1CDBBC"/>
<path d="M132.983 25.2372C132.202 23.2107 132.099 20.9845 132.688 18.8939C132.745 18.6816 132.722 18.4555 132.623 18.2592C132.524 18.063 132.357 17.9106 132.152 17.8317C131.948 17.7527 131.721 17.7527 131.517 17.8318C131.312 17.9109 131.144 18.0633 131.045 18.2596L129.213 20.9872L128.329 22.3404L127.486 23.7359C126.37 25.6177 125.381 27.4784 124.244 29.318C124.17 29.455 124.133 29.609 124.137 29.7648C124.141 29.9205 124.186 30.0724 124.267 30.2052C124.348 30.3381 124.463 30.4472 124.599 30.5216C124.735 30.5959 124.889 30.6329 125.044 30.6289C127.15 30.6289 129.255 30.6289 131.361 30.6289H132.898H134.478L137.552 30.8404C137.754 30.841 137.949 30.7725 138.106 30.6465C138.264 30.5205 138.373 30.3444 138.418 30.1473C138.462 29.9502 138.438 29.7438 138.349 29.5623C138.261 29.3808 138.113 29.2349 137.931 29.1488C135.927 28.3306 134.217 26.9228 133.025 25.1103" fill="#1CDBBC"/>
<path d="M154.757 15.9759C154.304 13.8394 154.555 11.613 155.473 9.63259C155.545 9.43531 155.545 9.21868 155.473 9.02126C155.402 8.82383 155.262 8.65835 155.08 8.55434C154.898 8.45033 154.686 8.41447 154.48 8.45316C154.274 8.49185 154.089 8.60267 153.957 8.76573C152.462 10.3938 150.988 12.0008 149.577 13.6077C148.166 15.2147 146.839 16.9908 145.512 18.64C145.413 18.7639 145.349 18.9121 145.327 19.0693C145.305 19.2265 145.324 19.3868 145.385 19.5336C145.445 19.6804 145.543 19.8084 145.669 19.9041C145.795 19.9998 145.945 20.0598 146.102 20.0778C148.208 20.395 150.314 20.7121 152.272 21.0927C154.23 21.4733 156.357 21.9596 158.337 22.4037C158.54 22.4432 158.751 22.4099 158.932 22.3094C159.113 22.209 159.254 22.048 159.329 21.8543C159.404 21.6606 159.409 21.4465 159.343 21.2494C159.277 21.0523 159.145 20.8846 158.969 20.7756C157.13 19.6481 155.665 18.0003 154.757 16.0394" fill="#1CDBBC"/>
<path d="M224.904 9.82284C225.441 7.69192 226.681 5.80625 228.421 4.47329C228.575 4.32737 228.674 4.1318 228.699 3.92055C228.725 3.7093 228.675 3.4958 228.56 3.31722C228.445 3.13864 228.271 3.00629 228.069 2.94322C227.866 2.88016 227.648 2.89029 227.453 2.972C226.421 3.3526 225.347 3.71213 224.378 4.11387L221.367 5.34028C219.261 6.14376 217.408 7.05294 215.47 7.96214C215.332 8.03241 215.215 8.13691 215.129 8.2658C215.042 8.3947 214.99 8.54363 214.978 8.69839C214.965 8.85316 214.992 9.00865 215.056 9.14995C215.12 9.29126 215.219 9.41369 215.344 9.50563C217.071 10.732 218.776 11.9372 220.419 13.227L222.862 15.1511C223.662 15.7854 224.441 16.4832 225.22 17.1387C225.382 17.2618 225.581 17.3252 225.784 17.3182C225.987 17.3112 226.182 17.2343 226.335 17.1003C226.488 16.9664 226.591 16.7835 226.626 16.5826C226.66 16.3816 226.625 16.1749 226.526 15.9969C225.384 14.1473 224.82 11.9972 224.904 9.82284" fill="#1CDBBC"/>
<path d="M177.732 10.2666C177.588 8.06087 178.189 5.8709 179.438 4.05021C179.539 3.86294 179.572 3.6458 179.53 3.43668C179.489 3.22757 179.375 3.0398 179.209 2.90627C179.044 2.77274 178.837 2.70198 178.624 2.70624C178.412 2.7105 178.208 2.78956 178.048 2.92963C174.594 5.72067 171.288 8.38484 168.192 11.3873C168.078 11.493 167.994 11.6271 167.947 11.776C167.901 11.925 167.895 12.0835 167.929 12.2357C167.963 12.3879 168.037 12.5283 168.142 12.6429C168.247 12.7575 168.381 12.8422 168.529 12.8885C172.552 14.0726 176.489 15.6161 180.259 17.1173C180.448 17.1766 180.652 17.1704 180.837 17.0995C181.022 17.0286 181.179 16.8973 181.281 16.7265C181.383 16.5558 181.425 16.3556 181.4 16.1581C181.375 15.9605 181.284 15.7771 181.143 15.6373C179.507 14.23 178.32 12.3691 177.732 10.2878" fill="#1CDBBC"/>
<path d="M201.298 8.21597C201.492 6.02146 202.42 3.95739 203.93 2.35898C204.07 2.19284 204.146 1.98183 204.144 1.76417C204.142 1.5465 204.063 1.33666 203.92 1.17284C203.778 1.00902 203.581 0.902026 203.366 0.871371C203.152 0.840715 202.933 0.888369 202.751 1.00572C200.834 2.10522 198.96 3.12018 197.107 4.34654C196.18 4.89629 195.275 5.44601 194.369 6.03805L191.695 7.83539C191.564 7.9219 191.458 8.04177 191.389 8.1828C191.319 8.32384 191.288 8.48092 191.299 8.63798C191.309 8.79503 191.362 8.94645 191.45 9.07663C191.538 9.20682 191.659 9.31111 191.8 9.37888L194.622 10.7743C195.549 11.2395 196.475 11.7893 197.381 12.2756L202.751 15.3416C202.927 15.4465 203.134 15.485 203.336 15.4505C203.538 15.416 203.721 15.3106 203.853 15.153C203.984 14.9955 204.056 14.7961 204.054 14.5905C204.053 14.3849 203.979 14.1865 203.846 14.0306C202.438 12.3905 201.551 10.3657 201.298 8.21597" fill="#1CDBBC"/>
</g>
<defs>
<clipPath id="clip0_1723_4299">
<rect width="243.516" height="318.242" fill="white" transform="translate(0.802185 0.878906)"/>
</clipPath>
</defs>
</svg>
