<svg width="278" height="320" viewBox="0 0 278 320" fill="none" xmlns="http://www.w3.org/2000/svg">
<g clip-path="url(#clip0_1723_4790)">
<path d="M167.81 315.999C170.232 316.251 172.512 317.264 174.322 318.893C174.505 319.028 174.728 319.096 174.955 319.088C175.182 319.079 175.399 318.994 175.571 318.846C175.743 318.697 175.86 318.495 175.902 318.272C175.944 318.049 175.909 317.818 175.802 317.617L168.675 305.291C168.587 305.14 168.46 305.014 168.309 304.927C168.157 304.84 167.985 304.794 167.81 304.794C167.635 304.794 167.463 304.84 167.311 304.927C167.159 305.014 167.033 305.14 166.944 305.291L159.817 317.617C159.711 317.818 159.676 318.049 159.718 318.272C159.76 318.495 159.876 318.697 160.048 318.846C160.22 318.994 160.438 319.079 160.665 319.088C160.891 319.096 161.114 319.028 161.297 318.893C163.113 317.272 165.39 316.26 167.81 315.999" fill="#1CDBBC"/>
<path d="M139.619 315.999C142.033 316.257 144.304 317.27 146.109 318.893C146.291 319.041 146.518 319.122 146.753 319.12C146.987 319.117 147.213 319.033 147.392 318.881C147.571 318.73 147.691 318.52 147.731 318.289C147.771 318.058 147.729 317.82 147.612 317.617L140.485 305.291C140.396 305.14 140.27 305.014 140.118 304.927C139.967 304.84 139.794 304.794 139.619 304.794C139.444 304.794 139.273 304.84 139.121 304.927C138.969 305.014 138.843 305.14 138.754 305.291L131.627 317.617C131.521 317.818 131.486 318.049 131.528 318.272C131.57 318.495 131.686 318.697 131.858 318.846C132.03 318.994 132.248 319.079 132.474 319.088C132.701 319.096 132.924 319.028 133.107 318.893C134.918 317.264 137.197 316.251 139.619 315.999" fill="#1CDBBC"/>
<path d="M111.405 315.999C113.826 316.256 116.105 317.268 117.918 318.893C118.101 319.028 118.323 319.096 118.55 319.088C118.777 319.079 118.995 318.994 119.167 318.846C119.339 318.697 119.455 318.495 119.497 318.272C119.539 318.049 119.504 317.818 119.398 317.617L112.271 305.291C112.182 305.14 112.056 305.014 111.904 304.927C111.752 304.84 111.58 304.794 111.405 304.794C111.23 304.794 111.058 304.84 110.906 304.927C110.755 305.014 110.628 305.14 110.54 305.291L103.413 317.617C103.306 317.818 103.271 318.049 103.313 318.272C103.355 318.495 103.472 318.697 103.644 318.846C103.816 318.994 104.033 319.079 104.26 319.088C104.487 319.096 104.71 319.028 104.892 318.893C106.706 317.268 108.985 316.256 111.405 315.999" fill="#1CDBBC"/>
<path d="M167.811 287.793C170.238 288.042 172.521 289.064 174.324 290.709C174.508 290.853 174.736 290.928 174.969 290.921C175.202 290.915 175.426 290.827 175.601 290.673C175.777 290.519 175.893 290.309 175.93 290.078C175.967 289.848 175.922 289.612 175.804 289.411L168.676 277.108C168.593 276.95 168.469 276.819 168.316 276.727C168.164 276.635 167.989 276.586 167.811 276.586C167.633 276.586 167.459 276.635 167.306 276.727C167.154 276.819 167.029 276.95 166.946 277.108L159.819 289.411C159.7 289.612 159.656 289.848 159.693 290.078C159.73 290.309 159.846 290.519 160.021 290.673C160.197 290.827 160.42 290.915 160.653 290.921C160.886 290.928 161.115 290.853 161.298 290.709C163.107 289.074 165.387 288.053 167.811 287.793" fill="#1CDBBC"/>
<path d="M139.617 287.793C142.036 288.047 144.311 289.069 146.107 290.709C146.294 290.84 146.519 290.904 146.746 290.892C146.974 290.88 147.191 290.793 147.363 290.644C147.535 290.495 147.653 290.293 147.698 290.07C147.743 289.847 147.712 289.615 147.61 289.411L140.483 277.108C140.399 276.95 140.275 276.819 140.122 276.727C139.97 276.635 139.795 276.586 139.617 276.586C139.439 276.586 139.265 276.635 139.113 276.727C138.96 276.819 138.836 276.95 138.752 277.108L131.625 289.411C131.507 289.612 131.462 289.848 131.499 290.078C131.536 290.309 131.652 290.519 131.828 290.673C132.003 290.827 132.226 290.915 132.46 290.921C132.693 290.928 132.921 290.853 133.105 290.709C134.907 289.064 137.19 288.042 139.617 287.793" fill="#1CDBBC"/>
<path d="M111.407 287.793C113.834 288.042 116.117 289.064 117.919 290.709C118.103 290.853 118.331 290.928 118.565 290.921C118.798 290.915 119.021 290.827 119.197 290.673C119.372 290.519 119.488 290.309 119.525 290.078C119.562 289.848 119.518 289.612 119.4 289.411L112.272 277.108C112.189 276.95 112.064 276.819 111.912 276.727C111.759 276.635 111.585 276.586 111.407 276.586C111.229 276.586 111.054 276.635 110.902 276.727C110.749 276.819 110.625 276.95 110.541 277.108L103.414 289.411C103.296 289.612 103.251 289.848 103.288 290.078C103.325 290.309 103.441 290.519 103.617 290.673C103.792 290.827 104.016 290.915 104.249 290.921C104.482 290.928 104.71 290.853 104.894 290.709C106.696 289.064 108.98 288.042 111.407 287.793" fill="#1CDBBC"/>
<path d="M167.811 259.587C170.235 259.848 172.514 260.869 174.324 262.503C174.508 262.647 174.736 262.722 174.969 262.715C175.202 262.709 175.426 262.621 175.601 262.467C175.777 262.313 175.893 262.103 175.93 261.872C175.967 261.642 175.922 261.406 175.804 261.205L168.676 248.901C168.588 248.75 168.462 248.625 168.31 248.537C168.158 248.45 167.986 248.404 167.811 248.404C167.636 248.404 167.464 248.45 167.312 248.537C167.161 248.625 167.034 248.75 166.946 248.901L159.819 261.205C159.7 261.406 159.656 261.642 159.693 261.872C159.73 262.103 159.846 262.313 160.021 262.467C160.197 262.621 160.42 262.709 160.653 262.715C160.886 262.722 161.115 262.647 161.298 262.503C163.113 260.877 165.39 259.857 167.811 259.587" fill="#1CDBBC"/>
<path d="M139.617 259.587C142.033 259.853 144.304 260.873 146.107 262.503C146.294 262.633 146.519 262.698 146.746 262.686C146.974 262.674 147.191 262.587 147.363 262.438C147.535 262.289 147.653 262.087 147.698 261.864C147.743 261.64 147.712 261.409 147.61 261.205L140.483 248.901C140.394 248.75 140.268 248.625 140.116 248.537C139.965 248.45 139.792 248.404 139.617 248.404C139.442 248.404 139.271 248.45 139.119 248.537C138.967 248.625 138.841 248.75 138.752 248.901L131.625 261.205C131.507 261.406 131.462 261.642 131.499 261.872C131.536 262.103 131.652 262.313 131.828 262.467C132.003 262.621 132.226 262.709 132.46 262.715C132.693 262.722 132.921 262.647 133.105 262.503C134.914 260.869 137.194 259.848 139.617 259.587" fill="#1CDBBC"/>
<path d="M111.407 259.587C113.829 259.853 116.107 260.873 117.919 262.503C118.103 262.647 118.331 262.722 118.565 262.715C118.798 262.709 119.021 262.621 119.197 262.467C119.372 262.313 119.488 262.103 119.525 261.872C119.562 261.642 119.518 261.406 119.4 261.205L112.272 248.901C112.184 248.75 112.057 248.625 111.905 248.537C111.754 248.45 111.582 248.404 111.407 248.404C111.232 248.404 111.06 248.45 110.908 248.537C110.756 248.625 110.63 248.75 110.541 248.901L103.414 261.205C103.296 261.406 103.251 261.642 103.288 261.872C103.325 262.103 103.441 262.313 103.617 262.467C103.792 262.621 104.016 262.709 104.249 262.715C104.482 262.722 104.71 262.647 104.894 262.503C106.706 260.873 108.984 259.853 111.407 259.587" fill="#1CDBBC"/>
<path d="M79.2064 241.451C78.9548 243.875 77.9423 246.156 76.3144 247.967C76.1797 248.15 76.111 248.373 76.1196 248.6C76.1282 248.827 76.2135 249.045 76.3617 249.217C76.5098 249.389 76.712 249.506 76.9351 249.548C77.1582 249.59 77.3888 249.555 77.5895 249.448L89.9089 242.317C90.0601 242.229 90.1856 242.102 90.2727 241.951C90.3599 241.799 90.4059 241.627 90.4059 241.451C90.4059 241.276 90.3599 241.104 90.2727 240.952C90.1856 240.8 90.0601 240.674 89.9089 240.586L77.5895 233.454C77.3888 233.348 77.1582 233.313 76.9351 233.355C76.712 233.397 76.5098 233.514 76.3617 233.686C76.2135 233.858 76.1282 234.075 76.1196 234.302C76.111 234.529 76.1797 234.752 76.3144 234.935C77.9384 236.75 78.9502 239.029 79.2064 241.451" fill="#1CDBBC"/>
<path d="M52.8359 241.451C52.5843 243.875 51.5721 246.156 49.9442 247.967C49.8095 248.15 49.7407 248.373 49.7493 248.6C49.7579 248.827 49.8433 249.045 49.9915 249.217C50.1396 249.389 50.3418 249.506 50.5649 249.548C50.788 249.59 51.0186 249.555 51.2193 249.448L63.5387 242.317C63.6899 242.229 63.8154 242.102 63.9025 241.951C63.9897 241.799 64.0354 241.627 64.0354 241.451C64.0354 241.276 63.9897 241.104 63.9025 240.952C63.8154 240.8 63.6899 240.674 63.5387 240.586L51.2193 233.454C51.0186 233.348 50.788 233.313 50.5649 233.355C50.3418 233.397 50.1396 233.514 49.9915 233.686C49.8433 233.858 49.7579 234.075 49.7493 234.302C49.7407 234.529 49.8095 234.752 49.9442 234.935C51.5682 236.75 52.5797 239.029 52.8359 241.451" fill="#1CDBBC"/>
<path d="M218.319 241.452C218.07 243.88 217.048 246.164 215.404 247.968C215.26 248.152 215.185 248.38 215.192 248.613C215.199 248.847 215.286 249.07 215.44 249.246C215.594 249.421 215.804 249.537 216.035 249.574C216.265 249.612 216.501 249.567 216.702 249.449L228.998 242.317C229.15 242.229 229.275 242.103 229.362 241.951C229.449 241.799 229.495 241.627 229.495 241.452C229.495 241.276 229.449 241.104 229.362 240.952C229.275 240.801 229.15 240.674 228.998 240.586L216.702 233.454C216.501 233.336 216.265 233.292 216.035 233.329C215.804 233.366 215.594 233.482 215.44 233.658C215.286 233.833 215.199 234.057 215.192 234.29C215.185 234.523 215.26 234.752 215.404 234.935C217.048 236.739 218.07 239.023 218.319 241.452Z" fill="#1CDBBC"/>
<path d="M190.99 241.452C190.742 243.88 189.72 246.164 188.076 247.968C187.932 248.152 187.857 248.38 187.864 248.613C187.87 248.847 187.958 249.07 188.112 249.246C188.266 249.421 188.476 249.537 188.706 249.574C188.937 249.612 189.173 249.567 189.374 249.449L201.67 242.317C201.827 242.234 201.959 242.109 202.051 241.957C202.143 241.804 202.191 241.63 202.191 241.452C202.191 241.274 202.143 241.099 202.051 240.946C201.959 240.794 201.827 240.669 201.67 240.586L189.374 233.454C189.173 233.336 188.937 233.292 188.706 233.329C188.476 233.366 188.266 233.482 188.112 233.658C187.958 233.833 187.87 234.057 187.864 234.29C187.857 234.523 187.932 234.752 188.076 234.935C189.72 236.739 190.742 239.023 190.99 241.452" fill="#1CDBBC"/>
<path d="M167.81 231.381C170.233 231.642 172.513 232.663 174.322 234.297C174.505 234.432 174.728 234.501 174.955 234.492C175.182 234.483 175.399 234.398 175.571 234.25C175.743 234.102 175.86 233.899 175.902 233.676C175.944 233.453 175.909 233.222 175.802 233.021L168.675 220.695C168.587 220.544 168.46 220.419 168.309 220.331C168.157 220.244 167.985 220.198 167.81 220.198C167.635 220.198 167.463 220.244 167.311 220.331C167.159 220.419 167.033 220.544 166.944 220.695L159.817 233.021C159.711 233.222 159.676 233.453 159.718 233.676C159.76 233.899 159.876 234.102 160.048 234.25C160.22 234.398 160.438 234.483 160.665 234.492C160.891 234.501 161.114 234.432 161.297 234.297C163.112 232.671 165.388 231.651 167.81 231.381" fill="#1CDBBC"/>
<path d="M139.619 231.381C142.035 231.647 144.306 232.667 146.109 234.297C146.291 234.446 146.518 234.526 146.753 234.524C146.987 234.522 147.213 234.437 147.392 234.286C147.571 234.134 147.691 233.925 147.731 233.693C147.771 233.462 147.729 233.225 147.612 233.021L140.485 220.695C140.396 220.544 140.27 220.419 140.118 220.331C139.967 220.244 139.794 220.198 139.619 220.198C139.444 220.198 139.273 220.244 139.121 220.331C138.969 220.419 138.843 220.544 138.754 220.695L131.627 233.021C131.521 233.222 131.486 233.453 131.528 233.676C131.57 233.899 131.686 234.102 131.858 234.25C132.03 234.398 132.248 234.484 132.474 234.492C132.701 234.501 132.924 234.432 133.107 234.297C134.916 232.663 137.196 231.642 139.619 231.381" fill="#1CDBBC"/>
<path d="M111.405 231.381C113.828 231.647 116.106 232.667 117.918 234.297C118.101 234.432 118.323 234.501 118.55 234.492C118.777 234.483 118.995 234.398 119.167 234.25C119.339 234.102 119.455 233.899 119.497 233.676C119.539 233.453 119.504 233.222 119.398 233.021L112.271 220.695C112.182 220.544 112.056 220.419 111.904 220.331C111.752 220.244 111.58 220.198 111.405 220.198C111.23 220.198 111.058 220.244 110.906 220.331C110.755 220.419 110.628 220.544 110.54 220.695L103.413 233.021C103.306 233.222 103.271 233.453 103.313 233.676C103.355 233.899 103.472 234.102 103.644 234.25C103.816 234.398 104.033 234.483 104.26 234.492C104.487 234.501 104.71 234.432 104.892 234.297C106.705 232.667 108.983 231.647 111.405 231.381" fill="#1CDBBC"/>
<path d="M167.81 203.198C170.232 203.449 172.512 204.462 174.322 206.091C174.505 206.226 174.728 206.295 174.955 206.286C175.182 206.277 175.399 206.192 175.571 206.044C175.743 205.896 175.86 205.693 175.902 205.47C175.944 205.247 175.909 205.016 175.802 204.815L168.675 192.489C168.587 192.338 168.46 192.213 168.309 192.125C168.157 192.038 167.985 191.992 167.81 191.992C167.635 191.992 167.463 192.038 167.311 192.125C167.159 192.213 167.033 192.338 166.944 192.489L159.817 204.815C159.711 205.016 159.676 205.247 159.718 205.47C159.76 205.693 159.876 205.896 160.048 206.044C160.22 206.192 160.438 206.277 160.665 206.286C160.891 206.295 161.114 206.226 161.297 206.091C163.113 204.47 165.39 203.459 167.81 203.198" fill="#1CDBBC"/>
<path d="M139.619 203.198C142.033 203.456 144.304 204.468 146.109 206.091C146.291 206.24 146.518 206.32 146.753 206.318C146.987 206.316 147.213 206.231 147.392 206.08C147.571 205.928 147.691 205.718 147.731 205.487C147.771 205.256 147.729 205.019 147.612 204.815L140.485 192.489C140.396 192.338 140.27 192.213 140.118 192.125C139.967 192.038 139.794 191.992 139.619 191.992C139.444 191.992 139.273 192.038 139.121 192.125C138.969 192.213 138.843 192.338 138.754 192.489L131.627 204.815C131.521 205.016 131.486 205.247 131.528 205.47C131.57 205.693 131.686 205.896 131.858 206.044C132.03 206.192 132.248 206.277 132.474 206.286C132.701 206.295 132.924 206.226 133.107 206.091C134.918 204.462 137.197 203.449 139.619 203.198" fill="#1CDBBC"/>
<path d="M111.405 203.198C113.826 203.454 116.105 204.466 117.918 206.091C118.101 206.226 118.323 206.295 118.55 206.286C118.777 206.277 118.995 206.192 119.167 206.044C119.339 205.896 119.455 205.693 119.497 205.47C119.539 205.247 119.504 205.016 119.398 204.815L112.271 192.489C112.182 192.338 112.056 192.213 111.904 192.125C111.752 192.038 111.58 191.992 111.405 191.992C111.23 191.992 111.058 192.038 110.906 192.125C110.755 192.213 110.628 192.338 110.54 192.489L103.413 204.815C103.306 205.016 103.271 205.247 103.313 205.47C103.355 205.693 103.472 205.896 103.644 206.044C103.816 206.192 104.033 206.277 104.26 206.286C104.487 206.295 104.71 206.226 104.892 206.091C106.706 204.466 108.985 203.454 111.405 203.198" fill="#1CDBBC"/>
<path d="M79.2064 191.783C78.9502 194.205 77.9384 196.485 76.3144 198.299C76.1797 198.482 76.111 198.705 76.1196 198.932C76.1282 199.159 76.2135 199.376 76.3617 199.548C76.5098 199.721 76.712 199.837 76.9351 199.879C77.1582 199.921 77.3888 199.886 77.5895 199.78L89.9089 192.649C90.0601 192.561 90.1856 192.434 90.2727 192.282C90.3599 192.13 90.4059 191.958 90.4059 191.783C90.4059 191.608 90.3599 191.436 90.2727 191.284C90.1856 191.132 90.0601 191.006 89.9089 190.917L77.5895 183.786C77.3888 183.68 77.1582 183.645 76.9351 183.687C76.712 183.729 76.5098 183.846 76.3617 184.018C76.2135 184.19 76.1282 184.407 76.1196 184.634C76.111 184.861 76.1797 185.084 76.3144 185.267C77.9423 187.079 78.9548 189.36 79.2064 191.783" fill="#1CDBBC"/>
<path d="M52.8359 191.783C52.5797 194.205 51.5682 196.485 49.9442 198.299C49.8095 198.482 49.7407 198.705 49.7493 198.932C49.7579 199.159 49.8433 199.376 49.9915 199.548C50.1396 199.721 50.3418 199.837 50.5649 199.879C50.788 199.921 51.0186 199.886 51.2193 199.78L63.5387 192.649C63.6899 192.561 63.8154 192.434 63.9025 192.282C63.9897 192.13 64.0354 191.958 64.0354 191.783C64.0354 191.608 63.9897 191.436 63.9025 191.284C63.8154 191.132 63.6899 191.006 63.5387 190.917L51.2193 183.786C51.0186 183.68 50.788 183.645 50.5649 183.687C50.3418 183.729 50.1396 183.846 49.9915 184.018C49.8433 184.19 49.7579 184.407 49.7493 184.634C49.7407 184.861 49.8095 185.084 49.9442 185.267C51.5721 187.079 52.5843 189.36 52.8359 191.783Z" fill="#1CDBBC"/>
<path d="M218.319 191.783C218.07 194.212 217.048 196.496 215.404 198.299C215.26 198.483 215.185 198.712 215.192 198.945C215.199 199.178 215.286 199.402 215.44 199.577C215.594 199.753 215.804 199.869 216.035 199.906C216.265 199.943 216.501 199.899 216.702 199.78L228.998 192.649C229.15 192.561 229.275 192.434 229.362 192.282C229.449 192.13 229.495 191.958 229.495 191.783C229.495 191.608 229.449 191.436 229.362 191.284C229.275 191.132 229.15 191.006 228.998 190.917L216.702 183.786C216.501 183.668 216.265 183.623 216.035 183.66C215.804 183.697 215.594 183.813 215.44 183.989C215.286 184.164 215.199 184.388 215.192 184.621C215.185 184.855 215.26 185.083 215.404 185.267C217.048 187.07 218.07 189.355 218.319 191.783Z" fill="#1CDBBC"/>
<path d="M190.99 191.783C190.742 194.212 189.72 196.496 188.076 198.299C187.932 198.483 187.857 198.712 187.864 198.945C187.87 199.178 187.958 199.402 188.112 199.577C188.266 199.753 188.476 199.869 188.706 199.906C188.937 199.943 189.173 199.899 189.374 199.78L201.67 192.649C201.827 192.566 201.959 192.441 202.051 192.288C202.143 192.136 202.191 191.961 202.191 191.783C202.191 191.605 202.143 191.43 202.051 191.278C201.959 191.125 201.827 191.001 201.67 190.917L189.374 183.786C189.173 183.668 188.937 183.623 188.706 183.66C188.476 183.697 188.266 183.813 188.112 183.989C187.958 184.164 187.87 184.388 187.864 184.621C187.857 184.855 187.932 185.083 188.076 185.267C189.72 187.07 190.742 189.355 190.99 191.783" fill="#1CDBBC"/>
<path d="M167.81 174.991C170.232 175.243 172.512 176.256 174.322 177.885C174.505 178.019 174.728 178.088 174.955 178.08C175.182 178.071 175.399 177.986 175.571 177.837C175.743 177.689 175.86 177.487 175.902 177.264C175.944 177.04 175.909 176.81 175.802 176.609L168.675 164.283C168.587 164.132 168.46 164.006 168.309 163.919C168.157 163.832 167.985 163.786 167.81 163.786C167.635 163.786 167.463 163.832 167.311 163.919C167.159 164.006 167.033 164.132 166.944 164.283L159.817 176.609C159.711 176.81 159.676 177.04 159.718 177.264C159.76 177.487 159.876 177.689 160.048 177.837C160.22 177.986 160.438 178.071 160.665 178.08C160.891 178.088 161.114 178.019 161.297 177.885C163.113 176.264 165.39 175.252 167.81 174.991" fill="#1CDBBC"/>
<path d="M139.619 174.991C142.033 175.249 144.304 176.262 146.109 177.885C146.291 178.033 146.518 178.113 146.753 178.111C146.987 178.109 147.213 178.025 147.392 177.873C147.571 177.721 147.691 177.512 147.731 177.281C147.771 177.05 147.729 176.812 147.612 176.609L140.485 164.283C140.396 164.132 140.27 164.006 140.118 163.919C139.967 163.832 139.794 163.786 139.619 163.786C139.444 163.786 139.273 163.832 139.121 163.919C138.969 164.006 138.843 164.132 138.754 164.283L131.627 176.609C131.521 176.81 131.486 177.04 131.528 177.264C131.57 177.487 131.686 177.689 131.858 177.837C132.03 177.986 132.248 178.071 132.474 178.08C132.701 178.088 132.924 178.02 133.107 177.885C134.918 176.256 137.197 175.243 139.619 174.991" fill="#1CDBBC"/>
<path d="M111.405 174.991C113.826 175.247 116.105 176.26 117.918 177.885C118.101 178.019 118.323 178.088 118.55 178.08C118.777 178.071 118.995 177.986 119.167 177.837C119.339 177.689 119.455 177.487 119.497 177.264C119.539 177.04 119.504 176.81 119.398 176.609L112.271 164.283C112.182 164.132 112.056 164.006 111.904 163.919C111.752 163.832 111.58 163.786 111.405 163.786C111.23 163.786 111.058 163.832 110.906 163.919C110.755 164.006 110.628 164.132 110.54 164.283L103.413 176.609C103.306 176.81 103.271 177.04 103.313 177.264C103.355 177.487 103.472 177.689 103.644 177.837C103.816 177.986 104.033 178.071 104.26 178.08C104.487 178.088 104.71 178.019 104.892 177.885C106.706 176.26 108.985 175.247 111.405 174.991Z" fill="#1CDBBC"/>
<path d="M179.789 146.307C181.661 147.862 182.999 149.966 183.614 152.322C183.692 152.534 183.839 152.713 184.031 152.831C184.222 152.949 184.448 152.998 184.672 152.972C184.896 152.946 185.104 152.845 185.263 152.686C185.423 152.526 185.524 152.318 185.55 152.094L186.438 137.877C186.447 137.703 186.411 137.53 186.333 137.375C186.255 137.219 186.138 137.086 185.993 136.99C185.849 136.893 185.681 136.836 185.508 136.824C185.334 136.812 185.16 136.845 185.003 136.92L172.252 143.209C172.047 143.314 171.885 143.487 171.793 143.698C171.701 143.909 171.684 144.145 171.746 144.367C171.807 144.589 171.943 144.783 172.131 144.916C172.318 145.049 172.546 145.114 172.775 145.1C175.182 144.752 177.637 145.174 179.789 146.307Z" fill="#1CDBBC"/>
<path d="M151.597 146.307C153.474 147.854 154.807 149.962 155.4 152.322C155.478 152.534 155.624 152.713 155.816 152.831C156.008 152.949 156.234 152.998 156.458 152.972C156.681 152.946 156.89 152.845 157.049 152.686C157.208 152.526 157.309 152.318 157.336 152.094L158.246 137.877C158.256 137.703 158.22 137.53 158.142 137.375C158.064 137.219 157.947 137.086 157.802 136.99C157.657 136.893 157.49 136.836 157.316 136.824C157.143 136.812 156.969 136.845 156.812 136.92L144.037 143.209C143.833 143.314 143.671 143.487 143.579 143.698C143.487 143.909 143.47 144.145 143.532 144.367C143.593 144.589 143.729 144.783 143.916 144.916C144.104 145.049 144.331 145.114 144.561 145.1C146.975 144.753 149.437 145.175 151.597 146.307" fill="#1CDBBC"/>
<path d="M123.384 146.307C125.262 147.854 126.594 149.962 127.187 152.322C127.255 152.547 127.4 152.74 127.597 152.869C127.793 152.997 128.028 153.053 128.261 153.026C128.494 152.999 128.711 152.89 128.872 152.72C129.034 152.55 129.13 152.328 129.145 152.094L130.033 137.877C130.043 137.703 130.007 137.53 129.929 137.375C129.851 137.219 129.733 137.086 129.589 136.99C129.444 136.893 129.277 136.836 129.103 136.824C128.93 136.812 128.756 136.845 128.599 136.92L115.847 143.209C115.643 143.314 115.481 143.487 115.389 143.698C115.297 143.909 115.28 144.145 115.341 144.367C115.403 144.589 115.539 144.783 115.726 144.916C115.913 145.049 116.141 145.114 116.371 145.1C118.777 144.752 121.232 145.174 123.384 146.307Z" fill="#1CDBBC"/>
<path d="M97.3335 146.307C99.4854 145.174 101.94 144.752 104.347 145.1C104.577 145.114 104.804 145.049 104.992 144.916C105.179 144.783 105.315 144.589 105.376 144.367C105.438 144.145 105.421 143.909 105.329 143.698C105.237 143.487 105.075 143.314 104.871 143.209L92.1187 136.92C91.9619 136.845 91.7883 136.812 91.6148 136.824C91.4412 136.836 91.2736 136.893 91.1289 136.99C90.9841 137.086 90.8672 137.219 90.7892 137.375C90.7112 137.53 90.6749 137.703 90.6841 137.877L91.5722 152.094C91.5873 152.328 91.6842 152.55 91.8458 152.72C92.0073 152.89 92.2234 152.999 92.4565 153.026C92.6895 153.053 92.9248 152.997 93.1211 152.869C93.3174 152.74 93.4622 152.547 93.5305 152.322C94.1236 149.962 95.4563 147.854 97.3335 146.307" fill="#1CDBBC"/>
<path d="M194.885 123.66C196.762 125.207 198.095 127.315 198.688 129.675C198.757 129.9 198.904 130.094 199.103 130.222C199.301 130.35 199.538 130.403 199.772 130.373C200.007 130.344 200.222 130.232 200.382 130.058C200.542 129.884 200.636 129.66 200.646 129.424L201.534 115.23C201.544 115.056 201.507 114.883 201.429 114.727C201.351 114.571 201.234 114.439 201.09 114.342C200.945 114.246 200.777 114.188 200.604 114.176C200.43 114.164 200.256 114.197 200.1 114.273L187.348 120.561C187.143 120.667 186.981 120.84 186.889 121.05C186.797 121.261 186.781 121.498 186.842 121.719C186.904 121.941 187.039 122.135 187.227 122.269C187.414 122.402 187.642 122.467 187.871 122.452C190.278 122.095 192.736 122.518 194.885 123.66" fill="#1CDBBC"/>
<path d="M166.696 123.66C168.573 125.207 169.905 127.315 170.498 129.675C170.578 129.887 170.726 130.066 170.92 130.183C171.114 130.299 171.341 130.347 171.566 130.318C171.79 130.289 171.998 130.185 172.156 130.022C172.313 129.86 172.411 129.649 172.434 129.424L173.345 115.23C173.354 115.056 173.318 114.883 173.24 114.727C173.162 114.571 173.045 114.439 172.9 114.342C172.755 114.246 172.588 114.188 172.415 114.176C172.241 114.164 172.067 114.197 171.91 114.273L159.113 120.561C158.908 120.667 158.747 120.84 158.655 121.05C158.563 121.261 158.546 121.498 158.607 121.719C158.669 121.941 158.804 122.135 158.992 122.269C159.179 122.402 159.407 122.467 159.636 122.452C162.051 122.09 164.517 122.513 166.673 123.66" fill="#1CDBBC"/>
<path d="M138.481 123.66C140.358 125.207 141.691 127.315 142.284 129.675C142.363 129.887 142.512 130.066 142.705 130.183C142.899 130.299 143.127 130.347 143.351 130.318C143.576 130.289 143.784 130.185 143.941 130.022C144.099 129.86 144.197 129.649 144.22 129.424L145.13 115.23C145.14 115.056 145.104 114.883 145.026 114.727C144.948 114.571 144.83 114.439 144.686 114.342C144.541 114.246 144.374 114.188 144.2 114.176C144.026 114.164 143.853 114.197 143.696 114.273L130.944 120.561C130.742 120.666 130.582 120.837 130.49 121.045C130.398 121.254 130.38 121.487 130.438 121.707C130.496 121.927 130.628 122.121 130.811 122.257C130.994 122.392 131.217 122.461 131.445 122.452C133.859 122.09 136.326 122.513 138.481 123.66Z" fill="#1CDBBC"/>
<path d="M110.448 123.66C112.597 122.518 115.055 122.095 117.462 122.452C117.691 122.467 117.919 122.402 118.106 122.269C118.294 122.135 118.43 121.941 118.491 121.719C118.552 121.498 118.536 121.261 118.444 121.05C118.352 120.84 118.19 120.667 117.985 120.561L105.233 114.273C105.077 114.197 104.903 114.164 104.729 114.176C104.556 114.188 104.388 114.246 104.244 114.342C104.099 114.439 103.982 114.571 103.904 114.727C103.826 114.883 103.79 115.056 103.799 115.23L104.687 129.424C104.71 129.649 104.808 129.86 104.965 130.022C105.123 130.185 105.331 130.289 105.555 130.318C105.78 130.347 106.007 130.299 106.201 130.183C106.395 130.066 106.543 129.887 106.622 129.675C107.232 127.316 108.571 125.211 110.448 123.66" fill="#1CDBBC"/>
<path d="M82.2339 123.66C84.3893 122.513 86.856 122.09 89.2702 122.452C89.4976 122.461 89.7215 122.392 89.9045 122.257C90.0875 122.121 90.2189 121.927 90.2773 121.707C90.3356 121.487 90.3173 121.254 90.2253 121.045C90.1333 120.837 89.9733 120.666 89.7713 120.561L77.0191 114.273C76.8623 114.197 76.6887 114.164 76.5152 114.176C76.3416 114.188 76.1741 114.246 76.0293 114.342C75.8845 114.439 75.7676 114.571 75.6896 114.727C75.6116 114.883 75.5753 115.056 75.5845 115.23L76.4954 129.424C76.518 129.649 76.6163 129.86 76.774 130.022C76.9316 130.185 77.1395 130.289 77.3638 130.318C77.5882 130.347 77.8158 130.299 78.0096 130.183C78.2033 130.066 78.3518 129.887 78.431 129.675C79.024 127.315 80.3568 125.207 82.2339 123.66" fill="#1CDBBC"/>
<path d="M181.882 100.99C183.741 102.563 185.069 104.671 185.685 107.028C185.764 107.24 185.913 107.419 186.107 107.536C186.3 107.653 186.528 107.7 186.752 107.671C186.977 107.642 187.184 107.538 187.342 107.376C187.5 107.213 187.598 107.002 187.621 106.777L188.532 92.583C188.54 92.4064 188.503 92.2306 188.424 92.0725C188.345 91.9145 188.226 91.7797 188.08 91.6811C187.933 91.5825 187.763 91.5235 187.587 91.5099C187.411 91.4963 187.234 91.5285 187.074 91.6033L174.322 97.9143C174.118 98.02 173.956 98.1927 173.864 98.4037C173.772 98.6146 173.755 98.8509 173.817 99.0727C173.878 99.2945 174.014 99.4884 174.201 99.6218C174.389 99.7553 174.616 99.82 174.846 99.8054C177.258 99.4517 179.719 99.8663 181.882 100.99" fill="#1CDBBC"/>
<path d="M209.984 100.99C211.858 102.549 213.19 104.663 213.787 107.028C213.857 107.253 214.004 107.447 214.202 107.575C214.401 107.703 214.638 107.756 214.872 107.726C215.106 107.697 215.322 107.585 215.482 107.411C215.642 107.237 215.735 107.013 215.746 106.777L216.634 92.5828C216.647 92.4071 216.614 92.2309 216.538 92.072C216.462 91.9132 216.345 91.7771 216.2 91.6778C216.054 91.5785 215.885 91.5193 215.71 91.5062C215.534 91.4931 215.358 91.5265 215.199 91.6031L202.447 97.9141C202.243 98.0198 202.081 98.1925 201.989 98.4035C201.897 98.6144 201.88 98.8507 201.942 99.0725C202.003 99.2943 202.139 99.4882 202.326 99.6216C202.514 99.7551 202.741 99.8198 202.971 99.8052C205.375 99.4502 207.83 99.8649 209.984 100.99" fill="#1CDBBC"/>
<path d="M153.579 100.99C155.453 102.549 156.784 104.663 157.382 107.028C157.461 107.24 157.609 107.419 157.803 107.536C157.997 107.652 158.224 107.7 158.449 107.671C158.673 107.642 158.881 107.538 159.039 107.375C159.196 107.213 159.294 107.002 159.317 106.777L160.228 92.5828C160.241 92.4071 160.209 92.2309 160.132 92.072C160.056 91.9132 159.939 91.7771 159.794 91.6778C159.648 91.5785 159.479 91.5193 159.304 91.5062C159.128 91.4931 158.952 91.5265 158.793 91.6031L146.019 97.9141C145.814 98.0198 145.653 98.1925 145.561 98.4035C145.468 98.6144 145.452 98.8507 145.513 99.0725C145.574 99.2943 145.71 99.4882 145.898 99.6216C146.085 99.755 146.313 99.8198 146.542 99.8052C148.954 99.4515 151.416 99.8661 153.579 100.99" fill="#1CDBBC"/>
<path d="M123.544 100.99C125.707 99.8661 128.168 99.4515 130.58 99.8052C130.81 99.8198 131.037 99.755 131.225 99.6216C131.412 99.4882 131.548 99.2943 131.609 99.0725C131.671 98.8507 131.654 98.6144 131.562 98.4035C131.47 98.1925 131.308 98.0198 131.104 97.9141L118.329 91.6031C118.17 91.5265 117.995 91.4931 117.819 91.5062C117.643 91.5193 117.474 91.5785 117.329 91.6778C117.183 91.7771 117.067 91.9132 116.99 92.072C116.914 92.2309 116.881 92.4071 116.894 92.5828L117.805 106.777C117.828 107.002 117.926 107.213 118.084 107.375C118.242 107.538 118.449 107.642 118.674 107.671C118.898 107.7 119.126 107.652 119.319 107.536C119.513 107.419 119.662 107.24 119.741 107.028C120.338 104.663 121.67 102.549 123.544 100.99" fill="#1CDBBC"/>
<path d="M95.3501 100.99C97.5046 99.8649 99.9594 99.4502 102.364 99.8052C102.593 99.8198 102.821 99.7551 103.008 99.6216C103.196 99.4882 103.332 99.2943 103.393 99.0725C103.454 98.8507 103.438 98.6144 103.346 98.4035C103.254 98.1925 103.092 98.0198 102.888 97.9141L90.1354 91.6031C89.9768 91.5265 89.8009 91.4931 89.6253 91.5062C89.4496 91.5193 89.2804 91.5785 89.135 91.6778C88.9895 91.7771 88.8729 91.9132 88.7967 92.072C88.7204 92.2309 88.6872 92.4071 88.7008 92.5828L89.5889 106.777C89.5995 107.013 89.6931 107.237 89.853 107.411C90.0128 107.585 90.2287 107.697 90.4628 107.726C90.6969 107.756 90.9341 107.703 91.1325 107.575C91.3309 107.447 91.4776 107.253 91.5472 107.028C92.1446 104.663 93.4762 102.549 95.3501 100.99" fill="#1CDBBC"/>
<path d="M67.1393 100.99C69.3024 99.8661 71.764 99.4515 74.1756 99.8052C74.4051 99.8198 74.6327 99.755 74.8202 99.6216C75.0076 99.4882 75.1435 99.2943 75.2049 99.0725C75.2663 98.8507 75.2497 98.6144 75.1576 98.4035C75.0656 98.1925 74.9039 98.0198 74.6995 97.9141L61.9245 91.6031C61.7659 91.5265 61.5901 91.4931 61.4144 91.5062C61.2388 91.5193 61.0696 91.5785 60.9241 91.6778C60.7786 91.7771 60.662 91.9132 60.5858 92.072C60.5096 92.2309 60.4764 92.4071 60.4899 92.5828L61.4008 106.777C61.4234 107.002 61.5217 107.213 61.6794 107.375C61.837 107.538 62.0448 107.642 62.2692 107.671C62.4936 107.7 62.7212 107.652 62.9149 107.536C63.1087 107.419 63.2572 107.24 63.3363 107.028C63.9338 104.663 65.2653 102.549 67.1393 100.99" fill="#1CDBBC"/>
<path d="M225.149 78.3432C227.026 79.8904 228.359 81.9981 228.952 84.358C229.021 84.5826 229.165 84.7761 229.362 84.9047C229.558 85.0332 229.793 85.0889 230.026 85.0618C230.259 85.0347 230.475 84.9265 230.637 84.7563C230.799 84.586 230.895 84.3645 230.911 84.1302L231.799 69.9133C231.808 69.7394 231.772 69.5662 231.694 69.4106C231.616 69.2549 231.499 69.1223 231.354 69.0258C231.209 68.9292 231.042 68.872 230.868 68.8599C230.694 68.8477 230.521 68.881 230.364 68.9564L217.612 75.2445C217.407 75.3502 217.246 75.5231 217.154 75.734C217.062 75.945 217.045 76.1811 217.106 76.4029C217.168 76.6247 217.304 76.8186 217.491 76.9521C217.679 77.0855 217.906 77.1503 218.136 77.1356C220.542 76.7876 222.997 77.2103 225.149 78.3432Z" fill="#1CDBBC"/>
<path d="M196.866 78.3432C198.739 79.8986 200.077 82.0021 200.692 84.358C200.77 84.5695 200.916 84.7487 201.108 84.8667C201.3 84.9846 201.526 85.0344 201.75 85.0081C201.973 84.9818 202.182 84.8809 202.341 84.7217C202.5 84.5624 202.601 84.354 202.628 84.1302L203.516 69.9133C203.525 69.7394 203.489 69.5662 203.411 69.4106C203.333 69.2549 203.216 69.1223 203.071 69.0258C202.926 68.9292 202.759 68.872 202.585 68.8599C202.412 68.8477 202.238 68.881 202.081 68.9564L189.329 75.2446C189.125 75.3502 188.963 75.5231 188.871 75.734C188.779 75.945 188.762 76.1811 188.824 76.4029C188.885 76.6247 189.021 76.8186 189.208 76.9521C189.396 77.0855 189.623 77.1503 189.853 77.1356C192.26 76.786 194.715 77.2088 196.866 78.3432Z" fill="#1CDBBC"/>
<path d="M168.675 78.3432C170.552 79.8904 171.885 81.9981 172.478 84.358C172.555 84.5695 172.702 84.7487 172.894 84.8667C173.086 84.9846 173.312 85.0344 173.535 85.0081C173.759 84.9818 173.967 84.8809 174.127 84.7217C174.286 84.5624 174.387 84.354 174.413 84.1302L175.324 69.9133C175.333 69.7394 175.297 69.5662 175.219 69.4106C175.141 69.2549 175.024 69.1223 174.879 69.0258C174.735 68.9292 174.567 68.872 174.394 68.8599C174.22 68.8477 174.046 68.881 173.889 68.9564L161.115 75.2446C160.91 75.3502 160.749 75.5231 160.657 75.734C160.565 75.945 160.548 76.1811 160.609 76.4029C160.671 76.6247 160.806 76.8186 160.994 76.9521C161.181 77.0855 161.409 77.1503 161.638 77.1356C164.052 76.789 166.514 77.2115 168.675 78.3432" fill="#1CDBBC"/>
<path d="M80.2559 78.3432C82.4078 77.2103 84.8627 76.7876 87.2694 77.1356C87.4989 77.1503 87.7266 77.0855 87.914 76.9521C88.1014 76.8186 88.2373 76.6247 88.2987 76.4029C88.3601 76.1811 88.3435 75.945 88.2514 75.734C88.1594 75.5231 87.9977 75.3502 87.7933 75.2445L75.0411 68.9564C74.8843 68.881 74.7107 68.8477 74.5372 68.8599C74.3636 68.872 74.196 68.9292 74.0513 69.0258C73.9065 69.1223 73.7896 69.2549 73.7116 69.4106C73.6336 69.5662 73.5973 69.7394 73.6065 69.9133L74.4946 84.1302C74.5097 84.3645 74.6066 84.586 74.7682 84.7563C74.9297 84.9265 75.1458 85.0347 75.3789 85.0618C75.6119 85.0889 75.8472 85.0332 76.0435 84.9047C76.2398 84.7761 76.3846 84.5826 76.4529 84.358C77.046 81.9981 78.3787 79.8904 80.2559 78.3432" fill="#1CDBBC"/>
<path d="M52.0862 78.3432C54.2468 77.2115 56.7085 76.789 59.1225 77.1356C59.3521 77.1503 59.5797 77.0855 59.7671 76.9521C59.9546 76.8186 60.0904 76.6247 60.1518 76.4029C60.2133 76.1811 60.1966 75.945 60.1046 75.734C60.0125 75.5231 59.8506 75.3502 59.6462 75.2446L46.8715 68.9564C46.7147 68.881 46.5411 68.8477 46.3675 68.8599C46.194 68.872 46.0264 68.9292 45.8816 69.0258C45.7369 69.1223 45.6199 69.2549 45.5419 69.4106C45.464 69.5662 45.4276 69.7394 45.4369 69.9133L46.3478 84.1302C46.3742 84.354 46.4754 84.5624 46.6346 84.7217C46.7939 84.8809 47.0022 84.9818 47.2259 85.0081C47.4496 85.0344 47.6756 84.9846 47.8675 84.8667C48.0593 84.7487 48.2057 84.5695 48.2833 84.358C48.8763 81.9981 50.2091 79.8904 52.0862 78.3432Z" fill="#1CDBBC"/>
<path d="M108.447 78.3433C110.607 77.2116 113.069 76.789 115.483 77.1357C115.713 77.1503 115.94 77.0855 116.128 76.9521C116.315 76.8187 116.451 76.6248 116.512 76.403C116.574 76.1812 116.557 75.945 116.465 75.7341C116.373 75.5232 116.211 75.3503 116.007 75.2446L103.255 68.9564C103.097 68.8755 102.921 68.8377 102.744 68.8471C102.567 68.8566 102.396 68.9128 102.248 69.0101C102.1 69.1074 101.98 69.2422 101.901 69.4009C101.822 69.5595 101.786 69.7364 101.797 69.9133L102.708 84.1303C102.735 84.354 102.836 84.5624 102.995 84.7217C103.155 84.881 103.363 84.9818 103.586 85.0082C103.81 85.0345 104.036 84.9847 104.228 84.8667C104.42 84.7488 104.566 84.5696 104.644 84.358C105.26 82.0081 106.588 79.9069 108.447 78.3433" fill="#1CDBBC"/>
<path d="M240.178 55.6734C242.052 57.2329 243.383 59.3467 243.981 61.711C244.06 61.9231 244.208 62.1022 244.402 62.219C244.596 62.3359 244.824 62.3837 245.048 62.3546C245.272 62.3255 245.48 62.2213 245.638 62.059C245.796 61.8966 245.894 61.6857 245.916 61.4604L246.827 47.2663C246.836 47.0924 246.8 46.9192 246.722 46.7636C246.644 46.608 246.527 46.4754 246.382 46.3788C246.238 46.2822 246.07 46.2251 245.897 46.2129C245.723 46.2007 245.549 46.234 245.393 46.3094L232.641 52.5976C232.439 52.7027 232.278 52.8736 232.186 53.0819C232.094 53.2902 232.076 53.5237 232.134 53.7438C232.193 53.964 232.324 54.1576 232.508 54.293C232.691 54.4284 232.914 54.4974 233.142 54.4887C235.553 54.135 238.015 54.5495 240.178 55.6734" fill="#1CDBBC"/>
<path d="M211.963 55.6735C213.836 57.2329 215.168 59.3467 215.765 61.711C215.835 61.9366 215.982 62.1305 216.18 62.2584C216.379 62.3862 216.616 62.4399 216.85 62.4099C217.084 62.38 217.3 62.2682 217.46 62.0946C217.62 61.9209 217.713 61.6963 217.724 61.4604L218.612 47.2663C218.621 47.0924 218.585 46.9192 218.507 46.7636C218.429 46.608 218.312 46.4754 218.167 46.3788C218.022 46.2822 217.855 46.2251 217.682 46.2129C217.508 46.2007 217.334 46.234 217.177 46.3094L204.425 52.5976C204.221 52.7032 204.059 52.8761 203.967 53.0871C203.875 53.298 203.858 53.5341 203.92 53.7559C203.981 53.9777 204.117 54.1717 204.304 54.3051C204.492 54.4385 204.719 54.5033 204.949 54.4887C207.353 54.1336 209.808 54.5484 211.963 55.6735" fill="#1CDBBC"/>
<path d="M183.774 55.6734C185.648 57.2329 186.98 59.3467 187.577 61.711C187.657 61.9231 187.805 62.1022 187.999 62.219C188.193 62.3359 188.42 62.3837 188.645 62.3546C188.869 62.3255 189.077 62.2213 189.235 62.059C189.392 61.8966 189.49 61.6857 189.513 61.4604L190.424 47.2663C190.433 47.0924 190.397 46.9192 190.319 46.7636C190.241 46.608 190.124 46.4754 189.979 46.3788C189.834 46.2822 189.667 46.2251 189.493 46.2129C189.32 46.2007 189.146 46.234 188.989 46.3094L176.214 52.5976C176.01 52.7032 175.848 52.8761 175.756 53.0871C175.664 53.298 175.647 53.5341 175.709 53.7559C175.77 53.9777 175.906 54.1717 176.094 54.3051C176.281 54.4385 176.509 54.5033 176.738 54.4887C179.15 54.135 181.611 54.5495 183.774 55.6734" fill="#1CDBBC"/>
<path d="M65.1563 55.6735C67.3108 54.5484 69.7655 54.1336 72.1698 54.4887C72.3993 54.5033 72.627 54.4385 72.8144 54.3051C73.0018 54.1717 73.1377 53.9777 73.1991 53.7559C73.2605 53.5341 73.2439 53.298 73.1518 53.0871C73.0598 52.8761 72.8981 52.7032 72.6937 52.5976L59.9415 46.3094C59.7847 46.234 59.6111 46.2007 59.4376 46.2129C59.264 46.2251 59.0964 46.2822 58.9517 46.3788C58.8069 46.4754 58.69 46.608 58.612 46.7636C58.534 46.9192 58.4977 47.0924 58.5069 47.2663L59.395 61.4604C59.4056 61.6963 59.4993 61.9209 59.6591 62.0946C59.819 62.2682 60.0349 62.38 60.269 62.4099C60.5031 62.4399 60.7402 62.3862 60.9386 62.2584C61.137 62.1305 61.2838 61.9366 61.3534 61.711C61.9508 59.3467 63.2823 57.2329 65.1563 55.6735" fill="#1CDBBC"/>
<path d="M36.9417 55.6734C39.1048 54.5495 41.5664 54.135 43.978 54.4887C44.2076 54.5033 44.4352 54.4385 44.6226 54.3051C44.8101 54.1717 44.9459 53.9777 45.0073 53.7559C45.0688 53.5341 45.0521 53.298 44.9601 53.0871C44.868 52.8761 44.7063 52.7032 44.502 52.5976L31.7272 46.3094C31.5704 46.234 31.3966 46.2007 31.223 46.2129C31.0494 46.2251 30.8822 46.2822 30.7374 46.3788C30.5926 46.4754 30.4754 46.608 30.3974 46.7636C30.3195 46.9192 30.2834 47.0924 30.2926 47.2663L31.2033 61.4604C31.2259 61.6857 31.3241 61.8966 31.4818 62.059C31.6395 62.2213 31.8473 62.3255 32.0717 62.3546C32.296 62.3837 32.5236 62.3359 32.7174 62.219C32.9112 62.1022 33.0599 61.9231 33.1391 61.711C33.7365 59.3467 35.0678 57.2329 36.9417 55.6734" fill="#1CDBBC"/>
<path d="M93.37 55.6737C95.524 54.5471 97.9793 54.1323 100.384 54.4889C100.613 54.5035 100.841 54.4388 101.028 54.3053C101.216 54.1719 101.351 53.978 101.413 53.7562C101.474 53.5344 101.458 53.2982 101.366 53.0873C101.274 52.8764 101.112 52.7035 100.907 52.5978L88.1553 46.3096C87.9992 46.2266 87.8237 46.1873 87.6472 46.196C87.4706 46.2048 87.2995 46.2613 87.1524 46.3594C87.0053 46.4575 86.8876 46.5937 86.8116 46.7534C86.7356 46.9131 86.7041 47.0904 86.7207 47.2665L87.6088 61.4607C87.6314 61.6859 87.7297 61.8968 87.8873 62.0592C88.045 62.2215 88.2528 62.3258 88.4772 62.3548C88.7016 62.3839 88.9291 62.3361 89.1229 62.2193C89.3167 62.1024 89.4652 61.9233 89.5443 61.7113C90.1594 59.349 91.4971 57.2381 93.37 55.6737" fill="#1CDBBC"/>
<path d="M255.275 33.0263C257.149 34.5858 258.481 36.6997 259.078 39.0641C259.157 39.2761 259.306 39.4551 259.499 39.5719C259.693 39.6887 259.921 39.7365 260.145 39.7075C260.37 39.6784 260.578 39.5742 260.735 39.4118C260.893 39.2495 260.991 39.0386 261.014 38.8133L261.925 24.5964C261.934 24.4225 261.898 24.2493 261.82 24.0937C261.742 23.938 261.625 23.8054 261.48 23.7089C261.335 23.6123 261.167 23.5551 260.994 23.543C260.82 23.5308 260.647 23.5641 260.49 23.6395L247.715 29.9506C247.511 30.0563 247.349 30.229 247.257 30.44C247.165 30.6509 247.148 30.887 247.21 31.1088C247.271 31.3306 247.407 31.5246 247.594 31.658C247.782 31.7914 248.009 31.8562 248.239 31.8415C250.651 31.4719 253.117 31.8873 255.275 33.0263" fill="#1CDBBC"/>
<path d="M227.062 33.0263C228.936 34.5858 230.268 36.6997 230.865 39.0641C230.935 39.2897 231.082 39.4834 231.28 39.6113C231.478 39.7391 231.715 39.7928 231.949 39.7628C232.183 39.7329 232.4 39.6211 232.56 39.4474C232.719 39.2738 232.813 39.0492 232.823 38.8133L233.711 24.5964C233.721 24.4225 233.685 24.2493 233.607 24.0937C233.529 23.938 233.411 23.8054 233.267 23.7089C233.122 23.6123 232.955 23.5551 232.781 23.543C232.608 23.5308 232.434 23.5641 232.277 23.6395L219.525 29.9506C219.321 30.0563 219.159 30.229 219.067 30.44C218.974 30.6509 218.958 30.887 219.019 31.1088C219.081 31.3306 219.217 31.5246 219.404 31.658C219.591 31.7914 219.819 31.8562 220.049 31.8415C222.453 31.4769 224.911 31.8922 227.062 33.0263" fill="#1CDBBC"/>
<path d="M78.2744 33.0263C80.4258 31.8922 82.8836 31.4769 85.2879 31.8415C85.5174 31.8562 85.7451 31.7914 85.9325 31.658C86.1199 31.5246 86.2558 31.3306 86.3172 31.1088C86.3786 30.887 86.362 30.6509 86.27 30.44C86.1779 30.229 86.0162 30.0563 85.8119 29.9506L73.0597 23.6395C72.9028 23.5641 72.7293 23.5308 72.5557 23.543C72.3821 23.5551 72.2146 23.6123 72.0698 23.7089C71.925 23.8054 71.8081 23.938 71.7301 24.0937C71.6521 24.2493 71.6158 24.4225 71.625 24.5964L72.5132 38.8133C72.5237 39.0492 72.6174 39.2738 72.7772 39.4474C72.9371 39.6211 73.153 39.7329 73.3871 39.7628C73.6212 39.7928 73.8583 39.7391 74.0567 39.6113C74.2551 39.4834 74.4019 39.2897 74.4715 39.0641C75.0689 36.6997 76.4004 34.5858 78.2744 33.0263Z" fill="#1CDBBC"/>
<path d="M50.0601 33.0263C52.2181 31.8873 54.6847 31.4719 57.0964 31.8415C57.3239 31.8503 57.5477 31.7813 57.7307 31.6459C57.9138 31.5105 58.0452 31.3169 58.1035 31.0967C58.1618 30.8766 58.1435 30.6431 58.0515 30.4348C57.9595 30.2265 57.7995 30.0557 57.5976 29.9506L44.8454 23.6395C44.6886 23.5641 44.515 23.5308 44.3414 23.543C44.1678 23.5551 44.0003 23.6123 43.8555 23.7089C43.7107 23.8054 43.5938 23.938 43.5158 24.0937C43.4379 24.2493 43.4015 24.4225 43.4108 24.5964L44.3217 38.8133C44.3443 39.0386 44.4425 39.2495 44.6002 39.4118C44.7579 39.5742 44.9657 39.6784 45.1901 39.7075C45.4144 39.7365 45.642 39.6887 45.8358 39.5719C46.0296 39.4551 46.178 39.2761 46.2572 39.0641C46.8546 36.6997 48.1862 34.5858 50.0601 33.0263" fill="#1CDBBC"/>
<path d="M21.8456 33.0263C24.0036 31.8873 26.4704 31.4719 28.8821 31.8415C29.1117 31.8562 29.3393 31.7914 29.5267 31.658C29.7142 31.5246 29.8498 31.3306 29.9112 31.1088C29.9726 30.887 29.956 30.6509 29.8639 30.44C29.7719 30.229 29.6102 30.0563 29.4058 29.9506L16.6311 23.6395C16.4743 23.5641 16.3004 23.5308 16.1269 23.543C15.9533 23.5551 15.786 23.6123 15.6412 23.7089C15.4965 23.8054 15.3793 23.938 15.3013 24.0937C15.2233 24.2493 15.1872 24.4225 15.1965 24.5964L16.1071 38.8133C16.1297 39.0386 16.228 39.2495 16.3857 39.4118C16.5433 39.5742 16.7511 39.6784 16.9755 39.7075C17.1999 39.7365 17.4275 39.6887 17.6212 39.5719C17.815 39.4551 17.9638 39.2761 18.0429 39.0641C18.6404 36.6997 19.9716 34.5858 21.8456 33.0263" fill="#1CDBBC"/>
<path d="M198.871 33.0267C200.736 34.5934 202.066 36.7044 202.674 39.0644C202.753 39.2765 202.901 39.4555 203.095 39.5723C203.289 39.6891 203.516 39.7369 203.741 39.7079C203.965 39.6788 204.173 39.5746 204.331 39.4122C204.488 39.2499 204.586 39.039 204.609 38.8137L205.52 24.5968C205.531 24.4198 205.496 24.243 205.417 24.0843C205.338 23.9257 205.218 23.7908 205.07 23.6936C204.922 23.5963 204.75 23.5402 204.573 23.5307C204.396 23.5213 204.22 23.5589 204.063 23.6399L191.311 29.951C191.106 30.0567 190.944 30.2294 190.852 30.4403C190.76 30.6513 190.744 30.8874 190.805 31.1092C190.866 31.331 191.002 31.5249 191.19 31.6584C191.377 31.7918 191.605 31.8566 191.834 31.8419C194.246 31.4723 196.713 31.8877 198.871 33.0267" fill="#1CDBBC"/>
<path d="M270.371 10.3799C272.248 11.927 273.581 14.0349 274.174 16.3948C274.252 16.6063 274.398 16.7855 274.59 16.9034C274.782 17.0214 275.008 17.0712 275.232 17.0449C275.456 17.0185 275.664 16.9176 275.823 16.7583C275.982 16.599 276.083 16.3906 276.11 16.1668L277.021 1.94988C277.03 1.77604 276.994 1.60279 276.916 1.44717C276.838 1.29156 276.721 1.15896 276.576 1.06239C276.431 0.965831 276.264 0.908665 276.09 0.896496C275.916 0.884327 275.743 0.917584 275.586 0.993004L262.811 7.28131C262.607 7.38697 262.445 7.55974 262.353 7.77066C262.261 7.98158 262.244 8.21774 262.306 8.43954C262.367 8.66134 262.503 8.85526 262.69 8.98869C262.878 9.12212 263.105 9.1869 263.335 9.17225C265.749 8.82559 268.211 9.24813 270.371 10.3799" fill="#1CDBBC"/>
<path d="M242.158 10.3799C244.035 11.927 245.368 14.0349 245.961 16.3948C246.03 16.6193 246.175 16.8127 246.371 16.9413C246.567 17.0699 246.802 17.1255 247.035 17.0984C247.268 17.0713 247.485 16.9631 247.646 16.7929C247.808 16.6227 247.904 16.4011 247.919 16.1668L248.808 1.94988C248.817 1.77604 248.781 1.60279 248.703 1.44717C248.625 1.29156 248.508 1.15896 248.363 1.06239C248.218 0.965831 248.051 0.908665 247.877 0.896496C247.703 0.884327 247.53 0.917584 247.373 0.993004L234.621 7.28131C234.417 7.38697 234.255 7.55974 234.163 7.77066C234.071 7.98158 234.054 8.21774 234.115 8.43954C234.177 8.66134 234.313 8.85526 234.5 8.98869C234.688 9.12212 234.915 9.1869 235.145 9.17225C237.551 8.82421 240.006 9.24696 242.158 10.3799Z" fill="#1CDBBC"/>
<path d="M63.1748 10.3799C65.3268 9.24696 67.7817 8.82421 70.1883 9.17225C70.4179 9.1869 70.6455 9.12212 70.8329 8.98869C71.0204 8.85526 71.1562 8.66134 71.2176 8.43954C71.2791 8.21774 71.2624 7.98158 71.1704 7.77066C71.0783 7.55974 70.9166 7.38697 70.7123 7.28131L57.9601 0.993004C57.8033 0.917584 57.6297 0.884327 57.4561 0.896496C57.2825 0.908665 57.115 0.965831 56.9702 1.06239C56.8254 1.15896 56.7085 1.29156 56.6305 1.44717C56.5526 1.60279 56.5162 1.77604 56.5255 1.94988L57.4136 16.1668C57.4286 16.4011 57.5255 16.6227 57.6871 16.7929C57.8487 16.9631 58.0647 17.0713 58.2978 17.0984C58.5309 17.1255 58.7661 17.0699 58.9624 16.9413C59.1587 16.8127 59.3035 16.6193 59.3719 16.3948C59.9649 14.0349 61.2977 11.927 63.1748 10.3799" fill="#1CDBBC"/>
<path d="M34.9603 10.3799C37.1208 9.24813 39.5825 8.82559 41.9965 9.17225C42.2261 9.1869 42.4537 9.12212 42.6412 8.98869C42.8286 8.85526 42.9644 8.66134 43.0259 8.43954C43.0873 8.21774 43.0707 7.98158 42.9786 7.77066C42.8865 7.55974 42.7249 7.38697 42.5205 7.28131L29.7455 0.993004C29.5887 0.917584 29.4151 0.884327 29.2415 0.896496C29.068 0.908665 28.9004 0.965831 28.7557 1.06239C28.6109 1.15896 28.494 1.29156 28.416 1.44717C28.338 1.60279 28.3019 1.77604 28.3112 1.94988L29.2218 16.1668C29.2482 16.3906 29.3494 16.599 29.5087 16.7583C29.668 16.9176 29.8763 17.0185 30.0999 17.0449C30.3236 17.0712 30.5496 17.0214 30.7415 16.9034C30.9334 16.7855 31.08 16.6063 31.1576 16.3948C31.7506 14.0349 33.0831 11.927 34.9603 10.3799" fill="#1CDBBC"/>
<path d="M213.967 10.3798C215.825 11.9434 217.154 14.0447 217.77 16.3947C217.847 16.6062 217.994 16.7854 218.186 16.9034C218.378 17.0213 218.604 17.0711 218.827 17.0448C219.051 17.0185 219.259 16.9175 219.419 16.7582C219.578 16.5989 219.679 16.3905 219.705 16.1668L220.616 1.94978C220.628 1.77286 220.592 1.59601 220.513 1.43735C220.434 1.27868 220.314 1.14386 220.166 1.04659C220.018 0.949312 219.847 0.893186 219.67 0.883747C219.493 0.874309 219.316 0.911947 219.159 0.99291L206.407 7.28122C206.202 7.38688 206.04 7.55965 205.948 7.77057C205.856 7.98149 205.84 8.21765 205.901 8.43945C205.963 8.66125 206.098 8.85517 206.286 8.9886C206.473 9.12203 206.701 9.1868 206.93 9.17216C209.344 8.82549 211.806 9.24804 213.967 10.3798" fill="#1CDBBC"/>
<path d="M6.74666 10.3798C8.90722 9.24804 11.3692 8.82549 13.7832 9.17216C14.0128 9.1868 14.2404 9.12203 14.4278 8.9886C14.6153 8.85517 14.7511 8.66125 14.8126 8.43945C14.874 8.21765 14.8571 7.98149 14.765 7.77057C14.673 7.55965 14.5113 7.38688 14.3069 7.28122L1.55499 0.99291C1.39735 0.911947 1.22103 0.874309 1.04408 0.883747C0.867131 0.893186 0.695773 0.949312 0.547624 1.04659C0.399476 1.14386 0.279788 1.27868 0.200716 1.43735C0.121644 1.59601 0.0860883 1.77286 0.0975888 1.94978L1.00822 16.1668C1.03466 16.3905 1.1358 16.5989 1.29509 16.7582C1.45437 16.9175 1.66267 17.0185 1.88633 17.0448C2.10999 17.0711 2.33601 17.0213 2.52789 16.9034C2.71978 16.7854 2.8664 16.6062 2.94402 16.3947C3.56003 14.0447 4.88836 11.9434 6.74666 10.3798" fill="#1CDBBC"/>
</g>
<defs>
<clipPath id="clip0_1723_4790">
<rect width="276.923" height="318.242" fill="white" transform="translate(0.0989075 0.878906)"/>
</clipPath>
</defs>
</svg>
