<svg width="390" height="78" viewBox="0 0 390 78" fill="none" xmlns="http://www.w3.org/2000/svg">
<g clip-path="url(#clip0_881_23187)">
<path d="M127.926 54.2665C127.926 55.2451 127.409 56.3061 126.794 57.2182C126.53 57.6109 126.922 58.1398 127.292 57.8896L132.093 54.656C132.351 54.4818 132.351 54.0479 132.093 53.8738L127.292 50.6402C126.922 50.39 126.527 50.9189 126.794 51.3116C127.409 52.2237 127.926 53.2847 127.926 54.2633" fill="#1CDBBC"/>
<path d="M139.087 54.2665C139.087 55.2451 138.57 56.3061 137.955 57.2182C137.691 57.6109 138.083 58.1398 138.453 57.8896L143.254 54.656C143.512 54.4818 143.512 54.0479 143.254 53.8738L138.453 50.6402C138.083 50.39 137.688 50.9189 137.955 51.3116C138.57 52.2237 139.087 53.2847 139.087 54.2633" fill="#1CDBBC"/>
<path opacity="0.3" d="M150.248 54.2665C150.248 55.2451 149.731 56.3061 149.116 57.2182C148.852 57.6109 149.244 58.1398 149.614 57.8896L154.415 54.656C154.674 54.4818 154.674 54.0479 154.415 53.8738L149.614 50.6402C149.244 50.39 148.85 50.9189 149.116 51.3116C149.731 52.2237 150.248 53.2847 150.248 54.2633" fill="#1CDBBC"/>
<path d="M161.41 54.2665C161.41 55.2451 160.892 56.3061 160.277 57.2182C160.013 57.6109 160.405 58.1398 160.775 57.8896L165.576 54.656C165.835 54.4818 165.835 54.0479 165.576 53.8738L160.775 50.6402C160.405 50.39 160.011 50.9189 160.277 51.3116C160.892 52.2237 161.41 53.2847 161.41 54.2633" fill="#1CDBBC"/>
<path opacity="0.5" d="M172.571 54.2665C172.571 55.2451 172.054 56.3061 171.438 57.2182C171.175 57.6109 171.566 58.1398 171.937 57.8896L176.737 54.656C176.996 54.4818 176.996 54.0479 176.737 53.8738L171.937 50.6402C171.566 50.39 171.172 50.9189 171.438 51.3116C172.054 52.2237 172.571 53.2847 172.571 54.2633" fill="#1CDBBC"/>
<path d="M183.732 54.2665C183.732 55.2451 183.215 56.3061 182.6 57.2182C182.336 57.6109 182.728 58.1398 183.098 57.8896L187.898 54.656C188.157 54.4818 188.157 54.0479 187.898 53.8738L183.098 50.6402C182.728 50.39 182.333 50.9189 182.6 51.3116C183.215 52.2237 183.732 53.2847 183.732 54.2633" fill="#1CDBBC"/>
<path d="M189.317 64.2584C189.317 65.237 188.8 66.298 188.185 67.2101C187.921 67.6029 188.312 68.1318 188.683 67.8816L193.483 64.648C193.742 64.4738 193.742 64.0399 193.483 63.8657L188.683 60.6321C188.312 60.3819 187.918 60.9108 188.185 61.3035C188.8 62.2156 189.317 63.2766 189.317 64.2553" fill="#1CDBBC"/>
<path d="M127.926 74.2506C127.926 75.2292 127.409 76.2902 126.794 77.2023C126.53 77.595 126.922 78.124 127.292 77.8738L132.093 74.6402C132.351 74.466 132.351 74.0321 132.093 73.8579L127.292 70.6243C126.922 70.3741 126.527 70.903 126.794 71.2957C127.409 72.2078 127.926 73.2688 127.926 74.2474" fill="#1CDBBC"/>
<path opacity="0.3" d="M139.087 74.2506C139.087 75.2292 138.57 76.2902 137.955 77.2023C137.691 77.595 138.083 78.124 138.453 77.8738L143.254 74.6402C143.512 74.466 143.512 74.0321 143.254 73.8579L138.453 70.6243C138.083 70.3741 137.688 70.903 137.955 71.2957C138.57 72.2078 139.087 73.2688 139.087 74.2474" fill="#1CDBBC"/>
<path d="M161.41 74.2506C161.41 75.2292 160.892 76.2902 160.277 77.2023C160.013 77.595 160.405 78.124 160.775 77.8738L165.576 74.6402C165.835 74.466 165.835 74.0321 165.576 73.8579L160.775 70.6243C160.405 70.3741 160.011 70.903 160.277 71.2957C160.892 72.2078 161.41 73.2688 161.41 74.2474" fill="#1CDBBC"/>
<path opacity="0.3" d="M183.732 74.2506C183.732 75.2292 183.215 76.2902 182.6 77.2023C182.336 77.595 182.728 78.124 183.098 77.8738L187.898 74.6402C188.157 74.466 188.157 74.0321 187.898 73.8579L183.098 70.6243C182.728 70.3741 182.333 70.903 182.6 71.2957C183.215 72.2078 183.732 73.2688 183.732 74.2474" fill="#1CDBBC"/>
<path d="M217.218 54.2665C217.218 55.2451 216.701 56.3061 216.085 57.2182C215.821 57.6109 216.213 58.1398 216.584 57.8896L221.384 54.656C221.643 54.4818 221.643 54.0479 221.384 53.8738L216.584 50.6402C216.213 50.39 215.819 50.9189 216.085 51.3116C216.701 52.2237 217.218 53.2847 217.218 54.2633" fill="#1CDBBC"/>
<path opacity="0.3" d="M228.379 54.2665C228.379 55.2451 227.862 56.3061 227.247 57.2182C226.983 57.6109 227.375 58.1398 227.745 57.8896L232.545 54.656C232.804 54.4818 232.804 54.0479 232.545 53.8738L227.745 50.6402C227.375 50.39 226.98 50.9189 227.247 51.3116C227.862 52.2237 228.379 53.2847 228.379 54.2633" fill="#1CDBBC"/>
<path d="M239.54 54.2665C239.54 55.2451 239.023 56.3061 238.408 57.2182C238.144 57.6109 238.536 58.1398 238.906 57.8896L243.707 54.656C243.965 54.4818 243.965 54.0479 243.707 53.8738L238.906 50.6402C238.536 50.39 238.141 50.9189 238.408 51.3116C239.023 52.2237 239.54 53.2847 239.54 54.2633" fill="#1CDBBC"/>
<path d="M250.697 54.2665C250.697 55.2451 250.18 56.3061 249.565 57.2182C249.301 57.6109 249.693 58.1398 250.063 57.8896L254.864 54.656C255.122 54.4818 255.122 54.0479 254.864 53.8738L250.063 50.6402C249.693 50.39 249.298 50.9189 249.565 51.3116C250.18 52.2237 250.697 53.2847 250.697 54.2633" fill="#1CDBBC"/>
<path d="M200.48 64.2584C200.48 65.237 199.963 66.298 199.348 67.2101C199.084 67.6029 199.476 68.1318 199.846 67.8816L204.647 64.648C204.905 64.4738 204.905 64.0399 204.647 63.8657L199.846 60.6321C199.476 60.3819 199.081 60.9108 199.348 61.3035C199.963 62.2156 200.48 63.2766 200.48 64.2553" fill="#1CDBBC"/>
<path d="M211.639 64.2584C211.639 65.237 211.122 66.298 210.507 67.2101C210.243 67.6029 210.635 68.1318 211.005 67.8816L215.806 64.648C216.064 64.4738 216.064 64.0399 215.806 63.8657L211.005 60.6321C210.635 60.3819 210.24 60.9108 210.507 61.3035C211.122 62.2156 211.639 63.2766 211.639 64.2553" fill="#1CDBBC"/>
<path d="M222.798 64.2584C222.798 65.237 222.281 66.298 221.666 67.2101C221.402 67.6029 221.794 68.1318 222.164 67.8816L226.965 64.648C227.223 64.4738 227.223 64.0399 226.965 63.8657L222.164 60.6321C221.794 60.3819 221.399 60.9108 221.666 61.3035C222.281 62.2156 222.798 63.2766 222.798 64.2553" fill="#1CDBBC"/>
<path opacity="0.3" d="M122.349 44.3597C122.349 45.3383 121.832 46.3993 121.217 47.3114C120.953 47.7042 121.345 48.2331 121.715 47.9829L126.516 44.7493C126.775 44.5751 126.775 44.1412 126.516 43.967L121.715 40.7334C121.345 40.4832 120.951 41.0121 121.217 41.4048C121.832 42.3169 122.349 43.3779 122.349 44.3565" fill="#1CDBBC"/>
<path d="M133.511 44.3597C133.511 45.3383 132.994 46.3993 132.378 47.3114C132.114 47.7042 132.506 48.2331 132.876 47.9829L137.677 44.7493C137.936 44.5751 137.936 44.1412 137.677 43.967L132.876 40.7334C132.506 40.4832 132.112 41.0121 132.378 41.4048C132.994 42.3169 133.511 43.3779 133.511 44.3565" fill="#1CDBBC"/>
<path d="M233.96 64.2584C233.96 65.237 233.442 66.298 232.827 67.2101C232.563 67.6029 232.955 68.1318 233.325 67.8816L238.126 64.648C238.385 64.4738 238.385 64.0399 238.126 63.8657L233.325 60.6321C232.955 60.3819 232.561 60.9108 232.827 61.3035C233.442 62.2156 233.96 63.2766 233.96 64.2553" fill="#1CDBBC"/>
<path d="M245.121 64.2584C245.121 65.237 244.604 66.298 243.989 67.2101C243.725 67.6029 244.116 68.1318 244.487 67.8816L249.287 64.648C249.546 64.4738 249.546 64.0399 249.287 63.8657L244.487 60.6321C244.116 60.3819 243.722 60.9108 243.989 61.3035C244.604 62.2156 245.121 63.2766 245.121 64.2553" fill="#1CDBBC"/>
<path d="M144.672 44.3597C144.672 45.3383 144.155 46.3993 143.54 47.3114C143.276 47.7042 143.667 48.2331 144.038 47.9829L148.838 44.7493C149.097 44.5751 149.097 44.1412 148.838 43.967L144.038 40.7334C143.667 40.4832 143.273 41.0121 143.54 41.4048C144.155 42.3169 144.672 43.3779 144.672 44.3565" fill="#1CDBBC"/>
<path d="M155.833 44.3597C155.833 45.3383 155.316 46.3993 154.701 47.3114C154.437 47.7042 154.829 48.2331 155.199 47.9829L160 44.7493C160.258 44.5751 160.258 44.1412 160 43.967L155.199 40.7334C154.829 40.4832 154.434 41.0121 154.701 41.4048C155.316 42.3169 155.833 43.3779 155.833 44.3565" fill="#1CDBBC"/>
<path opacity="0.3" d="M166.994 44.3597C166.994 45.3383 166.477 46.3993 165.862 47.3114C165.598 47.7042 165.99 48.2331 166.36 47.9829L171.161 44.7493C171.419 44.5751 171.419 44.1412 171.161 43.967L166.36 40.7334C165.99 40.4832 165.595 41.0121 165.862 41.4048C166.477 42.3169 166.994 43.3779 166.994 44.3565" fill="#1CDBBC"/>
<path d="M178.155 44.3597C178.155 45.3383 177.638 46.3993 177.023 47.3114C176.759 47.7042 177.151 48.2331 177.521 47.9829L182.322 44.7493C182.581 44.5751 182.581 44.1412 182.322 43.967L177.521 40.7334C177.151 40.4832 176.757 41.0121 177.023 41.4048C177.638 42.3169 178.155 43.3779 178.155 44.3565" fill="#1CDBBC"/>
<path d="M189.317 44.3597C189.317 45.3383 188.8 46.3993 188.185 47.3114C187.921 47.7042 188.312 48.2331 188.683 47.9829L193.483 44.7493C193.742 44.5751 193.742 44.1412 193.483 43.967L188.683 40.7334C188.312 40.4832 187.918 41.0121 188.185 41.4048C188.8 42.3169 189.317 43.3779 189.317 44.3565" fill="#1CDBBC"/>
<path d="M200.48 44.3597C200.48 45.3383 199.963 46.3993 199.348 47.3114C199.084 47.7042 199.476 48.2331 199.846 47.9829L204.647 44.7493C204.905 44.5751 204.905 44.1412 204.647 43.967L199.846 40.7334C199.476 40.4832 199.081 41.0121 199.348 41.4048C199.963 42.3169 200.48 43.3779 200.48 44.3565" fill="#1CDBBC"/>
<path d="M211.639 44.3597C211.639 45.3383 211.122 46.3993 210.507 47.3114C210.243 47.7042 210.635 48.2331 211.005 47.9829L215.806 44.7493C216.064 44.5751 216.064 44.1412 215.806 43.967L211.005 40.7334C210.635 40.4832 210.24 41.0121 210.507 41.4048C211.122 42.3169 211.639 43.3779 211.639 44.3565" fill="#1CDBBC"/>
<path opacity="0.3" d="M222.798 44.3597C222.798 45.3383 222.281 46.3993 221.666 47.3114C221.402 47.7042 221.794 48.2331 222.164 47.9829L226.965 44.7493C227.223 44.5751 227.223 44.1412 226.965 43.967L222.164 40.7334C221.794 40.4832 221.399 41.0121 221.666 41.4048C222.281 42.3169 222.798 43.3779 222.798 44.3565" fill="#1CDBBC"/>
<path d="M233.96 44.3597C233.96 45.3383 233.442 46.3993 232.827 47.3114C232.563 47.7042 232.955 48.2331 233.325 47.9829L238.126 44.7493C238.385 44.5751 238.385 44.1412 238.126 43.967L233.325 40.7334C232.955 40.4832 232.561 41.0121 232.827 41.4048C233.442 42.3169 233.96 43.3779 233.96 44.3565" fill="#1CDBBC"/>
<path d="M245.121 44.3597C245.121 45.3383 244.604 46.3993 243.989 47.3114C243.725 47.7042 244.116 48.2331 244.487 47.9829L249.287 44.7493C249.546 44.5751 249.546 44.1412 249.287 43.967L244.487 40.7334C244.116 40.4832 243.722 41.0121 243.989 41.4048C244.604 42.3169 245.121 43.3779 245.121 44.3565" fill="#1CDBBC"/>
<path d="M217.218 74.2506C217.218 75.2292 216.701 76.2902 216.085 77.2023C215.821 77.595 216.213 78.124 216.584 77.8738L221.384 74.6402C221.643 74.466 221.643 74.0321 221.384 73.8579L216.584 70.6243C216.213 70.3741 215.819 70.903 216.085 71.2957C216.701 72.2078 217.218 73.2688 217.218 74.2474" fill="#1CDBBC"/>
<path opacity="0.5" d="M228.379 74.2506C228.379 75.2292 227.862 76.2902 227.247 77.2023C226.983 77.595 227.375 78.124 227.745 77.8738L232.545 74.6402C232.804 74.466 232.804 74.0321 232.545 73.8579L227.745 70.6243C227.375 70.3741 226.98 70.903 227.247 71.2957C227.862 72.2078 228.379 73.2688 228.379 74.2474" fill="#1CDBBC"/>
<path d="M239.54 74.2506C239.54 75.2292 239.023 76.2902 238.408 77.2023C238.144 77.595 238.536 78.124 238.906 77.8738L243.707 74.6402C243.965 74.466 243.965 74.0321 243.707 73.8579L238.906 70.6243C238.536 70.3741 238.141 70.903 238.408 71.2957C239.023 72.2078 239.54 73.2688 239.54 74.2474" fill="#1CDBBC"/>
<path d="M250.697 74.2506C250.697 75.2292 250.18 76.2902 249.565 77.2023C249.301 77.595 249.693 78.124 250.063 77.8738L254.864 74.6402C255.122 74.466 255.122 74.0321 254.864 73.8579L250.063 70.6243C249.693 70.3741 249.298 70.903 249.565 71.2957C250.18 72.2078 250.697 73.2688 250.697 74.2474" fill="#1CDBBC"/>
<path d="M261.858 54.2665C261.858 55.2451 261.341 56.3061 260.726 57.2182C260.462 57.6109 260.854 58.1398 261.224 57.8896L266.025 54.656C266.283 54.4818 266.283 54.0479 266.025 53.8738L261.224 50.6402C260.854 50.39 260.459 50.9189 260.726 51.3116C261.341 52.2237 261.858 53.2847 261.858 54.2633" fill="#1CDBBC"/>
<path d="M273.02 54.2665C273.02 55.2451 272.503 56.3061 271.887 57.2182C271.623 57.6109 272.015 58.1398 272.386 57.8896L277.186 54.656C277.445 54.4818 277.445 54.0479 277.186 53.8738L272.386 50.6402C272.015 50.39 271.621 50.9189 271.887 51.3116C272.503 52.2237 273.02 53.2847 273.02 54.2633" fill="#1CDBBC"/>
<path d="M284.181 54.2665C284.181 55.2451 283.664 56.3061 283.049 57.2182C282.785 57.6109 283.177 58.1398 283.547 57.8896L288.348 54.656C288.606 54.4818 288.606 54.0479 288.348 53.8738L283.547 50.6402C283.177 50.39 282.782 50.9189 283.049 51.3116C283.664 52.2237 284.181 53.2847 284.181 54.2633" fill="#1CDBBC"/>
<path d="M295.342 54.2665C295.342 55.2451 294.825 56.3061 294.21 57.2182C293.946 57.6109 294.338 58.1398 294.708 57.8896L299.509 54.656C299.767 54.4818 299.767 54.0479 299.509 53.8738L294.708 50.6402C294.338 50.39 293.943 50.9189 294.21 51.3116C294.825 52.2237 295.342 53.2847 295.342 54.2633" fill="#1CDBBC"/>
<path opacity="0.5" d="M306.503 54.2665C306.503 55.2451 305.986 56.3061 305.371 57.2182C305.107 57.6109 305.499 58.1398 305.869 57.8896L310.67 54.656C310.928 54.4818 310.928 54.0479 310.67 53.8738L305.869 50.6402C305.499 50.39 305.104 50.9189 305.371 51.3116C305.986 52.2237 306.503 53.2847 306.503 54.2633" fill="#1CDBBC"/>
<path d="M256.282 64.2584C256.282 65.237 255.765 66.298 255.15 67.2101C254.886 67.6029 255.278 68.1318 255.648 67.8816L260.449 64.648C260.707 64.4738 260.707 64.0399 260.449 63.8657L255.648 60.6321C255.278 60.3819 254.883 60.9108 255.15 61.3035C255.765 62.2156 256.282 63.2766 256.282 64.2553" fill="#1CDBBC"/>
<path d="M267.443 64.2584C267.443 65.237 266.926 66.298 266.311 67.2101C266.047 67.6029 266.439 68.1318 266.809 67.8816L271.61 64.648C271.868 64.4738 271.868 64.0399 271.61 63.8657L266.809 60.6321C266.439 60.3819 266.044 60.9108 266.311 61.3035C266.926 62.2156 267.443 63.2766 267.443 64.2553" fill="#1CDBBC"/>
<path d="M300.927 64.2584C300.927 65.237 300.41 66.298 299.795 67.2101C299.531 67.6029 299.923 68.1318 300.293 67.8816L305.094 64.648C305.352 64.4738 305.352 64.0399 305.094 63.8657L300.293 60.6321C299.923 60.3819 299.528 60.9108 299.795 61.3035C300.41 62.2156 300.927 63.2766 300.927 64.2553" fill="#1CDBBC"/>
<path d="M312.088 64.2584C312.088 65.237 311.571 66.298 310.956 67.2101C310.692 67.6029 311.084 68.1318 311.454 67.8816L316.255 64.648C316.513 64.4738 316.513 64.0399 316.255 63.8657L311.454 60.6321C311.084 60.3819 310.689 60.9108 310.956 61.3035C311.571 62.2156 312.088 63.2766 312.088 64.2553" fill="#1CDBBC"/>
<path d="M261.858 74.2506C261.858 75.2292 261.341 76.2902 260.726 77.2023C260.462 77.595 260.854 78.124 261.224 77.8738L266.025 74.6402C266.283 74.466 266.283 74.0321 266.025 73.8579L261.224 70.6243C260.854 70.3741 260.459 70.903 260.726 71.2957C261.341 72.2078 261.858 73.2688 261.858 74.2474" fill="#1CDBBC"/>
<path d="M273.02 74.2506C273.02 75.2292 272.503 76.2902 271.887 77.2023C271.623 77.595 272.015 78.124 272.386 77.8738L277.186 74.6402C277.445 74.466 277.445 74.0321 277.186 73.8579L272.386 70.6243C272.015 70.3741 271.621 70.903 271.887 71.2957C272.503 72.2078 273.02 73.2688 273.02 74.2474" fill="#1CDBBC"/>
<path d="M284.181 74.2506C284.181 75.2292 283.664 76.2902 283.049 77.2023C282.785 77.595 283.177 78.124 283.547 77.8738L288.348 74.6402C288.606 74.466 288.606 74.0321 288.348 73.8579L283.547 70.6243C283.177 70.3741 282.782 70.903 283.049 71.2957C283.664 72.2078 284.181 73.2688 284.181 74.2474" fill="#1CDBBC"/>
<path d="M295.342 74.2506C295.342 75.2292 294.825 76.2902 294.21 77.2023C293.946 77.595 294.338 78.124 294.708 77.8738L299.509 74.6402C299.767 74.466 299.767 74.0321 299.509 73.8579L294.708 70.6243C294.338 70.3741 293.943 70.903 294.21 71.2957C294.825 72.2078 295.342 73.2688 295.342 74.2474" fill="#1CDBBC"/>
<path opacity="0.5" d="M306.503 74.2506C306.503 75.2292 305.986 76.2902 305.371 77.2023C305.107 77.595 305.499 78.124 305.869 77.8738L310.67 74.6402C310.928 74.466 310.928 74.0321 310.67 73.8579L305.869 70.6243C305.499 70.3741 305.104 70.903 305.371 71.2957C305.986 72.2078 306.503 73.2688 306.503 74.2474" fill="#1CDBBC"/>
<path d="M317.667 54.2665C317.667 55.2451 317.15 56.3061 316.534 57.2182C316.27 57.6109 316.662 58.1398 317.032 57.8896L321.833 54.656C322.092 54.4818 322.092 54.0479 321.833 53.8738L317.032 50.6402C316.662 50.39 316.268 50.9189 316.534 51.3116C317.15 52.2237 317.667 53.2847 317.667 54.2633" fill="#1CDBBC"/>
<path opacity="0.5" d="M328.828 54.2665C328.828 55.2451 328.311 56.3061 327.696 57.2182C327.432 57.6109 327.823 58.1398 328.194 57.8896L332.994 54.656C333.253 54.4818 333.253 54.0479 332.994 53.8738L328.194 50.6402C327.823 50.39 327.429 50.9189 327.696 51.3116C328.311 52.2237 328.828 53.2847 328.828 54.2633" fill="#1CDBBC"/>
<path opacity="0.5" d="M339.989 54.2665C339.989 55.2451 339.472 56.3061 338.857 57.2182C338.593 57.6109 338.985 58.1398 339.355 57.8896L344.156 54.656C344.414 54.4818 344.414 54.0479 344.156 53.8738L339.355 50.6402C338.985 50.39 338.59 50.9189 338.857 51.3116C339.472 52.2237 339.989 53.2847 339.989 54.2633" fill="#1CDBBC"/>
<path d="M351.15 54.2665C351.15 55.2451 350.633 56.3061 350.018 57.2182C349.754 57.6109 350.146 58.1398 350.516 57.8896L355.317 54.656C355.575 54.4818 355.575 54.0479 355.317 53.8738L350.516 50.6402C350.146 50.39 349.751 50.9189 350.018 51.3116C350.633 52.2237 351.15 53.2847 351.15 54.2633" fill="#1CDBBC"/>
<path d="M362.309 54.2665C362.309 55.2451 361.792 56.3061 361.177 57.2182C360.913 57.6109 361.305 58.1398 361.675 57.8896L366.476 54.656C366.735 54.4818 366.735 54.0479 366.476 53.8738L361.675 50.6402C361.305 50.39 360.911 50.9189 361.177 51.3116C361.792 52.2237 362.309 53.2847 362.309 54.2633" fill="#1CDBBC"/>
<path d="M373.471 54.2665C373.471 55.2451 372.953 56.3061 372.338 57.2182C372.074 57.6109 372.466 58.1398 372.836 57.8896L377.637 54.656C377.896 54.4818 377.896 54.0479 377.637 53.8738L372.836 50.6402C372.466 50.39 372.072 50.9189 372.338 51.3116C372.953 52.2237 373.471 53.2847 373.471 54.2633" fill="#1CDBBC"/>
<path d="M323.251 64.2584C323.251 65.237 322.734 66.298 322.119 67.2101C321.855 67.6029 322.247 68.1318 322.617 67.8816L327.418 64.648C327.677 64.4738 327.677 64.0399 327.418 63.8657L322.617 60.6321C322.247 60.3819 321.852 60.9108 322.119 61.3035C322.734 62.2156 323.251 63.2766 323.251 64.2553" fill="#1CDBBC"/>
<path d="M334.412 64.2584C334.412 65.237 333.895 66.298 333.28 67.2101C333.016 67.6029 333.408 68.1318 333.778 67.8816L338.579 64.648C338.838 64.4738 338.838 64.0399 338.579 63.8657L333.778 60.6321C333.408 60.3819 333.014 60.9108 333.28 61.3035C333.895 62.2156 334.412 63.2766 334.412 64.2553" fill="#1CDBBC"/>
<path d="M256.282 44.3597C256.282 45.3383 255.765 46.3993 255.15 47.3114C254.886 47.7042 255.278 48.2331 255.648 47.9829L260.449 44.7493C260.707 44.5751 260.707 44.1412 260.449 43.967L255.648 40.7334C255.278 40.4832 254.883 41.0121 255.15 41.4048C255.765 42.3169 256.282 43.3779 256.282 44.3565" fill="#1CDBBC"/>
<path d="M300.927 44.3597C300.927 45.3383 300.41 46.3993 299.795 47.3114C299.531 47.7042 299.923 48.2331 300.293 47.9829L305.094 44.7493C305.352 44.5751 305.352 44.1412 305.094 43.967L300.293 40.7334C299.923 40.4832 299.528 41.0121 299.795 41.4048C300.41 42.3169 300.927 43.3779 300.927 44.3565" fill="#1CDBBC"/>
<path d="M312.088 44.3597C312.088 45.3383 311.571 46.3993 310.956 47.3114C310.692 47.7042 311.084 48.2331 311.454 47.9829L316.255 44.7493C316.513 44.5751 316.513 44.1412 316.255 43.967L311.454 40.7334C311.084 40.4832 310.689 41.0121 310.956 41.4048C311.571 42.3169 312.088 43.3779 312.088 44.3565" fill="#1CDBBC"/>
<path d="M323.251 44.3597C323.251 45.3383 322.734 46.3993 322.119 47.3114C321.855 47.7042 322.247 48.2331 322.617 47.9829L327.418 44.7493C327.677 44.5751 327.677 44.1412 327.418 43.967L322.617 40.7334C322.247 40.4832 321.852 41.0121 322.119 41.4048C322.734 42.3169 323.251 43.3779 323.251 44.3565" fill="#1CDBBC"/>
<path d="M334.412 44.3597C334.412 45.3383 333.895 46.3993 333.28 47.3114C333.016 47.7042 333.408 48.2331 333.778 47.9829L338.579 44.7493C338.838 44.5751 338.838 44.1412 338.579 43.967L333.778 40.7334C333.408 40.4832 333.014 41.0121 333.28 41.4048C333.895 42.3169 334.412 43.3779 334.412 44.3565" fill="#1CDBBC"/>
<path d="M116.766 34.3675C116.766 35.3461 116.248 36.4071 115.633 37.3192C115.369 37.712 115.761 38.2409 116.131 37.9907L120.932 34.7571C121.191 34.5829 121.191 34.149 120.932 33.9748L116.134 30.7412C115.764 30.491 115.369 31.0199 115.636 31.4126C116.251 32.3247 116.768 33.3857 116.768 34.3644" fill="#1CDBBC"/>
<path opacity="0.3" d="M127.926 34.3675C127.926 35.3461 127.409 36.4071 126.794 37.3192C126.53 37.712 126.922 38.2409 127.292 37.9907L132.093 34.7571C132.351 34.5829 132.351 34.149 132.093 33.9748L127.292 30.7412C126.922 30.491 126.527 31.0199 126.794 31.4126C127.409 32.3247 127.926 33.3857 127.926 34.3644" fill="#1CDBBC"/>
<path d="M345.57 44.3597C345.57 45.3383 345.053 46.3993 344.438 47.3114C344.174 47.7042 344.565 48.2331 344.936 47.9829L349.736 44.7493C349.995 44.5751 349.995 44.1412 349.736 43.967L344.936 40.7334C344.565 40.4832 344.171 41.0121 344.438 41.4048C345.053 42.3169 345.57 43.3779 345.57 44.3565" fill="#1CDBBC"/>
<path d="M150.248 34.3675C150.248 35.3461 149.731 36.4071 149.116 37.3192C148.852 37.712 149.244 38.2409 149.614 37.9907L154.415 34.7571C154.674 34.5829 154.674 34.149 154.415 33.9748L149.614 30.7412C149.244 30.491 148.85 31.0199 149.116 31.4126C149.731 32.3247 150.248 33.3857 150.248 34.3644" fill="#1CDBBC"/>
<path d="M161.41 34.3675C161.41 35.3461 160.892 36.4071 160.277 37.3192C160.013 37.712 160.405 38.2409 160.775 37.9907L165.576 34.7571C165.835 34.5829 165.835 34.149 165.576 33.9748L160.775 30.7412C160.405 30.491 160.011 31.0199 160.277 31.4126C160.892 32.3247 161.41 33.3857 161.41 34.3644" fill="#1CDBBC"/>
<path d="M172.571 34.3675C172.571 35.3461 172.054 36.4071 171.438 37.3192C171.175 37.712 171.566 38.2409 171.937 37.9907L176.737 34.7571C176.996 34.5829 176.996 34.149 176.737 33.9748L171.937 30.7412C171.566 30.491 171.172 31.0199 171.438 31.4126C172.054 32.3247 172.571 33.3857 172.571 34.3644" fill="#1CDBBC"/>
<path d="M328.828 74.2506C328.828 75.2292 328.311 76.2902 327.696 77.2023C327.432 77.595 327.823 78.124 328.194 77.8738L332.994 74.6402C333.253 74.466 333.253 74.0321 332.994 73.8579L328.194 70.6243C327.823 70.3741 327.429 70.903 327.696 71.2957C328.311 72.2078 328.828 73.2688 328.828 74.2474" fill="#1CDBBC"/>
<path d="M339.989 74.2506C339.989 75.2292 339.472 76.2902 338.857 77.2023C338.593 77.595 338.985 78.124 339.355 77.8738L344.156 74.6402C344.414 74.466 344.414 74.0321 344.156 73.8579L339.355 70.6243C338.985 70.3741 338.59 70.903 338.857 71.2957C339.472 72.2078 339.989 73.2688 339.989 74.2474" fill="#1CDBBC"/>
<path d="M351.15 74.2506C351.15 75.2292 350.633 76.2902 350.018 77.2023C349.754 77.595 350.146 78.124 350.516 77.8738L355.317 74.6402C355.575 74.466 355.575 74.0321 355.317 73.8579L350.516 70.6243C350.146 70.3741 349.751 70.903 350.018 71.2957C350.633 72.2078 351.15 73.2688 351.15 74.2474" fill="#1CDBBC"/>
<path d="M139.087 34.3675C139.087 35.3461 138.57 36.4071 137.955 37.3192C137.691 37.712 138.083 38.2409 138.453 37.9907L143.254 34.7571C143.512 34.5829 143.512 34.149 143.254 33.9748L138.453 30.7412C138.083 30.491 137.688 31.0199 137.955 31.4126C138.57 32.3247 139.087 33.3857 139.087 34.3644" fill="#1CDBBC"/>
<path opacity="0.5" d="M183.732 34.3675C183.732 35.3461 183.215 36.4071 182.6 37.3192C182.336 37.712 182.728 38.2409 183.098 37.9907L187.898 34.7571C188.157 34.5829 188.157 34.149 187.898 33.9748L183.098 30.7412C182.728 30.491 182.333 31.0199 182.6 31.4126C183.215 32.3247 183.732 33.3857 183.732 34.3644" fill="#1CDBBC"/>
<path opacity="0.5" d="M194.895 34.3675C194.895 35.3461 194.378 36.4071 193.763 37.3192C193.499 37.712 193.891 38.2409 194.261 37.9907L199.062 34.7571C199.321 34.5829 199.321 34.149 199.062 33.9748L194.261 30.7412C193.891 30.491 193.496 31.0199 193.763 31.4126C194.378 32.3247 194.895 33.3857 194.895 34.3644" fill="#1CDBBC"/>
<path d="M206.056 34.3675C206.056 35.3461 205.539 36.4071 204.924 37.3192C204.66 37.712 205.052 38.2409 205.422 37.9907L210.223 34.7571C210.482 34.5829 210.482 34.149 210.223 33.9748L205.422 30.7412C205.052 30.491 204.658 31.0199 204.924 31.4126C205.539 32.3247 206.056 33.3857 206.056 34.3644" fill="#1CDBBC"/>
<path d="M133.511 4.56231C133.511 5.54094 132.994 6.60191 132.379 7.51404C132.115 7.90676 132.507 8.43566 132.877 8.18546L137.678 4.95186C137.937 4.77767 137.937 4.34378 137.678 4.16959L132.88 0.935994C132.51 0.685794 132.115 1.2147 132.382 1.60742C132.997 2.51954 133.514 3.58051 133.514 4.55914" fill="#1CDBBC"/>
<path d="M144.673 4.56231C144.673 5.54094 144.155 6.60191 143.54 7.51404C143.276 7.90676 143.668 8.43566 144.038 8.18546L148.839 4.95186C149.098 4.77767 149.098 4.34378 148.839 4.16959L144.041 0.935994C143.671 0.685794 143.276 1.2147 143.543 1.60742C144.158 2.51954 144.675 3.58051 144.675 4.55914" fill="#1CDBBC"/>
<path d="M155.834 4.56231C155.834 5.54094 155.317 6.60191 154.702 7.51404C154.438 7.90676 154.83 8.43566 155.2 8.18546L160.001 4.95186C160.259 4.77767 160.259 4.34378 160.001 4.16959L155.203 0.935994C154.832 0.685794 154.438 1.2147 154.705 1.60742C155.32 2.51954 155.837 3.58051 155.837 4.55914" fill="#1CDBBC"/>
<path d="M166.994 4.56231C166.994 5.54094 166.477 6.60191 165.862 7.51404C165.598 7.90676 165.99 8.43566 166.36 8.18546L171.161 4.95186C171.419 4.77767 171.419 4.34378 171.161 4.16959L166.36 0.935994C165.99 0.685794 165.595 1.2147 165.862 1.60742C166.477 2.51954 166.994 3.58051 166.994 4.55914" fill="#1CDBBC"/>
<path d="M178.155 4.56231C178.155 5.54094 177.638 6.60191 177.023 7.51404C176.759 7.90676 177.151 8.43566 177.521 8.18546L182.322 4.95186C182.581 4.77767 182.581 4.34378 182.322 4.16959L177.521 0.935994C177.151 0.685794 176.757 1.2147 177.023 1.60742C177.638 2.51954 178.155 3.58051 178.155 4.55914" fill="#1CDBBC"/>
<path opacity="0.5" d="M189.317 4.56231C189.317 5.54094 188.8 6.60191 188.185 7.51404C187.921 7.90676 188.312 8.43566 188.683 8.18546L193.483 4.95186C193.742 4.77767 193.742 4.34378 193.483 4.16959L188.683 0.935994C188.312 0.685794 187.918 1.2147 188.185 1.60742C188.8 2.51954 189.317 3.58051 189.317 4.55914" fill="#1CDBBC"/>
<path d="M116.766 14.5543C116.766 15.5329 116.248 16.5939 115.633 17.506C115.369 17.8987 115.761 18.4276 116.131 18.1774L120.932 14.9438C121.191 14.7697 121.191 14.3358 120.932 14.1616L116.134 10.9311C115.764 10.6809 115.369 11.2098 115.636 11.6026C116.251 12.5147 116.768 13.5757 116.768 14.5543" fill="#1CDBBC"/>
<path d="M127.926 14.5543C127.926 15.5329 127.409 16.5939 126.794 17.506C126.53 17.8987 126.922 18.4276 127.292 18.1774L132.093 14.9438C132.351 14.7696 132.351 14.3357 132.093 14.1615L127.292 10.9279C126.922 10.6777 126.527 11.2066 126.794 11.5994C127.409 12.5115 127.926 13.5725 127.926 14.5511" fill="#1CDBBC"/>
<path d="M139.087 14.5543C139.087 15.5329 138.57 16.5939 137.955 17.506C137.691 17.8987 138.083 18.4276 138.453 18.1774L143.254 14.9438C143.512 14.7696 143.512 14.3357 143.254 14.1615L138.453 10.9279C138.083 10.6777 137.688 11.2066 137.955 11.5994C138.57 12.5115 139.087 13.5725 139.087 14.5511" fill="#1CDBBC"/>
<path d="M150.248 14.5543C150.248 15.5329 149.731 16.5939 149.116 17.506C148.852 17.8987 149.244 18.4276 149.614 18.1774L154.415 14.9438C154.674 14.7696 154.674 14.3357 154.415 14.1615L149.614 10.9279C149.244 10.6777 148.85 11.2066 149.116 11.5994C149.731 12.5115 150.248 13.5725 150.248 14.5511" fill="#1CDBBC"/>
<path d="M161.41 14.5543C161.41 15.5329 160.892 16.5939 160.277 17.506C160.013 17.8987 160.405 18.4276 160.775 18.1774L165.576 14.9438C165.835 14.7696 165.835 14.3357 165.576 14.1615L160.775 10.9279C160.405 10.6777 160.011 11.2066 160.277 11.5994C160.892 12.5115 161.41 13.5725 161.41 14.5511" fill="#1CDBBC"/>
<path d="M172.571 14.5543C172.571 15.5329 172.054 16.5939 171.438 17.506C171.175 17.8987 171.566 18.4276 171.937 18.1774L176.737 14.9438C176.996 14.7696 176.996 14.3357 176.737 14.1615L171.937 10.9279C171.566 10.6777 171.172 11.2066 171.438 11.5994C172.054 12.5115 172.571 13.5725 172.571 14.5511" fill="#1CDBBC"/>
<path d="M183.732 14.5543C183.732 15.5329 183.215 16.5939 182.6 17.506C182.336 17.8987 182.728 18.4276 183.098 18.1774L187.898 14.9438C188.157 14.7696 188.157 14.3357 187.898 14.1615L183.098 10.9279C182.728 10.6777 182.333 11.2066 182.6 11.5994C183.215 12.5115 183.732 13.5725 183.732 14.5511" fill="#1CDBBC"/>
<path d="M200.48 4.56231C200.48 5.54094 199.963 6.60191 199.348 7.51404C199.084 7.90676 199.476 8.43566 199.846 8.18546L204.647 4.95186C204.905 4.77767 204.905 4.34378 204.647 4.16959L199.846 0.935994C199.476 0.685794 199.081 1.2147 199.348 1.60742C199.963 2.51954 200.48 3.58051 200.48 4.55914" fill="#1CDBBC"/>
<path opacity="0.3" d="M211.638 4.56231C211.638 5.54094 211.121 6.60191 210.506 7.51404C210.242 7.90676 210.634 8.43566 211.004 8.18546L215.805 4.95186C216.063 4.77767 216.063 4.34378 215.805 4.16959L211.007 0.935994C210.636 0.685794 210.242 1.2147 210.508 1.60742C211.124 2.51954 211.641 3.58051 211.641 4.55914" fill="#1CDBBC"/>
<path opacity="0.3" d="M222.799 4.56231C222.799 5.54094 222.282 6.60191 221.667 7.51404C221.403 7.90676 221.795 8.43566 222.165 8.18546L226.966 4.95186C227.224 4.77767 227.224 4.34378 226.966 4.16959L222.168 0.935994C221.798 0.685794 221.403 1.2147 221.67 1.60742C222.285 2.51954 222.802 3.58051 222.802 4.55914" fill="#1CDBBC"/>
<path d="M233.96 4.56231C233.96 5.54094 233.443 6.60191 232.828 7.51404C232.564 7.90676 232.956 8.43566 233.326 8.18546L238.127 4.95186C238.386 4.77767 238.386 4.34378 238.127 4.16959L233.329 0.935994C232.959 0.685794 232.564 1.2147 232.831 1.60742C233.446 2.51954 233.963 3.58051 233.963 4.55914" fill="#1CDBBC"/>
<path d="M245.122 4.56231C245.122 5.54094 244.605 6.60191 243.99 7.51404C243.726 7.90676 244.118 8.43566 244.488 8.18546L249.288 4.95186C249.547 4.77767 249.547 4.34378 249.288 4.16959L244.49 0.935994C244.12 0.685794 243.726 1.2147 243.992 1.60742C244.607 2.51954 245.125 3.58051 245.125 4.55914" fill="#1CDBBC"/>
<path d="M155.833 24.4611C155.833 25.4398 155.316 26.5008 154.701 27.4129C154.437 27.8056 154.829 28.3345 155.199 28.0843L160 24.8507C160.258 24.6765 160.258 24.2426 160 24.0684L155.199 20.8348C154.829 20.5846 154.434 21.1135 154.701 21.5063C155.316 22.4184 155.833 23.4793 155.833 24.458" fill="#1CDBBC"/>
<path d="M166.994 24.4611C166.994 25.4398 166.477 26.5008 165.862 27.4129C165.598 27.8056 165.99 28.3345 166.36 28.0843L171.161 24.8507C171.419 24.6765 171.419 24.2426 171.161 24.0684L166.36 20.8348C165.99 20.5846 165.595 21.1135 165.862 21.5063C166.477 22.4184 166.994 23.4793 166.994 24.458" fill="#1CDBBC"/>
<path d="M178.155 24.4611C178.155 25.4398 177.638 26.5008 177.023 27.4129C176.759 27.8056 177.151 28.3345 177.521 28.0843L182.322 24.8507C182.581 24.6765 182.581 24.2426 182.322 24.0684L177.521 20.8348C177.151 20.5846 176.757 21.1135 177.023 21.5063C177.638 22.4184 178.155 23.4793 178.155 24.458" fill="#1CDBBC"/>
<path d="M189.317 24.4611C189.317 25.4398 188.8 26.5008 188.185 27.4129C187.921 27.8056 188.312 28.3345 188.683 28.0843L193.483 24.8507C193.742 24.6765 193.742 24.2426 193.483 24.0684L188.683 20.8348C188.312 20.5846 187.918 21.1135 188.185 21.5063C188.8 22.4184 189.317 23.4793 189.317 24.458" fill="#1CDBBC"/>
<path d="M200.48 24.4611C200.48 25.4398 199.963 26.5008 199.348 27.4129C199.084 27.8056 199.476 28.3345 199.846 28.0843L204.647 24.8507C204.905 24.6765 204.905 24.2426 204.647 24.0684L199.846 20.8348C199.476 20.5846 199.081 21.1135 199.348 21.5063C199.963 22.4184 200.48 23.4793 200.48 24.458" fill="#1CDBBC"/>
<path d="M194.895 14.5543C194.895 15.5329 194.378 16.5939 193.763 17.506C193.499 17.8987 193.891 18.4276 194.261 18.1774L199.062 14.9438C199.321 14.7696 199.321 14.3357 199.062 14.1615L194.261 10.9279C193.891 10.6777 193.496 11.2066 193.763 11.5994C194.378 12.5115 194.895 13.5725 194.895 14.5511" fill="#1CDBBC"/>
<path opacity="0.3" d="M206.056 14.5543C206.056 15.5329 205.539 16.5939 204.924 17.506C204.66 17.8987 205.052 18.4276 205.422 18.1774L210.223 14.9438C210.482 14.7696 210.482 14.3357 210.223 14.1615L205.422 10.9279C205.052 10.6777 204.658 11.2066 204.924 11.5994C205.539 12.5115 206.056 13.5725 206.056 14.5511" fill="#1CDBBC"/>
<path d="M217.218 14.5543C217.218 15.5329 216.701 16.5939 216.085 17.506C215.821 17.8987 216.213 18.4276 216.584 18.1774L221.384 14.9438C221.643 14.7696 221.643 14.3357 221.384 14.1615L216.584 10.9279C216.213 10.6777 215.819 11.2066 216.085 11.5994C216.701 12.5115 217.218 13.5725 217.218 14.5511" fill="#1CDBBC"/>
<path d="M228.379 14.5543C228.379 15.5329 227.862 16.5939 227.247 17.506C226.983 17.8987 227.375 18.4276 227.745 18.1774L232.545 14.9438C232.804 14.7696 232.804 14.3357 232.545 14.1615L227.745 10.9279C227.375 10.6777 226.98 11.2066 227.247 11.5994C227.862 12.5115 228.379 13.5725 228.379 14.5511" fill="#1CDBBC"/>
<path d="M239.54 14.5543C239.54 15.5329 239.023 16.5939 238.408 17.506C238.144 17.8987 238.536 18.4276 238.906 18.1774L243.707 14.9438C243.965 14.7696 243.965 14.3357 243.707 14.1615L238.906 10.9279C238.536 10.6777 238.141 11.2066 238.408 11.5994C239.023 12.5115 239.54 13.5725 239.54 14.5511" fill="#1CDBBC"/>
<path d="M295.342 34.3675C295.342 35.3461 294.825 36.4071 294.21 37.3192C293.946 37.712 294.338 38.2409 294.708 37.9907L299.509 34.7571C299.767 34.5829 299.767 34.149 299.509 33.9748L294.708 30.7412C294.338 30.491 293.943 31.0199 294.21 31.4126C294.825 32.3247 295.342 33.3857 295.342 34.3644" fill="#1CDBBC"/>
<path d="M306.503 34.3675C306.503 35.3461 305.986 36.4071 305.371 37.3192C305.107 37.712 305.499 38.2409 305.869 37.9907L310.67 34.7571C310.928 34.5829 310.928 34.149 310.67 33.9748L305.869 30.7412C305.499 30.491 305.104 31.0199 305.371 31.4126C305.986 32.3247 306.503 33.3857 306.503 34.3644" fill="#1CDBBC"/>
<path d="M317.667 34.3675C317.667 35.3461 317.15 36.4071 316.534 37.3192C316.27 37.712 316.662 38.2409 317.032 37.9907L321.833 34.7571C322.092 34.5829 322.092 34.149 321.833 33.9748L317.032 30.7412C316.662 30.491 316.268 31.0199 316.534 31.4126C317.15 32.3247 317.667 33.3857 317.667 34.3644" fill="#1CDBBC"/>
<path opacity="0.5" d="M328.828 34.3675C328.828 35.3461 328.311 36.4071 327.696 37.3192C327.432 37.712 327.823 38.2409 328.194 37.9907L332.994 34.7571C333.253 34.5829 333.253 34.149 332.994 33.9748L328.194 30.7412C327.823 30.491 327.429 31.0199 327.696 31.4126C328.311 32.3247 328.828 33.3857 328.828 34.3644" fill="#1CDBBC"/>
<path d="M339.989 34.3675C339.989 35.3461 339.472 36.4071 338.857 37.3192C338.593 37.712 338.985 38.2409 339.355 37.9907L344.156 34.7571C344.414 34.5829 344.414 34.149 344.156 33.9748L339.355 30.7412C338.985 30.491 338.59 31.0199 338.857 31.4126C339.472 32.3247 339.989 33.3857 339.989 34.3644" fill="#1CDBBC"/>
<path d="M351.15 34.3675C351.15 35.3461 350.633 36.4071 350.018 37.3192C349.754 37.712 350.146 38.2409 350.516 37.9907L355.317 34.7571C355.575 34.5829 355.575 34.149 355.317 33.9748L350.516 30.7412C350.146 30.491 349.751 31.0199 350.018 31.4126C350.633 32.3247 351.15 33.3857 351.15 34.3644" fill="#1CDBBC"/>
<path d="M362.309 34.3675C362.309 35.3461 361.792 36.4071 361.177 37.3192C360.913 37.712 361.305 38.2409 361.675 37.9907L366.476 34.7571C366.735 34.5829 366.735 34.149 366.476 33.9748L361.675 30.7412C361.305 30.491 360.911 31.0199 361.177 31.4126C361.792 32.3247 362.309 33.3857 362.309 34.3644" fill="#1CDBBC"/>
<path d="M256.283 4.56231C256.283 5.54094 255.766 6.60191 255.151 7.51404C254.887 7.90676 255.279 8.43566 255.649 8.18546L260.45 4.95186C260.708 4.77767 260.708 4.34378 260.45 4.16959L255.652 0.935994C255.281 0.685794 254.887 1.2147 255.153 1.60742C255.769 2.51954 256.286 3.58051 256.286 4.55914" fill="#1CDBBC"/>
<path d="M267.444 4.56231C267.444 5.54094 266.927 6.60191 266.312 7.51404C266.048 7.90676 266.44 8.43566 266.81 8.18546L271.611 4.95186C271.869 4.77767 271.869 4.34378 271.611 4.16959L266.813 0.935994C266.443 0.685794 266.048 1.2147 266.315 1.60742C266.93 2.51954 267.447 3.58051 267.447 4.55914" fill="#1CDBBC"/>
<path d="M278.603 4.56231C278.603 5.54094 278.086 6.60191 277.471 7.51404C277.207 7.90676 277.599 8.43566 277.969 8.18546L282.77 4.95186C283.028 4.77767 283.028 4.34378 282.77 4.16959L277.972 0.935994C277.602 0.685794 277.207 1.2147 277.474 1.60742C278.089 2.51954 278.606 3.58051 278.606 4.55914" fill="#1CDBBC"/>
<path d="M273.02 14.5543C273.02 15.5329 272.503 16.5939 271.887 17.506C271.623 17.8987 272.015 18.4276 272.386 18.1774L277.186 14.9438C277.445 14.7696 277.445 14.3357 277.186 14.1615L272.386 10.9279C272.015 10.6777 271.621 11.2066 271.887 11.5994C272.503 12.5115 273.02 13.5725 273.02 14.5511" fill="#1CDBBC"/>
<path d="M284.181 14.5543C284.181 15.5329 283.664 16.5939 283.049 17.506C282.785 17.8987 283.177 18.4276 283.547 18.1774L288.348 14.9438C288.606 14.7696 288.606 14.3357 288.348 14.1615L283.547 10.9279C283.177 10.6777 282.782 11.2066 283.049 11.5994C283.664 12.5115 284.181 13.5725 284.181 14.5511" fill="#1CDBBC"/>
<path d="M295.342 14.5543C295.342 15.5329 294.825 16.5939 294.21 17.506C293.946 17.8987 294.338 18.4276 294.708 18.1774L299.509 14.9438C299.767 14.7696 299.767 14.3357 299.509 14.1615L294.708 10.9279C294.338 10.6777 293.943 11.2066 294.21 11.5994C294.825 12.5115 295.342 13.5725 295.342 14.5511" fill="#1CDBBC"/>
<path opacity="0.3" d="M306.503 14.5543C306.503 15.5329 305.986 16.5939 305.371 17.506C305.107 17.8987 305.499 18.4276 305.869 18.1774L310.67 14.9438C310.928 14.7696 310.928 14.3357 310.67 14.1615L305.869 10.9279C305.499 10.6777 305.104 11.2066 305.371 11.5994C305.986 12.5115 306.503 13.5725 306.503 14.5511" fill="#1CDBBC"/>
<path d="M278.604 24.4611C278.604 25.4398 278.087 26.5008 277.472 27.4129C277.208 27.8056 277.6 28.3345 277.97 28.0843L282.771 24.8507C283.03 24.6765 283.03 24.2426 282.771 24.0684L277.97 20.8348C277.6 20.5846 277.205 21.1135 277.472 21.5063C278.087 22.4184 278.604 23.4793 278.604 24.458" fill="#1CDBBC"/>
<path d="M289.765 24.4611C289.765 25.4398 289.248 26.5008 288.633 27.4129C288.369 27.8056 288.761 28.3345 289.131 28.0843L293.932 24.8507C294.191 24.6765 294.191 24.2426 293.932 24.0684L289.131 20.8348C288.761 20.5846 288.367 21.1135 288.633 21.5063C289.248 22.4184 289.765 23.4793 289.765 24.458" fill="#1CDBBC"/>
<path d="M300.927 24.4611C300.927 25.4398 300.41 26.5008 299.795 27.4129C299.531 27.8056 299.923 28.3345 300.293 28.0843L305.094 24.8507C305.352 24.6765 305.352 24.2426 305.094 24.0684L300.293 20.8348C299.923 20.5846 299.528 21.1135 299.795 21.5063C300.41 22.4184 300.927 23.4793 300.927 24.458" fill="#1CDBBC"/>
<path d="M312.088 24.4611C312.088 25.4398 311.571 26.5008 310.956 27.4129C310.692 27.8056 311.084 28.3345 311.454 28.0843L316.255 24.8507C316.513 24.6765 316.513 24.2426 316.255 24.0684L311.454 20.8348C311.084 20.5846 310.689 21.1135 310.956 21.5063C311.571 22.4184 312.088 23.4793 312.088 24.458" fill="#1CDBBC"/>
<path d="M233.957 24.4611C233.957 25.4398 233.44 26.5008 232.825 27.4129C232.561 27.8056 232.953 28.3345 233.323 28.0843L238.124 24.8507C238.383 24.6765 238.383 24.2426 238.124 24.0684L233.323 20.8348C232.953 20.5846 232.559 21.1135 232.825 21.5063C233.44 22.4184 233.957 23.4793 233.957 24.458" fill="#1CDBBC"/>
<path d="M256.28 24.4611C256.28 25.4398 255.763 26.5008 255.148 27.4129C254.884 27.8056 255.276 28.3345 255.646 28.0843L260.447 24.8507C260.705 24.6765 260.705 24.2426 260.447 24.0684L255.646 20.8348C255.276 20.5846 254.881 21.1135 255.148 21.5063C255.763 22.4184 256.28 23.4793 256.28 24.458" fill="#1CDBBC"/>
<path d="M267.441 24.4611C267.441 25.4398 266.924 26.5008 266.309 27.4129C266.045 27.8056 266.437 28.3345 266.807 28.0843L271.608 24.8507C271.866 24.6765 271.866 24.2426 271.608 24.0684L266.807 20.8348C266.437 20.5846 266.042 21.1135 266.309 21.5063C266.924 22.4184 267.441 23.4793 267.441 24.458" fill="#1CDBBC"/>
<path opacity="0.5" d="M323.251 24.4611C323.251 25.4398 322.734 26.5008 322.119 27.4129C321.855 27.8056 322.247 28.3345 322.617 28.0843L327.418 24.8507C327.677 24.6765 327.677 24.2426 327.418 24.0684L322.617 20.8348C322.247 20.5846 321.852 21.1135 322.119 21.5063C322.734 22.4184 323.251 23.4793 323.251 24.458" fill="#1CDBBC"/>
<path d="M334.412 24.4611C334.412 25.4398 333.895 26.5008 333.28 27.4129C333.016 27.8056 333.408 28.3345 333.778 28.0843L338.579 24.8507C338.838 24.6765 338.838 24.2426 338.579 24.0684L333.778 20.8348C333.408 20.5846 333.014 21.1135 333.28 21.5063C333.895 22.4184 334.412 23.4793 334.412 24.458" fill="#1CDBBC"/>
<path d="M345.57 24.4611C345.57 25.4398 345.053 26.5008 344.438 27.4129C344.174 27.8056 344.565 28.3345 344.936 28.0843L349.736 24.8507C349.995 24.6765 349.995 24.2426 349.736 24.0684L344.936 20.8348C344.565 20.5846 344.171 21.1135 344.438 21.5063C345.053 22.4184 345.57 23.4793 345.57 24.458" fill="#1CDBBC"/>
<path d="M356.731 24.4611C356.731 25.4398 356.214 26.5008 355.599 27.4129C355.335 27.8056 355.727 28.3345 356.097 28.0843L360.897 24.8507C361.156 24.6765 361.156 24.2426 360.897 24.0684L356.097 20.8348C355.727 20.5846 355.332 21.1135 355.599 21.5063C356.214 22.4184 356.731 23.4793 356.731 24.458" fill="#1CDBBC"/>
<path d="M367.892 24.4611C367.892 25.4398 367.375 26.5008 366.76 27.4129C366.496 27.8056 366.888 28.3345 367.258 28.0843L372.059 24.8507C372.317 24.6765 372.317 24.2426 372.059 24.0684L367.258 20.8348C366.888 20.5846 366.493 21.1135 366.76 21.5063C367.375 22.4184 367.892 23.4793 367.892 24.458" fill="#1CDBBC"/>
<path d="M317.667 14.5543C317.667 15.5329 317.15 16.5939 316.534 17.506C316.27 17.8987 316.662 18.4276 317.032 18.1774L321.833 14.9438C322.092 14.7696 322.092 14.3357 321.833 14.1615L317.032 10.9279C316.662 10.6777 316.268 11.2066 316.534 11.5994C317.15 12.5115 317.667 13.5725 317.667 14.5511" fill="#1CDBBC"/>
<path opacity="0.3" d="M388.54 34.4527C388.54 33.4741 388.023 32.4131 387.408 31.501C387.144 31.1083 387.536 30.5794 387.906 30.8296L392.707 34.0632C392.966 34.2373 392.966 34.6712 392.707 34.8454L387.906 38.079C387.536 38.3292 387.142 37.8003 387.408 37.4076C388.023 36.4955 388.54 35.4345 388.54 34.4559" fill="#1CDBBC"/>
<path d="M382.957 44.445C382.957 43.4664 382.439 42.4054 381.824 41.4933C381.56 41.1006 381.952 40.5717 382.322 40.8219L387.123 44.0555C387.382 44.2297 387.382 44.6636 387.123 44.8378L382.325 48.0714C381.955 48.3216 381.56 47.7927 381.827 47.3999C382.442 46.4878 382.959 45.4268 382.959 44.4482" fill="#1CDBBC"/>
<path d="M382.957 64.2582C382.957 63.2796 382.439 62.2186 381.824 61.3065C381.56 60.9138 381.952 60.3849 382.322 60.6351L387.123 63.8687C387.382 64.0429 387.382 64.4768 387.123 64.651L382.325 67.8814C381.955 68.1316 381.56 67.6027 381.827 67.21C382.442 66.2978 382.959 65.2369 382.959 64.2582" fill="#1CDBBC"/>
<path d="M-4.33267 54.2665C-4.33267 55.2451 -4.84976 56.3061 -5.46482 57.2182C-5.72881 57.6109 -5.33691 58.1398 -4.96678 57.8896L-0.16601 54.656C0.0925355 54.4818 0.0925355 54.0479 -0.16601 53.8738L-4.96678 50.6402C-5.33691 50.39 -5.73153 50.9189 -5.46482 51.3116C-4.84976 52.2237 -4.33267 53.2847 -4.33267 54.2633" fill="#1CDBBC"/>
<path d="M6.8287 54.2665C6.8287 55.2451 6.31162 56.3061 5.69655 57.2182C5.43256 57.6109 5.82447 58.1398 6.1946 57.8896L10.9954 54.656C11.2539 54.4818 11.2539 54.0479 10.9954 53.8738L6.1946 50.6402C5.82447 50.39 5.42984 50.9189 5.69655 51.3116C6.31162 52.2237 6.8287 53.2847 6.8287 54.2633" fill="#1CDBBC"/>
<path d="M17.9898 54.2665C17.9898 55.2451 17.4728 56.3061 16.8577 57.2182C16.5937 57.6109 16.9856 58.1398 17.3557 57.8896L22.1565 54.656C22.415 54.4818 22.415 54.0479 22.1565 53.8738L17.3557 50.6402C16.9856 50.39 16.591 50.9189 16.8577 51.3116C17.4728 52.2237 17.9898 53.2847 17.9898 54.2633" fill="#1CDBBC"/>
<path d="M29.1512 54.2665C29.1512 55.2451 28.6341 56.3061 28.0191 57.2182C27.7551 57.6109 28.147 58.1398 28.5171 57.8896L33.3179 54.656C33.5764 54.4818 33.5764 54.0479 33.3179 53.8738L28.5171 50.6402C28.147 50.39 27.7524 50.9189 28.0191 51.3116C28.6341 52.2237 29.1512 53.2847 29.1512 54.2633" fill="#1CDBBC"/>
<path opacity="0.5" d="M40.3124 54.2665C40.3124 55.2451 39.7953 56.3061 39.1802 57.2182C38.9162 57.6109 39.3081 58.1398 39.6782 57.8896L44.479 54.656C44.7376 54.4818 44.7376 54.0479 44.479 53.8738L39.6782 50.6402C39.3081 50.39 38.9135 50.9189 39.1802 51.3116C39.7953 52.2237 40.3124 53.2847 40.3124 54.2633" fill="#1CDBBC"/>
<path d="M1.25229 64.2584C1.25229 65.237 0.735206 66.298 0.12014 67.2101C-0.143849 67.6029 0.24804 68.1318 0.618168 67.8816L5.41895 64.648C5.6775 64.4738 5.6775 64.0399 5.41895 63.8657L0.618168 60.6321C0.24804 60.3819 -0.14657 60.9108 0.12014 61.3035C0.735206 62.2156 1.25229 63.2766 1.25229 64.2553" fill="#1CDBBC"/>
<path d="M34.7357 64.2584C34.7357 65.237 34.2186 66.298 33.6035 67.2101C33.3395 67.6029 33.7315 68.1318 34.1016 67.8816L38.9024 64.648C39.1609 64.4738 39.1609 64.0399 38.9024 63.8657L34.1016 60.6321C33.7315 60.3819 33.3368 60.9108 33.6035 61.3035C34.2186 62.2156 34.7357 63.2766 34.7357 64.2553" fill="#1CDBBC"/>
<path d="M45.8971 64.2584C45.8971 65.237 45.38 66.298 44.7649 67.2101C44.5009 67.6029 44.8928 68.1318 45.263 67.8816L50.0637 64.648C50.3223 64.4738 50.3223 64.0399 50.0637 63.8657L45.263 60.6321C44.8928 60.3819 44.4982 60.9108 44.7649 61.3035C45.38 62.2156 45.8971 63.2766 45.8971 64.2553" fill="#1CDBBC"/>
<path d="M-4.33267 74.2506C-4.33267 75.2292 -4.84976 76.2902 -5.46482 77.2023C-5.72881 77.595 -5.33691 78.124 -4.96678 77.8738L-0.16601 74.6402C0.0925355 74.466 0.0925355 74.0321 -0.16601 73.8579L-4.96678 70.6243C-5.33691 70.3741 -5.73153 70.903 -5.46482 71.2957C-4.84976 72.2078 -4.33267 73.2688 -4.33267 74.2474" fill="#1CDBBC"/>
<path d="M6.8287 74.2506C6.8287 75.2292 6.31162 76.2902 5.69655 77.2023C5.43256 77.595 5.82447 78.124 6.1946 77.8738L10.9954 74.6402C11.2539 74.466 11.2539 74.0321 10.9954 73.8579L6.1946 70.6243C5.82447 70.3741 5.42984 70.903 5.69655 71.2957C6.31162 72.2078 6.8287 73.2688 6.8287 74.2474" fill="#1CDBBC"/>
<path d="M17.9898 74.2506C17.9898 75.2292 17.4728 76.2902 16.8577 77.2023C16.5937 77.595 16.9856 78.124 17.3557 77.8738L22.1565 74.6402C22.415 74.466 22.415 74.0321 22.1565 73.8579L17.3557 70.6243C16.9856 70.3741 16.591 70.903 16.8577 71.2957C17.4728 72.2078 17.9898 73.2688 17.9898 74.2474" fill="#1CDBBC"/>
<path d="M29.1512 74.2506C29.1512 75.2292 28.6341 76.2902 28.0191 77.2023C27.7551 77.595 28.147 78.124 28.5171 77.8738L33.3179 74.6402C33.5764 74.466 33.5764 74.0321 33.3179 73.8579L28.5171 70.6243C28.147 70.3741 27.7524 70.903 28.0191 71.2957C28.6341 72.2078 29.1512 73.2688 29.1512 74.2474" fill="#1CDBBC"/>
<path opacity="0.5" d="M40.3124 74.2506C40.3124 75.2292 39.7953 76.2902 39.1802 77.2023C38.9162 77.595 39.3081 78.124 39.6782 77.8738L44.479 74.6402C44.7376 74.466 44.7376 74.0321 44.479 73.8579L39.6782 70.6243C39.3081 70.3741 38.9135 70.903 39.1802 71.2957C39.7953 72.2078 40.3124 73.2688 40.3124 74.2474" fill="#1CDBBC"/>
<path d="M51.4754 54.2665C51.4754 55.2451 50.9583 56.3061 50.3433 57.2182C50.0793 57.6109 50.4712 58.1398 50.8413 57.8896L55.6421 54.656C55.9006 54.4818 55.9006 54.0479 55.6421 53.8738L50.8413 50.6402C50.4712 50.39 50.0766 50.9189 50.3433 51.3116C50.9583 52.2237 51.4754 53.2847 51.4754 54.2633" fill="#1CDBBC"/>
<path opacity="0.5" d="M62.6368 54.2665C62.6368 55.2451 62.1197 56.3061 61.5047 57.2182C61.2407 57.6109 61.6326 58.1398 62.0027 57.8896L66.8035 54.656C67.062 54.4818 67.062 54.0479 66.8035 53.8738L62.0027 50.6402C61.6326 50.39 61.2379 50.9189 61.5047 51.3116C62.1197 52.2237 62.6368 53.2847 62.6368 54.2633" fill="#1CDBBC"/>
<path opacity="0.5" d="M73.7979 54.2665C73.7979 55.2451 73.2809 56.3061 72.6658 57.2182C72.4018 57.6109 72.7937 58.1398 73.1638 57.8896L77.9646 54.656C78.2232 54.4818 78.2232 54.0479 77.9646 53.8738L73.1638 50.6402C72.7937 50.39 72.3991 50.9189 72.6658 51.3116C73.2809 52.2237 73.7979 53.2847 73.7979 54.2633" fill="#1CDBBC"/>
<path d="M84.9593 54.2665C84.9593 55.2451 84.4422 56.3061 83.8272 57.2182C83.5632 57.6109 83.9551 58.1398 84.3252 57.8896L89.126 54.656C89.3845 54.4818 89.3845 54.0479 89.126 53.8738L84.3252 50.6402C83.9551 50.39 83.5605 50.9189 83.8272 51.3116C84.4422 52.2237 84.9593 53.2847 84.9593 54.2633" fill="#1CDBBC"/>
<path d="M96.1185 54.2665C96.1185 55.2451 95.6014 56.3061 94.9863 57.2182C94.7224 57.6109 95.1143 58.1398 95.4844 57.8896L100.285 54.656C100.544 54.4818 100.544 54.0479 100.285 53.8738L95.4844 50.6402C95.1143 50.39 94.7196 50.9189 94.9863 51.3116C95.6014 52.2237 96.1185 53.2847 96.1185 54.2633" fill="#1CDBBC"/>
<path d="M107.28 54.2665C107.28 55.2451 106.763 56.3061 106.147 57.2182C105.883 57.6109 106.275 58.1398 106.646 57.8896L111.446 54.656C111.705 54.4818 111.705 54.0479 111.446 53.8738L106.646 50.6402C106.275 50.39 105.881 50.9189 106.147 51.3116C106.763 52.2237 107.28 53.2847 107.28 54.2633" fill="#1CDBBC"/>
<path d="M57.0604 64.2584C57.0604 65.237 56.5433 66.298 55.9282 67.2101C55.6643 67.6029 56.0561 68.1318 56.4263 67.8816L61.2271 64.648C61.4856 64.4738 61.4856 64.0399 61.2271 63.8657L56.4263 60.6321C56.0561 60.3819 55.6615 60.9108 55.9282 61.3035C56.5433 62.2156 57.0604 63.2766 57.0604 64.2553" fill="#1CDBBC"/>
<path d="M68.2215 64.2584C68.2215 65.237 67.7044 66.298 67.0894 67.2101C66.8254 67.6029 67.2173 68.1318 67.5874 67.8816L72.3882 64.648C72.6467 64.4738 72.6467 64.0399 72.3882 63.8657L67.5874 60.6321C67.2173 60.3819 66.8227 60.9108 67.0894 61.3035C67.7044 62.2156 68.2215 63.2766 68.2215 64.2553" fill="#1CDBBC"/>
<path d="M34.7357 44.3597C34.7357 45.3383 34.2186 46.3993 33.6035 47.3114C33.3395 47.7042 33.7315 48.2331 34.1016 47.9829L38.9024 44.7493C39.1609 44.5751 39.1609 44.1412 38.9024 43.967L34.1016 40.7334C33.7315 40.4832 33.3368 41.0121 33.6035 41.4048C34.2186 42.3169 34.7357 43.3779 34.7357 44.3565" fill="#1CDBBC"/>
<path d="M45.8971 44.3597C45.8971 45.3383 45.38 46.3993 44.7649 47.3114C44.5009 47.7042 44.8928 48.2331 45.263 47.9829L50.0637 44.7493C50.3223 44.5751 50.3223 44.1412 50.0637 43.967L45.263 40.7334C44.8928 40.4832 44.4982 41.0121 44.7649 41.4048C45.38 42.3169 45.8971 43.3779 45.8971 44.3565" fill="#1CDBBC"/>
<path d="M57.0604 44.3597C57.0604 45.3383 56.5433 46.3993 55.9282 47.3114C55.6643 47.7042 56.0561 48.2331 56.4263 47.9829L61.2271 44.7493C61.4856 44.5751 61.4856 44.1412 61.2271 43.967L56.4263 40.7334C56.0561 40.4832 55.6615 41.0121 55.9282 41.4048C56.5433 42.3169 57.0604 43.3779 57.0604 44.3565" fill="#1CDBBC"/>
<path d="M68.2215 44.3597C68.2215 45.3383 67.7044 46.3993 67.0894 47.3114C66.8254 47.7042 67.2173 48.2331 67.5874 47.9829L72.3882 44.7493C72.6467 44.5751 72.6467 44.1412 72.3882 43.967L67.5874 40.7334C67.2173 40.4832 66.8227 41.0121 67.0894 41.4048C67.7044 42.3169 68.2215 43.3779 68.2215 44.3565" fill="#1CDBBC"/>
<path d="M79.3788 44.3597C79.3788 45.3383 78.8617 46.3993 78.2466 47.3114C77.9826 47.7042 78.3745 48.2331 78.7446 47.9829L83.5454 44.7493C83.804 44.5751 83.804 44.1412 83.5454 43.967L78.7446 40.7334C78.3745 40.4832 77.9799 41.0121 78.2466 41.4048C78.8617 42.3169 79.3788 43.3779 79.3788 44.3565" fill="#1CDBBC"/>
<path d="M62.6368 74.2506C62.6368 75.2292 62.1197 76.2902 61.5047 77.2023C61.2407 77.595 61.6326 78.124 62.0027 77.8738L66.8035 74.6402C67.062 74.466 67.062 74.0321 66.8035 73.8579L62.0027 70.6243C61.6326 70.3741 61.2379 70.903 61.5047 71.2957C62.1197 72.2078 62.6368 73.2688 62.6368 74.2474" fill="#1CDBBC"/>
<path d="M73.7979 74.2506C73.7979 75.2292 73.2809 76.2902 72.6658 77.2023C72.4018 77.595 72.7937 78.124 73.1638 77.8738L77.9646 74.6402C78.2232 74.466 78.2232 74.0321 77.9646 73.8579L73.1638 70.6243C72.7937 70.3741 72.3991 70.903 72.6658 71.2957C73.2809 72.2078 73.7979 73.2688 73.7979 74.2474" fill="#1CDBBC"/>
<path d="M84.9593 74.2506C84.9593 75.2292 84.4422 76.2902 83.8272 77.2023C83.5632 77.595 83.9551 78.124 84.3252 77.8738L89.126 74.6402C89.3845 74.466 89.3845 74.0321 89.126 73.8579L84.3252 70.6243C83.9551 70.3741 83.5605 70.903 83.8272 71.2957C84.4422 72.2078 84.9593 73.2688 84.9593 74.2474" fill="#1CDBBC"/>
<path d="M29.1512 34.3675C29.1512 35.3461 28.6341 36.4071 28.0191 37.3192C27.7551 37.712 28.147 38.2409 28.5171 37.9907L33.3179 34.7571C33.5764 34.5829 33.5764 34.149 33.3179 33.9748L28.5171 30.7412C28.147 30.491 27.7524 31.0199 28.0191 31.4126C28.6341 32.3247 29.1512 33.3857 29.1512 34.3644" fill="#1CDBBC"/>
<path d="M40.3124 34.3675C40.3124 35.3461 39.7953 36.4071 39.1802 37.3192C38.9162 37.712 39.3081 38.2409 39.6782 37.9907L44.479 34.7571C44.7376 34.5829 44.7376 34.149 44.479 33.9748L39.6782 30.7412C39.3081 30.491 38.9135 31.0199 39.1802 31.4126C39.7953 32.3247 40.3124 33.3857 40.3124 34.3644" fill="#1CDBBC"/>
<path d="M51.4754 34.3675C51.4754 35.3461 50.9583 36.4071 50.3433 37.3192C50.0793 37.712 50.4712 38.2409 50.8413 37.9907L55.6421 34.7571C55.9006 34.5829 55.9006 34.149 55.6421 33.9748L50.8413 30.7412C50.4712 30.491 50.0766 31.0199 50.3433 31.4126C50.9583 32.3247 51.4754 33.3857 51.4754 34.3644" fill="#1CDBBC"/>
<path opacity="0.5" d="M62.6368 34.3675C62.6368 35.3461 62.1197 36.4071 61.5047 37.3192C61.2407 37.712 61.6326 38.2409 62.0027 37.9907L66.8035 34.7571C67.062 34.5829 67.062 34.149 66.8035 33.9748L62.0027 30.7412C61.6326 30.491 61.2379 31.0199 61.5047 31.4126C62.1197 32.3247 62.6368 33.3857 62.6368 34.3644" fill="#1CDBBC"/>
<path d="M73.7979 34.3675C73.7979 35.3461 73.2809 36.4071 72.6658 37.3192C72.4018 37.712 72.7937 38.2409 73.1638 37.9907L77.9646 34.7571C78.2232 34.5829 78.2232 34.149 77.9646 33.9748L73.1638 30.7412C72.7937 30.491 72.3991 31.0199 72.6658 31.4126C73.2809 32.3247 73.7979 33.3857 73.7979 34.3644" fill="#1CDBBC"/>
<path d="M84.9593 34.3675C84.9593 35.3461 84.4422 36.4071 83.8272 37.3192C83.5632 37.712 83.9551 38.2409 84.3252 37.9907L89.126 34.7571C89.3845 34.5829 89.3845 34.149 89.126 33.9748L84.3252 30.7412C83.9551 30.491 83.5605 31.0199 83.8272 31.4126C84.4422 32.3247 84.9593 33.3857 84.9593 34.3644" fill="#1CDBBC"/>
<path d="M96.1185 34.3675C96.1185 35.3461 95.6014 36.4071 94.9863 37.3192C94.7224 37.712 95.1143 38.2409 95.4844 37.9907L100.285 34.7571C100.544 34.5829 100.544 34.149 100.285 33.9748L95.4844 30.7412C95.1143 30.491 94.7196 31.0199 94.9863 31.4126C95.6014 32.3247 96.1185 33.3857 96.1185 34.3644" fill="#1CDBBC"/>
<path d="M1.25313 4.56231C1.25313 5.54094 0.736049 6.60191 0.120982 7.51404C-0.143006 7.90676 0.248882 8.43566 0.619011 8.18546L5.4198 4.95186C5.67834 4.77767 5.67834 4.34378 5.4198 4.16959L0.621735 0.935994C0.251607 0.685794 -0.14302 1.2147 0.12369 1.60742C0.738756 2.51954 1.25586 3.58051 1.25586 4.55914" fill="#1CDBBC"/>
<path d="M12.4123 4.56231C12.4123 5.54094 11.8952 6.60191 11.2802 7.51404C11.0162 7.90676 11.4081 8.43566 11.7782 8.18546L16.579 4.95186C16.8375 4.77767 16.8375 4.34378 16.579 4.16959L11.7809 0.935994C11.4108 0.685794 11.0162 1.2147 11.2829 1.60742C11.898 2.51954 12.4151 3.58051 12.4151 4.55914" fill="#1CDBBC"/>
<path d="M6.8287 14.5543C6.8287 15.5329 6.31162 16.5939 5.69655 17.506C5.43256 17.8987 5.82447 18.4276 6.1946 18.1774L10.9954 14.9438C11.2539 14.7696 11.2539 14.3357 10.9954 14.1615L6.1946 10.9279C5.82447 10.6777 5.42984 11.2066 5.69655 11.5994C6.31162 12.5115 6.8287 13.5725 6.8287 14.5511" fill="#1CDBBC"/>
<path d="M17.9898 14.5543C17.9898 15.5329 17.4728 16.5939 16.8577 17.506C16.5937 17.8987 16.9856 18.4276 17.3557 18.1774L22.1565 14.9438C22.415 14.7696 22.415 14.3357 22.1565 14.1615L17.3557 10.9279C16.9856 10.6777 16.591 11.2066 16.8577 11.5994C17.4728 12.5115 17.9898 13.5725 17.9898 14.5511" fill="#1CDBBC"/>
<path d="M29.1512 14.5543C29.1512 15.5329 28.6341 16.5939 28.0191 17.506C27.7551 17.8987 28.147 18.4276 28.5171 18.1774L33.3179 14.9438C33.5764 14.7696 33.5764 14.3357 33.3179 14.1615L28.5171 10.9279C28.147 10.6777 27.7524 11.2066 28.0191 11.5994C28.6341 12.5115 29.1512 13.5725 29.1512 14.5511" fill="#1CDBBC"/>
<path opacity="0.3" d="M40.3124 14.5543C40.3124 15.5329 39.7953 16.5939 39.1802 17.506C38.9162 17.8987 39.3081 18.4276 39.6782 18.1774L44.479 14.9438C44.7376 14.7696 44.7376 14.3357 44.479 14.1615L39.6782 10.9279C39.3081 10.6777 38.9135 11.2066 39.1802 11.5994C39.7953 12.5115 40.3124 13.5725 40.3124 14.5511" fill="#1CDBBC"/>
<path d="M12.4134 24.4611C12.4134 25.4398 11.8963 26.5008 11.2813 27.4129C11.0173 27.8056 11.4092 28.3345 11.7793 28.0843L16.5801 24.8507C16.8386 24.6765 16.8386 24.2426 16.5801 24.0684L11.7793 20.8348C11.4092 20.5846 11.0146 21.1135 11.2813 21.5063C11.8963 22.4184 12.4134 23.4793 12.4134 24.458" fill="#1CDBBC"/>
<path d="M23.5746 24.4611C23.5746 25.4398 23.0575 26.5008 22.4424 27.4129C22.1784 27.8056 22.5703 28.3345 22.9404 28.0843L27.7412 24.8507C27.9998 24.6765 27.9998 24.2426 27.7412 24.0684L22.9404 20.8348C22.5703 20.5846 22.1757 21.1135 22.4424 21.5063C23.0575 22.4184 23.5746 23.4793 23.5746 24.458" fill="#1CDBBC"/>
<path d="M34.7357 24.4611C34.7357 25.4398 34.2186 26.5008 33.6035 27.4129C33.3395 27.8056 33.7315 28.3345 34.1016 28.0843L38.9024 24.8507C39.1609 24.6765 39.1609 24.2426 38.9024 24.0684L34.1016 20.8348C33.7315 20.5846 33.3368 21.1135 33.6035 21.5063C34.2186 22.4184 34.7357 23.4793 34.7357 24.458" fill="#1CDBBC"/>
<path d="M45.8971 24.4611C45.8971 25.4398 45.38 26.5008 44.7649 27.4129C44.5009 27.8056 44.8928 28.3345 45.263 28.0843L50.0637 24.8507C50.3223 24.6765 50.3223 24.2426 50.0637 24.0684L45.263 20.8348C44.8928 20.5846 44.4982 21.1135 44.7649 21.5063C45.38 22.4184 45.8971 23.4793 45.8971 24.458" fill="#1CDBBC"/>
<path d="M1.25009 24.4611C1.25009 25.4398 0.733006 26.5008 0.11794 27.4129C-0.146048 27.8056 0.245857 28.3345 0.615985 28.0843L5.41675 24.8507C5.6753 24.6765 5.6753 24.2426 5.41675 24.0684L0.615985 20.8348C0.245857 20.5846 -0.14877 21.1135 0.11794 21.5063C0.733006 22.4184 1.25009 23.4793 1.25009 24.458" fill="#1CDBBC"/>
<path opacity="0.5" d="M57.0604 24.4611C57.0604 25.4398 56.5433 26.5008 55.9282 27.4129C55.6643 27.8056 56.0561 28.3345 56.4263 28.0843L61.2271 24.8507C61.4856 24.6765 61.4856 24.2426 61.2271 24.0684L56.4263 20.8348C56.0561 20.5846 55.6615 21.1135 55.9282 21.5063C56.5433 22.4184 57.0604 23.4793 57.0604 24.458" fill="#1CDBBC"/>
<path d="M68.2215 24.4611C68.2215 25.4398 67.7044 26.5008 67.0894 27.4129C66.8254 27.8056 67.2173 28.3345 67.5874 28.0843L72.3882 24.8507C72.6467 24.6765 72.6467 24.2426 72.3882 24.0684L67.5874 20.8348C67.2173 20.5846 66.8227 21.1135 67.0894 21.5063C67.7044 22.4184 68.2215 23.4793 68.2215 24.458" fill="#1CDBBC"/>
<path d="M79.3788 24.4611C79.3788 25.4398 78.8617 26.5008 78.2466 27.4129C77.9826 27.8056 78.3745 28.3345 78.7446 28.0843L83.5454 24.8507C83.804 24.6765 83.804 24.2426 83.5454 24.0684L78.7446 20.8348C78.3745 20.5846 77.9799 21.1135 78.2466 21.5063C78.8617 22.4184 79.3788 23.4793 79.3788 24.458" fill="#1CDBBC"/>
<path d="M90.5399 24.4611C90.5399 25.4398 90.0228 26.5008 89.4077 27.4129C89.1437 27.8056 89.5357 28.3345 89.9058 28.0843L94.7066 24.8507C94.9651 24.6765 94.9651 24.2426 94.7066 24.0684L89.9058 20.8348C89.5357 20.5846 89.141 21.1135 89.4077 21.5063C90.0228 22.4184 90.5399 23.4793 90.5399 24.458" fill="#1CDBBC"/>
<path d="M101.701 24.4611C101.701 25.4398 101.184 26.5008 100.569 27.4129C100.305 27.8056 100.697 28.3345 101.067 28.0843L105.868 24.8507C106.126 24.6765 106.126 24.2426 105.868 24.0684L101.067 20.8348C100.697 20.5846 100.302 21.1135 100.569 21.5063C101.184 22.4184 101.701 23.4793 101.701 24.458" fill="#1CDBBC"/>
<path d="M51.4754 14.5543C51.4754 15.5329 50.9583 16.5939 50.3433 17.506C50.0793 17.8987 50.4712 18.4276 50.8413 18.1774L55.6421 14.9438C55.9006 14.7696 55.9006 14.3357 55.6421 14.1615L50.8413 10.9279C50.4712 10.6777 50.0766 11.2066 50.3433 11.5994C50.9583 12.5115 51.4754 13.5725 51.4754 14.5511" fill="#1CDBBC"/>
</g>
<defs>
<clipPath id="clip0_881_23187">
<rect width="645" height="78" fill="white"/>
</clipPath>
</defs>
</svg>
