<svg width="320" height="290" viewBox="0 0 320 290" fill="none" xmlns="http://www.w3.org/2000/svg">
<g clip-path="url(#clip0_1723_3960)">
<path d="M115.742 281.233C114.269 282.703 111.75 283.414 109.28 283.699C108.211 283.817 108.116 285.311 109.137 285.595L122.465 289.152C123.177 289.342 123.842 288.678 123.652 287.967L120.089 274.665C119.804 273.645 118.331 273.74 118.188 274.807C117.88 277.273 117.191 279.762 115.718 281.256" fill="#1CDBBC"/>
<path d="M135.958 266.413C137.431 267.883 138.144 270.397 138.429 272.863C138.548 273.93 140.044 274.025 140.33 273.005L143.893 259.703C144.083 258.992 143.418 258.328 142.705 258.517L129.378 262.074C128.356 262.359 128.451 263.829 129.52 263.971C131.991 264.279 134.485 264.967 135.982 266.437" fill="#1CDBBC"/>
<path d="M97.4965 261.837C96.0236 263.307 93.5054 264.018 91.0348 264.303C89.9657 264.421 89.8707 265.915 90.8922 266.2L104.22 269.756C104.932 269.946 105.598 269.282 105.407 268.571L101.844 255.269C101.559 254.249 100.086 254.344 99.9435 255.411C99.6346 257.877 98.9457 260.367 97.4728 261.86" fill="#1CDBBC"/>
<path d="M154.987 247.397C156.46 248.867 157.173 251.38 157.458 253.846C157.577 254.913 159.073 255.008 159.358 253.989L162.922 240.687C163.112 239.975 162.447 239.311 161.734 239.501L148.407 243.058C147.385 243.342 147.48 244.812 148.549 244.955C151.02 245.263 153.514 245.951 155.011 247.421" fill="#1CDBBC"/>
<path d="M79.4179 243.793C77.945 245.263 75.4268 245.974 72.9561 246.259C71.887 246.377 71.792 247.871 72.8136 248.155L86.141 251.712C86.8536 251.902 87.5188 251.238 87.3288 250.527L83.7653 237.225C83.4802 236.205 82.0073 236.3 81.8648 237.367C81.5559 239.833 80.867 242.323 79.3941 243.816" fill="#1CDBBC"/>
<path d="M115.742 240.473C114.269 241.943 111.75 242.654 109.28 242.939C108.211 243.058 108.116 244.551 109.137 244.836L122.465 248.393C123.177 248.582 123.842 247.918 123.652 247.207L120.089 233.905C119.804 232.885 118.331 232.98 118.188 234.047C117.88 236.513 117.191 239.003 115.718 240.497" fill="#1CDBBC"/>
<path d="M174.04 228.404C175.513 229.874 176.226 232.388 176.511 234.854C176.629 235.921 178.126 236.016 178.411 234.996L181.975 221.694C182.165 220.983 181.5 220.319 180.787 220.508L167.459 224.065C166.438 224.35 166.533 225.82 167.602 225.962C170.073 226.27 172.567 226.958 174.064 228.428" fill="#1CDBBC"/>
<path d="M61.3154 225.748C59.8425 227.218 57.3243 227.93 54.8536 228.214C53.7846 228.333 53.6895 229.827 54.7111 230.111L68.0385 233.668C68.7512 233.858 69.4164 233.194 69.2263 232.482L65.6628 219.18C65.3777 218.161 63.9048 218.256 63.7623 219.323C63.4535 221.789 62.7645 224.278 61.2916 225.772" fill="#1CDBBC"/>
<path d="M135.65 225.511C137.122 226.981 137.835 229.495 138.12 231.961C138.239 233.028 139.736 233.123 140.021 232.103L143.584 218.801C143.774 218.09 143.109 217.426 142.396 217.616L129.069 221.172C128.047 221.457 128.142 222.927 129.212 223.069C131.682 223.377 134.177 224.065 135.673 225.535" fill="#1CDBBC"/>
<path d="M97.1402 220.864C95.6673 222.334 93.1491 223.045 90.6784 223.33C89.6094 223.448 89.5144 224.942 90.5359 225.227L103.863 228.783C104.576 228.973 105.241 228.309 105.051 227.598L101.488 214.296C101.203 213.276 99.7297 213.371 99.5871 214.438C99.2783 216.904 98.5894 219.394 97.1165 220.888" fill="#1CDBBC"/>
<path d="M193.069 209.388C194.542 210.858 195.255 213.371 195.54 215.837C195.658 216.904 197.155 216.999 197.44 215.979L201.004 202.677C201.194 201.966 200.529 201.302 199.816 201.492L186.488 205.048C185.467 205.333 185.562 206.803 186.631 206.945C189.102 207.254 191.596 207.941 193.093 209.411" fill="#1CDBBC"/>
<path d="M43.2367 207.681C41.7638 209.151 39.2456 209.862 36.7749 210.146C35.7059 210.265 35.6109 211.759 36.6324 212.043L49.9598 215.6C50.6725 215.79 51.3377 215.126 51.1476 214.415L47.5841 201.113C47.2991 200.093 45.8262 200.188 45.6836 201.255C45.3748 203.721 44.6859 206.21 43.2129 207.704" fill="#1CDBBC"/>
<path d="M154.655 206.519C156.128 207.989 156.84 210.502 157.125 212.968C157.244 214.035 158.741 214.13 159.026 213.11L162.589 199.808C162.779 199.097 162.114 198.433 161.402 198.623L148.074 202.18C147.053 202.464 147.148 203.934 148.217 204.076C150.687 204.385 153.182 205.072 154.678 206.542" fill="#1CDBBC"/>
<path d="M78.9902 202.749C77.5173 204.219 74.9991 204.93 72.5284 205.215C71.4594 205.333 71.3643 206.827 72.3859 207.112L85.7133 210.668C86.426 210.858 87.0912 210.194 86.9011 209.483L83.3376 196.181C83.0526 195.161 81.5797 195.256 81.4371 196.323C81.1283 198.789 80.4393 201.279 78.9664 202.772" fill="#1CDBBC"/>
<path d="M115.742 199.737C114.269 201.208 111.75 201.919 109.28 202.203C108.211 202.322 108.116 203.816 109.137 204.1L122.465 207.657C123.177 207.847 123.842 207.183 123.652 206.471L120.089 193.169C119.804 192.15 118.331 192.245 118.188 193.312C117.88 195.778 117.191 198.267 115.718 199.761" fill="#1CDBBC"/>
<path d="M212.122 190.395C213.595 191.865 214.307 194.379 214.592 196.845C214.711 197.912 216.208 198.006 216.493 196.987L220.056 183.685C220.246 182.974 219.581 182.31 218.869 182.499L205.541 186.056C204.52 186.341 204.615 187.811 205.684 187.953C208.154 188.261 210.649 188.949 212.145 190.419" fill="#1CDBBC"/>
<path d="M25.158 189.636C23.6851 191.106 21.1669 191.818 18.6962 192.102C17.6272 192.221 17.5321 193.715 18.5537 193.999L31.8811 197.556C32.5938 197.746 33.2589 197.082 33.0689 196.37L29.5054 183.068C29.2203 182.049 27.7474 182.144 27.6049 183.211C27.2961 185.677 26.6071 188.166 25.1342 189.66" fill="#1CDBBC"/>
<path d="M173.684 187.526C175.157 188.996 175.869 191.51 176.154 193.975C176.273 195.042 177.77 195.137 178.055 194.118L181.618 180.816C181.808 180.104 181.143 179.441 180.43 179.63L167.103 183.187C166.082 183.471 166.177 184.942 167.246 185.084C169.716 185.392 172.211 186.08 173.707 187.55" fill="#1CDBBC"/>
<path d="M134.462 186.008C135.935 187.479 136.647 189.992 136.932 192.458C137.051 193.525 138.548 193.62 138.833 192.6L142.396 179.298C142.586 178.587 141.921 177.923 141.209 178.113L127.881 181.669C126.86 181.954 126.955 183.424 128.024 183.566C130.494 183.874 132.989 184.562 134.485 186.032" fill="#1CDBBC"/>
<path d="M60.864 184.657C59.3911 186.127 56.8729 186.839 54.4023 187.123C53.3332 187.242 53.2382 188.735 54.2597 189.02L67.5871 192.577C68.2998 192.766 68.965 192.102 68.7749 191.391L65.2115 178.089C64.9264 177.07 63.4535 177.164 63.3109 178.231C63.0021 180.697 62.3132 183.187 60.8403 184.681" fill="#1CDBBC"/>
<path d="M97.3778 180.27C95.9049 181.74 93.3867 182.452 90.916 182.736C89.8469 182.855 89.7519 184.349 90.7735 184.633L104.101 188.19C104.814 188.38 105.479 187.716 105.289 187.004L101.725 173.702C101.44 172.683 99.9672 172.778 99.8247 173.845C99.5158 176.311 98.8269 178.8 97.354 180.294" fill="#1CDBBC"/>
<path d="M7.0793 171.592C5.60639 173.062 3.0882 173.774 0.617528 174.058C-0.451515 174.177 -0.546541 175.67 0.474988 175.955L13.8024 179.512C14.5151 179.701 15.1803 179.037 14.9902 178.326L11.4267 165.024C11.1417 164.005 9.66876 164.099 9.52622 165.166C9.21738 167.632 8.52845 170.122 7.05554 171.616" fill="#1CDBBC"/>
<path d="M231.151 171.379C232.624 172.849 233.336 175.362 233.621 177.828C233.74 178.895 235.237 178.99 235.522 177.971L239.085 164.669C239.275 163.957 238.61 163.293 237.898 163.483L224.57 167.04C223.549 167.324 223.644 168.794 224.713 168.937C227.183 169.245 229.678 169.932 231.174 171.403" fill="#1CDBBC"/>
<path d="M192.713 168.533C194.186 170.003 194.898 172.517 195.183 174.983C195.302 176.05 196.799 176.145 197.084 175.125L200.647 161.823C200.837 161.112 200.172 160.448 199.46 160.638L186.132 164.194C185.111 164.479 185.206 165.949 186.275 166.091C188.745 166.399 191.24 167.087 192.736 168.557" fill="#1CDBBC"/>
<path d="M152.232 168.296C153.704 169.766 154.417 172.28 154.702 174.746C154.821 175.813 156.318 175.908 156.603 174.888L160.166 161.586C160.356 160.875 159.691 160.211 158.978 160.4L145.651 163.957C144.629 164.242 144.725 165.712 145.794 165.854C148.264 166.162 150.759 166.85 152.255 168.32" fill="#1CDBBC"/>
<path d="M42.7141 166.542C41.2412 168.012 38.723 168.723 36.2523 169.008C35.1833 169.126 35.0882 170.62 36.1098 170.904L49.4372 174.461C50.1499 174.651 50.815 173.987 50.625 173.276L47.0615 159.974C46.7764 158.954 45.3035 159.049 45.161 160.116C44.8521 162.582 44.1632 165.072 42.6903 166.565" fill="#1CDBBC"/>
<path d="M79.3703 162.297C77.8974 163.767 75.3792 164.479 72.9085 164.763C71.8395 164.882 71.7445 166.376 72.766 166.66L86.0934 170.217C86.8061 170.406 87.4713 169.743 87.2812 169.031L83.7178 155.729C83.4327 154.71 81.9598 154.804 81.8172 155.872C81.5084 158.337 80.8195 160.827 79.3466 162.321" fill="#1CDBBC"/>
<path d="M250.18 152.386C251.653 153.856 252.365 156.37 252.65 158.836C252.769 159.903 254.266 159.997 254.551 158.978L258.114 145.676C258.304 144.965 257.639 144.301 256.926 144.49L243.599 148.047C242.578 148.332 242.673 149.802 243.742 149.944C246.212 150.252 248.707 150.94 250.203 152.41" fill="#1CDBBC"/>
<path d="M169.978 150.56C171.451 152.03 172.163 154.544 172.448 157.01C172.567 158.077 174.064 158.172 174.349 157.152L177.912 143.85C178.102 143.139 177.437 142.475 176.725 142.664L163.397 146.221C162.376 146.506 162.471 147.976 163.54 148.118C166.01 148.426 168.505 149.114 170.001 150.584" fill="#1CDBBC"/>
<path d="M211.742 149.541C213.214 151.011 213.927 153.524 214.212 155.99C214.331 157.057 215.828 157.152 216.113 156.132L219.676 142.83C219.866 142.119 219.201 141.455 218.488 141.645L205.161 145.202C204.139 145.486 204.235 146.956 205.304 147.098C207.774 147.407 210.269 148.094 211.765 149.564" fill="#1CDBBC"/>
<path d="M24.564 148.426C23.0911 149.896 20.5729 150.608 18.1023 150.892C17.0332 151.011 16.9382 152.505 17.9597 152.789L31.2871 156.346C31.9998 156.536 32.665 155.872 32.475 155.16L28.9115 141.858C28.6264 140.839 27.1535 140.934 27.011 142.001C26.7021 144.467 26.0132 146.956 24.5403 148.45" fill="#1CDBBC"/>
<path d="M61.3867 144.348C59.9138 145.818 57.3956 146.529 54.9249 146.814C53.8559 146.933 53.7608 148.426 54.7824 148.711L68.1098 152.268C68.8225 152.457 69.4876 151.793 69.2976 151.082L65.7341 137.78C65.449 136.76 63.9761 136.855 63.8336 137.922C63.5248 140.388 62.8358 142.878 61.3629 144.372" fill="#1CDBBC"/>
<path d="M269.232 133.393C270.705 134.864 271.418 137.377 271.703 139.843C271.822 140.91 273.318 141.005 273.603 139.985L277.167 126.683C277.357 125.972 276.692 125.308 275.979 125.498L262.652 129.054C261.63 129.339 261.725 130.809 262.794 130.951C265.265 131.259 267.759 131.947 269.256 133.417" fill="#1CDBBC"/>
<path d="M187.748 132.848C189.22 134.318 189.933 136.832 190.218 139.298C190.337 140.365 191.834 140.459 192.119 139.44L195.682 126.138C195.872 125.426 195.207 124.763 194.494 124.952L181.167 128.509C180.145 128.793 180.24 130.264 181.309 130.406C183.78 130.714 186.275 131.402 187.771 132.872" fill="#1CDBBC"/>
<path d="M6.43788 130.335C4.96497 131.805 2.44679 132.516 -0.0238911 132.801C-1.09293 132.919 -1.18796 134.413 -0.16643 134.697L13.161 138.254C13.8737 138.444 14.5388 137.78 14.3488 137.069L10.7853 123.767C10.5002 122.747 9.02734 122.842 8.8848 123.909C8.57596 126.375 7.88702 128.865 6.41412 130.358" fill="#1CDBBC"/>
<path d="M230.771 130.548C232.243 132.018 232.956 134.531 233.241 136.997C233.36 138.064 234.857 138.159 235.142 137.14L238.705 123.838C238.895 123.126 238.23 122.463 237.517 122.652L224.19 126.209C223.168 126.493 223.263 127.964 224.332 128.106C226.803 128.414 229.298 129.102 230.794 130.572" fill="#1CDBBC"/>
<path d="M43.403 126.399C41.9301 127.869 39.4119 128.58 36.9412 128.865C35.8722 128.983 35.7771 130.477 36.7987 130.761L50.1261 134.318C50.8387 134.508 51.5039 133.844 51.3139 133.133L47.7504 119.831C47.4653 118.811 45.9924 118.906 45.8499 119.973C45.5411 122.439 44.8521 124.928 43.3792 126.422" fill="#1CDBBC"/>
<path d="M205.494 115.112C206.967 116.582 207.679 119.095 207.964 121.561C208.083 122.628 209.58 122.723 209.865 121.704L213.428 108.402C213.618 107.69 212.953 107.026 212.241 107.216L198.913 110.773C197.892 111.057 197.987 112.527 199.056 112.67C201.526 112.978 204.021 113.666 205.517 115.136" fill="#1CDBBC"/>
<path d="M288.261 114.377C289.734 115.847 290.447 118.361 290.732 120.827C290.851 121.894 292.347 121.988 292.633 120.969L296.196 107.667C296.386 106.956 295.721 106.292 295.008 106.481L281.681 110.038C280.659 110.323 280.754 111.793 281.823 111.935C284.294 112.243 286.788 112.931 288.285 114.401" fill="#1CDBBC"/>
<path d="M249.799 111.579C251.272 113.049 251.985 115.563 252.27 118.028C252.389 119.095 253.886 119.19 254.171 118.171L257.734 104.869C257.924 104.157 257.259 103.494 256.546 103.683L243.219 107.24C242.197 107.524 242.292 108.995 243.361 109.137C245.832 109.445 248.327 110.133 249.823 111.603" fill="#1CDBBC"/>
<path d="M25.3955 108.426C23.9226 109.896 21.4044 110.607 18.9338 110.892C17.8647 111.01 17.7697 112.504 18.7912 112.789L32.1186 116.345C32.8313 116.535 33.4965 115.871 33.3064 115.16L29.743 101.858C29.4579 100.838 27.985 100.933 27.8424 102C27.5336 104.466 26.8447 106.956 25.3718 108.449" fill="#1CDBBC"/>
<path d="M223.263 97.3998C224.736 98.8699 225.449 101.383 225.734 103.849C225.853 104.916 227.35 105.011 227.635 103.992L231.198 90.6896C231.388 89.9782 230.723 89.3143 230.01 89.504L216.683 93.0607C215.661 93.3452 215.756 94.8153 216.825 94.9576C219.296 95.2658 221.791 95.9535 223.287 97.4235" fill="#1CDBBC"/>
<path d="M307.314 95.3845C308.787 96.8545 309.5 99.3679 309.785 101.834C309.903 102.901 311.4 102.996 311.685 101.976L315.249 88.6742C315.439 87.9629 314.774 87.2989 314.061 87.4886L300.733 91.0453C299.712 91.3298 299.807 92.7999 300.876 92.9422C303.347 93.2504 305.841 93.9381 307.338 95.4082" fill="#1CDBBC"/>
<path d="M268.805 92.5864C270.278 94.0565 270.99 96.5698 271.275 99.0358C271.394 100.103 272.891 100.198 273.176 99.1781L276.739 85.8761C276.929 85.1648 276.264 84.5008 275.552 84.6905L262.224 88.2472C261.203 88.5317 261.298 90.0018 262.367 90.1441C264.837 90.4524 267.332 91.14 268.828 92.6101" fill="#1CDBBC"/>
<path d="M7.41188 90.4762C5.93897 91.9463 3.42078 92.6576 0.950108 92.9421C-0.118935 93.0607 -0.213961 94.5545 0.807569 94.839L14.135 98.3957C14.8477 98.5854 15.5128 97.9215 15.3228 97.2102L11.7593 83.9082C11.4742 82.8886 10.0013 82.9835 9.8588 84.0505C9.54996 86.5164 8.86102 89.0061 7.38812 90.4999" fill="#1CDBBC"/>
<path d="M241.01 79.664C242.482 81.1341 243.195 83.6475 243.48 86.1134C243.599 87.1804 245.096 87.2753 245.381 86.2557L248.944 72.9537C249.134 72.2424 248.469 71.5785 247.756 71.7682L234.429 75.3248C233.408 75.6094 233.503 77.0795 234.572 77.2217C237.042 77.53 239.537 78.2176 241.033 79.6877" fill="#1CDBBC"/>
<path d="M287.834 73.5939C289.307 75.064 290.019 77.5774 290.304 80.0434C290.423 81.1104 291.92 81.2052 292.205 80.1856L295.768 66.8837C295.958 66.1723 295.293 65.5084 294.581 65.6981L281.253 69.2548C280.232 69.5393 280.327 71.0094 281.396 71.1517C283.866 71.4599 286.361 72.1475 287.857 73.6176" fill="#1CDBBC"/>
<path d="M258.779 61.9516C260.252 63.4217 260.965 65.9351 261.25 68.401C261.369 69.468 262.866 69.5629 263.151 68.5433L266.714 55.2413C266.904 54.53 266.239 53.8661 265.526 54.0558L252.199 57.6124C251.177 57.897 251.272 59.3671 252.341 59.5093C254.812 59.8176 257.307 60.5052 258.803 61.9753" fill="#1CDBBC"/>
<path d="M306.863 54.6012C308.336 56.0713 309.048 58.5847 309.333 61.0507C309.452 62.1177 310.949 62.2125 311.234 61.193L314.797 47.891C314.987 47.1796 314.322 46.5157 313.61 46.7054L300.282 50.2621C299.261 50.5466 299.356 52.0167 300.425 52.159C302.895 52.4672 305.39 53.1549 306.886 54.625" fill="#1CDBBC"/>
<path d="M276.526 44.2157C277.998 45.6858 278.711 48.1992 278.996 50.6652C279.115 51.7322 280.612 51.827 280.897 50.8075L284.46 37.5055C284.65 36.7942 283.985 36.1302 283.272 36.3199L269.945 39.8766C268.923 40.1611 269.019 41.6312 270.088 41.7735C272.558 42.0817 275.053 42.7694 276.549 44.2395" fill="#1CDBBC"/>
<path d="M294.295 26.5033C295.768 27.9734 296.481 30.4868 296.766 32.9528C296.885 34.0198 298.382 34.1146 298.667 33.0951L302.23 19.7931C302.42 19.0817 301.755 18.4178 301.042 18.6075L287.715 22.1642C286.693 22.4487 286.788 23.9188 287.857 24.0611C290.328 24.3693 292.823 25.057 294.319 26.5271" fill="#1CDBBC"/>
<path d="M312.042 8.76751C313.514 10.2376 314.227 12.751 314.512 15.2169C314.631 16.284 316.128 16.3788 316.413 15.3592L319.976 2.05724C320.166 1.34591 319.501 0.681996 318.788 0.871685L305.461 4.42836C304.439 4.7129 304.534 6.18299 305.603 6.32526C308.074 6.6335 310.569 7.32113 312.065 8.79122" fill="#1CDBBC"/>
</g>
<defs>
<clipPath id="clip0_1723_3960">
<rect width="320.879" height="288.352" fill="white" transform="translate(-0.87915 0.824219)"/>
</clipPath>
</defs>
</svg>
