<svg width="320" height="288" viewBox="0 0 320 288" fill="none" xmlns="http://www.w3.org/2000/svg">
<path d="M99.8358 10.5061C101.54 10.7333 103.244 12.0967 104.608 13.5738C105.176 14.2555 106.198 13.5738 105.971 12.7784L101.767 2.32554C101.54 1.75744 100.745 1.64383 100.404 2.0983L93.3596 11.0742C92.7915 11.7559 93.5868 12.6648 94.3821 12.2104C96.0864 11.0742 98.1315 10.2788 99.8358 10.5061Z" fill="#1CDBBC"/>
<path d="M96.8817 31.6391C98.586 31.8664 100.29 33.2298 101.654 34.7068C102.222 35.3885 103.244 34.7068 103.017 33.9115L98.8132 23.4586C98.586 22.8905 97.7907 22.7769 97.4498 23.2314L90.4055 32.2072C89.8374 32.8889 90.6327 33.7979 91.428 33.3434C93.1323 32.0936 95.1774 31.2983 96.8817 31.6391Z" fill="#1CDBBC"/>
<path d="M93.9276 52.6584C95.6319 52.8857 97.3362 54.2491 98.6996 55.7261C99.2677 56.4078 100.29 55.7261 100.063 54.9308L95.8591 44.4779C95.6319 43.9098 94.8366 43.7962 94.4957 44.2506L87.4514 53.2265C86.8833 53.9082 87.6786 54.8172 88.4739 54.3627C90.1782 53.2265 92.2233 52.4312 93.9276 52.6584Z" fill="#1CDBBC"/>
<path d="M90.9735 73.6779C92.6778 73.9052 94.3821 75.2686 95.7455 76.7457C96.3136 77.4274 97.3361 76.7456 97.1089 75.9503L92.905 65.4974C92.6778 64.9293 91.8825 64.8157 91.5416 65.2702L84.4973 74.246C83.9292 74.9277 84.7245 75.8367 85.5198 75.3822C87.2241 74.246 89.2692 73.4507 90.9735 73.6779Z" fill="#1CDBBC"/>
<path d="M88.0194 94.811C89.7237 95.0382 91.428 96.4017 92.7914 97.8787C93.3595 98.5604 94.382 97.8787 94.1548 97.0834L89.9509 86.6305C89.7237 86.0624 88.9284 85.9488 88.5875 86.4032L81.5431 95.3791C80.9751 96.0608 81.7704 96.9697 82.5657 96.5153C84.27 95.2655 86.3151 94.5838 88.0194 94.811Z" fill="#1CDBBC"/>
<path d="M84.9518 115.83C86.6561 116.058 88.3603 117.421 89.7238 118.898C90.2918 119.58 91.3144 118.898 91.0872 118.103L86.8833 107.65C86.6561 107.082 85.8607 106.968 85.5199 107.423L78.4755 116.398C77.9074 117.08 78.7028 117.989 79.4981 117.535C81.316 116.398 83.2475 115.603 84.9518 115.83Z" fill="#1CDBBC"/>
<path d="M81.9977 136.85C83.7019 137.077 85.4062 138.44 86.7697 139.918C87.3377 140.599 88.3603 139.918 88.1331 139.122L83.9292 128.669C83.702 128.101 82.9066 127.988 82.5658 128.442L75.5214 137.418C74.9533 138.1 75.7487 139.009 76.544 138.554C78.3619 137.418 80.2934 136.623 81.9977 136.85Z" fill="#1CDBBC"/>
<path d="M79.0436 157.983C80.7478 158.21 82.4521 159.574 83.8155 161.051C84.3836 161.732 85.4062 161.051 85.179 160.255L80.9751 149.802C80.7478 149.234 79.9525 149.121 79.6117 149.575L72.5673 158.551C71.9992 159.233 72.7946 160.142 73.5899 159.687C75.4078 158.551 77.3393 157.756 79.0436 157.983Z" fill="#1CDBBC"/>
<path d="M76.0895 179.002C77.7938 179.229 79.498 180.593 80.8615 182.07C81.4295 182.752 82.4521 182.07 82.2249 181.275L78.021 170.822C77.7938 170.254 76.9984 170.14 76.6576 170.594L69.6132 179.57C69.0451 180.252 69.8405 181.161 70.6358 180.706C72.4537 179.57 74.3852 178.775 76.0895 179.002Z" fill="#1CDBBC"/>
<path d="M73.1354 200.022C74.8397 200.249 76.5439 201.612 77.9073 203.089C78.4754 203.771 79.498 203.089 79.2708 202.294L75.0669 191.841C74.8397 191.273 74.0443 191.159 73.7035 191.614L66.6591 200.59C66.091 201.272 66.8864 202.18 67.6817 201.726C69.4996 200.59 71.4311 199.794 73.1354 200.022Z" fill="#1CDBBC"/>
<path d="M70.1813 221.155C71.8855 221.382 73.5898 222.745 74.9532 224.222C75.5213 224.904 76.5439 224.222 76.3167 223.427L72.1128 212.974C71.8855 212.406 71.0902 212.293 70.7494 212.747L63.705 221.723C63.1369 222.405 63.9323 223.314 64.7276 222.859C66.5455 221.723 68.477 220.928 70.1813 221.155Z" fill="#1CDBBC"/>
<path d="M67.2272 242.174C68.9314 242.401 70.6357 243.765 71.9991 245.242C72.5672 245.923 73.5898 245.242 73.3626 244.446L69.1587 233.994C68.9314 233.425 68.1361 233.312 67.7953 233.766L60.7509 242.742C60.1828 243.424 60.9782 244.333 61.7735 243.878C63.5914 242.742 65.5229 241.947 67.2272 242.174Z" fill="#1CDBBC"/>
<path d="M64.2732 263.307C65.9775 263.535 67.6817 264.898 69.0452 266.375C69.6133 267.057 70.6358 266.375 70.4086 265.58L66.2047 255.127C65.9775 254.559 65.1821 254.445 64.8413 254.9L57.7969 263.875C57.2288 264.557 58.0242 265.466 58.8195 265.012C60.6374 263.762 62.5689 262.966 64.2732 263.307Z" fill="#1CDBBC"/>
<path d="M61.3191 284.327C63.0234 284.554 64.7276 285.917 66.0911 287.394C66.6592 288.076 67.6817 287.394 67.4545 286.599L63.2506 276.146C63.0234 275.578 62.228 275.464 61.8872 275.919L54.8428 284.895C54.2747 285.576 55.0701 286.485 55.8654 286.031C57.6833 284.895 59.6148 284.099 61.3191 284.327Z" fill="#1CDBBC"/>
<path d="M122.559 10.5062C124.264 10.7334 125.968 12.0968 127.331 13.5739C127.9 14.2556 128.922 13.5739 128.695 12.7785L124.491 2.21201C124.264 1.64392 123.468 1.5303 123.128 1.98478L116.083 10.9606C115.515 11.6423 116.31 12.5513 117.106 12.0968C118.924 11.0743 120.855 10.2789 122.559 10.5062Z" fill="#1CDBBC"/>
<path d="M119.605 31.6391C121.31 31.8664 123.014 33.2298 124.377 34.7068C124.945 35.3885 125.968 34.7068 125.741 33.9115L121.537 23.4586C121.31 22.8905 120.514 22.7769 120.173 23.2314L113.129 32.2072C112.561 32.8889 113.356 33.7979 114.152 33.3434C115.97 32.0936 117.901 31.2983 119.605 31.6391Z" fill="#1CDBBC"/>
<path d="M116.651 52.6584C118.356 52.8857 120.06 54.2491 121.423 55.7261C121.991 56.4078 123.014 55.7261 122.787 54.9308L118.583 44.4779C118.356 43.9098 117.56 43.7962 117.219 44.2506L110.175 53.2265C109.607 53.9082 110.402 54.8172 111.198 54.3627C113.015 53.2265 114.947 52.4312 116.651 52.6584Z" fill="#1CDBBC"/>
<path d="M113.697 73.6779C115.401 73.9052 117.106 75.2686 118.469 76.7457C119.037 77.4274 120.06 76.7456 119.833 75.9503L115.629 65.4974C115.401 64.9293 114.606 64.8157 114.265 65.2702L107.221 74.246C106.653 74.9277 107.448 75.8367 108.243 75.3822C110.061 74.246 111.993 73.4507 113.697 73.6779Z" fill="#1CDBBC"/>
<path d="M110.743 94.811C112.447 95.0382 114.152 96.4017 115.515 97.8787C116.083 98.5604 117.106 97.8787 116.878 97.0834L112.675 86.6305C112.447 86.0624 111.652 85.9488 111.311 86.4032L104.267 95.3791C103.699 96.0608 104.494 96.9697 105.289 96.5153C107.107 95.2655 109.039 94.5838 110.743 94.811Z" fill="#1CDBBC"/>
<path d="M107.789 115.83C109.493 116.058 111.198 117.421 112.561 118.898C113.129 119.58 114.152 118.898 113.924 118.103L109.721 107.65C109.493 107.082 108.698 106.968 108.357 107.423L101.313 116.398C100.745 117.08 101.54 117.989 102.335 117.535C104.153 116.398 106.085 115.603 107.789 115.83Z" fill="#1CDBBC"/>
<path d="M104.835 136.85C106.539 137.077 108.244 138.44 109.607 139.918C110.175 140.599 111.198 139.918 110.97 139.122L106.766 128.669C106.539 128.101 105.744 127.988 105.403 128.442L98.3587 137.418C97.7906 138.1 98.5859 139.009 99.3813 138.554C101.199 137.418 103.131 136.623 104.835 136.85Z" fill="#1CDBBC"/>
<path d="M101.881 157.983C103.585 158.21 105.289 159.574 106.653 161.051C107.221 161.732 108.243 161.051 108.016 160.255L103.812 149.802C103.585 149.234 102.79 149.121 102.449 149.575L95.4046 158.551C94.8365 159.233 95.6318 160.142 96.4272 159.687C98.1314 158.551 100.177 157.756 101.881 157.983Z" fill="#1CDBBC"/>
<path d="M98.9269 179.002C100.631 179.229 102.335 180.593 103.699 182.07C104.267 182.752 105.29 182.07 105.062 181.275L100.858 170.822C100.631 170.254 99.8358 170.14 99.495 170.594L92.4506 179.57C91.8825 180.252 92.6779 181.161 93.4732 180.706C95.1775 179.57 97.2226 178.775 98.9269 179.002Z" fill="#1CDBBC"/>
<path d="M95.9728 200.022C97.6771 200.249 99.3813 201.612 100.745 203.089C101.313 203.771 102.335 203.089 102.108 202.294L97.9043 191.841C97.6771 191.273 96.8817 191.159 96.5409 191.614L89.4965 200.59C88.9284 201.272 89.7238 202.18 90.5191 201.726C92.2234 200.59 94.2685 199.794 95.9728 200.022Z" fill="#1CDBBC"/>
<path d="M93.0187 221.155C94.723 221.382 96.4272 222.745 97.7907 224.222C98.3587 224.904 99.3813 224.222 99.1541 223.427L94.9502 212.974C94.723 212.406 93.9276 212.293 93.5868 212.747L86.5424 221.723C85.9743 222.405 86.7697 223.314 87.565 222.859C89.2693 221.723 91.3144 220.928 93.0187 221.155Z" fill="#1CDBBC"/>
<path d="M90.0646 242.174C91.7688 242.401 93.4731 243.765 94.8365 245.242C95.4046 245.923 96.4272 245.242 96.2 244.446L91.9961 233.994C91.7688 233.425 90.9735 233.312 90.6327 233.766L83.5883 242.742C83.0202 243.424 83.8156 244.333 84.6109 243.878C86.3152 242.742 88.3603 241.947 90.0646 242.174Z" fill="#1CDBBC"/>
<path d="M87.1105 263.307C88.8147 263.535 90.519 264.898 91.8824 266.375C92.4505 267.057 93.4731 266.375 93.2459 265.58L89.042 255.127C88.8147 254.559 88.0194 254.445 87.6786 254.9L80.6342 263.875C80.0661 264.557 80.8615 265.466 81.6568 265.012C83.3611 263.762 85.4062 262.966 87.1105 263.307Z" fill="#1CDBBC"/>
<path d="M84.1564 284.327C85.8606 284.554 87.5649 285.917 88.9283 287.394C89.4964 288.076 90.519 287.394 90.2918 286.599L86.0879 276.146C85.8606 275.578 85.0653 275.464 84.7245 275.919L77.6801 284.895C77.112 285.576 77.9073 286.485 78.7027 286.031C80.407 284.895 82.4521 284.099 84.1564 284.327Z" fill="#1CDBBC"/>
<path d="M145.397 10.5062C147.101 10.7334 148.805 12.0968 150.169 13.5739C150.737 14.2556 151.759 13.5739 151.532 12.7785L147.215 2.21201C146.987 1.64392 146.192 1.5303 145.851 1.98478L138.807 10.9606C138.239 11.6423 139.034 12.5513 139.829 12.0968C141.647 11.0743 143.692 10.2789 145.397 10.5062Z" fill="#1CDBBC"/>
<path d="M142.443 31.6391C144.147 31.8664 145.851 33.2298 147.215 34.7068C147.783 35.3885 148.805 34.7068 148.578 33.9115L144.374 23.4586C144.147 22.8905 143.352 22.7769 143.011 23.2314L135.966 32.2072C135.398 32.8889 136.194 33.7979 136.989 33.3434C138.693 32.0936 140.738 31.2983 142.443 31.6391Z" fill="#1CDBBC"/>
<path d="M139.489 52.6584C141.193 52.8857 142.897 54.2491 144.261 55.7261C144.829 56.4078 145.851 55.7261 145.624 54.9308L141.42 44.4779C141.193 43.9098 140.398 43.7962 140.057 44.2506L133.012 53.2265C132.444 53.9082 133.24 54.8172 134.035 54.3627C135.739 53.2265 137.784 52.4312 139.489 52.6584Z" fill="#1CDBBC"/>
<path d="M136.535 73.6779C138.239 73.9052 139.943 75.2686 141.307 76.7457C141.875 77.4274 142.897 76.7456 142.67 75.9503L138.466 65.4974C138.239 64.9293 137.444 64.8157 137.103 65.2702L130.058 74.246C129.49 74.9277 130.286 75.8367 131.081 75.3822C132.785 74.246 134.83 73.4507 136.535 73.6779Z" fill="#1CDBBC"/>
<path d="M133.58 94.811C135.285 95.0382 136.989 96.4017 138.352 97.8787C138.921 98.5604 139.943 97.8787 139.716 97.0834L135.512 86.6305C135.285 86.0624 134.489 85.9488 134.149 86.4032L127.104 95.3791C126.536 96.0608 127.331 96.9697 128.127 96.5153C129.831 95.2655 131.876 94.5838 133.58 94.811Z" fill="#1CDBBC"/>
<path d="M130.626 115.83C132.331 116.058 134.035 117.421 135.398 118.898C135.966 119.58 136.989 118.898 136.762 118.103L132.558 107.65C132.331 107.082 131.535 106.968 131.194 107.423L124.15 116.398C123.582 117.08 124.377 117.989 125.173 117.535C126.877 116.398 128.922 115.603 130.626 115.83Z" fill="#1CDBBC"/>
<path d="M127.672 136.85C129.377 137.077 131.081 138.44 132.444 139.918C133.012 140.599 134.035 139.918 133.808 139.122L129.604 128.669C129.377 128.101 128.581 127.988 128.24 128.442L121.196 137.418C120.628 138.1 121.423 139.009 122.219 138.554C123.923 137.418 125.968 136.623 127.672 136.85Z" fill="#1CDBBC"/>
<path d="M124.718 157.983C126.422 158.21 128.127 159.574 129.49 161.051C130.058 161.732 131.081 161.051 130.854 160.255L126.65 149.802C126.422 149.234 125.627 149.121 125.286 149.575L118.242 158.551C117.674 159.233 118.469 160.142 119.264 159.687C120.969 158.551 123.014 157.756 124.718 157.983Z" fill="#1CDBBC"/>
<path d="M121.764 179.002C123.468 179.229 125.173 180.593 126.536 182.07C127.104 182.752 128.127 182.07 127.899 181.275L123.696 170.822C123.468 170.254 122.673 170.14 122.332 170.594L115.288 179.57C114.72 180.252 115.515 181.161 116.31 180.706C118.015 179.57 120.06 178.775 121.764 179.002Z" fill="#1CDBBC"/>
<path d="M118.696 200.022C120.401 200.249 122.105 201.612 123.468 203.089C124.036 203.771 125.059 203.089 124.832 202.294L120.628 191.841C120.401 191.273 119.605 191.159 119.264 191.614L112.22 200.59C111.652 201.272 112.447 202.18 113.243 201.726C115.061 200.59 116.992 199.794 118.696 200.022Z" fill="#1CDBBC"/>
<path d="M115.742 221.155C117.447 221.382 119.151 222.745 120.514 224.222C121.082 224.904 122.105 224.222 121.878 223.427L117.674 212.974C117.447 212.406 116.651 212.293 116.31 212.747L109.266 221.723C108.698 222.405 109.493 223.314 110.289 222.859C112.107 221.723 114.038 220.928 115.742 221.155Z" fill="#1CDBBC"/>
<path d="M112.788 242.174C114.492 242.401 116.197 243.765 117.56 245.242C118.128 245.923 119.151 245.242 118.924 244.446L114.72 233.994C114.492 233.425 113.697 233.312 113.356 233.766L106.312 242.742C105.744 243.424 106.539 244.333 107.335 243.878C109.152 242.742 111.084 241.947 112.788 242.174Z" fill="#1CDBBC"/>
<path d="M109.834 263.307C111.538 263.535 113.243 264.898 114.606 266.375C115.174 267.057 116.197 266.375 115.97 265.58L111.766 255.127C111.538 254.559 110.743 254.445 110.402 254.9L103.358 263.875C102.79 264.557 103.585 265.466 104.38 265.012C106.198 263.762 108.13 262.966 109.834 263.307Z" fill="#1CDBBC"/>
<path d="M106.88 284.327C108.584 284.554 110.289 285.917 111.652 287.394C112.22 288.076 113.243 287.394 113.016 286.599L108.812 276.146C108.584 275.578 107.789 275.464 107.448 275.919L100.404 284.895C99.8358 285.576 100.631 286.485 101.426 286.031C103.244 284.895 105.176 284.099 106.88 284.327Z" fill="#1CDBBC"/>
<path d="M209.932 8.68819C211.636 8.91543 213.341 10.2789 214.704 11.7559C215.272 12.4376 216.295 11.7559 216.068 10.9606L211.864 0.507666C211.636 -0.0604268 210.841 -0.174042 210.5 0.280432L203.456 9.25629C202.888 9.938 203.683 10.8469 204.478 10.3925C206.183 9.25629 208.228 8.46096 209.932 8.68819Z" fill="#1CDBBC"/>
<path d="M206.978 29.7077C208.682 29.935 210.387 31.2984 211.75 32.7754C212.318 33.4571 213.341 32.7754 213.113 31.9801L208.91 21.5272C208.682 20.9591 207.887 20.8455 207.546 21.3L200.502 30.2758C199.934 30.9575 200.729 31.8665 201.524 31.412C203.229 30.2758 205.274 29.4805 206.978 29.7077Z" fill="#1CDBBC"/>
<path d="M204.024 50.8405C205.728 51.0678 207.432 52.4312 208.796 53.9082C209.364 54.59 210.387 53.9082 210.159 53.1129L205.955 42.66C205.728 42.0919 204.933 41.9783 204.592 42.4328L197.548 51.4086C196.98 52.0904 197.775 52.9993 198.57 52.5448C200.275 51.4086 202.32 50.6133 204.024 50.8405Z" fill="#1CDBBC"/>
<path d="M200.956 71.8599C202.66 72.0872 204.365 73.4506 205.728 74.9276C206.296 75.6093 207.319 74.9276 207.092 74.1323L202.888 63.5658C202.66 62.9977 201.865 62.8841 201.524 63.3385L194.48 72.3144C193.912 72.9961 194.707 73.9051 195.502 73.4506C197.32 72.428 199.252 71.6327 200.956 71.8599Z" fill="#1CDBBC"/>
<path d="M198.002 92.8796C199.706 93.1068 201.411 94.4703 202.774 95.9473C203.342 96.629 204.365 95.9473 204.137 95.152L199.934 84.6991C199.706 84.131 198.911 84.0174 198.57 84.4718L191.526 93.4477C190.958 94.1294 191.753 95.0384 192.548 94.5839C194.366 93.4477 196.298 92.6524 198.002 92.8796Z" fill="#1CDBBC"/>
<path d="M195.048 114.012C196.752 114.24 198.457 115.603 199.82 117.08C200.388 117.762 201.411 117.08 201.183 116.285L196.979 105.832C196.752 105.264 195.957 105.15 195.616 105.605L188.572 114.581C188.004 115.262 188.799 116.171 189.594 115.717C191.412 114.581 193.344 113.785 195.048 114.012Z" fill="#1CDBBC"/>
<path d="M192.094 135.032C193.798 135.259 195.503 136.623 196.866 138.1C197.434 138.781 198.457 138.1 198.229 137.304L194.025 126.851C193.798 126.283 193.003 126.17 192.662 126.624L185.618 135.6C185.05 136.282 185.845 137.191 186.64 136.736C188.458 135.6 190.39 134.805 192.094 135.032Z" fill="#1CDBBC"/>
<path d="M189.14 156.165C190.844 156.392 192.548 157.756 193.912 159.233C194.48 159.914 195.503 159.233 195.275 158.437L191.071 147.984C190.844 147.416 190.049 147.303 189.708 147.757L182.664 156.733C182.096 157.415 182.891 158.324 183.686 157.869C185.504 156.619 187.436 155.824 189.14 156.165Z" fill="#1CDBBC"/>
<path d="M186.186 177.184C187.89 177.412 189.594 178.775 190.958 180.252C191.526 180.934 192.548 180.252 192.321 179.457L188.117 169.004C187.89 168.436 187.095 168.322 186.754 168.777L179.71 177.752C179.141 178.434 179.937 179.343 180.732 178.889C182.55 177.752 184.482 176.957 186.186 177.184Z" fill="#1CDBBC"/>
<path d="M183.232 198.204C184.936 198.431 186.64 199.794 188.004 201.272C188.572 201.953 189.594 201.272 189.367 200.476L185.163 190.023C184.936 189.455 184.141 189.342 183.8 189.796L176.756 198.772C176.187 199.454 176.983 200.363 177.778 199.908C179.596 198.772 181.528 197.977 183.232 198.204Z" fill="#1CDBBC"/>
<path d="M180.278 219.337C181.982 219.564 183.686 220.928 185.05 222.405C185.618 223.086 186.64 222.405 186.413 221.609L182.209 211.156C181.982 210.588 181.187 210.475 180.846 210.929L173.801 219.905C173.233 220.587 174.029 221.496 174.824 221.041C176.642 219.791 178.573 219.11 180.278 219.337Z" fill="#1CDBBC"/>
<path d="M177.324 240.356C179.028 240.583 180.732 241.947 182.096 243.424C182.664 244.106 183.686 243.424 183.459 242.629L179.255 232.176C179.028 231.608 178.233 231.494 177.892 231.948L170.847 240.924C170.279 241.606 171.075 242.515 171.87 242.06C173.688 240.924 175.619 240.129 177.324 240.356Z" fill="#1CDBBC"/>
<path d="M174.369 261.376C176.074 261.603 177.778 262.966 179.141 264.443C179.71 265.125 180.732 264.443 180.505 263.648L176.301 253.195C176.074 252.627 175.278 252.513 174.938 252.968L167.893 261.944C167.325 262.626 168.12 263.534 168.916 263.08C170.734 261.944 172.665 261.148 174.369 261.376Z" fill="#1CDBBC"/>
<path d="M171.415 282.509C173.12 282.736 174.824 284.099 176.187 285.576C176.755 286.258 177.778 285.576 177.551 284.781L173.347 274.328C173.12 273.76 172.324 273.647 171.983 274.101L164.939 283.077C164.371 283.759 165.166 284.668 165.962 284.213C167.78 283.077 169.711 282.282 171.415 282.509Z" fill="#1CDBBC"/>
<path d="M232.656 8.68819C234.36 8.91543 236.064 10.2789 237.428 11.7559C237.996 12.4376 239.019 11.7559 238.791 10.9606L234.587 0.507666C234.36 -0.0604268 233.565 -0.174042 233.224 0.280432L226.18 9.25629C225.612 9.938 226.407 10.8469 227.202 10.3925C229.02 9.25629 230.952 8.46096 232.656 8.68819Z" fill="#1CDBBC"/>
<path d="M229.702 29.7077C231.406 29.935 233.11 31.2984 234.474 32.7754C235.042 33.4571 236.064 32.7754 235.837 31.9801L231.633 21.5272C231.406 20.9591 230.611 20.8455 230.27 21.3L223.226 30.2758C222.657 30.9575 223.453 31.8665 224.248 31.412C226.066 30.2758 227.998 29.4805 229.702 29.7077Z" fill="#1CDBBC"/>
<path d="M226.748 50.8405C228.452 51.0678 230.156 52.4312 231.52 53.9082C232.088 54.59 233.11 53.9082 232.883 53.1129L228.679 42.66C228.452 42.0919 227.657 41.9783 227.316 42.4328L220.271 51.4086C219.703 52.0904 220.499 52.9993 221.294 52.5448C223.112 51.4086 225.043 50.6133 226.748 50.8405Z" fill="#1CDBBC"/>
<path d="M223.794 71.8599C225.498 72.0872 227.202 73.4506 228.566 74.9276C229.134 75.6093 230.156 74.9276 229.929 74.1323L225.611 63.5658C225.384 62.9977 224.589 62.8841 224.248 63.3385L217.204 72.3144C216.636 72.9961 217.431 73.9051 218.226 73.4506C220.158 72.428 222.089 71.6327 223.794 71.8599Z" fill="#1CDBBC"/>
<path d="M220.839 92.8796C222.544 93.1068 224.248 94.4703 225.611 95.9473C226.18 96.629 227.202 95.9473 226.975 95.152L222.771 84.6991C222.544 84.131 221.748 84.0174 221.408 84.4718L214.363 93.4477C213.795 94.1294 214.59 95.0384 215.386 94.5839C217.09 93.4477 219.135 92.6524 220.839 92.8796Z" fill="#1CDBBC"/>
<path d="M217.885 114.012C219.59 114.24 221.294 115.603 222.657 117.08C223.225 117.762 224.248 117.08 224.021 116.285L219.817 105.832C219.59 105.264 218.794 105.15 218.453 105.605L211.409 114.581C210.841 115.262 211.636 116.171 212.432 115.717C214.136 114.581 216.181 113.785 217.885 114.012Z" fill="#1CDBBC"/>
<path d="M214.931 135.032C216.636 135.259 218.34 136.623 219.703 138.1C220.271 138.781 221.294 138.1 221.067 137.304L216.863 126.851C216.636 126.283 215.84 126.17 215.499 126.624L208.455 135.6C207.887 136.282 208.682 137.191 209.478 136.736C211.182 135.6 213.227 134.805 214.931 135.032Z" fill="#1CDBBC"/>
<path d="M211.977 156.165C213.681 156.392 215.386 157.756 216.749 159.233C217.317 159.914 218.34 159.233 218.113 158.437L213.909 147.984C213.681 147.416 212.886 147.303 212.545 147.757L205.501 156.733C204.933 157.415 205.728 158.324 206.523 157.869C208.228 156.619 210.273 155.824 211.977 156.165Z" fill="#1CDBBC"/>
<path d="M209.023 177.184C210.727 177.412 212.432 178.775 213.795 180.252C214.363 180.934 215.386 180.252 215.158 179.457L210.955 169.004C210.727 168.436 209.932 168.322 209.591 168.777L202.547 177.752C201.979 178.434 202.774 179.343 203.569 178.889C205.274 177.752 207.319 176.957 209.023 177.184Z" fill="#1CDBBC"/>
<path d="M206.069 198.204C207.773 198.431 209.478 199.794 210.841 201.272C211.409 201.953 212.432 201.272 212.204 200.476L208.001 190.023C207.773 189.455 206.978 189.342 206.637 189.796L199.593 198.772C199.025 199.454 199.82 200.363 200.615 199.908C202.32 198.772 204.365 197.977 206.069 198.204Z" fill="#1CDBBC"/>
<path d="M203.115 219.337C204.819 219.564 206.524 220.928 207.887 222.405C208.455 223.086 209.478 222.405 209.25 221.609L205.046 211.156C204.819 210.588 204.024 210.475 203.683 210.929L196.639 219.905C196.071 220.587 196.866 221.496 197.661 221.041C199.366 219.791 201.411 219.11 203.115 219.337Z" fill="#1CDBBC"/>
<path d="M200.161 240.356C201.865 240.583 203.569 241.947 204.933 243.424C205.501 244.106 206.524 243.424 206.296 242.629L202.092 232.176C201.865 231.608 201.07 231.494 200.729 231.948L193.685 240.924C193.117 241.606 193.912 242.515 194.707 242.06C196.411 240.924 198.457 240.129 200.161 240.356Z" fill="#1CDBBC"/>
<path d="M197.207 261.376C198.911 261.603 200.615 262.966 201.979 264.443C202.547 265.125 203.57 264.443 203.342 263.648L199.138 253.195C198.911 252.627 198.116 252.513 197.775 252.968L190.731 261.944C190.163 262.626 190.958 263.534 191.753 263.08C193.457 261.944 195.503 261.148 197.207 261.376Z" fill="#1CDBBC"/>
<path d="M194.253 282.509C195.957 282.736 197.661 284.099 199.025 285.576C199.593 286.258 200.615 285.576 200.388 284.781L196.184 274.328C195.957 273.76 195.162 273.647 194.821 274.101L187.777 283.077C187.208 283.759 188.004 284.668 188.799 284.213C190.503 283.077 192.549 282.282 194.253 282.509Z" fill="#1CDBBC"/>
<path d="M255.493 8.68819C257.197 8.91543 258.902 10.2789 260.265 11.7559C260.833 12.4376 261.856 11.7559 261.628 10.9606L257.425 0.507666C257.197 -0.0604268 256.402 -0.174042 256.061 0.280432L249.017 9.25629C248.449 9.938 249.244 10.8469 250.039 10.3925C251.744 9.25629 253.789 8.46096 255.493 8.68819Z" fill="#1CDBBC"/>
<path d="M252.539 29.7077C254.243 29.935 255.948 31.2984 257.311 32.7754C257.879 33.4571 258.902 32.7754 258.674 31.9801L254.471 21.5272C254.243 20.9591 253.448 20.8455 253.107 21.3L246.063 30.2758C245.495 30.9575 246.29 31.8665 247.085 31.412C248.79 30.2758 250.835 29.4805 252.539 29.7077Z" fill="#1CDBBC"/>
<path d="M249.585 50.8405C251.289 51.0678 252.994 52.4312 254.357 53.9082C254.925 54.59 255.948 53.9082 255.72 53.1129L251.516 42.66C251.289 42.0919 250.494 41.9783 250.153 42.4328L243.109 51.4086C242.541 52.0904 243.336 52.9993 244.131 52.5448C245.836 51.4086 247.881 50.6133 249.585 50.8405Z" fill="#1CDBBC"/>
<path d="M246.631 71.8601C248.335 72.0873 250.039 73.4507 251.403 74.9278C251.971 75.6095 252.993 74.9278 252.766 74.1325L248.562 63.6796C248.335 63.1115 247.54 62.9978 247.199 63.4523L240.155 72.4282C239.587 73.1099 240.382 74.0188 241.177 73.5644C242.881 72.4282 244.927 71.6328 246.631 71.8601Z" fill="#1CDBBC"/>
<path d="M243.677 92.8796C245.381 93.1068 247.085 94.4703 248.449 95.9473C249.017 96.629 250.039 95.9473 249.812 95.152L245.608 84.6991C245.381 84.131 244.586 84.0174 244.245 84.4718L237.2 93.4477C236.632 94.1294 237.428 95.0384 238.223 94.5839C239.927 93.4477 241.972 92.6524 243.677 92.8796Z" fill="#1CDBBC"/>
<path d="M240.723 114.012C242.427 114.24 244.131 115.603 245.495 117.08C246.063 117.762 247.085 117.08 246.858 116.285L242.654 105.832C242.427 105.264 241.632 105.15 241.291 105.605L234.247 114.581C233.678 115.262 234.474 116.171 235.269 115.717C236.973 114.581 239.018 113.785 240.723 114.012Z" fill="#1CDBBC"/>
<path d="M237.769 135.032C239.473 135.259 241.177 136.623 242.541 138.1C243.109 138.781 244.131 138.1 243.904 137.304L239.7 126.851C239.473 126.283 238.678 126.17 238.337 126.624L231.292 135.6C230.724 136.282 231.52 137.191 232.315 136.736C234.019 135.6 236.064 134.805 237.769 135.032Z" fill="#1CDBBC"/>
<path d="M234.701 156.165C236.405 156.392 238.109 157.756 239.473 159.233C240.041 159.914 241.064 159.233 240.836 158.437L236.632 147.984C236.405 147.416 235.61 147.303 235.269 147.757L228.225 156.733C227.657 157.415 228.452 158.324 229.247 157.869C231.065 156.619 232.997 155.824 234.701 156.165Z" fill="#1CDBBC"/>
<path d="M231.747 177.184C233.451 177.412 235.155 178.775 236.519 180.252C237.087 180.934 238.109 180.252 237.882 179.457L233.678 169.004C233.451 168.436 232.656 168.322 232.315 168.777L225.271 177.752C224.702 178.434 225.498 179.343 226.293 178.889C228.111 177.752 230.043 176.957 231.747 177.184Z" fill="#1CDBBC"/>
<path d="M228.793 198.204C230.497 198.431 232.201 199.794 233.565 201.272C234.133 201.953 235.155 201.272 234.928 200.476L230.724 190.023C230.497 189.455 229.702 189.342 229.361 189.796L222.317 198.772C221.748 199.454 222.544 200.363 223.339 199.908C225.157 198.772 227.089 197.977 228.793 198.204Z" fill="#1CDBBC"/>
<path d="M225.839 219.337C227.543 219.564 229.247 220.928 230.611 222.405C231.179 223.086 232.201 222.405 231.974 221.609L227.77 211.156C227.543 210.588 226.748 210.475 226.407 210.929L219.362 219.905C218.794 220.587 219.59 221.496 220.385 221.041C222.203 219.791 224.134 219.11 225.839 219.337Z" fill="#1CDBBC"/>
<path d="M222.885 240.356C224.589 240.583 226.293 241.947 227.657 243.424C228.225 244.106 229.247 243.424 229.02 242.629L224.816 232.176C224.589 231.608 223.794 231.494 223.453 231.948L216.408 240.924C215.84 241.606 216.636 242.515 217.431 242.06C219.249 240.924 221.18 240.129 222.885 240.356Z" fill="#1CDBBC"/>
<path d="M219.931 261.376C221.635 261.603 223.339 262.966 224.703 264.443C225.271 265.125 226.293 264.443 226.066 263.648L221.862 253.195C221.635 252.627 220.839 252.513 220.499 252.968L213.454 261.944C212.886 262.626 213.682 263.534 214.477 263.08C216.295 261.944 218.226 261.148 219.931 261.376Z" fill="#1CDBBC"/>
<path d="M216.976 282.509C218.681 282.736 220.385 284.099 221.748 285.576C222.317 286.258 223.339 285.576 223.112 284.781L218.908 274.328C218.681 273.76 217.885 273.647 217.545 274.101L210.5 283.077C209.932 283.759 210.727 284.668 211.523 284.213C213.341 283.077 215.272 282.282 216.976 282.509Z" fill="#1CDBBC"/>
<path d="M24.393 72.9962C24.393 74.7005 23.3705 76.632 22.1207 78.2226C21.5526 78.9044 22.3479 79.8133 23.1432 79.3588L32.9144 73.6779C33.4825 73.337 33.4825 72.6553 32.9144 72.3145L23.1432 66.6336C22.3479 66.1791 21.5526 67.088 22.1207 67.7697C23.3705 69.3604 24.393 71.2919 24.393 72.9962Z" fill="#1CDBBC"/>
<path d="M45.2989 72.9962C45.2989 74.7005 44.2764 76.632 43.0265 78.2226C42.4585 78.9044 43.2538 79.8133 44.0491 79.3588L53.8203 73.6779C54.3884 73.337 54.3884 72.6553 53.8203 72.3145L44.0491 66.6336C43.2538 66.1791 42.4585 67.088 43.0265 67.7697C44.2764 69.3604 45.2989 71.2919 45.2989 72.9962Z" fill="#1CDBBC"/>
<path d="M66.2047 72.9962C66.2047 74.7005 65.1821 76.632 63.9323 78.2226C63.3642 78.9044 64.1595 79.8133 64.9549 79.3588L74.7261 73.6779C75.2942 73.337 75.2942 72.6553 74.7261 72.3145L64.9549 66.6336C64.1595 66.1791 63.3642 67.088 63.9323 67.7697C65.1821 69.3604 66.2047 71.2919 66.2047 72.9962Z" fill="#1CDBBC"/>
<path d="M20.7573 95.379C20.7573 97.0833 19.7347 99.0148 18.4849 100.605C17.9168 101.287 18.7122 102.196 19.5075 101.742L29.2787 96.0607C29.8468 95.7199 29.8468 95.0382 29.2787 94.6973L19.5075 89.0164C18.7122 88.5619 17.9168 89.4708 18.4849 90.1526C19.6211 91.7432 20.7573 93.6747 20.7573 95.379Z" fill="#1CDBBC"/>
<path d="M41.6631 95.379C41.6631 97.0833 40.6405 99.0148 39.3907 100.605C38.8226 101.287 39.6179 102.196 40.4133 101.742L50.1844 96.0607C50.7525 95.7199 50.7525 95.0382 50.1844 94.6973L40.4133 89.0164C39.6179 88.5619 38.8226 89.4708 39.3907 90.1526C40.6405 91.7432 41.6631 93.6747 41.6631 95.379Z" fill="#1CDBBC"/>
<path d="M62.5689 95.379C62.5689 97.0833 61.5464 99.0148 60.2966 100.605C59.7285 101.287 60.5238 102.196 61.3191 101.742L71.0903 96.0607C71.6584 95.7199 71.6584 95.0382 71.0903 94.6973L61.3191 89.0164C60.5238 88.5619 59.7285 89.4708 60.2966 90.1526C61.5464 91.7432 62.5689 93.6747 62.5689 95.379Z" fill="#1CDBBC"/>
<path d="M15.19 116.967C15.19 118.671 14.1675 120.602 12.9177 122.193C12.3496 122.875 13.1449 123.784 13.9402 123.329L23.7114 117.648C24.2795 117.308 24.2795 116.626 23.7114 116.285L13.9402 110.604C13.1449 110.15 12.3496 111.058 12.9177 111.74C14.1675 113.444 15.19 115.262 15.19 116.967Z" fill="#1CDBBC"/>
<path d="M36.0958 116.967C36.0958 118.671 35.0732 120.602 33.8234 122.193C33.2553 122.875 34.0507 123.784 34.846 123.329L44.6172 117.648C45.1853 117.308 45.1853 116.626 44.6172 116.285L34.846 110.604C34.0507 110.15 33.2553 111.058 33.8234 111.74C35.0732 113.444 36.0958 115.262 36.0958 116.967Z" fill="#1CDBBC"/>
<path d="M57.1152 116.967C57.1152 118.671 56.0926 120.602 54.8428 122.193C54.2747 122.875 55.0701 123.784 55.8654 123.329L65.6366 117.648C66.2047 117.308 66.2047 116.626 65.6366 116.285L55.8654 110.604C55.0701 110.15 54.2747 111.058 54.8428 111.74C55.979 113.444 57.1152 115.262 57.1152 116.967Z" fill="#1CDBBC"/>
<path d="M11.6678 172.981C11.6678 174.685 10.6452 176.616 9.39544 178.207C8.82735 178.889 9.62268 179.798 10.418 179.343L20.1892 173.662C20.7573 173.321 20.7573 172.64 20.1892 172.299L10.418 166.618C9.62268 166.163 8.82735 167.072 9.39544 167.754C10.6452 169.458 11.6678 171.276 11.6678 172.981Z" fill="#1CDBBC"/>
<path d="M32.6872 172.981C32.6872 174.685 31.6647 176.616 30.4149 178.207C29.8468 178.889 30.6421 179.798 31.4374 179.343L41.2086 173.662C41.7767 173.321 41.7767 172.64 41.2086 172.299L31.4374 166.618C30.6421 166.163 29.8468 167.072 30.4149 167.754C31.551 169.458 32.6872 171.276 32.6872 172.981Z" fill="#1CDBBC"/>
<path d="M53.5931 172.981C53.5931 174.685 52.5705 176.616 51.3207 178.207C50.7526 178.889 51.548 179.798 52.3433 179.343L62.1145 173.662C62.6826 173.321 62.6826 172.64 62.1145 172.299L52.3433 166.618C51.548 166.163 50.7526 167.072 51.3207 167.754C52.5705 169.458 53.5931 171.276 53.5931 172.981Z" fill="#1CDBBC"/>
<path d="M8.03207 195.363C8.03207 197.068 7.00951 198.999 5.7597 200.59C5.19161 201.272 5.98694 202.181 6.78227 201.726L16.5535 196.045C17.1216 195.704 17.1216 195.023 16.5535 194.682L6.78227 189.001C5.98694 188.546 5.19161 189.455 5.7597 190.137C6.89589 191.728 8.03207 193.659 8.03207 195.363Z" fill="#1CDBBC"/>
<path d="M28.9378 195.363C28.9378 197.068 27.9153 198.999 26.6655 200.59C26.0974 201.272 26.8927 202.181 27.688 201.726L37.4592 196.045C38.0273 195.704 38.0273 195.023 37.4592 194.682L27.688 189.001C26.8927 188.546 26.0974 189.455 26.6655 190.137C27.9153 191.728 28.9378 193.659 28.9378 195.363Z" fill="#1CDBBC"/>
<path d="M49.9572 195.363C49.9572 197.068 48.9347 198.999 47.6849 200.59C47.1168 201.272 47.9121 202.181 48.7074 201.726L58.4786 196.045C59.0467 195.704 59.0467 195.023 58.4786 194.682L48.7074 189.001C47.9121 188.546 47.1168 189.455 47.6849 190.137C48.9347 191.728 49.9572 193.659 49.9572 195.363Z" fill="#1CDBBC"/>
<path d="M2.46469 216.951C2.46469 218.655 1.44212 220.587 0.192319 222.177C-0.375773 222.859 0.419558 223.768 1.21489 223.313L10.9861 217.633C11.5542 217.292 11.5542 216.61 10.9861 216.269L1.21489 210.588C0.419558 210.134 -0.375773 211.043 0.192319 211.724C1.44212 213.429 2.46469 215.247 2.46469 216.951Z" fill="#1CDBBC"/>
<path d="M23.4841 216.951C23.4841 218.655 22.4615 220.587 21.2117 222.177C20.6436 222.859 21.439 223.768 22.2343 223.313L32.0055 217.633C32.5736 217.292 32.5736 216.61 32.0055 216.269L22.2343 210.588C21.439 210.134 20.6436 211.043 21.2117 211.724C22.3479 213.429 23.4841 215.247 23.4841 216.951Z" fill="#1CDBBC"/>
<path d="M44.39 216.951C44.39 218.655 43.3674 220.587 42.1176 222.177C41.5495 222.859 42.3449 223.768 43.1402 223.313L52.9114 217.633C53.4795 217.292 53.4795 216.61 52.9114 216.269L43.1402 210.588C42.3449 210.134 41.5495 211.043 42.1176 211.724C43.3674 213.429 44.39 215.247 44.39 216.951Z" fill="#1CDBBC"/>
<path d="M269.127 72.9962C269.127 74.7005 268.105 76.632 266.855 78.2226C266.287 78.9044 267.082 79.8133 267.878 79.3588L277.649 73.6779C278.217 73.337 278.217 72.6553 277.649 72.3145L267.878 66.6336C267.082 66.1791 266.287 67.088 266.855 67.7697C268.105 69.3604 269.127 71.2919 269.127 72.9962Z" fill="#1CDBBC"/>
<path d="M290.033 72.9962C290.033 74.7005 289.011 76.632 287.761 78.2226C287.193 78.9044 287.988 79.8133 288.783 79.3588L298.555 73.6779C299.123 73.337 299.123 72.6553 298.555 72.3145L288.783 66.6336C287.988 66.1791 287.193 67.088 287.761 67.7697C289.011 69.3604 290.033 71.2919 290.033 72.9962Z" fill="#1CDBBC"/>
<path d="M311.053 72.9962C311.053 74.7005 310.03 76.632 308.78 78.2226C308.212 78.9044 309.007 79.8133 309.803 79.3588L319.574 73.6779C320.142 73.337 320.142 72.6553 319.574 72.3145L309.803 66.6336C309.007 66.1791 308.212 67.088 308.78 67.7697C309.916 69.3604 311.053 71.2919 311.053 72.9962Z" fill="#1CDBBC"/>
<path d="M265.492 95.379C265.492 97.0833 264.469 99.0148 263.219 100.605C262.651 101.287 263.446 102.196 264.242 101.742L274.013 96.0607C274.581 95.7199 274.581 95.0382 274.013 94.6973L264.242 89.0164C263.446 88.5619 262.651 89.4708 263.219 90.1526C264.355 91.7432 265.492 93.6747 265.492 95.379Z" fill="#1CDBBC"/>
<path d="M286.397 95.379C286.397 97.0833 285.375 99.0148 284.125 100.605C283.557 101.287 284.352 102.196 285.147 101.742L294.919 96.0607C295.487 95.7199 295.487 95.0382 294.919 94.6973L285.147 89.0164C284.352 88.5619 283.557 89.4708 284.125 90.1526C285.375 91.7432 286.397 93.6747 286.397 95.379Z" fill="#1CDBBC"/>
<path d="M307.303 95.379C307.303 97.0833 306.281 99.0148 305.031 100.605C304.463 101.287 305.258 102.196 306.053 101.742L315.824 96.0607C316.393 95.7199 316.393 95.0382 315.824 94.6973L306.053 89.0164C305.258 88.5619 304.463 89.4708 305.031 90.1526C306.281 91.7432 307.303 93.6747 307.303 95.379Z" fill="#1CDBBC"/>
<path d="M259.924 116.967C259.924 118.671 258.902 120.602 257.652 122.193C257.084 122.875 257.879 123.784 258.674 123.329L268.446 117.648C269.014 117.308 269.014 116.626 268.446 116.285L258.674 110.604C257.879 110.15 257.084 111.058 257.652 111.74C258.902 113.444 259.924 115.262 259.924 116.967Z" fill="#1CDBBC"/>
<path d="M280.83 116.967C280.83 118.671 279.807 120.602 278.558 122.193C277.99 122.875 278.785 123.784 279.58 123.329L289.351 117.648C289.92 117.308 289.92 116.626 289.351 116.285L279.58 110.604C278.785 110.15 277.99 111.058 278.558 111.74C279.807 113.444 280.83 115.262 280.83 116.967Z" fill="#1CDBBC"/>
<path d="M301.849 116.967C301.849 118.671 300.827 120.602 299.577 122.193C299.009 122.875 299.804 123.784 300.6 123.329L310.371 117.648C310.939 117.308 310.939 116.626 310.371 116.285L300.6 110.604C299.804 110.15 299.009 111.058 299.577 111.74C300.713 113.444 301.849 115.262 301.849 116.967Z" fill="#1CDBBC"/>
<path d="M256.402 172.981C256.402 174.685 255.38 176.616 254.13 178.207C253.562 178.889 254.357 179.798 255.152 179.343L264.923 173.662C265.492 173.321 265.492 172.64 264.923 172.299L255.152 166.618C254.357 166.163 253.562 167.072 254.13 167.754C255.38 169.458 256.402 171.276 256.402 172.981Z" fill="#1CDBBC"/>
<path d="M277.421 172.981C277.421 174.685 276.399 176.616 275.149 178.207C274.581 178.889 275.376 179.798 276.172 179.343L285.943 173.662C286.511 173.321 286.511 172.64 285.943 172.299L276.172 166.618C275.376 166.163 274.581 167.072 275.149 167.754C276.285 169.458 277.421 171.276 277.421 172.981Z" fill="#1CDBBC"/>
<path d="M298.327 172.981C298.327 174.685 297.305 176.616 296.055 178.207C295.487 178.889 296.282 179.798 297.077 179.343L306.849 173.662C307.417 173.321 307.417 172.64 306.849 172.299L297.077 166.618C296.282 166.163 295.487 167.072 296.055 167.754C297.305 169.458 298.327 171.276 298.327 172.981Z" fill="#1CDBBC"/>
<path d="M252.766 195.363C252.766 197.068 251.744 198.999 250.494 200.59C249.926 201.272 250.721 202.181 251.516 201.726L261.288 196.045C261.856 195.704 261.856 195.023 261.288 194.682L251.516 189.001C250.721 188.546 249.926 189.455 250.494 190.137C251.63 191.728 252.766 193.659 252.766 195.363Z" fill="#1CDBBC"/>
<path d="M273.672 195.363C273.672 197.068 272.65 198.999 271.4 200.59C270.832 201.272 271.627 202.181 272.422 201.726L282.193 196.045C282.762 195.704 282.762 195.023 282.193 194.682L272.422 189.001C271.627 188.546 270.832 189.455 271.4 190.137C272.65 191.728 273.672 193.659 273.672 195.363Z" fill="#1CDBBC"/>
<path d="M294.691 195.363C294.691 197.068 293.669 198.999 292.419 200.59C291.851 201.272 292.646 202.181 293.442 201.726L303.213 196.045C303.781 195.704 303.781 195.023 303.213 194.682L293.442 189.001C292.646 188.546 291.851 189.455 292.419 190.137C293.669 191.728 294.691 193.659 294.691 195.363Z" fill="#1CDBBC"/>
<path d="M247.199 216.951C247.199 218.655 246.176 220.587 244.927 222.177C244.358 222.859 245.154 223.768 245.949 223.313L255.72 217.633C256.288 217.292 256.288 216.61 255.72 216.269L245.949 210.588C245.154 210.134 244.358 211.043 244.927 211.724C246.176 213.429 247.199 215.247 247.199 216.951Z" fill="#1CDBBC"/>
<path d="M268.218 216.951C268.218 218.655 267.196 220.587 265.946 222.177C265.378 222.859 266.173 223.768 266.969 223.313L276.74 217.633C277.308 217.292 277.308 216.61 276.74 216.269L266.969 210.588C266.173 210.134 265.378 211.043 265.946 211.724C267.082 213.429 268.218 215.247 268.218 216.951Z" fill="#1CDBBC"/>
<path d="M289.124 216.951C289.124 218.655 288.102 220.587 286.852 222.177C286.284 222.859 287.079 223.768 287.874 223.313L297.646 217.633C298.214 217.292 298.214 216.61 297.646 216.269L287.874 210.588C287.079 210.134 286.284 211.043 286.852 211.724C288.102 213.429 289.124 215.247 289.124 216.951Z" fill="#1CDBBC"/>
<path d="M141.761 172.981C141.761 174.685 140.738 176.616 139.489 178.207C138.92 178.889 139.716 179.798 140.511 179.343L150.282 173.662C150.85 173.321 150.85 172.64 150.282 172.299L140.511 166.618C139.716 166.163 138.92 167.072 139.489 167.754C140.738 169.458 141.761 171.276 141.761 172.981Z" fill="#1CDBBC"/>
<path d="M162.44 172.981C162.44 174.685 161.417 176.616 160.167 178.207C159.599 178.889 160.394 179.798 161.19 179.343L170.961 173.662C171.529 173.321 171.529 172.64 170.961 172.299L161.19 166.618C160.394 166.163 159.599 167.072 160.167 167.754C161.417 169.458 162.44 171.276 162.44 172.981Z" fill="#1CDBBC"/>
<path d="M138.125 195.363C138.125 197.068 137.103 198.999 135.853 200.59C135.285 201.272 136.08 202.181 136.875 201.726L146.647 196.045C147.215 195.704 147.215 195.023 146.647 194.682L136.875 189.001C136.08 188.546 135.285 189.455 135.853 190.137C136.989 191.728 138.125 193.659 138.125 195.363Z" fill="#1CDBBC"/>
<path d="M158.804 195.363C158.804 197.068 157.781 198.999 156.531 200.59C155.963 201.272 156.759 202.181 157.554 201.726L167.325 196.045C167.893 195.704 167.893 195.023 167.325 194.682L157.554 189.001C156.759 188.546 155.963 189.455 156.531 190.137C157.781 191.728 158.804 193.659 158.804 195.363Z" fill="#1CDBBC"/>
<path d="M134.376 216.951C134.376 218.655 133.353 220.587 132.103 222.177C131.535 222.859 132.331 223.768 133.126 223.313L142.897 217.633C143.465 217.292 143.465 216.61 142.897 216.269L133.126 210.588C132.331 210.134 131.535 211.043 132.103 211.724C133.353 213.429 134.376 215.247 134.376 216.951Z" fill="#1CDBBC"/>
<path d="M155.168 216.951C155.168 218.655 154.145 220.587 152.896 222.177C152.327 222.859 153.123 223.768 153.918 223.313L163.689 217.633C164.257 217.292 164.257 216.61 163.689 216.269L153.918 210.588C153.123 210.134 152.327 211.043 152.896 211.724C154.032 213.429 155.168 215.247 155.168 216.951Z" fill="#1CDBBC"/>
<path d="M155.85 72.3145C155.85 74.0188 154.827 75.9503 153.577 77.541C153.009 78.2227 153.805 79.1317 154.6 78.6772L164.371 72.9963C164.939 72.6554 164.939 71.9737 164.371 71.6328L154.6 65.9519C153.805 65.4974 153.009 66.4064 153.577 67.0881C154.827 68.6788 155.85 70.6103 155.85 72.3145Z" fill="#1CDBBC"/>
<path d="M176.528 72.3145C176.528 74.0188 175.506 75.9503 174.256 77.541C173.688 78.2227 174.483 79.1317 175.278 78.6772L185.05 72.9963C185.618 72.6554 185.618 71.9737 185.05 71.6328L175.278 65.9519C174.483 65.4974 173.688 66.4064 174.256 67.0881C175.506 68.6788 176.528 70.6103 176.528 72.3145Z" fill="#1CDBBC"/>
<path d="M152.214 94.5838C152.214 96.2881 151.191 98.2196 149.941 99.8103C149.373 100.492 150.169 101.401 150.964 100.946L160.735 95.2655C161.303 94.9247 161.303 94.243 160.735 93.9021L150.964 88.2212C150.169 87.7667 149.373 88.6757 149.941 89.3574C151.078 91.0617 152.214 92.8796 152.214 94.5838Z" fill="#1CDBBC"/>
<path d="M172.892 94.5838C172.892 96.2881 171.87 98.2196 170.62 99.8103C170.052 100.492 170.847 101.401 171.643 100.946L181.414 95.2655C181.982 94.9247 181.982 94.243 181.414 93.9021L171.643 88.2212C170.847 87.7667 170.052 88.6757 170.62 89.3574C171.87 91.0617 172.892 92.8796 172.892 94.5838Z" fill="#1CDBBC"/>
<path d="M148.464 116.285C148.464 117.989 147.442 119.921 146.192 121.511C145.624 122.193 146.419 123.102 147.215 122.647L156.986 116.966C157.554 116.626 157.554 115.944 156.986 115.603L147.215 109.922C146.419 109.468 145.624 110.377 146.192 111.058C147.442 112.649 148.464 114.58 148.464 116.285Z" fill="#1CDBBC"/>
<path d="M169.257 116.285C169.257 117.989 168.234 119.921 166.984 121.511C166.416 122.193 167.212 123.102 168.007 122.647L177.778 116.966C178.346 116.626 178.346 115.944 177.778 115.603L168.007 109.922C167.212 109.468 166.416 110.377 166.984 111.058C168.12 112.649 169.257 114.58 169.257 116.285Z" fill="#1CDBBC"/>
</svg>
