<svg width="390" height="844" viewBox="0 0 390 844" fill="none" xmlns="http://www.w3.org/2000/svg">
<g clip-path="url(#clip0_881_23576)">
<path d="M347.219 113.672L347.664 112.557" stroke="#0A838A" stroke-width="1.25" stroke-linecap="round" stroke-linejoin="round"/>
<path d="M330.94 104.211L340.846 108.168" stroke="#0A838A" stroke-width="1.25" stroke-linecap="round" stroke-linejoin="round"/>
<path d="M345.596 111.588L348.692 112.824C349.101 112.987 349.511 112.965 349.915 112.781C350.318 112.598 350.601 112.251 350.764 111.843C350.927 111.434 350.961 110.988 350.795 110.577C350.629 110.167 350.335 109.862 349.938 109.704L347.957 108.912C347.549 108.749 347.266 108.45 347.1 108.039C346.934 107.628 346.968 107.182 347.132 106.774C347.295 106.365 347.577 106.018 347.98 105.835C348.384 105.651 348.807 105.634 349.204 105.792L352.361 107.053" stroke="#0A838A" stroke-width="1.25" stroke-linecap="round" stroke-linejoin="round"/>
<path d="M332.919 99.2584L342.824 103.215" stroke="#0A838A" stroke-width="1.25" stroke-linecap="round" stroke-linejoin="round"/>
<path d="M350.246 106.094L350.691 104.979" stroke="#0A838A" stroke-width="1.25" stroke-linecap="round" stroke-linejoin="round"/>
<path d="M334.897 94.3056L354.708 102.219" stroke="#0A838A" stroke-width="1.25" stroke-linecap="round" stroke-linejoin="round"/>
<path d="M336.876 89.3528L356.687 97.2665" stroke="#0A838A" stroke-width="1.25" stroke-linecap="round" stroke-linejoin="round"/>
<path d="M338.854 84.4L358.665 92.3137" stroke="#0A838A" stroke-width="1.25" stroke-linecap="round" stroke-linejoin="round"/>
<path d="M340.833 79.4472L360.644 87.3609" stroke="#0A838A" stroke-width="1.25" stroke-linecap="round" stroke-linejoin="round"/>
<path d="M367.092 110.684C372.563 112.869 378.769 110.206 380.954 104.735C383.14 99.2642 380.476 93.0577 375.006 90.8724C369.535 88.6871 363.329 91.3505 361.143 96.8212C358.958 102.292 361.621 108.498 367.092 110.684Z" stroke="#0A838A" stroke-width="1.25" stroke-linecap="round" stroke-linejoin="round"/>
<path d="M364.859 80.4015L372.296 83.3864L373.785 79.6595L366.348 76.6745L364.859 80.4015Z" stroke="#0A838A" stroke-width="1.25" stroke-linecap="round" stroke-linejoin="round"/>
<path d="M339.334 73.0625L350.205 77.4051L354.508 66.6327" stroke="#0A838A" stroke-width="1.25" stroke-linecap="round" stroke-linejoin="round"/>
<path d="M375.038 90.756L380.664 76.6356L354.662 66.2489L339.403 72.3147L324.288 110.154L361.399 124.935L367.062 110.758" stroke="#0A838A" stroke-width="1.25" stroke-linecap="round" stroke-linejoin="round"/>
<path d="M371.178 100.456C372.422 100.953 373.834 100.347 374.331 99.1027C374.828 97.8582 374.222 96.4462 372.978 95.949C371.733 95.4519 370.321 96.0578 369.824 97.3024C369.327 98.547 369.933 99.9589 371.178 100.456Z" stroke="#0A838A" stroke-width="1.25" stroke-linecap="round" stroke-linejoin="round"/>
<path d="M363.986 103.542L364.669 101.833C364.926 101.189 365.716 100.758 366.471 101.06L374.185 104.141C374.829 104.399 375.26 105.188 374.958 105.943L374.276 107.652" stroke="#0A838A" stroke-width="1.25" stroke-linecap="round" stroke-linejoin="round"/>
</g>
<g clip-path="url(#clip1_881_23576)">
<path d="M178.082 106.913L135.226 122.554" stroke="#0091FF" stroke-width="1.5" stroke-linecap="round" stroke-linejoin="round"/>
<path d="M160.369 136.793C163.253 138.135 166.68 136.884 168.022 134C169.364 131.115 168.113 127.689 165.229 126.347C162.344 125.005 158.918 126.256 157.576 129.14C156.234 132.025 157.484 135.451 160.369 136.793Z" stroke="#0091FF" stroke-linecap="round" stroke-linejoin="round"/>
<path d="M148.079 103.12C150.964 104.462 154.39 103.212 155.732 100.327C157.074 97.4428 155.824 94.0165 152.939 92.6745C150.055 91.3325 146.628 92.583 145.286 95.4675C143.944 98.3521 145.195 101.778 148.079 103.12Z" stroke="#0091FF" stroke-linecap="round" stroke-linejoin="round"/>
</g>
<path d="M347.787 837.167V834.007" stroke="#0A838A" stroke-width="1.25" stroke-linecap="round" stroke-linejoin="round"/>
<path d="M359.787 837.167V832.727" stroke="#0A838A" stroke-width="1.25" stroke-linecap="round" stroke-linejoin="round"/>
<path d="M375.72 837.167V831.541" stroke="#0A838A" stroke-width="1.25" stroke-linecap="round" stroke-linejoin="round"/>
<path d="M351.653 837.167V829.367" stroke="#0A838A" stroke-width="1.25" stroke-linecap="round" stroke-linejoin="round"/>
<path d="M379.827 837.167V828.367" stroke="#0A838A" stroke-width="1.25" stroke-linecap="round" stroke-linejoin="round"/>
<path d="M367.813 837.167V828.287" stroke="#0A838A" stroke-width="1.25" stroke-linecap="round" stroke-linejoin="round"/>
<path d="M355.8 837.167V827.221" stroke="#0A838A" stroke-width="1.25" stroke-linecap="round" stroke-linejoin="round"/>
<path d="M383.813 837.167V826.354" stroke="#0A838A" stroke-width="1.25" stroke-linecap="round" stroke-linejoin="round"/>
<path d="M371.827 837.167V826.354" stroke="#0A838A" stroke-width="1.25" stroke-linecap="round" stroke-linejoin="round"/>
<path d="M363.707 837.167V825.047" stroke="#0A838A" stroke-width="1.25" stroke-linecap="round" stroke-linejoin="round"/>
<path d="M351.147 821.167V820.034" stroke="#0A838A" stroke-width="1.25" stroke-linecap="round" stroke-linejoin="round"/>
<path d="M371.173 818.501H360.467" stroke="#0A838A" stroke-width="1.25" stroke-linecap="round" stroke-linejoin="round"/>
<path d="M351.653 816.514H350.387C349.947 816.514 349.307 816.341 348.987 816.021C348.667 815.701 348.493 815.274 348.493 814.834C348.493 814.394 348.667 813.967 348.987 813.647C349.307 813.327 349.733 813.154 350.173 813.154H353.853" stroke="#0A838A" stroke-width="1.25" stroke-linecap="round" stroke-linejoin="round"/>
<path d="M351.667 816.501H352.12C352.56 816.501 352.987 816.674 353.307 816.994C353.627 817.314 353.8 817.741 353.8 818.181C353.8 818.621 353.627 819.047 353.307 819.367C352.987 819.687 352.56 819.861 352.12 819.861H348.507" stroke="#0A838A" stroke-width="1.25" stroke-linecap="round" stroke-linejoin="round"/>
<path d="M383.107 814.487H360.507" stroke="#0A838A" stroke-width="1.25" stroke-linecap="round" stroke-linejoin="round"/>
<path d="M351.147 813.141V811.834" stroke="#0A838A" stroke-width="1.25" stroke-linecap="round" stroke-linejoin="round"/>
<path d="M340.24 807.834H391.36" stroke="#0A838A" stroke-width="1.25" stroke-linecap="round" stroke-linejoin="round"/>
<path d="M346.507 805.154H343.813" stroke="#0A838A" stroke-width="1.25" stroke-linecap="round" stroke-linejoin="round"/>
<path d="M391.8 841.127H339.8V802.501H391.8V841.127Z" stroke="#0A838A" stroke-width="1.25" stroke-linecap="round" stroke-linejoin="round"/>
<path d="M241.83 823.324V819.334" stroke="#46A758" stroke-linecap="round" stroke-linejoin="round"/>
<path d="M228 817.624L230.87 814.844" stroke="#46A758" stroke-linecap="round" stroke-linejoin="round"/>
<path d="M252.83 814.804L255.6 817.684" stroke="#46A758" stroke-linecap="round" stroke-linejoin="round"/>
<path d="M261.35 803.844H257.35" stroke="#46A758" stroke-linecap="round" stroke-linejoin="round"/>
<path d="M226.35 803.844H222.35" stroke="#46A758" stroke-linecap="round" stroke-linejoin="round"/>
<path d="M226.35 803.844H222.35" stroke="#46A758" stroke-linecap="round" stroke-linejoin="round"/>
<path d="M236.35 800.254H232.3V812.334H236.35V800.254Z" stroke="#46A758" stroke-linecap="round" stroke-linejoin="round"/>
<path d="M236.36 809.364C236.36 809.364 238.87 812.314 238.91 812.324H246.17C247.87 812.354 249.39 811.354 249.64 809.674L251.26 800.634C251.28 800.514 251.19 800.394 251.07 800.394L244.79 800.364L248.02 794.124C248.02 794.124 248.02 794.084 248.01 794.074L245.01 792.414C245.01 792.414 244.98 792.414 244.97 792.414L236.38 802.564" stroke="#46A758" stroke-linecap="round" stroke-linejoin="round"/>
<path d="M252.79 792.794L255.66 790.014" stroke="#46A758" stroke-linecap="round" stroke-linejoin="round"/>
<path d="M228.06 789.954L230.83 792.834" stroke="#46A758" stroke-linecap="round" stroke-linejoin="round"/>
<path d="M241.83 784.374V788.374" stroke="#46A758" stroke-linecap="round" stroke-linejoin="round"/>
<g clip-path="url(#clip2_881_23576)">
<path d="M176.823 714.263L212.648 698.748L199.144 667.567L193.675 669.935L193.643 669.96L192.438 667.18L185.978 669.977L187.17 672.73L175.241 677.897L174.049 675.144L167.644 677.917L168.848 680.698L163.32 683.081L175.261 710.656L207.351 696.759L196.991 672.836L168.59 685.136L176.92 704.37" stroke="#0A838A" stroke-width="1.25" stroke-linecap="round" stroke-linejoin="round"/>
<path d="M192.547 697.678L186.193 683.005" stroke="#0A838A" stroke-width="1.25" stroke-linecap="round" stroke-linejoin="round"/>
<path d="M189.794 698.87L183.44 684.197" stroke="#0A838A" stroke-width="1.25" stroke-linecap="round" stroke-linejoin="round"/>
<path d="M186.318 698.24L192.025 695.768C192.76 695.45 193.339 694.851 193.63 694.114C193.927 693.365 193.909 692.544 193.591 691.81C193.273 691.076 192.674 690.496 191.937 690.205C191.188 689.908 190.367 689.926 189.633 690.244L186.375 691.655C185.641 691.973 184.808 691.985 184.071 691.694C183.322 691.397 182.735 690.823 182.417 690.089C182.099 689.355 182.087 688.521 182.378 687.784C182.675 687.035 183.249 686.448 183.983 686.13L189.728 683.643" stroke="#0A838A" stroke-width="1.25" stroke-linecap="round" stroke-linejoin="round"/>
</g>
<g clip-path="url(#clip3_881_23576)">
<path d="M328.706 258.146L322.456 260.561" stroke="#E74595" stroke-width="2" stroke-linecap="round" stroke-linejoin="round"/>
<path d="M331.395 251.973L344.19 257.636C345.822 258.359 347.726 257.623 348.449 255.991C349.171 254.358 348.435 252.454 346.803 251.731L332.461 245.383C331.669 245.033 330.762 245.005 329.961 245.324L318.412 249.786" stroke="#E74595" stroke-width="2" stroke-linecap="round" stroke-linejoin="round"/>
<path d="M355.612 225.603C352.612 224.275 349.357 224.299 346.528 225.372C343.701 226.474 341.288 228.65 339.96 231.651C337.314 237.628 340.018 244.652 346.007 247.303C351.996 249.954 359.014 247.232 361.66 241.255C364.305 235.278 361.601 228.254 355.612 225.603V225.603Z" stroke="#E74595" stroke-width="2" stroke-linecap="round" stroke-linejoin="round"/>
<path d="M352.876 231.784L353.588 230.176" stroke="#E74595" stroke-width="2" stroke-linecap="round" stroke-linejoin="round"/>
<path d="M348.032 242.73L348.743 241.122" stroke="#E74595" stroke-width="2" stroke-linecap="round" stroke-linejoin="round"/>
<path d="M345.775 239.592L350.251 241.574C350.839 241.834 351.45 241.817 352.056 241.583C352.662 241.349 353.085 240.847 353.345 240.259C353.605 239.671 353.692 239.021 353.458 238.415C353.224 237.809 352.826 237.345 352.238 237.085L349.382 235.821C348.794 235.56 348.396 235.097 348.162 234.491C347.927 233.885 348.014 233.235 348.275 232.647C348.535 232.059 348.958 231.557 349.564 231.323C350.17 231.089 350.78 231.072 351.368 231.332L355.929 233.351" stroke="#E74595" stroke-width="2" stroke-linecap="round" stroke-linejoin="round"/>
<path d="M352.876 231.784L353.588 230.176" stroke="#E74595" stroke-width="2" stroke-linecap="round" stroke-linejoin="round"/>
<path d="M348.032 242.73L348.743 241.122" stroke="#E74595" stroke-width="2" stroke-linecap="round" stroke-linejoin="round"/>
<path d="M345.775 239.592L350.251 241.574C350.839 241.834 351.45 241.817 352.056 241.583C352.662 241.349 353.085 240.847 353.345 240.259C353.605 239.671 353.692 239.021 353.458 238.415C353.224 237.809 352.826 237.345 352.238 237.085L349.382 235.821C348.794 235.56 348.396 235.097 348.162 234.491C347.927 233.885 348.014 233.235 348.275 232.647C348.535 232.059 348.958 231.557 349.564 231.323C350.17 231.089 350.78 231.072 351.368 231.332L355.929 233.351" stroke="#E74595" stroke-width="2" stroke-linecap="round" stroke-linejoin="round"/>
<path d="M346.453 257.777L364.996 250.612C366.659 249.97 368.531 250.799 369.173 252.461C369.815 254.123 368.987 255.995 367.324 256.637L346.265 264.784C345.451 265.099 344.557 265.076 343.765 264.725L328.846 258.122" stroke="#E74595" stroke-width="2" stroke-linecap="round" stroke-linejoin="round"/>
</g>
<g clip-path="url(#clip4_881_23576)">
<path d="M38.3574 252.374L5.67773 263.37" stroke="#1CDBBC" stroke-width="2" stroke-linecap="round" stroke-linejoin="round"/>
<path d="M66.0394 233.465L75.7087 262.202L9.9704 284.322L7.4021 276.689" stroke="#1CDBBC" stroke-width="2" stroke-linecap="round" stroke-linejoin="round"/>
<path d="M-4.63696 233.05L28.1438 222.02" stroke="#1CDBBC" stroke-width="2" stroke-linecap="round" stroke-linejoin="round"/>
<path d="M66.1649 233.17C77.3318 229.412 83.3383 217.314 79.5809 206.147C75.8234 194.98 63.7249 188.973 52.558 192.731C41.3912 196.488 35.3846 208.587 39.142 219.754C42.8995 230.921 54.998 236.927 66.1649 233.17Z" stroke="#1CDBBC" stroke-width="2" stroke-linecap="round" stroke-linejoin="round"/>
<path d="M49.4404 217.414L57.3783 221.355L67.318 202.564" stroke="#1CDBBC" stroke-width="2" stroke-linecap="round" stroke-linejoin="round"/>
<path d="M24.7335 211.885L-7.79443 222.83" stroke="#1CDBBC" stroke-width="2" stroke-linecap="round" stroke-linejoin="round"/>
<path d="M45.0132 196.564L39.1453 179.125L46.8792 176.522L52.2624 192.521" stroke="#1CDBBC" stroke-width="2" stroke-linecap="round" stroke-linejoin="round"/>
<path d="M-22.5429 211.023L-0.352086 203.557L-7.74231 181.593" stroke="#1CDBBC" stroke-width="2" stroke-linecap="round" stroke-linejoin="round"/>
<path d="M-7.93047 180.7L-23.5311 210.512L-0.407939 279.232L65.381 257.096L57.7781 234.501" stroke="#1CDBBC" stroke-width="2" stroke-linecap="round" stroke-linejoin="round"/>
<path d="M2.17505 253.294L34.9558 242.264" stroke="#1CDBBC" stroke-width="2" stroke-linecap="round" stroke-linejoin="round"/>
<path d="M-1.23511 243.159L31.5456 232.129" stroke="#1CDBBC" stroke-width="2" stroke-linecap="round" stroke-linejoin="round"/>
<path d="M-8.03149 180.734L34.8337 166.311L39.511 180.211" stroke="#1CDBBC" stroke-width="2" stroke-linecap="round" stroke-linejoin="round"/>
</g>
<g clip-path="url(#clip5_881_23576)">
<path d="M313.903 657.141L301.198 653.008" stroke="#063636" stroke-width="2" stroke-linecap="round" stroke-linejoin="round"/>
<path d="M308.63 630.16L346.948 642.623" stroke="#063636" stroke-width="2" stroke-linecap="round" stroke-linejoin="round"/>
<path d="M352.563 633.289L327.306 625.074" stroke="#063636" stroke-width="2" stroke-linecap="round" stroke-linejoin="round"/>
<path d="M342.919 610.523L317.687 602.316" stroke="#063636" stroke-width="2" stroke-linecap="round" stroke-linejoin="round"/>
<path d="M352.571 599.641L311.617 586.32L285.28 667.291L346.116 687.079L370.003 613.64L377.814 616.18L351.411 697.354L290.6 677.575L293.091 669.916" stroke="#063636" stroke-width="2" stroke-linecap="round" stroke-linejoin="round"/>
<path d="M328.346 672.999C333.92 674.812 339.909 671.763 341.722 666.189C343.535 660.615 340.486 654.626 334.912 652.813C329.338 651 323.349 654.049 321.536 659.623C319.723 665.197 322.772 671.186 328.346 672.999Z" stroke="#063636" stroke-width="2" stroke-linecap="round" stroke-linejoin="round"/>
<path d="M326.371 662.346L328.373 666.278L337.903 661.722" stroke="#063636" stroke-width="2" stroke-linecap="round" stroke-linejoin="round"/>
<path d="M355.61 607.023L352.245 617.37C350.496 622.746 358.003 625.187 359.751 619.811L364.346 605.686" stroke="#063636" stroke-width="2" stroke-linecap="round" stroke-linejoin="round"/>
<path d="M363.026 609.744L364.469 605.306C367.216 596.862 356.375 592.775 352.571 599.641" stroke="#063636" stroke-width="2" stroke-linecap="round" stroke-linejoin="round"/>
</g>
<g clip-path="url(#clip6_881_23576)">
<path d="M10.9668 747.004C18.0101 745.066 22.1493 737.786 20.2119 730.743C18.2746 723.699 10.9943 719.56 3.95101 721.498C-3.09228 723.435 -7.23147 730.715 -5.29411 737.759C-3.35676 744.802 3.9235 748.941 10.9668 747.004Z" stroke="#882CE3" stroke-width="2" stroke-linecap="round" stroke-linejoin="round"/>
<path d="M12.7555 732.794L2.18799 735.701" stroke="#882CE3" stroke-width="2" stroke-linecap="round" stroke-linejoin="round"/>
<path d="M8.76413 739.7L5.8291 729.029" stroke="#882CE3" stroke-width="2" stroke-linecap="round" stroke-linejoin="round"/>
<path d="M44.3921 737.81C51.4354 735.872 55.5746 728.592 53.6372 721.549C51.6999 714.505 44.4196 710.366 37.3763 712.304C30.333 714.241 26.1938 721.521 28.1312 728.564C30.0685 735.608 37.3488 739.747 44.3921 737.81Z" stroke="#882CE3" stroke-width="2" stroke-linecap="round" stroke-linejoin="round"/>
<path d="M46.1552 723.607L35.5876 726.513" stroke="#882CE3" stroke-width="2" stroke-linecap="round" stroke-linejoin="round"/>
<path d="M44.8666 674.178L-21.9839 692.567C-25.4488 693.52 -27.485 697.101 -26.5319 700.566L-2.42929 788.191C-1.47624 791.656 2.10518 793.693 5.57002 792.739L72.4205 774.351C75.8854 773.398 77.9216 769.817 76.9685 766.352L52.8659 678.726C51.9128 675.262 48.3314 673.225 44.8666 674.178Z" stroke="#882CE3" stroke-width="2" stroke-linecap="round" stroke-linejoin="round"/>
<path d="M20.8634 767.901L11.3232 762.477" stroke="#882CE3" stroke-width="2" stroke-linecap="round" stroke-linejoin="round"/>
<path d="M13.1359 769.971L18.6159 760.332" stroke="#882CE3" stroke-width="2" stroke-linecap="round" stroke-linejoin="round"/>
<path d="M52.8931 768.715C59.9364 766.778 64.0756 759.497 62.1382 752.454C60.2008 745.411 52.9206 741.272 45.8773 743.209C38.834 745.146 34.6948 752.427 36.6322 759.47C38.5695 766.513 45.8498 770.652 52.8931 768.715Z" stroke="#882CE3" stroke-width="2" stroke-linecap="round" stroke-linejoin="round"/>
<path d="M52.088 751.208L46.6826 760.716" stroke="#882CE3" stroke-width="2" stroke-linecap="round" stroke-linejoin="round"/>
<path d="M19.4678 777.909C26.5111 775.972 30.6503 768.692 28.7129 761.648C26.7755 754.605 19.4953 750.466 12.452 752.403C5.40869 754.341 1.26951 761.621 3.20687 768.664C5.14422 775.707 12.4245 779.847 19.4678 777.909Z" stroke="#882CE3" stroke-width="2" stroke-linecap="round" stroke-linejoin="round"/>
<path d="M56.9539 695.8L6.37891 709.712" stroke="#882CE3" stroke-width="2" stroke-linecap="round" stroke-linejoin="round"/>
<path d="M10.9668 747.004C18.0101 745.066 22.1493 737.786 20.2119 730.743C18.2746 723.699 10.9943 719.56 3.95101 721.498C-3.09228 723.435 -7.23147 730.715 -5.29411 737.759C-3.35676 744.802 3.9235 748.941 10.9668 747.004Z" stroke="#882CE3" stroke-width="2" stroke-linecap="round" stroke-linejoin="round"/>
<path d="M12.7555 732.794L2.18799 735.701" stroke="#882CE3" stroke-width="2" stroke-linecap="round" stroke-linejoin="round"/>
<path d="M8.76413 739.7L5.8291 729.029" stroke="#882CE3" stroke-width="2" stroke-linecap="round" stroke-linejoin="round"/>
<path d="M44.3921 737.81C51.4354 735.872 55.5746 728.592 53.6372 721.549C51.6999 714.505 44.4196 710.366 37.3763 712.304C30.333 714.241 26.1938 721.521 28.1312 728.564C30.0685 735.608 37.3488 739.747 44.3921 737.81Z" stroke="#882CE3" stroke-width="2" stroke-linecap="round" stroke-linejoin="round"/>
<path d="M46.1552 723.607L35.5876 726.513" stroke="#882CE3" stroke-width="2" stroke-linecap="round" stroke-linejoin="round"/>
<path d="M44.8666 674.178L-21.9839 692.567C-25.4488 693.52 -27.485 697.101 -26.5319 700.566L-2.42929 788.191C-1.47624 791.656 2.10518 793.693 5.57002 792.739L72.4205 774.351C75.8854 773.398 77.9216 769.817 76.9685 766.352L52.8659 678.726C51.9128 675.262 48.3314 673.225 44.8666 674.178Z" stroke="#882CE3" stroke-width="2" stroke-linecap="round" stroke-linejoin="round"/>
<path d="M20.8634 767.901L11.3232 762.477" stroke="#882CE3" stroke-width="2" stroke-linecap="round" stroke-linejoin="round"/>
<path d="M13.1359 769.971L18.6159 760.332" stroke="#882CE3" stroke-width="2" stroke-linecap="round" stroke-linejoin="round"/>
<path d="M52.8931 768.715C59.9364 766.778 64.0756 759.497 62.1382 752.454C60.2008 745.411 52.9206 741.272 45.8773 743.209C38.834 745.146 34.6948 752.427 36.6322 759.47C38.5695 766.513 45.8498 770.652 52.8931 768.715Z" stroke="#882CE3" stroke-width="2" stroke-linecap="round" stroke-linejoin="round"/>
<path d="M52.088 751.208L46.6826 760.716" stroke="#882CE3" stroke-width="2" stroke-linecap="round" stroke-linejoin="round"/>
<path d="M19.4678 777.909C26.5111 775.972 30.6503 768.692 28.7129 761.648C26.7755 754.605 19.4953 750.466 12.452 752.403C5.40869 754.341 1.26951 761.621 3.20687 768.664C5.14422 775.707 12.4245 779.847 19.4678 777.909Z" stroke="#882CE3" stroke-width="2" stroke-linecap="round" stroke-linejoin="round"/>
<path d="M56.9539 695.8L6.37891 709.712" stroke="#882CE3" stroke-width="2" stroke-linecap="round" stroke-linejoin="round"/>
</g>
<g clip-path="url(#clip7_881_23576)">
<path d="M96.6435 595.158L105.651 577.489L108.049 578.712L135.076 592.49L126.033 610.229" stroke="black" stroke-linecap="round" stroke-linejoin="round"/>
<path d="M111.991 601.427C114.906 602.913 118.474 601.755 119.96 598.84C121.446 595.924 120.288 592.357 117.373 590.87C114.457 589.384 110.89 590.543 109.403 593.458C107.917 596.373 109.076 599.941 111.991 601.427Z" stroke="black" stroke-linecap="round" stroke-linejoin="round"/>
<path d="M136.653 609.763L106.945 611.296" stroke="black" stroke-linecap="round" stroke-linejoin="round"/>
<path d="M90.7576 586.367L106.945 611.296" stroke="black" stroke-linecap="round" stroke-linejoin="round"/>
<path d="M111.893 595.053L112.654 597.366L118.256 595.705" stroke="black" stroke-linecap="round" stroke-linejoin="round"/>
<path d="M131.011 600.637L136.731 609.61L136.653 609.763L123.54 635.485L77.6451 612.089L89.3852 589.059L90.8175 586.249L90.8355 586.214L101.486 585.66" stroke="black" stroke-linecap="round" stroke-linejoin="round"/>
<path d="M115.628 610.998L123.564 635.438" stroke="black" stroke-linecap="round" stroke-linejoin="round"/>
<path d="M102.174 604.065L77.6809 612.018" stroke="black" stroke-linecap="round" stroke-linejoin="round"/>
</g>
<g clip-path="url(#clip8_881_23576)">
<path d="M0.245444 502.326L4.43848 492.547" stroke="#46A758" stroke-width="2" stroke-linecap="round" stroke-linejoin="round"/>
<path d="M36.1829 493.015L39.9452 502.985" stroke="#46A758" stroke-width="2" stroke-linecap="round" stroke-linejoin="round"/>
<path d="M68.5715 475.132L58.7681 470.928" stroke="#46A758" stroke-width="2" stroke-linecap="round" stroke-linejoin="round"/>
<path d="M9.71379 480.244C23.8722 486.315 40.2713 479.758 46.3421 465.6C52.413 451.442 45.8567 435.043 31.6983 428.972C17.5399 422.901 1.14085 429.457 -4.93001 443.616C-11.0009 457.774 -4.44462 474.173 9.71379 480.244Z" stroke="#46A758" stroke-width="2" stroke-linecap="round" stroke-linejoin="round"/>
<path d="M5.53479 450.743L9.79073 461.388L39.0967 451.033" stroke="#46A758" stroke-width="2" stroke-linecap="round" stroke-linejoin="round"/>
<path d="M59.215 439.029L69.1705 435.232" stroke="#46A758" stroke-width="2" stroke-linecap="round" stroke-linejoin="round"/>
<path d="M1.5896 406.081L5.35195 416.05" stroke="#46A758" stroke-width="2" stroke-linecap="round" stroke-linejoin="round"/>
<path d="M41.1772 406.865L36.9737 416.668" stroke="#46A758" stroke-width="2" stroke-linecap="round" stroke-linejoin="round"/>
</g>
<g clip-path="url(#clip9_881_23576)">
<path d="M116.458 814.026C114.526 817.708 114.271 821.83 115.403 825.505C116.561 829.172 119.112 832.419 122.794 834.35C130.142 838.205 139.255 835.377 143.118 828.014C146.981 820.65 144.129 811.544 136.781 807.69C129.418 803.827 120.321 806.663 116.458 814.026V814.026Z" stroke="#E74595" stroke-linecap="round" stroke-linejoin="round"/>
<path d="M122.696 834.519L118.53 842.458" stroke="#E74595" stroke-linecap="round" stroke-linejoin="round"/>
<path d="M101.398 829.267L110.132 826.544" stroke="#E74595" stroke-linecap="round" stroke-linejoin="round"/>
<path d="M99.8276 824.23L108.561 821.507" stroke="#E74595" stroke-linecap="round" stroke-linejoin="round"/>
<path d="M98.2808 819.268L107.014 816.545" stroke="#E74595" stroke-linecap="round" stroke-linejoin="round"/>
<path d="M93.1352 815.331L105.44 811.495L102.041 800.594" stroke="#E74595" stroke-linecap="round" stroke-linejoin="round"/>
<path d="M132.612 806.048L128.233 792.001L101.155 800.444L92.7238 814.717L104.663 853.009L143.494 840.861L140.627 831.664" stroke="#E74595" stroke-linecap="round" stroke-linejoin="round"/>
<path d="M129.263 825.996L128.091 822.236" stroke="#E74595" stroke-linecap="round" stroke-linejoin="round"/>
<path d="M136.781 823.652L135.211 818.614" stroke="#E74595" stroke-linecap="round" stroke-linejoin="round"/>
<path d="M125.517 827.164L123.161 819.608" stroke="#E74595" stroke-linecap="round" stroke-linejoin="round"/>
<path d="M133.022 824.824L130.284 816.04" stroke="#E74595" stroke-linecap="round" stroke-linejoin="round"/>
</g>
<g clip-path="url(#clip10_881_23576)">
<path d="M207.456 291.7L160.905 277.683L156.243 293.165L202.794 307.182L207.456 291.7Z" stroke="#0A838A" stroke-linecap="round" stroke-linejoin="round"/>
<path d="M180.152 294.761L197.444 299.968" stroke="#0A838A" stroke-linecap="round" stroke-linejoin="round"/>
<path d="M181.694 289.64L193.711 293.259" stroke="#0A838A" stroke-linecap="round" stroke-linejoin="round"/>
<path d="M168.459 293.064C170.82 293.775 173.311 292.437 174.022 290.075C174.733 287.714 173.395 285.223 171.034 284.512C168.672 283.801 166.181 285.139 165.47 287.5C164.759 289.862 166.097 292.353 168.459 293.064Z" stroke="#0A838A" stroke-linecap="round" stroke-linejoin="round"/>
<path d="M227.106 263.788L159.917 243.556L152.14 269.383L219.329 289.615L227.106 263.788Z" stroke="#0A838A" stroke-linecap="round" stroke-linejoin="round"/>
<path d="M183.847 269.623L215.054 279.019" stroke="#0A838A" stroke-linecap="round" stroke-linejoin="round"/>
<path d="M168.284 268.603C172.559 269.89 177.068 267.468 178.356 263.193C179.643 258.917 177.221 254.408 172.946 253.121C168.67 251.833 164.161 254.255 162.873 258.531C161.586 262.806 164.008 267.316 168.284 268.603Z" stroke="#0A838A" stroke-linecap="round" stroke-linejoin="round"/>
<path d="M166.621 260.073L168.188 262.989L175.306 259.397" stroke="#0A838A" stroke-linecap="round" stroke-linejoin="round"/>
<path d="M186.438 261.019L207.231 267.28" stroke="#0A838A" stroke-linecap="round" stroke-linejoin="round"/>
<path d="M223.025 239.994L176.474 225.977L171.812 241.459L218.363 255.476L223.025 239.994Z" stroke="#0A838A" stroke-linecap="round" stroke-linejoin="round"/>
<path d="M195.721 243.055L213.014 248.262" stroke="#0A838A" stroke-linecap="round" stroke-linejoin="round"/>
<path d="M197.263 237.934L209.28 241.553" stroke="#0A838A" stroke-linecap="round" stroke-linejoin="round"/>
<path d="M184.028 241.358C186.39 242.069 188.88 240.731 189.591 238.369C190.303 236.008 188.965 233.517 186.603 232.806C184.242 232.095 181.751 233.433 181.04 235.794C180.329 238.156 181.667 240.647 184.028 241.358Z" stroke="#0A838A" stroke-linecap="round" stroke-linejoin="round"/>
</g>
<path d="M379.122 460.65C380.226 460.392 380.912 459.288 380.655 458.183C380.397 457.079 379.293 456.393 378.189 456.65C377.084 456.908 376.398 458.012 376.655 459.116C376.913 460.221 378.017 460.907 379.122 460.65Z" stroke="#1CDBBC" stroke-linecap="round" stroke-linejoin="round"/>
<path d="M390.272 440.249L360.043 447.302" stroke="#1CDBBC" stroke-linecap="round" stroke-linejoin="round"/>
<path d="M350.329 442.75C351.433 442.492 352.119 441.388 351.862 440.284C351.604 439.179 350.5 438.493 349.396 438.751C348.291 439.008 347.605 440.112 347.863 441.217C348.12 442.321 349.224 443.007 350.329 442.75Z" stroke="#1CDBBC" stroke-linecap="round" stroke-linejoin="round"/>
<path d="M377.313 452.898L369.186 418.06" stroke="#1CDBBC" stroke-linecap="round" stroke-linejoin="round"/>
<path d="M386.231 423.339L356.093 430.37" stroke="#1CDBBC" stroke-linecap="round" stroke-linejoin="round"/>
<path d="M382.135 433.659C384.265 443.198 382.134 451.787 377.303 452.914C372.473 454.041 366.631 447.134 364.374 437.46C362.117 427.787 364.248 419.02 369.13 417.881C373.207 416.93 377.927 421.607 380.678 428.824" stroke="#1CDBBC" stroke-linecap="round" stroke-linejoin="round"/>
<path d="M377.31 452.885C387.013 450.621 393.043 440.92 390.78 431.218C388.516 421.515 378.816 415.485 369.113 417.748C359.41 420.012 353.38 429.712 355.643 439.415C357.907 449.118 367.608 455.148 377.31 452.885Z" stroke="#1CDBBC" stroke-linecap="round" stroke-linejoin="round"/>
<path d="M361.022 457.657C362.126 457.399 362.813 456.295 362.555 455.191C362.297 454.086 361.193 453.4 360.089 453.658C358.984 453.915 358.298 455.019 358.556 456.124C358.813 457.228 359.917 457.915 361.022 457.657Z" stroke="#1CDBBC" stroke-linecap="round" stroke-linejoin="round"/>
<path d="M386.127 435.042L388.158 431.775" stroke="#1CDBBC" stroke-linecap="round" stroke-linejoin="round"/>
<path d="M388.158 431.775L355.631 439.363" stroke="#1CDBBC" stroke-linecap="round" stroke-linejoin="round"/>
<path d="M384.888 429.731L388.158 431.775" stroke="#1CDBBC" stroke-linecap="round" stroke-linejoin="round"/>
<path d="M386.325 416.936C387.43 416.679 388.116 415.575 387.858 414.47C387.601 413.366 386.497 412.679 385.392 412.937C384.288 413.195 383.601 414.299 383.859 415.403C384.117 416.508 385.221 417.194 386.325 416.936Z" stroke="#1CDBBC" stroke-linecap="round" stroke-linejoin="round"/>
<path d="M353.318 424.637C354.423 424.379 355.109 423.275 354.851 422.171C354.594 421.066 353.49 420.38 352.385 420.638C351.281 420.895 350.594 421.999 350.852 423.104C351.11 424.208 352.214 424.895 353.318 424.637Z" stroke="#1CDBBC" stroke-linecap="round" stroke-linejoin="round"/>
<path d="M368.228 413.957C369.333 413.699 370.019 412.595 369.761 411.491C369.504 410.386 368.4 409.7 367.295 409.957C366.191 410.215 365.505 411.319 365.762 412.424C366.02 413.528 367.124 414.214 368.228 413.957Z" stroke="#1CDBBC" stroke-linecap="round" stroke-linejoin="round"/>
<g clip-path="url(#clip11_881_23576)">
<path d="M150.767 451.201L146.719 466.855L195.804 479.549" stroke="#8BF5E3" stroke-linecap="round" stroke-linejoin="round"/>
<path d="M174.363 464L157.057 459.525" stroke="#8BF5E3" stroke-linecap="round" stroke-linejoin="round"/>
<path d="M195.879 479.518L198.687 468.663" stroke="#8BF5E3" stroke-linecap="round" stroke-linejoin="round"/>
<path d="M206.458 438.547L211.691 418.315L177.3 409.421L159.112 418.934L150.67 451.578" stroke="#8BF5E3" stroke-linecap="round" stroke-linejoin="round"/>
<path d="M151.066 451.278L166.484 455.266" stroke="#8BF5E3" stroke-linecap="round" stroke-linejoin="round"/>
<path d="M198.202 463.334C199.939 463.783 201.712 462.739 202.162 461.001C202.611 459.263 201.567 457.49 199.829 457.041C198.091 456.592 196.318 457.636 195.869 459.374C195.419 461.112 196.464 462.885 198.202 463.334Z" stroke="#8BF5E3" stroke-linecap="round" stroke-linejoin="round"/>
<path d="M190.816 446.267C192.553 446.717 194.326 445.672 194.776 443.935C195.225 442.197 194.181 440.424 192.443 439.974C190.705 439.525 188.932 440.569 188.483 442.307C188.033 444.045 189.078 445.818 190.816 446.267Z" stroke="#8BF5E3" stroke-linecap="round" stroke-linejoin="round"/>
<path d="M205.728 443.511L184.775 459.761" stroke="#8BF5E3" stroke-linecap="round" stroke-linejoin="round"/>
<path d="M191.072 468.12C200.161 470.471 209.434 465.008 211.784 455.92C214.135 446.831 208.672 437.558 199.584 435.208C190.496 432.858 181.223 438.32 178.872 447.408C176.522 456.497 181.984 465.77 191.072 468.12Z" stroke="#8BF5E3" stroke-linecap="round" stroke-linejoin="round"/>
<path d="M159.169 419.754L174.618 423.749L178.174 409.999" stroke="#8BF5E3" stroke-linecap="round" stroke-linejoin="round"/>
</g>
<path d="M260.283 -43.0849L267.387 -31.9397L267.29 -31.7499L251.004 0.197954L194 -28.8614L208.582 -57.4656L210.361 -60.9553L210.383 -60.9991L223.611 -61.6876" stroke="#0A838A" stroke-width="2" stroke-linecap="round" stroke-linejoin="round"/>
<path d="M241.177 -30.2162L251.034 0.139561" stroke="#0A838A" stroke-width="2" stroke-linecap="round" stroke-linejoin="round"/>
<path d="M12.1724 93.5592C13.2768 93.3016 13.9632 92.1974 13.7055 91.0931C13.4479 89.9887 12.3438 89.3023 11.2394 89.5599C10.135 89.8176 9.44861 90.9217 9.70626 92.0261C9.96391 93.1305 11.068 93.8169 12.1724 93.5592Z" stroke="#063636" stroke-linecap="round" stroke-linejoin="round"/>
<path d="M23.3225 73.1591L-6.90576 80.2114" stroke="#063636" stroke-linecap="round" stroke-linejoin="round"/>
<path d="M30.0721 64.7661C31.1764 64.5085 31.8628 63.4043 31.6052 62.3C31.3475 61.1956 30.2434 60.5092 29.139 60.7669C28.0347 61.0245 27.3483 62.1286 27.6059 63.233C27.8636 64.3374 28.9677 65.0238 30.0721 64.7661Z" stroke="#063636" stroke-linecap="round" stroke-linejoin="round"/>
<path d="M10.364 85.8074L2.23633 50.9696" stroke="#063636" stroke-linecap="round" stroke-linejoin="round"/>
<path d="M19.2814 56.2483L-10.856 63.2794" stroke="#063636" stroke-linecap="round" stroke-linejoin="round"/>
<path d="M15.1857 66.5688C17.3153 76.1077 15.1843 84.6965 10.354 85.8234C5.52373 86.9503 -0.31823 80.0436 -2.57507 70.3701C-4.83191 60.6965 -2.70131 51.9298 2.18092 50.7908C6.2581 49.8396 10.9774 54.5164 13.729 61.7333" stroke="#063636" stroke-linecap="round" stroke-linejoin="round"/>
<path d="M10.361 85.7944C20.0637 83.5308 26.0942 73.8302 23.8306 64.1275C21.5669 54.4249 11.8663 48.3943 2.16369 50.658C-7.53898 52.9216 -13.5695 62.6222 -11.3059 72.3248C-9.04224 82.0275 0.658355 88.058 10.361 85.7944Z" stroke="#063636" stroke-linecap="round" stroke-linejoin="round"/>
<path d="M27.0794 82.866C28.1838 82.6084 28.8702 81.5043 28.6125 80.3999C28.3549 79.2955 27.2507 78.6091 26.1464 78.8668C25.042 79.1244 24.3556 80.2286 24.6132 81.3329C24.8709 82.4373 25.975 83.1237 27.0794 82.866Z" stroke="#063636" stroke-linecap="round" stroke-linejoin="round"/>
<path d="M19.1776 67.9513L21.2084 64.6845" stroke="#063636" stroke-linecap="round" stroke-linejoin="round"/>
<path d="M21.2084 64.6845L-11.3181 72.2729" stroke="#063636" stroke-linecap="round" stroke-linejoin="round"/>
<path d="M17.9387 62.6406L21.2086 64.6845" stroke="#063636" stroke-linecap="round" stroke-linejoin="round"/>
<path d="M19.376 49.8461C20.4804 49.5885 21.1668 48.4843 20.9091 47.38C20.6515 46.2756 19.5474 45.5892 18.443 45.8468C17.3386 46.1045 16.6522 47.2086 16.9099 48.313C17.1675 49.4174 18.2717 50.1038 19.376 49.8461Z" stroke="#063636" stroke-linecap="round" stroke-linejoin="round"/>
<path d="M1.2791 46.8664C2.38347 46.6088 3.06987 45.5047 2.81222 44.4003C2.55457 43.2959 1.45044 42.6095 0.346072 42.8672C-0.758296 43.1248 -1.4447 44.2289 -1.18705 45.3333C-0.9294 46.4377 0.174734 47.1241 1.2791 46.8664Z" stroke="#063636" stroke-linecap="round" stroke-linejoin="round"/>
<defs>
<clipPath id="clip0_881_23576">
<rect width="64" height="64" fill="white" transform="translate(339.741 54) rotate(21.7744)"/>
</clipPath>
<clipPath id="clip1_881_23576">
<rect width="55.301" height="55.301" fill="white" transform="translate(143.248 78) rotate(24.9497)"/>
</clipPath>
<clipPath id="clip2_881_23576">
<rect width="48" height="48" fill="white" transform="translate(156 677.075) rotate(-23.4157)"/>
</clipPath>
<clipPath id="clip3_881_23576">
<rect width="63.0006" height="63.0006" fill="white" transform="translate(330.499 205) rotate(23.8748)"/>
</clipPath>
<clipPath id="clip4_881_23576">
<rect width="128" height="128" fill="white" transform="translate(-48 181.775) rotate(-18.5971)"/>
</clipPath>
<clipPath id="clip5_881_23576">
<rect width="128" height="128" fill="white" transform="translate(291.592 559) rotate(18.0178)"/>
</clipPath>
<clipPath id="clip6_881_23576">
<rect width="128" height="128" fill="white" transform="translate(-53 688.901) rotate(-15.3796)"/>
</clipPath>
<clipPath id="clip7_881_23576">
<rect width="63.3375" height="63.3375" fill="white" transform="translate(96.7661 562) rotate(27.0115)"/>
</clipPath>
<clipPath id="clip8_881_23576">
<rect width="128" height="128" fill="white" transform="translate(-12.5574 371) rotate(23.2087)"/>
</clipPath>
<clipPath id="clip9_881_23576">
<rect width="63" height="63" fill="white" transform="translate(81 800.706) rotate(-17.3167)"/>
</clipPath>
<clipPath id="clip10_881_23576">
<rect width="86.4276" height="86.4276" fill="white" transform="translate(160.919 213) rotate(16.7578)"/>
</clipPath>
<clipPath id="clip11_881_23576">
<rect width="78" height="78" fill="white" transform="translate(156.007 396.479) rotate(14.5)"/>
</clipPath>
</defs>
</svg>
