<svg width="96" height="320" viewBox="0 0 96 320" fill="none" xmlns="http://www.w3.org/2000/svg">
<g clip-path="url(#clip0_1723_4193)">
<path d="M44.8899 312.193C44.6473 314.516 43.6672 316.703 42.0908 318.439C41.942 318.609 41.8601 318.827 41.8599 319.053C41.8596 319.279 41.9409 319.497 42.0893 319.668C42.2376 319.839 42.443 319.952 42.668 319.986C42.8931 320.019 43.1228 319.972 43.3154 319.851L55.2117 313.035C55.3567 312.95 55.4767 312.828 55.5601 312.683C55.6434 312.537 55.6873 312.373 55.6873 312.205C55.6873 312.038 55.6434 311.873 55.5601 311.728C55.4767 311.582 55.3567 311.461 55.2117 311.375L43.3154 304.534C43.1196 304.435 42.8959 304.405 42.6805 304.448C42.4652 304.492 42.2707 304.606 42.1289 304.772C41.9872 304.938 41.9065 305.147 41.8995 305.365C41.8926 305.583 41.9599 305.797 42.0908 305.972C43.661 307.701 44.6405 309.879 44.8899 312.193" fill="#1CDBBC"/>
<path d="M70.3562 312.193C70.1135 314.516 69.1334 316.703 67.557 318.438C67.4311 318.616 67.3691 318.83 67.3807 319.047C67.3923 319.263 67.4769 319.47 67.6211 319.633C67.7654 319.796 67.9607 319.906 68.1758 319.946C68.3908 319.985 68.613 319.952 68.8067 319.851L80.7029 313.035C80.8479 312.95 80.9679 312.828 81.0513 312.682C81.1347 312.537 81.1785 312.372 81.1785 312.205C81.1785 312.038 81.1347 311.873 81.0513 311.728C80.9679 311.582 80.8479 311.461 80.7029 311.375L68.8067 304.534C68.6102 304.423 68.3808 304.382 68.1578 304.42C67.9347 304.458 67.732 304.572 67.5842 304.742C67.4364 304.912 67.3527 305.127 67.3478 305.352C67.3428 305.576 67.4168 305.795 67.557 305.972C69.1272 307.701 70.1068 309.878 70.3562 312.193" fill="#1CDBBC"/>
<path d="M19.398 312.193C19.1554 314.516 18.1753 316.703 16.5989 318.438C16.4729 318.616 16.4107 318.83 16.4223 319.047C16.4339 319.263 16.5184 319.47 16.6627 319.633C16.8069 319.796 17.0023 319.906 17.2173 319.946C17.4324 319.985 17.6548 319.952 17.8485 319.851L29.7445 313.035C29.8895 312.95 30.0098 312.828 30.0932 312.682C30.1766 312.537 30.2204 312.372 30.2204 312.205C30.2204 312.038 30.1766 311.873 30.0932 311.728C30.0098 311.582 29.8895 311.461 29.7445 311.375L17.8485 304.534C17.6521 304.423 17.4224 304.382 17.1993 304.42C16.9762 304.458 16.7736 304.572 16.6258 304.742C16.478 304.912 16.3946 305.127 16.3896 305.352C16.3847 305.576 16.4587 305.795 16.5989 305.972C18.1691 307.701 19.1486 309.878 19.398 312.193" fill="#1CDBBC"/>
<path d="M70.3552 285.177C70.1076 287.499 69.1282 289.684 67.5561 291.423C67.4301 291.6 67.3682 291.814 67.3798 292.031C67.3914 292.248 67.476 292.454 67.6202 292.617C67.7644 292.78 67.9598 292.89 68.1748 292.93C68.3899 292.97 68.6121 292.936 68.8057 292.836L80.702 285.995C80.8475 285.912 80.9685 285.793 81.0526 285.65C81.1366 285.506 81.181 285.343 81.181 285.177C81.181 285.011 81.1366 284.848 81.0526 284.704C80.9685 284.56 80.8475 284.441 80.702 284.359L68.8057 277.518C68.6121 277.418 68.3899 277.384 68.1748 277.424C67.9598 277.464 67.7644 277.574 67.6202 277.737C67.476 277.9 67.3914 278.106 67.3798 278.323C67.3682 278.54 67.4301 278.754 67.5561 278.931C69.1325 280.667 70.1126 282.854 70.3552 285.177" fill="#1CDBBC"/>
<path d="M19.3975 285.177C19.1498 287.499 18.1704 289.684 16.5984 291.423C16.4724 291.6 16.4101 291.814 16.4217 292.031C16.4333 292.248 16.5179 292.454 16.6621 292.617C16.8064 292.78 17.0017 292.89 17.2168 292.93C17.4318 292.97 17.6543 292.936 17.848 292.836L29.7439 285.995C29.8894 285.912 30.0104 285.793 30.0945 285.65C30.1786 285.506 30.2229 285.343 30.2229 285.177C30.2229 285.011 30.1786 284.848 30.0945 284.704C30.0104 284.56 29.8894 284.441 29.7439 284.359L17.848 277.518C17.6543 277.418 17.4318 277.384 17.2168 277.424C17.0017 277.464 16.8064 277.574 16.6621 277.737C16.5179 277.9 16.4333 278.106 16.4217 278.323C16.4101 278.54 16.4724 278.754 16.5984 278.931C18.1748 280.667 19.1549 282.854 19.3975 285.177" fill="#1CDBBC"/>
<path d="M44.8899 285.177C44.6423 287.499 43.6628 289.685 42.0908 291.423C41.942 291.594 41.8601 291.812 41.8599 292.038C41.8596 292.263 41.9409 292.481 42.0893 292.653C42.2376 292.824 42.443 292.936 42.668 292.97C42.8931 293.004 43.1228 292.956 43.3154 292.836L55.2117 285.995C55.3571 285.913 55.4781 285.794 55.5622 285.65C55.6463 285.506 55.6903 285.343 55.6903 285.177C55.6903 285.011 55.6463 284.848 55.5622 284.704C55.4781 284.561 55.3571 284.442 55.2117 284.359L43.3154 277.519C43.1228 277.398 42.8931 277.351 42.668 277.384C42.443 277.418 42.2376 277.53 42.0893 277.702C41.9409 277.873 41.8596 278.091 41.8599 278.317C41.8601 278.542 41.942 278.761 42.0908 278.931C43.6672 280.667 44.6473 282.854 44.8899 285.177" fill="#1CDBBC"/>
<path d="M76.13 243.043C78.4591 243.402 80.6124 244.487 82.2779 246.141C82.4493 246.282 82.6641 246.36 82.8866 246.363C83.1091 246.366 83.3258 246.294 83.501 246.157C83.6762 246.021 83.7991 245.83 83.8494 245.615C83.8997 245.4 83.8746 245.174 83.7777 244.976L77.4797 232.856C77.3966 232.712 77.2764 232.592 77.1316 232.508C76.9867 232.425 76.8222 232.381 76.6547 232.381C76.4872 232.381 76.3227 232.425 76.1779 232.508C76.033 232.592 75.9131 232.712 75.8301 232.856L68.3325 244.282C68.2128 244.47 68.1621 244.693 68.1891 244.914C68.216 245.135 68.319 245.339 68.4804 245.494C68.6419 245.648 68.8522 245.742 69.0756 245.761C69.2991 245.779 69.5221 245.721 69.7071 245.595C71.5218 244.119 73.7617 243.251 76.105 243.117" fill="#1CDBBC"/>
<path d="M48.0113 243.067C50.3448 243.314 52.5401 244.286 54.2843 245.843C54.4631 245.968 54.6791 246.029 54.8975 246.018C55.1159 246.006 55.324 245.922 55.4885 245.779C55.6529 245.636 55.7639 245.443 55.8039 245.229C55.8439 245.016 55.8103 244.796 55.7087 244.604L48.8359 232.806C48.7495 232.662 48.6269 232.543 48.4802 232.46C48.3334 232.378 48.1675 232.334 47.9988 232.334C47.83 232.334 47.6641 232.378 47.5173 232.46C47.3706 232.543 47.248 232.662 47.1616 232.806L40.2888 244.604C40.1872 244.796 40.1536 245.016 40.1936 245.229C40.2336 245.443 40.3446 245.636 40.509 245.779C40.6735 245.922 40.8816 246.006 41.1 246.018C41.3184 246.029 41.5344 245.968 41.7132 245.843C43.4632 244.28 45.6685 243.308 48.0113 243.067" fill="#1CDBBC"/>
<path d="M19.9971 243.042C22.3469 243.181 24.5932 244.048 26.4199 245.521C26.6053 245.633 26.8233 245.681 27.0392 245.657C27.2552 245.632 27.4565 245.537 27.6116 245.386C27.7667 245.235 27.8664 245.037 27.895 244.824C27.9236 244.61 27.8796 244.393 27.7696 244.207L20.272 232.781C20.1889 232.637 20.0687 232.517 19.9239 232.434C19.779 232.35 19.6145 232.306 19.447 232.306C19.2795 232.306 19.115 232.35 18.9702 232.434C18.8253 232.517 18.7054 232.637 18.6224 232.781L12.3243 244.901C12.2275 245.1 12.2023 245.325 12.2526 245.54C12.3029 245.755 12.4259 245.947 12.601 246.083C12.7762 246.219 12.993 246.291 13.2155 246.288C13.438 246.285 13.6525 246.207 13.8238 246.066C15.4893 244.412 17.6429 243.327 19.9721 242.968" fill="#1CDBBC"/>
<path d="M77.3287 217.167C79.6468 217.537 81.789 218.621 83.4519 220.265C83.6221 220.398 83.8319 220.471 84.0487 220.473C84.2655 220.474 84.4767 220.404 84.6488 220.273C84.8208 220.142 84.9439 219.958 84.9987 219.75C85.0535 219.542 85.0369 219.322 84.9514 219.125L78.6784 206.98C78.5919 206.836 78.4694 206.717 78.3226 206.634C78.1759 206.552 78.01 206.508 77.8412 206.508C77.6724 206.508 77.5063 206.552 77.3595 206.634C77.2127 206.717 77.0902 206.836 77.0038 206.98L69.5062 218.431C69.3993 218.619 69.3589 218.837 69.3914 219.05C69.424 219.263 69.5275 219.46 69.6855 219.608C69.8436 219.756 70.0471 219.848 70.2637 219.868C70.4802 219.888 70.6976 219.836 70.8808 219.72C72.7032 218.24 74.9521 217.372 77.3037 217.241" fill="#1CDBBC"/>
<path d="M48.0113 217.166C50.3449 217.414 52.5402 218.385 54.2844 219.942C54.4566 220.09 54.6764 220.171 54.904 220.171C55.1316 220.172 55.3517 220.091 55.5242 219.944C55.6968 219.797 55.8104 219.593 55.8443 219.37C55.8781 219.147 55.83 218.919 55.7088 218.728L48.836 206.93C48.7495 206.786 48.627 206.667 48.4802 206.585C48.3335 206.502 48.1676 206.458 47.9988 206.458C47.83 206.458 47.6642 206.502 47.5174 206.585C47.3706 206.667 47.2481 206.786 47.1617 206.93L40.2889 218.728C40.1676 218.919 40.1195 219.147 40.1534 219.37C40.1873 219.593 40.3009 219.797 40.4734 219.944C40.646 220.091 40.8661 220.172 41.0937 220.171C41.3212 220.171 41.5411 220.09 41.7133 219.942C43.4633 218.379 45.6686 217.407 48.0113 217.166" fill="#1CDBBC"/>
<path d="M18.6465 217.167C20.9963 217.306 23.2427 218.173 25.0694 219.646C25.2498 219.779 25.4723 219.844 25.6966 219.83C25.921 219.815 26.1329 219.723 26.2949 219.568C26.4568 219.413 26.558 219.207 26.5807 218.985C26.6035 218.763 26.5463 218.541 26.419 218.357L18.9214 206.906C18.8384 206.762 18.7185 206.642 18.5736 206.558C18.4288 206.475 18.2643 206.431 18.0968 206.431C17.9293 206.431 17.7648 206.475 17.6199 206.558C17.4751 206.642 17.3549 206.762 17.2718 206.906L10.9741 219.051C10.8886 219.248 10.8717 219.468 10.9265 219.676C10.9813 219.884 11.1044 220.068 11.2764 220.199C11.4485 220.33 11.6597 220.4 11.8765 220.399C12.0933 220.397 12.3034 220.324 12.4736 220.191C14.1629 218.569 16.3212 217.512 18.6465 217.167" fill="#1CDBBC"/>
<path d="M78.6292 191.415C80.951 191.774 83.0963 192.86 84.7521 194.513C84.9234 194.654 85.1383 194.733 85.3607 194.736C85.5832 194.739 85.8 194.666 85.9752 194.53C86.1503 194.394 86.2733 194.203 86.3236 193.988C86.3739 193.773 86.3487 193.547 86.2519 193.348L79.9788 181.229C79.8924 181.085 79.7696 180.966 79.6228 180.883C79.476 180.8 79.3102 180.757 79.1414 180.757C78.9726 180.757 78.8067 180.8 78.66 180.883C78.5132 180.966 78.3907 181.085 78.3043 181.229L70.8066 192.679C70.66 192.864 70.5882 193.096 70.6056 193.331C70.6229 193.565 70.728 193.785 70.9003 193.946C71.0725 194.108 71.2994 194.2 71.5364 194.204C71.7734 194.208 72.0036 194.124 72.1813 193.968C74.0105 192.5 76.2555 191.634 78.6041 191.49" fill="#1CDBBC"/>
<path d="M48.0113 191.415C50.3473 191.671 52.5424 192.651 54.2843 194.216C54.4631 194.341 54.6791 194.402 54.8975 194.391C55.1159 194.379 55.324 194.295 55.4885 194.152C55.6529 194.009 55.7639 193.815 55.8039 193.602C55.8439 193.389 55.8103 193.169 55.7087 192.976L48.8359 181.179C48.7495 181.035 48.6269 180.916 48.4802 180.833C48.3334 180.751 48.1675 180.707 47.9988 180.707C47.83 180.707 47.6641 180.751 47.5173 180.833C47.3706 180.916 47.248 181.035 47.1616 181.179L40.2888 192.976C40.1872 193.169 40.1536 193.389 40.1936 193.602C40.2336 193.815 40.3446 194.009 40.509 194.152C40.6735 194.295 40.8816 194.379 41.1 194.391C41.3184 194.402 41.5344 194.341 41.7132 194.216C43.4618 192.646 45.6665 191.666 48.0113 191.415" fill="#1CDBBC"/>
<path d="M17.3974 191.415C19.7385 191.559 21.9757 192.426 23.7955 193.894C23.9733 194.049 24.2031 194.133 24.4402 194.129C24.6772 194.125 24.904 194.033 25.0763 193.872C25.2485 193.71 25.3536 193.491 25.371 193.256C25.3883 193.022 25.3166 192.789 25.1699 192.605L17.6723 181.154C17.5892 181.01 17.4693 180.89 17.3245 180.806C17.1796 180.723 17.0151 180.679 16.8476 180.679C16.6802 180.679 16.5156 180.723 16.3708 180.806C16.226 180.89 16.1058 181.01 16.0227 181.154L9.72495 193.274C9.62812 193.473 9.60266 193.698 9.65295 193.913C9.70325 194.128 9.82619 194.319 10.0014 194.456C10.1765 194.592 10.3933 194.664 10.6158 194.661C10.8383 194.658 11.0531 194.58 11.2244 194.439C12.89 192.785 15.0432 191.7 17.3724 191.341" fill="#1CDBBC"/>
<path d="M79.9283 165.589C82.2464 165.959 84.3883 167.043 86.0513 168.687C86.2226 168.828 86.4374 168.906 86.6599 168.909C86.8824 168.912 87.0992 168.84 87.2743 168.704C87.4495 168.568 87.5724 168.376 87.6227 168.161C87.673 167.946 87.6476 167.721 87.5507 167.522L81.278 155.402C81.1916 155.258 81.0687 155.139 80.922 155.057C80.7752 154.974 80.6093 154.93 80.4405 154.93C80.2717 154.93 80.1059 154.974 79.9591 155.057C79.8124 155.139 79.6898 155.258 79.6034 155.402L72.1058 166.853C71.9989 167.041 71.9585 167.259 71.9911 167.472C72.0236 167.685 72.1271 167.882 72.2851 168.03C72.4432 168.178 72.6467 168.27 72.8633 168.29C73.0799 168.31 73.2969 168.258 73.4801 168.142C75.3042 166.665 77.5524 165.797 79.9033 165.663" fill="#1CDBBC"/>
<path d="M48.0113 165.614C50.3448 165.861 52.5401 166.833 54.2843 168.39C54.4631 168.515 54.6791 168.576 54.8975 168.565C55.1159 168.553 55.324 168.469 55.4885 168.326C55.6529 168.183 55.7639 167.99 55.8039 167.776C55.8439 167.563 55.8103 167.343 55.7087 167.151L48.8359 155.353C48.7495 155.209 48.6269 155.09 48.4802 155.007C48.3334 154.925 48.1675 154.881 47.9988 154.881C47.83 154.881 47.6641 154.925 47.5173 155.007C47.3706 155.09 47.248 155.209 47.1616 155.353L40.2888 167.151C40.1872 167.343 40.1536 167.563 40.1936 167.776C40.2336 167.99 40.3446 168.183 40.509 168.326C40.6735 168.469 40.8816 168.553 41.1 168.565C41.3184 168.576 41.5344 168.515 41.7132 168.39C43.4632 166.826 45.6685 165.854 48.0113 165.614" fill="#1CDBBC"/>
<path d="M16.1465 165.589C18.4981 165.72 20.747 166.588 22.5693 168.067C22.7526 168.184 22.9699 168.236 23.1865 168.216C23.4031 168.195 23.6066 168.104 23.7647 167.956C23.9227 167.808 24.0262 167.611 24.0587 167.398C24.0913 167.184 24.0509 166.967 23.944 166.779L16.4464 155.328C16.36 155.184 16.2374 155.065 16.0907 154.982C15.9439 154.9 15.7781 154.856 15.6093 154.856C15.4405 154.856 15.2746 154.9 15.1278 154.982C14.9811 155.065 14.8582 155.184 14.7718 155.328L8.49878 167.448C8.40194 167.646 8.37678 167.872 8.42708 168.087C8.47738 168.302 8.60032 168.493 8.77548 168.629C8.95065 168.766 9.16743 168.838 9.38991 168.835C9.6124 168.832 9.82723 168.754 9.99855 168.613C11.6615 166.969 13.8034 165.885 16.1215 165.515" fill="#1CDBBC"/>
<path d="M81.1257 139.788C83.4475 140.147 85.5928 141.232 87.2486 142.886C87.4199 143.027 87.6348 143.105 87.8573 143.108C88.0797 143.111 88.2965 143.039 88.4717 142.903C88.6469 142.767 88.7698 142.575 88.8201 142.36C88.8704 142.145 88.8452 141.92 88.7484 141.721L82.4754 129.601C82.3889 129.457 82.2661 129.338 82.1193 129.256C81.9726 129.173 81.8067 129.129 81.6379 129.129C81.4691 129.129 81.3033 129.173 81.1565 129.256C81.0097 129.338 80.8872 129.457 80.8008 129.601L73.3031 141.052C73.1565 141.236 73.0848 141.469 73.1021 141.703C73.1194 141.938 73.2246 142.157 73.3968 142.319C73.569 142.48 73.7959 142.572 74.0329 142.576C74.2699 142.58 74.5001 142.496 74.6778 142.341C76.501 140.862 78.7494 139.995 81.1007 139.862" fill="#1CDBBC"/>
<path d="M48.0113 139.788C50.3449 140.035 52.5402 141.006 54.2844 142.563C54.4566 142.711 54.6764 142.792 54.904 142.793C55.1316 142.793 55.3517 142.712 55.5242 142.565C55.6968 142.418 55.8104 142.214 55.8443 141.991C55.8781 141.768 55.83 141.54 55.7088 141.349L48.836 129.551C48.7495 129.407 48.627 129.288 48.4802 129.206C48.3335 129.123 48.1676 129.08 47.9988 129.08C47.83 129.08 47.6642 129.123 47.5174 129.206C47.3706 129.288 47.2481 129.407 47.1617 129.551L40.2889 141.349C40.1676 141.54 40.1195 141.768 40.1534 141.991C40.1873 142.214 40.3009 142.418 40.4734 142.565C40.646 142.712 40.8661 142.793 41.0937 142.793C41.3212 142.792 41.5411 142.711 41.7133 142.563C43.4633 141 45.6686 140.028 48.0113 139.788" fill="#1CDBBC"/>
<path d="M14.7728 139.788C17.1251 139.915 19.3754 140.784 21.1959 142.266C21.3736 142.422 21.6035 142.506 21.8406 142.502C22.0776 142.498 22.3044 142.406 22.4766 142.245C22.6489 142.083 22.754 141.864 22.7713 141.629C22.7887 141.395 22.717 141.162 22.5703 140.978L15.0727 129.527C14.9862 129.383 14.8637 129.264 14.7169 129.181C14.5702 129.099 14.4043 129.055 14.2355 129.055C14.0667 129.055 13.9009 129.099 13.7541 129.181C13.6073 129.264 13.4848 129.383 13.3984 129.527L7.12534 141.647C7.02851 141.845 7.00305 142.071 7.05335 142.286C7.10364 142.501 7.22658 142.692 7.40175 142.828C7.57691 142.964 7.79369 143.037 8.01618 143.034C8.23866 143.031 8.45349 142.952 8.62481 142.812C10.2806 141.158 12.4259 140.072 14.7478 139.714" fill="#1CDBBC"/>
<path d="M82.5279 113.962C84.8517 114.337 87.0002 115.42 88.6758 117.06C88.8413 117.221 89.0603 117.316 89.2918 117.328C89.5233 117.34 89.7511 117.268 89.9324 117.124C90.1137 116.981 90.2362 116.777 90.2763 116.551C90.3164 116.324 90.2715 116.091 90.1503 115.895L83.8772 103.775C83.7908 103.631 83.6683 103.512 83.5215 103.43C83.3747 103.347 83.2089 103.303 83.0401 103.303C82.8713 103.303 82.7054 103.347 82.5587 103.43C82.4119 103.512 82.2894 103.631 82.2029 103.775L74.7053 115.226C74.5985 115.414 74.5581 115.632 74.5906 115.845C74.6231 116.058 74.7266 116.255 74.8847 116.403C75.0428 116.551 75.2462 116.643 75.4628 116.663C75.6794 116.683 75.8965 116.631 76.0797 116.515C77.9064 115.042 80.1531 114.175 82.5028 114.036" fill="#1CDBBC"/>
<path d="M48.0113 113.986C50.3448 114.234 52.5401 115.205 54.2843 116.762C54.4631 116.887 54.6791 116.949 54.8975 116.937C55.1159 116.926 55.324 116.842 55.4885 116.699C55.6529 116.556 55.7639 116.362 55.8039 116.149C55.8439 115.936 55.8103 115.715 55.7087 115.523L48.8359 103.725C48.7495 103.582 48.6269 103.463 48.4802 103.38C48.3334 103.297 48.1675 103.254 47.9988 103.254C47.83 103.254 47.6641 103.297 47.5173 103.38C47.3706 103.463 47.248 103.582 47.1616 103.725L40.2888 115.523C40.1872 115.715 40.1536 115.936 40.1936 116.149C40.2336 116.362 40.3446 116.556 40.509 116.699C40.6735 116.842 40.8816 116.926 41.1 116.937C41.3184 116.949 41.5344 116.887 41.7132 116.762C43.4632 115.199 45.6685 114.227 48.0113 113.986" fill="#1CDBBC"/>
<path d="M13.475 113.962C15.8259 114.096 18.0738 114.963 19.8979 116.44C20.0811 116.557 20.2982 116.609 20.5148 116.588C20.7313 116.568 20.9351 116.477 21.0932 116.329C21.2513 116.18 21.3548 115.984 21.3873 115.771C21.4198 115.557 21.3794 115.339 21.2726 115.151L13.7749 103.701C13.6885 103.557 13.5657 103.438 13.4189 103.355C13.2721 103.272 13.1063 103.229 12.9375 103.229C12.7687 103.229 12.6028 103.272 12.4561 103.355C12.3093 103.438 12.1868 103.557 12.1004 103.701L5.82731 115.821C5.73047 116.019 5.70501 116.245 5.75531 116.46C5.80561 116.675 5.92855 116.866 6.10371 117.002C6.27888 117.138 6.49596 117.211 6.71845 117.208C6.94093 117.205 7.15546 117.126 7.32678 116.985C8.98974 115.342 11.1319 114.258 13.45 113.887" fill="#1CDBBC"/>
<path d="M83.8249 88.2846C86.1468 88.6496 88.2962 89.724 89.9732 91.3579C90.139 91.5056 90.3517 91.5907 90.5745 91.5984C90.7972 91.6061 91.0156 91.5358 91.1914 91.3999C91.3671 91.264 91.4893 91.0711 91.5361 90.855C91.5829 90.6389 91.5516 90.4133 91.4476 90.2178L85.1746 78.0979C85.0882 77.9541 84.9656 77.835 84.8189 77.7523C84.6721 77.6697 84.5062 77.6262 84.3374 77.6262C84.1686 77.6262 84.0028 77.6697 83.856 77.7523C83.7093 77.835 83.5864 77.9541 83.5 78.0979L76.0024 89.5486C75.8557 89.7333 75.784 89.9657 75.8013 90.2002C75.8186 90.4346 75.9238 90.6542 76.096 90.8157C76.2683 90.9772 76.4954 91.0689 76.7324 91.073C76.9694 91.077 77.1993 90.993 77.377 90.8374C79.202 89.3621 81.4494 88.4948 83.7999 88.3589" fill="#1CDBBC"/>
<path d="M48.0113 88.2843C50.3449 88.5317 52.5402 89.5031 54.2844 91.0603C54.4566 91.2078 54.6764 91.2891 54.904 91.2894C55.1316 91.2896 55.3517 91.2089 55.5242 91.0618C55.6968 90.9146 55.8104 90.711 55.8443 90.4878C55.8781 90.2646 55.83 90.0368 55.7088 89.8458L48.836 78.0481C48.7495 77.9043 48.627 77.7853 48.4802 77.7026C48.3335 77.6199 48.1676 77.5764 47.9988 77.5764C47.83 77.5764 47.6642 77.6199 47.5174 77.7026C47.3706 77.7853 47.2481 77.9043 47.1617 78.0481L40.2889 89.8458C40.1676 90.0368 40.1195 90.2646 40.1534 90.4878C40.1873 90.711 40.3009 90.9146 40.4734 91.0618C40.646 91.2089 40.8661 91.2896 41.0937 91.2894C41.3212 91.2891 41.5411 91.2078 41.7133 91.0603C43.4633 89.4969 45.6686 88.5249 48.0113 88.2843" fill="#1CDBBC"/>
<path d="M12.1725 88.2842C14.5238 88.4167 16.7721 89.2844 18.5954 90.7627C18.7731 90.9183 19.003 91.0023 19.24 90.9983C19.477 90.9942 19.7041 90.9024 19.8764 90.7409C20.0486 90.5794 20.1538 90.3599 20.1711 90.1254C20.1884 89.891 20.1167 89.6586 19.97 89.4739L12.4724 78.0232C12.386 77.8794 12.2634 77.7603 12.1167 77.6776C11.9699 77.595 11.8038 77.5515 11.635 77.5515C11.4662 77.5515 11.3003 77.595 11.1535 77.6776C11.0068 77.7603 10.8842 77.8794 10.7978 78.0232L4.52478 90.1431C4.40149 90.3416 4.35705 90.5785 4.39969 90.8078C4.44233 91.0371 4.56913 91.2426 4.75572 91.3844C4.94231 91.5263 5.17515 91.5944 5.40951 91.5758C5.64387 91.5571 5.86292 91.4528 6.02424 91.2832C7.68856 89.6457 9.83135 88.5702 12.1475 88.2099" fill="#1CDBBC"/>
<path d="M85.1245 62.3346C87.452 62.6985 89.6042 63.7829 91.2728 65.4327C91.4383 65.5937 91.6572 65.6891 91.8887 65.701C92.1202 65.7128 92.3481 65.6403 92.5294 65.4971C92.7107 65.3538 92.8328 65.1498 92.8729 64.9234C92.913 64.6969 92.8685 64.4638 92.7472 64.2678L86.4742 52.1479C86.3878 52.0042 86.2652 51.8851 86.1185 51.8024C85.9717 51.7197 85.8058 51.6763 85.637 51.6763C85.4683 51.6763 85.3021 51.7197 85.1553 51.8024C85.0086 51.8851 84.886 52.0042 84.7996 52.1479L77.302 63.5739C77.1824 63.7619 77.1319 63.9851 77.1589 64.2059C77.1859 64.4266 77.2888 64.6313 77.4502 64.7856C77.6117 64.9399 77.8217 65.0343 78.0451 65.0528C78.2686 65.0714 78.4916 65.013 78.6767 64.8875C80.5033 63.415 82.7497 62.5482 85.0995 62.409" fill="#1CDBBC"/>
<path d="M48.0113 62.3344C50.3473 62.5903 52.5424 63.5704 54.2843 65.1351C54.4631 65.2601 54.6791 65.3217 54.8975 65.3102C55.1159 65.2987 55.324 65.2147 55.4885 65.0716C55.6529 64.9286 55.7639 64.7348 55.8039 64.5216C55.8439 64.3083 55.8103 64.0879 55.7087 63.8959L48.8359 52.0981C48.7495 51.9544 48.6269 51.8353 48.4802 51.7526C48.3334 51.6699 48.1675 51.6265 47.9988 51.6265C47.83 51.6265 47.6641 51.6699 47.5173 51.7526C47.3706 51.8353 47.248 51.9544 47.1616 52.0981L40.2888 63.8959C40.1872 64.0879 40.1536 64.3083 40.1936 64.5216C40.2336 64.7348 40.3446 64.9286 40.509 65.0716C40.6735 65.2147 40.8816 65.2987 41.1 65.3102C41.3184 65.3217 41.5344 65.2601 41.7132 65.1351C43.4618 63.5657 45.6665 62.5853 48.0113 62.3344" fill="#1CDBBC"/>
<path d="M10.8736 62.3343C13.2245 62.4685 15.4724 63.3359 17.2964 64.8128C17.4815 64.9383 17.7045 64.9967 17.928 64.9781C18.1514 64.9596 18.3617 64.8652 18.5232 64.7109C18.6846 64.5566 18.7872 64.3519 18.8142 64.1312C18.8412 63.9104 18.7907 63.6872 18.6711 63.4992L11.1735 52.0732C11.0871 51.9295 10.9645 51.8104 10.8178 51.7277C10.671 51.645 10.5051 51.6016 10.3364 51.6016C10.1676 51.6016 10.0014 51.645 9.85463 51.7277C9.70787 51.8104 9.58533 51.9295 9.49891 52.0732L3.22586 64.1931C3.10463 64.3891 3.06006 64.6222 3.10017 64.8487C3.14028 65.0751 3.26238 65.2791 3.44369 65.4224C3.625 65.5656 3.85286 65.6381 4.08436 65.6263C4.31586 65.6144 4.53514 65.519 4.70062 65.358C6.36923 63.7082 8.52105 62.6238 10.8486 62.2599" fill="#1CDBBC"/>
<path d="M86.4244 36.5331C88.7463 36.8982 90.8955 37.9725 92.5724 39.6065C92.7383 39.7541 92.9513 39.8392 93.174 39.8469C93.3968 39.8546 93.6151 39.7843 93.7909 39.6484C93.9667 39.5125 94.0888 39.3196 94.1356 39.1035C94.1825 38.8874 94.1511 38.6618 94.0472 38.4663L87.7741 26.3464C87.6877 26.2026 87.5652 26.0836 87.4184 26.0009C87.2716 25.9182 87.1055 25.8748 86.9367 25.8748C86.7679 25.8748 86.602 25.9182 86.4553 26.0009C86.3085 26.0836 86.186 26.2026 86.0995 26.3464L78.6019 37.7972C78.4553 37.9819 78.3835 38.2143 78.4009 38.4487C78.4182 38.6832 78.5233 38.9027 78.6956 39.0642C78.8678 39.2257 79.0946 39.3175 79.3317 39.3215C79.5687 39.3256 79.7989 39.2415 79.9766 39.086C81.8015 37.6106 84.0489 36.7433 86.3994 36.6074" fill="#1CDBBC"/>
<path d="M48.0113 36.5332C50.3448 36.7806 52.5401 37.752 54.2843 39.3092C54.4631 39.4341 54.6791 39.4958 54.8975 39.4843C55.1159 39.4728 55.324 39.3887 55.4885 39.2457C55.6529 39.1026 55.7639 38.9089 55.8039 38.6956C55.8439 38.4824 55.8103 38.262 55.7087 38.0699L48.8359 26.2722C48.7495 26.1284 48.6269 26.0094 48.4802 25.9267C48.3334 25.844 48.1675 25.8005 47.9988 25.8005C47.83 25.8005 47.6641 25.844 47.5173 25.9267C47.3706 26.0094 47.248 26.1284 47.1616 26.2722L40.2888 38.0699C40.1872 38.262 40.1536 38.4824 40.1936 38.6956C40.2336 38.9089 40.3446 39.1026 40.509 39.2457C40.6735 39.3887 40.8816 39.4728 41.1 39.4843C41.3184 39.4958 41.5344 39.4341 41.7132 39.3092C43.4632 37.7459 45.6685 36.7738 48.0113 36.5332" fill="#1CDBBC"/>
<path d="M9.57576 36.5332C11.9263 36.6691 14.1736 37.5364 15.9986 39.0117C16.1763 39.1673 16.4065 39.2513 16.6435 39.2473C16.8805 39.2433 17.1074 39.1515 17.2796 38.99C17.4519 38.8285 17.557 38.6089 17.5743 38.3745C17.5917 38.14 17.5199 37.9076 17.3733 37.7229L9.87565 26.2722C9.78922 26.1284 9.66669 26.0094 9.51993 25.9267C9.37316 25.844 9.2073 25.8005 9.03851 25.8005C8.86972 25.8005 8.70386 25.844 8.5571 25.9267C8.41033 26.0094 8.28749 26.1284 8.20107 26.2722L1.92833 38.3921C1.82437 38.5876 1.79303 38.8132 1.83985 39.0293C1.88668 39.2454 2.00852 39.4383 2.18429 39.5742C2.36006 39.7101 2.57841 39.7804 2.80116 39.7727C3.02391 39.765 3.23693 39.6799 3.40278 39.5322C5.07974 37.8983 7.22884 36.8239 9.55074 36.4589" fill="#1CDBBC"/>
<path d="M87.7253 10.7072C90.0544 11.0661 92.2077 12.1512 93.8732 13.8053C94.0445 13.9461 94.2594 14.0246 94.4819 14.0276C94.7043 14.0306 94.9211 13.9581 95.0963 13.822C95.2715 13.6859 95.3944 13.4945 95.4447 13.2796C95.495 13.0646 95.4695 12.8391 95.3727 12.6404L89.0749 0.520507C88.9885 0.37672 88.8657 0.257677 88.7189 0.174992C88.5721 0.0923076 88.4063 0.0488281 88.2375 0.0488281C88.0687 0.0488281 87.9028 0.0923076 87.7561 0.174992C87.6093 0.257677 87.4868 0.37672 87.4004 0.520507L79.9027 11.9464C79.7927 12.1323 79.7484 12.3493 79.777 12.5629C79.8056 12.7765 79.9054 12.9746 80.0604 13.1255C80.2155 13.2765 80.4172 13.3717 80.6331 13.3961C80.849 13.4204 81.0671 13.3726 81.2524 13.26C83.0791 11.7876 85.3254 10.9207 87.6752 10.7815" fill="#1CDBBC"/>
<path d="M48.0113 10.7069C50.3449 10.9543 52.5402 11.9258 54.2844 13.4829C54.4566 13.6304 54.6764 13.7117 54.904 13.712C55.1316 13.7123 55.3517 13.6315 55.5242 13.4844C55.6968 13.3373 55.8104 13.1336 55.8443 12.9104C55.8781 12.6872 55.83 12.4594 55.7088 12.2684L48.836 0.47074C48.7495 0.326953 48.627 0.207872 48.4802 0.125188C48.3335 0.0425029 48.1676 -0.000976562 47.9988 -0.000976562C47.83 -0.000976562 47.6642 0.0425029 47.5174 0.125188C47.3706 0.207872 47.2481 0.326953 47.1617 0.47074L40.2889 12.2684C40.1676 12.4594 40.1195 12.6872 40.1534 12.9104C40.1873 13.1336 40.3009 13.3373 40.4734 13.4844C40.646 13.6315 40.8661 13.7123 41.0937 13.712C41.3212 13.7117 41.5411 13.6304 41.7133 13.4829C43.4633 11.9196 45.6686 10.9475 48.0113 10.7069" fill="#1CDBBC"/>
<path d="M8.274 10.7071C10.6238 10.8462 12.8705 11.7131 14.6971 13.1856C14.8822 13.3111 15.1052 13.3695 15.3287 13.3509C15.5521 13.3324 15.7621 13.238 15.9236 13.0837C16.085 12.9294 16.188 12.7247 16.2149 12.504C16.2419 12.2832 16.1911 12.06 16.0715 11.872L8.5739 0.446044C8.48747 0.302257 8.36494 0.183214 8.21818 0.100529C8.07141 0.0178447 7.90555 -0.0256348 7.73676 -0.0256348C7.56797 -0.0256348 7.40211 0.0178447 7.25534 0.100529C7.10858 0.183214 6.98605 0.302257 6.89962 0.446044L0.626577 12.5659C0.505346 12.7619 0.460472 12.995 0.500579 13.2215C0.540685 13.4479 0.662788 13.6519 0.844098 13.7952C1.02541 13.9384 1.25327 14.0109 1.48477 13.9991C1.71626 13.9872 1.93555 13.8918 2.10103 13.7308C3.76964 12.081 5.92146 10.9966 8.24899 10.6327" fill="#1CDBBC"/>
</g>
<defs>
<clipPath id="clip0_1723_4193">
<rect width="94.9451" height="320" fill="white" transform="translate(0.527466)"/>
</clipPath>
</defs>
</svg>
