<svg width="319" height="320" viewBox="0 0 319 320" fill="none" xmlns="http://www.w3.org/2000/svg">
<g clip-path="url(#clip0_1723_4383)">
<path d="M251.729 317.414C252.836 317.443 253.929 317.674 254.953 318.096C256.09 318.536 257.185 319.079 258.224 319.718C259.165 320.211 260.224 319.154 259.565 318.378C258.906 317.602 258.2 316.662 257.541 315.792C256.883 314.922 256.271 314.005 255.682 313.135C255.094 312.265 254.482 311.349 253.941 310.432C253.4 309.515 252.835 308.598 252.341 307.681C252.275 307.547 252.173 307.435 252.046 307.356C251.919 307.277 251.773 307.235 251.624 307.235C251.474 307.235 251.328 307.277 251.201 307.356C251.074 307.435 250.972 307.547 250.906 307.681C249.918 309.515 248.859 311.349 247.682 313.182C246.506 315.016 245.329 316.732 243.917 318.495C243.259 319.318 244.341 320.329 245.259 319.788C247.193 318.493 249.414 317.686 251.729 317.437" fill="#1CDBBC"/>
<path d="M224.081 311.866C226.119 312.998 227.848 314.612 229.116 316.567C229.752 317.461 231.14 316.873 230.857 315.909C230.293 313.793 229.822 311.631 229.422 309.538C229.022 307.446 228.787 305.283 228.599 303.215C228.596 303.066 228.551 302.921 228.468 302.798C228.386 302.674 228.269 302.577 228.133 302.517C227.996 302.458 227.846 302.439 227.699 302.462C227.552 302.486 227.415 302.551 227.304 302.65L224.74 304.555C223.893 305.189 222.999 305.777 222.104 306.365C221.21 306.952 220.269 307.517 219.328 308.081C218.387 308.645 217.445 309.162 216.481 309.679C215.516 310.197 216.128 311.513 217.187 311.419C218.395 311.253 219.615 311.19 220.834 311.231C221.945 311.23 223.046 311.437 224.081 311.842" fill="#1CDBBC"/>
<path d="M279.238 311.278C280.265 310.866 281.355 310.627 282.461 310.573C283.686 310.543 284.911 310.582 286.132 310.69C287.191 310.69 287.732 309.421 286.791 308.974C284.814 307.94 282.932 306.906 281.097 305.777C279.261 304.649 277.52 303.426 275.826 302.157C275.714 302.056 275.574 301.991 275.425 301.968C275.276 301.945 275.124 301.966 274.987 302.029C274.849 302.091 274.733 302.192 274.653 302.319C274.572 302.446 274.53 302.594 274.532 302.745C274.532 304.86 274.179 306.953 273.849 309.092C273.52 311.231 273.073 313.323 272.555 315.486C272.296 316.474 273.685 316.967 274.32 316.121C275.039 315.114 275.825 314.155 276.673 313.253C277.438 312.456 278.328 311.789 279.308 311.278" fill="#1CDBBC"/>
<path d="M16.7582 304.296C18.1616 306.011 18.9854 308.126 19.1112 310.338C19.1427 310.544 19.2441 310.734 19.3981 310.875C19.5521 311.016 19.7497 311.101 19.9582 311.114C20.1668 311.128 20.3736 311.07 20.5447 310.95C20.7159 310.831 20.8411 310.656 20.8995 310.456L24.2173 297.972C24.2613 297.819 24.2633 297.657 24.2233 297.503C24.1834 297.348 24.1029 297.207 23.9901 297.095C23.8772 296.982 23.7361 296.901 23.5816 296.861C23.4271 296.822 23.2649 296.824 23.1114 296.868L10.6169 300.206C10.4075 300.251 10.2217 300.371 10.0929 300.542C9.96418 300.713 9.90118 300.924 9.91543 301.138C9.92969 301.352 10.0201 301.553 10.1705 301.706C10.3208 301.858 10.5211 301.951 10.7346 301.969C12.9551 302.096 15.079 302.919 16.8053 304.32" fill="#1CDBBC"/>
<path d="M56.265 303.544C57.6675 305.268 58.4907 307.39 58.618 309.609C58.6523 309.818 58.76 310.008 58.9216 310.145C59.0833 310.283 59.2883 310.358 59.5004 310.358C59.7125 310.358 59.9175 310.283 60.0792 310.145C60.2408 310.008 60.3485 309.818 60.3828 309.609L63.7241 297.126C63.7681 296.973 63.7701 296.81 63.7302 296.656C63.6902 296.502 63.6095 296.361 63.4967 296.248C63.3838 296.135 63.243 296.055 63.0885 296.015C62.934 295.975 62.7714 295.977 62.618 296.021L50.1002 299.336C49.8993 299.396 49.7251 299.523 49.6067 299.696C49.4883 299.869 49.4328 300.077 49.4493 300.286C49.4658 300.495 49.5534 300.692 49.6975 300.844C49.8416 300.996 50.0334 301.094 50.2412 301.122C52.4549 301.248 54.572 302.071 56.2886 303.473" fill="#1CDBBC"/>
<path d="M201.093 295.551C201.835 296.377 202.403 297.345 202.763 298.395C203.192 299.535 203.53 300.706 203.775 301.898C204.01 302.933 205.493 303.003 205.657 301.898C205.822 300.793 206.01 299.759 206.222 298.678C206.434 297.596 206.693 296.562 206.928 295.504C207.446 293.435 208.057 291.39 208.74 289.392C208.797 289.254 208.814 289.103 208.788 288.956C208.762 288.809 208.693 288.673 208.591 288.563C208.49 288.454 208.358 288.377 208.214 288.34C208.069 288.304 207.917 288.309 207.775 288.357C203.597 289.394 199.338 290.078 195.045 290.402C194.033 290.402 193.939 291.954 195.045 292.26C196.224 292.606 197.372 293.046 198.481 293.576C199.486 294.028 200.396 294.666 201.163 295.457" fill="#1CDBBC"/>
<path d="M301.872 294.469C303.62 292.866 305.737 291.72 308.036 291.131C309.048 290.779 308.978 289.321 308.036 289.274C305.825 289.157 303.683 288.969 301.542 288.639C299.429 288.364 297.332 287.98 295.259 287.487C295.114 287.439 294.957 287.434 294.809 287.475C294.661 287.515 294.528 287.598 294.428 287.714C294.327 287.83 294.263 287.973 294.243 288.125C294.224 288.277 294.25 288.431 294.318 288.569C295.048 290.52 295.683 292.542 296.248 294.658C296.813 296.773 297.283 298.842 297.683 301.005C297.718 301.217 297.832 301.408 298.002 301.539C298.173 301.67 298.387 301.731 298.601 301.71C298.831 301.697 299.049 301.606 299.22 301.452C299.391 301.298 299.505 301.091 299.542 300.864C299.775 299.668 300.089 298.49 300.483 297.338C300.842 296.287 301.383 295.308 302.083 294.446" fill="#1CDBBC"/>
<path d="M33.4427 287.605C34.8466 289.329 35.67 291.451 35.7957 293.67C35.8424 293.872 35.9562 294.052 36.1186 294.181C36.2809 294.311 36.4824 294.381 36.6899 294.381C36.8973 294.381 37.0985 294.311 37.2609 294.181C37.4233 294.052 37.5373 293.872 37.584 293.67L40.9251 281.187C40.9691 281.034 40.9711 280.872 40.9311 280.717C40.8912 280.563 40.8107 280.422 40.6979 280.309C40.585 280.197 40.444 280.116 40.2894 280.076C40.1349 280.036 39.9727 280.038 39.8193 280.082L27.3011 283.397C27.1003 283.457 26.9263 283.584 26.8079 283.757C26.6895 283.93 26.634 284.138 26.6505 284.347C26.667 284.556 26.7546 284.753 26.8987 284.905C27.0428 285.057 27.2346 285.155 27.4424 285.183C29.6561 285.309 31.773 286.132 33.4895 287.534" fill="#1CDBBC"/>
<path d="M237.306 289.486C238.364 289.918 239.361 290.487 240.271 291.178C241.236 291.931 242.177 292.871 243.119 293.717C244.06 294.563 245.283 293.717 244.813 292.8C242.97 288.917 241.717 284.781 241.095 280.529C241.087 280.388 241.038 280.253 240.955 280.139C240.871 280.026 240.756 279.939 240.624 279.889C240.492 279.839 240.349 279.829 240.211 279.859C240.073 279.889 239.947 279.958 239.848 280.059C239.095 280.787 238.318 281.493 237.495 282.198C236.671 282.903 235.848 283.467 234.953 284.102C234.059 284.737 233.165 285.301 232.224 285.889L230.789 286.735L229.33 287.487C229.23 287.532 229.141 287.597 229.067 287.678C228.993 287.759 228.937 287.855 228.902 287.958C228.866 288.062 228.853 288.172 228.862 288.281C228.871 288.39 228.902 288.496 228.953 288.592C229.042 288.817 229.204 289.005 229.414 289.124C229.624 289.244 229.868 289.289 230.106 289.251C231.369 289.077 232.644 289.006 233.918 289.039C235.065 288.99 236.212 289.141 237.306 289.486" fill="#1CDBBC"/>
<path d="M266.107 288.969C266.638 288.797 267.18 288.664 267.73 288.569C268.304 288.456 268.886 288.393 269.471 288.381C270.695 288.381 272.036 288.381 273.283 288.381C274.53 288.381 274.954 287.017 274.013 286.594C270.089 284.792 266.457 282.415 263.236 279.542C263.147 279.426 263.024 279.342 262.885 279.301C262.745 279.261 262.596 279.266 262.46 279.316C262.323 279.365 262.206 279.458 262.126 279.579C262.045 279.7 262.005 279.843 262.012 279.988C262.012 281.023 261.753 282.081 261.565 283.138C261.377 284.196 261.118 285.16 260.859 286.218C260.305 288.338 259.589 290.413 258.718 292.424C258.295 293.341 259.683 294.117 260.459 293.271C261.318 292.341 262.237 291.469 263.212 290.661C263.706 290.309 264.154 289.909 264.648 289.603C265.1 289.286 265.59 289.025 266.107 288.828" fill="#1CDBBC"/>
<path d="M73.6312 286.148C75.0346 287.863 75.8583 289.978 75.9842 292.189C76.0122 292.397 76.1105 292.589 76.2628 292.733C76.4151 292.877 76.6124 292.964 76.8214 292.981C77.0305 292.997 77.2387 292.942 77.4117 292.823C77.5847 292.705 77.7121 292.531 77.7725 292.33L81.1138 279.824C81.1521 279.669 81.1492 279.507 81.1055 279.353C81.0618 279.2 80.9788 279.061 80.8648 278.949C80.7508 278.837 80.6096 278.758 80.4552 278.717C80.3008 278.677 80.1383 278.677 79.9841 278.719L67.4898 282.057C67.2798 282.104 67.0939 282.226 66.9662 282.399C66.8386 282.572 66.7776 282.785 66.7947 283C66.8119 283.214 66.906 283.415 67.0596 283.566C67.2132 283.717 67.416 283.807 67.6309 283.82C69.8442 283.948 71.9609 284.77 73.6783 286.171" fill="#1CDBBC"/>
<path d="M214.905 271.361C215.966 273.565 216.551 275.968 216.623 278.413C216.764 279.518 218.27 279.824 218.528 278.813C218.787 277.802 219.117 276.697 219.47 275.663C219.823 274.628 220.246 273.594 220.67 272.607C221.487 270.657 222.462 268.778 223.587 266.988C223.676 266.875 223.728 266.739 223.736 266.596C223.745 266.453 223.71 266.311 223.636 266.189C223.562 266.066 223.452 265.969 223.322 265.911C223.191 265.852 223.046 265.834 222.905 265.86C220.799 266.036 218.682 266.036 216.576 265.86C215.493 265.86 214.387 265.648 213.305 265.484L210.081 264.849C209.069 264.59 208.646 266.071 209.54 266.706C210.034 267.082 210.622 267.435 211.14 267.811C211.658 268.187 212.152 268.563 212.622 268.963C213.061 269.346 213.477 269.755 213.87 270.185C214.262 270.576 214.61 271.01 214.905 271.478" fill="#1CDBBC"/>
<path d="M186.739 271.314C186.904 271.817 187.006 272.338 187.045 272.865C187.08 273.437 187.08 274.01 187.045 274.582C186.959 275.798 186.795 277.007 186.551 278.202C186.339 279.236 187.657 279.918 188.221 279.048C190.549 275.427 193.195 272.021 196.127 268.869C196.237 268.768 196.314 268.637 196.351 268.493C196.388 268.348 196.383 268.196 196.336 268.055C196.289 267.914 196.202 267.789 196.085 267.696C195.969 267.602 195.829 267.545 195.68 267.529C191.432 266.802 187.258 265.693 183.209 264.214C182.245 263.862 181.609 265.178 182.409 265.907L183.751 267.153C184.198 267.599 184.621 268.023 184.998 268.469C185.358 268.909 185.688 269.372 185.986 269.856C186.282 270.31 186.519 270.8 186.692 271.314" fill="#1CDBBC"/>
<path d="M50.1249 270.937C51.527 272.653 52.3505 274.768 52.4779 276.979C52.4912 277.194 52.5816 277.396 52.7324 277.55C52.8832 277.703 53.0845 277.797 53.2991 277.814C53.5137 277.831 53.7272 277.771 53.9006 277.643C54.0739 277.516 54.1954 277.33 54.2427 277.12L57.584 264.613C57.6205 264.461 57.6172 264.302 57.5746 264.151C57.5319 264 57.4511 263.863 57.3402 263.752C57.2293 263.641 57.0919 263.561 56.9409 263.518C56.79 263.475 56.6305 263.472 56.4779 263.509L43.9601 266.847C43.7592 266.907 43.585 267.034 43.4666 267.207C43.3482 267.38 43.2927 267.588 43.3092 267.797C43.3257 268.006 43.4133 268.203 43.5574 268.355C43.7014 268.507 43.8933 268.605 44.1011 268.633C46.3172 268.748 48.4378 269.572 50.1485 270.984" fill="#1CDBBC"/>
<path d="M287.87 270.091C288.447 269.097 289.187 268.207 290.058 267.458C291 266.682 291.964 265.86 293.023 265.107C294.082 264.355 293.47 262.992 292.458 263.274C290.338 263.825 288.185 264.241 286.011 264.52C283.91 264.752 281.795 264.846 279.682 264.802C279.543 264.782 279.401 264.804 279.275 264.865C279.148 264.926 279.043 265.023 278.972 265.145C278.902 265.266 278.869 265.405 278.878 265.545C278.887 265.685 278.937 265.819 279.023 265.93C279.588 266.8 280.129 267.693 280.67 268.61C281.211 269.527 281.729 270.514 282.152 271.455C283.064 273.449 283.849 275.498 284.505 277.59C284.535 277.696 284.586 277.795 284.654 277.881C284.723 277.967 284.807 278.038 284.904 278.091C285 278.143 285.107 278.176 285.216 278.187C285.325 278.198 285.435 278.187 285.54 278.155C285.771 278.086 285.974 277.947 286.122 277.758C286.27 277.568 286.355 277.337 286.364 277.097C286.438 275.835 286.587 274.579 286.811 273.335C286.945 272.194 287.305 271.092 287.87 270.091" fill="#1CDBBC"/>
<path d="M315.732 269.974C316.078 268.92 316.63 267.945 317.356 267.106C318.129 266.16 318.979 265.279 319.897 264.472C320.697 263.744 319.897 262.404 319.05 262.803C315.029 264.353 310.88 265.549 306.65 266.377C306.504 266.401 306.367 266.466 306.255 266.563C306.144 266.66 306.061 266.787 306.017 266.928C305.974 267.07 305.97 267.22 306.007 267.364C306.043 267.507 306.119 267.637 306.226 267.74C309.231 270.822 311.956 274.166 314.367 277.731C314.909 278.601 316.25 277.896 316.015 276.862C315.715 275.675 315.526 274.463 315.45 273.241C315.311 272.144 315.408 271.03 315.732 269.974" fill="#1CDBBC"/>
<path d="M91.0414 268.728C92.4434 270.444 93.267 272.558 93.3944 274.77C93.4077 274.984 93.498 275.187 93.6489 275.34C93.7997 275.494 94.001 275.588 94.2156 275.605C94.4302 275.622 94.6437 275.561 94.817 275.434C94.9904 275.306 95.1118 275.12 95.1591 274.911L98.5002 262.427C98.5417 262.274 98.5423 262.111 98.5019 261.957C98.4615 261.803 98.3815 261.662 98.2698 261.548C98.1582 261.434 98.0187 261.351 97.8651 261.307C97.7116 261.264 97.5493 261.261 97.3944 261.299L84.9001 264.637C84.6979 264.684 84.5174 264.798 84.3882 264.96C84.259 265.122 84.1889 265.323 84.1889 265.531C84.1889 265.738 84.259 265.939 84.3882 266.101C84.5174 266.264 84.6979 266.377 84.9001 266.424C87.1138 266.55 89.2306 267.373 90.9472 268.775" fill="#1CDBBC"/>
<path d="M17.4875 265.39C18.8896 267.105 19.7131 269.22 19.8405 271.431C19.8538 271.646 19.9442 271.849 20.095 272.002C20.2459 272.156 20.4471 272.25 20.6617 272.267C20.8763 272.284 21.0898 272.223 21.2632 272.096C21.4365 271.968 21.558 271.782 21.6053 271.572L24.9464 259.066C24.9828 258.913 24.9798 258.754 24.9372 258.603C24.8945 258.453 24.8137 258.315 24.7028 258.204C24.5919 258.093 24.4545 258.013 24.3035 257.97C24.1526 257.928 23.9931 257.925 23.8405 257.961L11.3227 261.299C11.1219 261.359 10.9476 261.487 10.8292 261.659C10.7108 261.832 10.6553 262.041 10.6718 262.249C10.6883 262.458 10.7759 262.655 10.92 262.807C11.0641 262.96 11.2559 263.058 11.4637 263.086C13.6774 263.212 15.7945 264.035 17.5111 265.437" fill="#1CDBBC"/>
<path d="M66.8063 254.27C68.2083 255.986 69.0319 258.1 69.1593 260.311C69.1873 260.519 69.2858 260.711 69.4382 260.855C69.5905 260.999 69.7875 261.086 69.9965 261.103C70.2056 261.119 70.4138 261.064 70.5868 260.945C70.7599 260.827 70.8872 260.653 70.9476 260.453L74.2654 247.946C74.3094 247.793 74.3114 247.63 74.2714 247.476C74.2315 247.322 74.151 247.181 74.0382 247.068C73.9253 246.955 73.7842 246.875 73.6297 246.835C73.4752 246.795 73.313 246.797 73.1595 246.841L60.665 250.179C60.4556 250.225 60.2695 250.344 60.1408 250.515C60.012 250.686 59.9493 250.898 59.9635 251.111C59.9778 251.325 60.0682 251.526 60.2186 251.679C60.369 251.831 60.5692 251.925 60.7827 251.942C62.9961 252.07 65.1124 252.892 66.8298 254.293" fill="#1CDBBC"/>
<path d="M108.479 251.331C109.881 253.047 110.705 255.161 110.832 257.373C110.85 257.586 110.944 257.786 111.096 257.936C111.249 258.086 111.45 258.177 111.664 258.191C111.878 258.205 112.09 258.143 112.261 258.014C112.432 257.885 112.551 257.699 112.597 257.49L115.938 245.007C115.982 244.854 115.984 244.692 115.944 244.537C115.904 244.383 115.824 244.242 115.711 244.129C115.598 244.017 115.457 243.936 115.303 243.896C115.148 243.856 114.986 243.858 114.833 243.902L102.314 247.241C102.104 247.288 101.918 247.409 101.791 247.582C101.663 247.756 101.602 247.969 101.62 248.183C101.637 248.398 101.731 248.599 101.884 248.749C102.038 248.9 102.241 248.99 102.456 249.004C104.669 249.131 106.785 249.954 108.503 251.355" fill="#1CDBBC"/>
<path d="M34.9228 247.97C36.3395 249.686 37.1647 251.813 37.2758 254.035C37.3225 254.237 37.4362 254.417 37.5986 254.546C37.761 254.675 37.9624 254.746 38.1699 254.746C38.3774 254.746 38.5786 254.675 38.7409 254.546C38.9033 254.417 39.0171 254.237 39.0638 254.035L42.4052 241.552C42.4466 241.398 42.4473 241.236 42.4069 241.081C42.3665 240.927 42.2865 240.786 42.1748 240.672C42.0631 240.558 41.9236 240.475 41.7701 240.432C41.6166 240.388 41.4543 240.385 41.2993 240.423L28.7812 243.762C28.5804 243.822 28.4064 243.949 28.288 244.122C28.1696 244.295 28.1141 244.503 28.1306 244.712C28.1471 244.921 28.2347 245.118 28.3788 245.27C28.5229 245.422 28.7147 245.52 28.9225 245.548C31.1362 245.674 33.253 246.497 34.9696 247.899" fill="#1CDBBC"/>
<path d="M183.491 243.315C183.367 244.422 183.023 245.493 182.479 246.465C181.936 247.558 181.29 248.597 180.549 249.568C179.938 250.438 180.902 251.59 181.749 251.002C183.561 249.803 185.467 248.651 187.373 247.687C189.279 246.724 191.185 245.76 193.138 244.937C193.266 244.869 193.373 244.767 193.448 244.643C193.522 244.519 193.562 244.376 193.562 244.232C193.562 244.087 193.522 243.945 193.448 243.82C193.373 243.696 193.266 243.594 193.138 243.526C191.397 242.351 189.656 241.175 187.985 239.741C186.314 238.307 184.667 236.967 183.067 235.439C182.338 234.711 181.185 235.674 181.656 236.638C182.78 238.684 183.371 240.98 183.373 243.315" fill="#1CDBBC"/>
<path d="M209.4 243.127C208.803 245.465 207.721 247.651 206.223 249.545C205.611 250.485 206.6 251.684 207.447 251.073C208.294 250.461 209.211 249.85 210.2 249.286C211.188 248.722 212.106 248.181 213.07 247.711C214.035 247.241 215 246.771 215.941 246.371C216.882 245.971 217.941 245.595 218.906 245.29C219.05 245.264 219.184 245.195 219.287 245.09C219.39 244.986 219.458 244.852 219.481 244.707C219.505 244.562 219.482 244.413 219.417 244.282C219.352 244.15 219.247 244.042 219.117 243.973C217.449 242.728 215.876 241.361 214.411 239.883C213.658 239.107 212.882 238.307 212.058 237.532C211.235 236.756 210.67 235.863 210.011 234.969C209.352 234.076 208.106 234.969 208.388 236.051C208.757 237.272 209.064 238.512 209.306 239.765C209.306 240.353 209.305 240.94 209.47 241.505C209.541 242.059 209.541 242.62 209.47 243.174" fill="#1CDBBC"/>
<path d="M318.367 241.904C318.271 240.796 318.383 239.68 318.696 238.613C319.017 237.437 319.435 236.289 319.943 235.181C320.367 234.193 319.213 233.277 318.484 234.005C317.755 234.734 316.931 235.533 316.131 236.356C315.331 237.179 314.507 237.814 313.778 238.519L311.284 240.517L308.696 242.398C308.566 242.476 308.462 242.59 308.397 242.726C308.331 242.863 308.307 243.015 308.327 243.165C308.347 243.315 308.41 243.455 308.509 243.57C308.608 243.684 308.738 243.767 308.884 243.808C310.813 244.584 312.743 245.454 314.696 246.441C316.649 247.429 318.484 248.487 320.39 249.639C321.261 250.179 322.155 249.027 321.519 248.157C320.785 247.185 320.117 246.164 319.519 245.101C318.983 244.139 318.624 243.088 318.461 241.998" fill="#1CDBBC"/>
<path d="M292.365 241.763C292.188 240.634 292.188 239.484 292.365 238.355C292.365 237.743 292.624 237.109 292.718 236.497C292.812 235.886 292.977 235.251 293.142 234.64C293.401 233.535 292.107 232.713 291.518 233.582C290.258 235.37 288.882 237.074 287.4 238.684C285.926 240.21 284.354 241.639 282.694 242.962C282.573 243.037 282.478 243.146 282.42 243.276C282.362 243.405 282.344 243.549 282.37 243.689C282.395 243.829 282.462 243.958 282.562 244.059C282.662 244.16 282.79 244.228 282.93 244.255L285.895 245.243C286.906 245.601 287.896 246.017 288.859 246.489C290.849 247.419 292.774 248.479 294.624 249.662C295.519 250.226 296.389 249.004 295.73 248.087C295.333 247.583 294.964 247.057 294.624 246.512C294.271 245.995 293.989 245.454 293.636 244.937C293.013 243.97 292.582 242.893 292.365 241.763" fill="#1CDBBC"/>
<path d="M83.5139 237.602C84.9174 239.317 85.7411 241.432 85.8669 243.644C85.8985 243.85 85.9999 244.04 86.1539 244.181C86.3079 244.322 86.5054 244.407 86.714 244.42C86.9225 244.434 87.1293 244.376 87.3005 244.256C87.4717 244.137 87.5968 243.962 87.6552 243.761L90.9966 231.278C91.0348 231.124 91.0319 230.961 90.9883 230.808C90.9446 230.655 90.8616 230.515 90.7476 230.404C90.6335 230.292 90.4924 230.212 90.338 230.172C90.1835 230.132 90.0213 230.132 89.8672 230.174L77.3726 233.488C77.1704 233.535 76.9902 233.649 76.861 233.811C76.7319 233.973 76.6614 234.174 76.6614 234.382C76.6614 234.589 76.7319 234.79 76.861 234.952C76.9902 235.115 77.1704 235.228 77.3726 235.275C79.5941 235.397 81.7197 236.22 83.4435 237.626" fill="#1CDBBC"/>
<path d="M125.915 233.911C127.319 235.626 128.142 237.741 128.268 239.953C128.296 240.161 128.395 240.352 128.547 240.496C128.699 240.64 128.896 240.728 129.105 240.744C129.314 240.761 129.523 240.705 129.696 240.587C129.869 240.469 129.996 240.295 130.056 240.094L133.374 227.587C133.418 227.434 133.42 227.272 133.38 227.118C133.34 226.963 133.26 226.822 133.147 226.71C133.034 226.597 132.893 226.516 132.739 226.476C132.584 226.437 132.422 226.439 132.268 226.483L119.774 229.821C119.564 229.855 119.374 229.963 119.237 230.124C119.1 230.285 119.024 230.49 119.024 230.702C119.024 230.914 119.1 231.119 119.237 231.281C119.374 231.442 119.564 231.55 119.774 231.584C121.994 231.711 124.118 232.534 125.844 233.935" fill="#1CDBBC"/>
<path d="M52.3601 230.573C53.7635 232.288 54.5873 234.403 54.7131 236.615C54.7446 236.821 54.846 237.01 55 237.152C55.154 237.293 55.3516 237.377 55.5601 237.391C55.7687 237.404 55.9755 237.347 56.1466 237.227C56.3178 237.107 56.443 236.933 56.5014 236.732L59.8427 224.249C59.881 224.094 59.8781 223.932 59.8344 223.779C59.7908 223.625 59.7078 223.486 59.5937 223.374C59.4797 223.263 59.3385 223.183 59.1841 223.142C59.0297 223.102 58.8675 223.103 58.7133 223.144L46.2188 226.459C46.0166 226.505 45.8364 226.619 45.7072 226.781C45.578 226.944 45.5076 227.145 45.5076 227.352C45.5076 227.559 45.578 227.761 45.7072 227.923C45.8364 228.085 46.0166 228.199 46.2188 228.245C48.4403 228.368 50.5659 229.191 52.2897 230.596" fill="#1CDBBC"/>
<path d="M100.197 220.911C101.604 222.633 102.428 224.757 102.55 226.976C102.584 227.185 102.692 227.375 102.853 227.513C103.015 227.65 103.22 227.725 103.432 227.725C103.644 227.725 103.85 227.65 104.011 227.513C104.173 227.375 104.28 227.185 104.315 226.976L107.656 214.493C107.697 214.339 107.698 214.177 107.658 214.023C107.617 213.868 107.537 213.727 107.426 213.613C107.314 213.499 107.174 213.416 107.021 213.373C106.867 213.329 106.705 213.326 106.55 213.365L94.0322 216.703C93.8314 216.763 93.6571 216.89 93.5387 217.063C93.4203 217.236 93.3648 217.444 93.3813 217.653C93.3978 217.862 93.4854 218.059 93.6295 218.211C93.7736 218.363 93.9654 218.461 94.1732 218.489C96.3869 218.615 98.504 219.438 100.221 220.84" fill="#1CDBBC"/>
<path d="M223.33 217.926C222.454 218.666 221.449 219.239 220.365 219.618C219.2 220.116 217.996 220.517 216.765 220.817C216.525 220.876 216.312 221.016 216.162 221.212C216.013 221.409 215.935 221.651 215.942 221.898C215.929 222.113 216 222.324 216.141 222.487C216.282 222.649 216.481 222.75 216.695 222.768L218.342 222.933C218.883 222.933 219.448 223.074 219.989 223.168C221.095 223.356 222.154 223.568 223.189 223.803C224.224 224.038 225.236 224.296 226.248 224.626C227.26 224.955 228.272 225.331 229.236 225.707C229.365 225.777 229.512 225.805 229.657 225.788C229.803 225.771 229.939 225.709 230.048 225.611C230.156 225.512 230.232 225.383 230.263 225.24C230.295 225.097 230.282 224.948 230.225 224.814C229.731 222.763 229.377 220.682 229.166 218.584C229.053 217.506 228.998 216.423 229.001 215.34C229.001 214.258 229.001 213.153 229.001 212.048C229.001 210.943 227.542 210.849 227.071 211.837C226.813 212.425 226.53 212.989 226.248 213.576C225.999 214.149 225.716 214.706 225.401 215.245C224.829 216.237 224.116 217.14 223.283 217.926" fill="#1CDBBC"/>
<path d="M277.449 216.961C276.552 216.246 275.808 215.359 275.26 214.352C274.569 213.285 273.956 212.169 273.425 211.014C273.324 210.799 273.159 210.62 272.953 210.502C272.747 210.384 272.509 210.333 272.272 210.355C272.164 210.364 272.058 210.395 271.962 210.444C271.865 210.494 271.78 210.562 271.71 210.645C271.64 210.729 271.587 210.825 271.554 210.928C271.521 211.032 271.51 211.141 271.519 211.249C271.659 213.441 271.659 215.639 271.519 217.831C271.519 218.866 271.354 219.947 271.213 221.028C271.072 222.11 270.884 223.097 270.672 224.108C270.64 224.243 270.646 224.384 270.691 224.516C270.737 224.647 270.818 224.763 270.927 224.849C271.036 224.936 271.167 224.989 271.305 225.004C271.444 225.018 271.583 224.993 271.708 224.931C275.661 223.205 279.847 222.072 284.131 221.569C285.19 221.569 285.049 219.924 283.967 219.641C281.594 219.215 279.334 218.302 277.331 216.961" fill="#1CDBBC"/>
<path d="M143.325 216.515C144.728 218.231 145.551 220.345 145.678 222.557C145.713 222.766 145.82 222.956 145.982 223.093C146.144 223.23 146.349 223.306 146.561 223.306C146.773 223.306 146.978 223.23 147.14 223.093C147.301 222.956 147.409 222.766 147.443 222.557L150.785 210.074C150.829 209.92 150.831 209.758 150.791 209.604C150.751 209.449 150.67 209.308 150.557 209.196C150.444 209.083 150.303 209.003 150.149 208.963C149.994 208.923 149.832 208.925 149.678 208.969L137.161 212.283C136.96 212.344 136.786 212.471 136.667 212.644C136.549 212.817 136.493 213.025 136.51 213.234C136.526 213.442 136.614 213.639 136.758 213.791C136.902 213.944 137.094 214.042 137.302 214.07C139.517 214.186 141.637 215.01 143.349 216.421" fill="#1CDBBC"/>
<path d="M191.916 216.444C191.33 217.35 190.589 218.145 189.728 218.795C188.767 219.549 187.753 220.233 186.693 220.84C185.775 221.381 186.151 222.815 187.163 222.651C189.375 222.321 191.516 222.063 193.657 221.898C195.799 221.734 197.94 221.687 200.034 221.734C200.182 221.748 200.331 221.719 200.464 221.651C200.596 221.583 200.706 221.478 200.78 221.349C200.855 221.22 200.89 221.073 200.883 220.924C200.876 220.776 200.826 220.632 200.74 220.511C199.611 218.701 198.575 216.867 197.587 214.963C196.599 213.059 195.728 211.061 194.881 209.016C194.505 208.075 193.069 208.475 193.069 209.533C193.263 211.866 192.867 214.21 191.916 216.35" fill="#1CDBBC"/>
<path d="M309.355 215.198C308.389 213.077 307.945 210.756 308.06 208.428C308.06 207.347 306.625 206.97 306.272 207.934C305.472 209.979 304.602 212.001 303.684 213.929C302.766 215.857 301.707 217.737 300.648 219.524C300.565 219.647 300.518 219.791 300.512 219.94C300.506 220.089 300.541 220.236 300.615 220.366C300.688 220.495 300.796 220.602 300.927 220.673C301.058 220.744 301.206 220.778 301.354 220.77C302.413 220.77 303.472 220.77 304.554 220.77C305.637 220.77 306.672 220.77 307.731 220.77C308.79 220.77 309.919 220.77 311.002 220.981C312.084 221.193 313.143 221.217 314.249 221.381C315.355 221.546 315.613 220.088 314.696 219.547C312.58 218.554 310.745 217.052 309.355 215.175" fill="#1CDBBC"/>
<path d="M69.7701 213.153C71.1722 214.869 71.9957 216.984 72.1231 219.195C72.1512 219.403 72.2497 219.594 72.402 219.738C72.5544 219.882 72.7514 219.97 72.9604 219.986C73.1695 220.003 73.3776 219.947 73.5507 219.829C73.7237 219.711 73.8511 219.537 73.9114 219.336L77.2293 206.829C77.2732 206.676 77.2753 206.514 77.2353 206.36C77.1953 206.205 77.1146 206.064 77.0018 205.952C76.8889 205.839 76.7481 205.758 76.5936 205.718C76.4391 205.679 76.2765 205.681 76.1231 205.724L63.6288 209.063C63.4195 209.108 63.2334 209.228 63.1046 209.399C62.9759 209.57 62.9129 209.781 62.9271 209.995C62.9414 210.209 63.0321 210.41 63.1825 210.562C63.3328 210.715 63.5331 210.808 63.7466 210.826C65.9599 210.953 68.0763 211.776 69.7937 213.177" fill="#1CDBBC"/>
<path d="M250.246 207.605C249.103 207.622 247.967 207.415 246.905 206.994C245.702 206.611 244.523 206.156 243.375 205.63C243.155 205.526 242.907 205.492 242.667 205.534C242.427 205.577 242.205 205.692 242.034 205.865C241.956 205.94 241.895 206.029 241.853 206.128C241.81 206.227 241.788 206.334 241.788 206.441C241.788 206.549 241.81 206.655 241.853 206.754C241.895 206.853 241.956 206.943 242.034 207.017C243.578 208.581 245.017 210.246 246.34 212.001L247.281 213.271L248.152 214.634C248.717 215.551 249.258 216.444 249.752 217.361C249.803 217.494 249.893 217.609 250.011 217.689C250.129 217.77 250.268 217.813 250.411 217.813C250.553 217.813 250.693 217.77 250.81 217.689C250.928 217.609 251.018 217.494 251.07 217.361C252.022 215.486 253.09 213.672 254.27 211.931C254.905 211.014 255.54 210.168 256.222 209.345C256.905 208.522 257.634 207.652 258.411 206.829C259.187 206.007 258.058 204.972 257.046 205.442L255.305 206.242C254.738 206.522 254.156 206.773 253.564 206.994C253.015 207.205 252.448 207.362 251.869 207.464C251.595 207.487 251.32 207.487 251.046 207.464C250.772 207.487 250.496 207.487 250.222 207.464" fill="#1CDBBC"/>
<path d="M116.88 204.149C118.282 205.865 119.106 207.98 119.233 210.191C119.246 210.406 119.337 210.608 119.487 210.762C119.638 210.915 119.84 211.009 120.054 211.026C120.269 211.044 120.482 210.983 120.656 210.855C120.829 210.728 120.95 210.542 120.998 210.332L124.339 197.825C124.383 197.672 124.385 197.51 124.345 197.356C124.305 197.201 124.224 197.06 124.112 196.948C123.999 196.835 123.858 196.754 123.703 196.714C123.549 196.675 123.386 196.677 123.233 196.721L110.739 200.059C110.529 200.093 110.339 200.201 110.202 200.362C110.065 200.524 109.989 200.729 109.989 200.94C109.989 201.152 110.065 201.357 110.202 201.519C110.339 201.68 110.529 201.788 110.739 201.822C112.952 201.949 115.068 202.772 116.786 204.173" fill="#1CDBBC"/>
<path d="M160.764 199.095C162.167 200.81 162.991 202.925 163.117 205.136C163.145 205.344 163.243 205.536 163.396 205.68C163.548 205.824 163.745 205.911 163.954 205.928C164.163 205.944 164.371 205.889 164.544 205.77C164.718 205.652 164.845 205.478 164.905 205.277L168.246 192.771C168.285 192.616 168.282 192.454 168.238 192.301C168.194 192.147 168.112 192.008 167.998 191.896C167.884 191.785 167.742 191.705 167.588 191.664C167.433 191.624 167.271 191.625 167.117 191.666L154.623 195.004C154.413 195.038 154.223 195.146 154.086 195.307C153.948 195.469 153.873 195.674 153.873 195.886C153.873 196.098 153.948 196.303 154.086 196.464C154.223 196.626 154.413 196.733 154.623 196.767C156.844 196.89 158.969 197.713 160.693 199.118" fill="#1CDBBC"/>
<path d="M210.574 195.31C209.667 195.947 208.644 196.402 207.563 196.65C206.381 196.959 205.178 197.179 203.963 197.308C202.88 197.308 202.692 198.907 203.68 199.142C207.842 200.245 211.897 201.717 215.798 203.538C215.931 203.605 216.079 203.635 216.227 203.623C216.375 203.611 216.517 203.558 216.636 203.47C216.756 203.382 216.849 203.263 216.905 203.126C216.96 202.988 216.976 202.838 216.951 202.691C216.633 200.588 216.42 198.469 216.316 196.344C216.316 194.181 216.151 191.995 216.316 189.809C216.316 188.798 214.881 188.586 214.433 189.55C213.984 190.687 213.433 191.781 212.786 192.818C212.239 193.778 211.512 194.624 210.645 195.31" fill="#1CDBBC"/>
<path d="M87.2062 195.733C88.6083 197.449 89.4318 199.564 89.5592 201.775C89.5725 201.99 89.6629 202.192 89.8137 202.346C89.9646 202.499 90.1658 202.593 90.3804 202.61C90.595 202.628 90.8085 202.567 90.9819 202.439C91.1552 202.312 91.2767 202.126 91.324 201.916L94.6651 189.409C94.709 189.256 94.7114 189.094 94.6714 188.94C94.6314 188.785 94.5507 188.644 94.4379 188.532C94.325 188.419 94.1842 188.338 94.0297 188.298C93.8752 188.259 93.7126 188.261 93.5592 188.305L81.0649 191.643C80.8556 191.677 80.6654 191.785 80.5281 191.946C80.3908 192.107 80.3152 192.313 80.3152 192.524C80.3152 192.736 80.3908 192.941 80.5281 193.103C80.6654 193.264 80.8556 193.372 81.0649 193.406C83.2783 193.533 85.3946 194.356 87.112 195.757" fill="#1CDBBC"/>
<path d="M290.272 194.464C289.841 194.148 289.446 193.785 289.095 193.383C288.726 192.947 288.38 192.492 288.06 192.019C287.729 191.513 287.431 190.987 287.166 190.444C286.883 189.903 286.601 189.363 286.342 188.798C285.895 187.834 284.436 188.046 284.483 189.081C284.722 193.379 284.581 197.69 284.06 201.963C284.03 202.11 284.044 202.262 284.099 202.401C284.154 202.54 284.248 202.661 284.37 202.748C284.492 202.834 284.636 202.884 284.786 202.891C284.935 202.898 285.084 202.861 285.213 202.786C289.083 200.87 293.115 199.296 297.26 198.084C298.249 197.802 297.99 196.345 296.931 196.251C296.296 196.251 295.684 196.11 295.095 196.015C294.493 195.944 293.896 195.834 293.307 195.686C292.754 195.545 292.211 195.364 291.684 195.146C291.185 194.952 290.711 194.699 290.272 194.393" fill="#1CDBBC"/>
<path d="M133.587 187.693C134.99 189.408 135.814 191.523 135.94 193.735C135.971 193.941 136.072 194.131 136.226 194.272C136.38 194.413 136.578 194.498 136.787 194.511C136.995 194.525 137.202 194.467 137.373 194.347C137.544 194.228 137.67 194.053 137.728 193.853L141.046 181.369C141.09 181.216 141.092 181.054 141.052 180.9C141.012 180.745 140.931 180.604 140.819 180.492C140.706 180.379 140.565 180.298 140.41 180.258C140.256 180.218 140.093 180.221 139.94 180.265L127.445 183.603C127.236 183.637 127.046 183.744 126.909 183.906C126.771 184.067 126.696 184.272 126.696 184.484C126.696 184.696 126.771 184.901 126.909 185.063C127.046 185.224 127.236 185.332 127.445 185.366C129.666 185.493 131.79 186.316 133.516 187.717" fill="#1CDBBC"/>
<path d="M236.2 183.579C233.88 183.84 231.533 183.541 229.353 182.709C228.341 182.38 227.517 183.626 228.341 184.261C230.058 185.671 231.682 187.059 233.235 188.587C234.788 190.115 236.247 191.596 237.635 193.288C237.73 193.401 237.855 193.485 237.996 193.531C238.136 193.577 238.286 193.584 238.43 193.549C238.574 193.515 238.706 193.442 238.81 193.338C238.915 193.234 238.989 193.103 239.023 192.959C239.588 190.937 240.27 188.939 241.023 186.917C241.776 184.896 242.67 182.921 243.635 180.923C244.082 180.006 242.835 179.23 242.035 179.959C241.235 180.688 241.117 180.782 240.647 181.158C240.176 181.534 239.682 181.934 239.188 182.263C238.281 182.897 237.27 183.367 236.2 183.65" fill="#1CDBBC"/>
<path d="M264.388 183.274C263.304 183.033 262.28 182.577 261.376 181.934C260.349 181.274 259.38 180.527 258.482 179.7C257.682 178.995 256.435 179.841 256.905 180.735C257.917 182.662 258.835 184.684 259.635 186.659C260.45 188.628 261.164 190.636 261.776 192.677C261.817 192.821 261.897 192.95 262.007 193.051C262.118 193.151 262.255 193.218 262.402 193.245C262.548 193.272 262.7 193.257 262.839 193.203C262.978 193.148 263.099 193.056 263.188 192.936C265.943 189.629 268.983 186.57 272.271 183.791C273.071 183.156 272.27 181.887 271.235 182.263C270.079 182.675 268.891 182.989 267.682 183.203C266.594 183.414 265.476 183.414 264.388 183.203" fill="#1CDBBC"/>
<path d="M178.174 181.675C179.577 183.4 180.4 185.522 180.527 187.74C180.545 187.954 180.638 188.154 180.791 188.304C180.944 188.454 181.145 188.545 181.359 188.559C181.573 188.573 181.784 188.51 181.956 188.382C182.127 188.253 182.246 188.067 182.292 187.858L185.633 175.375C185.675 175.221 185.675 175.059 185.635 174.904C185.594 174.75 185.514 174.609 185.403 174.495C185.291 174.381 185.152 174.298 184.998 174.255C184.844 174.211 184.682 174.208 184.527 174.246L172.033 177.585C171.83 177.631 171.65 177.745 171.521 177.907C171.392 178.069 171.321 178.271 171.321 178.478C171.321 178.685 171.392 178.886 171.521 179.049C171.65 179.211 171.83 179.325 172.033 179.371C174.246 179.497 176.363 180.32 178.08 181.722" fill="#1CDBBC"/>
<path d="M104.644 178.29C106.046 180.006 106.87 182.12 106.997 184.332C107.01 184.546 107.101 184.749 107.252 184.902C107.402 185.056 107.603 185.15 107.818 185.167C108.033 185.184 108.246 185.123 108.42 184.996C108.593 184.868 108.715 184.683 108.762 184.473L112.103 171.99C112.144 171.836 112.145 171.673 112.105 171.519C112.064 171.365 111.984 171.224 111.873 171.11C111.761 170.996 111.621 170.913 111.468 170.869C111.314 170.826 111.152 170.823 110.997 170.861L98.479 174.199C98.2782 174.26 98.1042 174.387 97.9858 174.56C97.8674 174.733 97.8119 174.941 97.8284 175.15C97.8449 175.358 97.9325 175.555 98.0766 175.708C98.2207 175.86 98.4125 175.958 98.6203 175.986C100.834 176.112 102.951 176.935 104.667 178.337" fill="#1CDBBC"/>
<path d="M150.386 170.884C151.79 172.608 152.614 174.731 152.739 176.95C152.771 177.156 152.872 177.346 153.026 177.487C153.18 177.628 153.378 177.712 153.586 177.726C153.795 177.74 154.002 177.682 154.173 177.562C154.344 177.442 154.469 177.268 154.528 177.067L157.869 164.584C157.907 164.429 157.904 164.267 157.861 164.114C157.817 163.96 157.734 163.821 157.62 163.709C157.506 163.598 157.365 163.518 157.21 163.478C157.056 163.437 156.894 163.438 156.739 163.479L144.245 166.794C144.044 166.854 143.87 166.981 143.752 167.154C143.633 167.327 143.578 167.535 143.594 167.744C143.611 167.953 143.698 168.15 143.842 168.302C143.986 168.454 144.178 168.553 144.386 168.581C146.6 168.706 148.717 169.529 150.433 170.932" fill="#1CDBBC"/>
<path d="M195.609 164.185C197.012 165.9 197.836 168.015 197.962 170.226C197.99 170.434 198.088 170.626 198.241 170.77C198.393 170.914 198.59 171.001 198.799 171.018C199.008 171.034 199.217 170.979 199.39 170.86C199.563 170.742 199.69 170.568 199.75 170.367L203.092 157.861C203.13 157.706 203.127 157.544 203.083 157.39C203.04 157.237 202.957 157.098 202.843 156.986C202.729 156.874 202.587 156.795 202.433 156.754C202.279 156.714 202.116 156.714 201.962 156.756L189.468 160.094C189.258 160.141 189.072 160.263 188.944 160.436C188.816 160.609 188.756 160.822 188.773 161.037C188.79 161.251 188.884 161.452 189.038 161.603C189.191 161.754 189.394 161.844 189.609 161.857C191.822 161.985 193.939 162.807 195.656 164.208" fill="#1CDBBC"/>
<path d="M122.148 160.893C123.552 162.617 124.375 164.74 124.501 166.958C124.533 167.165 124.634 167.354 124.788 167.495C124.942 167.637 125.139 167.721 125.348 167.735C125.556 167.749 125.763 167.691 125.935 167.571C126.106 167.451 126.231 167.276 126.289 167.076L129.631 154.593C129.675 154.44 129.677 154.277 129.637 154.123C129.597 153.969 129.516 153.828 129.403 153.715C129.29 153.602 129.15 153.522 128.995 153.482C128.841 153.442 128.678 153.444 128.525 153.488L116.007 156.803C115.806 156.863 115.632 156.99 115.513 157.163C115.395 157.336 115.339 157.544 115.356 157.753C115.372 157.962 115.46 158.159 115.604 158.311C115.748 158.463 115.94 158.561 116.148 158.589C118.361 158.715 120.479 159.538 122.195 160.94" fill="#1CDBBC"/>
<path d="M166.856 154.217C168.258 155.933 169.081 158.047 169.209 160.259C169.222 160.473 169.312 160.676 169.463 160.829C169.614 160.983 169.815 161.077 170.03 161.094C170.244 161.111 170.458 161.05 170.631 160.923C170.805 160.795 170.926 160.61 170.973 160.4L174.315 147.893C174.351 147.741 174.348 147.581 174.305 147.431C174.263 147.28 174.182 147.142 174.071 147.032C173.96 146.921 173.823 146.84 173.672 146.798C173.521 146.755 173.361 146.752 173.209 146.788L160.691 150.126C160.49 150.187 160.316 150.314 160.197 150.487C160.079 150.66 160.023 150.868 160.04 151.077C160.056 151.285 160.144 151.482 160.288 151.634C160.432 151.787 160.624 151.885 160.832 151.913C163.046 152.039 165.163 152.862 166.879 154.264" fill="#1CDBBC"/>
<path d="M213.023 146.859C214.425 148.575 215.248 150.689 215.376 152.901C215.389 153.115 215.479 153.318 215.63 153.471C215.781 153.625 215.982 153.719 216.197 153.736C216.412 153.753 216.625 153.692 216.799 153.565C216.972 153.437 217.093 153.251 217.141 153.042L220.482 140.558C220.523 140.405 220.524 140.242 220.483 140.088C220.443 139.934 220.363 139.793 220.251 139.679C220.14 139.565 220 139.482 219.847 139.438C219.693 139.395 219.531 139.392 219.376 139.43L206.882 142.768C206.679 142.815 206.499 142.929 206.37 143.091C206.241 143.253 206.17 143.454 206.17 143.662C206.17 143.869 206.241 144.07 206.37 144.232C206.499 144.395 206.679 144.508 206.882 144.555C209.095 144.681 211.212 145.504 212.929 146.906" fill="#1CDBBC"/>
<path d="M139.513 143.497C140.917 145.212 141.74 147.327 141.866 149.539C141.898 149.745 141.999 149.934 142.153 150.076C142.307 150.217 142.504 150.301 142.713 150.315C142.922 150.329 143.129 150.271 143.3 150.151C143.471 150.031 143.596 149.857 143.655 149.656L146.996 137.173C147.034 137.018 147.031 136.856 146.988 136.703C146.944 136.549 146.861 136.41 146.747 136.298C146.633 136.187 146.492 136.107 146.337 136.067C146.183 136.026 146.02 136.027 145.866 136.068L133.372 139.383C133.17 139.43 132.989 139.543 132.86 139.705C132.731 139.868 132.661 140.069 132.661 140.276C132.661 140.484 132.731 140.685 132.86 140.847C132.989 141.009 133.17 141.123 133.372 141.17C135.593 141.292 137.719 142.115 139.443 143.52" fill="#1CDBBC"/>
<path d="M183.635 137.549C185.037 139.265 185.86 141.38 185.988 143.591C186.001 143.806 186.091 144.008 186.242 144.162C186.393 144.315 186.594 144.409 186.809 144.426C187.024 144.443 187.237 144.383 187.41 144.255C187.584 144.128 187.705 143.942 187.753 143.732L191.094 131.225C191.138 131.072 191.14 130.91 191.1 130.756C191.06 130.601 190.979 130.46 190.866 130.348C190.754 130.235 190.613 130.154 190.458 130.114C190.304 130.074 190.141 130.077 189.988 130.121L177.493 133.459C177.284 133.493 177.094 133.6 176.957 133.762C176.819 133.923 176.744 134.128 176.744 134.34C176.744 134.552 176.819 134.757 176.957 134.919C177.094 135.08 177.284 135.188 177.493 135.222C179.707 135.349 181.823 136.172 183.541 137.573" fill="#1CDBBC"/>
<path d="M72.1252 137.972C73.2323 138.002 74.3247 138.233 75.3488 138.654C76.4915 139.099 77.5937 139.642 78.6431 140.276C79.5607 140.77 80.6194 139.712 79.9606 138.936C79.3018 138.16 78.5959 137.22 77.937 136.35C77.2782 135.48 76.6666 134.587 76.0784 133.694C75.4901 132.8 74.9019 131.907 74.3372 131.014C73.7724 130.12 73.2311 129.157 72.737 128.24C72.671 128.106 72.5688 127.993 72.442 127.914C72.3152 127.835 72.1686 127.794 72.0192 127.794C71.8698 127.794 71.7235 127.835 71.5967 127.914C71.4698 127.993 71.3677 128.106 71.3017 128.24C70.3134 130.073 69.2546 131.907 68.0781 133.741C66.9016 135.574 65.7251 137.291 64.3133 139.054C63.678 139.877 64.7368 140.887 65.6544 140.347C67.5889 139.051 69.8095 138.244 72.1252 137.996" fill="#1CDBBC"/>
<path d="M44.4998 132.424C46.5379 133.557 48.2669 135.171 49.5353 137.126C50.1706 138.019 51.5589 137.455 51.2765 136.468C50.7118 134.352 50.2412 132.189 49.8412 130.097C49.4412 128.005 49.2059 125.842 49.0177 123.773C49.015 123.624 48.9696 123.48 48.887 123.356C48.8044 123.233 48.6881 123.135 48.5518 123.076C48.4155 123.017 48.2649 122.997 48.1181 123.021C47.9712 123.045 47.8343 123.11 47.7234 123.209L45.1587 125.113C44.3117 125.748 43.4175 126.336 42.5234 126.923C41.6292 127.511 40.7115 128.075 39.7467 128.639C38.782 129.204 37.8644 129.721 36.8997 130.238C35.9349 130.755 36.5466 132.095 37.6054 131.978C38.8135 131.811 40.0338 131.748 41.2527 131.789C42.3638 131.788 43.4653 131.996 44.4998 132.401" fill="#1CDBBC"/>
<path d="M99.6328 131.837C100.661 131.424 101.75 131.186 102.856 131.132C104.079 131.062 105.304 131.062 106.527 131.132C107.586 131.132 108.127 129.862 107.209 129.415C105.209 128.381 103.327 127.347 101.515 126.218C99.7032 125.09 97.915 123.867 96.2443 122.598C96.1293 122.5 95.989 122.437 95.8396 122.416C95.6903 122.394 95.5379 122.416 95.4001 122.477C95.2624 122.539 95.145 122.638 95.0612 122.763C94.9774 122.888 94.9308 123.035 94.9268 123.186C94.9268 125.325 94.5737 127.394 94.2443 129.533C93.9149 131.672 93.4677 133.764 92.9501 135.927C92.6912 136.915 94.0795 137.408 94.7148 136.562C95.4288 135.558 96.2153 134.607 97.0678 133.717C97.8143 132.903 98.6983 132.227 99.6796 131.719" fill="#1CDBBC"/>
<path d="M230.389 129.462C231.791 131.178 232.614 133.293 232.742 135.504C232.759 135.717 232.853 135.917 233.005 136.068C233.158 136.218 233.36 136.308 233.573 136.323C233.787 136.337 233.999 136.274 234.17 136.145C234.341 136.017 234.461 135.831 234.506 135.622L237.848 123.138C237.892 122.985 237.894 122.823 237.854 122.669C237.814 122.514 237.733 122.373 237.62 122.261C237.507 122.148 237.367 122.067 237.212 122.027C237.058 121.988 236.895 121.99 236.742 122.034L224.224 125.372C224.014 125.419 223.828 125.54 223.7 125.714C223.573 125.887 223.512 126.1 223.529 126.315C223.546 126.529 223.64 126.73 223.794 126.881C223.947 127.031 224.15 127.122 224.365 127.135C226.578 127.262 228.695 128.085 230.412 129.486" fill="#1CDBBC"/>
<path d="M156.928 126.077C158.33 127.793 159.154 129.907 159.281 132.119C159.309 132.326 159.407 132.518 159.56 132.662C159.712 132.806 159.909 132.893 160.118 132.91C160.327 132.926 160.536 132.871 160.709 132.752C160.882 132.634 161.009 132.46 161.069 132.26L164.387 119.753C164.431 119.6 164.433 119.438 164.393 119.283C164.353 119.129 164.273 118.988 164.16 118.875C164.047 118.762 163.906 118.682 163.752 118.642C163.597 118.602 163.434 118.604 163.281 118.648L150.787 121.986C150.577 122.021 150.387 122.128 150.25 122.29C150.112 122.451 150.037 122.656 150.037 122.868C150.037 123.08 150.112 123.285 150.25 123.446C150.387 123.608 150.577 123.715 150.787 123.749C153 123.877 155.117 124.7 156.834 126.1" fill="#1CDBBC"/>
<path d="M200.339 120.881C201.743 122.596 202.566 124.711 202.692 126.923C202.724 127.13 202.825 127.319 202.979 127.46C203.133 127.601 203.331 127.686 203.539 127.699C203.748 127.713 203.955 127.655 204.126 127.536C204.297 127.416 204.422 127.241 204.481 127.041L207.822 114.558C207.86 114.403 207.857 114.241 207.814 114.087C207.77 113.934 207.687 113.794 207.573 113.683C207.459 113.571 207.318 113.491 207.163 113.451C207.009 113.411 206.847 113.411 206.692 113.453L194.198 116.767C193.997 116.826 193.823 116.951 193.703 117.122C193.583 117.293 193.525 117.5 193.538 117.708C193.552 117.916 193.637 118.114 193.778 118.268C193.919 118.421 194.109 118.523 194.316 118.554C196.537 118.677 198.663 119.5 200.386 120.905" fill="#1CDBBC"/>
<path d="M21.4872 116.109C22.2295 116.936 22.7979 117.903 23.1581 118.954C23.5973 120.09 23.9357 121.262 24.1697 122.457C24.405 123.491 25.8875 123.562 26.0522 122.457C26.2169 121.352 26.4051 120.317 26.6169 119.236C26.8287 118.155 27.0874 117.12 27.3462 116.062C27.8403 113.994 28.4521 111.948 29.1345 109.95C29.1921 109.812 29.2088 109.661 29.1825 109.514C29.1562 109.367 29.0881 109.231 28.9863 109.122C28.8844 109.013 28.7534 108.935 28.6086 108.899C28.4638 108.862 28.3115 108.868 28.17 108.916C23.9915 109.953 19.7332 110.637 15.4401 110.961C14.4283 110.961 14.3342 112.513 15.4401 112.818C16.6185 113.165 17.7672 113.605 18.8754 114.135C19.8842 114.58 20.7956 115.219 21.5579 116.015" fill="#1CDBBC"/>
<path d="M122.267 115.028C123.985 113.45 126.06 112.312 128.314 111.713C129.326 111.384 129.256 109.903 128.314 109.856C126.103 109.856 123.961 109.55 121.82 109.221C119.707 108.946 117.61 108.562 115.538 108.069C115.392 108.021 115.235 108.016 115.087 108.057C114.939 108.097 114.806 108.18 114.706 108.296C114.605 108.412 114.541 108.555 114.521 108.707C114.502 108.859 114.528 109.013 114.597 109.151C115.326 111.102 115.961 113.124 116.526 115.239C117.091 117.355 117.561 119.424 117.961 121.587C117.996 121.799 118.11 121.99 118.281 122.121C118.451 122.251 118.665 122.313 118.879 122.292C119.109 122.279 119.327 122.188 119.498 122.034C119.67 121.88 119.783 121.673 119.82 121.446C120.056 120.251 120.37 119.073 120.761 117.919C121.12 116.869 121.661 115.89 122.361 115.028" fill="#1CDBBC"/>
<path d="M247.893 112.042C249.296 113.757 250.12 115.872 250.246 118.084C250.274 118.292 250.372 118.483 250.525 118.627C250.677 118.771 250.874 118.859 251.083 118.875C251.292 118.892 251.501 118.836 251.674 118.718C251.847 118.6 251.974 118.426 252.034 118.225L255.352 105.718C255.396 105.565 255.398 105.403 255.358 105.248C255.318 105.094 255.238 104.953 255.125 104.841C255.012 104.728 254.871 104.647 254.716 104.607C254.562 104.567 254.399 104.569 254.246 104.613L241.751 107.952C241.542 107.986 241.352 108.093 241.215 108.255C241.077 108.416 241.002 108.621 241.002 108.833C241.002 109.045 241.077 109.25 241.215 109.412C241.352 109.573 241.542 109.681 241.751 109.715C243.972 109.842 246.096 110.665 247.822 112.066" fill="#1CDBBC"/>
<path d="M174.362 108.657C175.764 110.373 176.587 112.488 176.715 114.699C176.728 114.914 176.819 115.116 176.969 115.27C177.12 115.423 177.321 115.517 177.536 115.534C177.751 115.551 177.964 115.491 178.138 115.363C178.311 115.236 178.432 115.05 178.48 114.84L181.821 102.333C181.865 102.18 181.867 102.018 181.827 101.863C181.787 101.709 181.707 101.568 181.594 101.456C181.481 101.343 181.34 101.262 181.185 101.222C181.031 101.182 180.869 101.184 180.715 101.228L168.197 104.567C167.987 104.614 167.801 104.735 167.673 104.908C167.546 105.082 167.485 105.295 167.502 105.509C167.519 105.724 167.613 105.925 167.767 106.076C167.921 106.226 168.123 106.317 168.338 106.33C170.552 106.457 172.668 107.28 174.385 108.681" fill="#1CDBBC"/>
<path d="M57.7016 110.115C58.7596 110.547 59.7563 111.116 60.6665 111.807C61.6312 112.559 62.5723 113.5 63.5135 114.346C64.4547 115.192 65.6785 114.346 65.2314 113.429C63.3711 109.551 62.1095 105.414 61.4899 101.158C61.4818 101.017 61.433 100.882 61.3495 100.768C61.266 100.655 61.1514 100.568 61.0195 100.518C60.8875 100.468 60.7436 100.458 60.6058 100.488C60.468 100.518 60.3419 100.587 60.2428 100.687C59.4898 101.416 58.7133 102.122 57.8898 102.827C57.0662 103.532 56.2428 104.096 55.3486 104.731C54.4545 105.366 53.5603 105.93 52.6191 106.518L51.1838 107.364L49.7249 108.116C49.6251 108.161 49.5357 108.226 49.4621 108.307C49.3885 108.388 49.3322 108.484 49.2969 108.587C49.2617 108.691 49.2479 108.8 49.2567 108.91C49.2656 109.019 49.2971 109.125 49.3486 109.221C49.4397 109.445 49.6017 109.633 49.8099 109.756C50.0182 109.88 50.2612 109.931 50.5016 109.903C51.7637 109.721 53.0386 109.643 54.3135 109.668C55.4598 109.63 56.6044 109.781 57.7016 110.115" fill="#1CDBBC"/>
<path d="M86.5015 109.527C87.0325 109.355 87.5752 109.222 88.1252 109.127C88.7008 109.026 89.2825 108.963 89.8664 108.939C91.09 108.939 92.4312 108.939 93.6783 108.939C94.9254 108.939 95.3488 107.576 94.4076 107.152C90.4842 105.35 86.8521 102.973 83.6309 100.1C83.5364 99.9976 83.4138 99.9257 83.2785 99.893C83.1431 99.8603 83.0011 99.8684 82.8703 99.9161C82.7395 99.9639 82.6258 100.049 82.5434 100.161C82.4611 100.274 82.4136 100.407 82.4073 100.546C82.4073 101.581 82.1486 102.639 81.9604 103.697C81.7721 104.755 81.5132 105.718 81.2543 106.776C80.6998 108.897 79.9839 110.971 79.113 112.983C78.6895 113.899 80.0777 114.675 80.8542 113.829C81.7127 112.899 82.6325 112.027 83.6074 111.219C84.1015 110.867 84.5485 110.467 85.0426 110.162C85.4952 109.844 85.9852 109.583 86.5015 109.386" fill="#1CDBBC"/>
<path d="M217.024 104.19C218.43 105.913 219.254 108.036 219.377 110.256C219.394 110.469 219.488 110.669 219.641 110.819C219.793 110.97 219.995 111.06 220.208 111.074C220.422 111.088 220.634 111.025 220.805 110.897C220.977 110.768 221.096 110.582 221.141 110.373L224.483 97.8901C224.524 97.7361 224.525 97.5741 224.485 97.4198C224.444 97.2655 224.364 97.1244 224.252 97.0104C224.141 96.8965 224.001 96.8137 223.848 96.7701C223.694 96.7265 223.532 96.7236 223.377 96.7618L210.859 100.1C210.658 100.16 210.484 100.287 210.366 100.46C210.247 100.633 210.192 100.841 210.208 101.05C210.225 101.259 210.312 101.456 210.456 101.608C210.6 101.76 210.792 101.859 211 101.887C213.214 102.012 215.331 102.835 217.047 104.238" fill="#1CDBBC"/>
<path d="M265.307 94.6225C266.707 96.3487 267.529 98.4699 267.66 100.688C267.694 100.897 267.802 101.087 267.964 101.224C268.125 101.361 268.33 101.437 268.542 101.437C268.754 101.437 268.96 101.361 269.121 101.224C269.283 101.087 269.39 100.897 269.425 100.688L272.766 88.2046C272.81 88.0514 272.812 87.8891 272.772 87.7347C272.732 87.5804 272.652 87.4395 272.539 87.3268C272.426 87.214 272.285 87.1336 272.13 87.0936C271.976 87.0537 271.814 87.0559 271.66 87.0998L259.142 90.4145C258.941 90.4747 258.767 90.6019 258.649 90.7747C258.53 90.9476 258.475 91.1559 258.491 91.3648C258.508 91.5736 258.596 91.7705 258.74 91.9226C258.884 92.0748 259.076 92.1731 259.283 92.2011C261.497 92.3268 263.614 93.1498 265.33 94.552" fill="#1CDBBC"/>
<path d="M35.3014 91.9189C36.3626 94.1235 36.9478 96.5264 37.0191 98.9715C37.1603 100.076 38.6663 100.382 38.9252 99.3712C39.184 98.3603 39.5135 97.2555 39.8664 96.2211C40.2194 95.1867 40.6429 94.1522 41.0665 93.1648C41.8833 91.2152 42.8591 89.3362 43.9842 87.5464C44.0724 87.4337 44.1241 87.297 44.1327 87.1542C44.1413 87.0115 44.1064 86.8694 44.0324 86.747C43.9584 86.6246 43.8487 86.5276 43.7182 86.4688C43.5877 86.41 43.4425 86.3922 43.3017 86.4178C41.1955 86.594 39.0784 86.594 36.9723 86.4178C35.9134 86.4178 34.7839 86.2298 33.7016 86.0418C32.6192 85.8537 31.5839 85.6421 30.478 85.407C29.372 85.1719 29.0427 86.6295 29.9368 87.2643C30.4309 87.6404 31.019 87.993 31.5367 88.3691C32.0543 88.7452 32.5485 89.1214 33.0191 89.521C33.4577 89.9045 33.8741 90.3127 34.2663 90.7435C34.6591 91.1341 35.0063 91.5678 35.3014 92.0365" fill="#1CDBBC"/>
<path d="M7.13373 91.8719C7.29643 92.3753 7.39911 92.8961 7.43963 93.4236C7.47521 93.9951 7.47521 94.5682 7.43963 95.1396C7.3544 96.3559 7.18942 97.5653 6.94559 98.7599C6.73382 99.8178 8.05141 100.476 8.61613 99.6064C10.9439 95.9856 13.5897 92.579 16.5222 89.4271C16.6314 89.3257 16.7093 89.195 16.7462 89.0507C16.7832 88.9064 16.7776 88.7545 16.7304 88.6132C16.6833 88.4719 16.5965 88.3472 16.4803 88.2539C16.364 88.1606 16.2235 88.1026 16.0753 88.087C11.8273 87.3577 7.6534 86.2482 3.60422 84.7722C2.63949 84.4196 2.00426 85.7362 2.80428 86.4649C3.6043 87.1937 3.6983 87.2877 4.14537 87.7108C4.58562 88.134 5.00203 88.5814 5.39253 89.0508C5.76325 89.4824 6.09413 89.9467 6.38089 90.4379C6.68122 90.8811 6.9186 91.3637 7.08662 91.8719" fill="#1CDBBC"/>
<path d="M191.797 91.3075C193.199 93.0233 194.023 95.1379 194.15 97.3492C194.164 97.5639 194.254 97.7665 194.405 97.92C194.556 98.0734 194.757 98.1674 194.972 98.1846C195.186 98.2017 195.4 98.1409 195.573 98.0134C195.746 97.8858 195.868 97.7001 195.915 97.4902L199.256 85.0071C199.298 84.8532 199.298 84.6909 199.258 84.5367C199.217 84.3824 199.137 84.2414 199.026 84.1274C198.914 84.0135 198.775 83.9306 198.621 83.887C198.468 83.8433 198.306 83.8406 198.151 83.8788L185.632 87.217C185.432 87.2772 185.258 87.4044 185.139 87.5773C185.021 87.7501 184.965 87.9583 184.982 88.1671C184.998 88.376 185.086 88.573 185.23 88.7251C185.374 88.8773 185.566 88.9756 185.774 89.0036C187.987 89.1293 190.104 89.9523 191.821 91.3545" fill="#1CDBBC"/>
<path d="M108.269 90.6495C108.845 89.6557 109.585 88.7657 110.457 88.0165C111.398 87.2407 112.363 86.4179 113.422 85.6656C114.481 84.9133 113.869 83.5499 112.857 83.832C110.737 84.3832 108.583 84.7993 106.41 85.0779C104.308 85.31 102.194 85.4043 100.08 85.36C99.9412 85.3402 99.7995 85.3624 99.6731 85.4234C99.5468 85.4845 99.4417 85.5818 99.371 85.7029C99.3003 85.824 99.2672 85.9635 99.2762 86.1034C99.2851 86.2433 99.3356 86.3774 99.4212 86.4885C99.9859 87.3583 100.551 88.2517 101.069 89.1685C101.586 90.0854 102.127 91.0727 102.551 92.013C103.462 94.0074 104.248 96.0566 104.904 98.1487C104.934 98.2545 104.984 98.3532 105.052 98.4391C105.121 98.525 105.206 98.5963 105.302 98.6489C105.399 98.7015 105.505 98.7343 105.614 98.7453C105.724 98.7563 105.834 98.7454 105.939 98.7131C106.17 98.6446 106.373 98.5057 106.521 98.316C106.668 98.1263 106.753 97.8953 106.763 97.6551C106.836 96.3936 106.986 95.1374 107.21 93.8937C107.344 92.7528 107.704 91.6499 108.269 90.6495" fill="#1CDBBC"/>
<path d="M136.127 90.5084C136.473 89.4546 137.025 88.4799 137.751 87.6404C138.524 86.6946 139.374 85.814 140.292 85.0075C141.115 84.2787 140.292 82.9386 139.445 83.3383C135.423 84.8884 131.274 86.0841 127.044 86.9117C126.898 86.9361 126.762 87.0005 126.65 87.0979C126.539 87.1953 126.456 87.3217 126.412 87.4631C126.368 87.6044 126.365 87.7552 126.401 87.8985C126.438 88.0419 126.514 88.1724 126.621 88.2752C129.621 91.3623 132.345 94.7054 134.762 98.2664C135.303 99.1362 136.645 98.431 136.409 97.3966C136.122 96.2074 135.933 94.9964 135.844 93.7761C135.706 92.6792 135.802 91.5654 136.127 90.5084" fill="#1CDBBC"/>
<path d="M233.706 87.5227C235.108 89.2385 235.932 91.3531 236.059 93.5644C236.073 93.7791 236.163 93.9818 236.314 94.1352C236.465 94.2887 236.666 94.3826 236.88 94.3998C237.095 94.417 237.309 94.3562 237.482 94.2286C237.655 94.1011 237.777 93.9153 237.824 93.7055L241.165 81.1988C241.209 81.0456 241.211 80.8833 241.171 80.7289C241.131 80.5746 241.051 80.4337 240.938 80.321C240.825 80.2083 240.684 80.1278 240.529 80.0878C240.375 80.0479 240.213 80.0499 240.059 80.0939L227.541 83.4322C227.331 83.4794 227.145 83.6008 227.018 83.774C226.89 83.9472 226.829 84.1605 226.846 84.3749C226.863 84.5893 226.957 84.7904 227.111 84.9411C227.265 85.0918 227.468 85.1821 227.682 85.1953C229.896 85.3226 232.012 86.1454 233.73 87.5462" fill="#1CDBBC"/>
<path d="M282.741 77.2022C284.144 78.9172 284.968 81.0322 285.094 83.2439C285.122 83.4515 285.22 83.6432 285.373 83.7872C285.525 83.9311 285.722 84.0186 285.931 84.0351C286.14 84.0516 286.348 83.9961 286.521 83.8778C286.694 83.7595 286.822 83.5856 286.882 83.385L290.223 70.8783C290.262 70.7235 290.259 70.5614 290.215 70.408C290.171 70.2546 290.088 70.1152 289.974 70.0036C289.86 69.8921 289.719 69.8122 289.565 69.7718C289.41 69.7314 289.248 69.7321 289.094 69.7735L276.599 73.1117C276.39 73.1573 276.204 73.2765 276.075 73.4476C275.946 73.6187 275.883 73.8303 275.898 74.0439C275.912 74.2575 276.003 74.4589 276.153 74.6114C276.303 74.7639 276.503 74.8574 276.717 74.8748C278.938 74.9972 281.064 75.8203 282.788 77.2257" fill="#1CDBBC"/>
<path d="M209.212 73.8171C210.616 75.541 211.439 77.6636 211.565 79.8824C211.597 80.0888 211.698 80.2783 211.852 80.4195C212.006 80.5606 212.203 80.645 212.412 80.6587C212.62 80.6724 212.827 80.6146 212.999 80.4948C213.17 80.375 213.295 80.2004 213.353 79.9999L216.695 67.5168C216.733 67.362 216.73 67.1999 216.686 67.0465C216.643 66.8931 216.56 66.7537 216.446 66.6421C216.332 66.5306 216.19 66.4506 216.036 66.4103C215.882 66.3699 215.719 66.3704 215.565 66.4118L203.071 69.7267C202.87 69.7869 202.696 69.9141 202.577 70.0869C202.459 70.2598 202.403 70.468 202.42 70.6768C202.436 70.8856 202.524 71.0826 202.668 71.2348C202.812 71.387 203.004 71.4853 203.212 71.5133C205.425 71.639 207.543 72.462 209.259 73.8642" fill="#1CDBBC"/>
<path d="M250.414 70.8554C251.817 72.5704 252.641 74.6854 252.767 76.8971C252.795 77.1047 252.893 77.2965 253.045 77.4405C253.198 77.5845 253.395 77.672 253.604 77.6884C253.813 77.7049 254.021 77.6493 254.194 77.531C254.367 77.4127 254.495 77.2388 254.555 77.0382L257.873 64.5315C257.917 64.3783 257.919 64.2161 257.879 64.0618C257.839 63.9074 257.758 63.7664 257.645 63.6537C257.532 63.541 257.392 63.4605 257.237 63.4205C257.083 63.3806 256.92 63.3828 256.767 63.4267L244.272 66.7649C244.063 66.7992 243.873 66.9066 243.736 67.0681C243.598 67.2296 243.523 67.4346 243.523 67.6465C243.523 67.8584 243.598 68.0634 243.736 68.2249C243.873 68.3863 244.063 68.4938 244.272 68.528C246.492 68.6584 248.615 69.4805 250.343 70.8789" fill="#1CDBBC"/>
<path d="M3.88895 63.8729C3.76547 64.9799 3.42161 66.0509 2.87732 67.023C2.33431 68.1163 1.68807 69.1554 0.947694 70.1262C0.335913 70.996 1.30067 72.1479 2.14775 71.5837C3.96223 70.3729 5.83944 69.2586 7.77146 68.2455C9.63034 67.2346 11.5832 66.3178 13.5362 65.495C13.6706 65.4382 13.787 65.3458 13.8726 65.2277C13.9581 65.1097 14.0098 64.9705 14.0219 64.8252C14.034 64.68 14.006 64.5342 13.9412 64.4037C13.8764 64.2731 13.7771 64.1627 13.654 64.0844C11.9127 62.909 10.1714 61.7336 8.50074 60.2996C6.83011 58.8655 5.18309 57.5255 3.58305 55.9974C2.85362 55.2687 1.7007 56.2325 2.1713 57.1964C3.29615 59.2424 3.88685 61.5386 3.88895 63.8729" fill="#1CDBBC"/>
<path d="M29.7944 63.6853C29.1935 66.029 28.1119 68.2225 26.6179 70.1266C26.0061 71.0435 26.9944 72.2424 27.8415 71.6312C28.6886 71.02 29.6061 70.4087 30.5943 69.8445C31.5826 69.2803 32.524 68.7632 33.4652 68.2695C34.4064 67.7758 35.3946 67.3291 36.3358 66.9295C37.277 66.5298 38.3359 66.1536 39.3242 65.848C39.4594 65.8092 39.5802 65.7322 39.6726 65.6262C39.765 65.5202 39.8248 65.3898 39.8447 65.2507C39.8645 65.1116 39.8439 64.9696 39.7849 64.842C39.7259 64.7145 39.6312 64.6066 39.5123 64.5315C37.8035 63.2916 36.1909 61.9242 34.6886 60.4411C33.9356 59.6653 33.1591 58.8895 32.3355 58.0902C31.512 57.2909 30.9708 56.4212 30.2884 55.5278C29.6061 54.6345 28.3827 55.5277 28.665 56.6091C28.9474 57.6905 29.3945 59.1246 29.5827 60.3235C29.5827 60.9113 29.5826 61.499 29.7473 62.0632C29.8184 62.6173 29.8184 63.1782 29.7473 63.7323" fill="#1CDBBC"/>
<path d="M138.762 62.4628C138.667 61.3548 138.778 60.2389 139.091 59.1717C139.423 57.9989 139.84 56.8518 140.338 55.7394C140.762 54.752 139.609 53.8351 138.879 54.5639C138.15 55.2927 137.326 56.092 136.526 56.9148C135.726 57.7376 134.903 58.3723 134.173 59.0775L131.679 61.0759L129.091 62.9565C128.961 63.0346 128.857 63.1487 128.792 63.285C128.726 63.4212 128.702 63.5736 128.722 63.7235C128.742 63.8733 128.805 64.014 128.904 64.1284C129.003 64.2427 129.134 64.3256 129.279 64.367C131.208 65.1428 133.138 66.0361 135.091 66.9999C137.044 67.9638 138.879 69.0453 140.785 70.1972C141.656 70.7379 142.55 69.586 141.915 68.7162C141.18 67.7433 140.512 66.7224 139.915 65.6601C139.378 64.6977 139.019 63.6465 138.856 62.5569" fill="#1CDBBC"/>
<path d="M112.736 62.2042C112.559 61.0748 112.559 59.9247 112.736 58.7954C112.736 58.1842 112.995 57.5495 113.089 56.9383C113.183 56.327 113.348 55.6924 113.513 55.0811C113.771 53.9997 112.477 53.1534 111.889 54.0232C110.636 55.8163 109.26 57.5208 107.771 59.1246C106.297 60.6508 104.725 62.08 103.065 63.4031C102.944 63.4776 102.848 63.5867 102.791 63.7164C102.733 63.8461 102.715 63.9902 102.741 64.1299C102.766 64.2696 102.833 64.3985 102.933 64.4995C103.033 64.6005 103.161 64.669 103.301 64.6961C104.289 65.0095 105.277 65.3386 106.265 65.6834C107.277 66.0416 108.267 66.4577 109.23 66.9294C111.256 67.8662 113.213 68.9424 115.089 70.1501C115.983 70.7378 116.854 69.4919 116.195 68.5751C115.795 68.0579 115.442 67.5406 115.089 66.9999C114.736 66.4592 114.454 65.942 114.124 65.4249C113.485 64.4641 113.045 63.3849 112.83 62.2512" fill="#1CDBBC"/>
<path d="M300.155 59.8059C301.558 61.5306 302.381 63.6527 302.508 65.8712C302.526 66.0846 302.619 66.2846 302.772 66.4348C302.925 66.585 303.126 66.6754 303.34 66.6896C303.554 66.7039 303.766 66.6409 303.937 66.5123C304.108 66.3837 304.227 66.1979 304.273 65.9887L307.614 53.5056C307.656 53.3516 307.656 53.1895 307.616 53.0353C307.576 52.881 307.496 52.7399 307.384 52.6259C307.272 52.512 307.133 52.4292 306.979 52.3856C306.826 52.342 306.663 52.3391 306.508 52.3772L294.014 55.7154C293.812 55.7621 293.631 55.8759 293.502 56.0381C293.373 56.2004 293.303 56.4015 293.303 56.6088C293.303 56.8161 293.373 57.0173 293.502 57.1796C293.631 57.3418 293.812 57.4555 294.014 57.5021C296.228 57.6278 298.345 58.4508 300.061 59.853" fill="#1CDBBC"/>
<path d="M226.671 56.4209C228.074 58.1359 228.898 60.2509 229.024 62.4626C229.07 62.6646 229.184 62.8448 229.346 62.9739C229.509 63.1029 229.71 63.1732 229.918 63.1732C230.125 63.1732 230.326 63.1029 230.489 62.9739C230.651 62.8448 230.765 62.6646 230.812 62.4626L234.129 49.9795C234.173 49.8263 234.176 49.6641 234.136 49.5098C234.096 49.3554 234.015 49.2144 233.902 49.1017C233.789 48.9889 233.648 48.9085 233.494 48.8685C233.339 48.8286 233.177 48.8308 233.024 48.8747L220.529 52.2129C220.32 52.2472 220.129 52.3546 219.992 52.5161C219.855 52.6776 219.78 52.8826 219.78 53.0945C219.78 53.3064 219.855 53.5114 219.992 53.6729C220.129 53.8343 220.32 53.9418 220.529 53.976C222.75 54.1032 224.874 54.9257 226.6 56.3269" fill="#1CDBBC"/>
<path d="M267.093 54.1641C268.497 55.8879 269.32 58.0105 269.446 60.2293C269.478 60.4357 269.579 60.6251 269.733 60.7663C269.887 60.9074 270.085 60.9919 270.293 61.0056C270.502 61.0193 270.709 60.9615 270.88 60.8417C271.051 60.7219 271.176 60.5473 271.234 60.3469L274.576 47.8638C274.614 47.7089 274.611 47.5468 274.567 47.3934C274.524 47.24 274.441 47.1006 274.327 46.9891C274.213 46.8775 274.072 46.7976 273.917 46.7572C273.763 46.7168 273.601 46.7173 273.446 46.7588L260.952 50.0736C260.751 50.1338 260.577 50.261 260.459 50.4339C260.34 50.6068 260.284 50.8149 260.301 51.0237C260.317 51.2326 260.405 51.4294 260.549 51.5816C260.693 51.7338 260.885 51.8321 261.093 51.8601C263.307 51.9858 265.424 52.8088 267.14 54.211" fill="#1CDBBC"/>
<path d="M43.7492 38.4837C42.8796 39.2339 41.8728 39.8086 40.7844 40.1762C39.62 40.682 38.4158 41.0909 37.1842 41.3987C36.9436 41.4487 36.7287 41.5826 36.5779 41.7764C36.427 41.9702 36.35 42.2112 36.3607 42.4565C36.3477 42.671 36.4191 42.8823 36.5598 43.0448C36.7005 43.2074 36.8992 43.3084 37.1135 43.3265L38.7608 43.4909L40.4078 43.7261C41.5137 43.9141 42.5725 44.1258 43.6079 44.3609C44.6432 44.5959 45.6551 44.8545 46.6669 45.1836C47.6787 45.5127 48.6902 45.8889 49.655 46.2651C49.7835 46.3351 49.9307 46.3634 50.076 46.3461C50.2214 46.3289 50.3581 46.2669 50.4667 46.1688C50.5752 46.0706 50.6504 45.9411 50.6821 45.7983C50.7138 45.6555 50.7002 45.5065 50.6433 45.3717C50.1494 43.3215 49.7957 41.24 49.5846 39.1419C49.4716 38.0642 49.4165 36.9812 49.4197 35.8976C49.4197 34.8163 49.4197 33.7114 49.4197 32.6065C49.4197 31.5016 47.961 31.4075 47.4904 32.3949C47.2315 33.0061 46.9492 33.5468 46.6669 34.1345C46.4177 34.7071 46.1349 35.2645 45.8198 35.8037C45.2483 36.7952 44.5348 37.6981 43.7021 38.4837" fill="#1CDBBC"/>
<path d="M244.084 39.0009C245.486 40.7167 246.31 42.8313 246.437 45.0426C246.465 45.2502 246.564 45.4419 246.716 45.5859C246.868 45.7298 247.065 45.8173 247.274 45.8338C247.483 45.8503 247.692 45.7949 247.865 45.6766C248.038 45.5582 248.165 45.3843 248.225 45.1837L251.543 32.677C251.587 32.5238 251.589 32.3615 251.549 32.2071C251.509 32.0528 251.429 31.9119 251.316 31.7992C251.203 31.6865 251.062 31.606 250.907 31.566C250.753 31.5261 250.591 31.5283 250.437 31.5722L237.919 34.8869C237.71 34.9211 237.52 35.0286 237.382 35.1901C237.245 35.3515 237.17 35.5566 237.17 35.7684C237.17 35.9803 237.245 36.1853 237.382 36.3468C237.52 36.5083 237.71 36.6158 237.919 36.65C240.132 36.7773 242.249 37.6001 243.966 39.0009" fill="#1CDBBC"/>
<path d="M97.9124 37.5198C97.0168 36.8038 96.273 35.9167 95.7243 34.9103C95.0422 33.8377 94.4291 32.7227 93.8889 31.5721C93.788 31.3571 93.6231 31.1783 93.4167 31.0605C93.2103 30.9426 92.9726 30.8914 92.7359 30.9138C92.6276 30.9227 92.5223 30.9529 92.4257 31.0027C92.3291 31.0524 92.2432 31.1209 92.1732 31.204C92.1032 31.287 92.0505 31.3829 92.0178 31.4865C91.9852 31.59 91.9734 31.699 91.9831 31.8072C92.123 33.9991 92.123 36.1977 91.9831 38.3896C91.9831 39.424 91.8184 40.5053 91.6772 41.5867C91.536 42.6681 91.3475 43.679 91.1357 44.6663C91.1031 44.8013 91.1098 44.9429 91.155 45.0743C91.2002 45.2056 91.282 45.3213 91.3908 45.4077C91.4996 45.4942 91.6308 45.5478 91.7691 45.5623C91.9073 45.5767 92.0469 45.5514 92.1712 45.4892C96.1242 43.7634 100.311 42.6306 104.595 42.1275C105.654 42.01 105.513 40.4819 104.43 40.2233C102.059 39.7787 99.8015 38.859 97.7949 37.5198" fill="#1CDBBC"/>
<path d="M283.778 37.4961C285.181 39.2119 286.004 41.3265 286.131 43.5379C286.145 43.7525 286.235 43.9552 286.386 44.1086C286.537 44.2621 286.738 44.3561 286.953 44.3732C287.167 44.3904 287.381 44.3296 287.554 44.202C287.727 44.0745 287.849 43.8887 287.896 43.6789L291.238 31.1958C291.279 31.0418 291.28 30.8797 291.239 30.7255C291.199 30.5712 291.119 30.43 291.007 30.3161C290.896 30.2021 290.756 30.1194 290.603 30.0758C290.449 30.0321 290.287 30.0292 290.132 30.0674L277.614 33.4056C277.413 33.4659 277.239 33.593 277.12 33.7659C277.002 33.9388 276.947 34.1471 276.963 34.3559C276.98 34.5648 277.067 34.7616 277.211 34.9138C277.355 35.066 277.547 35.1643 277.755 35.1923C279.969 35.318 282.085 36.141 283.802 37.5432" fill="#1CDBBC"/>
<path d="M12.3111 37.0029C11.7249 37.9084 10.9844 38.7041 10.1229 39.3538C9.16183 40.1078 8.1473 40.7913 7.08747 41.399C6.1698 41.9397 6.54646 43.3737 7.55825 43.2091C9.77007 42.88 11.9113 42.6214 14.0526 42.4568C16.1938 42.2922 18.3349 42.2454 20.4291 42.2924C20.5792 42.3117 20.7316 42.2866 20.8677 42.2205C21.0038 42.1544 21.1177 42.05 21.1952 41.9202C21.2727 41.7903 21.3105 41.6406 21.304 41.4896C21.2975 41.3385 21.2468 41.1926 21.1584 41.0699C20.0054 39.2597 18.9702 37.4261 17.9819 35.5219C16.9936 33.6177 16.123 31.6194 15.2759 29.5741C14.8994 28.6338 13.4643 29.0335 13.4643 30.0914C13.6581 32.4245 13.2613 34.7688 12.3111 36.9088" fill="#1CDBBC"/>
<path d="M129.773 35.7564C128.787 33.6409 128.335 31.3164 128.455 28.9859C128.455 27.9045 127.02 27.5285 126.667 28.4923C125.867 30.5376 124.996 32.5593 124.078 34.487C123.161 36.4147 122.102 38.2954 121.043 40.0821C120.96 40.2054 120.912 40.3494 120.907 40.4981C120.901 40.6467 120.936 40.7942 121.01 40.9236C121.083 41.0531 121.191 41.1595 121.322 41.231C121.452 41.3024 121.6 41.336 121.749 41.328C122.808 41.328 123.867 41.328 124.949 41.328C126.031 41.328 127.067 41.328 128.126 41.328C129.185 41.328 130.314 41.3281 131.397 41.5632C132.479 41.7982 133.538 41.7982 134.644 41.9392C135.75 42.0803 136.008 40.6462 135.091 40.1055C132.984 39.1089 131.157 37.6067 129.773 35.7329" fill="#1CDBBC"/>
<path d="M70.6647 28.1633C69.5138 28.1832 68.3701 27.9754 67.2998 27.552C66.0967 27.1695 64.918 26.7141 63.7703 26.1885C63.5499 26.0839 63.3026 26.0504 63.0623 26.0925C62.822 26.1346 62.6008 26.2504 62.4292 26.4236C62.2783 26.5775 62.1937 26.7842 62.1937 26.9996C62.1937 27.215 62.2783 27.4217 62.4292 27.5756C63.974 29.1393 65.4124 30.8042 66.7351 32.5594L67.6764 33.8288L68.547 35.1923C69.1117 36.1092 69.653 37.0024 70.1471 37.9193C70.1984 38.0523 70.2886 38.1667 70.4062 38.2474C70.5238 38.3281 70.6634 38.3714 70.8061 38.3714C70.9487 38.3714 71.088 38.3281 71.2056 38.2474C71.3232 38.1667 71.4135 38.0523 71.4647 37.9193C72.4162 36.039 73.4932 34.2247 74.6883 32.4888C75.2857 31.5937 75.9299 30.7306 76.6179 29.9029C77.3003 29.0566 78.0295 28.2338 78.806 27.3874C79.5825 26.5411 78.4532 25.5302 77.4414 26.0239L75.7002 26.7997C75.133 27.08 74.5519 27.3311 73.959 27.552C73.4108 27.763 72.8435 27.9205 72.2649 28.0222C71.7256 28.1062 71.184 28.1766 70.6412 28.2337" fill="#1CDBBC"/>
<path d="M261.518 21.5809C262.921 23.2967 263.744 25.4111 263.871 27.6225C263.885 27.8371 263.975 28.0399 264.126 28.1934C264.277 28.3469 264.478 28.4407 264.693 28.4578C264.907 28.475 265.121 28.4142 265.294 28.2867C265.467 28.1591 265.589 27.9733 265.636 27.7635L268.978 15.257C269.022 15.1038 269.024 14.9415 268.984 14.7871C268.944 14.6327 268.863 14.4919 268.75 14.3792C268.638 14.2664 268.496 14.1858 268.342 14.1459C268.187 14.1059 268.025 14.1081 267.872 14.152L255.354 17.4902C255.144 17.5375 254.958 17.6588 254.83 17.832C254.702 18.0052 254.642 18.2187 254.659 18.4331C254.676 18.6475 254.77 18.8484 254.924 18.9991C255.077 19.1498 255.28 19.2401 255.495 19.2534C257.708 19.3807 259.825 20.2035 261.542 21.6043" fill="#1CDBBC"/>
<path d="M300.462 20.7819C301.864 22.4977 302.687 24.6123 302.815 26.8236C302.828 27.0383 302.918 27.241 303.069 27.3944C303.22 27.5479 303.421 27.6419 303.636 27.659C303.851 27.6762 304.064 27.6154 304.237 27.4878C304.411 27.3603 304.532 27.1745 304.579 26.9647L307.921 14.4581C307.965 14.3048 307.967 14.1425 307.927 13.9881C307.887 13.8338 307.806 13.693 307.693 13.5802C307.58 13.4675 307.44 13.387 307.285 13.347C307.131 13.3071 306.968 13.3093 306.815 13.3532L294.32 16.6914C294.111 16.7257 293.921 16.8331 293.783 16.9946C293.646 17.1561 293.571 17.3611 293.571 17.573C293.571 17.7849 293.646 17.9899 293.783 18.1514C293.921 18.3129 294.111 18.4203 294.32 18.4546C296.534 18.5818 298.65 19.4046 300.368 20.8054" fill="#1CDBBC"/>
<path d="M30.9697 15.8682C30.0617 16.505 29.0389 16.9601 27.9577 17.2082C26.7784 17.5287 25.574 17.7489 24.3576 17.8665C23.2752 17.8665 23.087 19.4651 24.0752 19.7002C28.2369 20.8039 32.2923 22.2751 36.1932 24.0963C36.3254 24.1638 36.4738 24.1934 36.6218 24.1815C36.7698 24.1696 36.9117 24.1168 37.0314 24.029C37.1511 23.9411 37.2438 23.8217 37.2994 23.6842C37.355 23.5466 37.3712 23.3962 37.3462 23.25C37.0274 21.1463 36.8153 19.0277 36.7108 16.9026C36.7108 14.7633 36.5461 12.5536 36.7108 10.3673C36.7108 9.35641 35.2757 9.14486 34.8522 10.1087C34.3856 11.2417 33.8266 12.3345 33.1813 13.3763C32.6414 14.3415 31.9135 15.1889 31.0403 15.8682" fill="#1CDBBC"/>
<path d="M110.667 15.0217C110.236 14.706 109.841 14.3434 109.49 13.9404C109.115 13.5093 108.77 13.0537 108.455 12.5769C108.119 12.0741 107.821 11.5477 107.561 11.0019C107.279 10.4612 106.996 9.92042 106.737 9.35622C106.29 8.39236 104.831 8.60393 104.902 9.63831C105.121 13.9374 104.972 18.2474 104.455 22.521C104.425 22.6677 104.439 22.8198 104.494 22.9589C104.549 23.0981 104.643 23.2184 104.765 23.3053C104.887 23.3923 105.031 23.4421 105.181 23.4489C105.33 23.4558 105.478 23.4194 105.608 23.3439C109.478 21.4276 113.509 19.8543 117.655 18.6422C118.643 18.3601 118.385 16.9025 117.326 16.8084C116.69 16.8084 116.102 16.6674 115.491 16.5734C114.888 16.5022 114.291 16.3922 113.702 16.2442C113.149 16.103 112.606 15.9223 112.079 15.7036C111.58 15.5098 111.106 15.2573 110.667 14.9513" fill="#1CDBBC"/>
<path d="M56.5946 4.13731C54.2754 4.39784 51.9274 4.0996 49.7473 3.2675C48.7355 2.96189 47.9121 4.1843 48.7356 4.84254C50.4533 6.22956 52.0768 7.61661 53.6298 9.14467C55.1828 10.6727 56.6416 12.1538 58.0299 13.8464C58.1204 13.9682 58.2448 14.0608 58.3875 14.1127C58.5301 14.1647 58.6847 14.1737 58.8324 14.1387C58.9801 14.1037 59.1144 14.0261 59.2185 13.9157C59.3225 13.8053 59.392 13.6667 59.4181 13.5172C59.9828 11.4955 60.6651 9.49739 61.4181 7.47565C62.171 5.4539 63.0654 3.50257 64.0302 1.48082C64.4772 0.563984 63.23 -0.211739 62.43 0.517029C61.9829 0.940185 61.5124 1.33986 61.0418 1.71599C60.5712 2.09213 60.0771 2.49171 59.5829 2.82083C58.6762 3.45513 57.6646 3.92473 56.5946 4.20791" fill="#1CDBBC"/>
<path d="M84.7859 3.83167C83.7024 3.59056 82.6782 3.13491 81.7739 2.49166C80.7464 1.78858 79.7784 1.00231 78.8798 0.140793C78.0798 -0.564467 76.8326 0.281851 77.3267 1.17518C78.315 3.10289 79.2327 5.12468 80.0327 7.09941C80.8475 9.06818 81.5622 11.0768 82.1741 13.1176C82.2148 13.2612 82.295 13.3906 82.4056 13.491C82.5161 13.5914 82.6524 13.6588 82.7994 13.6857C82.9463 13.7126 83.0978 13.6979 83.2368 13.6432C83.3758 13.5885 83.4967 13.496 83.5858 13.3762C86.3379 10.066 89.3859 7.01298 92.6919 4.25481C93.4684 3.59657 92.692 2.32716 91.6332 2.7033C90.4771 3.11511 89.2886 3.42971 88.0801 3.64371C86.9922 3.85431 85.8738 3.85431 84.7859 3.64371" fill="#1CDBBC"/>
</g>
<defs>
<clipPath id="clip0_1723_4383">
<rect width="320.879" height="320" fill="white" transform="translate(0.75824)"/>
</clipPath>
</defs>
</svg>
