<svg width="40" height="40" viewBox="0 0 40 40" fill="none" xmlns="http://www.w3.org/2000/svg">
<rect width="40" height="40" rx="20" fill="white" fill-opacity="0.5"/>
<path d="M16.4674 26.3472H12.8792" stroke="black" stroke-linecap="round" stroke-linejoin="round"/>
<path d="M12.8792 19.8941H23.7013" stroke="black" stroke-linecap="round" stroke-linejoin="round"/>
<path d="M24.3603 17.0437H17.2267" stroke="black" stroke-linecap="round" stroke-linejoin="round"/>
<path d="M20.0056 12.0301H12.8792" stroke="black" stroke-linecap="round" stroke-linejoin="round"/>
<path d="M21.567 8.4491H10V31.318H27.1822V10.5763H29.3881V33.5025H12.2131V31.3395" stroke="black" stroke-linecap="round" stroke-linejoin="round"/>
<path d="M21.4739 29.198C23.0482 29.198 24.3244 27.9218 24.3244 26.3474C24.3244 24.7731 23.0482 23.4969 21.4739 23.4969C19.8995 23.4969 18.6233 24.7731 18.6233 26.3474C18.6233 27.9218 19.8995 29.198 21.4739 29.198Z" stroke="black" stroke-linecap="round" stroke-linejoin="round"/>
<path d="M20.0844 26.6411L20.9223 27.4791L22.9779 25.5238" stroke="black" stroke-linecap="round" stroke-linejoin="round"/>
<path d="M22.9564 10.082V13.0041C22.9564 14.5225 25.0764 14.5225 25.0764 13.0041V9.01479" stroke="black" stroke-linecap="round" stroke-linejoin="round"/>
<path d="M25.0765 10.1608V8.9074C25.0765 6.52238 21.9681 6.37913 21.567 8.44901" stroke="black" stroke-linecap="round" stroke-linejoin="round"/>
</svg>
