<svg width="49" height="39" viewBox="0 0 49 39" fill="none" xmlns="http://www.w3.org/2000/svg">
<path d="M30.8809 28.2206H1.4375V10.1643H30.8776V28.2206" stroke="white" stroke-linecap="round" stroke-linejoin="round"/>
<path d="M19.494 20.3083C19.494 22.1568 18.0062 23.6446 16.1578 23.6446C14.3093 23.6446 12.8215 22.1568 12.8215 20.3083" stroke="white" stroke-linecap="round" stroke-linejoin="round"/>
<path d="M7.99731 10.1644V1.125H37.4374V19.1813H31.2834" stroke="white" stroke-linecap="round" stroke-linejoin="round"/>
<path d="M12.8215 20.3085V17.919C12.8215 16.0706 14.3093 14.5828 16.1578 14.5828C18.0062 14.5828 19.494 16.0706 19.494 17.919V20.7593" stroke="white" stroke-linecap="round" stroke-linejoin="round"/>
<rect x="23.0625" y="13.375" width="25" height="25" rx="12.5" fill="#063636"/>
<path d="M35.1179 33.0739C34.0573 33.0739 33.1127 32.8916 32.2841 32.527C31.4602 32.1577 30.8092 31.651 30.331 31.0071C29.8575 30.3584 29.6136 29.6103 29.5994 28.7628H32.696C32.715 29.1179 32.831 29.4304 33.044 29.7003C33.2618 29.9654 33.5507 30.1714 33.9105 30.3182C34.2704 30.465 34.6752 30.5384 35.125 30.5384C35.5938 30.5384 36.008 30.4555 36.3679 30.2898C36.7277 30.1241 37.0095 29.8944 37.2131 29.6009C37.4167 29.3073 37.5185 28.9687 37.5185 28.5852C37.5185 28.197 37.4096 27.8537 37.1918 27.5554C36.9787 27.2524 36.6709 27.0156 36.2685 26.8452C35.8707 26.6747 35.3973 26.5895 34.848 26.5895H33.4915V24.331H34.848C35.312 24.331 35.7216 24.2505 36.0767 24.0895C36.4366 23.9285 36.7159 23.706 36.9148 23.4219C37.1136 23.133 37.2131 22.7969 37.2131 22.4134C37.2131 22.0488 37.1255 21.7292 36.9503 21.4545C36.7798 21.1752 36.5384 20.9574 36.2259 20.8011C35.9181 20.6449 35.5582 20.5668 35.1463 20.5668C34.7296 20.5668 34.3485 20.6425 34.0028 20.794C33.6572 20.9408 33.3802 21.1515 33.1719 21.4261C32.9635 21.7008 32.8523 22.0227 32.8381 22.392H29.8906C29.9048 21.554 30.1439 20.8153 30.608 20.1761C31.072 19.5369 31.697 19.0374 32.483 18.6776C33.2737 18.313 34.1662 18.1307 35.1605 18.1307C36.1643 18.1307 37.0426 18.313 37.7955 18.6776C38.5483 19.0421 39.133 19.5346 39.5497 20.1548C39.9711 20.7704 40.1795 21.4616 40.1747 22.2287C40.1795 23.0431 39.9261 23.7225 39.4148 24.267C38.9081 24.8116 38.2476 25.1572 37.4332 25.304V25.4176C38.5033 25.5549 39.3177 25.9266 39.8764 26.5327C40.4399 27.134 40.7192 27.8868 40.7145 28.7912C40.7192 29.6198 40.4801 30.3561 39.9972 31C39.5189 31.6439 38.8584 32.1506 38.0156 32.5199C37.1728 32.8892 36.2069 33.0739 35.1179 33.0739Z" fill="#063636"/>
<path d="M32.2841 32.527L31.875 33.4395L31.8814 33.4423L32.2841 32.527ZM30.331 31.0071L29.5232 31.5967L29.5281 31.6033L30.331 31.0071ZM29.5994 28.7628V27.7628H28.5825L28.5996 28.7795L29.5994 28.7628ZM32.696 28.7628L33.6946 28.7095L33.6441 27.7628H32.696V28.7628ZM33.044 29.7003L32.2592 30.3199L32.2652 30.3275L32.2713 30.335L33.044 29.7003ZM33.9105 30.3182L33.5328 31.2441H33.5328L33.9105 30.3182ZM36.3679 30.2898L35.9496 29.3815L36.3679 30.2898ZM37.2131 29.6009L38.0348 30.1708V30.1708L37.2131 29.6009ZM37.1918 27.5554L36.3737 28.1306L36.3789 28.1379L36.3841 28.1451L37.1918 27.5554ZM36.2685 26.8452L35.8745 27.7643L35.8785 27.766L36.2685 26.8452ZM33.4915 26.5895H32.4915V27.5895H33.4915V26.5895ZM33.4915 24.331V23.331H32.4915V24.331H33.4915ZM36.0767 24.0895L35.6683 23.1767L35.6638 23.1787L36.0767 24.0895ZM36.9148 23.4219L37.734 23.9954L37.7384 23.989L36.9148 23.4219ZM36.9503 21.4545L36.0966 21.9754L36.1018 21.9839L36.1072 21.9924L36.9503 21.4545ZM36.2259 20.8011L35.7732 21.6928L35.7786 21.6956L36.2259 20.8011ZM34.0028 20.794L34.3937 21.7145L34.4043 21.7099L34.0028 20.794ZM33.1719 21.4261L33.9686 22.0305L33.9686 22.0305L33.1719 21.4261ZM32.8381 22.392V23.392H33.8003L33.8373 22.4305L32.8381 22.392ZM29.8906 22.392L28.8908 22.3751L28.8735 23.392H29.8906V22.392ZM30.608 20.1761L31.4172 20.7636L31.4172 20.7636L30.608 20.1761ZM32.483 18.6776L32.8992 19.5868L32.9017 19.5857L32.483 18.6776ZM37.7955 18.6776L38.2313 17.7775V17.7775L37.7955 18.6776ZM39.5497 20.1548L38.7196 20.7125L38.7246 20.7197L39.5497 20.1548ZM40.1747 22.2287L39.1747 22.2225L39.1747 22.2345L40.1747 22.2287ZM39.4148 24.267L38.6858 23.5825L38.6827 23.5859L39.4148 24.267ZM37.4332 25.304L37.2559 24.3198L36.4332 24.4681V25.304H37.4332ZM37.4332 25.4176H36.4332V26.2975L37.306 26.4095L37.4332 25.4176ZM39.8764 26.5327L39.1412 27.2105L39.1467 27.2164L39.8764 26.5327ZM40.7145 28.7912L39.7144 28.786L39.7145 28.7969L40.7145 28.7912ZM39.9972 31L39.1972 30.4L39.1943 30.4038L39.9972 31ZM38.0156 32.5199L37.6143 31.604L38.0156 32.5199ZM35.1179 32.0739C34.1724 32.0739 33.3686 31.9117 32.6868 31.6117L31.8814 33.4423C32.8568 33.8715 33.9422 34.0739 35.1179 34.0739V32.0739ZM32.6931 31.6145C32.0055 31.3062 31.4977 30.9009 31.1338 30.4109L29.5281 31.6033C30.1207 32.4012 30.915 33.0091 31.875 33.4395L32.6931 31.6145ZM31.1387 30.4175C30.7937 29.9449 30.6102 29.3995 30.5993 28.746L28.5996 28.7795C28.617 29.8211 28.9212 30.7719 29.5233 31.5967L31.1387 30.4175ZM29.5994 29.7628H32.696V27.7628H29.5994V29.7628ZM31.6974 28.816C31.727 29.37 31.9135 29.882 32.2592 30.3199L33.8289 29.0806C33.7485 28.9788 33.7029 28.8658 33.6946 28.7095L31.6974 28.816ZM32.2713 30.335C32.6079 30.7448 33.0398 31.043 33.5328 31.2441L34.2882 29.3922C34.0615 29.2998 33.9158 29.1861 33.8168 29.0655L32.2713 30.335ZM33.5328 31.2441C34.0299 31.4469 34.5658 31.5384 35.125 31.5384V29.5384C34.7845 29.5384 34.5108 29.483 34.2882 29.3922L33.5328 31.2441ZM35.125 31.5384C35.712 31.5384 36.2733 31.4343 36.7862 31.1981L35.9496 29.3815C35.7428 29.4767 35.4755 29.5384 35.125 29.5384V31.5384ZM36.7862 31.1981C37.2902 30.966 37.7185 30.6267 38.0348 30.1708L36.3914 29.031C36.3004 29.1621 36.1653 29.2821 35.9496 29.3815L36.7862 31.1981ZM38.0348 30.1708C38.3631 29.6973 38.5185 29.1567 38.5185 28.5852H36.5185C36.5185 28.7808 36.4702 28.9173 36.3914 29.031L38.0348 30.1708ZM38.5185 28.5852C38.5185 27.9965 38.3488 27.4443 37.9994 26.9657L36.3841 28.1451C36.4703 28.2631 36.5185 28.3974 36.5185 28.5852H38.5185ZM38.0098 26.9802C37.6711 26.4986 37.2017 26.1544 36.6585 25.9244L35.8785 27.766C36.1401 27.8768 36.2863 28.0062 36.3737 28.1306L38.0098 26.9802ZM36.6624 25.926C36.1115 25.6899 35.4976 25.5895 34.848 25.5895V27.5895C35.2969 27.5895 35.63 27.6595 35.8745 27.7643L36.6624 25.926ZM34.848 25.5895H33.4915V27.5895H34.848V25.5895ZM34.4915 26.5895V24.331H32.4915V26.5895H34.4915ZM33.4915 25.331H34.848V23.331H33.4915V25.331ZM34.848 25.331C35.4277 25.331 35.9825 25.2302 36.4896 25.0003L35.6638 23.1787C35.4607 23.2708 35.1963 23.331 34.848 23.331V25.331ZM36.4851 25.0023C36.987 24.7778 37.4178 24.447 37.734 23.9953L36.0955 22.8484C36.014 22.9649 35.8861 23.0792 35.6683 23.1767L36.4851 25.0023ZM37.7384 23.989C38.0629 23.5177 38.2131 22.9795 38.2131 22.4134H36.2131C36.2131 22.6142 36.1644 22.7484 36.0911 22.8548L37.7384 23.989ZM38.2131 22.4134C38.2131 21.8816 38.0829 21.3707 37.7933 20.9167L36.1072 21.9924C36.168 22.0876 36.2131 22.2159 36.2131 22.4134H38.2131ZM37.8039 20.9337C37.5291 20.4832 37.1416 20.141 36.6731 19.9067L35.7786 21.6956C35.9351 21.7738 36.0306 21.8672 36.0966 21.9754L37.8039 20.9337ZM36.6785 19.9095C36.2058 19.6695 35.6854 19.5668 35.1463 19.5668V21.5668C35.4311 21.5668 35.6303 21.6203 35.7732 21.6928L36.6785 19.9095ZM35.1463 19.5668C34.6059 19.5668 34.0862 19.6656 33.6014 19.8782L34.4043 21.7099C34.6108 21.6194 34.8534 21.5668 35.1463 21.5668V19.5668ZM33.612 19.8736C33.1206 20.0823 32.6982 20.3959 32.3752 20.8218L33.9686 22.0305C34.0622 21.9071 34.1938 21.7994 34.3937 21.7145L33.612 19.8736ZM32.3752 20.8217C32.0338 21.2718 31.8603 21.7949 31.8388 22.3536L33.8373 22.4305C33.8443 22.2505 33.8933 22.1297 33.9686 22.0305L32.3752 20.8217ZM32.8381 21.392H29.8906V23.392H32.8381V21.392ZM30.8905 22.409C30.9014 21.7629 31.0813 21.2263 31.4172 20.7636L29.7987 19.5887C29.2065 20.4044 28.9082 21.3451 28.8908 22.3751L30.8905 22.409ZM31.4172 20.7636C31.7707 20.2766 32.2546 19.8819 32.8992 19.5868L32.0667 17.7683C31.1394 18.1929 30.3732 18.7973 29.7987 19.5887L31.4172 20.7636ZM32.9017 19.5857C33.5437 19.2897 34.2903 19.1307 35.1605 19.1307V17.1307C34.0421 17.1307 33.0037 17.3363 32.0642 17.7694L32.9017 19.5857ZM35.1605 19.1307C36.0431 19.1307 36.7671 19.2907 37.3596 19.5776L38.2313 17.7775C37.3181 17.3353 36.2854 17.1307 35.1605 17.1307V19.1307ZM37.3596 19.5776C37.9725 19.8744 38.4131 20.2562 38.7196 20.7125L40.3798 19.5972C39.853 18.8129 39.1241 18.2099 38.2313 17.7775L37.3596 19.5776ZM38.7246 20.7197C39.0275 21.1622 39.1783 21.6531 39.1747 22.2225L41.1747 22.2349C41.1807 21.2702 40.9148 20.3786 40.3749 19.5899L38.7246 20.7197ZM39.1747 22.2345C39.1781 22.8178 39.0051 23.2425 38.6858 23.5825L40.1437 24.9516C40.8472 24.2026 41.1808 23.2683 41.1747 22.2229L39.1747 22.2345ZM38.6827 23.5859C38.3399 23.9543 37.8827 24.2069 37.2559 24.3198L37.6106 26.2881C38.6126 26.1075 39.4764 25.6688 40.1469 24.9482L38.6827 23.5859ZM36.4332 25.304V25.4176H38.4332V25.304H36.4332ZM37.306 26.4095C38.2158 26.5262 38.7855 26.8247 39.1412 27.2105L40.6117 25.8549C39.8499 25.0285 38.7908 24.5836 37.5605 24.4257L37.306 26.4095ZM39.1467 27.2164C39.5175 27.6122 39.718 28.1102 39.7145 28.786L41.7145 28.7964C41.7204 27.6635 41.3622 26.6558 40.6061 25.8489L39.1467 27.2164ZM39.7145 28.7969C39.718 29.4141 39.545 29.9362 39.1972 30.4L40.7972 31.6C41.4152 30.7759 41.7204 29.8255 41.7145 28.7855L39.7145 28.7969ZM39.1943 30.4038C38.8343 30.8886 38.3215 31.2941 37.6143 31.604L38.417 33.4358C39.3954 33.0071 40.2036 32.3993 40.8 31.5962L39.1943 30.4038ZM37.6143 31.604C36.919 31.9086 36.0937 32.0739 35.1179 32.0739V34.0739C36.3201 34.0739 37.4266 33.8698 38.417 33.4358L37.6143 31.604Z" fill="#1CDBBC"/>
<rect x="23.0625" y="13.375" width="25" height="25" rx="12.5" stroke="#1CDBBC"/>
</svg>
