<svg width="40" height="40" viewBox="0 0 40 40" fill="none" xmlns="http://www.w3.org/2000/svg">
<rect width="40" height="40" rx="20" fill="white" fill-opacity="0.5"/>
<path d="M19.5557 15.8559C18.0698 17.3419 17.3268 19.2921 17.3202 21.2358C17.3268 23.1794 18.0698 25.1296 19.5557 26.6156C22.5209 29.5807 27.3435 29.5874 30.3153 26.6156C33.2871 23.6437 33.2805 18.8211 30.3153 15.8559C27.3435 12.8841 22.5275 12.8841 19.5557 15.8559V15.8559Z" stroke="black" stroke-linecap="round" stroke-linejoin="round"/>
<path d="M19.4827 26.6818L16.2787 29.8858" stroke="black" stroke-linecap="round" stroke-linejoin="round"/>
<path d="M9.9967 20.9437H14.6203" stroke="black" stroke-linecap="round" stroke-linejoin="round"/>
<path d="M9.9967 18.2769H14.6203" stroke="black" stroke-linecap="round" stroke-linejoin="round"/>
<path d="M9.9967 15.6502H14.6203" stroke="black" stroke-linecap="round" stroke-linejoin="round"/>
<path d="M8.10608 12.9768H14.6202V7.20563" stroke="black" stroke-linecap="round" stroke-linejoin="round"/>
<path d="M28.5507 14.4362V7H14.2156L8 12.6186V32.8907L28.564 32.8708V28.0018" stroke="black" stroke-linecap="round" stroke-linejoin="round"/>
<path d="M23.9338 23.5572V21.5671" stroke="black" stroke-linecap="round" stroke-linejoin="round"/>
<path d="M27.9139 23.5575V20.8908" stroke="black" stroke-linecap="round" stroke-linejoin="round"/>
<path d="M21.9503 23.5572V19.5572" stroke="black" stroke-linecap="round" stroke-linejoin="round"/>
<path d="M25.9238 23.5575V18.9073" stroke="black" stroke-linecap="round" stroke-linejoin="round"/>
</svg>
