<svg width="56" height="56" viewBox="0 0 56 56" fill="none" xmlns="http://www.w3.org/2000/svg">
<path d="M27.3851 24.865C26.2651 25.985 25.7051 27.455 25.7001 28.92C25.7051 30.385 26.2651 31.855 27.3851 32.975C29.6201 35.21 33.2551 35.215 35.4951 32.975C37.7351 30.735 37.7301 27.1 35.4951 24.865C33.2551 22.625 29.6251 22.625 27.3851 24.865V24.865Z" stroke="#1CDBBC" stroke-linecap="round" stroke-linejoin="round"/>
<path d="M27.33 33.025L24.915 35.44" stroke="#1CDBBC" stroke-linecap="round" stroke-linejoin="round"/>
<path d="M20.1801 28.7H23.6651" stroke="#1CDBBC" stroke-linecap="round" stroke-linejoin="round"/>
<path d="M20.1801 26.69H23.6651" stroke="#1CDBBC" stroke-linecap="round" stroke-linejoin="round"/>
<path d="M20.1801 24.71H23.6651" stroke="#1CDBBC" stroke-linecap="round" stroke-linejoin="round"/>
<path d="M18.755 22.695H23.665V18.345" stroke="#1CDBBC" stroke-linecap="round" stroke-linejoin="round"/>
<path d="M34.165 23.795V18.19H23.36L18.675 22.425V37.705L34.175 37.69V34.02" stroke="#1CDBBC" stroke-linecap="round" stroke-linejoin="round"/>
<path d="M30.6851 30.67V29.17" stroke="#1CDBBC" stroke-linecap="round" stroke-linejoin="round"/>
<path d="M33.6851 30.67V28.66" stroke="#1CDBBC" stroke-linecap="round" stroke-linejoin="round"/>
<path d="M29.1901 30.67V27.655" stroke="#1CDBBC" stroke-linecap="round" stroke-linejoin="round"/>
<path d="M32.1851 30.67V27.165" stroke="#1CDBBC" stroke-linecap="round" stroke-linejoin="round"/>
<rect x="0.5" y="0.5" width="55" height="55" rx="27.5" stroke="#1CDBBC"/>
</svg>
