<svg width="320" height="278" viewBox="0 0 320 278" fill="none" xmlns="http://www.w3.org/2000/svg">
<g clip-path="url(#clip0_1723_4537)">
<path d="M160.012 274.535C162.327 274.535 164.851 275.974 167.005 277.669C167.931 278.389 169.182 277.321 168.603 276.299L160.938 263.022C160.521 262.303 159.502 262.303 159.085 263.022L151.421 276.299C150.818 277.321 152.092 278.412 153.018 277.669C155.172 275.974 157.696 274.535 160.012 274.535" fill="#1CDBBC"/>
<path d="M160.012 245.799C162.327 245.799 164.851 247.238 167.005 248.933C167.931 249.652 169.182 248.584 168.603 247.563L160.938 234.286C160.521 233.566 159.502 233.566 159.085 234.286L151.421 247.563C150.818 248.584 152.092 249.675 153.018 248.933C155.172 247.238 157.696 245.799 160.012 245.799" fill="#1CDBBC"/>
<path d="M160.012 217.062C162.327 217.062 164.851 218.502 167.005 220.196C167.931 220.916 169.182 219.848 168.603 218.827L160.938 205.549C160.521 204.83 159.502 204.83 159.085 205.549L151.421 218.827C150.818 219.848 152.092 220.939 153.018 220.196C155.172 218.502 157.696 217.062 160.012 217.062" fill="#1CDBBC"/>
<path d="M160.012 188.326C162.327 188.326 164.851 189.765 167.005 191.459C167.931 192.179 169.182 191.111 168.603 190.09L160.938 176.813C160.521 176.093 159.502 176.093 159.085 176.813L151.421 190.09C150.818 191.111 152.092 192.202 153.018 191.459C155.172 189.765 157.696 188.326 160.012 188.326" fill="#1CDBBC"/>
<path d="M160.012 159.612C162.327 159.612 164.851 161.052 167.005 162.746C167.931 163.466 169.182 162.398 168.603 161.377L160.938 148.099C160.521 147.38 159.502 147.38 159.085 148.099L151.421 161.377C150.818 162.398 152.092 163.489 153.018 162.746C155.172 161.052 157.696 159.612 160.012 159.612" fill="#1CDBBC"/>
<path d="M160.012 130.876C162.327 130.876 164.851 132.315 167.005 134.009C167.931 134.729 169.182 133.661 168.603 132.64L160.938 119.363C160.521 118.643 159.502 118.643 159.085 119.363L151.421 132.64C150.818 133.661 152.092 134.752 153.018 134.009C155.172 132.315 157.696 130.876 160.012 130.876" fill="#1CDBBC"/>
<path d="M160.012 102.139C162.327 102.139 164.851 103.578 167.005 105.273C167.931 105.993 169.182 104.925 168.603 103.903L160.938 90.6261C160.521 89.9065 159.502 89.9065 159.085 90.6261L151.421 103.903C150.818 104.925 152.092 106.016 153.018 105.273C155.172 103.578 157.696 102.139 160.012 102.139" fill="#1CDBBC"/>
<path d="M160.012 73.4259C162.327 73.4259 164.851 74.8651 167.005 76.5596C167.931 77.2791 169.182 76.2114 168.603 75.19L160.938 61.9127C160.521 61.1932 159.502 61.1932 159.085 61.9127L151.421 75.19C150.818 76.2114 152.092 77.3023 153.018 76.5596C155.172 74.8651 157.696 73.4259 160.012 73.4259" fill="#1CDBBC"/>
<path d="M311.27 112.886C313.586 112.886 316.11 114.326 318.263 116.02C319.19 116.74 320.44 115.672 319.861 114.65L312.196 101.373C311.779 100.654 310.761 100.654 310.344 101.373L302.679 114.65C302.077 115.672 303.35 116.763 304.277 116.02C306.43 114.326 308.954 112.886 311.27 112.886Z" fill="#1CDBBC"/>
<path d="M311.27 84.6139C313.586 84.6139 316.11 86.0531 318.263 87.7475C319.19 88.4671 320.44 87.3994 319.861 86.378L312.196 73.1007C311.779 72.3811 310.761 72.3811 310.344 73.1007L302.679 86.378C302.077 87.3994 303.35 88.4903 304.277 87.7475C306.43 86.0531 308.954 84.6139 311.27 84.6139Z" fill="#1CDBBC"/>
<path d="M311.27 56.3649C313.586 56.3649 316.11 57.804 318.263 59.4985C319.19 60.2181 320.44 59.1503 319.861 58.129L312.196 44.8517C311.779 44.1321 310.761 44.1321 310.344 44.8517L302.679 58.129C302.077 59.1503 303.35 60.2413 304.277 59.4985C306.43 57.804 308.954 56.3649 311.27 56.3649Z" fill="#1CDBBC"/>
<path d="M8.75319 112.886C11.0688 112.886 13.5929 114.326 15.7465 116.02C16.6727 116.74 17.9232 115.672 17.3443 114.65L9.67945 101.373C9.26263 100.654 8.24374 100.654 7.82693 101.373L0.162115 114.627C-0.439955 115.649 0.833654 116.74 1.75991 115.997C3.91347 114.302 6.43753 112.863 8.75319 112.863" fill="#1CDBBC"/>
<path d="M8.75319 84.6139C11.0688 84.6139 13.5929 86.0531 15.7465 87.7475C16.6727 88.4671 17.9232 87.3994 17.3443 86.378L9.67945 73.1007C9.26263 72.3811 8.24374 72.3811 7.82693 73.1007L0.162115 86.378C-0.439955 87.3994 0.833654 88.4903 1.75991 87.7475C3.91347 86.0531 6.43753 84.6139 8.75319 84.6139" fill="#1CDBBC"/>
<path d="M8.75319 56.3649C11.0688 56.3649 13.5929 57.804 15.7465 59.4985C16.6727 60.2181 17.9232 59.1503 17.3443 58.129L9.67945 44.8517C9.26263 44.1321 8.24374 44.1321 7.82693 44.8517L0.162115 58.1058C-0.439955 59.1271 0.833654 60.2181 1.75991 59.4753C3.91347 57.7808 6.43753 56.3417 8.75319 56.3417" fill="#1CDBBC"/>
<path d="M190.254 244.127C192.57 244.127 195.094 245.567 197.247 247.261C198.174 247.981 199.424 246.913 198.845 245.891L191.18 232.614C190.763 231.895 189.745 231.895 189.328 232.614L181.663 245.891C181.061 246.913 182.334 248.004 183.261 247.261C185.414 245.567 187.938 244.127 190.254 244.127" fill="#1CDBBC"/>
<path d="M190.254 215.414C192.57 215.414 195.094 216.853 197.247 218.548C198.174 219.267 199.424 218.2 198.845 217.178L191.18 203.901C190.763 203.181 189.745 203.181 189.328 203.901L181.663 217.178C181.061 218.2 182.334 219.291 183.261 218.548C185.414 216.853 187.938 215.414 190.254 215.414" fill="#1CDBBC"/>
<path d="M190.254 186.678C192.57 186.678 195.094 188.117 197.247 189.811C198.174 190.531 199.424 189.463 198.845 188.442L191.18 175.164C190.763 174.445 189.745 174.445 189.328 175.164L181.663 188.442C181.061 189.463 182.334 190.554 183.261 189.811C185.414 188.117 187.938 186.678 190.254 186.678" fill="#1CDBBC"/>
<path d="M190.254 157.941C192.57 157.941 195.094 159.38 197.247 161.075C198.174 161.794 199.424 160.727 198.845 159.705L191.18 146.428C190.763 145.708 189.745 145.708 189.328 146.428L181.663 159.705C181.061 160.727 182.334 161.817 183.261 161.075C185.414 159.38 187.938 157.941 190.254 157.941" fill="#1CDBBC"/>
<path d="M190.254 129.204C192.57 129.204 195.094 130.644 197.247 132.338C198.174 133.058 199.424 131.99 198.845 130.969L191.18 117.691C190.763 116.972 189.745 116.972 189.328 117.691L181.663 130.969C181.061 131.99 182.334 133.081 183.261 132.338C185.414 130.644 187.938 129.204 190.254 129.204" fill="#1CDBBC"/>
<path d="M190.254 100.491C192.57 100.491 195.094 101.93 197.247 103.625C198.174 104.344 199.424 103.277 198.845 102.255L191.18 88.9779C190.763 88.2583 189.745 88.2583 189.328 88.9779L181.663 102.255C181.061 103.277 182.334 104.368 183.261 103.625C185.414 101.93 187.938 100.491 190.254 100.491" fill="#1CDBBC"/>
<path d="M190.254 71.7545C192.57 71.7545 195.094 73.1937 197.247 74.8882C198.174 75.6077 199.424 74.54 198.845 73.5186L191.18 60.2413C190.763 59.5218 189.745 59.5218 189.328 60.2413L181.663 73.5186C181.061 74.54 182.334 75.631 183.261 74.8882C185.414 73.1937 187.938 71.7545 190.254 71.7545" fill="#1CDBBC"/>
<path d="M190.254 43.018C192.57 43.018 195.094 44.4571 197.247 46.1516C198.174 46.8712 199.424 45.8034 198.845 44.7821L191.18 31.5048C190.763 30.7852 189.745 30.7852 189.328 31.5048L181.663 44.7821C181.061 45.8034 182.334 46.8944 183.261 46.1516C185.414 44.4571 187.938 43.018 190.254 43.018" fill="#1CDBBC"/>
<path d="M129.746 244.127C132.062 244.127 134.586 245.567 136.739 247.261C137.666 247.981 138.916 246.913 138.337 245.891L130.672 232.614C130.255 231.895 129.237 231.895 128.82 232.614L121.155 245.891C120.553 246.913 121.826 248.004 122.753 247.261C124.906 245.567 127.43 244.127 129.746 244.127Z" fill="#1CDBBC"/>
<path d="M129.746 215.414C132.062 215.414 134.586 216.853 136.739 218.548C137.666 219.267 138.916 218.2 138.337 217.178L130.672 203.901C130.255 203.181 129.237 203.181 128.82 203.901L121.155 217.178C120.553 218.2 121.826 219.291 122.753 218.548C124.906 216.853 127.43 215.414 129.746 215.414Z" fill="#1CDBBC"/>
<path d="M129.746 186.678C132.062 186.678 134.586 188.117 136.739 189.811C137.666 190.531 138.916 189.463 138.337 188.442L130.672 175.164C130.255 174.445 129.237 174.445 128.82 175.164L121.155 188.442C120.553 189.463 121.826 190.554 122.753 189.811C124.906 188.117 127.43 186.678 129.746 186.678Z" fill="#1CDBBC"/>
<path d="M129.746 157.941C132.062 157.941 134.586 159.38 136.739 161.075C137.666 161.794 138.916 160.727 138.337 159.705L130.672 146.428C130.255 145.708 129.237 145.708 128.82 146.428L121.155 159.705C120.553 160.727 121.826 161.817 122.753 161.075C124.906 159.38 127.43 157.941 129.746 157.941Z" fill="#1CDBBC"/>
<path d="M129.746 129.204C132.062 129.204 134.586 130.644 136.739 132.338C137.666 133.058 138.916 131.99 138.337 130.969L130.672 117.691C130.255 116.972 129.237 116.972 128.82 117.691L121.155 130.969C120.553 131.99 121.826 133.081 122.753 132.338C124.906 130.644 127.43 129.204 129.746 129.204Z" fill="#1CDBBC"/>
<path d="M129.746 100.491C132.062 100.491 134.586 101.93 136.739 103.625C137.666 104.344 138.916 103.277 138.337 102.255L130.672 88.9779C130.255 88.2583 129.237 88.2583 128.82 88.9779L121.155 102.255C120.553 103.277 121.826 104.368 122.753 103.625C124.906 101.93 127.43 100.491 129.746 100.491Z" fill="#1CDBBC"/>
<path d="M129.746 71.7545C132.062 71.7545 134.586 73.1937 136.739 74.8882C137.666 75.6077 138.916 74.54 138.337 73.5186L130.672 60.2413C130.255 59.5218 129.237 59.5218 128.82 60.2413L121.155 73.5186C120.553 74.54 121.826 75.631 122.753 74.8882C124.906 73.1937 127.43 71.7545 129.746 71.7545" fill="#1CDBBC"/>
<path d="M129.746 43.018C132.062 43.018 134.586 44.4571 136.739 46.1516C137.666 46.8712 138.916 45.8034 138.337 44.7821L130.672 31.5048C130.255 30.7852 129.237 30.7852 128.82 31.5048L121.155 44.7821C120.553 45.8034 121.826 46.8944 122.753 46.1516C124.906 44.4571 127.43 43.018 129.746 43.018Z" fill="#1CDBBC"/>
<path d="M220.496 213.743C222.812 213.743 225.336 215.182 227.49 216.877C228.416 217.596 229.666 216.529 229.087 215.507L221.423 202.23C221.006 201.51 219.987 201.51 219.57 202.23L211.905 215.507C211.303 216.529 212.577 217.619 213.503 216.877C215.657 215.182 218.181 213.743 220.496 213.743" fill="#1CDBBC"/>
<path d="M220.496 185.007C222.812 185.007 225.336 186.446 227.49 188.14C228.416 188.86 229.666 187.792 229.087 186.771L221.423 173.493C221.006 172.774 219.987 172.774 219.57 173.493L211.905 186.771C211.303 187.792 212.577 188.883 213.503 188.14C215.657 186.446 218.181 185.007 220.496 185.007" fill="#1CDBBC"/>
<path d="M220.496 156.27C222.812 156.27 225.336 157.709 227.49 159.404C228.416 160.123 229.666 159.055 229.087 158.034L221.423 144.757C221.006 144.037 219.987 144.037 219.57 144.757L211.905 158.034C211.303 159.055 212.577 160.146 213.503 159.404C215.657 157.709 218.181 156.27 220.496 156.27" fill="#1CDBBC"/>
<path d="M220.496 127.557C222.812 127.557 225.336 128.996 227.49 130.69C228.416 131.41 229.666 130.342 229.087 129.321L221.423 116.043C221.006 115.324 219.987 115.324 219.57 116.043L211.905 129.321C211.303 130.342 212.577 131.433 213.503 130.69C215.657 128.996 218.181 127.557 220.496 127.557" fill="#1CDBBC"/>
<path d="M220.496 98.82C222.812 98.82 225.336 100.259 227.49 101.954C228.416 102.673 229.666 101.605 229.087 100.584L221.423 87.3068C221.006 86.5872 219.987 86.5872 219.57 87.3068L211.905 100.584C211.303 101.605 212.577 102.696 213.503 101.954C215.657 100.259 218.181 98.82 220.496 98.82" fill="#1CDBBC"/>
<path d="M220.496 70.0834C222.812 70.0834 225.336 71.5225 227.49 73.217C228.416 73.9366 229.666 72.8688 229.087 71.8475L221.423 58.5702C221.006 57.8506 219.987 57.8506 219.57 58.5702L211.905 71.8475C211.303 72.8688 212.577 73.9598 213.503 73.217C215.657 71.5225 218.181 70.0834 220.496 70.0834" fill="#1CDBBC"/>
<path d="M220.496 41.37C222.812 41.37 225.336 42.8092 227.49 44.5036C228.416 45.2232 229.666 44.1555 229.087 43.1341L221.423 29.8568C221.006 29.1372 219.987 29.1372 219.57 29.8568L211.905 43.1341C211.303 44.1555 212.577 45.2464 213.503 44.5036C215.657 42.8092 218.181 41.37 220.496 41.37" fill="#1CDBBC"/>
<path d="M220.496 12.6334C222.812 12.6334 225.336 14.0726 227.49 15.7671C228.416 16.4866 229.666 15.4189 229.087 14.3976L221.423 1.12025C221.006 0.400673 219.987 0.400673 219.57 1.12025L211.905 14.3976C211.303 15.4189 212.577 16.5099 213.503 15.7671C215.657 14.0726 218.181 12.6334 220.496 12.6334" fill="#1CDBBC"/>
<path d="M99.5036 213.743C101.819 213.743 104.343 215.182 106.497 216.877C107.423 217.596 108.674 216.529 108.095 215.507L100.43 202.23C100.013 201.51 98.9941 201.51 98.5773 202.23L90.9125 215.507C90.3104 216.529 91.584 217.619 92.5103 216.877C94.6638 215.182 97.1879 213.743 99.5036 213.743Z" fill="#1CDBBC"/>
<path d="M99.5036 185.007C101.819 185.007 104.343 186.446 106.497 188.14C107.423 188.86 108.674 187.792 108.095 186.771L100.43 173.493C100.013 172.774 98.9941 172.774 98.5773 173.493L90.9125 186.771C90.3104 187.792 91.584 188.883 92.5103 188.14C94.6638 186.446 97.1879 185.007 99.5036 185.007Z" fill="#1CDBBC"/>
<path d="M99.5036 156.27C101.819 156.27 104.343 157.709 106.497 159.404C107.423 160.123 108.674 159.055 108.095 158.034L100.43 144.757C100.013 144.037 98.9941 144.037 98.5773 144.757L90.9125 158.034C90.3104 159.055 91.584 160.146 92.5103 159.404C94.6638 157.709 97.1879 156.27 99.5036 156.27Z" fill="#1CDBBC"/>
<path d="M99.5036 127.557C101.819 127.557 104.343 128.996 106.497 130.69C107.423 131.41 108.674 130.342 108.095 129.321L100.43 116.043C100.013 115.324 98.9941 115.324 98.5773 116.043L90.9125 129.321C90.3104 130.342 91.584 131.433 92.5103 130.69C94.6638 128.996 97.1879 127.557 99.5036 127.557Z" fill="#1CDBBC"/>
<path d="M99.5036 98.82C101.819 98.82 104.343 100.259 106.497 101.954C107.423 102.673 108.674 101.605 108.095 100.584L100.43 87.3068C100.013 86.5872 98.9941 86.5872 98.5773 87.3068L90.9125 100.584C90.3104 101.605 91.584 102.696 92.5103 101.954C94.6638 100.259 97.1879 98.82 99.5036 98.82Z" fill="#1CDBBC"/>
<path d="M99.5036 70.0834C101.819 70.0834 104.343 71.5225 106.497 73.217C107.423 73.9366 108.674 72.8688 108.095 71.8475L100.43 58.5702C100.013 57.8506 98.9941 57.8506 98.5773 58.5702L90.9125 71.8475C90.3104 72.8688 91.584 73.9598 92.5103 73.217C94.6638 71.5225 97.1879 70.0834 99.5036 70.0834Z" fill="#1CDBBC"/>
<path d="M99.5036 41.37C101.819 41.37 104.343 42.8092 106.497 44.5036C107.423 45.2232 108.674 44.1555 108.095 43.1341L100.43 29.8568C100.013 29.1372 98.9941 29.1372 98.5773 29.8568L90.9125 43.1341C90.3104 44.1555 91.584 45.2464 92.5103 44.5036C94.6638 42.8092 97.1879 41.37 99.5036 41.37Z" fill="#1CDBBC"/>
<path d="M99.5036 12.6334C101.819 12.6334 104.343 14.0726 106.497 15.7671C107.423 16.4866 108.674 15.4189 108.095 14.3976L100.43 1.12025C100.013 0.400673 98.9941 0.400673 98.5773 1.12025L90.9125 14.3976C90.3104 15.4189 91.584 16.5099 92.5103 15.7671C94.6638 14.0726 97.1879 12.6334 99.5036 12.6334Z" fill="#1CDBBC"/>
<path d="M250.762 183.544C253.078 183.544 255.602 184.983 257.755 186.677C258.682 187.397 259.932 186.329 259.353 185.308L251.688 172.031C251.271 171.311 250.253 171.311 249.836 172.031L242.171 185.308C241.569 186.329 242.842 187.42 243.769 186.677C245.922 184.983 248.446 183.544 250.762 183.544" fill="#1CDBBC"/>
<path d="M250.762 155.039C253.078 155.039 255.602 156.479 257.755 158.173C258.682 158.893 259.932 157.825 259.353 156.804L251.688 143.526C251.271 142.807 250.253 142.807 249.836 143.526L242.171 156.804C241.569 157.825 242.842 158.916 243.769 158.173C245.922 156.479 248.446 155.039 250.762 155.039" fill="#1CDBBC"/>
<path d="M250.762 126.512C253.078 126.512 255.602 127.951 257.755 129.645C258.682 130.365 259.932 129.297 259.353 128.276L251.688 114.999C251.271 114.279 250.253 114.279 249.836 114.999L242.171 128.276C241.569 129.297 242.842 130.388 243.769 129.645C245.922 127.951 248.446 126.512 250.762 126.512" fill="#1CDBBC"/>
<path d="M250.762 97.9843C253.078 97.9843 255.602 99.4234 257.755 101.118C258.682 101.837 259.932 100.77 259.353 99.7484L251.688 86.4711C251.271 85.7515 250.253 85.7515 249.836 86.4711L242.171 99.7484C241.569 100.77 242.842 101.861 243.769 101.118C245.922 99.4234 248.446 97.9843 250.762 97.9843" fill="#1CDBBC"/>
<path d="M250.762 69.4564C253.078 69.4564 255.602 70.8956 257.755 72.5901C258.682 73.3096 259.932 72.2419 259.353 71.2206L251.688 57.9432C251.271 57.2237 250.253 57.2237 249.836 57.9432L242.171 71.2206C241.569 72.2419 242.842 73.3329 243.769 72.5901C245.922 70.8956 248.446 69.4564 250.762 69.4564" fill="#1CDBBC"/>
<path d="M250.762 40.952C253.078 40.952 255.602 42.3912 257.755 44.0857C258.682 44.8053 259.932 43.7375 259.353 42.7162L251.688 29.4389C251.271 28.7193 250.253 28.7193 249.836 29.4389L242.171 42.7162C241.569 43.7375 242.842 44.8285 243.769 44.0857C245.922 42.3912 248.446 40.952 250.762 40.952" fill="#1CDBBC"/>
<path d="M250.762 12.4245C253.078 12.4245 255.602 13.8636 257.755 15.5581C258.682 16.2777 259.932 15.2099 259.353 14.1886L251.688 0.911263C251.271 0.191688 250.253 0.191688 249.836 0.911263L242.171 14.1886C241.569 15.2099 242.842 16.3009 243.769 15.5581C245.922 13.8636 248.446 12.4245 250.762 12.4245" fill="#1CDBBC"/>
<path d="M69.238 183.544C71.5536 183.544 74.0777 184.983 76.2312 186.677C77.1575 187.397 78.408 186.329 77.8291 185.308L70.1642 172.031C69.7474 171.311 68.7285 171.311 68.3117 172.031L60.6469 185.308C60.0448 186.329 61.3185 187.42 62.2447 186.677C64.3983 184.983 66.9223 183.544 69.238 183.544" fill="#1CDBBC"/>
<path d="M69.238 155.039C71.5536 155.039 74.0777 156.479 76.2312 158.173C77.1575 158.893 78.408 157.825 77.8291 156.804L70.1642 143.526C69.7474 142.807 68.7285 142.807 68.3117 143.526L60.6469 156.804C60.0448 157.825 61.3185 158.916 62.2447 158.173C64.3983 156.479 66.9223 155.039 69.238 155.039" fill="#1CDBBC"/>
<path d="M69.238 126.512C71.5536 126.512 74.0777 127.951 76.2312 129.645C77.1575 130.365 78.408 129.297 77.8291 128.276L70.1642 114.999C69.7474 114.279 68.7285 114.279 68.3117 114.999L60.6469 128.276C60.0448 129.297 61.3185 130.388 62.2447 129.645C64.3983 127.951 66.9223 126.512 69.238 126.512" fill="#1CDBBC"/>
<path d="M69.238 97.9843C71.5536 97.9843 74.0777 99.4234 76.2312 101.118C77.1575 101.837 78.408 100.77 77.8291 99.7484L70.1642 86.4711C69.7474 85.7515 68.7285 85.7515 68.3117 86.4711L60.6469 99.7484C60.0448 100.77 61.3185 101.861 62.2447 101.118C64.3983 99.4234 66.9223 97.9843 69.238 97.9843" fill="#1CDBBC"/>
<path d="M69.238 69.4564C71.5536 69.4564 74.0777 70.8956 76.2312 72.5901C77.1575 73.3096 78.408 72.2419 77.8291 71.2206L70.1642 57.9432C69.7474 57.2237 68.7285 57.2237 68.3117 57.9432L60.6469 71.2206C60.0448 72.2419 61.3185 73.3329 62.2447 72.5901C64.3983 70.8956 66.9223 69.4564 69.238 69.4564" fill="#1CDBBC"/>
<path d="M69.238 40.952C71.5536 40.952 74.0777 42.3912 76.2312 44.0857C77.1575 44.8053 78.408 43.7375 77.8291 42.7162L70.1642 29.4389C69.7474 28.7193 68.7285 28.7193 68.3117 29.4389L60.6469 42.7162C60.0448 43.7375 61.3185 44.8285 62.2447 44.0857C64.3983 42.3912 66.9223 40.952 69.238 40.952" fill="#1CDBBC"/>
<path d="M69.238 12.4245C71.5536 12.4245 74.0777 13.8636 76.2312 15.5581C77.1575 16.2777 78.408 15.2099 77.8291 14.1886L70.1642 0.911263C69.7474 0.191688 68.7285 0.191688 68.3117 0.911263L60.6469 14.1886C60.0448 15.2099 61.3185 16.3009 62.2447 15.5581C64.3983 13.8636 66.9223 12.4245 69.238 12.4245" fill="#1CDBBC"/>
<path d="M281.004 153.438C283.32 153.438 285.844 154.877 287.998 156.572C288.924 157.291 290.174 156.223 289.595 155.202L281.931 141.925C281.514 141.205 280.495 141.205 280.078 141.925L272.413 155.202C271.811 156.223 273.085 157.314 274.011 156.572C276.165 154.877 278.689 153.438 281.004 153.438" fill="#1CDBBC"/>
<path d="M281.004 125.165C283.32 125.165 285.844 126.605 287.998 128.299C288.924 129.019 290.174 127.951 289.595 126.93L281.931 113.652C281.514 112.933 280.495 112.933 280.078 113.652L272.413 126.93C271.811 127.951 273.085 129.042 274.011 128.299C276.165 126.605 278.689 125.165 281.004 125.165" fill="#1CDBBC"/>
<path d="M281.004 96.9164C283.32 96.9164 285.844 98.3556 287.998 100.05C288.924 100.77 290.174 99.7019 289.595 98.6805L281.931 85.4032C281.514 84.6836 280.495 84.6836 280.078 85.4032L272.413 98.6805C271.811 99.7019 273.085 100.793 274.011 100.05C276.165 98.3556 278.689 96.9164 281.004 96.9164" fill="#1CDBBC"/>
<path d="M281.004 68.6674C283.32 68.6674 285.844 70.1065 287.998 71.801C288.924 72.5206 290.174 71.4528 289.595 70.4315L281.931 57.1542C281.514 56.4346 280.495 56.4346 280.078 57.1542L272.413 70.4315C271.811 71.4528 273.085 72.5438 274.011 71.801C276.165 70.1065 278.689 68.6674 281.004 68.6674" fill="#1CDBBC"/>
<path d="M281.004 40.4181C283.32 40.4181 285.844 41.8573 287.998 43.5517C288.924 44.2713 290.174 43.2036 289.595 42.1822L281.931 28.9049C281.514 28.1853 280.495 28.1853 280.078 28.9049L272.413 42.1822C271.811 43.2036 273.085 44.2945 274.011 43.5517C276.165 41.8573 278.689 40.4181 281.004 40.4181" fill="#1CDBBC"/>
<path d="M281.004 12.1459C283.32 12.1459 285.844 13.585 287.998 15.2795C288.924 15.9991 290.174 14.9313 289.595 13.91L281.931 0.632699C281.514 -0.0868761 280.495 -0.0868761 280.078 0.632699L272.413 13.91C271.811 14.9313 273.085 16.0223 274.011 15.2795C276.165 13.585 278.689 12.1459 281.004 12.1459" fill="#1CDBBC"/>
<path d="M38.9956 153.438C41.3113 153.438 43.8353 154.877 45.9889 156.572C46.9151 157.291 48.1656 156.223 47.5867 155.202L39.9219 141.925C39.5051 141.205 38.4862 141.205 38.0694 141.925L30.4045 155.202C29.8025 156.223 31.0761 157.314 32.0023 156.572C34.1559 154.877 36.68 153.438 38.9956 153.438Z" fill="#1CDBBC"/>
<path d="M38.9956 125.165C41.3113 125.165 43.8353 126.605 45.9889 128.299C46.9151 129.019 48.1656 127.951 47.5867 126.93L39.9219 113.652C39.5051 112.933 38.4862 112.933 38.0694 113.652L30.4045 126.93C29.8025 127.951 31.0761 129.042 32.0023 128.299C34.1559 126.605 36.68 125.165 38.9956 125.165Z" fill="#1CDBBC"/>
<path d="M38.9956 96.9164C41.3113 96.9164 43.8353 98.3556 45.9889 100.05C46.9151 100.77 48.1656 99.7019 47.5867 98.6805L39.9219 85.4032C39.5051 84.6836 38.4862 84.6836 38.0694 85.4032L30.4045 98.6805C29.8025 99.7019 31.0761 100.793 32.0023 100.05C34.1559 98.3556 36.68 96.9164 38.9956 96.9164Z" fill="#1CDBBC"/>
<path d="M38.9956 68.6674C41.3113 68.6674 43.8353 70.1065 45.9889 71.801C46.9151 72.5206 48.1656 71.4528 47.5867 70.4315L39.9219 57.1542C39.5051 56.4346 38.4862 56.4346 38.0694 57.1542L30.4045 70.4315C29.8025 71.4528 31.0761 72.5438 32.0023 71.801C34.1559 70.1065 36.68 68.6674 38.9956 68.6674Z" fill="#1CDBBC"/>
<path d="M38.9956 40.4181C41.3113 40.4181 43.8353 41.8573 45.9889 43.5517C46.9151 44.2713 48.1656 43.2036 47.5867 42.1822L39.9219 28.9049C39.5051 28.1853 38.4862 28.1853 38.0694 28.9049L30.4045 42.1822C29.8025 43.2036 31.0761 44.2945 32.0023 43.5517C34.1559 41.8573 36.68 40.4181 38.9956 40.4181Z" fill="#1CDBBC"/>
<path d="M38.9956 12.1459C41.3113 12.1459 43.8353 13.585 45.9889 15.2795C46.9151 15.9991 48.1656 14.9313 47.5867 13.91L39.9219 0.632699C39.5051 -0.0868761 38.4862 -0.0868761 38.0694 0.632699L30.4045 13.91C29.8025 14.9313 31.0761 16.0223 32.0023 15.2795C34.1559 13.585 36.68 12.1459 38.9956 12.1459" fill="#1CDBBC"/>
</g>
<defs>
<clipPath id="clip0_1723_4537">
<rect width="320" height="277.802" fill="white" transform="translate(0 0.098877)"/>
</clipPath>
</defs>
</svg>
