<svg width="227" height="320" viewBox="0 0 227 320" fill="none" xmlns="http://www.w3.org/2000/svg">
<g clip-path="url(#clip0_1723_4118)">
<path d="M109.009 311.791C109.009 313.722 107.526 315.84 105.752 317.655C104.996 318.423 106.13 319.493 107.206 318.981L121.049 312.559C121.805 312.21 121.805 311.349 121.049 311L107.206 304.577C106.13 304.089 104.996 305.136 105.752 305.904C107.526 307.719 109.009 309.813 109.009 311.768" fill="#1CDBBC"/>
<path d="M94.4102 286.427C94.4102 288.358 92.9271 290.476 91.1531 292.291C90.397 293.059 91.5311 294.129 92.6072 293.617L106.45 287.195C107.206 286.846 107.206 285.985 106.45 285.636L92.6072 279.213C91.5311 278.725 90.397 279.772 91.1531 280.54C92.9271 282.355 94.4102 284.449 94.4102 286.404" fill="#1CDBBC"/>
<path d="M123.637 286.427C123.637 288.358 122.154 290.476 120.38 292.291C119.624 293.059 120.758 294.129 121.834 293.617L135.677 287.195C136.433 286.846 136.433 285.985 135.677 285.636L121.834 279.213C120.758 278.725 119.624 279.772 120.38 280.54C122.154 282.355 123.637 284.449 123.637 286.404" fill="#1CDBBC"/>
<path d="M79.7823 261.063C79.7823 262.994 78.2991 265.112 76.5252 266.927C75.769 267.695 76.9032 268.765 77.9792 268.253L91.822 261.831C92.5781 261.482 92.5781 260.621 91.822 260.272L77.9792 253.849C76.9032 253.361 75.769 254.408 76.5252 255.176C78.2991 256.991 79.7823 259.085 79.7823 261.04" fill="#1CDBBC"/>
<path d="M109.009 261.063C109.009 262.994 107.526 265.112 105.752 266.927C104.996 267.695 106.13 268.765 107.206 268.253L121.049 261.831C121.805 261.482 121.805 260.621 121.049 260.272L107.206 253.849C106.13 253.361 104.996 254.408 105.752 255.176C107.526 256.991 109.009 259.085 109.009 261.04" fill="#1CDBBC"/>
<path d="M138.236 261.063C138.236 262.994 136.753 265.112 134.979 266.927C134.223 267.695 135.357 268.765 136.433 268.253L150.276 261.831C151.032 261.482 151.032 260.621 150.276 260.272L136.433 253.849C135.357 253.361 134.223 254.408 134.979 255.176C136.753 256.991 138.236 259.085 138.236 261.04" fill="#1CDBBC"/>
<path d="M61.9553 235.676C61.9553 237.607 60.4721 239.725 58.6981 241.54C57.942 242.308 59.0762 243.378 60.1522 242.866L73.995 236.444C74.7511 236.095 74.7511 235.234 73.995 234.885L60.1522 228.462C59.0762 227.973 57.942 229.021 58.6981 229.788C60.4721 231.604 61.9553 233.698 61.9553 235.652" fill="#1CDBBC"/>
<path d="M93.3342 235.676C93.3342 237.607 91.851 239.725 90.077 241.54C89.3209 242.308 90.4551 243.378 91.5311 242.866L105.374 236.444C106.13 236.095 106.13 235.234 105.374 234.885L91.5311 228.462C90.4551 227.973 89.3209 229.021 90.077 229.788C91.851 231.604 93.3342 233.698 93.3342 235.652" fill="#1CDBBC"/>
<path d="M124.713 235.676C124.713 237.607 123.23 239.725 121.456 241.54C120.7 242.308 121.834 243.378 122.91 242.866L136.753 236.444C137.509 236.095 137.509 235.234 136.753 234.885L122.91 228.462C121.834 227.973 120.7 229.021 121.456 229.788C123.23 231.604 124.713 233.698 124.713 235.652" fill="#1CDBBC"/>
<path d="M156.092 235.676C156.092 237.607 154.609 239.725 152.835 241.54C152.079 242.308 153.213 243.378 154.289 242.866L168.132 236.444C168.888 236.095 168.888 235.234 168.132 234.885L154.289 228.462C153.213 227.973 152.079 229.021 152.835 229.788C154.609 231.604 156.092 233.698 156.092 235.652" fill="#1CDBBC"/>
<path d="M35.3167 210.312C35.3167 212.243 33.8336 214.361 32.0596 216.176C31.3035 216.944 32.4376 218.014 33.5137 217.502L47.3564 211.08C48.1126 210.731 48.1126 209.87 47.3564 209.521L33.5137 203.098C32.4376 202.609 31.3035 203.657 32.0596 204.424C33.8336 206.24 35.3167 208.334 35.3167 210.288" fill="#1CDBBC"/>
<path d="M64.8054 210.312C64.8054 212.243 63.3222 214.361 61.5482 216.176C60.7921 216.944 61.9263 218.014 63.0023 217.502L76.8451 211.08C77.6012 210.731 77.6012 209.87 76.8451 209.521L63.0023 203.098C61.9263 202.609 60.7921 203.657 61.5482 204.424C63.3222 206.24 64.8054 208.334 64.8054 210.288" fill="#1CDBBC"/>
<path d="M94.294 210.312C94.294 212.243 92.8108 214.361 91.0369 216.176C90.2808 216.944 91.4149 218.014 92.491 217.502L106.334 211.08C107.09 210.731 107.09 209.87 106.334 209.521L92.491 203.098C91.4149 202.609 90.2808 203.657 91.0369 204.424C92.8108 206.24 94.294 208.334 94.294 210.288" fill="#1CDBBC"/>
<path d="M123.753 210.312C123.753 212.243 122.27 214.361 120.496 216.176C119.74 216.944 120.874 218.014 121.95 217.502L135.793 211.08C136.549 210.731 136.549 209.87 135.793 209.521L121.95 203.098C120.874 202.609 119.74 203.657 120.496 204.424C122.27 206.24 123.753 208.334 123.753 210.288" fill="#1CDBBC"/>
<path d="M153.242 210.312C153.242 212.243 151.759 214.361 149.985 216.176C149.229 216.944 150.363 218.014 151.439 217.502L165.282 211.08C166.038 210.731 166.038 209.87 165.282 209.521L151.439 203.098C150.363 202.609 149.229 203.657 149.985 204.424C151.759 206.24 153.242 208.334 153.242 210.288" fill="#1CDBBC"/>
<path d="M182.731 210.312C182.731 212.243 181.248 214.361 179.474 216.176C178.718 216.944 179.852 218.014 180.928 217.502L194.77 211.08C195.527 210.731 195.527 209.87 194.77 209.521L180.928 203.098C179.852 202.609 178.718 203.657 179.474 204.424C181.248 206.24 182.731 208.334 182.731 210.288" fill="#1CDBBC"/>
<path d="M19.5836 184.925C19.5836 186.856 18.1004 188.973 16.3264 190.788C15.5703 191.556 16.7045 192.627 17.7805 192.115L31.6233 185.692C32.3794 185.343 32.3794 184.482 31.6233 184.133L17.7805 177.711C16.7045 177.222 15.5703 178.269 16.3264 179.037C18.1004 180.852 19.5836 182.947 19.5836 184.901" fill="#1CDBBC"/>
<path d="M49.392 184.925C49.392 186.856 47.9089 188.973 46.1349 190.788C45.3788 191.556 46.513 192.627 47.589 192.115L61.4318 185.692C62.1879 185.343 62.1879 184.482 61.4318 184.133L47.589 177.711C46.513 177.222 45.3788 178.269 46.1349 179.037C47.9089 180.852 49.392 182.947 49.392 184.901" fill="#1CDBBC"/>
<path d="M79.2006 184.925C79.2006 186.856 77.7175 188.973 75.9435 190.788C75.1874 191.556 76.3216 192.627 77.3976 192.115L91.2403 185.692C91.9965 185.343 91.9965 184.482 91.2403 184.133L77.3976 177.711C76.3216 177.222 75.1874 178.269 75.9435 179.037C77.7175 180.852 79.2006 182.947 79.2006 184.901" fill="#1CDBBC"/>
<path d="M109.009 184.925C109.009 186.856 107.526 188.973 105.752 190.788C104.996 191.556 106.13 192.627 107.206 192.115L121.049 185.692C121.805 185.343 121.805 184.482 121.049 184.133L107.206 177.711C106.13 177.222 104.996 178.269 105.752 179.037C107.526 180.852 109.009 182.947 109.009 184.901" fill="#1CDBBC"/>
<path d="M138.847 184.925C138.847 186.856 137.364 188.973 135.59 190.788C134.833 191.556 135.968 192.627 137.044 192.115L150.886 185.692C151.643 185.343 151.643 184.482 150.886 184.133L137.044 177.711C135.968 177.222 134.833 178.269 135.59 179.037C137.364 180.852 138.847 182.947 138.847 184.901" fill="#1CDBBC"/>
<path d="M168.655 184.925C168.655 186.856 167.172 188.973 165.398 190.788C164.642 191.556 165.776 192.627 166.852 192.115L180.695 185.692C181.451 185.343 181.451 184.482 180.695 184.133L166.852 177.711C165.776 177.222 164.642 178.269 165.398 179.037C167.172 180.852 168.655 182.947 168.655 184.901" fill="#1CDBBC"/>
<path d="M198.464 184.925C198.464 186.856 196.981 188.973 195.207 190.788C194.451 191.556 195.585 192.627 196.661 192.115L210.504 185.692C211.26 185.343 211.26 184.482 210.504 184.133L196.661 177.711C195.585 177.222 194.451 178.269 195.207 179.037C196.981 180.852 198.464 182.947 198.464 184.901" fill="#1CDBBC"/>
<path d="M4.11248 159.56C4.11248 161.492 2.62933 163.609 0.855357 165.424C0.099239 166.192 1.23342 167.263 2.30943 166.751L16.1522 160.328C16.9083 159.979 16.9083 159.118 16.1522 158.769L2.30943 152.347C1.23342 151.858 0.099239 152.905 0.855357 153.673C2.62933 155.488 4.11248 157.583 4.11248 159.537" fill="#1CDBBC"/>
<path d="M34.0662 159.56C34.0662 161.492 32.5831 163.609 30.8091 165.424C30.053 166.192 31.1872 167.263 32.2632 166.751L46.106 160.328C46.8621 159.979 46.8621 159.118 46.106 158.769L32.2632 152.347C31.1872 151.858 30.053 152.905 30.8091 153.673C32.5831 155.488 34.0662 157.583 34.0662 159.537" fill="#1CDBBC"/>
<path d="M64.0492 159.56C64.0492 161.492 62.5661 163.609 60.7921 165.424C60.036 166.192 61.1702 167.263 62.2462 166.751L76.089 160.328C76.8451 159.979 76.8451 159.118 76.089 158.769L62.2462 152.347C61.1702 151.858 60.036 152.905 60.7921 153.673C62.5661 155.488 64.0492 157.583 64.0492 159.537" fill="#1CDBBC"/>
<path d="M153.969 159.56C153.969 161.492 152.486 163.609 150.712 165.424C149.956 166.192 151.09 167.263 152.166 166.751L166.009 160.328C166.765 159.979 166.765 159.118 166.009 158.769L152.166 152.347C151.09 151.858 149.956 152.905 150.712 153.673C152.486 155.488 153.969 157.583 153.969 159.537" fill="#1CDBBC"/>
<path d="M183.952 159.56C183.952 161.492 182.469 163.609 180.695 165.424C179.939 166.192 181.073 167.263 182.149 166.751L195.992 160.328C196.748 159.979 196.748 159.118 195.992 158.769L182.149 152.347C181.073 151.858 179.939 152.905 180.695 153.673C182.469 155.488 183.952 157.583 183.952 159.537" fill="#1CDBBC"/>
<path d="M213.935 159.56C213.935 161.492 212.452 163.609 210.678 165.424C209.922 166.192 211.056 167.263 212.132 166.751L225.975 160.328C226.731 159.979 226.731 159.118 225.975 158.769L212.132 152.347C211.056 151.858 209.922 152.905 210.678 153.673C212.452 155.488 213.935 157.583 213.935 159.537" fill="#1CDBBC"/>
<path d="M4.11248 134.173C4.11248 136.105 2.62933 138.222 0.855357 140.037C0.099239 140.805 1.23342 141.876 2.30943 141.364L16.1522 134.941C16.9083 134.592 16.9083 133.731 16.1522 133.382L2.30943 126.96C1.23342 126.471 0.099239 127.518 0.855357 128.286C2.62933 130.101 4.11248 132.195 4.11248 134.15" fill="#1CDBBC"/>
<path d="M34.0953 134.173C34.0953 136.105 32.6121 138.222 30.8381 140.037C30.082 140.805 31.2162 141.876 32.2922 141.364L46.135 134.941C46.8911 134.592 46.8911 133.731 46.135 133.382L32.2922 126.96C31.2162 126.471 30.082 127.518 30.8381 128.286C32.6121 130.101 34.0953 132.195 34.0953 134.15" fill="#1CDBBC"/>
<path d="M183.952 134.173C183.952 136.105 182.469 138.222 180.695 140.037C179.939 140.805 181.073 141.876 182.149 141.364L195.992 134.941C196.748 134.592 196.748 133.731 195.992 133.382L182.149 126.96C181.073 126.471 179.939 127.518 180.695 128.286C182.469 130.101 183.952 132.195 183.952 134.15" fill="#1CDBBC"/>
<path d="M213.935 134.173C213.935 136.105 212.452 138.222 210.678 140.037C209.922 140.805 211.056 141.876 212.132 141.364L225.975 134.941C226.731 134.592 226.731 133.731 225.975 133.382L212.132 126.96C211.056 126.471 209.922 127.518 210.678 128.286C212.452 130.101 213.935 132.195 213.935 134.15" fill="#1CDBBC"/>
<path d="M4.11248 108.809C4.11248 110.741 2.62933 112.858 0.855357 114.673C0.099239 115.441 1.23342 116.512 2.30943 116L16.1522 109.577C16.9083 109.228 16.9083 108.367 16.1522 108.018L2.30943 101.596C1.23342 101.107 0.099239 102.154 0.855357 102.922C2.62933 104.737 4.11248 106.831 4.11248 108.786" fill="#1CDBBC"/>
<path d="M34.0953 108.809C34.0953 110.741 32.6121 112.858 30.8381 114.673C30.082 115.441 31.2162 116.512 32.2922 116L46.135 109.577C46.8911 109.228 46.8911 108.367 46.135 108.018L32.2922 101.596C31.2162 101.107 30.082 102.154 30.8381 102.922C32.6121 104.737 34.0953 106.831 34.0953 108.786" fill="#1CDBBC"/>
<path d="M183.952 108.809C183.952 110.741 182.469 112.858 180.695 114.673C179.939 115.441 181.073 116.512 182.149 116L195.992 109.577C196.748 109.228 196.748 108.367 195.992 108.018L182.149 101.596C181.073 101.107 179.939 102.154 180.695 102.922C182.469 104.737 183.952 106.831 183.952 108.786" fill="#1CDBBC"/>
<path d="M213.935 108.809C213.935 110.741 212.452 112.858 210.678 114.673C209.922 115.441 211.056 116.512 212.132 116L225.975 109.577C226.731 109.228 226.731 108.367 225.975 108.018L212.132 101.596C211.056 101.107 209.922 102.154 210.678 102.922C212.452 104.737 213.935 106.831 213.935 108.786" fill="#1CDBBC"/>
<path d="M4.11248 83.4453C4.11248 85.3766 2.62933 87.4942 0.855357 89.3092C0.099239 90.0771 1.23342 91.1475 2.30943 90.6356L16.1522 84.2132C16.9083 83.8641 16.9083 83.0031 16.1522 82.6541L2.30943 76.2316C1.23342 75.743 0.099239 76.7901 0.855357 77.558C2.62933 79.3731 4.11248 81.4673 4.11248 83.422" fill="#1CDBBC"/>
<path d="M34.0662 83.4453C34.0662 85.3766 32.5831 87.4942 30.8091 89.3092C30.053 90.0771 31.1872 91.1475 32.2632 90.6356L46.106 84.2132C46.8621 83.8641 46.8621 83.0031 46.106 82.6541L32.2632 76.2316C31.1872 75.743 30.053 76.7901 30.8091 77.558C32.5831 79.3731 34.0662 81.4673 34.0662 83.422" fill="#1CDBBC"/>
<path d="M64.0492 83.4453C64.0492 85.3766 62.5661 87.4942 60.7921 89.3092C60.036 90.0771 61.1702 91.1475 62.2462 90.6356L76.089 84.2132C76.8451 83.8641 76.8451 83.0031 76.089 82.6541L62.2462 76.2316C61.1702 75.743 60.036 76.7901 60.7921 77.558C62.5661 79.3731 64.0492 81.4673 64.0492 83.422" fill="#1CDBBC"/>
<path d="M153.969 83.4453C153.969 85.3766 152.486 87.4942 150.712 89.3092C149.956 90.0771 151.09 91.1475 152.166 90.6356L166.009 84.2132C166.765 83.8641 166.765 83.0031 166.009 82.6541L152.166 76.2316C151.09 75.743 149.956 76.7901 150.712 77.558C152.486 79.3731 153.969 81.4673 153.969 83.422" fill="#1CDBBC"/>
<path d="M183.952 83.4453C183.952 85.3766 182.469 87.4942 180.695 89.3092C179.939 90.0771 181.073 91.1475 182.149 90.6356L195.992 84.2132C196.748 83.8641 196.748 83.0031 195.992 82.6541L182.149 76.2316C181.073 75.743 179.939 76.7901 180.695 77.558C182.469 79.3731 183.952 81.4673 183.952 83.422" fill="#1CDBBC"/>
<path d="M213.935 83.4453C213.935 85.3766 212.452 87.4942 210.678 89.3092C209.922 90.0771 211.056 91.1475 212.132 90.6356L225.975 84.2132C226.731 83.8641 226.731 83.0031 225.975 82.6541L212.132 76.2316C211.056 75.743 209.922 76.7901 210.678 77.558C212.452 79.3731 213.935 81.4673 213.935 83.422" fill="#1CDBBC"/>
<path d="M21.4157 58.0581C21.4157 59.9894 19.9326 62.107 18.1586 63.922C17.4025 64.6899 18.5366 65.7603 19.6127 65.2484L33.4554 58.826C34.2116 58.4769 34.2116 57.6159 33.4554 57.2669L19.6127 50.8444C18.5366 50.3558 17.4025 51.4029 18.1586 52.1708C19.9326 53.9859 21.4157 56.0801 21.4157 58.0348" fill="#1CDBBC"/>
<path d="M50.6135 58.0581C50.6135 59.9894 49.1303 62.107 47.3563 63.922C46.6002 64.6899 47.7344 65.7603 48.8104 65.2484L62.6532 58.826C63.4093 58.4769 63.4093 57.6159 62.6532 57.2669L48.8104 50.8444C47.7344 50.3558 46.6002 51.4029 47.3563 52.1708C49.1303 53.9859 50.6135 56.0801 50.6135 58.0348" fill="#1CDBBC"/>
<path d="M79.8113 58.0581C79.8113 59.9894 78.3282 62.107 76.5542 63.922C75.7981 64.6899 76.9323 65.7603 78.0083 65.2484L91.8511 58.826C92.6072 58.4769 92.6072 57.6159 91.8511 57.2669L78.0083 50.8444C76.9323 50.3558 75.7981 51.4029 76.5542 52.1708C78.3282 53.9859 79.8113 56.0801 79.8113 58.0348" fill="#1CDBBC"/>
<path d="M109.009 58.0581C109.009 59.9894 107.526 62.107 105.752 63.922C104.996 64.6899 106.13 65.7603 107.206 65.2484L121.049 58.826C121.805 58.4769 121.805 57.6159 121.049 57.2669L107.206 50.8444C106.13 50.3558 104.996 51.4029 105.752 52.1708C107.526 53.9859 109.009 56.0801 109.009 58.0348" fill="#1CDBBC"/>
<path d="M138.207 58.0581C138.207 59.9894 136.724 62.107 134.95 63.922C134.194 64.6899 135.328 65.7603 136.404 65.2484L150.247 58.826C151.003 58.4769 151.003 57.6159 150.247 57.2669L136.404 50.8444C135.328 50.3558 134.194 51.4029 134.95 52.1708C136.724 53.9859 138.207 56.0801 138.207 58.0348" fill="#1CDBBC"/>
<path d="M167.405 58.0581C167.405 59.9894 165.922 62.107 164.148 63.922C163.391 64.6899 164.526 65.7603 165.602 65.2484L179.444 58.826C180.201 58.4769 180.201 57.6159 179.444 57.2669L165.602 50.8444C164.526 50.3558 163.391 51.4029 164.148 52.1708C165.922 53.9859 167.405 56.0801 167.405 58.0348" fill="#1CDBBC"/>
<path d="M196.603 58.0581C196.603 59.9894 195.119 62.107 193.345 63.922C192.589 64.6899 193.724 65.7603 194.8 65.2484L208.642 58.826C209.398 58.4769 209.398 57.6159 208.642 57.2669L194.8 50.8444C193.724 50.3558 192.589 51.4029 193.345 52.1708C195.119 53.9859 196.603 56.0801 196.603 58.0348" fill="#1CDBBC"/>
<path d="M47.6473 32.694C47.6473 34.6254 46.1641 36.743 44.3901 38.558C43.634 39.3259 44.7682 40.3963 45.8442 39.8844L59.687 33.4619C60.4431 33.1129 60.4431 32.2519 59.687 31.9029L45.8442 25.4804C44.7682 24.9918 43.634 26.0389 44.3901 26.8068C46.1641 28.6218 47.6473 30.7161 47.6473 32.6708" fill="#1CDBBC"/>
<path d="M170.371 32.694C170.371 34.6254 168.888 36.743 167.114 38.558C166.358 39.3259 167.492 40.3963 168.568 39.8844L182.411 33.4619C183.167 33.1129 183.167 32.2519 182.411 31.9029L168.568 25.4804C167.492 24.9918 166.358 26.0389 167.114 26.8068C168.888 28.6218 170.371 30.7161 170.371 32.6708" fill="#1CDBBC"/>
<path d="M78.3283 32.694C78.3283 34.6254 76.8451 36.743 75.0712 38.558C74.3151 39.3259 75.4492 40.3963 76.5253 39.8844L90.368 33.4619C91.1242 33.1129 91.1242 32.2519 90.368 31.9029L76.5253 25.4804C75.4492 24.9918 74.3151 26.0389 75.0712 26.8068C76.8451 28.6218 78.3283 30.7161 78.3283 32.6708" fill="#1CDBBC"/>
<path d="M109.009 32.694C109.009 34.6254 107.526 36.743 105.752 38.558C104.996 39.3259 106.13 40.3963 107.206 39.8844L121.049 33.4619C121.805 33.1129 121.805 32.2519 121.049 31.9029L107.206 25.4804C106.13 24.9918 104.996 26.0389 105.752 26.8068C107.526 28.6218 109.009 30.7161 109.009 32.6708" fill="#1CDBBC"/>
<path d="M139.69 32.694C139.69 34.6254 138.207 36.743 136.433 38.558C135.677 39.3259 136.811 40.3963 137.887 39.8844L151.73 33.4619C152.486 33.1129 152.486 32.2519 151.73 31.9029L137.887 25.4804C136.811 24.9918 135.677 26.0389 136.433 26.8068C138.207 28.6218 139.69 30.7161 139.69 32.6708" fill="#1CDBBC"/>
<path d="M78.3282 7.30675C78.3282 9.23814 76.845 11.3557 75.0711 13.1707C74.3149 13.9386 75.4491 15.009 76.5251 14.4971L90.3679 8.07465C91.124 7.72561 91.124 6.86463 90.3679 6.51558L76.5251 0.116413C75.4491 -0.372251 74.3149 0.674886 75.0711 1.44279C76.845 3.25782 78.3282 5.3521 78.3282 7.30675Z" fill="#1CDBBC"/>
<path d="M109.009 7.30675C109.009 9.23814 107.526 11.3557 105.752 13.1707C104.996 13.9386 106.13 15.009 107.206 14.4971L121.049 8.07465C121.805 7.72561 121.805 6.86463 121.049 6.51558L107.206 0.116413C106.13 -0.372251 104.996 0.674886 105.752 1.44279C107.526 3.25782 109.009 5.3521 109.009 7.30675" fill="#1CDBBC"/>
<path d="M139.69 7.30675C139.69 9.23814 138.207 11.3557 136.433 13.1707C135.677 13.9386 136.811 15.009 137.887 14.4971L151.73 8.07465C152.486 7.72561 152.486 6.86463 151.73 6.51558L137.887 0.116413C136.811 -0.372251 135.677 0.674886 136.433 1.44279C138.207 3.25782 139.69 5.3521 139.69 7.30675Z" fill="#1CDBBC"/>
</g>
<defs>
<clipPath id="clip0_1723_4118">
<rect width="225.934" height="319.121" fill="white" transform="translate(0.593384)"/>
</clipPath>
</defs>
</svg>
