<svg width="320" height="320" viewBox="0 0 320 320" fill="none" xmlns="http://www.w3.org/2000/svg">
<path d="M276.39 311.828C278.049 310.177 280.859 309.412 283.636 309.066C283.888 309.039 284.121 308.924 284.297 308.743C284.472 308.561 284.578 308.323 284.597 308.071C284.615 307.819 284.544 307.569 284.396 307.364C284.249 307.158 284.034 307.012 283.789 306.949L268.895 302.979C268.712 302.931 268.519 302.931 268.337 302.98C268.154 303.029 267.987 303.125 267.854 303.259C267.72 303.393 267.624 303.559 267.575 303.742C267.526 303.925 267.525 304.117 267.574 304.3L271.543 319.194C271.606 319.439 271.753 319.654 271.958 319.802C272.164 319.949 272.414 320.02 272.666 320.002C272.918 319.983 273.156 319.877 273.338 319.702C273.519 319.526 273.634 319.293 273.661 319.041C273.999 316.288 274.772 313.486 276.422 311.795" fill="#1CDBBC"/>
<path d="M294.109 294.115C295.759 292.456 298.569 291.7 301.355 291.353C301.606 291.326 301.84 291.212 302.015 291.03C302.191 290.848 302.297 290.611 302.315 290.358C302.333 290.106 302.262 289.856 302.115 289.651C301.967 289.446 301.752 289.299 301.508 289.236L286.613 285.259C286.43 285.211 286.238 285.211 286.055 285.261C285.872 285.31 285.706 285.406 285.571 285.539C285.437 285.673 285.34 285.839 285.29 286.021C285.239 286.203 285.238 286.396 285.284 286.579L289.262 301.482C289.325 301.726 289.472 301.941 289.677 302.089C289.882 302.236 290.132 302.307 290.384 302.289C290.636 302.271 290.874 302.165 291.056 301.989C291.238 301.814 291.352 301.58 291.379 301.329C291.709 298.575 292.49 295.765 294.141 294.083" fill="#1CDBBC"/>
<path d="M254.255 289.695C255.914 288.045 258.715 287.28 261.501 286.934C261.752 286.906 261.986 286.792 262.162 286.61C262.337 286.428 262.443 286.191 262.461 285.939C262.48 285.687 262.409 285.436 262.261 285.231C262.114 285.026 261.899 284.879 261.654 284.816L246.759 280.839C246.576 280.79 246.382 280.791 246.199 280.84C246.015 280.89 245.848 280.987 245.713 281.121C245.579 281.256 245.482 281.423 245.432 281.606C245.383 281.79 245.382 281.983 245.431 282.167L249.408 297.062C249.471 297.307 249.618 297.522 249.823 297.669C250.028 297.817 250.279 297.887 250.531 297.869C250.783 297.851 251.02 297.745 251.202 297.569C251.384 297.394 251.499 297.16 251.526 296.909C251.864 294.155 252.637 291.354 254.287 289.663" fill="#1CDBBC"/>
<path d="M311.831 276.394C313.441 274.744 316.292 273.979 319.037 273.633C319.288 273.605 319.522 273.491 319.697 273.309C319.873 273.127 319.979 272.89 319.997 272.638C320.015 272.386 319.945 272.135 319.797 271.93C319.65 271.725 319.435 271.578 319.19 271.515L304.295 267.538C304.112 267.488 303.918 267.488 303.735 267.538C303.551 267.587 303.384 267.684 303.25 267.819C303.116 267.954 303.02 268.122 302.971 268.306C302.923 268.49 302.924 268.683 302.975 268.866L306.944 283.761C307.007 284.006 307.154 284.221 307.359 284.368C307.564 284.516 307.815 284.586 308.067 284.568C308.319 284.55 308.556 284.444 308.738 284.268C308.92 284.093 309.034 283.859 309.062 283.608C309.4 280.854 310.173 278.053 311.831 276.362" fill="#1CDBBC"/>
<path d="M271.977 271.982C273.587 270.324 276.437 269.567 279.182 269.213C279.434 269.187 279.669 269.073 279.845 268.892C280.022 268.711 280.129 268.473 280.148 268.221C280.167 267.969 280.097 267.718 279.95 267.512C279.803 267.306 279.588 267.159 279.343 267.095L264.441 263.126C264.258 263.077 264.065 263.077 263.883 263.126C263.7 263.175 263.534 263.272 263.4 263.405C263.266 263.539 263.17 263.706 263.121 263.888C263.072 264.071 263.071 264.263 263.12 264.446L267.097 279.341C267.164 279.581 267.312 279.79 267.516 279.933C267.72 280.077 267.966 280.145 268.215 280.127C268.463 280.109 268.698 280.006 268.879 279.835C269.059 279.663 269.175 279.435 269.207 279.188C269.545 276.442 270.318 273.633 271.977 271.982" fill="#1CDBBC"/>
<path d="M232.124 267.562C233.734 265.903 236.584 265.146 239.37 264.8C239.621 264.773 239.855 264.659 240.03 264.477C240.206 264.295 240.312 264.057 240.33 263.805C240.348 263.553 240.277 263.303 240.13 263.098C239.982 262.893 239.767 262.746 239.523 262.683L224.628 258.705C224.445 258.657 224.253 258.658 224.07 258.707C223.887 258.757 223.721 258.853 223.587 258.986C223.452 259.119 223.355 259.285 223.305 259.468C223.255 259.65 223.253 259.842 223.3 260.026L227.277 274.929C227.34 275.173 227.487 275.388 227.692 275.536C227.897 275.683 228.147 275.754 228.399 275.736C228.651 275.718 228.889 275.611 229.071 275.436C229.253 275.261 229.367 275.027 229.394 274.776C229.724 272.022 230.497 269.212 232.156 267.529" fill="#1CDBBC"/>
<path d="M134.261 265.767C136.603 265.767 139.091 267.208 141.313 268.915C141.512 269.067 141.757 269.146 142.007 269.139C142.257 269.131 142.497 269.038 142.686 268.874C142.875 268.711 143.002 268.487 143.046 268.24C143.089 267.994 143.046 267.74 142.924 267.522L135.195 254.181C135.1 254.017 134.964 253.881 134.8 253.786C134.636 253.692 134.45 253.642 134.261 253.642C134.071 253.642 133.885 253.692 133.721 253.786C133.558 253.881 133.421 254.017 133.327 254.181L125.606 267.522C125.472 267.74 125.42 267.998 125.459 268.251C125.498 268.504 125.626 268.734 125.82 268.902C126.013 269.069 126.26 269.162 126.515 269.164C126.771 269.167 127.019 269.078 127.216 268.915C129.398 267.208 131.926 265.767 134.269 265.767" fill="#1CDBBC"/>
<path d="M134.292 265.34C136.627 265.34 139.123 266.781 141.345 268.488C141.541 268.648 141.788 268.733 142.041 268.73C142.294 268.726 142.538 268.634 142.729 268.469C142.921 268.304 143.049 268.077 143.09 267.827C143.132 267.577 143.084 267.321 142.955 267.103L135.234 253.754C135.139 253.591 135.003 253.454 134.839 253.36C134.675 253.265 134.49 253.216 134.3 253.216C134.111 253.216 133.925 253.265 133.761 253.36C133.597 253.454 133.461 253.591 133.366 253.754L125.637 267.103C125.509 267.321 125.461 267.577 125.502 267.827C125.543 268.077 125.671 268.304 125.863 268.469C126.055 268.634 126.299 268.726 126.552 268.73C126.805 268.733 127.051 268.648 127.247 268.488C129.429 266.781 131.957 265.34 134.3 265.34" fill="#1CDBBC"/>
<path d="M161.644 262.248C163.93 261.757 166.708 262.643 169.196 263.859C169.421 263.971 169.678 264.001 169.923 263.944C170.168 263.886 170.386 263.745 170.537 263.544C170.689 263.344 170.766 263.097 170.755 262.845C170.744 262.594 170.645 262.354 170.476 262.168L160.146 250.719C160.02 250.578 159.858 250.474 159.678 250.415C159.498 250.356 159.306 250.346 159.121 250.385C158.936 250.424 158.764 250.511 158.623 250.638C158.483 250.764 158.378 250.926 158.319 251.106L153.52 265.767C153.44 266.006 153.447 266.266 153.539 266.501C153.631 266.736 153.803 266.931 154.024 267.053C154.245 267.175 154.502 267.215 154.75 267.167C154.998 267.118 155.221 266.985 155.38 266.789C157.159 264.664 159.333 262.764 161.628 262.248" fill="#1CDBBC"/>
<path d="M107.066 262.248C104.779 261.757 102.001 262.643 99.5136 263.859C99.2884 263.971 99.0311 264.001 98.7861 263.944C98.5411 263.886 98.3239 263.745 98.1721 263.544C98.0202 263.344 97.9431 263.097 97.9544 262.845C97.9656 262.594 98.0643 262.354 98.2335 262.168L108.563 250.719C108.69 250.578 108.851 250.474 109.031 250.415C109.211 250.356 109.403 250.346 109.588 250.385C109.774 250.424 109.945 250.511 110.086 250.638C110.227 250.764 110.332 250.926 110.391 251.106L115.173 265.767C115.253 266.006 115.246 266.266 115.154 266.501C115.062 266.736 114.891 266.931 114.669 267.053C114.448 267.175 114.191 267.215 113.944 267.167C113.696 267.118 113.473 266.985 113.313 266.789C111.534 264.664 109.352 262.764 107.066 262.248" fill="#1CDBBC"/>
<path d="M289.689 254.262C291.348 252.611 294.15 251.846 296.935 251.5C297.187 251.473 297.42 251.358 297.596 251.177C297.771 250.995 297.877 250.757 297.896 250.505C297.914 250.253 297.843 250.003 297.695 249.797C297.548 249.592 297.333 249.445 297.088 249.383L282.194 245.405C282.01 245.356 281.817 245.356 281.633 245.405C281.449 245.455 281.282 245.552 281.148 245.686C281.014 245.821 280.918 245.989 280.87 246.173C280.822 246.357 280.823 246.55 280.873 246.734L284.842 261.628C284.905 261.873 285.052 262.088 285.257 262.235C285.463 262.383 285.713 262.454 285.965 262.436C286.217 262.417 286.455 262.311 286.637 262.136C286.818 261.96 286.933 261.727 286.96 261.475C287.298 258.722 288.071 255.912 289.722 254.229" fill="#1CDBBC"/>
<path d="M81.2518 253.932C79.1102 252.982 76.2118 253.263 73.5307 253.932C73.2858 253.998 73.0254 253.976 72.7952 253.869C72.5651 253.762 72.3799 253.578 72.2723 253.348C72.1646 253.118 72.1414 252.858 72.2066 252.613C72.2718 252.368 72.4214 252.153 72.629 252.007L85.0841 242.966C85.2404 242.853 85.424 242.785 85.6157 242.767C85.8075 242.75 86.0005 242.784 86.1747 242.866C86.3489 242.948 86.4979 243.075 86.6063 243.234C86.7146 243.394 86.7784 243.579 86.791 243.771L88.4012 259.068C88.422 259.317 88.3569 259.565 88.2166 259.771C88.0764 259.977 87.8695 260.128 87.6308 260.2C87.3921 260.272 87.136 260.259 86.9054 260.165C86.6749 260.07 86.4838 259.899 86.3643 259.68C85.0681 257.265 83.337 254.89 81.2035 253.94" fill="#1CDBBC"/>
<path d="M187.457 253.932C189.59 252.981 192.489 253.263 195.178 253.932C195.423 253.998 195.683 253.975 195.913 253.869C196.143 253.762 196.329 253.578 196.436 253.348C196.544 253.118 196.567 252.858 196.502 252.613C196.437 252.367 196.287 252.153 196.08 252.007L183.6 242.958C183.443 242.846 183.259 242.778 183.067 242.76C182.875 242.743 182.682 242.777 182.507 242.859C182.333 242.941 182.183 243.068 182.074 243.227C181.965 243.385 181.9 243.571 181.885 243.763L180.275 259.06C180.254 259.308 180.319 259.556 180.46 259.763C180.6 259.969 180.807 260.12 181.046 260.192C181.284 260.264 181.54 260.251 181.771 260.156C182.002 260.062 182.193 259.891 182.312 259.672C183.608 257.257 185.339 254.882 187.473 253.932" fill="#1CDBBC"/>
<path d="M249.844 249.841C251.454 248.191 254.304 247.426 257.05 247.08C257.301 247.053 257.535 246.938 257.71 246.756C257.886 246.575 257.992 246.337 258.01 246.085C258.028 245.833 257.957 245.583 257.81 245.377C257.662 245.172 257.447 245.025 257.203 244.962L242.308 240.993C242.125 240.944 241.933 240.945 241.75 240.994C241.568 241.043 241.401 241.139 241.267 241.273C241.133 241.407 241.037 241.573 240.988 241.756C240.939 241.938 240.939 242.131 240.988 242.314L244.957 257.208C245.02 257.453 245.167 257.668 245.372 257.815C245.577 257.963 245.827 258.034 246.08 258.016C246.332 257.997 246.569 257.891 246.751 257.716C246.933 257.54 247.047 257.307 247.074 257.055C247.412 254.302 248.185 251.5 249.844 249.809" fill="#1CDBBC"/>
<path d="M57.3091 240.003C55.4171 238.626 52.5267 238.296 49.7571 238.393C49.5039 238.407 49.2539 238.331 49.0511 238.179C48.8482 238.026 48.7054 237.808 48.6478 237.561C48.5901 237.314 48.6213 237.055 48.7358 236.828C48.8503 236.602 49.0409 236.423 49.274 236.324L63.3636 230.068C63.5351 229.991 63.7235 229.961 63.9103 229.98C64.0971 229.999 64.2757 230.066 64.4286 230.175C64.5814 230.284 64.7032 230.431 64.7819 230.601C64.8606 230.772 64.8935 230.96 64.8772 231.147L63.267 246.444C63.2453 246.697 63.135 246.934 62.9555 247.114C62.7761 247.294 62.539 247.404 62.286 247.426C62.0331 247.449 61.7804 247.381 61.5725 247.235C61.3646 247.089 61.2148 246.875 61.1495 246.629C60.3927 243.964 59.185 241.307 57.293 239.939" fill="#1CDBBC"/>
<path d="M211.4 240.003C213.292 238.626 216.183 238.296 218.952 238.393C219.205 238.406 219.455 238.331 219.658 238.179C219.861 238.026 220.004 237.808 220.062 237.561C220.119 237.314 220.088 237.054 219.973 236.828C219.859 236.602 219.668 236.423 219.435 236.324L205.346 230.068C205.172 229.99 204.981 229.959 204.792 229.979C204.603 229.999 204.423 230.068 204.269 230.18C204.115 230.292 203.994 230.443 203.917 230.617C203.841 230.791 203.811 230.982 203.832 231.171L205.442 246.468C205.464 246.721 205.574 246.958 205.754 247.138C205.933 247.318 206.17 247.428 206.423 247.45C206.676 247.473 206.929 247.405 207.137 247.259C207.345 247.113 207.494 246.899 207.56 246.653C208.317 243.988 209.524 241.331 211.416 239.963" fill="#1CDBBC"/>
<path d="M267.556 232.129C269.215 230.47 272.017 229.714 274.803 229.359C275.05 229.328 275.278 229.212 275.449 229.031C275.62 228.85 275.724 228.615 275.742 228.367C275.76 228.119 275.691 227.872 275.548 227.668C275.405 227.464 275.195 227.317 274.955 227.25L260.061 223.273C259.878 223.225 259.685 223.225 259.503 223.274C259.32 223.324 259.153 223.42 259.019 223.553C258.885 223.686 258.788 223.853 258.738 224.035C258.687 224.217 258.686 224.41 258.732 224.593L262.71 239.496C262.773 239.741 262.921 239.955 263.127 240.102C263.332 240.249 263.583 240.319 263.836 240.3C264.088 240.281 264.325 240.174 264.507 239.997C264.688 239.821 264.801 239.586 264.827 239.335C265.157 236.589 265.938 233.779 267.589 232.129" fill="#1CDBBC"/>
<path d="M134.261 234.496C136.603 234.496 139.091 235.937 141.313 237.644C141.512 237.796 141.757 237.875 142.007 237.868C142.257 237.861 142.497 237.767 142.686 237.604C142.875 237.44 143.002 237.216 143.046 236.97C143.089 236.723 143.046 236.47 142.924 236.251L135.195 222.91C135.1 222.747 134.964 222.61 134.8 222.516C134.636 222.421 134.45 222.372 134.261 222.372C134.071 222.372 133.885 222.421 133.721 222.516C133.558 222.61 133.421 222.747 133.327 222.91L125.606 236.251C125.472 236.469 125.42 236.728 125.459 236.98C125.498 237.233 125.626 237.464 125.82 237.631C126.013 237.798 126.26 237.891 126.515 237.894C126.771 237.896 127.019 237.808 127.216 237.644C129.398 235.937 131.926 234.496 134.269 234.496" fill="#1CDBBC"/>
<path d="M134.261 234.496C136.603 234.496 139.091 235.937 141.313 237.644C141.512 237.796 141.757 237.875 142.007 237.868C142.257 237.861 142.497 237.767 142.686 237.604C142.875 237.44 143.002 237.216 143.046 236.97C143.089 236.723 143.046 236.47 142.924 236.251L135.195 222.91C135.1 222.747 134.964 222.61 134.8 222.516C134.636 222.421 134.45 222.372 134.261 222.372C134.071 222.372 133.885 222.421 133.721 222.516C133.558 222.61 133.421 222.747 133.327 222.91L125.606 236.251C125.472 236.469 125.42 236.728 125.459 236.98C125.498 237.233 125.626 237.464 125.82 237.631C126.013 237.798 126.26 237.891 126.515 237.894C126.771 237.896 127.019 237.808 127.216 237.644C129.398 235.937 131.926 234.496 134.269 234.496" fill="#1CDBBC"/>
<path d="M165.429 229.287C167.659 228.562 170.509 229.15 173.109 230.092C173.346 230.182 173.606 230.186 173.846 230.103C174.085 230.02 174.287 229.856 174.418 229.64C174.548 229.423 174.598 229.167 174.559 228.917C174.52 228.667 174.395 228.439 174.204 228.272L162.74 217.967C162.599 217.839 162.427 217.751 162.241 217.712C162.055 217.672 161.863 217.682 161.682 217.741C161.502 217.8 161.34 217.906 161.213 218.047C161.086 218.188 160.999 218.36 160.96 218.546L157.74 233.626C157.692 233.871 157.731 234.125 157.849 234.344C157.967 234.564 158.158 234.735 158.388 234.83C158.619 234.925 158.875 234.937 159.113 234.865C159.352 234.792 159.558 234.639 159.696 234.431C161.242 232.137 163.206 229.987 165.429 229.262" fill="#1CDBBC"/>
<path d="M165.429 229.287C167.659 228.562 170.509 229.15 173.109 230.092C173.346 230.182 173.606 230.186 173.846 230.103C174.085 230.02 174.287 229.856 174.418 229.64C174.548 229.423 174.598 229.167 174.559 228.917C174.52 228.667 174.395 228.439 174.204 228.272L162.74 217.967C162.599 217.839 162.427 217.751 162.241 217.712C162.055 217.672 161.863 217.682 161.682 217.741C161.502 217.8 161.34 217.906 161.213 218.047C161.086 218.188 160.999 218.36 160.96 218.546L157.74 233.626C157.692 233.871 157.731 234.125 157.849 234.344C157.967 234.564 158.158 234.735 158.388 234.83C158.619 234.925 158.875 234.937 159.113 234.865C159.352 234.792 159.558 234.639 159.696 234.431C161.242 232.137 163.206 229.987 165.429 229.262" fill="#1CDBBC"/>
<path d="M103.907 228.055C106.137 228.771 108.094 230.921 109.648 233.224C109.786 233.431 109.992 233.584 110.23 233.657C110.469 233.73 110.725 233.718 110.956 233.623C111.186 233.528 111.377 233.356 111.495 233.137C111.613 232.917 111.652 232.663 111.604 232.419L108.384 217.339C108.345 217.153 108.258 216.981 108.131 216.839C108.004 216.698 107.842 216.593 107.662 216.534C107.481 216.475 107.288 216.465 107.103 216.504C106.917 216.544 106.745 216.632 106.604 216.759L95.1394 227.065C94.9547 227.233 94.8342 227.46 94.7983 227.707C94.7624 227.954 94.8134 228.206 94.9427 228.42C95.0719 228.634 95.2713 228.796 95.5068 228.879C95.7424 228.963 95.9995 228.961 96.2343 228.876C98.8429 227.926 101.693 227.346 103.915 228.071" fill="#1CDBBC"/>
<path d="M231.47 221.726C233.08 219.987 235.801 219.062 238.53 218.587C238.782 218.548 239.011 218.422 239.178 218.23C239.346 218.039 239.44 217.795 239.445 217.541C239.45 217.287 239.364 217.039 239.205 216.841C239.045 216.644 238.82 216.509 238.571 216.461L223.491 213.24C223.305 213.202 223.113 213.213 222.933 213.272C222.752 213.331 222.591 213.436 222.464 213.577C222.337 213.718 222.249 213.889 222.209 214.075C222.169 214.26 222.178 214.453 222.235 214.633L226.985 229.303C227.063 229.541 227.222 229.744 227.434 229.878C227.645 230.011 227.897 230.067 228.145 230.036C228.394 230.004 228.624 229.888 228.795 229.705C228.967 229.523 229.07 229.287 229.086 229.037C229.28 226.275 229.892 223.401 231.502 221.694" fill="#1CDBBC"/>
<path d="M37.2283 221.726C35.6663 219.987 32.9048 219.062 30.1754 218.587C29.9253 218.543 29.6986 218.412 29.5352 218.218C29.3718 218.023 29.2823 217.778 29.2823 217.524C29.2823 217.27 29.3718 217.024 29.5352 216.83C29.6986 216.635 29.9253 216.505 30.1754 216.461L45.2553 213.24C45.441 213.202 45.6335 213.213 45.8137 213.272C45.9938 213.331 46.1554 213.436 46.2824 213.577C46.4093 213.718 46.4973 213.889 46.5375 214.075C46.5776 214.26 46.5686 214.453 46.5113 214.633L41.7611 229.303C41.6868 229.546 41.529 229.755 41.3155 229.893C41.1021 230.031 40.8468 230.089 40.5945 230.058C40.3423 230.026 40.1095 229.906 39.9369 229.719C39.7644 229.533 39.6634 229.291 39.6517 229.037C39.4665 226.275 38.8466 223.401 37.2363 221.694" fill="#1CDBBC"/>
<path d="M192.969 215.342C194.861 213.965 197.799 213.635 200.529 213.732C200.782 213.746 201.032 213.67 201.235 213.518C201.437 213.365 201.58 213.147 201.638 212.9C201.696 212.653 201.664 212.394 201.55 212.167C201.435 211.941 201.245 211.762 201.012 211.663L186.922 205.407C186.748 205.33 186.557 205.3 186.368 205.32C186.179 205.34 185.998 205.409 185.844 205.521C185.69 205.632 185.568 205.782 185.49 205.956C185.412 206.13 185.381 206.321 185.4 206.51L187.011 221.807C187.037 222.056 187.149 222.288 187.328 222.463C187.506 222.638 187.74 222.746 187.989 222.768C188.238 222.79 188.487 222.724 188.694 222.583C188.9 222.441 189.051 222.233 189.12 221.992C189.925 219.327 191.085 216.67 192.977 215.302" fill="#1CDBBC"/>
<path d="M192.969 215.342C194.861 213.965 197.799 213.635 200.529 213.732C200.782 213.746 201.032 213.67 201.235 213.518C201.437 213.365 201.58 213.147 201.638 212.9C201.696 212.653 201.664 212.394 201.55 212.167C201.435 211.941 201.245 211.762 201.012 211.663L186.922 205.407C186.748 205.33 186.557 205.3 186.368 205.32C186.179 205.34 185.998 205.409 185.844 205.521C185.69 205.632 185.568 205.782 185.49 205.956C185.412 206.13 185.381 206.321 185.4 206.51L187.011 221.807C187.037 222.056 187.149 222.288 187.328 222.463C187.506 222.638 187.74 222.746 187.989 222.768C188.238 222.79 188.487 222.724 188.694 222.583C188.9 222.441 189.051 222.233 189.12 221.992C189.925 219.327 191.085 216.67 192.977 215.302" fill="#1CDBBC"/>
<path d="M76.0018 214.07C77.8938 215.447 79.1015 218.096 79.8583 220.761C79.9231 221.006 80.0721 221.22 80.2793 221.367C80.4865 221.513 80.7386 221.581 80.9913 221.56C81.2441 221.539 81.4813 221.43 81.6613 221.251C81.8413 221.072 81.9527 220.836 81.9758 220.584L83.586 205.286C83.6044 205.098 83.5733 204.908 83.4958 204.736C83.4184 204.563 83.2972 204.414 83.1443 204.302C82.9915 204.191 82.8122 204.121 82.6242 204.1C82.4362 204.08 82.246 204.108 82.0724 204.183L67.9828 210.439C67.7497 210.539 67.5591 210.717 67.4446 210.944C67.33 211.17 67.2989 211.429 67.3566 211.676C67.4142 211.923 67.557 212.142 67.7599 212.294C67.9627 212.446 68.2127 212.522 68.4659 212.508C71.2355 212.412 74.1017 212.734 76.0179 214.118" fill="#1CDBBC"/>
<path d="M247.663 199.087C248.83 197.066 251.342 195.584 253.91 194.554C254.146 194.463 254.342 194.292 254.464 194.072C254.587 193.851 254.629 193.595 254.582 193.347C254.535 193.099 254.402 192.875 254.208 192.715C254.013 192.554 253.768 192.467 253.516 192.469H238.098C237.909 192.468 237.723 192.517 237.559 192.611C237.395 192.704 237.259 192.84 237.163 193.003C237.068 193.166 237.017 193.351 237.016 193.54C237.014 193.728 237.063 193.914 237.156 194.079L244.853 207.444C244.977 207.664 245.175 207.834 245.412 207.923C245.649 208.012 245.909 208.015 246.148 207.932C246.387 207.848 246.589 207.683 246.718 207.466C246.848 207.249 246.897 206.993 246.858 206.743C246.471 204.006 246.495 201.107 247.663 199.062" fill="#1CDBBC"/>
<path d="M21.0451 199.087C19.8777 197.066 17.3657 195.584 14.7974 194.554C14.562 194.463 14.3659 194.292 14.2432 194.072C14.1205 193.851 14.079 193.595 14.126 193.347C14.1729 193.099 14.3052 192.875 14.5 192.715C14.6947 192.554 14.9395 192.467 15.1919 192.469H30.6099C30.7981 192.469 30.9828 192.519 31.1456 192.614C31.3084 192.708 31.4438 192.843 31.5382 193.006C31.6326 193.169 31.6828 193.353 31.6838 193.542C31.6848 193.73 31.6365 193.915 31.5438 194.079L23.8952 207.468C23.7708 207.688 23.5729 207.858 23.3361 207.947C23.0994 208.036 22.8388 208.039 22.6 207.956C22.3612 207.872 22.1593 207.708 22.0296 207.49C21.8999 207.273 21.8506 207.017 21.8905 206.767C22.2769 204.03 22.2528 201.132 21.0853 199.087" fill="#1CDBBC"/>
<path d="M134.261 203.193C136.603 203.193 139.091 204.634 141.313 206.341C141.512 206.493 141.757 206.572 142.007 206.565C142.257 206.558 142.497 206.464 142.686 206.3C142.875 206.137 143.002 205.913 143.046 205.667C143.089 205.42 143.046 205.166 142.924 204.948L135.195 191.607C135.1 191.443 134.964 191.307 134.8 191.213C134.636 191.118 134.45 191.068 134.261 191.068C134.071 191.068 133.885 191.118 133.721 191.213C133.558 191.307 133.421 191.443 133.327 191.607L125.606 204.948C125.472 205.166 125.42 205.424 125.459 205.677C125.498 205.93 125.626 206.16 125.82 206.328C126.013 206.495 126.26 206.588 126.515 206.591C126.771 206.593 127.019 206.504 127.216 206.341C129.398 204.634 131.926 203.193 134.269 203.193" fill="#1CDBBC"/>
<path d="M163.914 196.197C166.023 195.182 168.93 195.391 171.635 195.971C171.877 196.014 172.127 195.974 172.343 195.855C172.559 195.737 172.728 195.549 172.822 195.321C172.916 195.094 172.93 194.841 172.86 194.605C172.791 194.368 172.642 194.163 172.44 194.023L159.695 185.352C159.538 185.246 159.357 185.183 159.168 185.169C158.979 185.154 158.79 185.19 158.62 185.271C158.449 185.352 158.302 185.477 158.194 185.632C158.087 185.788 158.021 185.968 158.004 186.157L156.837 201.526C156.818 201.777 156.887 202.026 157.031 202.23C157.176 202.435 157.388 202.583 157.63 202.649C157.872 202.715 158.129 202.694 158.358 202.591C158.586 202.487 158.772 202.307 158.882 202.082C160.106 199.602 161.764 197.203 163.874 196.188" fill="#1CDBBC"/>
<path d="M104.608 196.196C102.499 195.182 99.5923 195.391 96.8871 195.971C96.6447 196.014 96.3949 195.974 96.1789 195.855C95.963 195.737 95.7939 195.549 95.6999 195.321C95.6059 195.094 95.5925 194.841 95.662 194.604C95.7315 194.368 95.8797 194.163 96.082 194.023L108.835 185.351C108.991 185.245 109.172 185.182 109.361 185.167C109.549 185.153 109.738 185.188 109.908 185.27C110.078 185.351 110.224 185.476 110.331 185.632C110.438 185.787 110.503 185.968 110.518 186.157L111.653 201.534C111.672 201.785 111.603 202.034 111.459 202.238C111.314 202.443 111.102 202.591 110.86 202.657C110.618 202.723 110.361 202.702 110.132 202.599C109.903 202.495 109.718 202.315 109.608 202.09C108.384 199.61 106.726 197.211 104.616 196.196" fill="#1CDBBC"/>
<path d="M53.402 192.734C54.7788 194.626 55.1008 197.517 55.0122 200.286C54.9984 200.54 55.0743 200.79 55.2264 200.992C55.3785 201.195 55.5973 201.338 55.8442 201.396C56.0911 201.453 56.3505 201.422 56.5767 201.308C56.803 201.193 56.9816 201.003 57.0814 200.769L63.3371 186.68C63.4149 186.506 63.4455 186.315 63.4257 186.126C63.4059 185.937 63.3365 185.757 63.2246 185.603C63.1126 185.45 62.9621 185.328 62.7881 185.251C62.6142 185.175 62.4231 185.145 62.2341 185.166L46.8966 186.776C46.6483 186.804 46.4173 186.917 46.2431 187.096C46.0689 187.275 45.9622 187.509 45.9413 187.758C45.9204 188.007 45.9865 188.256 46.1285 188.461C46.2704 188.667 46.4793 188.817 46.7195 188.886C49.3844 189.691 52.0333 190.85 53.41 192.75" fill="#1CDBBC"/>
<path d="M214.337 192.734C215.714 190.842 218.363 189.643 221.027 188.878C221.268 188.809 221.477 188.659 221.619 188.453C221.76 188.248 221.827 187.999 221.806 187.75C221.785 187.501 221.678 187.267 221.504 187.088C221.33 186.909 221.099 186.796 220.85 186.768L205.513 185.158C205.324 185.139 205.133 185.17 204.959 185.248C204.785 185.326 204.635 185.448 204.524 185.602C204.412 185.756 204.343 185.936 204.323 186.125C204.303 186.315 204.333 186.506 204.41 186.68L210.666 200.769C210.765 201.003 210.944 201.193 211.17 201.308C211.396 201.422 211.656 201.453 211.903 201.396C212.15 201.338 212.368 201.195 212.521 200.992C212.673 200.789 212.749 200.539 212.735 200.286C212.638 197.517 212.96 194.65 214.345 192.726" fill="#1CDBBC"/>
<path d="M214.337 192.734C215.714 190.842 218.363 189.643 221.027 188.878C221.268 188.809 221.477 188.659 221.619 188.453C221.76 188.248 221.827 187.999 221.806 187.75C221.785 187.501 221.678 187.267 221.504 187.088C221.33 186.909 221.099 186.796 220.85 186.768L205.513 185.158C205.324 185.139 205.133 185.17 204.959 185.248C204.785 185.326 204.635 185.448 204.524 185.602C204.412 185.756 204.343 185.936 204.323 186.125C204.303 186.315 204.333 186.506 204.41 186.68L210.666 200.769C210.765 201.003 210.944 201.193 211.17 201.308C211.396 201.422 211.656 201.453 211.903 201.396C212.15 201.338 212.368 201.195 212.521 200.992C212.673 200.789 212.749 200.539 212.735 200.286C212.638 197.517 212.96 194.65 214.345 192.726" fill="#1CDBBC"/>
<path d="M188.066 177.485C189.523 175.649 192.228 174.571 194.925 173.926C195.17 173.869 195.386 173.728 195.538 173.528C195.69 173.328 195.767 173.082 195.756 172.831C195.746 172.58 195.648 172.341 195.48 172.155C195.313 171.968 195.085 171.846 194.837 171.809L179.588 169.522C179.4 169.496 179.209 169.519 179.033 169.589C178.857 169.659 178.703 169.773 178.585 169.921C178.467 170.069 178.39 170.246 178.361 170.433C178.332 170.62 178.352 170.811 178.42 170.988L184.056 185.343C184.147 185.578 184.317 185.773 184.536 185.896C184.756 186.019 185.012 186.061 185.259 186.015C185.507 185.969 185.73 185.838 185.891 185.645C186.052 185.452 186.141 185.208 186.141 184.957C186.141 182.187 186.624 179.321 188.082 177.485" fill="#1CDBBC"/>
<path d="M80.4562 177.485C78.9989 175.649 76.2937 174.571 73.5965 173.926C73.3522 173.869 73.1356 173.728 72.9839 173.528C72.8321 173.328 72.7549 173.082 72.7654 172.831C72.7759 172.58 72.8735 172.341 73.0414 172.155C73.2092 171.968 73.4369 171.846 73.6851 171.809L88.9341 169.522C89.1215 169.496 89.3125 169.519 89.4884 169.589C89.6643 169.659 89.8188 169.773 89.9368 169.921C90.0547 170.069 90.1319 170.246 90.1608 170.433C90.1897 170.62 90.1693 170.811 90.1015 170.988L84.4657 185.343C84.375 185.578 84.2051 185.773 83.9854 185.896C83.7658 186.019 83.5101 186.061 83.2627 186.015C83.0153 185.969 82.7916 185.838 82.6305 185.645C82.4694 185.452 82.3809 185.208 82.3804 184.957C82.3804 182.187 81.8973 179.321 80.4401 177.485" fill="#1CDBBC"/>
<path d="M258.387 174.893C259.104 172.671 261.254 170.706 263.556 169.16C263.764 169.022 263.917 168.816 263.989 168.577C264.062 168.339 264.05 168.083 263.955 167.852C263.86 167.622 263.688 167.431 263.469 167.313C263.249 167.195 262.996 167.156 262.751 167.204L247.671 170.424C247.485 170.463 247.313 170.55 247.172 170.677C247.03 170.804 246.925 170.966 246.866 171.146C246.807 171.327 246.797 171.519 246.837 171.705C246.876 171.891 246.964 172.063 247.091 172.204L257.381 183.644C257.549 183.832 257.778 183.954 258.027 183.991C258.276 184.027 258.53 183.976 258.745 183.845C258.96 183.714 259.122 183.512 259.204 183.274C259.286 183.036 259.282 182.777 259.192 182.541C258.242 179.941 257.663 177.091 258.387 174.86" fill="#1CDBBC"/>
<path d="M10.3194 174.893C9.59479 172.671 7.44508 170.706 5.15049 169.16C4.94308 169.022 4.79001 168.816 4.71727 168.577C4.64453 168.339 4.65664 168.083 4.75152 167.852C4.8464 167.622 5.01819 167.431 5.23772 167.313C5.45724 167.195 5.7109 167.156 5.95561 167.204L21.0355 170.424C21.2213 170.463 21.3936 170.55 21.5349 170.677C21.6763 170.804 21.7817 170.966 21.8405 171.146C21.8993 171.327 21.9094 171.519 21.8699 171.705C21.8303 171.891 21.7425 172.063 21.6152 172.204L11.3258 183.644C11.1554 183.827 10.9274 183.945 10.6801 183.979C10.4329 184.013 10.1814 183.961 9.96789 183.832C9.75442 183.703 9.59201 183.504 9.50793 183.269C9.42386 183.034 9.42325 182.777 9.50621 182.541C10.4563 179.941 11.044 177.091 10.3113 174.86" fill="#1CDBBC"/>
<path d="M39.4574 165.127C40.1739 167.357 39.5942 170.207 38.6522 172.808C38.5631 173.043 38.5591 173.302 38.6409 173.54C38.7227 173.778 38.8851 173.98 39.1001 174.111C39.3151 174.242 39.5691 174.294 39.8181 174.257C40.0671 174.22 40.2955 174.098 40.4638 173.911L50.7693 162.438C50.8965 162.297 50.9844 162.125 51.024 161.939C51.0635 161.754 51.0534 161.561 50.9946 161.38C50.9358 161.2 50.8304 161.038 50.689 160.911C50.5477 160.784 50.3754 160.697 50.1896 160.658L35.1178 157.438C34.873 157.39 34.6193 157.429 34.3998 157.547C34.1803 157.665 34.0085 157.856 33.9136 158.086C33.8187 158.317 33.8066 158.573 33.8794 158.812C33.9521 159.05 34.1052 159.256 34.3126 159.394C36.6153 160.94 38.7649 162.905 39.4895 165.127" fill="#1CDBBC"/>
<path d="M228.316 164.829C229.041 162.607 231.191 160.642 233.493 159.096C233.701 158.958 233.854 158.752 233.927 158.514C233.999 158.275 233.987 158.019 233.892 157.788C233.797 157.558 233.626 157.367 233.406 157.249C233.187 157.131 232.933 157.092 232.688 157.14L217.616 160.361C217.431 160.399 217.258 160.487 217.117 160.613C216.976 160.74 216.87 160.902 216.811 161.082C216.753 161.263 216.742 161.456 216.782 161.641C216.821 161.827 216.909 161.999 217.037 162.14L227.342 173.613C227.51 173.8 227.739 173.923 227.988 173.959C228.237 173.996 228.491 173.944 228.706 173.813C228.921 173.682 229.083 173.48 229.165 173.242C229.247 173.004 229.243 172.745 229.154 172.51C228.204 169.909 227.624 167.059 228.349 164.829" fill="#1CDBBC"/>
<path d="M228.316 164.829C229.041 162.607 231.191 160.642 233.493 159.096C233.701 158.958 233.854 158.752 233.927 158.514C233.999 158.275 233.987 158.019 233.892 157.788C233.797 157.558 233.626 157.367 233.406 157.249C233.187 157.131 232.933 157.092 232.688 157.14L217.616 160.361C217.431 160.399 217.258 160.487 217.117 160.613C216.976 160.74 216.87 160.902 216.811 161.082C216.753 161.263 216.742 161.456 216.782 161.641C216.821 161.827 216.909 161.999 217.037 162.14L227.342 173.613C227.51 173.8 227.739 173.923 227.988 173.959C228.237 173.996 228.491 173.944 228.706 173.813C228.921 173.682 229.083 173.48 229.165 173.242C229.247 173.004 229.243 172.745 229.154 172.51C228.204 169.909 227.624 167.059 228.349 164.829" fill="#1CDBBC"/>
<path d="M201.224 149.314C201.739 147.036 203.703 144.886 205.853 143.139C206.051 142.983 206.187 142.762 206.239 142.516C206.291 142.269 206.255 142.012 206.137 141.79C206.02 141.567 205.828 141.392 205.595 141.296C205.362 141.2 205.103 141.188 204.863 141.263L190.129 145.82C189.949 145.878 189.787 145.982 189.66 146.122C189.532 146.261 189.443 146.432 189.401 146.616C189.36 146.801 189.367 146.993 189.423 147.174C189.479 147.355 189.581 147.518 189.719 147.648L200.99 158.114C201.174 158.285 201.412 158.386 201.662 158.4C201.913 158.414 202.161 158.34 202.363 158.192C202.565 158.043 202.709 157.828 202.77 157.585C202.831 157.342 202.805 157.085 202.697 156.858C201.522 154.354 200.684 151.561 201.208 149.282" fill="#1CDBBC"/>
<path d="M67.3062 149.314C66.7829 147.036 64.8184 144.886 62.6687 143.139C62.4712 142.983 62.3347 142.762 62.2828 142.516C62.2309 142.269 62.2668 142.012 62.3844 141.79C62.502 141.567 62.6938 141.392 62.9266 141.296C63.1594 141.2 63.4185 141.188 63.659 141.263L78.3927 145.82C78.5728 145.878 78.7347 145.982 78.8623 146.122C78.9899 146.261 79.0789 146.432 79.1204 146.616C79.1618 146.801 79.1544 146.993 79.0988 147.174C79.0432 147.355 78.9413 147.518 78.8033 147.648L67.5316 158.114C67.3476 158.285 67.1098 158.386 66.8593 158.4C66.6088 158.414 66.3612 158.34 66.1591 158.192C65.9571 158.043 65.8131 157.828 65.7521 157.585C65.691 157.342 65.7168 157.085 65.8248 156.858C67.0003 154.354 67.8376 151.561 67.3223 149.282" fill="#1CDBBC"/>
<path d="M263.474 147.599C263.224 149.926 264.392 152.591 265.889 154.942C266.027 155.155 266.086 155.409 266.055 155.661C266.024 155.913 265.906 156.146 265.72 156.318C265.535 156.491 265.294 156.593 265.041 156.607C264.788 156.62 264.538 156.544 264.336 156.391L251.872 147.318C251.719 147.206 251.598 147.056 251.521 146.882C251.444 146.709 251.414 146.518 251.435 146.33C251.455 146.141 251.525 145.961 251.637 145.808C251.749 145.655 251.9 145.534 252.074 145.458L266.147 139.17C266.377 139.065 266.635 139.044 266.879 139.111C267.122 139.177 267.334 139.327 267.479 139.533C267.623 139.74 267.691 139.991 267.669 140.242C267.648 140.493 267.54 140.729 267.363 140.909C265.439 142.906 263.74 145.273 263.498 147.599" fill="#1CDBBC"/>
<path d="M4.92721 147.599C5.1768 149.926 4.00938 152.591 2.51185 154.942C2.37381 155.155 2.31512 155.409 2.34605 155.661C2.37699 155.913 2.49556 156.146 2.681 156.318C2.86644 156.491 3.1069 156.593 3.36012 156.607C3.61334 156.62 3.86315 156.544 4.06573 156.391L16.529 147.318C16.6826 147.207 16.8043 147.057 16.8817 146.884C16.9591 146.711 16.9895 146.52 16.9699 146.332C16.9504 146.143 16.8814 145.963 16.7701 145.81C16.6588 145.656 16.5089 145.535 16.3357 145.458L2.25421 139.17C2.02475 139.065 1.76591 139.044 1.52265 139.111C1.2794 139.177 1.06712 139.327 0.922648 139.533C0.778174 139.74 0.710674 139.991 0.731835 140.242C0.752997 140.493 0.861469 140.729 1.03847 140.909C2.97076 142.906 4.6615 145.273 4.90303 147.599" fill="#1CDBBC"/>
<path d="M234.764 134.476C234.764 132.141 236.205 129.605 237.912 127.423C238.072 127.227 238.158 126.98 238.154 126.727C238.151 126.474 238.058 126.23 237.893 126.038C237.728 125.847 237.501 125.719 237.251 125.678C237.002 125.636 236.745 125.684 236.527 125.813L223.179 133.534C223.015 133.63 222.879 133.767 222.785 133.931C222.69 134.096 222.641 134.282 222.641 134.472C222.641 134.661 222.69 134.848 222.785 135.012C222.879 135.177 223.015 135.314 223.179 135.41L236.527 143.131C236.745 143.259 237.002 143.307 237.251 143.266C237.501 143.224 237.728 143.097 237.893 142.905C238.058 142.713 238.151 142.469 238.154 142.216C238.158 141.963 238.072 141.717 237.912 141.52C236.205 139.339 234.764 136.802 234.764 134.46" fill="#1CDBBC"/>
<path d="M234.764 134.476C234.764 132.141 236.205 129.605 237.912 127.423C238.072 127.227 238.158 126.98 238.154 126.727C238.151 126.474 238.058 126.23 237.893 126.038C237.728 125.847 237.501 125.719 237.251 125.678C237.002 125.636 236.745 125.684 236.527 125.813L223.179 133.534C223.015 133.63 222.879 133.767 222.785 133.931C222.69 134.096 222.641 134.282 222.641 134.472C222.641 134.661 222.69 134.848 222.785 135.012C222.879 135.177 223.015 135.314 223.179 135.41L236.527 143.131C236.745 143.259 237.002 143.307 237.251 143.266C237.501 143.224 237.728 143.097 237.893 142.905C238.058 142.713 238.151 142.469 238.154 142.216C238.158 141.963 238.072 141.717 237.912 141.52C236.205 139.339 234.764 136.802 234.764 134.46" fill="#1CDBBC"/>
<path d="M34.2405 133.993C34.2405 136.336 32.8074 138.864 31.1005 141.046C30.9408 141.242 30.8552 141.488 30.8586 141.741C30.8621 141.994 30.9544 142.238 31.1194 142.43C31.2844 142.622 31.5117 142.75 31.7614 142.791C32.0111 142.832 32.2673 142.784 32.4853 142.656L45.8342 134.927C45.998 134.832 46.134 134.696 46.2286 134.532C46.3232 134.368 46.373 134.182 46.373 133.993C46.373 133.804 46.3232 133.618 46.2286 133.454C46.134 133.29 45.998 133.154 45.8342 133.059L32.4853 125.338C32.2673 125.209 32.0111 125.161 31.7614 125.203C31.5117 125.244 31.2844 125.372 31.1194 125.564C30.9544 125.756 30.8621 125.999 30.8586 126.252C30.8552 126.505 30.9408 126.752 31.1005 126.948C32.8074 129.13 34.2405 131.666 34.2405 134.001" fill="#1CDBBC"/>
<path d="M4.78976 120.91C4.54822 123.236 2.85743 125.604 0.925146 127.6C0.748142 127.78 0.63967 128.016 0.618508 128.267C0.597347 128.518 0.664847 128.769 0.809321 128.976C0.953795 129.182 1.16613 129.332 1.40938 129.398C1.65263 129.465 1.91143 129.444 2.14088 129.339L16.2224 123.051C16.3956 122.974 16.5454 122.853 16.6568 122.699C16.7681 122.546 16.837 122.366 16.8566 122.177C16.8762 121.989 16.8458 121.798 16.7684 121.625C16.6909 121.452 16.5693 121.303 16.4157 121.191L3.9524 112.118C3.74942 111.97 3.50146 111.899 3.25117 111.914C3.00087 111.93 2.7639 112.032 2.58094 112.204C2.39798 112.375 2.28047 112.605 2.24865 112.854C2.21683 113.103 2.27269 113.355 2.40659 113.567C3.8719 115.918 5.03933 118.583 4.82194 120.91" fill="#1CDBBC"/>
<path d="M263.611 120.909C263.853 123.236 265.544 125.603 267.476 127.6C267.653 127.78 267.762 128.016 267.783 128.267C267.804 128.518 267.736 128.769 267.592 128.975C267.447 129.182 267.235 129.332 266.992 129.398C266.749 129.465 266.49 129.444 266.26 129.339L252.187 123.051C252.013 122.975 251.863 122.854 251.75 122.701C251.638 122.548 251.569 122.368 251.548 122.179C251.528 121.991 251.557 121.8 251.634 121.627C251.711 121.453 251.832 121.303 251.986 121.191L264.449 112.118C264.651 111.965 264.901 111.889 265.154 111.902C265.408 111.915 265.648 112.018 265.833 112.191C266.019 112.363 266.138 112.596 266.168 112.848C266.199 113.1 266.141 113.354 266.003 113.567C264.529 115.918 263.362 118.583 263.587 120.909" fill="#1CDBBC"/>
<path d="M263.627 120.902C263.377 118.575 264.545 115.91 266.042 113.559C266.176 113.347 266.232 113.095 266.2 112.846C266.168 112.597 266.051 112.367 265.868 112.196C265.685 112.024 265.448 111.922 265.198 111.906C264.947 111.89 264.699 111.962 264.497 112.11L252.033 121.183C251.88 121.295 251.758 121.444 251.681 121.617C251.603 121.79 251.573 121.981 251.592 122.169C251.612 122.358 251.681 122.538 251.792 122.691C251.904 122.845 252.053 122.966 252.226 123.043L266.308 129.331C266.537 129.436 266.796 129.457 267.04 129.39C267.283 129.324 267.495 129.174 267.64 128.968C267.784 128.761 267.852 128.51 267.83 128.259C267.809 128.008 267.701 127.772 267.524 127.592C265.591 125.604 263.901 123.228 263.659 120.902" fill="#1CDBBC"/>
<path d="M67.2981 119.235C67.8215 116.949 66.9841 114.163 65.8006 111.659C65.6882 111.432 65.6591 111.173 65.7184 110.927C65.7777 110.681 65.9217 110.463 66.1251 110.313C66.3286 110.162 66.5785 110.088 66.8312 110.103C67.0839 110.118 67.3233 110.221 67.5075 110.395L78.7791 120.861C78.9172 120.991 79.0191 121.154 79.0747 121.335C79.1303 121.516 79.1377 121.708 79.0962 121.893C79.0547 122.077 78.9658 122.248 78.8381 122.387C78.7105 122.527 78.5486 122.631 78.3685 122.689L63.659 127.286C63.4185 127.361 63.1594 127.349 62.9266 127.253C62.6938 127.157 62.502 126.983 62.3844 126.76C62.2668 126.537 62.2309 126.28 62.2828 126.034C62.3347 125.787 62.4712 125.567 62.6687 125.41C64.8184 123.663 66.7828 121.514 67.2981 119.235Z" fill="#1CDBBC"/>
<path d="M201.221 119.235C200.698 116.948 201.535 114.163 202.719 111.659C202.836 111.433 202.869 111.172 202.812 110.924C202.756 110.675 202.613 110.455 202.41 110.302C202.206 110.148 201.955 110.072 201.701 110.086C201.446 110.1 201.205 110.204 201.02 110.379L189.748 120.845C189.608 120.974 189.504 121.138 189.448 121.32C189.391 121.502 189.384 121.695 189.426 121.881C189.469 122.066 189.56 122.237 189.69 122.377C189.82 122.516 189.984 122.618 190.167 122.673L204.892 127.238C205.133 127.313 205.392 127.301 205.625 127.205C205.858 127.109 206.05 126.934 206.167 126.711C206.285 126.489 206.321 126.232 206.269 125.985C206.217 125.739 206.08 125.518 205.883 125.362C203.733 123.615 201.769 121.465 201.253 119.187" fill="#1CDBBC"/>
<path d="M228.316 104.131C229.041 106.353 231.191 108.318 233.493 109.863C233.701 110.002 233.854 110.208 233.927 110.446C233.999 110.685 233.987 110.941 233.892 111.171C233.797 111.402 233.626 111.593 233.406 111.711C233.187 111.829 232.933 111.868 232.688 111.82L217.616 108.599C217.431 108.561 217.258 108.473 217.117 108.347C216.976 108.22 216.87 108.058 216.811 107.878C216.753 107.697 216.742 107.504 216.782 107.319C216.821 107.133 216.909 106.961 217.037 106.82L227.342 95.3471C227.51 95.1599 227.739 95.0373 227.988 95.0007C228.237 94.9641 228.491 95.0157 228.706 95.1466C228.921 95.2775 229.083 95.4795 229.165 95.7175C229.247 95.9556 229.243 96.2147 229.154 96.4501C228.204 99.0507 227.624 101.901 228.349 104.131" fill="#1CDBBC"/>
<path d="M39.4574 103.801C40.1739 101.571 39.5942 98.7206 38.6522 96.1201C38.5631 95.8847 38.5591 95.6255 38.6409 95.3875C38.7227 95.1494 38.8851 94.9475 39.1001 94.8166C39.3151 94.6857 39.5691 94.634 39.8181 94.6707C40.0671 94.7073 40.2955 94.8298 40.4638 95.017L50.7693 106.49C50.8965 106.631 50.9844 106.803 51.024 106.988C51.0635 107.174 51.0534 107.367 50.9946 107.547C50.9358 107.728 50.8304 107.89 50.689 108.016C50.5477 108.143 50.3754 108.23 50.1896 108.269L35.1178 111.49C34.873 111.537 34.6193 111.499 34.3998 111.381C34.1803 111.263 34.0085 111.072 33.9136 110.841C33.8187 110.611 33.8066 110.355 33.8794 110.116C33.9521 109.878 34.1052 109.672 34.3126 109.533C36.6153 107.988 38.7649 106.023 39.4895 103.801" fill="#1CDBBC"/>
<path d="M10.2069 93.6081C9.49036 95.8302 7.3407 97.7947 5.03806 99.3485C4.83578 99.4889 4.68756 99.6942 4.61806 99.9304C4.54855 100.167 4.56192 100.419 4.65595 100.647C4.74997 100.875 4.91901 101.063 5.13497 101.181C5.35093 101.3 5.60083 101.34 5.84318 101.297L20.923 98.0765C21.1089 98.0376 21.2812 97.9504 21.4225 97.8237C21.5639 97.6969 21.6692 97.5351 21.728 97.3546C21.7868 97.1741 21.797 96.9813 21.7574 96.7956C21.7178 96.61 21.63 96.438 21.5028 96.2972L11.1972 84.8322C11.029 84.6476 10.8018 84.527 10.5546 84.4912C10.3074 84.4553 10.0554 84.5063 9.84165 84.6356C9.62786 84.7648 9.46553 84.9642 9.38238 85.1997C9.29923 85.4353 9.30038 85.6924 9.38568 85.9272C10.3277 88.5278 10.9154 91.3859 10.1908 93.6081" fill="#1CDBBC"/>
<path d="M258.233 93.6081C258.958 95.8302 261.107 97.7947 263.402 99.3486C263.604 99.4889 263.752 99.6942 263.822 99.9304C263.891 100.167 263.878 100.419 263.784 100.647C263.69 100.875 263.521 101.063 263.305 101.181C263.089 101.3 262.839 101.34 262.597 101.297L247.517 98.0765C247.331 98.0376 247.159 97.9504 247.017 97.8237C246.876 97.697 246.771 97.5352 246.712 97.3547C246.653 97.1742 246.643 96.9813 246.682 96.7957C246.722 96.61 246.81 96.4381 246.937 96.2972L257.243 84.8323C257.409 84.642 257.638 84.5165 257.888 84.4775C258.138 84.4385 258.393 84.4886 258.61 84.6191C258.827 84.7495 258.991 84.952 259.074 85.1911C259.156 85.4303 259.152 85.6908 259.062 85.9273C258.112 88.5278 257.524 91.386 258.257 93.6081" fill="#1CDBBC"/>
<path d="M188.067 91.4822C186.61 89.6546 186.159 86.7722 186.135 84.0026C186.134 83.751 186.046 83.5074 185.884 83.3141C185.723 83.1208 185.5 82.9899 185.252 82.9441C185.005 82.8982 184.749 82.9403 184.53 83.063C184.31 83.1858 184.14 83.3814 184.049 83.6162L178.413 97.9715C178.346 98.1482 178.325 98.3395 178.354 98.5266C178.383 98.7136 178.46 98.8899 178.578 99.0379C178.696 99.1859 178.851 99.3006 179.027 99.3706C179.202 99.4405 179.393 99.4633 179.581 99.4368L194.83 97.1583C195.078 97.1215 195.306 96.9993 195.474 96.8127C195.641 96.6262 195.739 96.3869 195.75 96.1362C195.76 95.8854 195.683 95.6388 195.531 95.4389C195.379 95.239 195.163 95.0982 194.918 95.0408C192.221 94.3967 189.516 93.3098 188.059 91.4822" fill="#1CDBBC"/>
<path d="M80.455 91.4822C81.9122 89.6546 82.3631 86.7722 82.3873 84.0026C82.3878 83.751 82.4763 83.5074 82.6374 83.3141C82.7985 83.1208 83.0221 82.9899 83.2695 82.9441C83.5169 82.8982 83.7726 82.9403 83.9923 83.063C84.212 83.1858 84.3819 83.3814 84.4725 83.6162L90.1084 97.9715C90.1761 98.1482 90.1966 98.3395 90.1677 98.5266C90.1388 98.7136 90.0616 98.8899 89.9436 99.0379C89.8257 99.1859 89.6711 99.3006 89.4953 99.3706C89.3194 99.4405 89.1283 99.4633 88.9409 99.4368L73.692 97.1583C73.4437 97.1215 73.216 96.9993 73.0482 96.8127C72.8803 96.6262 72.7827 96.3869 72.7722 96.1362C72.7618 95.8854 72.839 95.6388 72.9907 95.4389C73.1424 95.239 73.3591 95.0982 73.6034 95.0408C76.3006 94.3967 79.0058 93.3098 80.463 91.4822" fill="#1CDBBC"/>
<path d="M214.337 76.2255C215.714 78.1175 218.363 79.3171 221.027 80.082C221.268 80.1507 221.477 80.3007 221.619 80.5064C221.76 80.712 221.827 80.9605 221.806 81.2095C221.785 81.4585 221.678 81.6925 221.504 81.8715C221.33 82.0506 221.099 82.1637 220.85 82.1914L205.513 83.8016C205.324 83.8208 205.133 83.7899 204.959 83.7121C204.785 83.6342 204.635 83.5122 204.524 83.3581C204.412 83.2041 204.343 83.0235 204.323 82.8343C204.303 82.6451 204.333 82.4539 204.41 82.28L210.666 68.1904C210.765 67.9573 210.944 67.7667 211.17 67.6522C211.396 67.5377 211.656 67.5065 211.903 67.5641C212.15 67.6218 212.368 67.7646 212.521 67.9674C212.673 68.1703 212.749 68.4203 212.735 68.6735C212.638 71.4431 212.96 74.3093 214.345 76.2335" fill="#1CDBBC"/>
<path d="M53.4042 76.2255C54.781 74.3334 55.103 71.4431 55.0145 68.6735C55.0007 68.4203 55.0765 68.1703 55.2286 67.9674C55.3808 67.7646 55.5995 67.6218 55.8464 67.5641C56.0934 67.5065 56.3527 67.5377 56.579 67.6522C56.8052 67.7667 56.9839 67.9573 57.0836 68.1904L63.3474 82.28C63.4252 82.4534 63.4558 82.6444 63.436 82.8334C63.4162 83.0225 63.3468 83.203 63.2349 83.3566C63.1229 83.5103 62.9724 83.6316 62.7984 83.7083C62.6245 83.7851 62.4334 83.8145 62.2444 83.7936L46.9069 82.1834C46.6586 82.1556 46.4276 82.0426 46.2534 81.8635C46.0791 81.6844 45.9725 81.4504 45.9516 81.2014C45.9307 80.9525 45.9968 80.7039 46.1388 80.4983C46.2807 80.2927 46.4896 80.1427 46.7298 80.0739C49.3947 79.3091 52.0436 78.1014 53.4203 76.2094" fill="#1CDBBC"/>
<path d="M163.914 72.7632C161.805 71.7488 160.146 69.3495 158.922 66.8698C158.812 66.6454 158.628 66.4662 158.4 66.3628C158.173 66.2594 157.916 66.2382 157.675 66.3028C157.433 66.3674 157.222 66.5139 157.076 66.7172C156.931 66.9204 156.861 67.1679 156.877 67.4173L158.037 82.795C158.053 82.9834 158.119 83.1642 158.227 83.3195C158.335 83.4748 158.481 83.5993 158.652 83.6806C158.823 83.7619 159.012 83.7973 159.201 83.7831C159.389 83.769 159.571 83.706 159.728 83.6001L172.481 74.9532C172.683 74.8128 172.831 74.6075 172.901 74.3713C172.97 74.1351 172.957 73.8823 172.863 73.6547C172.769 73.4272 172.6 73.2387 172.384 73.1204C172.168 73.0022 171.918 72.9614 171.676 73.0048C168.97 73.5925 166.04 73.8099 163.954 72.7713" fill="#1CDBBC"/>
<path d="M104.61 72.7632C106.719 71.7488 108.378 69.3495 109.601 66.8698C109.711 66.6454 109.896 66.4662 110.124 66.3628C110.351 66.2594 110.607 66.2382 110.849 66.3028C111.09 66.3674 111.302 66.5139 111.447 66.7172C111.593 66.9204 111.663 67.1679 111.646 67.4173L110.487 82.795C110.47 82.9834 110.405 83.1642 110.297 83.3195C110.189 83.4748 110.042 83.5993 109.872 83.6806C109.701 83.7619 109.512 83.7973 109.323 83.7831C109.135 83.769 108.953 83.706 108.796 83.6001L96.0511 74.9532C95.8488 74.8128 95.7006 74.6075 95.6311 74.3713C95.5616 74.1351 95.575 73.8823 95.669 73.6547C95.763 73.4272 95.9321 73.2387 96.148 73.1204C96.364 73.0022 96.6139 72.9614 96.8562 73.0048C99.5695 73.5925 102.492 73.8099 104.577 72.7713" fill="#1CDBBC"/>
<path d="M134.262 65.6625C131.92 65.6625 129.391 64.2213 127.21 62.5145C127.013 62.3547 126.767 62.2691 126.514 62.2726C126.261 62.276 126.017 62.3683 125.825 62.5334C125.633 62.6984 125.506 62.9256 125.464 63.1753C125.423 63.425 125.471 63.6812 125.599 63.8993L133.32 77.2482C133.413 77.4141 133.549 77.5522 133.713 77.6483C133.877 77.7445 134.064 77.7951 134.254 77.7951C134.445 77.7951 134.631 77.7445 134.796 77.6483C134.96 77.5522 135.095 77.4141 135.188 77.2482L142.926 63.9154C143.048 63.697 143.091 63.4432 143.047 63.1968C143.004 62.9504 142.877 62.7265 142.688 62.5629C142.499 62.3992 142.259 62.3058 142.009 62.2985C141.759 62.2911 141.514 62.3702 141.315 62.5225C139.133 64.2294 136.597 65.6625 134.262 65.6625" fill="#1CDBBC"/>
<path d="M247.51 69.4146C248.678 71.4435 251.19 72.9168 253.758 73.9554C253.988 74.0497 254.179 74.2206 254.297 74.4392C254.416 74.6579 254.456 74.9108 254.409 75.1552C254.363 75.3996 254.233 75.6204 254.043 75.7803C253.852 75.9402 253.612 76.0294 253.363 76.0326H237.945C237.757 76.0318 237.573 75.9817 237.41 75.8874C237.247 75.7931 237.112 75.6578 237.017 75.4951C236.923 75.3323 236.873 75.1476 236.872 74.9595C236.871 74.7713 236.919 74.5862 237.011 74.4224L244.7 61.0655C244.825 60.8467 245.022 60.6783 245.258 60.5896C245.493 60.5008 245.752 60.4972 245.99 60.5794C246.228 60.6616 246.43 60.8244 246.56 61.0396C246.691 61.2548 246.742 61.5089 246.705 61.7579C246.319 64.5033 246.343 67.3937 247.51 69.4387" fill="#1CDBBC"/>
<path d="M20.8911 69.4146C19.7237 71.4435 17.2117 72.9168 14.6434 73.9554C14.4132 74.0497 14.2226 74.2206 14.1039 74.4392C13.9852 74.6579 13.9457 74.9108 13.9922 75.1552C14.0386 75.3996 14.168 75.6204 14.3586 75.7803C14.5492 75.9402 14.7891 76.0294 15.0379 76.0326H30.4559C30.6441 76.0318 30.8288 75.9817 30.9916 75.8874C31.1544 75.7931 31.2898 75.6578 31.3842 75.4951C31.4786 75.3323 31.5288 75.1476 31.5298 74.9595C31.5308 74.7713 31.4825 74.5862 31.3898 74.4224L23.701 61.0655C23.5765 60.8467 23.3794 60.6783 23.1438 60.5896C22.9083 60.5008 22.6491 60.4972 22.4111 60.5794C22.1732 60.6616 21.9715 60.8244 21.8409 61.0396C21.7104 61.2548 21.6592 61.5089 21.6962 61.7579C22.0827 64.5033 22.0585 67.3937 20.8911 69.4387" fill="#1CDBBC"/>
<path d="M76.0018 54.8899C77.8938 53.5132 79.1015 50.8643 79.8583 48.1994C79.9231 47.9542 80.0721 47.7396 80.2793 47.5934C80.4865 47.4472 80.7386 47.3786 80.9913 47.3998C81.2441 47.4209 81.4813 47.5304 81.6613 47.709C81.8413 47.8876 81.9527 48.1239 81.9758 48.3765L83.586 63.714C83.6044 63.9023 83.5733 64.0921 83.4958 64.2647C83.4184 64.4372 83.2972 64.5866 83.1443 64.698C82.9915 64.8094 82.8122 64.879 82.6242 64.8999C82.4362 64.9207 82.246 64.8922 82.0724 64.817L67.9828 58.5613C67.7497 58.4615 67.5591 58.2828 67.4446 58.0566C67.33 57.8304 67.2989 57.571 67.3566 57.3241C67.4142 57.0772 67.557 56.8584 67.7599 56.7063C67.9627 56.5541 68.2127 56.4783 68.4659 56.4921C71.2355 56.5887 74.1017 56.2667 76.0179 54.8819" fill="#1CDBBC"/>
<path d="M192.969 53.6178C194.861 54.9946 197.799 55.3247 200.529 55.2281C200.782 55.2143 201.032 55.2901 201.235 55.4422C201.437 55.5944 201.58 55.8131 201.638 56.06C201.696 56.307 201.664 56.5663 201.55 56.7926C201.435 57.0188 201.245 57.1975 201.012 57.2972L186.922 63.553C186.748 63.6301 186.557 63.6601 186.368 63.6402C186.179 63.6202 185.998 63.5509 185.844 63.4393C185.69 63.3276 185.568 63.1775 185.49 63.0039C185.412 62.8303 185.381 62.6393 185.4 62.45L187.011 47.1527C187.037 46.904 187.149 46.6721 187.328 46.4968C187.506 46.3215 187.74 46.2138 187.989 46.1919C188.238 46.17 188.487 46.2354 188.694 46.3769C188.9 46.5184 189.051 46.7272 189.12 46.9675C189.925 49.6325 191.085 52.2894 192.977 53.6581" fill="#1CDBBC"/>
<path d="M231.326 46.7743C232.888 48.5133 235.65 49.4312 238.379 49.9142C238.624 49.9623 238.846 50.0942 239.004 50.2874C239.163 50.4805 239.25 50.7228 239.25 50.973C239.25 51.2231 239.163 51.4655 239.004 51.6586C238.846 51.8517 238.624 51.9836 238.379 52.0317L223.299 55.2522C223.113 55.2931 222.919 55.2841 222.738 55.2259C222.556 55.1677 222.394 55.0625 222.266 54.921C222.138 54.7795 222.051 54.6067 222.011 54.4202C221.972 54.2337 221.983 54.0402 222.043 53.8593L226.793 39.1981C226.867 38.9554 227.024 38.7465 227.237 38.6081C227.45 38.4698 227.704 38.4108 227.956 38.4416C228.208 38.4723 228.441 38.5908 228.614 38.7763C228.787 38.9618 228.889 39.2024 228.903 39.4557C229.088 42.2254 229.708 45.0916 231.318 46.8065" fill="#1CDBBC"/>
<path d="M37.0847 46.7743C35.4744 48.5133 32.7531 49.4311 30.0238 49.9142C29.7772 49.9574 29.5534 50.0851 29.3906 50.2752C29.2278 50.4653 29.1361 50.7061 29.1314 50.9564C29.1266 51.2066 29.209 51.4508 29.3645 51.6469C29.52 51.8431 29.7388 51.9791 29.9835 52.0317L45.0634 55.2522C45.2495 55.2931 45.4431 55.284 45.6246 55.2259C45.806 55.1677 45.9689 55.0625 46.0965 54.921C46.2241 54.7795 46.3119 54.6067 46.3511 54.4202C46.3902 54.2337 46.3793 54.0402 46.3194 53.8593L41.6094 39.1739C41.5355 38.9312 41.3784 38.7223 41.1658 38.584C40.9531 38.4456 40.6984 38.3866 40.4466 38.4174C40.1947 38.4481 39.9618 38.5667 39.7887 38.7522C39.6156 38.9376 39.5134 39.1782 39.5 39.4316C39.3149 42.2012 38.6949 45.0674 37.0847 46.7823" fill="#1CDBBC"/>
<path d="M103.908 40.9047C106.138 40.1881 108.095 38.0384 109.649 35.7358C109.787 35.5284 109.993 35.3753 110.232 35.3026C110.47 35.2298 110.726 35.2419 110.957 35.3368C111.187 35.4317 111.378 35.6035 111.496 35.823C111.614 36.0425 111.653 36.2962 111.605 36.5409L108.385 51.6208C108.346 51.8066 108.259 51.9789 108.132 52.1203C108.005 52.2616 107.843 52.367 107.663 52.4258C107.482 52.4846 107.29 52.4947 107.104 52.4552C106.918 52.4156 106.746 52.3278 106.605 52.2005L95.1325 41.9433C94.9478 41.775 94.8273 41.5479 94.7914 41.3007C94.7555 41.0535 94.8065 40.8015 94.9358 40.5877C95.065 40.3739 95.2644 40.2116 95.5 40.1284C95.7356 40.0453 95.9927 40.0465 96.2275 40.1318C98.8361 41.0737 101.686 41.6615 103.908 40.9369" fill="#1CDBBC"/>
<path d="M165.429 39.6732C167.659 40.3978 170.509 39.8101 173.109 38.8681C173.346 38.7781 173.606 38.7741 173.846 38.8567C174.085 38.9393 174.287 39.1034 174.418 39.3201C174.548 39.5369 174.598 39.7926 174.559 40.0426C174.52 40.2926 174.395 40.5209 174.204 40.6877L162.74 50.9932C162.599 51.1205 162.427 51.2083 162.241 51.2479C162.055 51.2875 161.863 51.2773 161.682 51.2185C161.502 51.1597 161.34 51.0543 161.213 50.913C161.086 50.7716 160.999 50.5993 160.96 50.4135L157.74 35.3337C157.692 35.0889 157.731 34.8353 157.849 34.6157C157.967 34.3962 158.158 34.2244 158.388 34.1295C158.619 34.0346 158.875 34.0225 159.113 34.0953C159.352 34.168 159.558 34.3211 159.696 34.5285C161.242 36.8231 163.206 38.9728 165.429 39.6974" fill="#1CDBBC"/>
<path d="M134.261 34.4641C136.603 34.4641 139.091 33.0229 141.313 31.316C141.512 31.1638 141.757 31.0846 142.007 31.092C142.257 31.0993 142.497 31.1927 142.686 31.3564C142.875 31.52 143.002 31.744 143.046 31.9904C143.089 32.2368 143.046 32.4906 142.924 32.7089L135.195 46.0497C135.1 46.2136 134.964 46.3496 134.8 46.4442C134.636 46.5387 134.45 46.5885 134.261 46.5885C134.071 46.5885 133.885 46.5387 133.721 46.4442C133.558 46.3496 133.421 46.2136 133.327 46.0497L125.606 32.7089C125.472 32.4909 125.42 32.2324 125.459 31.9797C125.498 31.727 125.626 31.4964 125.82 31.3291C126.013 31.1617 126.26 31.0686 126.515 31.0662C126.771 31.0638 127.019 31.1524 127.216 31.316C129.398 33.0229 131.926 34.4641 134.269 34.4641" fill="#1CDBBC"/>
<path d="M211.245 28.514C213.137 29.8907 216.027 30.2128 218.797 30.1242C219.046 30.1153 219.292 30.1934 219.49 30.3452C219.689 30.4969 219.828 30.7129 219.885 30.9562C219.943 31.1995 219.913 31.4551 219.803 31.6793C219.692 31.9034 219.508 32.0823 219.28 32.1853L205.19 38.4411C205.017 38.5184 204.827 38.5488 204.639 38.5294C204.451 38.5099 204.271 38.4413 204.118 38.3303C203.964 38.2194 203.843 38.07 203.765 37.8973C203.688 37.7245 203.657 37.5345 203.677 37.3461L205.287 22.0489C205.31 21.7963 205.421 21.56 205.601 21.3814C205.781 21.2028 206.019 21.0933 206.271 21.0721C206.524 21.051 206.776 21.1195 206.983 21.2658C207.191 21.412 207.34 21.6266 207.404 21.8718C208.161 24.5367 209.369 27.1855 211.261 28.5623" fill="#1CDBBC"/>
<path d="M57.1548 28.514C55.2627 29.8907 52.3724 30.2128 49.6028 30.1242C49.353 30.1153 49.1079 30.1934 48.9093 30.3452C48.7108 30.4969 48.5711 30.7129 48.514 30.9562C48.457 31.1995 48.4862 31.4551 48.5967 31.6793C48.7072 31.9034 48.892 32.0823 49.1197 32.1853L63.2093 38.4411C63.3821 38.5184 63.5722 38.5488 63.7605 38.5294C63.9488 38.5099 64.1287 38.4413 64.282 38.3303C64.4354 38.2194 64.5569 38.07 64.6343 37.8973C64.7117 37.7245 64.7422 37.5345 64.7229 37.3461L63.1127 22.0489C63.0896 21.7963 62.9782 21.56 62.7982 21.3814C62.6182 21.2028 62.381 21.0933 62.1282 21.0721C61.8755 21.051 61.6234 21.1195 61.4162 21.2658C61.209 21.412 61.06 21.6266 60.9952 21.8718C60.2384 24.5367 59.0307 27.1855 57.1387 28.5623" fill="#1CDBBC"/>
<path d="M187.335 14.5695C189.477 15.5195 192.375 15.2377 195.056 14.5695C195.299 14.5083 195.556 14.5333 195.782 14.6404C196.008 14.7474 196.19 14.9297 196.296 15.1562C196.403 15.3826 196.428 15.6391 196.366 15.8816C196.304 16.1242 196.16 16.3377 195.958 16.4857L183.479 25.5352C183.326 25.6464 183.146 25.7154 182.958 25.7353C182.77 25.7552 182.58 25.7254 182.407 25.6487C182.234 25.572 182.085 25.4513 181.973 25.2985C181.862 25.1458 181.792 24.9664 181.772 24.7784L180.162 9.44087C180.141 9.19249 180.206 8.94449 180.346 8.73845C180.487 8.53241 180.693 8.38084 180.932 8.30913C181.171 8.23743 181.427 8.24995 181.658 8.34459C181.888 8.43923 182.079 8.61023 182.199 8.82897C183.495 11.2443 185.226 13.6194 187.36 14.5695" fill="#1CDBBC"/>
<path d="M81.1002 14.5695C78.9586 15.5195 76.0682 15.2377 73.3791 14.5695C73.1365 14.5083 72.88 14.5333 72.6538 14.6404C72.4276 14.7474 72.2456 14.9297 72.1391 15.1562C72.0325 15.3826 72.008 15.6391 72.0697 15.8816C72.1315 16.1242 72.2756 16.3377 72.4774 16.4857L84.9568 25.5352C85.1097 25.6464 85.2892 25.7154 85.4773 25.7353C85.6654 25.7552 85.8554 25.7254 86.0283 25.6487C86.2012 25.572 86.3509 25.4513 86.4624 25.2985C86.5739 25.1458 86.6433 24.9664 86.6636 24.7784L88.2738 9.44087C88.2947 9.19249 88.2294 8.94449 88.0892 8.73845C87.9489 8.53241 87.7421 8.38084 87.5034 8.30913C87.2647 8.23743 87.0086 8.24995 86.778 8.34459C86.5474 8.43923 86.3564 8.61023 86.2369 8.82897C84.9406 11.2443 83.2096 13.6194 81.0761 14.5695" fill="#1CDBBC"/>
<path d="M161.492 6.26081C163.778 6.74388 166.556 5.8663 169.044 4.65057C169.269 4.53829 169.526 4.50825 169.771 4.56563C170.016 4.62301 170.233 4.76423 170.385 4.96483C170.537 5.16542 170.614 5.41278 170.603 5.66414C170.592 5.91551 170.493 6.15505 170.324 6.34133L159.962 17.7901C159.835 17.9308 159.674 18.0358 159.494 18.0944C159.314 18.1531 159.122 18.1633 158.937 18.1241C158.751 18.085 158.58 17.9978 158.439 17.8713C158.298 17.7449 158.193 17.5836 158.134 17.4037L153.352 2.74244C153.272 2.50297 153.279 2.24312 153.371 2.00811C153.463 1.7731 153.635 1.57781 153.856 1.45621C154.077 1.33462 154.334 1.29441 154.582 1.3426C154.829 1.39079 155.052 1.52432 155.212 1.71995C156.991 3.84546 159.173 5.74554 161.459 6.26887" fill="#1CDBBC"/>
<path d="M106.911 6.26081C104.625 6.74388 101.847 5.8663 99.3591 4.65057C99.1339 4.53829 98.8766 4.50825 98.6316 4.56563C98.3866 4.62301 98.1694 4.76423 98.0175 4.96483C97.8657 5.16542 97.7886 5.41278 97.7998 5.66414C97.8111 5.91551 97.9098 6.15505 98.079 6.34133L108.433 17.7901C108.559 17.9308 108.721 18.0358 108.901 18.0944C109.081 18.1531 109.273 18.1633 109.458 18.1241C109.643 18.085 109.815 17.9978 109.956 17.8713C110.097 17.7449 110.202 17.5836 110.26 17.4037L115.043 2.74244C115.123 2.50297 115.116 2.24312 115.024 2.00811C114.932 1.7731 114.76 1.57781 114.539 1.45621C114.318 1.33462 114.061 1.29441 113.813 1.3426C113.565 1.39079 113.342 1.52432 113.183 1.71995C111.404 3.84546 109.23 5.74554 106.935 6.26887" fill="#1CDBBC"/>
<path d="M134.262 3.16084C131.919 3.16084 129.391 1.71969 127.209 0.0128415C127.012 -0.150841 126.764 -0.239397 126.508 -0.237014C126.253 -0.234631 126.006 -0.141477 125.813 0.0258392C125.619 0.193155 125.492 0.423752 125.452 0.676485C125.413 0.929217 125.465 1.18764 125.599 1.40568L133.32 14.7465C133.414 14.9103 133.551 15.0464 133.715 15.1409C133.879 15.2355 134.064 15.2853 134.254 15.2853C134.443 15.2853 134.629 15.2355 134.793 15.1409C134.957 15.0464 135.093 14.9103 135.188 14.7465L142.917 1.40568C143.039 1.18733 143.082 0.933546 143.039 0.687148C142.995 0.440751 142.868 0.216826 142.679 0.0531614C142.49 -0.110503 142.25 -0.203891 142 -0.211239C141.75 -0.218588 141.505 -0.13943 141.307 0.0128415C139.125 1.71969 136.597 3.16084 134.254 3.16084" fill="#1CDBBC"/>
</svg>
