<svg width="129" height="131" viewBox="0 0 129 131" fill="none" xmlns="http://www.w3.org/2000/svg">
<g clip-path="url(#clip0_3974_32950)">
<path d="M50.952 53.0998H50.4701V28.9227H43.8162V28.4396H50.952V53.0998Z" fill="#8BF5E3"/>
<path d="M54.6115 50.6763H50.801V51.1594H54.6115V50.6763Z" fill="#8BF5E3"/>
<path d="M54.8525 56.4653H54.3706V22.578H68.9139V53.0096H68.4319V23.0611H54.8525V56.4653Z" fill="#8BF5E3"/>
<path d="M86.4226 59.3752H85.9406V38.7118L80.4851 34.4911L74.9926 38.6715V48.5217H68.6729V48.0386H74.5107V38.4316L80.4883 33.8824L86.4226 38.4734V59.3752Z" fill="#8BF5E3"/>
<path d="M90.323 57.2527H86.2715V56.7697H89.841V29.3075H92.8033V29.7906H90.323V57.2527Z" fill="#8BF5E3"/>
<path d="M80.7275 27.0934H80.2456V34.1868H80.7275V27.0934Z" fill="#8BF5E3"/>
<path d="M80.7275 39.1707H80.2456V41.1111H80.7275V39.1707Z" fill="#8BF5E3"/>
<path d="M77.5147 39.1707H77.0327V41.1111H77.5147V39.1707Z" fill="#8BF5E3"/>
<path d="M83.9404 39.1707H83.4585V41.1111H83.9404V39.1707Z" fill="#8BF5E3"/>
<path d="M80.7275 42.3912H80.2456V44.3317H80.7275V42.3912Z" fill="#8BF5E3"/>
<path d="M77.5147 42.3912H77.0327V44.3317H77.5147V42.3912Z" fill="#8BF5E3"/>
<path d="M83.9404 42.3912H83.4585V44.3317H83.9404V42.3912Z" fill="#8BF5E3"/>
<path d="M80.7275 45.6118H80.2456V47.5522H80.7275V45.6118Z" fill="#8BF5E3"/>
<path d="M77.5147 45.6118H77.0327V47.5522H77.5147V45.6118Z" fill="#8BF5E3"/>
<path d="M83.9404 45.6118H83.4585V47.5522H83.9404V45.6118Z" fill="#8BF5E3"/>
<path d="M80.7275 48.8325H80.2456V50.7729H80.7275V48.8325Z" fill="#8BF5E3"/>
<path d="M77.5147 48.8325H77.0327V50.7729H77.5147V48.8325Z" fill="#8BF5E3"/>
<path d="M83.9404 48.8325H83.4585V50.7729H83.9404V48.8325Z" fill="#8BF5E3"/>
<path d="M80.7275 52.0531H80.2456V53.9935H80.7275V52.0531Z" fill="#8BF5E3"/>
<path d="M77.5147 52.0531H77.0327V53.9935H77.5147V52.0531Z" fill="#8BF5E3"/>
<path d="M83.9404 52.0531H83.4585V53.9935H83.9404V52.0531Z" fill="#8BF5E3"/>
<path d="M80.7275 55.2737H80.2456V57.2141H80.7275V55.2737Z" fill="#8BF5E3"/>
<path d="M77.5147 55.2737H77.0327V57.2141H77.5147V55.2737Z" fill="#8BF5E3"/>
<path d="M83.9404 55.2737H83.4585V57.2141H83.9404V55.2737Z" fill="#8BF5E3"/>
<path d="M80.7275 58.4943H80.2456V60.4347H80.7275V58.4943Z" fill="#8BF5E3"/>
<path d="M77.5147 58.4943H77.0327V60.4347H77.5147V58.4943Z" fill="#8BF5E3"/>
<path d="M83.9404 58.4943H83.4585V60.4347H83.9404V58.4943Z" fill="#8BF5E3"/>
<path d="M80.7275 61.715H80.2456V63.6554H80.7275V61.715Z" fill="#8BF5E3"/>
<path d="M59.5706 22.9098H59.0886V66.103H59.5706V22.9098Z" fill="#8BF5E3"/>
<path d="M59.3281 24.6698H57.1514V25.1529H59.3281V24.6698Z" fill="#8BF5E3"/>
<path d="M59.3281 26.6022H57.6333V27.0853H59.3281V26.6022Z" fill="#8BF5E3"/>
<path d="M59.3281 28.5345H58.2759V29.0176H59.3281V28.5345Z" fill="#8BF5E3"/>
<path d="M64.1394 22.9098H63.6575V66.103H64.1394V22.9098Z" fill="#8BF5E3"/>
<path d="M66.0752 24.6698H63.8984V25.1529H66.0752V24.6698Z" fill="#8BF5E3"/>
<path d="M65.5932 26.6022H63.8984V27.0853H65.5932V26.6022Z" fill="#8BF5E3"/>
<path d="M64.9507 28.5345H63.8984V29.0176H64.9507V28.5345Z" fill="#8BF5E3"/>
<path d="M48.5022 31.0032H48.0203V32.8212H48.5022V31.0032Z" fill="#8BF5E3"/>
<path d="M48.5022 34.2238H48.0203V36.0418H48.5022V34.2238Z" fill="#8BF5E3"/>
<path d="M48.5022 37.4443H48.0203V39.2624H48.5022V37.4443Z" fill="#8BF5E3"/>
<path d="M48.5022 40.665H48.0203V42.4831H48.5022V40.665Z" fill="#8BF5E3"/>
<path d="M46.0925 31.0032H45.6106V32.8212H46.0925V31.0032Z" fill="#8BF5E3"/>
<path d="M46.0925 34.2238H45.6106V36.0418H46.0925V34.2238Z" fill="#8BF5E3"/>
<path d="M92.8033 21.3332H82.5525V20.8501C82.9284 20.8501 83.269 20.6327 83.6288 20.4041C83.9951 20.1706 84.3742 19.929 84.8369 19.8807C84.9349 19.8711 85.0345 19.8646 85.1341 19.8582C85.3654 19.8453 85.5855 19.8324 85.7799 19.7616C86.0497 19.6633 86.2746 19.4556 86.514 19.2334C86.7566 19.0079 87.0088 18.7744 87.3333 18.636C87.6674 18.4926 88.0177 18.4749 88.355 18.4572C88.5928 18.4443 88.8161 18.4331 89.0265 18.3799C89.4988 18.2608 89.8924 17.9371 90.3085 17.5925C90.3936 17.5216 90.4787 17.4524 90.5655 17.3831C91.2482 16.8389 91.8539 16.607 92.4161 16.6762C92.4627 16.6021 92.5414 16.5571 92.6298 16.5522C92.7471 16.5474 92.8659 16.6215 92.9222 16.7374C92.9768 16.8501 92.9607 16.9757 92.882 17.0659C92.7406 17.2286 92.5318 17.1867 92.4418 17.169C91.9952 17.0788 91.478 17.272 90.8643 17.7616C90.7808 17.8276 90.6972 17.8968 90.6137 17.9661C90.1751 18.3284 89.7205 18.702 89.1422 18.8485C88.8867 18.9129 88.6281 18.9258 88.3775 18.9387C88.0675 18.9548 87.7767 18.9693 87.5213 19.0788C87.2723 19.1851 87.0618 19.3815 86.8385 19.5877C86.5751 19.8324 86.3036 20.0836 85.9405 20.2141C85.6803 20.3091 85.4152 20.3236 85.1598 20.3381C85.0682 20.3429 84.975 20.3493 84.8835 20.3574C84.5349 20.3928 84.2184 20.5941 83.8842 20.8083C83.8634 20.8211 83.8441 20.834 83.8232 20.8469H92.8001V21.33L92.8033 21.3332ZM92.4997 16.7761C92.4675 16.8292 92.4627 16.8968 92.4884 16.95C92.5205 17.0176 92.5961 17.0385 92.6523 17.0369C92.7358 17.0337 92.8113 16.979 92.8386 16.9033L92.4997 16.7761Z" fill="#8BF5E3"/>
<path d="M59.0501 18.971C59.0164 18.971 58.981 18.971 58.9473 18.9693H37.7373V18.4863H57.3617C56.9473 18.2624 56.5505 17.9854 56.1601 17.7133C55.5368 17.2785 54.8926 16.8292 54.2083 16.6199C53.3022 16.3445 52.2934 16.446 51.3182 16.5442C50.1471 16.6618 48.9359 16.7842 47.8371 16.2769C47.1688 15.9677 46.6226 15.4573 46.094 14.9645C45.4225 14.3381 44.788 13.7455 43.9607 13.5893C43.2908 13.4637 42.6177 13.6521 41.9044 13.8502C41.3486 14.0064 40.7719 14.1674 40.1791 14.1755C39.2779 14.1851 38.4184 13.8437 37.6602 13.5394L37.8385 13.0901C38.555 13.3768 39.3662 13.7069 40.1727 13.6924C40.7028 13.6859 41.2233 13.5394 41.7743 13.3848C42.5084 13.1787 43.2683 12.9661 44.049 13.1143C45.0129 13.2962 45.7294 13.9645 46.4218 14.6102C46.923 15.0772 47.4419 15.5619 48.0395 15.8373C49.0178 16.2898 50.1118 16.1787 51.27 16.0627C52.2918 15.9597 53.3504 15.8534 54.348 16.1561C55.1047 16.3864 55.781 16.8582 56.4348 17.3139C57.2686 17.8953 58.0589 18.4476 58.9537 18.4846H59.1449L59.1545 18.9677C59.1192 18.9677 59.0838 18.9693 59.0469 18.9693L59.0501 18.971Z" fill="#8BF5E3"/>
<path d="M125.916 119.997H92.4723V11.4219H37.9797V21.7279H37.4978V10.9388H92.9543V119.514H125.916V119.997Z" fill="#8BF5E3"/>
<path d="M21.5908 119.514H3.44751V119.997H21.5908V119.514Z" fill="#8BF5E3"/>
<path d="M129 112.058H92.5317V112.541H129V112.058Z" fill="#8BF5E3"/>
<path d="M21.5908 112.058H0V112.541H21.5908V112.058Z" fill="#8BF5E3"/>
<path d="M21.3081 129.498V52.0548H21.79V128.565L29.5958 123.035L29.8737 123.43L21.3081 129.498Z" fill="#8BF5E3"/>
<path d="M21.79 37.8229H21.3081V44.211H21.79V37.8229Z" fill="#8BF5E3"/>
<path d="M21.79 32.5942H21.3081V0L37.8707 10.9775L37.6056 11.3816L21.79 0.898551V32.5942Z" fill="#8BF5E3"/>
<path d="M25.0156 66.3913C24.0196 66.3913 23.21 65.5797 23.21 64.5813V63.0805C23.21 62.0821 24.0196 61.2705 25.0156 61.2705C26.0116 61.2705 26.8213 62.0821 26.8213 63.0805V64.5813C26.8213 65.5797 26.0116 66.3913 25.0156 66.3913ZM25.0156 61.7536C24.2863 61.7536 23.6919 62.3494 23.6919 63.0805V64.5813C23.6919 65.3124 24.2863 65.9082 25.0156 65.9082C25.7449 65.9082 26.3393 65.3124 26.3393 64.5813V63.0805C26.3393 62.3494 25.7449 61.7536 25.0156 61.7536Z" fill="#8BF5E3"/>
<path d="M20.8389 66.3913C19.8429 66.3913 19.0332 65.5797 19.0332 64.5813V63.0805C19.0332 62.0821 19.8429 61.2705 20.8389 61.2705C21.083 61.2705 21.3192 61.3188 21.5425 61.4122L21.3545 61.8567C21.1907 61.7874 21.0188 61.752 20.8389 61.752C20.1095 61.752 19.5151 62.3478 19.5151 63.0789V64.5797C19.5151 65.3108 20.1095 65.9066 20.8389 65.9066C21.0927 65.9066 21.3385 65.8341 21.5505 65.6988L21.8092 66.1063C21.52 66.2914 21.1842 66.3897 20.8389 66.3897V66.3913Z" fill="#8BF5E3"/>
<path d="M34.2593 36.9147H33.7773V25.7408C33.7773 23.4445 35.6408 21.5765 37.93 21.5765H38.5823C38.82 21.5765 39.0883 21.5765 39.9542 21.6442C40.3992 21.6796 41.1429 21.8905 42.2273 22.2899C42.5438 22.4058 42.7831 22.4509 44.0024 22.6699C44.1808 22.7021 44.5968 22.7762 44.629 23.1031C44.6595 23.4026 44.396 23.686 42.9663 24.2545L42.7896 23.8052C43.6105 23.4799 43.9398 23.2835 44.0715 23.1804C44.033 23.1691 43.9832 23.1579 43.9173 23.1466C42.7125 22.9292 42.4265 22.8793 42.0602 22.744C41.0321 22.3656 40.3092 22.1562 39.9156 22.1257C39.069 22.0596 38.8104 22.0596 38.5823 22.0596H37.93C35.9059 22.0596 34.2593 23.7102 34.2593 25.7408V36.9147Z" fill="#8BF5E3"/>
<path d="M40.428 36.9146H39.946V33.6715H42.4184C42.8569 33.6715 43.212 33.314 43.212 32.876V29.7311H43.8096C43.877 29.7311 43.914 29.6876 43.9268 29.6683C43.9397 29.6489 43.9654 29.599 43.9413 29.5362L43.2136 27.715V25.7407C43.2136 25.029 43.1075 24.8019 42.7525 24.2737H41.469C41.0786 24.2737 40.7621 24.591 40.7621 24.9823V26.9839C40.7621 27.3849 40.4376 27.7101 40.0376 27.7101C39.6376 27.7101 39.3131 27.3849 39.3131 26.9839V26.8518C39.3131 26.5008 39.0271 26.2142 38.6769 26.2142C38.3267 26.2142 38.0408 26.5008 38.0408 26.8518V28.7939C38.0408 29.1449 38.3267 29.4316 38.6769 29.4316H38.8279C39.0946 29.4316 39.3131 29.2142 39.3131 28.9452H39.795C39.795 29.4799 39.3613 29.9146 38.8279 29.9146H38.6769C38.0601 29.9146 37.5588 29.4122 37.5588 28.7939V26.8518C37.5588 26.2335 38.0601 25.7311 38.6769 25.7311C39.2938 25.7311 39.795 26.2335 39.795 26.8518V26.9839C39.795 27.1175 39.9043 27.227 40.0376 27.227C40.1709 27.227 40.2802 27.1175 40.2802 26.9839V24.9823C40.2802 24.3253 40.8135 23.7906 41.469 23.7906H43.0063L43.0786 23.8953C43.5349 24.5668 43.6955 24.8776 43.6955 25.7407V27.6232L44.3895 29.3591C44.4666 29.5523 44.4425 29.7697 44.3268 29.9404C44.2112 30.1111 44.0184 30.2142 43.8112 30.2142H43.6955V32.876C43.6955 33.5813 43.1236 34.1546 42.42 34.1546H40.4296V36.9146H40.428Z" fill="#8BF5E3"/>
<path d="M36.3734 31.219H34.1099V30.7359H36.3734C37.1268 30.7359 37.7388 30.1224 37.7388 29.3672H38.2208C38.2208 30.3881 37.3919 31.219 36.3734 31.219Z" fill="#8BF5E3"/>
<path d="M50.5905 69.4734L44.0281 57.4879C43.5558 56.6248 43.2136 55.6972 43.0128 54.7326L40.8891 44.5104L41.3614 44.4122L43.4851 54.6344C43.6763 55.5523 44.0008 56.4347 44.4506 57.256L50.7704 68.7987L54.4235 66.5587L48.2739 53.3913L48.2675 53.3639L45.4964 39.9017C45.1638 38.2834 43.7245 37.1078 42.0762 37.1078H30.9178C30.0359 37.1078 29.1925 37.4396 28.5451 38.0402L19.2774 46.6409L18.9497 46.2866L28.2173 37.6859C28.9547 37.0016 29.9138 36.6248 30.9178 36.6248H42.0762C43.9526 36.6248 45.5896 37.9613 45.9687 39.8035L48.735 53.2367L55.0436 66.7439L50.5921 69.475L50.5905 69.4734Z" fill="#8BF5E3"/>
<path d="M55.6589 77.3752C55.2509 77.3752 54.8541 77.1144 54.5055 76.6168C53.8693 75.7053 53.5609 74.628 53.2637 73.5878C53.1384 73.1514 53.0099 72.6989 52.8588 72.2689C52.4396 71.0757 51.8227 69.9743 51.0259 68.992L51.4002 68.6876C52.2307 69.7118 52.8749 70.8631 53.3135 72.1079C53.4693 72.5507 53.601 73.0097 53.7279 73.4541C54.0283 74.5024 54.3111 75.4944 54.9023 76.3398C55.0838 76.6007 55.3649 76.9034 55.683 76.8921C55.7713 76.8873 55.8693 76.8567 55.9722 76.8245C56.1007 76.7842 56.2469 76.7392 56.4075 76.7359C56.4943 76.7327 56.573 76.744 56.6437 76.7536C56.7352 76.7649 56.8155 76.7762 56.8734 76.7585C57.0164 76.7166 57.0886 76.4815 57.124 76.2915C57.5577 74.0081 56.5955 71.6313 55.6605 69.5829C55.246 68.6763 54.8123 67.7601 54.3705 66.8583L54.8027 66.6458C55.246 67.5524 55.683 68.4718 56.0975 69.3833C57.0645 71.4992 58.0573 73.9598 57.5963 76.3817C57.5079 76.8486 57.3103 77.1305 57.0099 77.2206C56.8541 77.2673 56.7095 77.248 56.581 77.2319C56.5216 77.2239 56.4637 77.2158 56.4155 77.2174C56.324 77.219 56.2212 77.2512 56.1135 77.285C55.9914 77.3237 55.8533 77.3656 55.7039 77.3736C55.6878 77.3736 55.6734 77.3736 55.6573 77.3736L55.6589 77.3752Z" fill="#8BF5E3"/>
<path d="M19.3868 53.0999C18.7024 53.0999 18.0181 52.8825 17.443 52.4429C16.3923 51.6409 15.9393 50.248 16.312 48.9791L19.1924 39.182L21.729 40.0516L21.5732 40.5089L19.5137 39.802L16.7747 49.116C16.4582 50.1949 16.8438 51.3785 17.7353 52.0596C18.7715 52.8519 20.2286 52.7955 21.2005 51.9276L29.1926 44.8084L29.5123 45.1691L21.5202 52.2883C20.9161 52.8277 20.1515 53.1015 19.3868 53.1015V53.0999Z" fill="#8BF5E3"/>
<path d="M19.586 39.5539L19.1201 39.4283L19.5346 37.8824V31.8518C19.5346 30.7166 20.4567 29.7922 21.5892 29.7922V30.2753C20.7218 30.2753 20.0165 30.9823 20.0165 31.8518V37.9468L19.5844 39.5539H19.586Z" fill="#8BF5E3"/>
<path d="M20.8679 38.4976L20.6382 38.0725C20.8952 37.9324 21.6101 37.4976 21.8318 37.1707C22.0181 36.8954 22.0551 36.5234 22.0776 36.1659C22.1338 35.2368 22.1225 34.2947 22.0438 33.3672C22.0181 33.0645 21.9458 32.8841 21.8334 32.8438C21.7386 32.81 21.594 32.8889 21.5217 33.0145C21.427 33.1772 21.4141 33.4058 21.4012 33.6071C21.3659 34.2046 21.3788 35.2641 21.3788 35.2738L20.8968 35.2802C20.8968 35.2368 20.884 34.1917 20.9193 33.5781C20.9338 33.3366 20.9514 33.0355 21.1024 32.773C21.2663 32.4896 21.6358 32.2593 21.9956 32.3897C22.4567 32.5572 22.5049 33.1369 22.5209 33.3269C22.6013 34.2786 22.6125 35.2432 22.5547 36.1965C22.529 36.6216 22.4824 37.0677 22.227 37.4445C21.9009 37.926 20.9707 38.4413 20.8647 38.4992L20.8679 38.4976Z" fill="#8BF5E3"/>
<path d="M44.6931 61.9194H29.827L28.9097 40.9565L29.3916 40.9355L30.288 61.4363H44.2096L44.1919 57.8631L44.6738 57.8599L44.6931 61.9194Z" fill="#8BF5E3"/>
<path d="M46.0876 126.908L46.0812 126.425L52.8845 126.338L44.2129 61.7118L44.69 61.6458L53.4356 126.813L46.0876 126.908Z" fill="#8BF5E3"/>
<path d="M61.0533 131H46.7944L35.7146 74.1965L33.4431 73.3833L33.6054 72.9292L36.1355 73.8358L47.1912 130.519H60.8155C60.7914 130.103 60.3834 129.746 59.5689 129.422L53.0049 126.826L53.1816 126.377L59.7456 128.973C60.1263 129.124 61.2798 129.58 61.2975 130.533C61.3537 130.594 61.3794 130.678 61.3617 130.763C61.3344 130.899 61.2011 131.002 61.0533 131.002V131Z" fill="#8BF5E3"/>
<path d="M29.7017 126.908L29.6953 126.425L36.2239 126.338L38.1324 86.4622L38.6144 86.4847L36.6834 126.815L29.7017 126.908Z" fill="#8BF5E3"/>
<path d="M44.3462 131H29.562V130.759L29.4239 74.3302C27.925 70.1756 28.0825 65.6249 29.8689 61.5089L30.3106 61.7021C28.5676 65.7166 28.4182 70.1579 29.8913 74.2062L29.9058 74.2464V74.2883L30.044 130.519H44.1085C44.0844 130.103 43.6763 129.746 42.8619 129.422L36.2979 126.826L36.4746 126.377L43.0386 128.973C43.4193 129.124 44.5727 129.58 44.5904 130.533C44.6466 130.594 44.6723 130.678 44.6547 130.763C44.6274 130.899 44.494 131.002 44.3462 131.002V131Z" fill="#8BF5E3"/>
</g>
<defs>
<clipPath id="clip0_3974_32950">
<rect width="129" height="131" fill="white"/>
</clipPath>
</defs>
</svg>
