<svg width="212" height="320" viewBox="0 0 212 320" fill="none" xmlns="http://www.w3.org/2000/svg">
<g clip-path="url(#clip0_1723_4230)">
<path d="M175.73 312.578C175.497 314.786 174.569 316.864 173.078 318.511C172.958 318.678 172.898 318.881 172.907 319.086C172.915 319.292 172.993 319.488 173.127 319.645C173.26 319.801 173.443 319.908 173.644 319.949C173.846 319.989 174.056 319.961 174.24 319.869L185.504 313.3C185.64 313.218 185.752 313.103 185.831 312.965C185.909 312.827 185.95 312.671 185.95 312.512C185.95 312.353 185.909 312.197 185.831 312.059C185.752 311.921 185.64 311.806 185.504 311.724L174.24 305.155C174.056 305.063 173.846 305.035 173.644 305.075C173.443 305.116 173.26 305.223 173.127 305.379C172.993 305.535 172.915 305.732 172.907 305.938C172.898 306.143 172.958 306.346 173.078 306.513C174.569 308.16 175.497 310.238 175.73 312.446" fill="#1CDBBC"/>
<path d="M124.648 312.578C124.415 314.786 123.487 316.864 121.997 318.511C121.877 318.678 121.816 318.881 121.825 319.086C121.834 319.292 121.911 319.488 122.045 319.645C122.179 319.801 122.361 319.908 122.563 319.949C122.765 319.989 122.974 319.961 123.158 319.869L134.422 313.3C134.558 313.218 134.671 313.103 134.749 312.965C134.827 312.827 134.868 312.671 134.868 312.512C134.868 312.353 134.827 312.197 134.749 312.059C134.671 311.921 134.558 311.806 134.422 311.724L123.158 305.155C122.974 305.063 122.765 305.035 122.563 305.075C122.361 305.116 122.179 305.223 122.045 305.379C121.911 305.535 121.834 305.732 121.825 305.938C121.816 306.143 121.877 306.346 121.997 306.513C123.487 308.16 124.415 310.238 124.648 312.446" fill="#1CDBBC"/>
<path d="M73.5665 312.578C73.3337 314.786 72.4052 316.864 70.9149 318.511C70.7949 318.678 70.7345 318.881 70.7433 319.086C70.752 319.292 70.8294 319.488 70.9632 319.645C71.0969 319.801 71.2793 319.908 71.481 319.949C71.6828 319.989 71.8925 319.961 72.0764 319.869L83.3403 313.3C83.4764 313.218 83.5889 313.103 83.6672 312.965C83.7454 312.827 83.7865 312.671 83.7865 312.512C83.7865 312.353 83.7454 312.197 83.6672 312.059C83.5889 311.921 83.4764 311.806 83.3403 311.724L72.0764 305.155C71.8925 305.063 71.6828 305.035 71.481 305.075C71.2793 305.116 71.0969 305.223 70.9632 305.379C70.8294 305.535 70.752 305.732 70.7433 305.938C70.7345 306.143 70.7949 306.346 70.9149 306.513C72.4052 308.16 73.3337 310.238 73.5665 312.446" fill="#1CDBBC"/>
<path d="M20.9086 312.578C20.667 314.784 19.7398 316.859 18.257 318.511C18.1371 318.678 18.0765 318.881 18.0853 319.086C18.0941 319.292 18.1716 319.488 18.3053 319.645C18.4391 319.801 18.6214 319.908 18.8232 319.949C19.025 319.989 19.2345 319.961 19.4184 319.869L30.6823 313.3C30.8184 313.218 30.9311 313.103 31.0093 312.965C31.0875 312.827 31.1286 312.671 31.1286 312.512C31.1286 312.353 31.0875 312.197 31.0093 312.059C30.9311 311.921 30.8184 311.806 30.6823 311.724L19.4184 305.155C19.2345 305.063 19.025 305.035 18.8232 305.075C18.6214 305.116 18.4391 305.223 18.3053 305.379C18.1716 305.535 18.0941 305.732 18.0853 305.938C18.0765 306.143 18.1371 306.346 18.257 306.513C19.7398 308.165 20.667 310.24 20.9086 312.446" fill="#1CDBBC"/>
<path d="M48.014 312.577C47.7811 314.786 46.8527 316.863 45.3624 318.511C45.2349 318.679 45.1691 318.886 45.1764 319.097C45.1836 319.308 45.2633 319.511 45.4022 319.67C45.541 319.829 45.7305 319.936 45.9388 319.972C46.147 320.008 46.3613 319.971 46.5457 319.868L57.7877 313.3C57.9295 313.223 58.0478 313.109 58.1302 312.97C58.2127 312.831 58.2562 312.673 58.2562 312.512C58.2562 312.35 58.2127 312.192 58.1302 312.053C58.0478 311.914 57.9295 311.801 57.7877 311.723L46.5457 305.155C46.3613 305.052 46.147 305.015 45.9388 305.051C45.7305 305.087 45.541 305.194 45.4022 305.353C45.2633 305.512 45.1836 305.715 45.1764 305.926C45.1691 306.137 45.2349 306.344 45.3624 306.512C46.8527 308.16 47.7811 310.237 48.014 312.446" fill="#1CDBBC"/>
<path d="M201.282 312.578C201.041 314.784 200.114 316.859 198.631 318.511C198.478 318.672 198.389 318.884 198.384 319.106C198.378 319.328 198.454 319.545 198.599 319.713C198.743 319.882 198.945 319.992 199.166 320.02C199.386 320.049 199.609 319.995 199.792 319.869L211.034 313.3C211.176 313.223 211.294 313.109 211.377 312.97C211.459 312.832 211.503 312.673 211.503 312.512C211.503 312.351 211.459 312.192 211.377 312.054C211.294 311.915 211.176 311.801 211.034 311.724L199.792 305.155C199.609 305.029 199.386 304.975 199.166 305.004C198.945 305.032 198.743 305.142 198.599 305.311C198.454 305.479 198.378 305.696 198.384 305.918C198.389 306.14 198.478 306.352 198.631 306.513C200.114 308.165 201.041 310.24 201.282 312.446" fill="#1CDBBC"/>
<path d="M150.201 312.578C149.959 314.784 149.032 316.859 147.549 318.511C147.396 318.672 147.308 318.884 147.302 319.106C147.296 319.328 147.373 319.545 147.517 319.713C147.661 319.882 147.863 319.992 148.084 320.02C148.304 320.049 148.528 319.995 148.711 319.869L159.952 313.3C160.094 313.223 160.213 313.109 160.295 312.97C160.377 312.832 160.421 312.673 160.421 312.512C160.421 312.351 160.377 312.192 160.295 312.054C160.213 311.915 160.094 311.801 159.952 311.724L148.711 305.155C148.528 305.029 148.304 304.975 148.084 305.004C147.863 305.032 147.661 305.142 147.517 305.311C147.373 305.479 147.296 305.696 147.302 305.918C147.308 306.14 147.396 306.352 147.549 306.513C149.032 308.165 149.959 310.24 150.201 312.446" fill="#1CDBBC"/>
<path d="M99.1189 312.578C98.8773 314.784 97.9501 316.859 96.4674 318.511C96.3142 318.672 96.226 318.884 96.2201 319.106C96.2142 319.328 96.2909 319.545 96.4353 319.713C96.5798 319.882 96.7817 319.992 97.0022 320.02C97.2226 320.049 97.4459 319.995 97.6288 319.869L108.871 313.3C109.013 313.223 109.131 313.109 109.213 312.97C109.296 312.832 109.339 312.673 109.339 312.512C109.339 312.351 109.296 312.192 109.213 312.054C109.131 311.915 109.013 311.801 108.871 311.724L97.6288 305.155C97.4459 305.029 97.2226 304.975 97.0022 305.004C96.7817 305.032 96.5798 305.142 96.4353 305.311C96.2909 305.479 96.2142 305.696 96.2201 305.918C96.226 306.14 96.3142 306.352 96.4674 306.513C97.9501 308.165 98.8773 310.24 99.1189 312.446" fill="#1CDBBC"/>
<path d="M160.214 289.084C159.972 291.29 159.045 293.365 157.562 295.018C157.443 295.185 157.382 295.387 157.391 295.593C157.399 295.798 157.477 295.995 157.611 296.151C157.745 296.308 157.927 296.415 158.129 296.455C158.33 296.496 158.54 296.468 158.724 296.375L169.988 289.807C170.124 289.725 170.237 289.609 170.315 289.471C170.393 289.333 170.434 289.177 170.434 289.018C170.434 288.86 170.393 288.704 170.315 288.566C170.237 288.427 170.124 288.312 169.988 288.23L158.724 281.662C158.543 281.552 158.329 281.51 158.119 281.543C157.91 281.575 157.719 281.681 157.58 281.841C157.441 282 157.363 282.204 157.36 282.416C157.357 282.627 157.428 282.833 157.562 282.997C159.046 284.658 159.973 286.74 160.214 288.953" fill="#1CDBBC"/>
<path d="M109.026 289.084C108.793 291.293 107.864 293.37 106.374 295.018C106.254 295.185 106.194 295.387 106.203 295.593C106.211 295.798 106.289 295.995 106.423 296.151C106.556 296.308 106.739 296.415 106.94 296.455C107.142 296.496 107.352 296.468 107.536 296.375L118.8 289.807C118.936 289.725 119.048 289.609 119.126 289.471C119.205 289.333 119.246 289.177 119.246 289.018C119.246 288.86 119.205 288.704 119.126 288.566C119.048 288.427 118.936 288.312 118.8 288.23L107.536 281.662C107.354 281.552 107.14 281.51 106.931 281.543C106.722 281.575 106.531 281.681 106.392 281.841C106.253 282 106.175 282.204 106.172 282.416C106.169 282.627 106.24 282.833 106.374 282.997C107.866 284.652 108.795 286.737 109.026 288.953" fill="#1CDBBC"/>
<path d="M83.3395 289.084C83.0979 291.29 82.1706 293.365 80.6879 295.018C80.5346 295.179 80.4465 295.391 80.4406 295.613C80.4346 295.835 80.5113 296.051 80.6558 296.22C80.8002 296.389 81.0022 296.498 81.2226 296.527C81.4431 296.555 81.6663 296.501 81.8493 296.375L93.0912 289.807C93.233 289.729 93.3513 289.616 93.4337 289.477C93.5162 289.338 93.5597 289.18 93.5597 289.018C93.5597 288.857 93.5162 288.699 93.4337 288.56C93.3513 288.421 93.233 288.307 93.0912 288.23L81.8493 281.662C81.6681 281.552 81.454 281.51 81.2447 281.543C81.0354 281.575 80.8445 281.681 80.7055 281.841C80.5666 282 80.4886 282.204 80.4854 282.416C80.4821 282.627 80.5539 282.833 80.6879 282.997C82.171 284.658 83.0981 286.74 83.3395 288.953" fill="#1CDBBC"/>
<path d="M57.308 289.084C57.074 291.288 56.1543 293.363 54.6783 295.018C54.5251 295.179 54.4369 295.391 54.431 295.613C54.4251 295.835 54.5017 296.051 54.6462 296.22C54.7906 296.389 54.9926 296.498 55.213 296.527C55.4335 296.555 55.6567 296.501 55.8397 296.375L67.0816 289.807C67.2234 289.729 67.3417 289.616 67.4242 289.477C67.5066 289.338 67.5502 289.18 67.5502 289.018C67.5502 288.857 67.5066 288.699 67.4242 288.56C67.3417 288.421 67.2234 288.307 67.0816 288.23L55.8397 281.662C55.6585 281.552 55.4444 281.51 55.2351 281.543C55.0258 281.575 54.8349 281.681 54.6959 281.841C54.557 282 54.479 282.204 54.4758 282.416C54.4726 282.627 54.5443 282.833 54.6783 282.997C56.156 284.659 57.0756 286.742 57.308 288.953" fill="#1CDBBC"/>
<path d="M185.832 289.084C185.6 291.292 184.671 293.37 183.181 295.017C183.053 295.186 182.988 295.393 182.995 295.604C183.002 295.815 183.082 296.017 183.221 296.176C183.359 296.336 183.549 296.442 183.757 296.479C183.965 296.515 184.18 296.478 184.364 296.375L195.606 289.806C195.748 289.729 195.866 289.615 195.949 289.477C196.031 289.338 196.075 289.179 196.075 289.018C196.075 288.857 196.031 288.698 195.949 288.56C195.866 288.421 195.748 288.307 195.606 288.23L184.364 281.661C184.183 281.535 183.963 281.479 183.743 281.505C183.524 281.531 183.323 281.637 183.176 281.802C183.03 281.967 182.95 282.18 182.951 282.4C182.951 282.621 183.033 282.833 183.181 282.997C184.673 284.652 185.601 286.737 185.832 288.952" fill="#1CDBBC"/>
<path d="M134.576 289.084C134.343 291.292 133.414 293.37 131.924 295.017C131.796 295.186 131.731 295.393 131.738 295.604C131.745 295.815 131.825 296.017 131.964 296.176C132.103 296.336 132.292 296.442 132.5 296.479C132.709 296.515 132.923 296.478 133.107 296.375L144.349 289.806C144.491 289.729 144.609 289.615 144.692 289.477C144.774 289.338 144.818 289.179 144.818 289.018C144.818 288.857 144.774 288.698 144.692 288.56C144.609 288.421 144.491 288.307 144.349 288.23L133.107 281.661C132.927 281.535 132.706 281.479 132.487 281.505C132.267 281.531 132.066 281.637 131.919 281.802C131.773 281.967 131.693 282.18 131.694 282.4C131.695 282.621 131.777 282.833 131.924 282.997C133.416 284.652 134.344 286.737 134.576 288.952" fill="#1CDBBC"/>
<path d="M34.2093 282.493C32.2456 281.441 30.6597 279.803 29.673 277.808C29.5606 277.635 29.3936 277.505 29.1985 277.439C29.0034 277.372 28.7916 277.373 28.5971 277.441C28.4027 277.51 28.2368 277.641 28.1259 277.815C28.0151 277.988 27.9657 278.194 27.9858 278.399C28.6432 282.646 29.1691 286.894 29.7389 291.208C29.7656 291.364 29.8315 291.511 29.9304 291.635C30.0292 291.759 30.1578 291.856 30.3042 291.917C30.4507 291.978 30.6103 292.002 30.7681 291.985C30.9259 291.968 31.0769 291.911 31.2071 291.821C34.6257 289.171 38.132 286.544 41.5287 283.829C41.6883 283.695 41.798 283.512 41.8399 283.308C41.8818 283.105 41.8533 282.893 41.7592 282.707C41.6652 282.522 41.511 282.374 41.3219 282.287C41.1327 282.201 40.9199 282.181 40.7178 282.23C38.6141 283.034 36.3048 283.126 34.1436 282.493" fill="#1CDBBC"/>
<path d="M174.415 264.32C174.182 266.528 173.253 268.606 171.763 270.254C171.643 270.421 171.583 270.623 171.592 270.829C171.6 271.034 171.678 271.231 171.811 271.387C171.945 271.543 172.128 271.65 172.329 271.691C172.531 271.732 172.741 271.703 172.925 271.611L184.188 265.042C184.325 264.961 184.437 264.845 184.515 264.707C184.594 264.569 184.635 264.413 184.635 264.254C184.635 264.096 184.594 263.94 184.515 263.801C184.437 263.663 184.325 263.548 184.188 263.466L172.925 256.897C172.741 256.805 172.531 256.777 172.329 256.817C172.128 256.858 171.945 256.965 171.811 257.121C171.678 257.278 171.6 257.474 171.592 257.68C171.583 257.885 171.643 258.088 171.763 258.255C173.253 259.902 174.182 261.98 174.415 264.189" fill="#1CDBBC"/>
<path d="M119.216 264.32C118.983 266.528 118.054 268.606 116.564 270.254C116.444 270.421 116.384 270.623 116.392 270.829C116.401 271.034 116.478 271.231 116.612 271.387C116.746 271.543 116.928 271.65 117.13 271.691C117.332 271.732 117.541 271.703 117.725 271.611L128.989 265.042C129.125 264.961 129.238 264.845 129.316 264.707C129.394 264.569 129.435 264.413 129.435 264.254C129.435 264.096 129.394 263.94 129.316 263.801C129.238 263.663 129.125 263.548 128.989 263.466L117.725 256.897C117.541 256.805 117.332 256.777 117.13 256.817C116.928 256.858 116.746 256.965 116.612 257.121C116.478 257.278 116.401 257.474 116.392 257.68C116.384 257.885 116.444 258.088 116.564 258.255C118.054 259.902 118.983 261.98 119.216 264.189" fill="#1CDBBC"/>
<path d="M146.805 264.32C146.572 266.529 145.644 268.607 144.154 270.254C144.026 270.423 143.96 270.63 143.968 270.841C143.975 271.052 144.055 271.254 144.193 271.413C144.332 271.572 144.522 271.679 144.73 271.715C144.938 271.751 145.153 271.715 145.337 271.612L156.579 265.043C156.721 264.966 156.839 264.852 156.921 264.713C157.004 264.575 157.047 264.416 157.047 264.255C157.047 264.094 157.004 263.935 156.921 263.796C156.839 263.658 156.721 263.544 156.579 263.466L145.337 256.898C145.153 256.795 144.938 256.758 144.73 256.794C144.522 256.83 144.332 256.937 144.193 257.096C144.055 257.256 143.975 257.458 143.968 257.669C143.96 257.88 144.026 258.087 144.154 258.256C145.644 259.903 146.572 261.981 146.805 264.189" fill="#1CDBBC"/>
<path d="M93.6828 264.32C93.4412 266.526 92.5138 268.601 91.0311 270.254C90.8779 270.415 90.7899 270.627 90.7839 270.849C90.778 271.071 90.8547 271.287 90.9992 271.456C91.1436 271.625 91.3456 271.734 91.566 271.763C91.7864 271.792 92.0097 271.738 92.1926 271.611L103.435 265.043C103.576 264.966 103.695 264.852 103.777 264.713C103.86 264.574 103.903 264.416 103.903 264.255C103.903 264.093 103.86 263.935 103.777 263.796C103.695 263.658 103.576 263.544 103.435 263.466L92.1926 256.898C92.0097 256.772 91.7864 256.718 91.566 256.746C91.3456 256.775 91.1436 256.884 90.9992 257.053C90.8547 257.222 90.778 257.438 90.7839 257.66C90.7899 257.882 90.8779 258.094 91.0311 258.255C92.5138 259.908 93.4412 261.983 93.6828 264.189" fill="#1CDBBC"/>
<path d="M42.8641 259.854C40.8759 258.911 39.2242 257.383 38.1307 255.475C38.0192 255.3 37.8505 255.168 37.6532 255.104C37.4558 255.039 37.2421 255.044 37.0483 255.119C36.8546 255.194 36.6927 255.333 36.5904 255.514C36.488 255.695 36.4516 255.905 36.4871 256.11C37.2541 260.292 38.0868 264.561 38.6785 268.809C38.703 268.967 38.7691 269.115 38.8699 269.238C38.9708 269.362 39.1027 269.456 39.2522 269.512C39.4017 269.568 39.5634 269.583 39.7206 269.556C39.8778 269.528 40.0249 269.459 40.1467 269.356C43.5434 266.641 46.721 263.817 50.1834 260.971C50.3524 260.833 50.4672 260.64 50.5072 260.426C50.5473 260.212 50.5102 259.991 50.4024 259.802C50.2946 259.613 50.1231 259.468 49.9185 259.394C49.7139 259.319 49.4893 259.319 49.2849 259.394C47.2088 260.278 44.901 260.463 42.7106 259.92" fill="#1CDBBC"/>
<path d="M68.7012 259.7C66.7137 258.701 65.078 257.12 64.0117 255.168C63.9073 254.982 63.7396 254.838 63.5389 254.764C63.3382 254.69 63.1176 254.69 62.9168 254.764C62.716 254.838 62.5482 254.981 62.4436 255.167C62.339 255.354 62.3045 255.572 62.3462 255.781C63.2009 260.007 63.7707 264.211 64.4062 268.481C64.424 268.642 64.4851 268.795 64.5833 268.924C64.6814 269.054 64.8128 269.154 64.9634 269.215C65.114 269.275 65.2782 269.294 65.4386 269.269C65.599 269.244 65.7496 269.176 65.8744 269.072C69.2711 266.401 72.7554 263.707 76.0425 260.839C76.2217 260.707 76.3469 260.514 76.3948 260.297C76.4428 260.08 76.4101 259.852 76.3031 259.657C76.1961 259.462 76.0219 259.312 75.8128 259.236C75.6037 259.159 75.3738 259.161 75.1659 259.241C73.1171 260.086 70.8494 260.248 68.7012 259.7" fill="#1CDBBC"/>
<path d="M50.3169 236.82C48.2697 235.969 46.5224 234.529 45.2985 232.682C45.1761 232.512 44.9987 232.391 44.7965 232.339C44.5943 232.286 44.3802 232.305 44.1909 232.393C44.0015 232.482 43.8488 232.633 43.759 232.821C43.6692 233.01 43.6479 233.224 43.6988 233.426C44.2685 235.484 44.7506 237.542 45.2765 239.623C45.8025 241.703 46.2847 243.804 46.7449 245.906C46.7765 246.063 46.849 246.207 46.9551 246.326C47.0613 246.445 47.1972 246.534 47.3489 246.583C47.5006 246.632 47.6627 246.64 47.8184 246.605C47.9741 246.571 48.1179 246.496 48.235 246.388C49.8567 244.943 51.4564 243.454 53.0123 242.009C54.5682 240.564 56.1898 238.988 57.7676 237.433C57.9279 237.284 58.0301 237.083 58.0557 236.866C58.0813 236.649 58.0288 236.43 57.9075 236.249C57.7862 236.067 57.604 235.934 57.3936 235.874C57.1833 235.815 56.9586 235.831 56.7596 235.922C54.7744 236.936 52.5122 237.274 50.3169 236.886" fill="#1CDBBC"/>
<path d="M76.6341 235.988C74.5701 235.146 72.8066 233.704 71.572 231.85C71.4496 231.685 71.2748 231.568 71.0763 231.516C70.8779 231.465 70.6679 231.483 70.4811 231.567C70.2943 231.652 70.1419 231.797 70.0493 231.98C69.9568 232.163 69.9297 232.372 69.9723 232.572C70.6078 234.63 71.0242 236.689 71.5283 238.769L72.9526 245.053C72.985 245.211 73.0586 245.357 73.1658 245.478C73.273 245.599 73.41 245.689 73.5632 245.74C73.7164 245.791 73.8804 245.801 74.0387 245.769C74.1969 245.737 74.3438 245.663 74.4647 245.556L79.2639 241.177C80.8636 239.688 82.5292 238.177 84.0193 236.601C84.1714 236.452 84.2671 236.255 84.2903 236.044C84.3135 235.833 84.2625 235.62 84.1463 235.442C84.03 235.263 83.8555 235.131 83.6526 235.067C83.4496 235.003 83.2308 235.011 83.0332 235.09C81.0631 236.102 78.8152 236.441 76.6341 236.054" fill="#1CDBBC"/>
<path d="M101.858 233.711C99.8178 232.857 98.0837 231.407 96.8838 229.55C96.7675 229.371 96.5905 229.238 96.3851 229.177C96.1796 229.116 95.959 229.131 95.7632 229.218C95.5675 229.305 95.4095 229.459 95.3176 229.653C95.2257 229.846 95.2059 230.066 95.2621 230.273C96.3578 234.367 97.3001 238.528 98.1986 242.775C98.2331 242.929 98.3067 243.072 98.4123 243.189C98.518 243.307 98.6522 243.395 98.802 243.446C98.9517 243.496 99.112 243.508 99.2673 243.478C99.4226 243.449 99.5677 243.38 99.6888 243.279C102.91 240.389 106.263 237.411 109.287 234.302C109.433 234.153 109.524 233.96 109.545 233.753C109.567 233.547 109.518 233.339 109.406 233.163C109.294 232.988 109.126 232.856 108.929 232.788C108.733 232.721 108.519 232.722 108.323 232.791C106.328 233.801 104.056 234.124 101.858 233.711" fill="#1CDBBC"/>
<path d="M55.9043 213.26C53.793 212.619 51.9178 211.37 50.5133 209.67C50.3777 209.51 50.1903 209.402 49.9837 209.366C49.777 209.329 49.5641 209.366 49.3819 209.47C49.1997 209.574 49.0598 209.739 48.9863 209.935C48.9128 210.132 48.9102 210.347 48.9793 210.545C49.7244 212.516 50.4695 214.509 51.1707 216.523L53.1869 222.632C53.2312 222.786 53.3161 222.926 53.4328 223.036C53.5495 223.146 53.6937 223.224 53.8504 223.259C54.007 223.295 54.1705 223.288 54.3236 223.239C54.4767 223.191 54.6138 223.102 54.7208 222.982L59.1036 218.121C60.55 216.479 61.9306 214.771 63.3769 213.042C63.5062 212.879 63.5765 212.677 63.5762 212.469C63.576 212.261 63.5052 212.06 63.3756 211.897C63.2459 211.734 63.0651 211.621 62.8624 211.574C62.6597 211.527 62.447 211.551 62.2593 211.64C60.3716 212.852 58.1422 213.42 55.9043 213.26" fill="#1CDBBC"/>
<path d="M82.3093 211.662C80.1762 211.052 78.2754 209.816 76.8527 208.115C76.7136 207.968 76.5291 207.873 76.3292 207.845C76.1292 207.816 75.9254 207.855 75.7507 207.957C75.576 208.058 75.4404 208.215 75.366 208.402C75.2916 208.59 75.2827 208.797 75.3406 208.991C75.7351 209.976 76.1514 210.961 76.5239 211.968L77.554 214.946L79.592 221.055C79.6363 221.209 79.7211 221.349 79.8378 221.459C79.9545 221.57 80.0987 221.647 80.2554 221.683C80.412 221.718 80.5755 221.712 80.7286 221.663C80.8817 221.614 81.019 221.525 81.126 221.405L85.5088 216.523L87.7002 214.005C88.4015 213.151 89.0808 212.297 89.7601 211.421C89.8918 211.253 89.9623 211.045 89.9601 210.831C89.9579 210.618 89.8831 210.412 89.7481 210.246C89.6131 210.081 89.4257 209.966 89.2168 209.921C89.008 209.876 88.79 209.903 88.5986 209.998C86.7577 211.244 84.5485 211.831 82.3312 211.662" fill="#1CDBBC"/>
<path d="M107.643 209.91C105.521 209.255 103.639 207.991 102.23 206.275C102.091 206.129 101.907 206.034 101.707 206.005C101.507 205.977 101.303 206.016 101.129 206.117C100.954 206.218 100.818 206.376 100.744 206.563C100.669 206.751 100.66 206.958 100.718 207.151C101.485 209.122 102.143 211.114 102.91 213.151C103.677 215.187 104.247 217.201 104.904 219.281C104.954 219.431 105.042 219.566 105.159 219.672C105.276 219.778 105.418 219.853 105.572 219.888C105.726 219.923 105.887 219.918 106.039 219.873C106.19 219.828 106.328 219.745 106.438 219.632C107.884 218.033 109.396 216.435 110.821 214.771C112.245 213.107 113.713 211.465 115.204 209.735C115.346 209.574 115.428 209.368 115.434 209.153C115.44 208.938 115.371 208.727 115.238 208.558C115.105 208.389 114.917 208.272 114.707 208.227C114.496 208.182 114.277 208.212 114.086 208.312C112.212 209.517 109.997 210.078 107.775 209.91" fill="#1CDBBC"/>
<path d="M58.6203 189.197C56.43 188.88 54.3806 187.928 52.7254 186.46C52.572 186.319 52.373 186.237 52.1643 186.229C51.9556 186.221 51.751 186.287 51.5872 186.417C51.4233 186.546 51.3111 186.73 51.2707 186.934C51.2303 187.139 51.2643 187.351 51.3668 187.533C52.4406 189.351 53.3609 191.19 54.369 193.073C55.377 194.956 56.2317 196.905 57.1741 198.853C57.2417 198.998 57.3459 199.123 57.4766 199.215C57.6073 199.308 57.7597 199.364 57.9191 199.38C58.0784 199.395 58.239 199.369 58.3851 199.304C58.5311 199.238 58.6575 199.136 58.7518 199.007C59.979 197.255 61.25 195.438 62.4553 193.598C63.6606 191.759 64.8658 189.854 65.9615 187.906C66.0641 187.722 66.1022 187.509 66.0697 187.301C66.0372 187.093 65.936 186.902 65.7821 186.759C65.6283 186.615 65.4307 186.527 65.2209 186.509C65.0111 186.49 64.8013 186.543 64.6248 186.658C62.9723 188.164 60.8534 189.061 58.6203 189.197" fill="#1CDBBC"/>
<path d="M84.9189 186.855C82.7325 186.546 80.6879 185.593 79.0459 184.118C78.8874 183.983 78.6871 183.908 78.4792 183.904C78.2713 183.901 78.0687 183.97 77.9058 184.099C77.7429 184.228 77.63 184.41 77.5861 184.613C77.5423 184.816 77.5703 185.028 77.6653 185.212C78.6953 187.03 79.7252 188.869 80.7552 190.752C81.7851 192.635 82.596 194.562 83.5164 196.511C83.584 196.655 83.6884 196.78 83.819 196.873C83.9497 196.965 84.1022 197.022 84.2615 197.037C84.4208 197.053 84.5815 197.026 84.7275 196.961C84.8735 196.895 84.9999 196.793 85.0942 196.664C86.3214 194.89 87.6362 193.073 88.8415 191.212C90.0467 189.351 91.0329 187.468 92.2601 185.519C92.378 185.337 92.4278 185.119 92.4002 184.903C92.3727 184.688 92.2697 184.489 92.1096 184.342C91.9495 184.196 91.7426 184.11 91.5255 184.101C91.3084 184.092 91.0951 184.16 90.9233 184.293C89.2644 185.793 87.1506 186.695 84.9189 186.855Z" fill="#1CDBBC"/>
<path d="M110.71 185.606C108.527 185.235 106.505 184.221 104.903 182.694C104.75 182.548 104.55 182.46 104.339 182.447C104.128 182.433 103.918 182.495 103.748 182.62C103.578 182.746 103.457 182.928 103.408 183.134C103.359 183.339 103.384 183.556 103.479 183.745C103.983 184.665 104.487 185.606 104.969 186.548L106.371 189.394L107.752 192.284L109.067 195.218C109.127 195.366 109.225 195.496 109.351 195.593C109.478 195.691 109.628 195.753 109.787 195.773C109.945 195.793 110.106 195.77 110.253 195.707C110.4 195.645 110.528 195.544 110.623 195.415L112.573 192.766L114.436 190.073L116.298 187.314L118.073 184.49C118.196 184.311 118.252 184.096 118.232 183.88C118.211 183.665 118.115 183.464 117.961 183.312C117.806 183.161 117.603 183.068 117.387 183.051C117.172 183.034 116.957 183.094 116.78 183.22C115.075 184.661 112.941 185.5 110.71 185.606Z" fill="#1CDBBC"/>
<path d="M57.4172 165.047C55.2036 165.096 53.0244 164.495 51.1498 163.317C50.2732 162.858 49.3527 163.887 49.9663 164.609C51.325 166.23 52.5742 167.894 53.889 169.58C55.2039 171.266 56.409 173.017 57.6143 174.791C57.6961 174.927 57.8118 175.039 57.95 175.117C58.0883 175.195 58.2445 175.237 58.4033 175.237C58.5622 175.237 58.7182 175.195 58.8565 175.117C58.9947 175.039 59.1104 174.927 59.1922 174.791C60.1345 172.82 61.033 170.828 61.9315 168.813C62.8299 166.799 63.6627 164.697 64.4297 162.617C64.5032 162.417 64.5069 162.199 64.4403 161.997C64.3737 161.795 64.2406 161.622 64.0628 161.505C63.885 161.388 63.6729 161.335 63.4609 161.354C63.249 161.373 63.0498 161.463 62.8957 161.61C61.5162 163.365 59.5869 164.606 57.4172 165.135" fill="#1CDBBC"/>
<path d="M3.35364 167.28C3.12233 169.496 2.19394 171.581 0.70198 173.236C0.582017 173.403 0.521618 173.606 0.530375 173.811C0.539133 174.016 0.616516 174.213 0.750265 174.369C0.884015 174.526 1.06637 174.633 1.26816 174.673C1.46994 174.714 1.67947 174.686 1.86336 174.593L13.1272 168.025C13.2634 167.943 13.3761 167.828 13.4543 167.689C13.5325 167.551 13.5736 167.395 13.5736 167.237C13.5736 167.078 13.5325 166.922 13.4543 166.784C13.3761 166.646 13.2634 166.53 13.1272 166.448L1.86336 159.88C1.67947 159.787 1.46994 159.759 1.26816 159.8C1.06637 159.84 0.884015 159.948 0.750265 160.104C0.616516 160.26 0.539133 160.457 0.530375 160.662C0.521618 160.868 0.582017 161.07 0.70198 161.237C2.19229 162.885 3.12079 164.962 3.35364 167.171" fill="#1CDBBC"/>
<path d="M151.997 167.28C151.766 169.495 150.838 171.581 149.346 173.236C149.218 173.404 149.153 173.611 149.16 173.822C149.167 174.033 149.247 174.235 149.386 174.395C149.524 174.554 149.714 174.66 149.922 174.697C150.13 174.733 150.345 174.696 150.529 174.593L161.771 168.024C161.913 167.947 162.031 167.833 162.114 167.695C162.196 167.556 162.24 167.398 162.24 167.236C162.24 167.075 162.196 166.917 162.114 166.778C162.031 166.639 161.913 166.525 161.771 166.448L150.529 159.879C150.345 159.776 150.13 159.74 149.922 159.776C149.714 159.812 149.524 159.919 149.386 160.078C149.247 160.237 149.167 160.439 149.16 160.65C149.153 160.861 149.218 161.069 149.346 161.237C150.836 162.884 151.765 164.962 151.997 167.171" fill="#1CDBBC"/>
<path d="M27.4371 167.28C27.2058 169.495 26.2774 171.581 24.7855 173.236C24.6579 173.404 24.5922 173.611 24.5994 173.822C24.6067 174.033 24.6864 174.235 24.8252 174.395C24.964 174.554 25.1536 174.66 25.3618 174.697C25.5701 174.733 25.7843 174.696 25.9688 174.593L37.2107 168.024C37.3525 167.947 37.4708 167.833 37.5533 167.695C37.6357 167.556 37.6793 167.398 37.6793 167.236C37.6793 167.075 37.6357 166.917 37.5533 166.778C37.4708 166.639 37.3525 166.525 37.2107 166.448L25.9688 159.879C25.7843 159.776 25.5701 159.74 25.3618 159.776C25.1536 159.812 24.964 159.919 24.8252 160.078C24.6864 160.237 24.6067 160.439 24.5994 160.65C24.5922 160.861 24.6579 161.069 24.7855 161.237C26.2758 162.884 27.2043 164.962 27.4371 167.171" fill="#1CDBBC"/>
<path d="M127.498 167.28C127.257 169.493 126.329 171.575 124.846 173.236C124.693 173.397 124.605 173.609 124.599 173.831C124.593 174.053 124.67 174.269 124.814 174.438C124.959 174.607 125.161 174.716 125.381 174.745C125.602 174.773 125.825 174.72 126.008 174.593L137.25 168.025C137.392 167.948 137.51 167.834 137.592 167.695C137.675 167.556 137.718 167.398 137.718 167.237C137.718 167.075 137.675 166.917 137.592 166.778C137.51 166.639 137.392 166.525 137.25 166.448L126.008 159.88C125.825 159.753 125.602 159.7 125.381 159.728C125.161 159.757 124.959 159.866 124.814 160.035C124.67 160.204 124.593 160.42 124.599 160.642C124.605 160.864 124.693 161.076 124.846 161.237C126.329 162.89 127.256 164.965 127.498 167.171" fill="#1CDBBC"/>
<path d="M83.6693 161.938C81.4427 161.997 79.2456 161.42 77.336 160.274C77.1604 160.169 76.9536 160.129 76.7514 160.161C76.5493 160.193 76.3645 160.294 76.2292 160.447C76.094 160.601 76.0167 160.796 76.0107 161.001C76.0047 161.205 76.0705 161.405 76.1966 161.566C77.621 163.142 78.8043 164.806 80.0972 166.492C81.3902 168.178 82.6393 169.908 83.9103 171.682C83.9875 171.823 84.1017 171.941 84.2405 172.024C84.3793 172.106 84.5378 172.15 84.6993 172.15C84.8607 172.15 85.0192 172.106 85.1581 172.024C85.2969 171.941 85.4109 171.823 85.4882 171.682C86.3866 169.733 87.2631 167.74 88.1397 165.704C89.0162 163.668 89.9586 161.588 90.616 159.486C90.6895 159.286 90.6933 159.068 90.6267 158.866C90.5601 158.664 90.4271 158.491 90.2492 158.374C90.0714 158.257 89.8593 158.204 89.6473 158.223C89.4354 158.242 89.2362 158.332 89.0821 158.479C87.7333 160.245 85.8253 161.503 83.6693 162.048" fill="#1CDBBC"/>
<path d="M110.228 161.171C108.017 161.165 105.855 160.519 104.004 159.31C103.15 158.829 102.207 159.836 102.799 160.58L104.728 163.032C105.363 163.864 105.955 164.74 106.568 165.594C107.774 167.324 109.023 169.097 110.118 170.937C110.2 171.073 110.316 171.185 110.454 171.263C110.592 171.341 110.748 171.383 110.907 171.383C111.066 171.383 111.222 171.341 111.361 171.263C111.499 171.185 111.614 171.073 111.696 170.937C112.77 169.01 113.69 167.061 114.633 165.047C115.093 164.04 115.597 163.032 116.013 162.003L117.284 158.894C117.387 158.697 117.415 158.469 117.362 158.253C117.31 158.037 117.18 157.847 116.999 157.719C116.817 157.59 116.594 157.532 116.373 157.555C116.152 157.578 115.946 157.68 115.794 157.843C114.37 159.563 112.41 160.758 110.228 161.237" fill="#1CDBBC"/>
<path d="M52.5516 141.312C50.3515 141.652 48.1 141.3 46.1089 140.305C45.9147 140.207 45.6916 140.183 45.4808 140.237C45.27 140.29 45.0859 140.419 44.9628 140.598C44.8396 140.777 44.7857 140.995 44.8111 141.211C44.8365 141.427 44.9395 141.626 45.1009 141.772C48.1689 144.75 51.1272 147.793 54.0856 150.968C54.1911 151.088 54.3268 151.178 54.4786 151.228C54.6304 151.278 54.7928 151.287 54.9492 151.254C55.1055 151.22 55.2501 151.146 55.3679 151.038C55.4858 150.93 55.5727 150.792 55.6197 150.64C56.9126 146.502 58.1179 142.276 59.2136 138.006C59.2662 137.801 59.2463 137.584 59.1572 137.392C59.0681 137.199 58.9153 137.044 58.7246 136.951C58.5339 136.858 58.3171 136.834 58.1107 136.883C57.9043 136.932 57.7211 137.05 57.592 137.218C56.4064 139.098 54.6354 140.536 52.5516 141.312" fill="#1CDBBC"/>
<path d="M3.35364 141.684C3.12233 143.9 2.19394 145.985 0.70198 147.64C0.582017 147.807 0.521618 148.009 0.530375 148.215C0.539133 148.42 0.616516 148.617 0.750265 148.773C0.884015 148.93 1.06637 149.037 1.26816 149.077C1.46994 149.118 1.67947 149.09 1.86336 148.997L13.1272 142.429C13.2634 142.347 13.3761 142.231 13.4543 142.093C13.5325 141.955 13.5736 141.799 13.5736 141.641C13.5736 141.482 13.5325 141.326 13.4543 141.188C13.3761 141.049 13.2634 140.934 13.1272 140.852L1.86336 134.284C1.67947 134.191 1.46994 134.163 1.26816 134.204C1.06637 134.244 0.884015 134.351 0.750265 134.508C0.616516 134.664 0.539133 134.861 0.530375 135.066C0.521618 135.272 0.582017 135.474 0.70198 135.641C2.19229 137.289 3.12079 139.366 3.35364 141.575" fill="#1CDBBC"/>
<path d="M151.997 141.685C151.766 143.9 150.838 145.985 149.346 147.64C149.218 147.809 149.153 148.016 149.16 148.227C149.167 148.438 149.247 148.64 149.386 148.799C149.524 148.959 149.714 149.065 149.922 149.101C150.13 149.138 150.345 149.101 150.529 148.998L161.771 142.429C161.913 142.352 162.031 142.238 162.114 142.099C162.196 141.961 162.24 141.802 162.24 141.641C162.24 141.48 162.196 141.321 162.114 141.183C162.031 141.044 161.913 140.93 161.771 140.853L150.529 134.284C150.345 134.181 150.13 134.144 149.922 134.181C149.714 134.217 149.524 134.323 149.386 134.483C149.247 134.642 149.167 134.844 149.16 135.055C149.153 135.266 149.218 135.473 149.346 135.642C150.836 137.289 151.765 139.367 151.997 141.575" fill="#1CDBBC"/>
<path d="M27.4371 141.685C27.2058 143.9 26.2774 145.985 24.7855 147.64C24.6579 147.809 24.5922 148.016 24.5994 148.227C24.6067 148.438 24.6864 148.64 24.8252 148.799C24.964 148.959 25.1536 149.065 25.3618 149.101C25.5701 149.138 25.7843 149.101 25.9688 148.998L37.2107 142.429C37.3525 142.352 37.4708 142.238 37.5533 142.099C37.6357 141.961 37.6793 141.802 37.6793 141.641C37.6793 141.48 37.6357 141.321 37.5533 141.183C37.4708 141.044 37.3525 140.93 37.2107 140.853L25.9688 134.284C25.7843 134.181 25.5701 134.144 25.3618 134.181C25.1536 134.217 24.964 134.323 24.8252 134.483C24.6864 134.642 24.6067 134.844 24.5994 135.055C24.5922 135.266 24.6579 135.473 24.7855 135.642C26.2758 137.289 27.2043 139.367 27.4371 141.575" fill="#1CDBBC"/>
<path d="M127.498 141.685C127.257 143.897 126.329 145.979 124.846 147.64C124.726 147.807 124.666 148.01 124.675 148.215C124.684 148.421 124.761 148.617 124.895 148.774C125.029 148.93 125.211 149.037 125.413 149.078C125.614 149.118 125.824 149.09 126.008 148.998L137.25 142.429C137.392 142.352 137.51 142.238 137.592 142.099C137.675 141.961 137.718 141.802 137.718 141.641C137.718 141.48 137.675 141.321 137.592 141.182C137.51 141.044 137.392 140.93 137.25 140.853L126.008 134.284C125.825 134.158 125.602 134.104 125.381 134.133C125.161 134.161 124.959 134.271 124.814 134.439C124.67 134.608 124.593 134.825 124.599 135.047C124.605 135.269 124.693 135.481 124.846 135.642C126.329 137.294 127.256 139.369 127.498 141.575" fill="#1CDBBC"/>
<path d="M77.95 137.634C75.7993 138.093 73.5597 137.887 71.5292 137.043C71.3351 136.968 71.1209 136.962 70.9232 137.028C70.7255 137.093 70.5567 137.225 70.4454 137.4C70.3342 137.576 70.2875 137.785 70.3133 137.991C70.3391 138.198 70.4358 138.389 70.5869 138.532C72.1428 139.889 73.7206 141.291 75.2984 142.736C76.0873 143.458 76.8981 144.181 77.6651 144.925L79.8566 147.115C79.9682 147.228 80.1072 147.31 80.2601 147.354C80.413 147.397 80.5746 147.4 80.729 147.363C80.8835 147.325 81.0256 147.248 81.1415 147.14C81.2574 147.031 81.3433 146.894 81.3906 146.743L82.289 143.568C82.5739 142.495 82.7931 141.378 83.0341 140.371C83.5162 138.182 83.9764 135.992 84.4147 133.803C84.5 133.587 84.4983 133.346 84.4099 133.132C84.3216 132.917 84.1535 132.745 83.9408 132.651C83.7282 132.558 83.4876 132.55 83.2695 132.63C83.0514 132.71 82.8728 132.871 82.7712 133.08C81.6815 135.031 79.9796 136.57 77.9281 137.459" fill="#1CDBBC"/>
<path d="M104.949 137.24C102.811 137.744 100.572 137.614 98.506 136.868C97.5637 136.627 96.8623 137.787 97.6074 138.378C99.1852 139.627 100.873 140.918 102.363 142.342L104.686 144.531L105.847 145.648L106.943 146.808C107.054 146.921 107.193 147.003 107.346 147.047C107.499 147.09 107.661 147.093 107.815 147.056C107.97 147.019 108.112 146.942 108.228 146.833C108.344 146.724 108.43 146.588 108.477 146.436L108.959 144.859L109.353 143.261L110.12 140.042C110.668 137.853 110.953 135.663 111.304 133.364C111.379 133.145 111.369 132.905 111.275 132.692C111.181 132.48 111.01 132.311 110.796 132.22C110.582 132.128 110.342 132.121 110.123 132.199C109.904 132.278 109.723 132.436 109.616 132.642C108.639 134.673 106.991 136.305 104.949 137.262" fill="#1CDBBC"/>
<path d="M45.8459 118.038C43.6562 118.475 41.3825 118.151 39.4031 117.118C39.201 117.044 38.9796 117.041 38.7757 117.11C38.5718 117.179 38.3976 117.316 38.2823 117.498C38.167 117.679 38.1176 117.895 38.1421 118.109C38.1666 118.323 38.2637 118.522 38.4171 118.673C39.206 119.505 39.9948 120.183 40.7837 120.862L43.1505 123.052L47.8839 127.431C48.0003 127.538 48.1425 127.613 48.2965 127.649C48.4506 127.685 48.6115 127.681 48.7635 127.637C48.9155 127.593 49.0535 127.511 49.1643 127.398C49.2751 127.285 49.3549 127.145 49.396 126.993L50.908 120.665L51.6532 117.512C51.9162 116.461 52.1353 115.323 52.4421 114.381C52.4988 114.176 52.4792 113.958 52.3868 113.767C52.2944 113.575 52.1356 113.424 51.94 113.341C51.7443 113.258 51.5251 113.249 51.3232 113.315C51.1213 113.382 50.9504 113.519 50.8424 113.702C49.6083 115.537 47.8746 116.98 45.8459 117.862" fill="#1CDBBC"/>
<path d="M94.5594 115.191C92.414 115.897 90.0898 115.835 87.9851 115.016C87.7713 114.953 87.5418 114.969 87.3393 115.062C87.1367 115.155 86.9749 115.319 86.8838 115.522C86.7928 115.726 86.7787 115.955 86.8442 116.168C86.9098 116.381 87.0503 116.563 87.24 116.68C88.1604 117.403 89.0369 118.125 89.9573 118.87L92.7185 120.818C94.5593 122.066 96.5096 123.227 98.2847 124.343C98.4224 124.423 98.5785 124.465 98.7376 124.467C98.8966 124.468 99.0532 124.428 99.1923 124.351C99.3314 124.274 99.4481 124.162 99.531 124.026C99.6139 123.891 99.6601 123.736 99.6653 123.577C99.6653 121.388 99.6653 119.198 99.9282 117.162L100.235 114.074C100.367 113.067 100.52 112.038 100.673 111.053C100.827 110.068 99.5338 109.761 99.0079 110.571C98.0136 112.511 96.4953 114.135 94.625 115.257" fill="#1CDBBC"/>
<path d="M68.7257 114.447C67.7316 114.812 66.6692 114.954 65.6139 114.863C64.4392 114.754 63.283 114.497 62.1734 114.096C61.2092 113.768 60.5737 115.06 61.3626 115.782C62.1515 116.505 63.1595 117.228 64.036 117.972L65.3729 119.001L66.0522 119.505L66.6877 119.964L71.8813 123.752C72.0077 123.851 72.1582 123.914 72.3171 123.935C72.476 123.956 72.6376 123.934 72.7851 123.871C72.9327 123.809 73.0607 123.708 73.1561 123.579C73.2515 123.45 73.3109 123.299 73.3277 123.139C73.5907 120.95 73.8098 118.76 74.0508 116.571V115.739V114.972L74.27 113.418C74.4234 112.389 74.5548 111.403 74.7521 110.396C74.9493 109.389 73.6564 109.061 73.1085 109.871C72.4597 110.845 71.7264 111.761 70.9171 112.608C70.2283 113.391 69.3853 114.025 68.4408 114.469" fill="#1CDBBC"/>
<path d="M41.2007 94.3032C38.9589 94.2923 36.7875 93.5202 35.0428 92.1137C34.8613 91.9784 34.6362 91.9147 34.4106 91.9349C34.185 91.9551 33.9747 92.0575 33.8201 92.2229C33.6654 92.3882 33.5772 92.6048 33.5724 92.8311C33.5675 93.0573 33.6463 93.2775 33.7937 93.4493C35.0647 95.3542 36.2481 97.2152 37.6067 98.9887C38.9654 100.762 40.2585 102.514 41.7048 104.178C41.8056 104.299 41.9366 104.392 42.0845 104.446C42.2325 104.501 42.3922 104.516 42.5477 104.489C42.7032 104.463 42.8488 104.395 42.9701 104.295C43.0914 104.194 43.1841 104.063 43.2387 103.915C43.9399 101.901 44.8166 99.9084 45.6493 97.9816C46.4821 96.0548 47.4462 94.1937 48.3447 92.3764C48.4284 92.1861 48.4433 91.9725 48.387 91.7724C48.3306 91.5722 48.2066 91.3978 48.0359 91.2789C47.8652 91.16 47.6584 91.104 47.451 91.1205C47.2435 91.137 47.0482 91.2249 46.8984 91.3692C45.3304 92.8998 43.3508 93.9419 41.2007 94.3688" fill="#1CDBBC"/>
<path d="M88.5136 91.4788C86.2619 91.4053 84.1195 90.4913 82.5092 88.9171C81.6983 88.2164 80.6464 89.2674 81.1723 90.2527C83.3501 94.2712 86.0144 98.0069 89.1052 101.376C89.2107 101.496 89.3464 101.585 89.4982 101.635C89.6499 101.686 89.8124 101.694 89.9687 101.661C90.125 101.627 90.2696 101.553 90.3875 101.445C90.5054 101.337 90.5922 101.2 90.6392 101.047C91.8573 97.1256 93.5811 93.3793 95.7672 89.9024C96.2493 89.158 95.1755 88.3697 94.3866 88.8952C93.468 89.5576 92.501 90.1504 91.4939 90.6687C90.5659 91.1529 89.5548 91.4576 88.5136 91.5665" fill="#1CDBBC"/>
<path d="M62.7408 90.2962C61.6861 90.3392 60.6358 90.1367 59.6728 89.705C58.591 89.2258 57.5807 88.5995 56.6706 87.8439C55.8597 87.1871 54.8299 88.238 55.3777 89.2014C57.6683 93.1103 60.348 96.7782 63.3763 100.149C63.4818 100.269 63.6175 100.359 63.7693 100.409C63.921 100.459 64.0835 100.468 64.2398 100.435C64.3961 100.401 64.5407 100.327 64.6586 100.219C64.7764 100.111 64.8633 99.9733 64.9103 99.8206C66.1933 95.876 67.8824 92.0751 69.9505 88.4788C70.4326 87.6906 69.3369 86.9023 68.5699 87.4935C67.6628 88.1939 66.703 88.8235 65.6992 89.3766C64.7875 89.8924 63.7816 90.22 62.7408 90.34" fill="#1CDBBC"/>
<path d="M41.922 70.1527C39.7435 69.5823 37.8304 68.2745 36.5092 66.4524C36.3674 66.2687 36.1616 66.1453 35.9327 66.1069C35.7038 66.0685 35.4689 66.118 35.2749 66.2454C35.0809 66.3727 34.9422 66.5685 34.8866 66.7937C34.831 67.0189 34.8628 67.2568 34.9753 67.4596C35.7204 69.6491 36.4654 71.8386 37.3638 73.8092C37.8021 74.8383 38.2186 75.8674 38.6788 76.8527L40.147 79.8304C40.2259 79.9668 40.3392 80.0801 40.4757 80.1589C40.6123 80.2376 40.7672 80.279 40.9249 80.279C41.0825 80.279 41.2375 80.2376 41.374 80.1589C41.5106 80.0801 41.624 79.9668 41.7029 79.8304L43.4998 77.1811C44.1134 76.3272 44.7708 75.4732 45.4063 74.6412C46.6335 72.9772 48.0142 71.4007 49.3509 69.89C49.9864 69.1893 49.066 68.1603 48.1894 68.5763C46.2898 69.6734 44.1133 70.198 41.922 70.0871" fill="#1CDBBC"/>
<path d="M93.9036 67.9409C92.9725 67.3748 92.2146 66.5645 91.7122 65.598C91.1516 64.522 90.7741 63.3604 90.5947 62.1606C90.4194 61.0658 88.8854 61.3285 88.6663 62.5328C88.5167 63.151 88.4214 63.781 88.3814 64.4157L88.1841 66.2768C88.1841 67.5248 88.1841 68.7072 88.1841 69.8896C88.1841 71.0719 88.3376 72.2324 88.5348 73.371L88.7977 75.0131L89.1922 76.6553C89.2304 76.8103 89.3092 76.9523 89.4206 77.0668C89.5321 77.1812 89.672 77.2639 89.826 77.3062C89.9801 77.3486 90.1428 77.3493 90.2971 77.308C90.4515 77.2667 90.592 77.185 90.7043 77.0713C93.4863 74.2732 96.8863 72.1659 100.631 70.9187C101.398 70.6998 100.96 69.4736 100.061 69.386C99.163 69.2984 97.8702 69.1671 96.7526 68.9481C95.7245 68.8061 94.7342 68.4639 93.838 67.9409" fill="#1CDBBC"/>
<path d="M65.8737 65.686C64.8837 65.2967 63.9983 64.6819 63.2879 63.8905C62.5043 63.008 61.8478 62.0204 61.3375 60.9565C60.8773 60.015 59.4748 60.5624 59.5844 61.6791C60.0662 66.2218 61.0888 70.6909 62.6305 74.9915C62.6884 75.1392 62.7837 75.2694 62.9069 75.3695C63.0302 75.4696 63.1774 75.5362 63.334 75.5626C63.4907 75.5891 63.6515 75.5746 63.8008 75.5205C63.9502 75.4665 64.0829 75.3747 64.1863 75.2542C66.8231 72.1103 69.8498 69.3144 73.1931 66.934C73.9382 66.4304 73.193 65.2918 72.3165 65.4888C71.2137 65.7437 70.0926 65.9121 68.9636 65.9925C67.9235 66.1063 66.8711 66.0019 65.8737 65.686" fill="#1CDBBC"/>
<path d="M137.512 62.7959C138.876 60.9823 140.884 59.76 143.122 59.3803C144.174 59.1394 143.911 57.6724 142.772 57.5191C138.171 56.9242 133.506 57.0499 128.944 57.8914C128.786 57.9199 128.638 57.9902 128.516 58.0949C128.395 58.1997 128.304 58.3351 128.252 58.4872C128.201 58.6392 128.191 58.8023 128.224 58.9593C128.257 59.1164 128.331 59.2618 128.44 59.3803C131.07 62.451 133.186 65.926 134.707 69.6711C135.036 70.4812 136.285 70.0433 136.307 69.1018C136.166 66.9317 136.581 64.7616 137.512 62.7959Z" fill="#1CDBBC"/>
<path d="M114.174 56.0742C114.201 55.0084 114.503 53.9677 115.05 53.0526C115.644 52.0257 116.382 51.0892 117.242 50.2719C118.009 49.5274 117.044 48.3889 115.992 48.8268C115.488 49.0458 114.853 49.3085 114.261 49.5931C113.67 49.8778 113.1 50.1405 112.53 50.4471C111.428 51.0565 110.367 51.7366 109.353 52.4833C107.46 53.8634 105.79 55.5248 104.4 57.4098C104.307 57.5409 104.251 57.6941 104.236 57.8539C104.22 58.0137 104.247 58.1745 104.314 58.3207C104.38 58.4668 104.484 58.593 104.614 58.6867C104.745 58.7804 104.897 58.8385 105.057 58.8549C107.053 59.0541 109.002 59.587 110.821 60.4313C111.652 60.8107 112.451 61.2574 113.209 61.7669C113.582 62.0078 113.954 62.2925 114.283 62.5553L115.357 63.3873C116.058 63.9566 116.913 62.9493 116.453 62.1173C115.865 61.1471 115.345 60.1375 114.897 59.0958C114.49 58.1366 114.253 57.1143 114.195 56.0742" fill="#1CDBBC"/>
<path d="M165.695 57.1033C167.798 56.2643 170.135 56.2176 172.27 56.9719C173.278 57.2565 173.804 55.8772 172.905 55.2203C169.252 52.4662 165.27 50.1787 161.05 48.4109C160.9 48.3518 160.737 48.333 160.578 48.3565C160.418 48.3799 160.268 48.4448 160.141 48.5445C160.015 48.6443 159.917 48.7754 159.857 48.9249C159.797 49.0743 159.778 49.2368 159.8 49.3962C160.326 53.4591 160.326 57.5727 159.8 61.6356C159.669 62.5333 160.984 62.818 161.466 61.986C162.418 60.0197 163.869 58.3363 165.673 57.1033" fill="#1CDBBC"/>
<path d="M48.9783 47.0749C48.0371 46.5959 47.2254 45.8975 46.6117 45.0386C45.8941 44.0985 45.3182 43.0583 44.9023 41.9513C44.5298 40.9879 43.0834 41.3821 43.1053 42.455C43.2005 46.9644 43.6992 51.4561 44.5955 55.8767C44.63 56.0308 44.7037 56.1736 44.8094 56.291C44.915 56.4084 45.0491 56.4967 45.1989 56.5473C45.3486 56.5979 45.5089 56.6092 45.6642 56.5799C45.8195 56.5507 45.9647 56.482 46.0858 56.3804C49.2052 53.6244 52.5722 51.1618 56.1443 49.0236C56.9332 48.5638 56.4072 47.3376 55.443 47.469C54.31 47.6239 53.168 47.7043 52.0244 47.7098C50.9762 47.7089 49.9394 47.4929 48.9783 47.0749" fill="#1CDBBC"/>
<path d="M79.4823 45.1261C78.1227 43.3196 77.4894 41.0699 77.7073 38.8202C77.7073 37.7692 76.2608 37.6159 75.8226 38.645C74.0645 42.8896 72.8923 47.3534 72.3383 51.9136C72.315 52.074 72.3356 52.2378 72.3979 52.3875C72.4603 52.5371 72.562 52.6671 72.6923 52.7636C72.8227 52.8602 72.9767 52.9197 73.1381 52.9358C73.2996 52.9519 73.4625 52.9241 73.6093 52.8552C77.3568 51.2355 81.3215 50.1732 85.3772 49.7023C86.2538 49.7023 86.1879 48.2571 85.2675 47.9944C83.1231 47.5548 81.1297 46.5664 79.4823 45.1261" fill="#1CDBBC"/>
<path d="M188.659 46.3965C189.6 45.9045 190.644 45.6418 191.705 45.6301C192.885 45.6056 194.063 45.7308 195.212 46.0024C196.22 46.2433 196.702 44.8638 195.803 44.2507C192.075 41.7177 188.13 39.5196 184.013 37.6821C183.866 37.6205 183.706 37.5983 183.547 37.6175C183.389 37.6368 183.238 37.6967 183.11 37.7917C182.982 37.8866 182.88 38.0132 182.816 38.1591C182.752 38.3049 182.726 38.4651 182.742 38.6237C183.19 42.7691 183.256 46.9465 182.94 51.1039C182.94 52.0235 184.211 52.2863 184.649 51.4105C185.144 50.3886 185.73 49.4138 186.402 48.4984C186.971 47.6236 187.718 46.8777 188.593 46.3089" fill="#1CDBBC"/>
<path d="M149.367 38.5579C149.978 37.691 150.791 36.9849 151.734 36.4997C152.8 35.9643 153.936 35.5811 155.109 35.3611C156.161 35.1641 155.942 33.6752 154.824 33.4782C150.257 32.718 145.601 32.6663 141.018 33.3249C140.86 33.3491 140.712 33.4139 140.586 33.513C140.461 33.6121 140.364 33.7422 140.304 33.8902C140.245 34.0382 140.225 34.199 140.246 34.3571C140.267 34.5152 140.33 34.6651 140.427 34.792C142.943 37.9644 144.934 41.5203 146.321 45.3236C146.606 46.1556 147.877 45.7833 147.921 44.8418C147.979 43.7116 148.103 42.5857 148.294 41.47C148.454 40.4377 148.819 39.4476 149.367 38.5579" fill="#1CDBBC"/>
<path d="M101.179 33.0619C100.757 30.8491 101.163 28.5585 102.319 26.6246C102.801 25.6831 101.552 24.895 100.741 25.6175C97.3447 28.6583 94.3214 32.0906 91.7341 35.8426C91.6393 35.9733 91.5816 36.1271 91.5669 36.2878C91.5522 36.4485 91.5811 36.6101 91.6506 36.7558C91.7202 36.9014 91.8278 37.0258 91.962 37.1155C92.0962 37.2053 92.2521 37.2571 92.4134 37.2657C96.5232 37.5893 100.578 38.4129 104.488 39.7181C105.343 40.0247 105.891 38.7766 105.167 38.1635C103.405 36.8507 102.027 35.0887 101.179 33.0619" fill="#1CDBBC"/>
<path d="M125.919 30.6312C126.352 28.4208 127.565 26.4393 129.338 25.0479C130.127 24.3254 129.338 23.165 128.22 23.5591C126.049 24.3769 123.927 25.3199 121.865 26.3835C120.879 26.909 119.893 27.4783 118.929 28.0257L117.504 28.8577L116.124 29.7554C115.987 29.8371 115.875 29.9527 115.796 30.0908C115.718 30.2289 115.677 30.385 115.677 30.5437C115.677 30.7024 115.718 30.8583 115.796 30.9965C115.875 31.1346 115.987 31.2502 116.124 31.3319C116.606 31.5727 117.088 31.7917 117.548 32.0545L118.929 32.8427C119.849 33.3901 120.747 33.8936 121.624 34.4629C123.321 35.5639 124.953 36.763 126.511 38.0538C127.19 38.623 128.133 37.6597 127.694 36.8276C126.541 34.9608 125.898 32.824 125.831 30.6312" fill="#1CDBBC"/>
<path d="M173.758 27.4124C175.447 25.9184 177.617 25.0795 179.872 25.0478C180.095 25.0136 180.298 24.901 180.444 24.7303C180.591 24.5596 180.671 24.3422 180.671 24.1173C180.671 23.8924 180.591 23.6749 180.444 23.5042C180.298 23.3335 180.095 23.2209 179.872 23.1867C175.54 21.9281 171.103 21.0634 166.614 20.603C166.454 20.5863 166.293 20.6128 166.147 20.6797C166 20.7467 165.875 20.8516 165.783 20.9836C165.691 21.1156 165.636 21.2698 165.625 21.4301C165.613 21.5904 165.644 21.7509 165.716 21.8949C167.416 25.6883 168.759 29.632 169.726 33.6746C169.923 34.5723 171.282 34.419 171.435 33.4556C171.608 31.2807 172.365 29.1928 173.627 27.4124" fill="#1CDBBC"/>
<path d="M63.0061 27.3912C61.584 25.6471 60.8511 23.4425 60.9462 21.1948C60.9275 20.9688 60.8279 20.7571 60.6655 20.5987C60.5032 20.4402 60.2889 20.3455 60.0623 20.3322C59.8357 20.3189 59.6121 20.3877 59.4322 20.5261C59.2524 20.6645 59.1285 20.8631 59.0835 21.0854L58.4918 22.7056L58.0096 24.3916C57.7028 25.5083 57.418 26.581 57.1331 27.6977C56.8482 28.8143 56.673 29.8872 56.4757 31.0039C56.2785 32.1205 56.0594 33.1934 55.9498 34.2663C55.9336 34.4249 55.959 34.5849 56.0234 34.7308C56.0878 34.8766 56.1891 35.0034 56.3172 35.0983C56.4454 35.1932 56.5961 35.2532 56.7545 35.2724C56.9129 35.2916 57.0735 35.2693 57.2207 35.2077C58.163 34.7698 59.2149 34.4415 60.201 34.0693C61.1872 33.6971 62.1734 33.3686 63.1595 33.084L66.1398 32.2958L67.608 31.9454L69.0983 31.6826C70.0187 31.5294 69.8872 30.1719 68.9449 29.9749C66.7709 29.6554 64.7211 28.7637 63.0061 27.3912" fill="#1CDBBC"/>
<path d="M153.619 14.1228C154.757 12.1721 156.539 10.678 158.659 9.89689C158.846 9.78901 158.991 9.62037 159.068 9.419C159.145 9.21763 159.151 8.99576 159.084 8.79063C159.018 8.5855 158.882 8.4095 158.701 8.29203C158.52 8.17456 158.304 8.12275 158.09 8.14529L154.627 8.36433C153.51 8.36433 152.436 8.64897 151.253 8.78034C150.069 8.91171 149.061 9.06494 147.943 9.28389L144.722 9.98456C144.563 10.0126 144.415 10.0838 144.295 10.1904C144.174 10.2969 144.085 10.4347 144.037 10.5886C143.989 10.7425 143.985 10.9065 144.025 11.0626C144.065 11.2187 144.147 11.3609 144.262 11.4734L146.453 13.8599C147.133 14.6482 147.79 15.524 148.426 16.3341C149.061 17.1442 149.697 17.9325 150.266 18.8083L151.932 21.3482C152.436 22.0927 153.641 21.5453 153.488 20.56C152.965 18.4364 153.033 16.2105 153.685 14.1228" fill="#1CDBBC"/>
<path d="M82.8385 13.8378C82.1241 11.694 82.194 9.36646 83.0357 7.26925C83.0891 7.05565 83.0659 6.83006 82.9701 6.63179C82.8743 6.43353 82.712 6.27507 82.5114 6.18397C82.3108 6.09287 82.0846 6.07493 81.8721 6.13319C81.6596 6.19145 81.4743 6.32219 81.3483 6.50283C80.6032 7.42244 79.8801 8.29823 79.1569 9.21783C78.4337 10.1374 77.8201 11.1009 77.1846 12.0424C75.938 13.8737 74.7966 15.7744 73.766 17.7351C73.6872 17.8754 73.6477 18.0342 73.6514 18.195C73.655 18.3558 73.7019 18.5126 73.787 18.6491C73.8721 18.7856 73.9923 18.8967 74.1351 18.9709C74.2779 19.0451 74.438 19.0795 74.5987 19.0707C76.7106 18.9932 78.8251 19.037 80.9319 19.2021L83.978 19.465C85.008 19.5963 86.0161 19.7714 87.0022 19.9466C87.9883 20.1217 88.2731 18.7861 87.4623 18.2825C85.5319 17.281 83.9165 15.7654 82.7947 13.9035" fill="#1CDBBC"/>
<path d="M130.345 7.75064C130.857 5.56336 132.102 3.61657 133.873 2.23298C134.662 1.55422 133.873 0.371872 132.843 0.722197L129.666 1.94846C128.614 2.34258 127.584 2.84614 126.554 3.28404L123.552 4.68538C122.566 5.16707 121.579 5.71435 120.615 6.21794C120.479 6.29968 120.367 6.41525 120.288 6.55337C120.21 6.6915 120.169 6.84758 120.169 7.00627C120.169 7.16497 120.21 7.32092 120.288 7.45904C120.367 7.59717 120.479 7.71273 120.615 7.79447C121.536 8.36375 122.434 8.91107 123.311 9.50224L125.919 11.3415C126.773 11.9765 127.606 12.5457 128.417 13.2026L130.805 15.1732C131.529 15.7644 132.537 14.8448 132.076 13.969C130.928 12.1013 130.342 9.94233 130.389 7.75064" fill="#1CDBBC"/>
<path d="M106.154 7.55386C106.136 5.30905 106.912 3.13002 108.345 1.40128C108.937 0.569256 107.863 -0.416161 106.964 0.175012C103.238 2.65941 99.713 5.43424 96.4237 8.47342C96.3102 8.58344 96.2271 8.72084 96.1822 8.87233C96.1373 9.02383 96.1321 9.1843 96.1673 9.33833C96.2026 9.49235 96.277 9.63471 96.3833 9.75167C96.4896 9.86863 96.6242 9.95629 96.7743 10.0061C100.775 11.2463 104.667 12.8134 108.411 14.6916C109.265 15.1076 110.01 13.991 109.375 13.2466C107.806 11.6849 106.712 9.71115 106.219 7.55386" fill="#1CDBBC"/>
</g>
<defs>
<clipPath id="clip0_1723_4230">
<rect width="210.989" height="320" fill="white" transform="translate(0.505493)"/>
</clipPath>
</defs>
</svg>
