<svg width="56" height="57" viewBox="0 0 56 57" fill="none" xmlns="http://www.w3.org/2000/svg">
<path d="M27.9878 40.4999V38.0414" stroke="#1CDBBC" stroke-width="0.7" stroke-linecap="round" stroke-linejoin="round"/>
<path d="M19.4771 36.9877L21.2432 35.2748" stroke="#1CDBBC" stroke-width="0.7" stroke-linecap="round" stroke-linejoin="round"/>
<path d="M34.7568 35.2501L36.4614 37.0247" stroke="#1CDBBC" stroke-width="0.7" stroke-linecap="round" stroke-linejoin="round"/>
<path d="M40.0001 28.4969H37.5386" stroke="#1CDBBC" stroke-width="0.7" stroke-linecap="round" stroke-linejoin="round"/>
<path d="M18.4615 28.4969H16" stroke="#1CDBBC" stroke-width="0.7" stroke-linecap="round" stroke-linejoin="round"/>
<path d="M18.4615 28.4969H16" stroke="#1CDBBC" stroke-width="0.7" stroke-linecap="round" stroke-linejoin="round"/>
<path d="M24.6154 26.2848H22.123V33.7282H24.6154V26.2848Z" stroke="#1CDBBC" stroke-width="0.7" stroke-linecap="round" stroke-linejoin="round"/>
<path d="M24.6216 31.8983C24.6216 31.8983 26.1662 33.716 26.1908 33.7221H30.6585C31.7047 33.7406 32.64 33.1244 32.7939 32.0893L33.7908 26.5191C33.8031 26.4451 33.7477 26.3712 33.6739 26.3712L29.8093 26.3527L31.797 22.5078C31.797 22.5078 31.797 22.4831 31.7908 22.477L29.9447 21.4541C29.9447 21.4541 29.9262 21.4541 29.92 21.4541L24.6339 27.7083" stroke="#1CDBBC" stroke-width="0.7" stroke-linecap="round" stroke-linejoin="round"/>
<path d="M34.7324 21.6881L36.4986 19.9751" stroke="#1CDBBC" stroke-width="0.7" stroke-linecap="round" stroke-linejoin="round"/>
<path d="M19.5137 19.9384L21.2183 21.7129" stroke="#1CDBBC" stroke-width="0.7" stroke-linecap="round" stroke-linejoin="round"/>
<path d="M27.9878 16.5V18.9647" stroke="#1CDBBC" stroke-width="0.7" stroke-linecap="round" stroke-linejoin="round"/>
<rect x="0.5" y="1" width="55" height="55" rx="27.5" stroke="#1CDBBC"/>
</svg>
