<svg width="218" height="320" viewBox="0 0 218 320" fill="none" xmlns="http://www.w3.org/2000/svg">
<g clip-path="url(#clip0_1723_4480)">
<path d="M104.566 312.636C104.334 314.833 103.414 316.901 101.938 318.546C101.82 318.714 101.762 318.916 101.773 319.121C101.783 319.326 101.863 319.522 101.998 319.676C102.134 319.83 102.317 319.934 102.519 319.972C102.721 320.009 102.93 319.978 103.111 319.883L114.279 313.41C114.415 313.332 114.529 313.219 114.608 313.083C114.687 312.948 114.728 312.793 114.728 312.636C114.728 312.479 114.687 312.325 114.608 312.189C114.529 312.053 114.415 311.94 114.279 311.862L103.111 305.389C102.93 305.294 102.721 305.263 102.519 305.3C102.317 305.338 102.134 305.442 101.998 305.596C101.863 305.75 101.783 305.946 101.773 306.151C101.762 306.356 101.82 306.558 101.938 306.726C103.414 308.371 104.334 310.439 104.566 312.636" fill="#1CDBBC"/>
<path d="M128.496 312.636C128.264 314.833 127.344 316.901 125.869 318.546C125.729 318.708 125.652 318.914 125.652 319.127C125.652 319.341 125.728 319.547 125.867 319.709C126.006 319.871 126.199 319.978 126.41 320.01C126.622 320.042 126.837 319.996 127.018 319.883L138.186 313.41C138.322 313.332 138.436 313.219 138.515 313.083C138.594 312.948 138.635 312.793 138.635 312.636C138.635 312.479 138.594 312.325 138.515 312.189C138.436 312.053 138.322 311.94 138.186 311.862L127.018 305.389C126.837 305.276 126.622 305.231 126.41 305.262C126.199 305.294 126.006 305.401 125.867 305.563C125.728 305.725 125.652 305.931 125.652 306.145C125.652 306.358 125.729 306.565 125.869 306.726C127.344 308.371 128.264 310.439 128.496 312.636" fill="#1CDBBC"/>
<path d="M80.6837 312.636C80.4513 314.833 79.5318 316.901 78.0561 318.546C77.9164 318.708 77.8396 318.914 77.8393 319.127C77.839 319.341 77.9154 319.547 78.0547 319.709C78.1939 319.871 78.3867 319.978 78.5979 320.01C78.8092 320.042 79.0249 319.996 79.2057 319.883L90.3731 313.41C90.5097 313.332 90.6233 313.219 90.7022 313.083C90.7811 312.948 90.8225 312.793 90.8225 312.636C90.8225 312.479 90.7811 312.325 90.7022 312.189C90.6233 312.053 90.5097 311.94 90.3731 311.862L79.2057 305.389C79.0249 305.276 78.8092 305.231 78.5979 305.262C78.3867 305.294 78.1939 305.401 78.0547 305.563C77.9154 305.725 77.839 305.931 77.8393 306.145C77.8396 306.358 77.9164 306.565 78.0561 306.726C79.5318 308.371 80.4513 310.439 80.6837 312.636" fill="#1CDBBC"/>
<path d="M104.565 287.073C104.331 289.263 103.411 291.323 101.937 292.96C101.805 293.127 101.736 293.334 101.741 293.546C101.745 293.759 101.824 293.963 101.962 294.124C102.101 294.284 102.291 294.392 102.501 294.428C102.71 294.464 102.926 294.426 103.11 294.32L114.277 287.847C114.413 287.766 114.526 287.651 114.605 287.514C114.683 287.376 114.724 287.22 114.724 287.062C114.724 286.903 114.683 286.748 114.605 286.61C114.526 286.472 114.413 286.357 114.277 286.276L103.11 279.827C102.928 279.732 102.719 279.7 102.518 279.738C102.316 279.775 102.132 279.879 101.997 280.034C101.862 280.188 101.782 280.383 101.771 280.588C101.76 280.793 101.819 280.996 101.937 281.164C103.417 282.806 104.337 284.875 104.565 287.073" fill="#1CDBBC"/>
<path d="M128.496 287.074C128.262 289.263 127.342 291.323 125.869 292.96C125.746 293.126 125.682 293.328 125.689 293.534C125.695 293.74 125.771 293.938 125.904 294.095C126.037 294.253 126.22 294.361 126.422 294.401C126.624 294.442 126.834 294.414 127.018 294.32L138.186 287.847C138.322 287.766 138.434 287.651 138.513 287.514C138.591 287.376 138.632 287.22 138.632 287.062C138.632 286.903 138.591 286.748 138.513 286.61C138.434 286.472 138.322 286.357 138.186 286.276L127.018 279.827C126.837 279.713 126.622 279.668 126.41 279.7C126.199 279.732 126.006 279.838 125.867 280C125.728 280.162 125.651 280.369 125.652 280.582C125.652 280.796 125.729 281.002 125.869 281.164C127.348 282.806 128.268 284.875 128.496 287.074" fill="#1CDBBC"/>
<path d="M80.6837 287.074C80.4496 289.263 79.53 291.323 78.0561 292.96C77.9332 293.126 77.87 293.328 77.8765 293.534C77.883 293.74 77.9588 293.938 78.0919 294.095C78.225 294.253 78.4075 294.361 78.6097 294.401C78.8118 294.442 79.0218 294.414 79.2057 294.32L90.3731 287.847C90.5092 287.766 90.6219 287.651 90.7002 287.514C90.7785 287.376 90.8196 287.22 90.8196 287.062C90.8196 286.903 90.7785 286.748 90.7002 286.61C90.6219 286.472 90.5092 286.357 90.3731 286.276L79.2057 279.827C79.0249 279.713 78.8092 279.668 78.5979 279.7C78.3867 279.732 78.1939 279.838 78.0547 280C77.9154 280.162 77.839 280.369 77.8393 280.582C77.8396 280.796 77.9164 281.002 78.0561 281.164C79.5359 282.806 80.456 284.875 80.6837 287.074" fill="#1CDBBC"/>
<path d="M133.071 247.135C135.271 247.377 137.339 248.304 138.983 249.785C139.151 249.904 139.354 249.962 139.559 249.951C139.764 249.94 139.959 249.861 140.114 249.725C140.268 249.59 140.373 249.407 140.41 249.205C140.448 249.003 140.416 248.795 140.321 248.613L133.846 237.45C133.764 237.314 133.649 237.201 133.512 237.123C133.374 237.045 133.218 237.003 133.059 237.003C132.901 237.003 132.745 237.045 132.608 237.123C132.47 237.201 132.355 237.314 132.274 237.45L125.822 248.613C125.726 248.795 125.695 249.003 125.732 249.205C125.77 249.407 125.874 249.59 126.029 249.725C126.183 249.861 126.379 249.94 126.584 249.951C126.789 249.962 126.991 249.904 127.159 249.785C128.801 248.3 130.87 247.373 133.071 247.135" fill="#1CDBBC"/>
<path d="M107.897 246.854C110.089 247.083 112.152 248.003 113.786 249.48C113.952 249.603 114.154 249.666 114.36 249.66C114.567 249.653 114.764 249.577 114.922 249.444C115.08 249.311 115.187 249.129 115.228 248.927C115.269 248.725 115.24 248.515 115.147 248.331L108.672 237.168C108.591 237.032 108.475 236.919 108.338 236.841C108.2 236.763 108.044 236.722 107.886 236.722C107.727 236.722 107.572 236.763 107.434 236.841C107.296 236.919 107.181 237.032 107.1 237.168L100.648 248.331C100.534 248.512 100.489 248.727 100.521 248.938C100.553 249.15 100.659 249.342 100.821 249.482C100.983 249.621 101.19 249.697 101.404 249.697C101.617 249.697 101.824 249.62 101.985 249.48C103.628 248.001 105.698 247.081 107.897 246.854" fill="#1CDBBC"/>
<path d="M82.2561 246.854C84.4554 247.081 86.5253 248.001 88.1681 249.48C88.3297 249.62 88.5364 249.697 88.75 249.697C88.9636 249.697 89.1702 249.621 89.3322 249.482C89.4942 249.342 89.6009 249.15 89.6327 248.938C89.6645 248.727 89.6193 248.512 89.5055 248.331L83.0537 237.168C82.9726 237.032 82.8576 236.919 82.7198 236.841C82.582 236.763 82.4263 236.722 82.2679 236.722C82.1094 236.722 81.9534 236.763 81.8157 236.841C81.6779 236.919 81.5629 237.032 81.4817 237.168L75.0299 248.331C74.9161 248.512 74.871 248.727 74.9028 248.938C74.9346 249.15 75.0412 249.342 75.2032 249.482C75.3652 249.621 75.5718 249.697 75.7854 249.697C75.9991 249.697 76.2057 249.62 76.3674 249.48C78.0047 248.007 80.0655 247.088 82.2561 246.854" fill="#1CDBBC"/>
<path d="M133.071 219.04C135.269 219.273 137.338 220.192 138.983 221.667C139.151 221.785 139.354 221.843 139.559 221.832C139.764 221.822 139.959 221.742 140.114 221.607C140.268 221.471 140.373 221.288 140.41 221.086C140.448 220.884 140.416 220.676 140.321 220.494L133.846 209.331C133.764 209.195 133.649 209.082 133.512 209.004C133.374 208.926 133.218 208.885 133.059 208.885C132.901 208.885 132.745 208.926 132.608 209.004C132.47 209.082 132.355 209.195 132.274 209.331L125.822 220.494C125.726 220.676 125.695 220.884 125.732 221.086C125.77 221.288 125.874 221.471 126.029 221.607C126.183 221.742 126.379 221.822 126.584 221.832C126.789 221.843 126.991 221.785 127.159 221.667C128.802 220.188 130.872 219.268 133.071 219.04" fill="#1CDBBC"/>
<path d="M107.897 218.453C110.089 218.683 112.152 219.603 113.786 221.08C113.952 221.203 114.154 221.266 114.36 221.26C114.567 221.253 114.764 221.177 114.922 221.044C115.08 220.911 115.187 220.729 115.228 220.527C115.269 220.325 115.24 220.115 115.147 219.931L108.672 208.768C108.591 208.632 108.475 208.519 108.338 208.441C108.2 208.363 108.044 208.322 107.886 208.322C107.727 208.322 107.572 208.363 107.434 208.441C107.296 208.519 107.181 208.632 107.1 208.768L100.648 219.931C100.534 220.112 100.489 220.327 100.521 220.538C100.553 220.75 100.659 220.942 100.821 221.081C100.983 221.221 101.19 221.297 101.404 221.297C101.617 221.297 101.824 221.22 101.985 221.08C103.628 219.601 105.698 218.681 107.897 218.453" fill="#1CDBBC"/>
<path d="M82.2561 218.453C84.4554 218.681 86.5253 219.601 88.1681 221.08C88.3297 221.22 88.5364 221.297 88.75 221.297C88.9636 221.297 89.1702 221.221 89.3322 221.081C89.4942 220.942 89.6009 220.75 89.6327 220.538C89.6645 220.327 89.6193 220.112 89.5055 219.931L83.0537 208.768C82.9726 208.632 82.8576 208.519 82.7198 208.441C82.582 208.363 82.4263 208.322 82.2679 208.322C82.1094 208.322 81.9534 208.363 81.8157 208.441C81.6779 208.519 81.5629 208.632 81.4817 208.768L75.0299 219.931C74.9161 220.112 74.871 220.327 74.9028 220.538C74.9346 220.75 75.0412 220.942 75.2032 221.081C75.3652 221.221 75.5718 221.297 75.7854 221.297C75.9991 221.297 76.2057 221.22 76.3674 221.08C78.0047 219.607 80.0655 218.687 82.2561 218.453" fill="#1CDBBC"/>
<path d="M163.523 195.4C164.525 197.376 164.823 199.635 164.368 201.803C164.359 202.014 164.421 202.222 164.545 202.393C164.67 202.565 164.848 202.689 165.052 202.746C165.256 202.803 165.473 202.789 165.668 202.708C165.863 202.626 166.025 202.48 166.127 202.295C166.667 201.31 167.253 200.372 167.746 199.364L169.224 196.338C170.201 194.383 171.078 192.379 171.852 190.335C171.912 190.188 171.932 190.029 171.91 189.872C171.888 189.716 171.825 189.568 171.727 189.444C171.629 189.32 171.5 189.224 171.353 189.166C171.206 189.108 171.046 189.091 170.89 189.115C168.825 189.49 166.643 189.608 164.579 189.772L161.505 189.983C160.496 189.983 159.417 189.983 158.408 189.983C158.211 190.005 158.027 190.092 157.885 190.231C157.743 190.369 157.651 190.551 157.624 190.748C157.597 190.944 157.637 191.144 157.736 191.315C157.836 191.487 157.99 191.621 158.174 191.695C160.271 192.376 162.128 193.646 163.523 195.353" fill="#1CDBBC"/>
<path d="M107.897 190.053C110.089 190.283 112.152 191.202 113.786 192.68C113.952 192.803 114.154 192.866 114.36 192.86C114.567 192.853 114.764 192.777 114.922 192.644C115.08 192.511 115.187 192.329 115.228 192.127C115.269 191.925 115.24 191.715 115.147 191.531L108.672 180.368C108.591 180.232 108.475 180.119 108.338 180.041C108.2 179.963 108.044 179.921 107.886 179.921C107.727 179.921 107.572 179.963 107.434 180.041C107.296 180.119 107.181 180.232 107.1 180.368L100.648 191.531C100.534 191.711 100.489 191.927 100.521 192.138C100.553 192.349 100.659 192.542 100.821 192.681C100.983 192.821 101.19 192.897 101.404 192.897C101.617 192.896 101.824 192.819 101.985 192.68C103.628 191.201 105.698 190.281 107.897 190.053" fill="#1CDBBC"/>
<path d="M82.2561 190.053C84.4554 190.281 86.5253 191.201 88.1681 192.68C88.3297 192.819 88.5364 192.896 88.75 192.897C88.9636 192.897 89.1702 192.821 89.3322 192.681C89.4942 192.542 89.6009 192.349 89.6327 192.138C89.6645 191.927 89.6193 191.711 89.5055 191.531L83.0537 180.368C82.9726 180.232 82.8576 180.119 82.7198 180.041C82.582 179.963 82.4263 179.921 82.2679 179.921C82.1094 179.921 81.9534 179.963 81.8157 180.041C81.6779 180.119 81.5629 180.232 81.4817 180.368L75.0299 191.531C74.9161 191.711 74.871 191.927 74.9028 192.138C74.9346 192.349 75.0412 192.542 75.2032 192.681C75.3652 192.821 75.5718 192.897 75.7854 192.897C75.9991 192.896 76.2057 192.819 76.3674 192.68C78.0047 191.207 80.0655 190.287 82.2561 190.053" fill="#1CDBBC"/>
<path d="M140.507 179.007C140.929 179.975 141.122 181.026 141.07 182.08C141.003 183.243 140.791 184.393 140.437 185.504C140.393 185.715 140.423 185.936 140.523 186.128C140.623 186.32 140.786 186.471 140.985 186.557C141.183 186.642 141.405 186.657 141.613 186.597C141.821 186.538 142.003 186.408 142.126 186.231C144.885 182.709 147.327 178.95 149.423 174.997C149.497 174.855 149.532 174.697 149.526 174.537C149.519 174.377 149.47 174.221 149.385 174.086C149.299 173.951 149.18 173.84 149.038 173.766C148.897 173.691 148.738 173.655 148.578 173.66C144.445 173.824 140.306 173.605 136.214 173.004C135.299 172.863 134.971 174.153 135.792 174.645C136.766 175.227 137.692 175.885 138.56 176.615C139.363 177.255 140.026 178.054 140.507 178.961" fill="#1CDBBC"/>
<path d="M181.706 180.345C182.446 181.088 183.001 181.996 183.324 182.995C183.519 183.546 183.676 184.11 183.793 184.683C183.907 185.256 183.986 185.836 184.028 186.419C184.075 186.626 184.192 186.811 184.358 186.943C184.524 187.076 184.73 187.148 184.943 187.148C185.156 187.148 185.362 187.076 185.528 186.943C185.694 186.811 185.811 186.626 185.858 186.419C186.444 184.191 187.008 182.01 187.5 179.876L187.875 178.281L188.157 176.639L188.673 173.426C188.703 173.268 188.689 173.105 188.633 172.955C188.577 172.804 188.482 172.671 188.357 172.57C188.232 172.47 188.082 172.404 187.923 172.382C187.764 172.359 187.602 172.379 187.453 172.441L184.474 173.567L183.019 174.106L181.494 174.552C179.477 175.162 177.482 175.725 175.558 176.241C175.369 176.301 175.207 176.424 175.098 176.59C174.989 176.756 174.94 176.954 174.959 177.151C174.978 177.349 175.064 177.533 175.203 177.675C175.342 177.817 175.526 177.906 175.723 177.929L177.412 178.281C177.962 178.391 178.503 178.539 179.031 178.726C180.024 179.031 180.937 179.552 181.706 180.251" fill="#1CDBBC"/>
<path d="M160.027 165.851C161.357 167.642 162.029 169.837 161.927 172.066C161.952 172.28 162.05 172.479 162.205 172.629C162.359 172.78 162.561 172.872 162.776 172.892C162.99 172.911 163.205 172.856 163.384 172.735C163.563 172.615 163.695 172.436 163.757 172.23C165.326 168.046 166.511 163.729 167.3 159.332C167.324 159.176 167.308 159.017 167.253 158.87C167.198 158.723 167.106 158.592 166.986 158.49C166.866 158.389 166.721 158.32 166.567 158.291C166.412 158.262 166.253 158.273 166.104 158.323C162.213 159.729 158.2 160.766 154.115 161.419C153.919 161.465 153.745 161.575 153.62 161.733C153.495 161.89 153.427 162.085 153.427 162.287C153.427 162.488 153.495 162.683 153.62 162.84C153.745 162.998 153.919 163.108 154.115 163.154C156.267 163.496 158.282 164.429 159.933 165.851" fill="#1CDBBC"/>
<path d="M97.5729 160.598C97.3452 162.796 96.4251 164.866 94.9453 166.508C94.827 166.676 94.7689 166.878 94.7798 167.083C94.7907 167.288 94.87 167.484 95.0054 167.638C95.1408 167.792 95.3242 167.896 95.5261 167.934C95.728 167.971 95.9365 167.94 96.1184 167.845L107.286 161.395C107.422 161.314 107.535 161.199 107.613 161.062C107.691 160.924 107.732 160.768 107.732 160.61C107.732 160.451 107.691 160.296 107.613 160.158C107.535 160.02 107.422 159.905 107.286 159.824L96.1184 153.351C95.934 153.246 95.7186 153.208 95.5092 153.244C95.2998 153.279 95.1095 153.387 94.9708 153.548C94.8321 153.709 94.7535 153.913 94.7488 154.125C94.7442 154.338 94.8137 154.545 94.9453 154.712C96.4193 156.348 97.3388 158.408 97.5729 160.598" fill="#1CDBBC"/>
<path d="M195.969 161.513C197.763 162.846 199.053 164.747 199.629 166.907C199.698 167.12 199.842 167.3 200.036 167.414C200.229 167.528 200.457 167.567 200.677 167.523C200.897 167.48 201.093 167.357 201.229 167.179C201.364 167 201.429 166.778 201.412 166.555V163.178C201.471 162.076 201.471 160.972 201.412 159.871C201.412 157.526 201.248 155.439 201.107 153.305C201.095 153.147 201.041 152.995 200.951 152.866C200.861 152.736 200.738 152.632 200.595 152.565C200.452 152.498 200.294 152.471 200.136 152.485C199.979 152.5 199.828 152.556 199.699 152.648C197.893 153.844 196.11 154.993 194.35 156.048C193.472 156.607 192.564 157.116 191.629 157.573L188.907 159.003C188.063 159.425 188.532 160.715 189.494 160.645C191.645 160.315 193.845 160.616 195.828 161.513" fill="#1CDBBC"/>
<path d="M122.911 158.487C123.357 160.695 122.955 162.989 121.785 164.913C121.293 165.828 122.583 166.648 123.404 165.875C126.8 162.826 129.768 159.331 132.225 155.485C132.306 155.351 132.351 155.198 132.356 155.041C132.36 154.884 132.324 154.728 132.251 154.589C132.178 154.45 132.07 154.332 131.938 154.247C131.806 154.162 131.655 154.112 131.498 154.102C127.441 153.934 123.428 153.191 119.58 151.897C118.759 151.639 118.243 152.812 118.947 153.469C120.681 154.769 122.047 156.499 122.911 158.487" fill="#1CDBBC"/>
<path d="M174.643 147.418C176.468 148.705 177.774 150.601 178.326 152.765C178.409 152.968 178.56 153.135 178.754 153.237C178.947 153.34 179.171 153.372 179.385 153.327C179.6 153.283 179.792 153.165 179.928 152.994C180.065 152.822 180.137 152.609 180.133 152.39C180.365 147.92 180.192 143.438 179.616 138.999C179.592 138.843 179.527 138.696 179.428 138.573C179.33 138.449 179.201 138.353 179.055 138.294C178.908 138.235 178.749 138.215 178.593 138.236C178.436 138.257 178.288 138.317 178.162 138.412C174.871 140.919 171.361 143.125 167.675 145.002C166.83 145.401 167.299 146.644 168.261 146.597C170.423 146.271 172.634 146.555 174.643 147.418Z" fill="#1CDBBC"/>
<path d="M144.308 145.472C145.764 147.188 146.518 149.391 146.419 151.639C146.419 152.695 147.897 152.765 148.273 151.639C149.802 147.345 150.748 142.865 151.088 138.319C151.101 138.161 151.071 138.003 151.003 137.86C150.934 137.717 150.829 137.596 150.697 137.507C150.566 137.419 150.413 137.367 150.255 137.357C150.097 137.347 149.939 137.38 149.798 137.451C146.143 139.226 142.258 140.481 138.255 141.18C137.387 141.321 137.528 142.657 138.443 142.868C140.586 143.186 142.608 144.059 144.308 145.401" fill="#1CDBBC"/>
<path d="M205.589 139.96C207.614 140.835 209.272 142.385 210.281 144.346C210.404 144.529 210.588 144.663 210.8 144.724C211.013 144.785 211.239 144.769 211.441 144.679C211.643 144.59 211.806 144.432 211.903 144.234C212 144.035 212.024 143.809 211.97 143.595C211.759 142.493 211.595 141.391 211.36 140.289L210.539 137.029L209.695 133.863L209.273 132.292C209.108 131.776 208.92 131.26 208.733 130.744C208.687 130.591 208.601 130.454 208.484 130.346C208.367 130.238 208.223 130.164 208.067 130.13C207.912 130.097 207.75 130.106 207.599 130.156C207.448 130.206 207.313 130.296 207.208 130.415C206.856 130.814 206.527 131.213 206.152 131.588L205.026 132.737L202.68 134.965L200.334 137.099C199.583 137.779 198.762 138.436 197.988 139.093C197.213 139.749 197.988 140.828 198.926 140.547C200.968 139.739 203.2 139.535 205.354 139.96" fill="#1CDBBC"/>
<path d="M182.971 125.42C185.106 126.102 186.934 127.514 188.133 129.407C188.276 129.569 188.47 129.677 188.684 129.713C188.897 129.748 189.116 129.709 189.304 129.601C189.492 129.493 189.636 129.324 189.714 129.122C189.791 128.92 189.796 128.698 189.728 128.492C188.541 124.164 186.971 119.949 185.036 115.899C184.965 115.756 184.859 115.634 184.727 115.545C184.595 115.456 184.442 115.403 184.283 115.391C184.125 115.38 183.965 115.409 183.822 115.478C183.678 115.546 183.555 115.651 183.464 115.782C181.111 119.156 178.44 122.298 175.487 125.162C174.83 125.819 175.651 126.874 176.566 126.523C178.511 125.55 180.69 125.144 182.854 125.35" fill="#1CDBBC"/>
<path d="M157.049 123.755C159.105 124.606 160.775 126.184 161.741 128.188C162.257 129.126 163.594 128.469 163.43 127.39C162.721 122.879 161.403 118.485 159.512 114.328C159.447 114.183 159.345 114.059 159.217 113.967C159.088 113.875 158.937 113.819 158.779 113.804C158.622 113.79 158.463 113.818 158.32 113.885C158.176 113.952 158.053 114.056 157.964 114.187C155.611 117.493 152.799 120.446 149.612 122.958C148.908 123.497 149.612 124.599 150.574 124.342C152.618 123.615 154.812 123.413 156.955 123.755" fill="#1CDBBC"/>
<path d="M209.951 116.743C212.144 117.115 214.136 118.244 215.582 119.933C216.286 120.66 217.435 119.792 217.037 118.807C216.638 117.822 216.122 116.767 215.629 115.735L214.127 112.756L212.602 109.848C212.086 108.91 211.5 107.972 210.937 107.034C210.856 106.898 210.741 106.786 210.603 106.707C210.465 106.629 210.309 106.588 210.151 106.588C209.992 106.588 209.836 106.629 209.699 106.707C209.561 106.786 209.446 106.898 209.365 107.034C208.849 107.972 208.356 108.887 207.816 109.802L206.104 112.475L204.391 115.055C203.805 115.899 203.265 116.743 202.608 117.564C201.951 118.385 202.983 119.253 203.828 118.76C205.636 117.513 207.757 116.798 209.951 116.696" fill="#1CDBBC"/>
<path d="M184.24 101.968C186.479 101.97 188.647 102.759 190.363 104.196C191.185 104.83 192.193 103.751 191.607 102.86C189.214 99.0775 186.482 95.5216 183.443 92.236C183.336 92.1164 183.2 92.0275 183.047 91.9789C182.895 91.9303 182.732 91.9236 182.576 91.9596C182.42 91.9956 182.276 92.0729 182.16 92.1834C182.045 92.294 181.961 92.4336 181.918 92.5878C180.712 96.5322 179.141 100.356 177.225 104.009C176.803 104.806 177.906 105.58 178.656 104.97C180.22 103.456 182.18 102.415 184.311 101.968" fill="#1CDBBC"/>
<path d="M157.87 98.6146C158.908 98.4266 159.977 98.4828 160.99 98.7788C162.117 99.1195 163.191 99.6168 164.181 100.256C165.096 100.796 165.964 99.623 165.283 98.7319C162.518 95.0996 159.274 91.8573 155.641 89.0932C155.515 88.9964 155.366 88.9348 155.209 88.9147C155.052 88.8946 154.892 88.9167 154.747 88.9788C154.601 89.0409 154.474 89.1408 154.38 89.268C154.285 89.3953 154.227 89.5454 154.21 89.7029C153.718 93.7423 152.651 97.6908 151.042 101.429C150.667 102.226 151.864 102.836 152.544 102.179C153.33 101.378 154.186 100.648 155.101 99.9983C155.924 99.3655 156.866 98.903 157.87 98.6381" fill="#1CDBBC"/>
<path d="M7.64829 88.8589C5.54217 88.1838 3.72975 86.8105 2.51046 84.9659C2.36779 84.8095 2.17618 84.7059 1.96718 84.672C1.75818 84.6381 1.544 84.6759 1.35917 84.7791C1.17434 84.8823 1.0297 85.0451 0.949065 85.2408C0.868431 85.4365 0.856509 85.6537 0.914984 85.8571C2.12529 90.1198 3.62246 94.2959 5.39612 98.3569C5.4584 98.5028 5.55832 98.6295 5.68595 98.7238C5.81357 98.8181 5.96428 98.8767 6.12212 98.8934C6.27995 98.9102 6.4392 98.8844 6.58378 98.819C6.72836 98.7535 6.85283 98.6507 6.94434 98.521C9.43223 95.1604 12.1444 91.9716 15.0621 88.9762C15.7424 88.3195 14.8977 87.2407 14.0061 87.6394C12.047 88.6451 9.84065 89.0683 7.64829 88.8589" fill="#1CDBBC"/>
<path d="M33.948 89.0231C31.8628 88.2082 30.1283 86.69 29.0448 84.7314C28.9108 84.5632 28.723 84.4461 28.5129 84.3998C28.3029 84.3534 28.0833 84.3806 27.8909 84.4767C27.6985 84.5729 27.5451 84.7322 27.4562 84.928C27.3673 85.1238 27.3484 85.3442 27.4026 85.5522C28.2716 89.9411 29.5358 94.2425 31.1798 98.4038C31.2426 98.5476 31.3413 98.6728 31.4665 98.7674C31.5917 98.862 31.7391 98.9229 31.8946 98.9441C32.0501 98.9653 32.2086 98.9461 32.3546 98.8885C32.5005 98.8308 32.6293 98.7366 32.7283 98.6149C35.2969 95.3754 38.1637 92.3839 41.2914 89.6797C41.9717 89.07 41.2915 87.9678 40.3062 88.2727C38.2975 89.1072 36.096 89.3671 33.948 89.0231" fill="#1CDBBC"/>
<path d="M208.898 93.1506C209.94 93.0125 211 93.1168 211.995 93.4554C213.086 93.8404 214.133 94.3437 215.115 94.9563C215.983 95.5192 216.898 94.3935 216.288 93.5492C214.927 91.7435 213.496 89.9846 212.112 88.296C210.728 86.6075 209.156 85.0128 207.654 83.465C207.544 83.3518 207.405 83.27 207.253 83.2279C207.101 83.1859 206.94 83.1851 206.787 83.2257C206.634 83.2662 206.495 83.3467 206.384 83.4588C206.272 83.5709 206.192 83.7106 206.153 83.8636C205.543 85.9274 204.886 87.9443 204.229 89.9142C203.572 91.8842 202.775 93.7837 201.883 95.6599C201.811 95.8489 201.807 96.0571 201.873 96.2485C201.938 96.44 202.068 96.6025 202.241 96.7082C202.413 96.8139 202.617 96.856 202.817 96.8273C203.018 96.7986 203.202 96.7009 203.338 96.5511C204.154 95.7465 205.042 95.0166 205.989 94.37C206.84 93.7712 207.807 93.3559 208.827 93.1506" fill="#1CDBBC"/>
<path d="M61.6337 87.7097C59.7019 86.5475 58.272 84.7084 57.6219 82.5503C57.2465 81.5653 55.8389 81.9875 55.8389 83.0897C55.802 87.6503 56.386 92.1948 57.575 96.598C57.6185 96.751 57.7012 96.89 57.8149 97.0014C57.9287 97.1127 58.0693 97.1924 58.2233 97.2326C58.3773 97.2729 58.5393 97.2723 58.693 97.2309C58.8467 97.1895 58.9871 97.1088 59.1 96.9966C61.9459 94.1074 65.1934 91.6431 68.7424 89.6796C69.5166 89.2575 68.9534 88.038 68.015 88.1553C65.8838 88.5385 63.6908 88.3854 61.6337 87.7097" fill="#1CDBBC"/>
<path d="M178.327 79.1734C180.451 78.4955 182.746 78.5953 184.803 79.4548C185.788 79.7831 186.398 78.4698 185.577 77.7663C182.15 74.901 178.467 72.3575 174.574 70.1679C174.434 70.0903 174.277 70.0504 174.118 70.0521C173.959 70.0538 173.803 70.097 173.665 70.1776C173.528 70.2581 173.413 70.3732 173.334 70.5113C173.255 70.6495 173.213 70.806 173.213 70.9652C173.262 75.0695 172.916 79.1689 172.181 83.2071C172.016 84.1217 173.307 84.4969 173.823 83.6761C174.869 81.7319 176.427 80.1101 178.327 78.9858" fill="#1CDBBC"/>
<path d="M146.609 76.1713C148.445 74.8824 150.695 74.3223 152.92 74.6001C153.976 74.6001 154.187 73.193 153.179 72.7239C149.008 70.857 144.605 69.5632 140.087 68.8778C139.931 68.8535 139.771 68.8711 139.624 68.9289C139.477 68.9866 139.348 69.0825 139.25 69.2066C139.152 69.3307 139.089 69.4786 139.067 69.6351C139.045 69.7916 139.065 69.9512 139.125 70.0973C140.597 73.8585 141.544 77.8041 141.941 81.8232C141.941 82.7144 143.325 82.691 143.606 81.8232C144.114 79.7091 145.147 77.757 146.609 76.1479" fill="#1CDBBC"/>
<path d="M43.6614 67.6113C41.9123 66.2109 40.7224 64.2311 40.3066 62.0298C40.2279 61.8284 40.0835 61.6594 39.8968 61.5501C39.7102 61.4408 39.4922 61.3976 39.2779 61.4274C39.0637 61.4572 38.8657 61.5584 38.716 61.7145C38.5664 61.8706 38.4738 62.0725 38.4531 62.2878C37.9795 66.7352 37.8775 71.2144 38.1481 75.6787C38.1563 75.8383 38.2072 75.9927 38.2956 76.1259C38.384 76.259 38.5065 76.3659 38.6505 76.4354C38.7944 76.505 38.9543 76.5345 39.1135 76.5211C39.2728 76.5076 39.4256 76.4516 39.5557 76.3589C43.0096 74.083 46.6515 72.1059 50.4417 70.449C51.3097 70.0972 50.9345 68.8308 49.9491 68.8308C47.7807 69.0152 45.6035 68.593 43.6614 67.6113" fill="#1CDBBC"/>
<path d="M202.444 70.4257C204.576 69.7924 206.861 69.9083 208.919 70.754C209.125 70.7997 209.34 70.7746 209.53 70.6827C209.72 70.5909 209.874 70.4378 209.966 70.248C210.058 70.0582 210.084 69.8429 210.038 69.6369C209.993 69.4308 209.88 69.246 209.717 69.1124C208.825 68.4088 208.004 67.6818 207.089 67.0017L204.414 64.9848C202.678 63.6715 200.778 62.4755 198.995 61.3029C198.859 61.2213 198.703 61.1767 198.544 61.1733C198.386 61.1699 198.229 61.208 198.089 61.2837C197.949 61.3595 197.832 61.4703 197.748 61.6052C197.664 61.7402 197.617 61.8946 197.611 62.0534C197.47 64.2109 197.4 66.2747 197.118 68.3619L196.743 71.4341C196.743 72.4425 196.414 73.4744 196.25 74.4828C196.086 75.4913 197.376 75.8196 197.892 74.9988C198.952 73.079 200.529 71.4947 202.444 70.4257" fill="#1CDBBC"/>
<path d="M77.6556 68.3152C76.5067 66.3742 76.1221 64.0751 76.5765 61.866C76.7407 60.8576 75.2625 60.5058 74.7229 61.4908C72.5569 65.5006 70.9169 69.7728 69.8432 74.2017C69.8082 74.357 69.8142 74.5187 69.8609 74.6709C69.9076 74.8231 69.9934 74.9605 70.1095 75.0694C70.2256 75.1784 70.3681 75.2552 70.523 75.2922C70.6779 75.3292 70.8399 75.3251 70.9927 75.2804C74.8823 74.1015 78.9173 73.47 82.9813 73.4043C83.8493 73.4043 83.9432 72.1144 82.9813 71.7392C80.9221 71.072 79.0658 69.894 77.5854 68.3152" fill="#1CDBBC"/>
<path d="M14.9927 66.4388C13.077 65.3044 11.6168 63.538 10.8635 61.4435C10.7697 61.2393 10.6057 61.0755 10.4013 60.9819C10.1968 60.8883 9.96571 60.8712 9.74973 60.9337C9.53376 60.9962 9.34731 61.1341 9.2245 61.3224C9.10168 61.5106 9.05055 61.7367 9.08044 61.9595C9.22121 64.3047 9.38539 66.4622 9.62 68.6432L10.0659 71.9265C10.2067 73.0053 10.3708 74.0841 10.582 75.1394C10.6113 75.2953 10.6807 75.4409 10.7833 75.5619C10.886 75.683 11.0183 75.7752 11.1674 75.8296C11.3164 75.884 11.4771 75.8987 11.6336 75.8723C11.7901 75.8458 11.9371 75.7791 12.06 75.6788C12.8577 74.9752 13.7024 74.3186 14.547 73.6619L17.0338 71.7389C18.723 70.5194 20.4592 69.3937 22.1484 68.268C22.9461 67.7755 22.3829 66.5326 21.421 66.6968C19.2969 67.2202 17.0679 67.1307 14.9927 66.4388" fill="#1CDBBC"/>
<path d="M125.985 61.7252C126.947 59.7238 128.619 58.1521 130.677 57.3163C131.615 56.8941 131.123 55.4636 129.997 55.5574C125.448 55.9022 120.965 56.8566 116.671 58.395C116.522 58.4503 116.39 58.5433 116.288 58.665C116.186 58.7866 116.117 58.9327 116.089 59.0888C116.061 59.245 116.073 59.4058 116.126 59.5556C116.179 59.7053 116.269 59.8388 116.389 59.9429C119.496 62.5503 122.221 65.5818 124.483 68.9484C124.976 69.6754 126.102 69.0656 125.938 68.1041C125.388 66.0133 125.388 63.816 125.938 61.7252" fill="#1CDBBC"/>
<path d="M165.727 59.3095C167.551 58.0064 169.782 57.3992 172.015 57.5976C172.234 57.585 172.441 57.4965 172.601 57.3472C172.761 57.198 172.864 56.9974 172.892 56.7803C172.92 56.5632 172.871 56.3432 172.754 56.1584C172.636 55.9736 172.458 55.8356 172.25 55.7683C168.109 54.0887 163.831 52.7704 159.463 51.8284C159.307 51.7964 159.145 51.8058 158.994 51.8557C158.842 51.9055 158.706 51.9941 158.6 52.1126C158.493 52.2311 158.419 52.3754 158.385 52.5313C158.352 52.6871 158.359 52.849 158.408 53.001C159.681 56.9369 160.6 60.979 161.153 65.0787C161.153 65.9699 162.584 65.9699 162.842 65.0787C163.254 62.9405 164.253 60.959 165.727 59.3565" fill="#1CDBBC"/>
<path d="M100.977 58.8877C100.88 57.8448 101.025 56.7936 101.399 55.8155C101.807 54.7016 102.385 53.6574 103.112 52.7198C103.746 51.899 102.619 50.8906 101.681 51.5003C97.8506 53.9789 94.3641 56.9517 91.3114 60.3417C91.2054 60.4612 91.1324 60.6065 91.1 60.7629C91.0676 60.9194 91.0768 61.0817 91.1267 61.2335C91.1765 61.3853 91.2653 61.5214 91.3841 61.6283C91.503 61.7352 91.6477 61.809 91.804 61.8426C95.7745 62.6599 99.6119 64.0253 103.206 65.8997C103.98 66.3219 104.684 65.2431 104.098 64.4926C103.384 63.6226 102.718 62.7145 102.103 61.7722C101.544 60.8929 101.162 59.9132 100.977 58.8877" fill="#1CDBBC"/>
<path d="M59.3796 50.1166C58.1448 48.259 57.6125 46.0224 57.8781 43.808C57.8671 43.5949 57.7835 43.392 57.6415 43.2326C57.4996 43.0733 57.3076 42.9671 57.0971 42.9315C56.8866 42.896 56.6704 42.9333 56.484 43.0372C56.2975 43.1411 56.152 43.3055 56.0716 43.5032C54.232 47.582 52.7713 51.8211 51.7078 56.1671C51.6728 56.3225 51.6789 56.4842 51.7256 56.6364C51.7723 56.7886 51.8581 56.926 51.9742 57.035C52.0903 57.1439 52.2328 57.2207 52.3877 57.2577C52.5426 57.2947 52.7046 57.2906 52.8574 57.2459C56.8276 56.0924 60.8956 55.3073 65.0101 54.9007C65.925 54.9007 65.9485 53.4702 65.0101 53.1887C62.8809 52.6978 60.9262 51.6356 59.3562 50.1166" fill="#1CDBBC"/>
<path d="M190.949 49.8353C192.885 48.7168 195.145 48.2947 197.354 48.6393C197.57 48.6511 197.783 48.5862 197.955 48.4561C198.128 48.3259 198.249 48.139 198.296 47.9282C198.344 47.7175 198.316 47.4967 198.217 47.3049C198.117 47.1131 197.953 46.9627 197.753 46.8804L194.703 45.403C193.718 44.9105 192.662 44.5118 191.63 44.0662L188.603 42.8232L185.506 41.721C185.357 41.6744 185.197 41.6671 185.044 41.6998C184.89 41.7325 184.748 41.8041 184.63 41.9077C184.512 42.0113 184.423 42.1435 184.371 42.2915C184.319 42.4395 184.306 42.5984 184.333 42.7529L184.896 45.8954C185.061 46.9273 185.178 47.9826 185.318 49.0145C185.459 50.0464 185.577 51.0548 185.67 52.1102L185.858 55.1824C185.904 55.3781 186.015 55.5526 186.172 55.6775C186.33 55.8024 186.525 55.8704 186.726 55.8704C186.927 55.8704 187.123 55.8024 187.28 55.6775C187.438 55.5526 187.548 55.3781 187.594 55.1824C188.176 53.0817 189.339 51.1878 190.949 49.7181" fill="#1CDBBC"/>
<path d="M27.4717 46.3406C25.8696 44.7787 24.8442 42.7203 24.5626 40.5011C24.5165 40.2866 24.3949 40.0958 24.2198 39.9635C24.0446 39.8312 23.8279 39.7663 23.6089 39.7805C23.3899 39.7947 23.1832 39.8871 23.0267 40.041C22.8701 40.1948 22.7743 40.3997 22.7563 40.6184L22.193 43.9485C22.193 44.5114 22.0053 45.0508 21.9349 45.5902L21.7474 47.2553L21.3954 50.5385C21.3954 51.6173 21.2547 52.7195 21.1843 53.7983C21.1807 53.955 21.2173 54.11 21.2909 54.2485C21.3644 54.3869 21.4723 54.5042 21.6042 54.5889C21.7361 54.6737 21.8875 54.7231 22.0441 54.7325C22.2006 54.7419 22.3569 54.711 22.498 54.6426C23.4599 54.1736 24.3751 53.6811 25.3604 53.2355L28.2461 51.9691L29.6772 51.3593L31.1318 50.7965L34.0174 49.7411C34.1942 49.6535 34.337 49.5098 34.4232 49.3324C34.5095 49.155 34.5345 48.954 34.4943 48.7609C34.454 48.5678 34.351 48.3936 34.201 48.2654C34.051 48.1372 33.8625 48.0624 33.6655 48.0526C31.4817 48.0694 29.3366 47.4765 27.4717 46.3406" fill="#1CDBBC"/>
<path d="M147.782 44.0895C149.139 42.3211 151.073 41.0845 153.248 40.5951C153.447 40.5136 153.612 40.3663 153.716 40.1777C153.819 39.9891 153.854 39.7708 153.816 39.5592C153.777 39.3476 153.667 39.1557 153.504 39.0156C153.341 38.8754 153.135 38.7956 152.92 38.7893C148.464 38.3782 143.979 38.3782 139.523 38.7893C139.367 38.8094 139.219 38.8694 139.093 38.9635C138.967 39.0575 138.867 39.1825 138.804 39.3263C138.74 39.4701 138.714 39.6279 138.73 39.7844C138.745 39.9409 138.8 40.0909 138.89 40.2199C141.3 43.5773 143.382 47.1584 145.107 50.9139C145.506 51.7582 146.773 51.3361 146.75 50.3745C146.505 48.2015 146.862 46.0031 147.782 44.0191" fill="#1CDBBC"/>
<path d="M79.6733 38.2028C79.069 36.0488 79.2351 33.7515 80.1427 31.7067C80.2049 31.4995 80.1916 31.277 80.1052 31.0787C80.0188 30.8804 79.8649 30.7191 79.6708 30.6235C79.4767 30.5279 79.255 30.5041 79.045 30.5565C78.835 30.6088 78.6503 30.7338 78.5238 30.9093C75.5311 34.2351 72.8531 37.8308 70.5238 41.6502C70.4413 41.7882 70.3966 41.9455 70.3943 42.1063C70.392 42.267 70.4321 42.4255 70.5106 42.5658C70.5891 42.7061 70.7032 42.8232 70.8414 42.9054C70.9796 42.9876 71.1371 43.0319 71.2979 43.0339C75.4318 43.1206 79.5481 43.5996 83.5914 44.4644C84.483 44.6521 84.9052 43.3622 84.1075 42.8228C82.2149 41.7107 80.6771 40.0842 79.6733 38.1325" fill="#1CDBBC"/>
<path d="M126.055 35.0372C126.345 34.0242 126.867 33.0928 127.58 32.3168C128.339 31.4133 129.224 30.6235 130.208 29.9716C131.076 29.4088 130.419 28.0955 129.363 28.33C125.002 29.3346 120.739 30.7236 116.624 32.4809C116.476 32.5407 116.348 32.6389 116.251 32.7653C116.154 32.8917 116.093 33.0416 116.074 33.1996C116.055 33.3575 116.078 33.5178 116.142 33.6636C116.205 33.8094 116.307 33.9355 116.436 34.0288C119.741 36.5193 122.819 39.2975 125.633 42.3307C126.243 43.0108 127.322 42.3307 127.017 41.3223C126.618 40.2624 126.304 39.1723 126.079 38.0625C125.879 37.0402 125.879 35.9891 126.079 34.9668" fill="#1CDBBC"/>
<path d="M174.973 32.387C176.599 30.8573 178.705 29.9375 180.932 29.7839C181.14 29.7366 181.325 29.6204 181.458 29.4543C181.59 29.2881 181.662 29.0818 181.662 28.8693C181.662 28.6567 181.59 28.4504 181.458 28.2842C181.325 28.1181 181.14 28.0019 180.932 27.9546C176.624 26.9224 172.25 26.1858 167.841 25.7502C167.683 25.7305 167.522 25.7539 167.375 25.8176C167.229 25.8814 167.102 25.9834 167.009 26.1128C166.915 26.2422 166.858 26.3944 166.844 26.5534C166.829 26.7124 166.858 26.8723 166.926 27.0165C168.629 30.8255 170.079 34.7427 171.266 38.7424C171.342 38.927 171.478 39.0809 171.651 39.1793C171.825 39.2777 172.027 39.3151 172.224 39.2853C172.421 39.2556 172.603 39.1605 172.74 39.0153C172.877 38.8701 172.961 38.6832 172.979 38.4845C173.037 36.3014 173.73 34.1825 174.973 32.387" fill="#1CDBBC"/>
<path d="M102.62 33.0437C102.675 30.8156 103.504 28.6763 104.966 26.9931C105.599 26.1958 104.567 25.1404 103.652 25.7033L100.743 27.5091C99.7812 28.1423 98.8661 28.7989 97.9511 29.4321L96.6139 30.4171L95.3 31.449C94.4319 32.1291 93.5874 32.8092 92.7663 33.5127C92.6469 33.6185 92.5572 33.7536 92.5062 33.9047C92.4552 34.0557 92.4445 34.2175 92.4753 34.3739C92.5061 34.5303 92.5776 34.676 92.6821 34.7965C92.7866 34.9169 92.9207 35.0079 93.0713 35.0606C94.0801 35.4123 95.089 35.811 96.0509 36.1862L97.5055 36.7491L98.9131 37.4057C99.875 37.8513 100.79 38.2734 101.681 38.7425L104.356 40.173C105.154 40.6186 105.951 39.5633 105.365 38.7894C103.903 37.1748 102.92 35.1853 102.526 33.0437" fill="#1CDBBC"/>
<path d="M44.1305 29.5728C42.925 27.7026 42.3952 25.4768 42.629 23.2643C42.6328 23.0457 42.5583 22.833 42.4187 22.6646C42.2792 22.4963 42.0839 22.3835 41.8683 22.3466C41.6527 22.3097 41.431 22.3513 41.2434 22.4637C41.0558 22.5761 40.9149 22.752 40.8459 22.9594L39.5085 26.0551C39.0862 27.0869 38.7108 28.1423 38.3354 29.1742C37.96 30.206 37.5847 31.2379 37.2563 32.2932L36.2943 35.4123C36.253 35.5659 36.2526 35.7277 36.2929 35.8816C36.3332 36.0355 36.4129 36.1762 36.5243 36.2899C36.6356 36.4036 36.7747 36.4862 36.9278 36.5298C37.0809 36.5733 37.2427 36.5761 37.3972 36.538L40.4939 35.811C41.5262 35.5999 42.5584 35.4358 43.5907 35.2482C44.6229 35.0606 45.6319 34.8964 46.6642 34.7557L49.7142 34.4039C49.9101 34.3581 50.0844 34.2474 50.2094 34.0899C50.3344 33.9324 50.4024 33.7372 50.4024 33.5362C50.4024 33.3352 50.3344 33.14 50.2094 32.9825C50.0844 32.8249 49.9101 32.7143 49.7142 32.6685C47.575 32.209 45.6173 31.1328 44.0835 29.5728" fill="#1CDBBC"/>
<path d="M155.499 19.0429C156.72 17.1803 158.554 15.8032 160.684 15.1499C160.889 15.0664 161.058 14.9131 161.161 14.7171C161.264 14.5211 161.294 14.295 161.247 14.0788C161.199 13.8627 161.076 13.6704 160.9 13.5359C160.724 13.4014 160.507 13.3335 160.285 13.3441C157.939 13.3441 155.758 13.3441 153.552 13.5551L150.268 13.8366C149.165 13.8366 148.109 14.0242 147.006 14.2118C146.851 14.2324 146.703 14.2937 146.579 14.3895C146.455 14.4853 146.358 14.6121 146.299 14.7573C146.239 14.9024 146.219 15.0607 146.24 15.2161C146.262 15.3715 146.324 15.5185 146.42 15.6424C147.077 16.4632 147.71 17.3543 148.32 18.222L150.103 20.8018C151.253 22.5606 152.309 24.343 153.317 26.0784C153.422 26.2577 153.588 26.3935 153.784 26.4612C153.98 26.5289 154.195 26.524 154.388 26.4474C154.581 26.3708 154.74 26.2275 154.836 26.0437C154.932 25.8598 154.96 25.6474 154.913 25.4452C154.495 23.2988 154.698 21.0777 155.499 19.0429" fill="#1CDBBC"/>
<path d="M64.2605 17.0728C63.5182 14.971 63.5182 12.6785 64.2605 10.5767C64.3137 10.365 64.2892 10.1412 64.1918 9.9459C64.0944 9.75057 63.9304 9.59654 63.7293 9.51158C63.5281 9.42663 63.3033 9.41636 63.0952 9.48267C62.8872 9.54898 62.7097 9.68746 62.5949 9.87312C61.2107 11.632 59.9437 13.5082 58.7238 15.3609L57.8088 16.721C57.5038 17.1901 57.2222 17.6826 56.9407 18.1516L55.2986 20.9659C55.2265 21.1042 55.1909 21.2587 55.1955 21.4146C55.2 21.5705 55.2444 21.7226 55.3243 21.8566C55.4043 21.9906 55.5172 22.1019 55.6522 22.1799C55.7873 22.258 55.9401 22.3002 56.0961 22.3026H59.2868H60.8588H62.4305C64.5185 22.4433 66.5597 22.584 68.6008 22.8889C68.7977 22.8897 68.9896 22.8253 69.1461 22.7058C69.3025 22.5862 69.4148 22.4183 69.4657 22.2281C69.5166 22.0379 69.5031 21.8362 69.4273 21.6546C69.3515 21.4729 69.2177 21.3214 69.0467 21.2238C67.1076 20.2554 65.4812 18.7597 64.3545 16.9087" fill="#1CDBBC"/>
<path d="M133.471 10.5063C134.243 8.42176 135.709 6.6663 137.623 5.53448C137.807 5.40947 137.939 5.22169 137.995 5.00626C138.051 4.79084 138.026 4.56255 137.925 4.36414C137.824 4.16574 137.655 4.01083 137.448 3.92839C137.241 3.84596 137.012 3.84165 136.802 3.9163L135.16 4.29154L133.518 4.73709L130.303 5.65171C129.248 5.93313 128.192 6.30837 127.16 6.6836L124.11 7.7624C123.963 7.82023 123.833 7.91519 123.733 8.03801C123.634 8.16083 123.568 8.30731 123.542 8.4632C123.516 8.61909 123.531 8.77907 123.585 8.92751C123.639 9.07595 123.731 9.20782 123.852 9.31022L126.198 11.3974C126.995 12.0775 127.77 12.7342 128.544 13.4846L130.89 15.6656L131.969 16.7444L133.025 17.8936C133.658 18.5971 134.761 17.8936 134.433 16.8852C133.517 14.8919 133.2 12.6763 133.518 10.5063" fill="#1CDBBC"/>
<path d="M86.5473 9.52146C86.3498 8.48504 86.3982 7.4168 86.6882 6.40236C87.0124 5.28861 87.4692 4.2178 88.0488 3.21291C88.1446 3.01653 88.1688 2.79288 88.1173 2.58056C88.0657 2.36825 87.9416 2.18059 87.7664 2.04995C87.5913 1.91931 87.3759 1.85389 87.1576 1.86498C86.9393 1.87607 86.7318 1.96296 86.5708 2.11068C84.8346 3.54124 83.1689 5.08906 81.5501 6.54307C79.9313 7.99708 78.4063 9.66216 76.8579 11.2334C76.7519 11.3514 76.6783 11.495 76.6445 11.6499C76.6107 11.8049 76.6181 11.9659 76.6654 12.1173C76.7127 12.2687 76.7985 12.4052 76.9146 12.5133C77.0306 12.6215 77.1726 12.6977 77.327 12.7343C79.415 13.2268 81.4564 13.7897 83.4505 14.3525C85.4447 14.9154 87.4155 15.6189 89.3158 16.3459C90.1839 16.6977 90.8407 15.5017 90.1369 14.845C89.2752 14.0781 88.4896 13.2299 87.7908 12.3122C87.1438 11.4981 86.6796 10.5542 86.4299 9.5449" fill="#1CDBBC"/>
<path d="M110.056 7.31674C110.343 5.10585 111.368 3.05651 112.965 1.5007C113.115 1.33639 113.199 1.12341 113.203 0.901486C113.207 0.679559 113.13 0.463804 112.986 0.294471C112.842 0.125139 112.642 0.0137889 112.423 -0.0188588C112.203 -0.0515066 111.979 -0.00319837 111.792 0.117051C109.751 1.14893 107.78 2.13387 105.88 3.30646L103.041 4.995C102.126 5.53439 101.211 6.19105 100.32 6.8008C100.188 6.88858 100.083 7.00967 100.014 7.15167C99.9445 7.29367 99.9144 7.45149 99.9263 7.60896C99.9382 7.76643 99.9918 7.91789 100.082 8.04786C100.171 8.17782 100.294 8.28163 100.437 8.34863C101.399 8.84111 102.337 9.26325 103.276 9.77919L106.021 11.327C107.827 12.312 109.587 13.4846 111.276 14.5868C112.05 15.1262 112.965 14.0708 112.426 13.2735C111.082 11.5574 110.267 9.48776 110.08 7.31674" fill="#1CDBBC"/>
</g>
<defs>
<clipPath id="clip0_1723_4480">
<rect width="216.264" height="320" fill="white" transform="translate(0.868134)"/>
</clipPath>
</defs>
</svg>
