<svg width="242" height="319" viewBox="0 0 242 319" fill="none" xmlns="http://www.w3.org/2000/svg">
<g clip-path="url(#clip0_1723_4013)">
<path d="M109.781 315.595C111.74 315.799 113.582 316.622 115.041 317.943C115.189 318.064 115.375 318.129 115.566 318.126C115.757 318.123 115.941 318.053 116.085 317.927C116.229 317.802 116.325 317.63 116.354 317.442C116.384 317.253 116.346 317.06 116.247 316.897L110.493 307.028C110.422 306.905 110.319 306.803 110.196 306.732C110.073 306.661 109.933 306.624 109.791 306.624C109.648 306.624 109.509 306.661 109.386 306.732C109.262 306.803 109.16 306.905 109.089 307.028L103.335 316.897C103.245 317.058 103.214 317.245 103.245 317.427C103.277 317.608 103.369 317.774 103.507 317.896C103.646 318.017 103.822 318.089 104.006 318.097C104.19 318.106 104.372 318.052 104.521 317.943C105.982 316.625 107.823 315.803 109.781 315.595" fill="#1CDBBC"/>
<path d="M132.363 315.594C134.322 315.799 136.165 316.622 137.623 317.943C137.772 318.052 137.954 318.106 138.138 318.097C138.323 318.089 138.499 318.017 138.637 317.895C138.775 317.774 138.868 317.608 138.899 317.427C138.93 317.245 138.899 317.058 138.809 316.897L133.055 307.028C132.987 306.905 132.887 306.802 132.765 306.73C132.643 306.659 132.505 306.621 132.363 306.621C132.222 306.621 132.083 306.659 131.962 306.73C131.84 306.802 131.74 306.905 131.671 307.028L125.917 316.897C125.828 317.058 125.796 317.245 125.828 317.427C125.859 317.608 125.952 317.774 126.09 317.895C126.228 318.017 126.404 318.089 126.588 318.097C126.773 318.106 126.954 318.052 127.104 317.943C128.562 316.622 130.404 315.799 132.363 315.594" fill="#1CDBBC"/>
<path d="M109.783 293.745C111.739 293.958 113.579 294.78 115.043 296.093C115.19 296.206 115.371 296.264 115.557 296.259C115.742 296.254 115.92 296.186 116.061 296.066C116.202 295.946 116.297 295.782 116.332 295.6C116.366 295.418 116.337 295.23 116.249 295.067L110.495 285.198C110.424 285.075 110.321 284.973 110.198 284.902C110.075 284.831 109.935 284.794 109.793 284.794C109.651 284.794 109.511 284.831 109.388 284.902C109.264 284.973 109.162 285.075 109.091 285.198L103.337 295.067C103.229 295.227 103.184 295.421 103.209 295.612C103.235 295.803 103.33 295.978 103.475 296.104C103.621 296.23 103.808 296.299 104.001 296.297C104.194 296.295 104.38 296.223 104.523 296.093C105.989 294.783 107.827 293.962 109.783 293.745" fill="#1CDBBC"/>
<path d="M132.364 293.745C134.334 293.95 136.189 294.772 137.663 296.094C137.806 296.223 137.992 296.295 138.185 296.297C138.378 296.299 138.565 296.23 138.711 296.104C138.857 295.978 138.951 295.803 138.977 295.612C139.002 295.421 138.957 295.227 138.849 295.067L133.095 285.198C133.027 285.075 132.927 284.972 132.805 284.901C132.683 284.829 132.544 284.791 132.403 284.791C132.262 284.791 132.123 284.829 132.001 284.901C131.88 284.972 131.78 285.075 131.711 285.198L125.957 295.067C125.849 295.227 125.804 295.421 125.83 295.612C125.855 295.803 125.95 295.978 126.096 296.104C126.242 296.23 126.429 296.299 126.622 296.297C126.815 296.295 127 296.223 127.143 296.094C128.607 294.78 130.447 293.958 132.403 293.745" fill="#1CDBBC"/>
<path d="M147.549 272.231C147.339 274.185 146.516 276.022 145.196 277.481C145.084 277.628 145.025 277.809 145.03 277.994C145.035 278.179 145.103 278.356 145.223 278.497C145.344 278.638 145.508 278.733 145.691 278.768C145.873 278.802 146.061 278.773 146.224 278.685L156.111 272.941C156.234 272.87 156.336 272.768 156.408 272.645C156.479 272.522 156.516 272.383 156.516 272.241C156.516 272.099 156.479 271.959 156.408 271.836C156.336 271.713 156.234 271.611 156.111 271.54L146.224 265.796C146.061 265.709 145.873 265.679 145.691 265.714C145.508 265.748 145.344 265.843 145.223 265.984C145.103 266.125 145.035 266.302 145.03 266.487C145.025 266.672 145.084 266.853 145.196 267C146.512 268.453 147.335 270.284 147.549 272.231" fill="#1CDBBC"/>
<path d="M105.431 272.231C105.228 274.183 104.411 276.021 103.098 277.481C102.985 277.628 102.927 277.809 102.932 277.994C102.937 278.179 103.005 278.356 103.125 278.497C103.245 278.638 103.41 278.733 103.592 278.768C103.774 278.802 103.963 278.773 104.126 278.685L114.013 272.941C114.136 272.87 114.238 272.768 114.309 272.645C114.38 272.522 114.418 272.383 114.418 272.241C114.418 272.099 114.38 271.959 114.309 271.836C114.238 271.713 114.136 271.611 114.013 271.54L104.126 265.796C103.963 265.709 103.774 265.679 103.592 265.714C103.41 265.748 103.245 265.843 103.125 265.984C103.005 266.125 102.937 266.302 102.932 266.487C102.927 266.672 102.985 266.853 103.098 267C104.407 268.455 105.224 270.286 105.431 272.231Z" fill="#1CDBBC"/>
<path d="M84.2738 272.231C84.0707 274.183 83.254 276.021 81.9406 277.481C81.828 277.628 81.7694 277.809 81.7743 277.994C81.7793 278.179 81.8476 278.356 81.9678 278.497C82.088 278.638 82.2529 278.733 82.435 278.768C82.6172 278.802 82.8055 278.773 82.9687 278.685L92.8554 272.941C92.9786 272.87 93.0809 272.768 93.152 272.645C93.2231 272.522 93.2605 272.383 93.2605 272.241C93.2605 272.099 93.2231 271.959 93.152 271.836C93.0809 271.713 92.9786 271.611 92.8554 271.54L82.9687 265.796C82.8055 265.709 82.6172 265.679 82.435 265.714C82.2529 265.748 82.088 265.843 81.9678 265.984C81.8476 266.125 81.7793 266.302 81.7743 266.487C81.7694 266.672 81.828 266.853 81.9406 267C83.2502 268.455 84.0667 270.286 84.2738 272.231" fill="#1CDBBC"/>
<path d="M126.528 272.231C126.326 274.187 125.502 276.027 124.175 277.481C124.054 277.629 123.99 277.814 123.993 278.005C123.995 278.196 124.066 278.38 124.191 278.524C124.317 278.668 124.489 278.763 124.678 278.792C124.866 278.822 125.06 278.784 125.223 278.685L135.11 272.941C135.233 272.87 135.335 272.768 135.406 272.645C135.478 272.522 135.515 272.383 135.515 272.241C135.515 272.099 135.478 271.959 135.406 271.836C135.335 271.713 135.233 271.611 135.11 271.54L125.223 265.796C125.06 265.697 124.866 265.659 124.678 265.689C124.489 265.718 124.317 265.814 124.191 265.958C124.066 266.102 123.995 266.285 123.993 266.476C123.99 266.667 124.054 266.852 124.175 267C125.498 268.449 126.322 270.281 126.528 272.231" fill="#1CDBBC"/>
<path d="M168.707 272.171C168.583 274.157 167.764 276.036 166.393 277.481C165.78 278.191 166.67 279.119 167.521 278.645C171.011 276.74 174.321 274.52 177.407 272.013C177.518 271.926 177.603 271.812 177.655 271.681C177.706 271.55 177.721 271.407 177.699 271.269C177.677 271.13 177.618 270.999 177.528 270.891C177.439 270.782 177.322 270.7 177.19 270.651C173.753 269.329 170.444 267.697 167.303 265.776C166.611 265.342 165.879 266.309 166.374 266.98C167.629 268.457 168.445 270.255 168.727 272.171" fill="#1CDBBC"/>
<path d="M63.3145 271.204C62.7759 273.124 61.5792 274.793 59.9333 275.922C59.7893 276.053 59.6959 276.23 59.6696 276.423C59.6433 276.615 59.6857 276.811 59.7894 276.976C59.893 277.14 60.0514 277.263 60.2368 277.323C60.4221 277.383 60.6227 277.376 60.8033 277.303C64.611 276.149 68.3097 274.663 71.8566 272.862C71.9798 272.791 72.0821 272.689 72.1532 272.566C72.2243 272.443 72.2618 272.304 72.2618 272.162C72.2618 272.02 72.2243 271.88 72.1532 271.757C72.0821 271.634 71.9798 271.532 71.8566 271.461C68.7671 269.46 65.868 267.181 63.1959 264.652C62.5829 264.119 61.6734 264.849 62.0293 265.658C62.9484 267.357 63.3731 269.278 63.2552 271.204" fill="#1CDBBC"/>
<path d="M189.349 268.224C189.829 270.151 189.612 272.185 188.736 273.968C188.38 274.816 189.507 275.428 190.16 274.737C191.603 273.277 192.888 271.698 194.114 270.178C195.34 268.658 196.487 267.04 197.535 265.402C197.611 265.283 197.655 265.146 197.662 265.006C197.669 264.865 197.639 264.725 197.575 264.599C197.511 264.474 197.415 264.367 197.297 264.29C197.179 264.212 197.043 264.167 196.902 264.158C194.925 264.158 193.126 263.842 191.326 263.605C189.527 263.369 187.728 262.994 185.987 262.54C185.197 262.342 184.781 263.467 185.473 263.98C187.119 265.016 188.446 266.484 189.309 268.224" fill="#1CDBBC"/>
<path d="M43.4221 264.474C42.3326 266.147 40.6762 267.373 38.7556 267.928C37.9053 268.224 38.2019 269.487 39.1511 269.527C43.124 269.574 47.0936 269.277 51.0151 268.639C51.1555 268.617 51.2877 268.559 51.3976 268.469C51.5075 268.379 51.5911 268.261 51.6397 268.128C51.6882 267.995 51.6999 267.851 51.6735 267.711C51.6471 267.572 51.5836 267.442 51.4896 267.336C49.1696 264.482 47.1052 261.431 45.3204 258.217C44.9447 257.487 43.8373 257.941 43.9164 258.789C44.2547 260.698 44.0702 262.662 43.3826 264.474" fill="#1CDBBC"/>
<path d="M207.758 258.158C208.822 259.835 209.243 261.84 208.944 263.803C208.926 264.007 208.984 264.21 209.107 264.374C209.231 264.538 209.411 264.65 209.612 264.69C209.814 264.729 210.023 264.692 210.199 264.587C210.375 264.481 210.505 264.314 210.565 264.118C212.281 260.535 213.683 256.81 214.757 252.986C214.798 252.851 214.801 252.708 214.767 252.571C214.733 252.434 214.663 252.308 214.564 252.208C214.465 252.107 214.341 252.034 214.205 251.998C214.068 251.961 213.925 251.962 213.788 251.999C210.217 252.91 206.57 253.497 202.893 253.756C202.063 253.756 202.003 254.98 202.893 255.276C204.772 255.759 206.477 256.757 207.817 258.158" fill="#1CDBBC"/>
<path d="M26.5162 252.019C24.9881 253.314 23.0433 254.015 21.039 253.993C20.8399 254.009 20.6533 254.097 20.5135 254.24C20.3738 254.382 20.2903 254.57 20.2782 254.77C20.2662 254.969 20.3265 255.165 20.4481 255.324C20.5697 255.482 20.7444 255.591 20.9402 255.631C22.9175 256.302 24.8949 256.816 26.7535 257.309C28.6122 257.802 30.7082 258.138 32.5471 258.395C32.687 258.412 32.829 258.392 32.9589 258.338C33.0889 258.283 33.2024 258.196 33.2883 258.084C33.3741 257.973 33.4293 257.841 33.4485 257.701C33.4676 257.562 33.45 257.42 33.3974 257.289C32.6856 255.552 32.1121 253.737 31.5585 252.019C31.0048 250.302 30.6093 248.506 30.293 246.73C30.1348 245.92 28.9286 246.039 28.7506 246.868C28.5136 248.792 27.7394 250.612 26.5162 252.118" fill="#1CDBBC"/>
<path d="M168.725 249.71C168.63 251.712 167.799 253.61 166.391 255.039C165.778 255.75 166.708 256.658 167.578 256.204C171.174 254.291 174.499 251.908 177.464 249.118C177.567 249.02 177.642 248.896 177.682 248.759C177.722 248.623 177.725 248.478 177.691 248.34C177.657 248.202 177.587 248.075 177.488 247.973C177.389 247.87 177.265 247.796 177.128 247.756C173.642 246.741 170.315 245.246 167.242 243.315C166.569 242.901 165.877 243.848 166.352 244.539C167.573 246.031 168.39 247.812 168.725 249.71" fill="#1CDBBC"/>
<path d="M126.075 249.71C125.87 251.665 125.046 253.505 123.722 254.96C123.613 255.109 123.559 255.291 123.567 255.475C123.576 255.659 123.647 255.834 123.77 255.972C123.892 256.11 124.057 256.203 124.239 256.234C124.421 256.265 124.608 256.234 124.77 256.145L134.656 250.401C134.78 250.333 134.883 250.232 134.955 250.111C135.027 249.989 135.064 249.851 135.064 249.71C135.064 249.569 135.027 249.431 134.955 249.309C134.883 249.188 134.78 249.088 134.656 249.019L124.77 243.275C124.608 243.186 124.421 243.155 124.239 243.186C124.057 243.217 123.892 243.31 123.77 243.448C123.647 243.586 123.576 243.761 123.567 243.945C123.559 244.129 123.613 244.311 123.722 244.46C125.046 245.915 125.87 247.755 126.075 249.71" fill="#1CDBBC"/>
<path d="M147.391 249.71C147.186 251.661 146.369 253.498 145.058 254.96C144.929 255.103 144.856 255.289 144.854 255.481C144.852 255.674 144.921 255.861 145.048 256.006C145.174 256.152 145.349 256.246 145.541 256.272C145.732 256.297 145.926 256.252 146.086 256.145L155.973 250.401C156.097 250.333 156.2 250.233 156.271 250.111C156.343 249.99 156.381 249.851 156.381 249.71C156.381 249.569 156.343 249.431 156.271 249.309C156.2 249.188 156.097 249.088 155.973 249.019L146.086 243.276C145.926 243.168 145.732 243.123 145.541 243.149C145.349 243.174 145.174 243.268 145.048 243.414C144.921 243.56 144.852 243.746 144.854 243.939C144.856 244.132 144.929 244.317 145.058 244.46C146.369 245.922 147.186 247.759 147.391 249.71" fill="#1CDBBC"/>
<path d="M104.76 249.71C104.546 251.663 103.723 253.5 102.407 254.96C102.278 255.103 102.205 255.289 102.203 255.481C102.201 255.674 102.27 255.861 102.396 256.006C102.523 256.152 102.698 256.246 102.89 256.272C103.081 256.297 103.275 256.252 103.435 256.145L113.322 250.401C113.445 250.333 113.548 250.233 113.62 250.111C113.692 249.99 113.73 249.851 113.73 249.71C113.73 249.569 113.692 249.431 113.62 249.309C113.548 249.188 113.445 249.088 113.322 249.019L103.435 243.276C103.275 243.168 103.081 243.123 102.89 243.149C102.698 243.174 102.523 243.268 102.396 243.414C102.27 243.56 102.201 243.746 102.203 243.939C102.205 244.132 102.278 244.317 102.407 244.46C103.723 245.921 104.546 247.757 104.76 249.71" fill="#1CDBBC"/>
<path d="M83.4248 249.71C83.2191 251.661 82.4027 253.498 81.0915 254.96C80.9623 255.103 80.8899 255.289 80.888 255.481C80.8861 255.674 80.9548 255.861 81.0812 256.006C81.2076 256.152 81.3829 256.246 81.5742 256.272C81.7655 256.297 81.9595 256.252 82.1198 256.145L92.0065 250.401C92.1301 250.333 92.2331 250.233 92.3049 250.111C92.3766 249.99 92.4145 249.851 92.4145 249.71C92.4145 249.569 92.3766 249.431 92.3049 249.309C92.2331 249.188 92.1301 249.088 92.0065 249.019L82.1198 243.276C81.9595 243.168 81.7655 243.123 81.5742 243.149C81.3829 243.174 81.2076 243.268 81.0812 243.414C80.9548 243.56 80.8861 243.746 80.888 243.939C80.8899 244.132 80.9623 244.317 81.0915 244.46C82.4027 245.922 83.2191 247.759 83.4248 249.71" fill="#1CDBBC"/>
<path d="M62.285 247.874C61.9826 248.758 61.4822 249.561 60.8218 250.223C60.0843 250.998 59.2385 251.663 58.3105 252.197C57.4801 252.671 58.0535 253.855 59.0224 253.717C63.0423 253.114 66.9607 251.965 70.6689 250.302C70.7957 250.242 70.9048 250.151 70.9857 250.037C71.0666 249.923 71.1164 249.79 71.1303 249.65C71.1443 249.511 71.1218 249.371 71.0652 249.243C71.0086 249.115 70.9198 249.004 70.8073 248.92C67.8737 246.816 65.2569 244.304 63.0364 241.46C62.5618 240.828 61.5732 241.46 61.7907 242.308C62.065 243.266 62.2698 244.242 62.4036 245.229C62.5452 246.143 62.5049 247.075 62.285 247.973" fill="#1CDBBC"/>
<path d="M189.072 243.65C189.903 245.477 190.015 247.548 189.388 249.453C189.17 250.342 190.416 250.776 190.99 249.967C193.317 246.643 195.192 243.026 196.566 239.209C196.608 239.074 196.615 238.93 196.586 238.792C196.557 238.653 196.493 238.524 196.4 238.417C196.306 238.31 196.187 238.229 196.054 238.181C195.92 238.133 195.776 238.12 195.636 238.144C192.091 238.806 188.47 238.966 184.88 238.617C184.089 238.617 183.891 239.683 184.623 240.098C186.383 240.887 187.914 242.109 189.072 243.65" fill="#1CDBBC"/>
<path d="M222.273 242.979C223.792 244.273 224.802 246.064 225.121 248.032C225.179 248.217 225.3 248.376 225.463 248.481C225.626 248.586 225.821 248.63 226.014 248.607C226.206 248.583 226.385 248.493 226.518 248.352C226.651 248.211 226.73 248.028 226.742 247.835C227.319 243.915 227.531 239.951 227.375 235.992C227.369 235.85 227.326 235.711 227.25 235.591C227.174 235.471 227.067 235.372 226.941 235.306C226.814 235.24 226.673 235.209 226.53 235.215C226.388 235.221 226.249 235.264 226.129 235.341C223.001 237.306 219.69 238.965 216.242 240.295C216.086 240.381 215.964 240.517 215.895 240.681C215.826 240.845 215.814 241.028 215.862 241.199C215.91 241.371 216.015 241.521 216.159 241.625C216.304 241.73 216.479 241.783 216.658 241.775C218.589 241.671 220.512 242.101 222.214 243.019" fill="#1CDBBC"/>
<path d="M43.957 237.394C43.2915 238.055 42.4782 238.549 41.5842 238.835C40.5894 239.172 39.5497 239.358 38.4996 239.387C37.5702 239.387 37.5109 240.749 38.4996 241.065C42.343 242.3 46.3312 243.03 50.3636 243.236C50.5035 243.243 50.6426 243.212 50.7667 243.147C50.8907 243.082 50.9953 242.986 51.0697 242.867C51.1441 242.749 51.1857 242.613 51.1902 242.473C51.1946 242.333 51.1619 242.195 51.0952 242.072C49.4442 238.862 48.2401 235.442 47.5162 231.907C47.3778 231.137 46.2112 231.275 46.0332 232.104C45.8486 233.083 45.5908 234.046 45.2621 234.986C44.983 235.872 44.5254 236.691 43.9175 237.394" fill="#1CDBBC"/>
<path d="M14.1967 235.045C12.3414 235.772 10.2868 235.814 8.40317 235.163C8.20467 235.109 7.99316 235.131 7.80963 235.224C7.62609 235.316 7.48359 235.474 7.40973 235.666C7.33588 235.857 7.33591 236.07 7.40985 236.261C7.4838 236.453 7.62638 236.61 7.80996 236.703C11.0289 239.037 14.4424 241.09 18.013 242.841C18.1415 242.905 18.2844 242.933 18.4273 242.923C18.5702 242.913 18.7079 242.866 18.8264 242.785C18.9449 242.705 19.0401 242.595 19.1021 242.466C19.1642 242.337 19.1909 242.194 19.1796 242.052C18.9233 238.388 18.9961 234.709 19.3972 231.058C19.496 230.249 18.3492 229.953 17.9142 230.722C17.0934 232.475 15.8078 233.97 14.1967 235.045Z" fill="#1CDBBC"/>
<path d="M204.359 229.203C205.926 230.454 206.958 232.253 207.246 234.236C207.463 235.144 208.748 234.946 208.907 233.979C209.495 229.964 209.542 225.888 209.045 221.86C209.025 221.722 208.969 221.591 208.883 221.48C208.797 221.37 208.683 221.284 208.554 221.23C208.424 221.176 208.283 221.157 208.144 221.174C208.005 221.191 207.872 221.244 207.76 221.327C204.883 223.517 201.706 225.285 198.328 226.578C197.596 226.854 197.952 227.979 198.783 228.018C200.713 227.919 202.636 228.327 204.359 229.203" fill="#1CDBBC"/>
<path d="M146.797 226.755C146.591 228.706 145.775 230.544 144.464 232.005C144.351 232.152 144.293 232.333 144.298 232.518C144.303 232.703 144.371 232.881 144.491 233.022C144.611 233.162 144.776 233.258 144.958 233.292C145.141 233.326 145.329 233.297 145.492 233.209L155.379 227.446C155.502 227.378 155.605 227.277 155.677 227.156C155.749 227.035 155.787 226.896 155.787 226.755C155.787 226.614 155.749 226.476 155.677 226.354C155.605 226.233 155.502 226.133 155.379 226.064L145.492 220.321C145.332 220.213 145.138 220.168 144.947 220.193C144.755 220.219 144.58 220.313 144.453 220.459C144.327 220.605 144.258 220.791 144.26 220.984C144.262 221.177 144.335 221.362 144.464 221.505C145.772 222.969 146.588 224.805 146.797 226.755" fill="#1CDBBC"/>
<path d="M125.066 226.755C124.852 228.708 124.029 230.545 122.713 232.005C122.6 232.152 122.541 232.333 122.546 232.518C122.551 232.703 122.62 232.881 122.74 233.022C122.86 233.162 123.025 233.258 123.207 233.292C123.389 233.326 123.578 233.297 123.741 233.209L133.627 227.446C133.751 227.378 133.854 227.277 133.926 227.156C133.998 227.035 134.035 226.896 134.035 226.755C134.035 226.614 133.998 226.476 133.926 226.354C133.854 226.233 133.751 226.133 133.627 226.064L123.741 220.321C123.581 220.213 123.387 220.168 123.195 220.193C123.004 220.219 122.829 220.313 122.702 220.459C122.576 220.605 122.507 220.791 122.509 220.984C122.511 221.177 122.583 221.362 122.713 221.505C124.025 222.968 124.848 224.803 125.066 226.755" fill="#1CDBBC"/>
<path d="M103.314 226.755C103.1 228.708 102.277 230.545 100.961 232.005C100.849 232.152 100.79 232.333 100.795 232.518C100.8 232.703 100.868 232.881 100.988 233.022C101.109 233.162 101.273 233.258 101.456 233.292C101.638 233.326 101.826 233.297 101.989 233.209L111.876 227.446C112 227.378 112.103 227.277 112.174 227.156C112.246 227.035 112.284 226.896 112.284 226.755C112.284 226.614 112.246 226.476 112.174 226.354C112.103 226.233 112 226.133 111.876 226.064L101.989 220.321C101.829 220.213 101.635 220.168 101.444 220.193C101.252 220.219 101.077 220.313 100.951 220.459C100.824 220.605 100.756 220.791 100.757 220.984C100.759 221.177 100.832 221.362 100.961 221.505C102.274 222.968 103.096 224.803 103.314 226.755" fill="#1CDBBC"/>
<path d="M81.5662 226.755C81.3616 228.711 80.5373 230.55 79.2132 232.005C79.1007 232.152 79.042 232.333 79.0469 232.518C79.0519 232.703 79.1202 232.881 79.2404 233.022C79.3606 233.162 79.5255 233.258 79.7077 233.292C79.8898 233.326 80.0782 233.297 80.2414 233.209L90.1281 227.446C90.2517 227.378 90.3547 227.277 90.4265 227.156C90.4982 227.035 90.5361 226.896 90.5361 226.755C90.5361 226.614 90.4982 226.476 90.4265 226.354C90.3547 226.233 90.2517 226.133 90.1281 226.064L80.2414 220.321C80.0812 220.213 79.8871 220.168 79.6958 220.193C79.5045 220.219 79.3291 220.313 79.2028 220.459C79.0764 220.605 79.0076 220.791 79.0096 220.984C79.0115 221.177 79.0839 221.362 79.2132 221.505C80.5338 222.963 81.3576 224.801 81.5662 226.755" fill="#1CDBBC"/>
<path d="M168.547 226.617C168.565 227.626 168.37 228.627 167.975 229.555C167.58 230.483 166.993 231.318 166.253 232.005C165.561 232.716 166.609 233.624 167.578 233.13C171.429 231.196 174.708 228.291 177.089 224.702C177.167 224.586 177.209 224.448 177.209 224.308C177.209 224.167 177.167 224.03 177.089 223.913C177.019 223.793 176.921 223.692 176.804 223.616C176.688 223.541 176.555 223.494 176.417 223.479C172.996 223.344 169.687 222.227 166.886 220.262C166.332 219.847 165.739 220.834 166.154 221.505C167.281 223.033 168.088 224.771 168.527 226.617" fill="#1CDBBC"/>
<path d="M60.9016 221.919C60.3019 222.647 59.5261 223.211 58.6474 223.557C57.6346 223.939 56.5658 224.153 55.4837 224.189C54.495 224.189 54.5939 225.61 55.6419 225.946C59.7499 227.248 64.1304 227.438 68.3364 226.498C68.4742 226.464 68.6006 226.395 68.7032 226.297C68.8057 226.2 68.8808 226.077 68.9208 225.941C68.9609 225.805 68.9645 225.661 68.9313 225.523C68.8981 225.385 68.8294 225.259 68.7319 225.156C66.3563 222.698 64.7605 219.594 64.1445 216.235C64.1445 215.544 62.9383 215.84 62.7603 216.61C62.5823 217.379 62.3451 218.583 62.0485 219.452C61.8167 220.336 61.4283 221.172 60.9016 221.919" fill="#1CDBBC"/>
<path d="M32.2703 219.807C30.3286 220.302 28.2724 220.063 26.4965 219.136C25.666 218.742 25.0135 219.906 25.7253 220.617C28.6112 223.467 31.8626 225.922 35.3945 227.92C35.5182 227.989 35.6578 228.024 35.7995 228.023C35.9412 228.021 36.08 227.982 36.202 227.91C36.3241 227.838 36.4251 227.736 36.495 227.613C36.565 227.49 36.6014 227.351 36.6007 227.209C36.5514 223.602 37.0174 220.007 37.9848 216.531C38.1825 215.781 37.095 215.386 36.5611 216.038C35.4805 217.643 34.0024 218.941 32.2703 219.807" fill="#1CDBBC"/>
<path d="M231.507 224.15C233.341 224.923 234.841 226.322 235.738 228.097C236.193 228.906 237.379 228.374 237.221 227.426C236.571 223.499 235.558 219.64 234.196 215.899C234.142 215.77 234.056 215.657 233.947 215.569C233.837 215.482 233.707 215.424 233.569 215.4C233.431 215.376 233.289 215.388 233.157 215.434C233.024 215.48 232.905 215.558 232.812 215.662C230.428 218.487 227.78 221.078 224.902 223.4C224.269 223.893 224.902 224.9 225.733 224.663C227.555 223.973 229.533 223.802 231.447 224.169" fill="#1CDBBC"/>
<path d="M186.007 215.09C186.835 215.555 187.519 216.237 187.984 217.064C188.524 218.005 188.892 219.034 189.072 220.103C189.083 220.2 189.114 220.293 189.165 220.377C189.215 220.46 189.283 220.532 189.364 220.586C189.445 220.641 189.537 220.677 189.633 220.692C189.73 220.708 189.828 220.702 189.922 220.676C190.137 220.622 190.335 220.513 190.496 220.36C190.656 220.169 190.759 219.936 190.792 219.689C191.451 215.44 190.987 211.092 189.448 207.077C189.394 206.946 189.307 206.832 189.196 206.745C189.084 206.658 188.952 206.602 188.812 206.582C188.672 206.562 188.53 206.579 188.398 206.631C188.267 206.683 188.151 206.769 188.063 206.879C185.982 209.601 183.151 211.658 179.917 212.8C179.849 212.822 179.788 212.861 179.74 212.912C179.691 212.964 179.657 213.028 179.64 213.097C179.612 213.158 179.597 213.226 179.597 213.294C179.597 213.362 179.612 213.429 179.64 213.491C179.709 213.66 179.822 213.806 179.969 213.914C180.115 214.022 180.289 214.087 180.47 214.103C181.459 214.202 182.448 214.221 183.377 214.379C184.295 214.477 185.187 214.745 186.007 215.169" fill="#1CDBBC"/>
<path d="M211.576 209.386C213.543 209.791 215.282 210.927 216.44 212.564C217.014 213.294 218.121 212.564 217.805 211.597C216.501 207.754 214.7 204.098 212.446 200.721C212.366 200.608 212.257 200.516 212.131 200.457C212.005 200.397 211.865 200.371 211.726 200.381C211.587 200.391 211.453 200.437 211.336 200.513C211.22 200.59 211.125 200.696 211.062 200.82C209.469 204.061 207.44 207.069 205.031 209.761C204.517 210.334 205.288 211.182 206.059 210.827C207.744 209.883 209.644 209.387 211.576 209.386" fill="#1CDBBC"/>
<path d="M234.552 203.386C235.492 203.407 236.414 203.65 237.241 204.097C238.164 204.57 239.021 205.16 239.792 205.853C240.464 206.465 241.433 205.616 241.018 204.768C239.192 201.23 237.055 197.861 234.631 194.701C234.543 194.591 234.427 194.506 234.296 194.454C234.165 194.402 234.022 194.385 233.882 194.405C233.742 194.425 233.61 194.481 233.499 194.567C233.387 194.654 233.3 194.768 233.247 194.899C231.836 198.293 230.115 201.55 228.106 204.629C227.631 205.32 228.56 206.09 229.272 205.597C230.107 205.022 230.987 204.514 231.902 204.077C232.731 203.676 233.632 203.441 234.552 203.386" fill="#1CDBBC"/>
<path d="M186.818 195.51C187.68 195.127 188.628 194.977 189.566 195.076C190.636 195.192 191.678 195.486 192.651 195.945C193.561 196.379 194.095 195.096 193.323 194.306C192.919 193.899 192.49 193.517 192.038 193.162L190.733 192.096C189.824 191.444 188.874 190.852 187.985 190.319C187.059 189.823 186.109 189.375 185.137 188.977C184.643 188.78 184.168 188.622 183.694 188.464L183.002 188.227L182.27 188.05C182.133 188.015 181.989 188.017 181.853 188.056C181.718 188.096 181.595 188.17 181.498 188.273C181.401 188.376 181.333 188.503 181.302 188.641C181.271 188.778 181.278 188.922 181.321 189.056L181.499 189.727L181.637 190.398L181.875 191.721C181.987 192.585 182.053 193.455 182.072 194.326C182.072 195.195 182.072 196.004 181.875 196.793L181.637 197.958C181.569 198.34 181.47 198.716 181.341 199.083C181.103 199.754 182.211 199.991 182.725 199.379C183.239 198.767 183.99 197.879 184.702 197.188C185.306 196.496 186.038 195.927 186.858 195.51" fill="#1CDBBC"/>
<path d="M209.123 188.523C211.059 188.038 213.105 188.276 214.877 189.195C215.727 189.589 216.38 188.425 215.648 187.734C212.77 184.869 209.518 182.406 205.979 180.411C205.857 180.341 205.718 180.304 205.576 180.305C205.435 180.306 205.297 180.345 205.176 180.418C205.055 180.49 204.955 180.594 204.888 180.718C204.821 180.841 204.788 180.981 204.792 181.122C204.842 184.729 204.376 188.324 203.408 191.8C203.211 192.55 204.298 192.964 204.832 192.293C205.913 190.688 207.391 189.39 209.123 188.523" fill="#1CDBBC"/>
<path d="M172.485 182.207C172.787 181.323 173.287 180.52 173.948 179.858C174.689 179.087 175.534 178.423 176.459 177.884C177.289 177.43 176.716 176.226 175.747 176.384C171.727 176.977 167.808 178.119 164.101 179.779C163.974 179.839 163.865 179.93 163.784 180.044C163.703 180.159 163.653 180.292 163.639 180.431C163.625 180.57 163.648 180.71 163.704 180.838C163.761 180.966 163.85 181.077 163.962 181.161C166.897 183.27 169.52 185.782 171.753 188.622C172.228 189.253 173.196 188.622 172.979 187.773C172.703 186.816 172.498 185.839 172.366 184.852C172.225 183.938 172.265 183.006 172.485 182.108" fill="#1CDBBC"/>
<path d="M133.035 180.924C133.245 178.97 134.069 177.133 135.388 175.674C135.501 175.527 135.559 175.346 135.554 175.161C135.549 174.976 135.481 174.799 135.361 174.658C135.241 174.517 135.076 174.422 134.893 174.387C134.711 174.353 134.523 174.382 134.36 174.47L124.473 180.214C124.35 180.285 124.248 180.387 124.177 180.51C124.105 180.633 124.068 180.772 124.068 180.914C124.068 181.056 124.105 181.196 124.177 181.319C124.248 181.442 124.35 181.544 124.473 181.615L134.36 187.359C134.523 187.446 134.711 187.476 134.893 187.441C135.076 187.407 135.241 187.312 135.361 187.171C135.481 187.03 135.549 186.853 135.554 186.668C135.559 186.483 135.501 186.302 135.388 186.155C134.072 184.702 133.249 182.871 133.035 180.924" fill="#1CDBBC"/>
<path d="M111.956 180.924C112.159 178.972 112.976 177.134 114.289 175.674C114.401 175.527 114.46 175.346 114.455 175.161C114.45 174.976 114.382 174.799 114.262 174.658C114.142 174.517 113.977 174.422 113.794 174.387C113.612 174.353 113.424 174.382 113.261 174.47L103.374 180.214C103.251 180.285 103.149 180.387 103.078 180.51C103.006 180.633 102.969 180.772 102.969 180.914C102.969 181.056 103.006 181.196 103.078 181.319C103.149 181.442 103.251 181.544 103.374 181.615L113.261 187.359C113.424 187.446 113.612 187.476 113.794 187.441C113.977 187.407 114.142 187.312 114.262 187.171C114.382 187.03 114.45 186.853 114.455 186.668C114.46 186.483 114.401 186.302 114.289 186.155C112.979 184.7 112.163 182.869 111.956 180.924Z" fill="#1CDBBC"/>
<path d="M90.8603 180.924C91.0634 178.972 91.8801 177.134 93.1935 175.674C93.306 175.527 93.3647 175.346 93.3597 175.161C93.3548 174.976 93.2865 174.799 93.1663 174.658C93.0461 174.517 92.8811 174.422 92.699 174.387C92.5169 174.353 92.3285 174.382 92.1653 174.47L82.2787 180.214C82.1555 180.285 82.0532 180.387 81.9821 180.51C81.911 180.633 81.8735 180.772 81.8735 180.914C81.8735 181.056 81.911 181.196 81.9821 181.319C82.0532 181.442 82.1555 181.544 82.2787 181.615L92.1653 187.359C92.3285 187.446 92.5169 187.476 92.699 187.441C92.8811 187.407 93.0461 187.312 93.1663 187.171C93.2865 187.03 93.3548 186.853 93.3597 186.668C93.3647 186.483 93.306 186.302 93.1935 186.155C91.8839 184.7 91.0674 182.869 90.8603 180.924Z" fill="#1CDBBC"/>
<path d="M154.133 180.924C154.335 178.968 155.16 177.128 156.486 175.674C156.607 175.526 156.672 175.341 156.669 175.15C156.666 174.959 156.595 174.776 156.47 174.632C156.345 174.488 156.172 174.392 155.984 174.363C155.795 174.333 155.601 174.371 155.438 174.47L145.551 180.214C145.428 180.285 145.326 180.387 145.255 180.51C145.184 180.633 145.146 180.773 145.146 180.915C145.146 181.057 145.184 181.196 145.255 181.319C145.326 181.442 145.428 181.544 145.551 181.615L155.438 187.359C155.601 187.458 155.795 187.496 155.984 187.466C156.172 187.437 156.345 187.341 156.47 187.197C156.595 187.053 156.666 186.87 156.669 186.679C156.672 186.488 156.607 186.303 156.486 186.155C155.163 184.706 154.339 182.874 154.133 180.924" fill="#1CDBBC"/>
<path d="M231.113 182.7C233.055 182.266 235.089 182.539 236.847 183.47C237.697 183.845 238.35 182.74 237.697 182.049C234.87 179.246 231.807 176.69 228.542 174.41C228.426 174.331 228.29 174.283 228.15 174.271C228.009 174.26 227.868 174.285 227.74 174.345C227.612 174.405 227.502 174.497 227.421 174.612C227.339 174.728 227.29 174.862 227.277 175.002C226.949 178.667 226.287 182.294 225.299 185.838C225.062 186.628 226.169 187.082 226.703 186.411C227.783 184.797 229.288 183.513 231.053 182.7" fill="#1CDBBC"/>
<path d="M69.7812 180.628C70.1434 178.728 71.0264 176.965 72.332 175.536C72.8659 174.845 72.154 173.917 71.4422 174.292C68.2218 176.084 64.8468 177.584 61.3578 178.773C61.2254 178.819 61.1074 178.899 61.0152 179.005C60.9231 179.11 60.86 179.238 60.8321 179.375C60.8042 179.513 60.8125 179.655 60.8561 179.788C60.8997 179.921 60.9772 180.04 61.0809 180.135C64.0839 182.747 67.3056 185.098 70.7105 187.161C71.5213 187.675 72.4506 186.727 71.8772 186.017C70.5535 184.53 69.8096 182.617 69.7812 180.628" fill="#1CDBBC"/>
<path d="M49.3163 175.891C50.2354 174.199 51.6037 172.792 53.2709 171.825C53.9828 171.351 53.6268 170.207 52.8161 170.364C49.2091 171.096 45.542 171.493 41.8617 171.549C41.7217 171.551 41.5847 171.59 41.4642 171.661C41.3437 171.733 41.2438 171.834 41.1741 171.955C41.1044 172.076 41.0673 172.213 41.0665 172.353C41.0658 172.493 41.1013 172.631 41.1696 172.753C43.2088 176.171 45.5586 179.396 48.1892 182.385C48.3057 182.536 48.471 182.643 48.6572 182.687C48.8435 182.731 49.0391 182.709 49.2112 182.625C49.3832 182.542 49.5211 182.401 49.6015 182.228C49.6819 182.055 49.6999 181.859 49.6524 181.674C48.8627 179.847 48.73 177.804 49.2767 175.891" fill="#1CDBBC"/>
<path d="M197.436 170.858C198.096 170.191 198.911 169.696 199.808 169.417C200.805 169.051 201.852 168.838 202.913 168.785C203.842 168.785 203.901 167.424 202.913 167.108C199.073 165.857 195.083 165.12 191.049 164.917C190.909 164.91 190.77 164.941 190.646 165.006C190.522 165.071 190.417 165.168 190.343 165.286C190.268 165.405 190.227 165.541 190.222 165.68C190.218 165.82 190.251 165.958 190.317 166.081C191.968 169.291 193.172 172.711 193.896 176.246C194.035 177.016 195.201 176.878 195.379 176.049C195.564 175.071 195.822 174.107 196.15 173.167C196.429 172.287 196.887 171.474 197.495 170.779" fill="#1CDBBC"/>
<path d="M31.3197 165.095C32.7274 163.752 34.4791 162.823 36.3817 162.41C37.1924 162.174 37.1924 160.97 36.3817 160.891C32.7231 160.493 29.109 159.76 25.5855 158.7C25.4501 158.659 25.3063 158.653 25.1684 158.685C25.0305 158.716 24.9032 158.783 24.7993 158.879C24.6953 158.975 24.6183 159.096 24.5758 159.231C24.5334 159.366 24.527 159.509 24.5573 159.647C25.4686 163.515 26.726 167.294 28.3142 170.937C28.3741 171.124 28.4986 171.284 28.6655 171.388C28.8324 171.492 29.0308 171.533 29.2255 171.505C29.4202 171.477 29.5984 171.38 29.7285 171.233C29.8585 171.085 29.9319 170.897 29.9356 170.7C29.7168 168.724 30.2149 166.735 31.3395 165.095" fill="#1CDBBC"/>
<path d="M221.54 164.029C223.266 163.031 225.288 162.668 227.255 163.002C227.464 163.049 227.684 163.011 227.866 162.897C228.048 162.782 228.176 162.6 228.223 162.39C228.271 162.181 228.233 161.961 228.118 161.78C228.003 161.599 227.82 161.47 227.61 161.423C224.072 159.593 220.372 158.093 216.557 156.943C216.423 156.899 216.279 156.893 216.141 156.924C216.003 156.955 215.876 157.023 215.773 157.119C215.67 157.216 215.595 157.339 215.555 157.474C215.516 157.61 215.514 157.753 215.549 157.89C216.376 161.475 216.866 165.129 217.012 168.805C217.012 169.614 218.238 169.693 218.554 168.805C219.074 166.939 220.108 165.256 221.54 163.95" fill="#1CDBBC"/>
<path d="M179.185 160.377C179.482 159.485 179.983 158.674 180.648 158.009C181.392 157.268 182.238 156.637 183.159 156.134C183.97 155.68 183.416 154.496 182.428 154.634C178.412 155.245 174.496 156.387 170.781 158.029C170.651 158.089 170.54 158.182 170.458 158.299C170.376 158.416 170.326 158.552 170.314 158.695C170.302 158.837 170.328 158.98 170.389 159.109C170.45 159.238 170.545 159.349 170.663 159.43C173.596 161.527 176.212 164.033 178.434 166.871C178.908 167.503 179.897 166.871 179.679 166.042C179.405 165.078 179.2 164.095 179.066 163.101C178.925 162.194 178.966 161.269 179.185 160.377Z" fill="#1CDBBC"/>
<path d="M72.6658 158.581C72.7581 156.584 73.5895 154.692 74.9991 153.272C75.612 152.561 74.6827 151.634 73.8127 152.107C70.2162 154.02 66.8913 156.403 63.926 159.193C63.8222 159.289 63.7461 159.412 63.7058 159.547C63.6654 159.683 63.6622 159.826 63.6966 159.964C63.7309 160.101 63.8015 160.226 63.901 160.327C64.0005 160.427 64.1252 160.499 64.2621 160.535C67.7451 161.559 71.0715 163.053 74.1488 164.976C74.8013 165.411 75.5132 164.443 75.0386 163.753C73.8093 162.265 72.9913 160.482 72.6658 158.581" fill="#1CDBBC"/>
<path d="M115.318 158.502C115.526 156.548 116.35 154.709 117.671 153.252C117.779 153.103 117.834 152.921 117.825 152.737C117.816 152.553 117.745 152.378 117.623 152.24C117.501 152.102 117.335 152.009 117.153 151.978C116.971 151.947 116.784 151.978 116.623 152.067L106.736 157.811C106.613 157.882 106.511 157.984 106.44 158.107C106.369 158.23 106.331 158.37 106.331 158.512C106.331 158.654 106.369 158.793 106.44 158.916C106.511 159.039 106.613 159.141 106.736 159.213L116.623 164.956C116.786 165.055 116.98 165.093 117.168 165.063C117.357 165.034 117.53 164.939 117.655 164.795C117.78 164.651 117.851 164.467 117.854 164.276C117.856 164.086 117.792 163.9 117.671 163.752C116.344 162.298 115.52 160.458 115.318 158.502" fill="#1CDBBC"/>
<path d="M157.969 158.502C158.178 156.552 158.994 154.716 160.302 153.252C160.431 153.109 160.504 152.924 160.506 152.731C160.508 152.538 160.439 152.352 160.312 152.206C160.186 152.06 160.011 151.966 159.819 151.941C159.628 151.915 159.434 151.96 159.274 152.068L149.387 157.811C149.264 157.882 149.162 157.985 149.091 158.108C149.019 158.231 148.982 158.37 148.982 158.512C148.982 158.654 149.019 158.794 149.091 158.917C149.162 159.04 149.264 159.142 149.387 159.213L159.274 164.956C159.437 165.044 159.625 165.073 159.808 165.039C159.99 165.005 160.155 164.909 160.275 164.769C160.395 164.628 160.463 164.45 160.468 164.265C160.473 164.08 160.415 163.899 160.302 163.752C158.989 162.292 158.172 160.454 157.969 158.502" fill="#1CDBBC"/>
<path d="M136.634 158.502C136.852 156.55 137.674 154.715 138.987 153.252C139.116 153.109 139.189 152.924 139.19 152.731C139.192 152.538 139.124 152.352 138.997 152.206C138.871 152.06 138.695 151.966 138.504 151.941C138.313 151.915 138.119 151.96 137.959 152.068L128.072 157.811C127.949 157.882 127.847 157.985 127.775 158.108C127.704 158.231 127.667 158.37 127.667 158.512C127.667 158.654 127.704 158.794 127.775 158.917C127.847 159.04 127.949 159.142 128.072 159.213L137.959 164.956C138.122 165.044 138.31 165.073 138.492 165.039C138.674 165.005 138.839 164.909 138.96 164.769C139.08 164.628 139.148 164.45 139.153 164.265C139.158 164.08 139.099 163.899 138.987 163.752C137.667 162.294 136.844 160.456 136.634 158.502" fill="#1CDBBC"/>
<path d="M94.0025 158.502C94.2121 156.552 95.028 154.716 96.3358 153.252C96.465 153.109 96.5374 152.924 96.5393 152.731C96.5412 152.538 96.4725 152.352 96.3461 152.206C96.2197 152.06 96.0444 151.966 95.8531 151.941C95.6618 151.915 95.4678 151.96 95.3075 152.068L85.4209 157.811C85.2977 157.882 85.1954 157.985 85.1243 158.108C85.0532 158.231 85.0157 158.37 85.0157 158.512C85.0157 158.654 85.0532 158.794 85.1243 158.917C85.1954 159.04 85.2977 159.142 85.4209 159.213L95.3075 164.956C95.4708 165.044 95.6591 165.073 95.8412 165.039C96.0234 165.005 96.1883 164.909 96.3085 164.769C96.4287 164.628 96.497 164.45 96.5019 164.265C96.5069 164.08 96.4483 163.899 96.3358 163.752C95.0223 162.292 94.2056 160.454 94.0025 158.502" fill="#1CDBBC"/>
<path d="M48.9996 150.153C49.5628 149.42 50.2692 148.809 51.0758 148.357C51.9304 147.843 52.8227 147.394 53.7452 147.014C54.5163 146.679 54.4372 145.495 53.6463 145.515C50.0313 145.545 46.4302 145.066 42.9489 144.093C42.8129 144.055 42.6691 144.053 42.532 144.087C42.3949 144.121 42.2692 144.191 42.1673 144.289C42.0653 144.387 41.9908 144.509 41.951 144.645C41.9112 144.78 41.9076 144.923 41.9405 145.06C42.9658 148.984 44.5085 152.754 46.5279 156.271C47.042 157.12 48.3075 156.824 48.1691 155.896C47.9891 154.86 47.9558 153.804 48.0702 152.758C48.1739 151.83 48.4921 150.938 48.9996 150.153" fill="#1CDBBC"/>
<path d="M206.87 149.048C208.205 147.576 210.019 146.625 211.991 146.364C212.175 146.31 212.334 146.194 212.442 146.036C212.55 145.878 212.6 145.688 212.584 145.498C212.567 145.308 212.486 145.129 212.352 144.992C212.219 144.854 212.043 144.767 211.853 144.745C207.936 144.06 203.965 143.737 199.989 143.778C199.848 143.778 199.71 143.816 199.588 143.887C199.467 143.958 199.367 144.06 199.299 144.183C199.23 144.306 199.196 144.444 199.199 144.585C199.202 144.725 199.242 144.862 199.316 144.982C201.179 148.124 202.754 151.427 204.022 154.851C204.279 155.621 205.446 155.344 205.505 154.495C205.453 152.589 205.925 150.705 206.87 149.048Z" fill="#1CDBBC"/>
<path d="M17.4409 149.344C19.1841 148.498 21.1275 148.15 23.0565 148.337C23.9266 148.337 24.2627 147.212 23.5113 146.876C20.1452 145.389 16.9219 143.599 13.8817 141.527C13.7652 141.448 13.6299 141.4 13.4892 141.388C13.3485 141.377 13.2072 141.402 13.0793 141.462C12.9515 141.522 12.8415 141.614 12.7602 141.729C12.679 141.845 12.6294 141.979 12.6162 142.12C12.3277 146.064 12.3807 150.027 12.7744 153.962C12.7735 154.16 12.8436 154.352 12.9721 154.503C13.1006 154.654 13.2789 154.754 13.4748 154.785C13.6708 154.816 13.8713 154.776 14.0403 154.672C14.2092 154.568 14.3353 154.407 14.3958 154.219C14.801 152.269 15.8786 150.523 17.4409 149.284" fill="#1CDBBC"/>
<path d="M188.162 139.416C188.946 137.615 190.348 136.152 192.117 135.291C192.293 135.191 192.427 135.03 192.493 134.839C192.559 134.647 192.552 134.438 192.474 134.251C192.397 134.064 192.253 133.912 192.07 133.824C191.888 133.735 191.679 133.716 191.484 133.771C187.537 134.334 183.647 135.239 179.857 136.475C179.725 136.521 179.607 136.601 179.515 136.707C179.422 136.813 179.359 136.94 179.331 137.077C179.303 137.215 179.312 137.357 179.355 137.49C179.399 137.623 179.476 137.743 179.58 137.837C182.319 140.293 184.834 142.988 187.094 145.89C187.608 146.541 188.617 145.89 188.399 145.1C187.755 143.274 187.639 141.305 188.063 139.416" fill="#1CDBBC"/>
<path d="M167.462 135.823C167.694 133.846 168.619 132.015 170.072 130.652C170.704 130.001 169.874 128.994 169.004 129.428L166.295 130.79L163.804 132.231L158.821 135.093C158.697 135.164 158.595 135.266 158.524 135.389C158.453 135.512 158.416 135.651 158.416 135.793C158.416 135.935 158.453 136.075 158.524 136.198C158.595 136.321 158.697 136.423 158.821 136.494L163.804 139.376L166.275 140.797L168.529 142.297C169.202 142.751 169.993 141.863 169.538 141.133C168.361 139.592 167.642 137.752 167.462 135.823" fill="#1CDBBC"/>
<path d="M125.264 135.804C125.477 133.851 126.301 132.014 127.617 130.553C127.729 130.406 127.788 130.225 127.783 130.04C127.778 129.856 127.71 129.678 127.589 129.537C127.469 129.396 127.304 129.301 127.122 129.267C126.94 129.233 126.752 129.262 126.588 129.349L116.702 135.093C116.579 135.164 116.476 135.266 116.405 135.389C116.334 135.512 116.297 135.652 116.297 135.794C116.297 135.936 116.334 136.075 116.405 136.198C116.476 136.321 116.579 136.423 116.702 136.495L126.588 142.238C126.749 142.346 126.943 142.391 127.134 142.365C127.325 142.34 127.501 142.245 127.627 142.1C127.753 141.954 127.822 141.767 127.82 141.575C127.818 141.382 127.746 141.197 127.617 141.054C126.304 139.591 125.481 137.756 125.264 135.804" fill="#1CDBBC"/>
<path d="M104.185 135.804C104.39 133.852 105.207 132.015 106.518 130.553C106.63 130.406 106.689 130.225 106.684 130.04C106.679 129.856 106.611 129.678 106.491 129.537C106.37 129.396 106.205 129.301 106.023 129.267C105.841 129.233 105.653 129.262 105.49 129.349L95.6029 135.093C95.4797 135.164 95.3774 135.266 95.3063 135.389C95.2352 135.512 95.1978 135.652 95.1978 135.794C95.1978 135.936 95.2352 136.075 95.3063 136.198C95.3774 136.321 95.4797 136.423 95.6029 136.495L105.49 142.238C105.65 142.346 105.844 142.391 106.035 142.365C106.226 142.34 106.402 142.245 106.528 142.1C106.655 141.954 106.723 141.767 106.721 141.575C106.719 141.382 106.647 141.197 106.518 141.054C105.21 139.59 104.394 137.754 104.185 135.804" fill="#1CDBBC"/>
<path d="M146.362 135.804C146.566 133.848 147.391 132.009 148.715 130.553C148.836 130.406 148.9 130.22 148.897 130.029C148.895 129.839 148.824 129.655 148.699 129.511C148.573 129.367 148.401 129.272 148.212 129.242C148.023 129.213 147.83 129.251 147.667 129.35L137.78 135.093C137.657 135.164 137.555 135.266 137.484 135.389C137.412 135.512 137.375 135.652 137.375 135.794C137.375 135.936 137.412 136.075 137.484 136.198C137.555 136.321 137.657 136.424 137.78 136.495L147.667 142.238C147.828 142.327 148.015 142.359 148.197 142.328C148.379 142.296 148.545 142.204 148.667 142.066C148.789 141.928 148.86 141.752 148.869 141.568C148.878 141.384 148.823 141.203 148.715 141.054C147.394 139.596 146.57 137.758 146.362 135.804" fill="#1CDBBC"/>
<path d="M83.089 135.804C83.2937 133.848 84.118 132.009 85.4421 130.553C85.563 130.406 85.6277 130.22 85.6248 130.029C85.6219 129.839 85.5515 129.655 85.4261 129.511C85.3008 129.367 85.1285 129.272 84.9396 129.242C84.7508 129.213 84.5576 129.251 84.3941 129.35L74.5074 135.113C74.3842 135.184 74.282 135.286 74.2109 135.409C74.1397 135.532 74.1023 135.672 74.1023 135.814C74.1023 135.956 74.1397 136.095 74.2109 136.218C74.282 136.341 74.3842 136.443 74.5074 136.514L84.3941 142.238C84.5556 142.327 84.7427 142.359 84.9245 142.328C85.1064 142.296 85.272 142.204 85.3942 142.066C85.5164 141.928 85.5877 141.752 85.5964 141.568C85.6051 141.384 85.5507 141.203 85.4421 141.054C84.1215 139.596 83.2977 137.758 83.089 135.804" fill="#1CDBBC"/>
<path d="M66.4794 133.81C66.8512 132.962 67.3813 132.191 68.0415 131.54C68.6941 130.83 69.4059 130.198 70.1177 129.567C70.2484 129.442 70.3417 129.284 70.3871 129.11C70.4326 128.935 70.4283 128.752 70.3748 128.58C70.3618 128.509 70.3337 128.443 70.2923 128.384C70.251 128.326 70.1974 128.277 70.1353 128.242C70.0733 128.206 70.0042 128.184 69.9329 128.178C69.8616 128.171 69.7897 128.181 69.7223 128.205C66.5096 129.342 63.0387 129.54 59.717 128.777C59.5795 128.744 59.4358 128.748 59.3002 128.788C59.1646 128.827 59.0417 128.902 58.9437 129.003C58.8458 129.105 58.7763 129.231 58.7419 129.368C58.7076 129.504 58.7097 129.648 58.7481 129.784C60.0894 133.876 62.4744 137.549 65.6687 140.442C65.8324 140.609 66.045 140.72 66.276 140.759C66.5069 140.798 66.7443 140.763 66.954 140.659C67.0462 140.622 67.1291 140.566 67.1968 140.493C67.2645 140.421 67.3153 140.335 67.3455 140.24C67.3758 140.146 67.3847 140.046 67.3717 139.948C67.3587 139.85 67.3241 139.755 67.2704 139.672C66.7324 138.734 66.3769 137.703 66.2224 136.633C66.0522 135.705 66.1412 134.749 66.4794 133.869" fill="#1CDBBC"/>
<path d="M34.9609 134.402C36.7554 133.691 38.7029 133.453 40.6161 133.711C41.4466 133.711 41.8816 132.665 41.1895 132.33C37.9483 130.735 34.9466 128.695 32.2717 126.27C32.1674 126.173 32.0391 126.105 31.8999 126.073C31.7607 126.041 31.6155 126.046 31.479 126.088C31.3426 126.13 31.2197 126.208 31.1227 126.312C31.0258 126.417 30.9584 126.546 30.9271 126.685C30.0871 130.653 29.7812 134.715 30.0176 138.764C30.0176 139.751 31.3424 140.047 31.6192 139.159C32.1013 137.213 33.2928 135.517 34.9609 134.402" fill="#1CDBBC"/>
<path d="M8.99753 130.159C10.9205 129.875 12.8845 130.128 14.6725 130.889C15.4634 131.166 16.1753 130.179 15.5623 129.646C14.1782 128.481 12.9522 127.198 11.6076 125.876C10.9749 125.205 10.3817 124.514 9.76872 123.902C9.47212 123.547 9.13596 123.192 8.85913 122.817L7.9891 121.711C7.90251 121.6 7.78849 121.514 7.65823 121.46C7.52798 121.407 7.386 121.388 7.2463 121.406C7.10659 121.424 6.97397 121.478 6.86152 121.563C6.74906 121.647 6.66064 121.76 6.60497 121.889L6.05132 123.251C5.87336 123.705 5.71517 124.159 5.55698 124.613C5.24061 125.54 4.90447 126.468 4.60787 127.415C4.05421 129.389 3.50054 131.363 3.10507 133.337C2.90734 134.264 4.05419 134.857 4.54852 134.087C5.52435 132.348 7.08707 131.012 8.958 130.317" fill="#1CDBBC"/>
<path d="M52.7341 118.099C53.6433 117.939 54.5735 117.939 55.4826 118.099C56.412 118.237 57.46 118.435 58.3498 118.612C59.2396 118.79 59.8328 117.862 59.2198 117.507C56.4037 115.537 54.2196 112.795 52.9319 109.612C52.8762 109.483 52.7878 109.37 52.6753 109.286C52.5629 109.201 52.4303 109.147 52.2906 109.129C52.1508 109.111 52.0089 109.13 51.8786 109.183C51.7484 109.237 51.6343 109.323 51.5477 109.434C48.9902 112.91 47.3883 116.992 46.901 121.277C46.901 122.343 48.0478 122.994 48.4828 122.106C48.9279 121.12 49.559 120.229 50.3415 119.481C51.002 118.812 51.8272 118.329 52.7341 118.079" fill="#1CDBBC"/>
<path d="M29.5402 114.013C31.4636 114.214 33.306 114.892 34.8988 115.987C35.6304 116.421 36.5202 115.632 36.0259 115.02C33.8823 112.142 32.1519 108.98 30.8848 105.625C30.8364 105.493 30.7536 105.376 30.6449 105.287C30.5362 105.197 30.4056 105.138 30.2665 105.116C30.1274 105.094 29.9849 105.11 29.8538 105.161C29.7226 105.212 29.6075 105.297 29.5204 105.408C26.9661 108.563 24.851 112.049 23.2325 115.77C22.8568 116.678 23.8652 117.507 24.5178 116.836C25.8217 115.315 27.6486 114.336 29.6391 114.092" fill="#1CDBBC"/>
<path d="M6.80225 109.296C8.72768 109.608 10.5282 110.449 12.0026 111.724C12.6947 112.217 13.6438 111.507 13.2286 110.796C12.2597 109.257 11.4885 107.678 10.6383 106.02C9.788 104.362 9.09594 102.625 8.48296 100.868C8.43591 100.733 8.35401 100.613 8.24557 100.52C8.13713 100.428 8.00602 100.365 7.8655 100.339C7.72498 100.313 7.58005 100.324 7.44542 100.372C7.31078 100.42 7.19121 100.503 7.09883 100.611C5.83334 102.092 4.70626 103.651 3.51986 105.289C2.33346 106.927 1.28545 108.625 0.316554 110.401C-0.138234 111.25 0.771364 112.138 1.48321 111.546C2.93413 110.192 4.81856 109.395 6.80225 109.296" fill="#1CDBBC"/>
<path d="M57.4612 97.7298C58.743 99.1249 59.7314 100.763 60.3679 102.546C60.704 103.276 61.8508 103.335 61.8113 102.546C61.742 99.1282 62.662 95.7633 64.4609 92.8546C64.5376 92.7345 64.5811 92.5963 64.5872 92.4541C64.5932 92.3118 64.5615 92.1704 64.4953 92.0442C64.4292 91.9181 64.3308 91.8116 64.2102 91.7356C64.0895 91.6595 63.951 91.6166 63.8084 91.6111C59.5023 91.5899 55.2644 92.6848 51.5094 94.7889C50.5405 95.3218 50.7184 96.7627 51.7071 96.5258C52.6899 96.2919 53.7112 96.2695 54.7033 96.46C55.6955 96.6506 56.6356 97.0498 57.4612 97.6311" fill="#1CDBBC"/>
<path d="M183.259 97.4535C182.537 98.0247 181.72 98.4656 180.846 98.7563L179.462 99.2102L178.058 99.6247C177.267 99.8616 177.09 100.947 177.782 101.006C181.167 101.455 184.352 102.866 186.956 105.072C187.063 105.166 187.193 105.229 187.333 105.256C187.472 105.282 187.616 105.271 187.75 105.222C187.883 105.174 188.001 105.09 188.091 104.98C188.181 104.871 188.24 104.739 188.261 104.599C188.941 100.348 188.498 95.994 186.976 91.9665C186.581 90.9401 185.157 90.9599 185.216 91.9665C185.223 92.5208 185.19 93.0748 185.118 93.6244C185.044 94.1488 184.918 94.6647 184.742 95.164C184.461 96.0569 183.949 96.8601 183.259 97.493" fill="#1CDBBC"/>
<path d="M206.435 91.1768C204.643 91.8973 202.693 92.1356 200.78 91.8677C199.93 91.8677 199.514 92.9137 200.206 93.269C203.452 94.8566 206.454 96.8969 209.124 99.3285C209.23 99.4259 209.36 99.4934 209.5 99.5242C209.641 99.555 209.787 99.5481 209.924 99.5039C210.061 99.4597 210.183 99.3799 210.279 99.2728C210.375 99.1657 210.44 99.035 210.469 98.8943C211.309 94.9329 211.615 90.8769 211.378 86.8344C211.378 85.8278 210.053 85.5318 209.777 86.42C209.309 88.372 208.114 90.0728 206.435 91.1768" fill="#1CDBBC"/>
<path d="M33.8522 93.3872C35.5079 94.395 36.8711 95.8171 37.8069 97.5125C38.3012 98.223 39.3887 97.9072 39.2503 97.1375C38.6175 93.5876 38.4844 89.967 38.8549 86.3804C38.8661 86.2414 38.8412 86.1019 38.7826 85.9754C38.724 85.8488 38.6336 85.7396 38.5202 85.6582C38.4068 85.5768 38.2743 85.526 38.1354 85.5107C37.9966 85.4955 37.8562 85.5163 37.7278 85.5712C34.0243 87.2444 30.5599 89.4015 27.4259 91.9859C26.6547 92.6175 27.2084 93.8412 28.0784 93.5254C29.9283 92.7442 32.0067 92.6948 33.8918 93.3872" fill="#1CDBBC"/>
<path d="M163.802 89.6374C163.588 91.5903 162.765 93.4268 161.449 94.8875C161.319 95.0306 161.247 95.2159 161.245 95.4086C161.243 95.6012 161.312 95.7879 161.438 95.9335C161.565 96.079 161.74 96.1735 161.931 96.199C162.123 96.2245 162.317 96.1792 162.477 96.0718L164.968 94.6507L166.175 93.9402L167.242 93.269C168.769 92.371 170.422 91.7058 172.146 91.2953C172.284 91.2615 172.41 91.1923 172.513 91.0944C172.615 90.9966 172.691 90.8736 172.731 90.7377C172.771 90.6019 172.774 90.4579 172.741 90.3202C172.708 90.1825 172.639 90.056 172.542 89.9531C171.837 89.2442 171.083 88.5847 170.287 87.9793C169.46 87.3396 168.587 86.7592 167.677 86.2424L166.254 85.453C165.759 85.1964 165.403 84.9792 164.968 84.7226L162.477 83.3015C162.317 83.1941 162.123 83.1489 161.931 83.1744C161.74 83.1999 161.565 83.2944 161.438 83.4399C161.312 83.5855 161.243 83.7722 161.245 83.9648C161.247 84.1575 161.319 84.3427 161.449 84.4857C162.765 85.9465 163.588 87.7831 163.802 89.736" fill="#1CDBBC"/>
<path d="M76.7994 89.6373C76.764 90.5649 76.5279 91.4738 76.1073 92.3018C75.8838 92.7573 75.6329 93.1989 75.356 93.6242L74.9209 94.2756L74.565 94.9072C74.4767 95.0639 74.4303 95.2406 74.4303 95.4204C74.4303 95.6002 74.4767 95.7769 74.565 95.9336C74.6416 96.0575 74.7613 96.1487 74.9012 96.1901C75.0938 96.2149 75.2892 96.1731 75.4548 96.0717L85.3415 90.328C85.4651 90.2598 85.5682 90.1597 85.6399 90.0382C85.7117 89.9167 85.7495 89.7783 85.7495 89.6373C85.7495 89.4962 85.7117 89.3577 85.6399 89.2362C85.5682 89.1147 85.4651 89.0146 85.3415 88.9464L75.4548 83.2027C75.2712 83.1271 75.065 83.1271 74.8814 83.2027C74.6662 83.2333 74.4658 83.3299 74.308 83.4791C74.2327 83.544 74.1723 83.6242 74.1308 83.7145C74.0894 83.8048 74.068 83.9028 74.068 84.0021C74.068 84.1013 74.0894 84.1995 74.1308 84.2897C74.1723 84.38 74.2327 84.4603 74.308 84.5251C74.5057 84.7028 74.6837 84.9001 74.8814 85.1172C75.0376 85.3199 75.1828 85.5307 75.3164 85.7489C75.5933 86.1742 75.8443 86.6157 76.0678 87.0713C76.4884 87.8992 76.7244 88.8083 76.7599 89.7359" fill="#1CDBBC"/>
<path d="M120.302 89.6373C120.098 91.5927 119.273 93.4319 117.949 94.8874C117.841 95.0364 117.786 95.2178 117.795 95.4018C117.804 95.5858 117.875 95.7613 117.997 95.8994C118.119 96.0374 118.285 96.1297 118.467 96.161C118.649 96.1924 118.836 96.1608 118.997 96.0716L128.884 90.328C129.007 90.2597 129.11 90.1597 129.182 90.0382C129.254 89.9167 129.292 89.7783 129.292 89.6373C129.292 89.4962 129.254 89.3577 129.182 89.2362C129.11 89.1147 129.007 89.0146 128.884 88.9464L118.997 83.2027C118.836 83.1136 118.649 83.082 118.467 83.1134C118.285 83.1447 118.119 83.237 117.997 83.375C117.875 83.5131 117.804 83.6886 117.795 83.8726C117.786 84.0565 117.841 84.238 117.949 84.387C119.273 85.8425 120.098 87.6818 120.302 89.6373" fill="#1CDBBC"/>
<path d="M98.5507 89.6373C98.3461 91.5927 97.5218 93.4319 96.1977 94.8874C96.0891 95.0364 96.0347 95.2178 96.0434 95.4018C96.0521 95.5858 96.1234 95.7613 96.2456 95.8994C96.3678 96.0374 96.5334 96.1297 96.7153 96.161C96.8971 96.1924 97.0842 96.1608 97.2457 96.0716L107.132 90.328C107.256 90.2597 107.359 90.1597 107.431 90.0382C107.503 89.9167 107.54 89.7783 107.54 89.6373C107.54 89.4962 107.503 89.3577 107.431 89.2362C107.359 89.1147 107.256 89.0146 107.132 88.9464L97.2457 83.2027C97.0842 83.1136 96.8971 83.082 96.7153 83.1134C96.5334 83.1447 96.3678 83.237 96.2456 83.375C96.1234 83.5131 96.0521 83.6886 96.0434 83.8726C96.0347 84.0565 96.0891 84.238 96.1977 84.387C97.5218 85.8425 98.3461 87.6818 98.5507 89.6373" fill="#1CDBBC"/>
<path d="M142.05 89.6369C141.846 91.5924 141.021 93.4316 139.697 94.8871C139.568 95.0301 139.496 95.2155 139.494 95.4081C139.492 95.6008 139.561 95.7874 139.687 95.933C139.813 96.0786 139.989 96.173 140.18 96.1985C140.371 96.224 140.565 96.1787 140.726 96.0713L150.612 90.3277C150.736 90.2594 150.839 90.1593 150.911 90.0378C150.982 89.9163 151.02 89.7779 151.02 89.6369C151.02 89.4959 150.982 89.3574 150.911 89.2359C150.839 89.1144 150.736 89.0143 150.612 88.946L140.726 83.2024C140.565 83.095 140.371 83.0498 140.18 83.0753C139.989 83.1008 139.813 83.1951 139.687 83.3407C139.561 83.4863 139.492 83.6731 139.494 83.8657C139.496 84.0583 139.568 84.2436 139.697 84.3866C141.021 85.8421 141.846 87.6815 142.05 89.6369" fill="#1CDBBC"/>
<path d="M11.113 88.7685C11.9737 89.1206 12.749 89.6522 13.3869 90.3278C14.1095 91.0411 14.771 91.8135 15.3643 92.6371C15.8586 93.3279 17.0055 92.9331 16.788 92.1239C15.9615 88.5449 15.4651 84.898 15.305 81.2287C15.2975 81.0894 15.2542 80.9543 15.1791 80.8367C15.104 80.7191 14.9997 80.6229 14.8763 80.5573C14.753 80.4918 14.6147 80.4592 14.475 80.4627C14.3353 80.4662 14.1989 80.5057 14.079 80.5773C10.7151 82.7084 7.55156 85.1395 4.62736 87.8408C3.93529 88.4922 4.62736 89.6369 5.39852 89.3014C7.18982 88.4384 9.2328 88.2493 11.1526 88.7685" fill="#1CDBBC"/>
<path d="M228.779 85.3149C226.93 85.888 224.958 85.9359 223.084 85.4531C222.234 85.2952 221.72 86.3807 222.392 86.8149C225.492 88.7945 228.398 91.0613 231.072 93.585C231.174 93.6824 231.299 93.7517 231.436 93.786C231.573 93.8203 231.716 93.8184 231.852 93.7805C231.988 93.7427 232.111 93.6701 232.21 93.5701C232.309 93.47 232.381 93.3459 232.417 93.21C233.341 89.3225 233.904 85.3581 234.098 81.3674C234.12 81.1783 234.076 80.9873 233.973 80.8267C233.871 80.6661 233.716 80.5456 233.535 80.4854C233.354 80.4252 233.158 80.429 232.98 80.4961C232.801 80.5633 232.651 80.6897 232.555 80.8542C231.851 82.7221 230.515 84.2859 228.779 85.2754" fill="#1CDBBC"/>
<path d="M47.022 76.8867C48.03 78.5312 48.5953 80.4077 48.6632 82.3344C48.7818 83.1831 49.9286 83.4396 50.1264 82.6699C51.1506 79.1894 52.6546 75.868 54.5952 72.801C54.6725 72.6839 54.7172 72.5485 54.7247 72.4084C54.7322 72.2684 54.7022 72.1289 54.6377 72.0042C54.5733 71.8796 54.4768 71.7744 54.3581 71.6993C54.2394 71.6243 54.1028 71.5822 53.9624 71.5773C49.9028 71.4045 45.8384 71.783 41.8809 72.7024C40.912 72.9392 40.8329 74.2418 41.7622 74.3603C43.7617 74.5019 45.6367 75.3814 47.022 76.8275" fill="#1CDBBC"/>
<path d="M192.394 75.426C191.827 76.1597 191.122 76.7763 190.318 77.2418C189.464 77.7558 188.571 78.2044 187.649 78.584C186.878 78.9195 186.957 80.1038 187.748 80.0643C191.363 80.0343 194.964 80.5128 198.445 81.4855C198.581 81.5238 198.725 81.5259 198.862 81.4916C198.999 81.4574 199.125 81.3878 199.227 81.2901C199.329 81.1923 199.403 81.0697 199.443 80.9343C199.483 80.7989 199.486 80.6556 199.454 80.5183C198.428 76.5952 196.886 72.8251 194.866 69.3072C194.352 68.4585 193.087 68.7743 193.225 69.6822C193.372 70.7232 193.372 71.7796 193.225 72.8206C193.126 73.7501 192.807 74.6429 192.296 75.426" fill="#1CDBBC"/>
<path d="M21.3738 70.492C22.7576 71.8581 23.7361 73.5794 24.2014 75.4658C24.2306 75.6463 24.3233 75.8106 24.4628 75.9291C24.6023 76.0477 24.7795 76.1127 24.9627 76.1127C25.1459 76.1127 25.3231 76.0477 25.4626 75.9291C25.6021 75.8106 25.6947 75.6463 25.724 75.4658C26.0572 71.7956 26.7189 68.1625 27.7013 64.6101C27.7369 64.4736 27.7361 64.3302 27.699 64.1941C27.6619 64.058 27.5898 63.934 27.4899 63.8342C27.39 63.7345 27.2657 63.6626 27.1294 63.6256C26.993 63.5886 26.8494 63.5877 26.7126 63.6232C22.8669 64.6088 19.1153 65.9297 15.5011 67.5707C15.3079 67.6313 15.1435 67.7603 15.0389 67.9334C14.9343 68.1066 14.8967 68.312 14.9331 68.5109C14.9696 68.7097 15.0776 68.8884 15.2368 69.0133C15.396 69.1383 15.5955 69.2008 15.7977 69.1892C17.7708 68.9236 19.7743 69.3641 21.4529 70.4327" fill="#1CDBBC"/>
<path d="M66.2208 68.1228C66.3692 70.0465 66.022 71.9763 65.2124 73.7283C64.9355 74.5178 65.8451 75.2678 66.379 74.6955C68.8554 72.0618 71.6911 69.7893 74.8024 67.9451C74.9261 67.8768 75.0291 67.7767 75.1008 67.6552C75.1726 67.5337 75.2105 67.3953 75.2105 67.2543C75.2105 67.1133 75.1726 66.9749 75.1008 66.8534C75.0291 66.7319 74.9261 66.6318 74.8024 66.5635C71.2563 64.5873 67.4582 63.1 63.5118 62.1422C62.5429 61.9053 61.8707 63.0304 62.6616 63.5634C64.3786 64.5889 65.6537 66.2134 66.2406 68.1228" fill="#1CDBBC"/>
<path d="M217.488 67.6298C215.899 68.7741 214.024 69.4572 212.07 69.6036C211.22 69.722 211.062 70.9063 211.853 71.1036C215.408 72.0682 218.869 73.3498 222.194 74.9328C222.323 74.9898 222.464 75.0132 222.605 75.0007C222.745 74.9882 222.88 74.9401 222.997 74.8611C223.114 74.7821 223.208 74.6748 223.272 74.5492C223.336 74.4236 223.366 74.2839 223.361 74.1432C223.032 70.1477 222.37 66.1865 221.383 62.3006C221.126 61.3926 219.821 61.3926 219.722 62.3006C219.635 64.2854 218.843 66.1745 217.488 67.6298" fill="#1CDBBC"/>
<path d="M172.759 67.6495C172.265 69.5142 171.298 71.2204 169.951 72.6037C169.398 73.2747 169.951 74.2418 170.723 73.8865C173.935 72.2406 177.363 71.0514 180.906 70.3535C181.045 70.3258 181.174 70.2622 181.281 70.1691C181.388 70.076 181.468 69.9566 181.514 69.8228C181.56 69.689 181.57 69.5454 181.543 69.4065C181.516 69.2676 181.453 69.1382 181.361 69.0311C178.667 66.0042 175.582 63.3491 172.186 61.1361C171.355 60.5637 170.347 61.4716 170.901 62.2019C172.171 63.743 172.832 65.6948 172.759 67.689" fill="#1CDBBC"/>
<path d="M151.502 67.1756C151.299 69.1276 150.483 70.9654 149.169 72.4258C149.057 72.5728 148.998 72.7538 149.003 72.9387C149.008 73.1237 149.076 73.3013 149.196 73.4421C149.317 73.5828 149.482 73.6782 149.664 73.7124C149.846 73.7465 150.034 73.7174 150.197 73.6297L160.084 67.8861C160.207 67.8151 160.31 67.7129 160.381 67.5899C160.452 67.4669 160.489 67.3275 160.489 67.1855C160.489 67.0435 160.452 66.9039 160.381 66.7809C160.31 66.6579 160.207 66.5558 160.084 66.4847L150.197 60.7411C150.034 60.6535 149.846 60.6243 149.664 60.6584C149.482 60.6926 149.317 60.788 149.196 60.9288C149.076 61.0696 149.008 61.2472 149.003 61.4321C148.998 61.617 149.057 61.7981 149.169 61.9451C150.479 63.4001 151.295 65.2305 151.502 67.1756" fill="#1CDBBC"/>
<path d="M108.813 67.1756C108.603 69.1296 107.779 70.9672 106.46 72.4258C106.347 72.5728 106.289 72.7538 106.294 72.9387C106.298 73.1237 106.367 73.3013 106.487 73.4421C106.607 73.5828 106.772 73.6782 106.954 73.7124C107.136 73.7465 107.325 73.7174 107.488 73.6297L117.375 67.8861C117.498 67.8151 117.6 67.7129 117.671 67.5899C117.742 67.4669 117.78 67.3275 117.78 67.1855C117.78 67.0435 117.742 66.9039 117.671 66.7809C117.6 66.6579 117.498 66.5558 117.375 66.4847L107.488 60.7411C107.325 60.6535 107.136 60.6243 106.954 60.6584C106.772 60.6926 106.607 60.788 106.487 60.9288C106.367 61.0696 106.298 61.2472 106.294 61.4321C106.289 61.617 106.347 61.7981 106.46 61.9451C107.775 63.3983 108.599 65.2285 108.813 67.1756" fill="#1CDBBC"/>
<path d="M87.4778 67.1756C87.2747 69.1276 86.458 70.9654 85.1445 72.4258C85.032 72.5728 84.9734 72.7538 84.9783 72.9387C84.9833 73.1237 85.0516 73.3013 85.1718 73.4421C85.292 73.5828 85.4569 73.6782 85.639 73.7124C85.8212 73.7465 86.0095 73.7174 86.1728 73.6297L96.0594 67.8861C96.1826 67.8151 96.2849 67.7129 96.356 67.5899C96.4271 67.4669 96.4645 67.3275 96.4645 67.1855C96.4645 67.0435 96.4271 66.9039 96.356 66.7809C96.2849 66.6579 96.1826 66.5558 96.0594 66.4847L86.1728 60.7411C86.0095 60.6535 85.8212 60.6243 85.639 60.6584C85.4569 60.6926 85.292 60.788 85.1718 60.9288C85.0516 61.0696 84.9833 61.2472 84.9783 61.4321C84.9734 61.617 85.032 61.7981 85.1445 61.9451C86.4542 63.4001 87.2707 65.2305 87.4778 67.1756Z" fill="#1CDBBC"/>
<path d="M130.127 67.1756C129.925 69.1318 129.101 70.9718 127.774 72.4258C127.653 72.5736 127.588 72.7593 127.591 72.9501C127.594 73.1409 127.665 73.3244 127.79 73.4685C127.915 73.6125 128.088 73.7076 128.277 73.7371C128.465 73.7666 128.659 73.7286 128.822 73.6298L138.709 67.8862C138.832 67.8151 138.934 67.7129 139.005 67.5899C139.076 67.4669 139.114 67.3275 139.114 67.1855C139.114 67.0435 139.076 66.904 139.005 66.781C138.934 66.658 138.832 66.5558 138.709 66.4847L128.822 60.7411C128.659 60.6423 128.465 60.6042 128.277 60.6338C128.088 60.6633 127.915 60.7585 127.79 60.9025C127.665 61.0466 127.594 61.2302 127.591 61.4209C127.588 61.6117 127.653 61.7973 127.774 61.9451C129.097 63.3938 129.921 65.2264 130.127 67.1756" fill="#1CDBBC"/>
<path d="M36.8186 56.2802C37.7344 57.993 38.1458 59.9296 38.005 61.866C38.005 62.7147 39.1717 63.0502 39.4881 62.3002C39.8044 61.5502 40.1603 60.6225 40.5558 59.833C40.9513 59.0435 41.327 58.175 41.762 57.3658C42.632 55.767 43.5416 54.109 44.5896 52.53C44.6656 52.4113 44.7092 52.2749 44.7162 52.1341C44.7231 51.9934 44.6932 51.8534 44.6293 51.7278C44.5653 51.6022 44.4697 51.4955 44.3517 51.4181C44.2338 51.3407 44.0977 51.2953 43.9568 51.2865C41.9795 51.1681 40.0021 51.2865 38.0248 51.2865C37.0361 51.2865 36.0475 51.405 35.039 51.484C34.0306 51.5629 33.0617 51.6813 31.9939 51.8195C31.7987 51.8274 31.6126 51.9037 31.4682 52.035C31.3238 52.1663 31.2304 52.3443 31.2044 52.5376C31.1784 52.7309 31.2215 52.9271 31.3262 53.0918C31.4308 53.2564 31.5902 53.379 31.7764 53.438C33.7414 53.7592 35.5283 54.7665 36.8186 56.2802" fill="#1CDBBC"/>
<path d="M201.353 54.1881C200.175 55.7378 198.585 56.9275 196.765 57.6224C195.994 57.9777 196.192 59.162 197.002 59.1225C198.802 59.0041 200.581 59.1225 202.44 59.1225C204.299 59.1225 206.157 59.3791 208.016 59.6555C208.157 59.6811 208.302 59.6683 208.435 59.6184C208.569 59.5684 208.687 59.4833 208.776 59.372C208.865 59.2607 208.923 59.1274 208.942 58.9861C208.961 58.8449 208.942 58.701 208.886 58.5698C208.174 56.7539 207.324 55.0171 206.454 53.2209C205.584 51.4248 204.477 49.6878 203.449 47.9706C203.359 47.7958 203.211 47.6582 203.029 47.5824C202.848 47.5066 202.646 47.4975 202.458 47.5567C202.271 47.6159 202.11 47.7397 202.006 47.9058C201.901 48.072 201.859 48.2698 201.886 48.4641C202.393 50.3816 202.203 52.416 201.353 54.2078" fill="#1CDBBC"/>
<path d="M55.7396 47.2604C56.0778 49.1652 55.8793 51.1264 55.1661 52.9251C54.9091 53.7541 55.9175 54.4054 56.4316 53.7738C58.8256 50.9588 61.4731 48.369 64.341 46.0367C64.4509 45.9473 64.5355 45.8308 64.5862 45.6986C64.637 45.5665 64.6521 45.4233 64.63 45.2835C64.608 45.1437 64.5497 45.012 64.4608 44.9017C64.3719 44.7915 64.2556 44.7064 64.1235 44.655C60.3931 43.2669 56.5493 42.2037 52.6351 41.4773C51.686 41.3194 51.1521 42.5037 51.9233 42.9774C53.7194 43.8776 55.1253 45.4003 55.878 47.2604" fill="#1CDBBC"/>
<path d="M181.897 46.2933C181.243 48.1176 180.092 49.7238 178.575 50.9317C177.962 51.5435 178.575 52.5699 179.267 52.3133C182.717 51.0332 186.278 50.0751 189.905 49.4513C190.044 49.4273 190.174 49.3675 190.282 49.278C190.391 49.1884 190.474 49.0723 190.524 48.9408C190.574 48.8093 190.589 48.6671 190.567 48.5282C190.545 48.3893 190.487 48.2585 190.399 48.1487C187.85 45.0935 185.03 42.2728 181.976 39.7207C181.244 39.0693 180.176 39.8589 180.631 40.6484C181.702 42.3241 182.15 44.3218 181.897 46.2933" fill="#1CDBBC"/>
<path d="M160.936 44.438C160.726 46.3883 159.91 48.2242 158.603 49.6882C158.473 49.8313 158.401 50.0166 158.399 50.2092C158.397 50.4019 158.466 50.5885 158.592 50.7341C158.719 50.8797 158.894 50.9741 159.085 50.9996C159.277 51.0251 159.471 50.9799 159.631 50.8725L164.614 48.0106C166.294 47.0237 167.837 46.0368 169.537 45.2078C169.661 45.1396 169.764 45.0395 169.836 44.918C169.908 44.7965 169.945 44.658 169.945 44.5169C169.945 44.3759 169.908 44.2375 169.836 44.116C169.764 43.9945 169.661 43.8944 169.537 43.8262C167.916 42.8393 166.156 41.8524 164.535 40.8655L159.552 37.9838C159.389 37.8961 159.2 37.867 159.018 37.9011C158.836 37.9353 158.671 38.0308 158.551 38.1716C158.431 38.3124 158.362 38.49 158.357 38.6749C158.352 38.8598 158.411 39.0409 158.524 39.1879C159.835 40.6497 160.651 42.4867 160.857 44.438" fill="#1CDBBC"/>
<path d="M139.856 44.438C139.647 46.3924 138.824 48.2304 137.503 49.6882C137.374 49.8313 137.301 50.0166 137.299 50.2092C137.298 50.4019 137.366 50.5885 137.493 50.7341C137.619 50.8797 137.794 50.9741 137.986 50.9996C138.177 51.0251 138.371 50.9799 138.531 50.8725L148.418 45.1288C148.541 45.0578 148.643 44.9557 148.715 44.8327C148.786 44.7097 148.823 44.5702 148.823 44.4282C148.823 44.2861 148.786 44.1466 148.715 44.0236C148.643 43.9006 148.541 43.7985 148.418 43.7275L138.531 37.9838C138.368 37.8961 138.18 37.867 137.998 37.9011C137.815 37.9353 137.651 38.0308 137.53 38.1716C137.41 38.3124 137.342 38.49 137.337 38.6749C137.332 38.8598 137.391 39.0409 137.503 39.1879C138.827 40.6434 139.651 42.4826 139.856 44.438" fill="#1CDBBC"/>
<path d="M97.6591 44.438C97.4494 46.3883 96.6335 48.2242 95.3258 49.6882C95.1965 49.8313 95.1241 50.0166 95.1222 50.2092C95.1203 50.4019 95.189 50.5885 95.3154 50.7341C95.4418 50.8797 95.6172 50.9741 95.8085 50.9996C95.9998 51.0251 96.1938 50.9799 96.354 50.8725L106.241 45.1288C106.364 45.0578 106.466 44.9557 106.537 44.8327C106.608 44.7097 106.646 44.5702 106.646 44.4282C106.646 44.2861 106.608 44.1466 106.537 44.0236C106.466 43.9006 106.364 43.7985 106.241 43.7275L96.354 37.9838C96.1908 37.8961 96.0024 37.867 95.8203 37.9011C95.6382 37.9353 95.4733 38.0308 95.353 38.1716C95.2328 38.3124 95.1645 38.49 95.1596 38.6749C95.1546 38.8598 95.2133 39.0409 95.3258 39.1879C96.6369 40.6497 97.4534 42.4867 97.6591 44.438Z" fill="#1CDBBC"/>
<path d="M76.581 44.438C76.5479 45.3684 76.3046 46.2792 75.8692 47.1025C75.4093 48.01 74.8805 48.8811 74.2873 49.7079C73.8128 50.4185 74.5246 51.3265 75.2562 50.8725L85.1429 45.1288C85.2661 45.0577 85.3684 44.9556 85.4395 44.8326C85.5106 44.7097 85.548 44.5701 85.548 44.4281C85.548 44.2861 85.5106 44.1466 85.4395 44.0236C85.3684 43.9006 85.2661 43.7985 85.1429 43.7275L75.2562 37.9837C74.4455 37.5495 73.5557 38.5166 74.1687 39.2074C74.8627 39.9717 75.4361 40.837 75.8692 41.7734C76.3046 42.5968 76.5479 43.5076 76.581 44.438Z" fill="#1CDBBC"/>
<path d="M118.76 44.4376C118.552 46.3919 117.728 48.23 116.407 49.6878C116.299 49.8367 116.244 50.0182 116.253 50.2022C116.262 50.3861 116.333 50.5616 116.455 50.6997C116.577 50.8377 116.743 50.9301 116.925 50.9615C117.107 50.9928 117.294 50.9613 117.455 50.8721L127.342 45.1283C127.465 45.0573 127.567 44.9552 127.638 44.8322C127.71 44.7092 127.747 44.5697 127.747 44.4277C127.747 44.2857 127.71 44.1462 127.638 44.0232C127.567 43.9002 127.465 43.7981 127.342 43.727L117.455 37.9833C117.292 37.8845 117.099 37.8464 116.91 37.876C116.721 37.9055 116.549 38.0007 116.423 38.1447C116.298 38.2888 116.228 38.4723 116.225 38.6631C116.222 38.8539 116.286 39.0396 116.407 39.1874C117.731 40.6429 118.556 42.4821 118.76 44.4376" fill="#1CDBBC"/>
<path d="M109.783 31.6282C111.738 31.8336 113.578 32.6485 115.043 33.9573C115.19 34.0696 115.371 34.1281 115.557 34.1232C115.742 34.1182 115.92 34.05 116.061 33.93C116.202 33.81 116.297 33.6454 116.332 33.4636C116.366 33.2818 116.337 33.0938 116.249 32.9309L110.495 23.062C110.424 22.9391 110.321 22.837 110.198 22.766C110.075 22.695 109.935 22.6577 109.793 22.6577C109.651 22.6577 109.511 22.695 109.388 22.766C109.264 22.837 109.162 22.9391 109.091 23.062L103.337 32.9309C103.229 33.0908 103.184 33.2846 103.209 33.4755C103.235 33.6665 103.33 33.8415 103.475 33.9676C103.621 34.0938 103.808 34.1624 104.001 34.1605C104.194 34.1586 104.38 34.0863 104.523 33.9573C105.99 32.6519 107.829 31.8375 109.783 31.6282" fill="#1CDBBC"/>
<path d="M132.362 31.6283C134.317 31.8337 136.157 32.6486 137.622 33.9573C137.765 34.0864 137.951 34.1587 138.144 34.1606C138.336 34.1625 138.524 34.0939 138.669 33.9677C138.815 33.8415 138.91 33.6665 138.935 33.4756C138.961 33.2846 138.916 33.0909 138.808 32.9309L133.054 23.0621C132.986 22.9387 132.885 22.8359 132.764 22.7643C132.642 22.6927 132.503 22.6548 132.362 22.6548C132.221 22.6548 132.082 22.6927 131.96 22.7643C131.838 22.8359 131.738 22.9387 131.67 23.0621L125.916 32.9309C125.808 33.0909 125.763 33.2846 125.788 33.4756C125.814 33.6665 125.909 33.8415 126.054 33.9677C126.2 34.0939 126.387 34.1625 126.58 34.1606C126.773 34.1587 126.959 34.0864 127.102 33.9573C128.567 32.6486 130.407 31.8337 132.362 31.6283" fill="#1CDBBC"/>
<path d="M109.781 9.77862C111.74 9.98286 113.582 10.8057 115.041 12.1274C115.189 12.2481 115.375 12.3126 115.566 12.3097C115.757 12.3068 115.941 12.2366 116.085 12.1115C116.229 11.9864 116.325 11.8144 116.354 11.6259C116.384 11.4374 116.346 11.2444 116.247 11.0813L110.493 1.2124C110.422 1.08945 110.319 0.987389 110.196 0.916407C110.073 0.845426 109.933 0.808105 109.791 0.808105C109.648 0.808105 109.509 0.845426 109.386 0.916407C109.262 0.987389 109.16 1.08945 109.089 1.2124L103.335 11.0813C103.245 11.2424 103.214 11.4292 103.245 11.6107C103.277 11.7922 103.369 11.9576 103.507 12.0796C103.646 12.2015 103.822 12.2727 104.006 12.2814C104.19 12.2901 104.372 12.2358 104.521 12.1274C105.982 10.8092 107.823 9.98687 109.781 9.77862" fill="#1CDBBC"/>
<path d="M132.363 9.77858C134.322 9.98282 136.165 10.8057 137.623 12.1274C137.772 12.2358 137.954 12.29 138.138 12.2813C138.323 12.2726 138.499 12.2015 138.637 12.0795C138.775 11.9576 138.868 11.7922 138.899 11.6107C138.93 11.4292 138.899 11.2424 138.809 11.0812L133.055 1.21236C132.987 1.08896 132.887 0.986188 132.765 0.914562C132.643 0.842936 132.505 0.805176 132.363 0.805176C132.222 0.805176 132.083 0.842936 131.962 0.914562C131.84 0.986188 131.74 1.08896 131.671 1.21236L125.917 11.0812C125.828 11.2424 125.796 11.4292 125.828 11.6107C125.859 11.7922 125.952 11.9576 126.09 12.0795C126.228 12.2015 126.404 12.2726 126.588 12.2813C126.773 12.29 126.954 12.2358 127.104 12.1274C128.562 10.8057 130.404 9.98282 132.363 9.77858" fill="#1CDBBC"/>
</g>
<defs>
<clipPath id="clip0_1723_4013">
<rect width="240.879" height="317.363" fill="white" transform="translate(0.197754 0.758301)"/>
</clipPath>
</defs>
</svg>
