<svg width="390" height="353" viewBox="0 0 390 353" fill="none" xmlns="http://www.w3.org/2000/svg">
<path opacity="0.2" d="M302.594 209.587H300.677V204.109H302.594V209.587ZM296.467 149.128H294.557V204.728H296.467V149.128ZM308.713 169.235H306.796V182.948H308.713V169.235ZM388.341 254.762H386.394V294.835H388.304L388.341 254.762ZM394.468 250.766H392.551V293.132H394.468V250.766ZM400.587 249.94H398.67V295.72H400.587V249.94ZM406.67 258.132H404.753V303.041H406.67V258.132ZM247.489 140.546H245.572V164.295H247.489V140.546ZM253.608 145.331H251.699V165.548H253.608V145.331ZM259.735 145.368H257.818V165.769H259.735V145.368ZM265.855 152.004H263.945V167.443H265.847L265.855 152.004ZM271.981 152.188H270.064V167.406H271.981V152.188ZM278.101 156.796H276.169V168.999H278.086L278.101 156.796ZM284.221 167.332H282.311V177.935H284.221V167.332ZM290.347 154.879H288.43V188.663H290.347V154.879ZM302.594 173.142H300.677V187.822H302.594V173.142ZM314.84 165.482H312.923V177.935H314.84V165.482ZM241.369 140.546H239.452V151.082H241.369V140.546Z" fill="#1CDBBC" fill-opacity="0.6"/>
<path opacity="0.2" d="M-101.493 79.9896H-103.41V49.2733H-101.493V79.9896ZM-95.3737 51.0429H-97.2833V85.7848H-95.3737V51.0429ZM-3.5366 55.946H-5.47567V68.6498H-3.56609L-3.5366 55.946ZM2.59031 50.195H0.673347V59.5956H2.59031V50.195ZM2.59031 66.9466H0.673347V69.2249H2.59031V66.9466ZM-3.5366 35.4193H-5.47567V46.7518H-3.56609L-3.5366 35.4193ZM2.59031 36.2451H0.673347V47.5775H2.59031V36.2451ZM14.7409 39.3197H12.8239V48.9047H14.7409V39.3197ZM14.7409 64.86H12.8239V68.3917H14.7409V64.86ZM14.8367 73.2727H12.9566V134.064H14.8736L14.8367 73.2727ZM8.70983 34.9327H6.79287V48.9416H8.70983V34.9327ZM8.70983 4.88746H6.79287V25.6795H8.70983V4.88746ZM14.7409 3.56031H12.8239V21.1746H14.7409V3.56031ZM20.9562 3.56031H19.0393V15.5489H20.9562V3.56031ZM27.0758 2.823H25.1662V12.408H27.0758V2.823ZM33.2027 2.34375H31.2857V9.83479H33.2027V2.34375ZM39.3222 3.81836H37.4052V7.29845H39.3222V3.81836ZM112.801 61.6748H110.884V65.5899H112.801V61.6748ZM118.832 61.7707H116.915V68.6129H118.824L118.832 61.7707ZM131.159 162.229H129.25V206.593H131.159V162.229ZM125.04 169.513H123.123V195.938H125.025L125.04 169.513ZM125.04 61.2841H123.123V67.448H125.025L125.04 61.2841ZM-3.7504 29.3661H-5.65999V32.6839H-3.7504V29.3661ZM2.59031 29.0195H0.673347V32.3153H2.59031V29.0195ZM-3.5366 22.5681H-5.47567V26.9403H-3.56609L-3.5366 22.5681ZM-3.5366 13.3517H-5.47567V20.0317H-3.56609L-3.5366 13.3517ZM-3.5366 4.88009H-5.47567V10.2624H-3.56609L-3.5366 4.88009ZM2.59031 5.07179H0.673347V10.4541H2.59031V5.07179ZM2.59031 13.4328H0.673347V26.3136H2.59031V13.4328ZM-3.5366 91.145H-5.47567V156.404H-3.56609L-3.5366 91.145ZM2.59031 92.7155H0.673347V163.556H2.59031V92.7155ZM8.70983 94.1901H6.79287V149.149H8.70983V94.1901ZM8.70983 217.025H6.79287V238.592H8.70983V217.025ZM14.8367 200.583H12.9566V254.164H14.8736L14.8367 200.583ZM20.9562 197.008H19.0393V258.941H20.9562V197.008ZM8.70983 173.141H6.79287V175.685H8.70983V173.141ZM20.9562 179.777H19.0393V182.32H20.9562V179.777ZM27.0758 181.045H25.1662V181.686H27.0758V181.045ZM33.2027 182.217H31.2857V182.859H33.2027V182.217ZM14.8367 176.319H12.9566V181.686H14.8736L14.8367 176.319ZM2.59031 171.158H0.673347V173.701H2.59031V171.158ZM137.286 96.2177H135.347V102.492H137.264L137.286 96.2177ZM137.286 124.869H135.347V139.291H137.264L137.286 124.869ZM143.406 94.6398H141.489V100.789H143.406V94.6398ZM143.406 84.0816H141.489V90.2308H143.406V84.0816ZM149.533 85.6594H147.616V105.508H149.533V85.6594ZM149.533 111.465H147.616V115.425H149.533V111.465ZM253.609 169.749H251.699V186.081H253.609V169.749ZM259.736 170.332H257.819V180.765H259.736V170.332ZM333.207 211.798H331.29V216.568H333.207V211.798ZM339.326 218.353H337.409V225.128H339.326V218.353ZM339.326 207.544H337.409V210.006H339.326V207.544ZM345.475 225.416H343.558V233.6H345.475V225.416ZM400.573 225.917H398.656V232.465H400.573V225.917ZM406.7 227.569H404.783V235.539H406.671L406.7 227.569ZM345.475 216.642H343.558V218.95H345.475V216.642ZM351.595 235.642H349.678V237.95H351.595V235.642ZM351.595 186.383H349.678V199.854H351.595V186.383ZM357.714 237.117H355.797V239.417H357.707L357.714 237.117ZM363.812 239.609H361.895V240.686H363.812V239.609ZM394.439 225.394H392.522V226.47H394.439V225.394ZM388.327 229.818H386.395V230.887H388.305L388.327 229.818ZM388.327 218.714H386.41V222.017H388.327V218.714ZM247.504 167.692H245.587V190.549H247.504V167.692ZM216.877 51.0208H214.975V58.5044H216.892L216.877 51.0208ZM137.286 151.589H135.347V211.724H137.264L137.286 151.589ZM143.406 143.597H141.489V212.27H143.406V143.597ZM149.533 144.128H147.616V212.27H149.533V144.128ZM222.996 52.8788H221.087V61.4758H222.996V52.8788ZM229.123 55.4667H227.206V58.8583H229.123V55.4667ZM247.489 50.0107H245.572V51.7138H247.489V50.0107ZM247.489 12.349H245.572V14.0522H247.489V12.349ZM241.37 11.6707H239.453V13.3739H241.37V11.6707ZM253.609 13.1453H251.699V14.3029H253.609V13.1453ZM259.736 8.60349H257.819V9.75368H259.736V8.60349ZM259.736 13.4255H257.819V14.5757H259.736V13.4255ZM265.848 11.7739H263.938V12.9315H265.848V11.7739ZM265.848 29.5209H263.938V30.6785H265.848V29.5209ZM271.975 10.6606H270.058V11.8181H271.975V10.6606ZM271.975 28.3559H270.058V29.5135H271.975V28.3559ZM278.094 25.7975H276.17V27.5818H278.087L278.094 25.7975ZM235.243 12.8799H233.326V13.1969H235.243V12.8799ZM253.675 34.5641H251.758V46.9361H253.675V34.5641ZM259.699 45.7416H257.782V46.9361H259.699V45.7416ZM259.699 31.3715H257.782V35.2645H259.699V31.3715ZM222.996 68.5171H221.087V119.863H222.996V68.5171ZM222.996 176.267H221.087V234.396H222.996V176.267ZM229.123 130.149H227.206V179.718H229.123V130.149ZM229.123 64.366H227.206V124.751H229.123V64.366ZM229.123 189.487H227.206V229.073H229.123V189.487ZM235.243 199.654H233.326V219.473H235.243V199.654ZM235.243 260.283H233.326V278.133H235.243V260.283ZM241.37 255.999H239.453V274.189H241.37V255.999ZM241.37 200.185H239.453V214.017H241.37V200.185ZM247.489 256.103H245.572V260.143H247.489V256.103ZM247.489 197.642H245.572V201.675H247.489V197.642ZM235.243 53.6972H233.326V148.22H235.243V53.6972ZM241.37 55.1718H239.453V136.711H241.37V55.1718ZM247.489 54.2207H245.572V135.752H247.489V54.2207ZM314.841 33.4507H312.924V85.9544H314.841V33.4507ZM320.96 30.214H319.043V107.978H320.96V30.214ZM327.08 29.3808H325.17V104.151H327.08V29.3808ZM339.326 27.2352H337.409V71.5916H339.326V27.2352ZM345.475 23.5929H343.558V66.7991H345.475V23.5929ZM400.551 44.5546H398.634V126.167H400.551V44.5546ZM406.671 45.5426H404.754V119.45H406.671V45.5426ZM412.79 37.2847H410.873V110.145H412.79V37.2847ZM418.91 41.3842H416.993V80.9775H418.902L418.91 41.3842ZM425.036 42.6376H423.12V82.2015H425.036V42.6376ZM431.156 44.3334H429.239V80.9775H431.156V44.3334ZM437.283 46.6854H435.366V83.1231H437.283V46.6854ZM431.156 30.6268H429.239V32.1531H431.156V30.6268ZM425.036 30.6268H423.12V32.1531H425.036V30.6268ZM412.79 29.9854H410.873V31.5116H412.79V29.9854ZM418.91 31.3789H417H418.91ZM418.91 101.556H416.993V108.855H418.902L418.91 101.556ZM418.91 38.2948H417H418.91ZM333.273 11.7075H331.356V18.4539H333.273V11.7075ZM339.326 15.3572H337.409V21.0935H339.326V15.3572ZM327.08 13.1453H325.17V17.0088H327.08V13.1453ZM345.475 18.2548H343.558V20.5995H345.475V18.2548ZM-89.2468 71.5916H-91.1637V91.9782H-89.2468V71.5916ZM-83.1273 80.2402H-85.0442V99.7641H-83.1273V80.2402ZM-76.993 93.615H-78.9099V108.722H-76.993V93.615ZM-70.8956 102.234H-72.8125V137.831H-70.8956V102.234ZM155.652 179.496H153.735V210.006H155.652V179.496ZM161.772 174.063H159.862V209.453H161.772V174.063ZM235.243 152.032H233.326V193.896H235.243V152.032ZM241.37 154.583H239.453V193.741H241.37V154.583ZM253.609 53.6972H251.699V76.3767H253.609V53.6972ZM308.714 36.1272H306.797V85.0106H308.714V36.1272ZM333.207 29.3661H331.29V105.11H333.207V29.3661Z" fill="#1CDBBC" fill-opacity="0.6"/>
<path opacity="0.2" d="M-89.2456 67.7586H-91.1626V48.7656H-89.2456V67.7586ZM-83.1261 46.9518H-85.0431V77.3363H-83.1261V46.9518ZM-76.9918 47.962H-78.9088V90.7258H-76.9918V47.962ZM-70.8944 49.5177H-72.8114V99.3596H-70.8944V49.5177ZM-64.797 50.572H-66.6698V146.134H-64.7602L-64.797 50.572ZM-58.6775 53.6982H-60.5945V157.15H-58.6775V53.6982ZM-52.5801 56.3083H-54.4897V157.614H-52.5801V56.3083ZM-46.4753 56.9645H-48.3923V78.3464H-46.4753V56.9645ZM21.009 43.8773H19.092V68.6508H21.009V43.8773ZM21.009 73.3106H19.092V129.818H21.009V73.3106ZM27.0769 80.2265H25.1673V122.99H27.0769V80.2265ZM33.2038 108.487H31.2868V122.976H33.2038V108.487ZM33.2038 82.0845H31.2868V105.243H33.2038V82.0845ZM33.2038 56.3894H31.2868V60.334H33.2038V56.3894ZM33.2038 65.6942H31.2868V69.6535H33.2038V65.6942ZM39.3233 57.8714H37.4064V61.8086H39.3233V57.8714ZM27.0769 45.8754H25.1673V72.2341H27.0769V45.8754ZM39.3233 84.9526H37.4064V105.229H39.3233V84.9526ZM45.4502 93.6529H43.5333V104.572H45.4502V93.6529ZM39.3233 117.461H37.4064V119.886H39.3233V117.461ZM51.5697 106.865H49.6528V111.673H51.5697V106.865ZM57.6893 110.287H55.7797V113.059H57.6893V110.287ZM33.2038 18.3075H31.2868V27.4648H33.2038V18.3075ZM27.0769 18.8162H25.1673V27.9662H27.0769V18.8162ZM-46.3869 38.7235H-48.3038V51.6116H-46.3869V38.7235ZM-52.5801 40.4267H-54.4897V52.8577H-52.5801V40.4267ZM-58.6333 35.8775H-60.5502V50.8964H-58.6333V35.8775ZM-64.7602 34.0047H-66.6698V43.3759H-64.7602V34.0047ZM-70.8797 34.0047H-72.7967V43.3759H-70.8797V34.0047ZM-70.8797 25.4446H-72.7967V28.9099H-70.8797V25.4446ZM-64.7823 22.3479H-66.6698V25.8133H-64.7602L-64.7823 22.3479ZM-58.6333 21.9424H-60.5502V30.8417H-58.6333V21.9424ZM-52.5138 19.642H-54.4307V24.3313H-52.5138V19.642ZM-52.5138 29.1164H-54.4307V33.7909H-52.5138V29.1164ZM-46.3869 26.5653H-48.3038V31.2546H-46.3869V26.5653ZM14.8084 332.186H12.9578V342.31H14.8747L14.8084 332.186ZM33.1743 348.827H31.2574V350.413H33.1743V348.827ZM45.4207 342.192H43.5038V343.777H45.4207V342.192ZM20.9279 302.598H19.0109V348.82H20.9279V302.598ZM27.0548 196.979H25.1378V352.44H27.0548V196.979ZM33.1743 200.725H31.2574V276.535H33.1743V200.725ZM39.2938 200.909H37.3843V263.123H39.2938V200.909ZM45.4207 202.811H43.5038V265.04H45.4207V202.811ZM51.5403 204.455H49.6233V254.504H51.5403V204.455ZM-52.5801 161.529H-54.4897V167.052H-52.5801V161.529ZM155.653 99.4702H153.736V104.676H155.653V99.4702ZM143.407 123.882H141.49V140.767H143.407V123.882ZM149.534 124.87H147.617V139.823H149.534V124.87ZM155.653 108.097H153.736V131.344H155.653V108.097ZM161.773 103.223H159.863V124.87H161.773V103.223ZM167.9 71.1134H165.983V85.1886H167.9V71.1134ZM174.019 68.4812H172.102V82.5564H174.019V68.4812ZM167.9 99.9716H165.983V123.882H167.9V99.9716ZM174.019 86.7001H172.102V125.364H174.019V86.7001ZM180.146 96.9781H178.229V121.309H180.146V96.9781ZM180.146 126.588H178.229V131.351H180.146V126.588ZM412.799 229.553H410.882V242.257H412.799V229.553ZM418.925 231.492H416.994V241.21H418.911L418.925 231.492ZM425.045 237.17H423.128V245.007H425.045V237.17ZM431.164 234.073H429.255V236.174H431.164V234.073ZM437.291 232.466H435.374V233.601H437.291V232.466ZM443.411 238.866H441.501V241.21H443.411V238.866ZM449.538 244.145H447.621V246.209H449.538V244.145ZM376.067 170.768H374.15V173.658H376.067V170.768ZM376.067 151.288H374.15V161.942H376.067V151.288ZM186.266 131.02H184.349V134.61H186.266V131.02ZM180.146 138.127H178.229V140.339H180.146V138.127ZM180.146 61.2851H178.229V91.6843H180.146V61.2851ZM186.266 95.71H184.349V125.94H186.266V95.71ZM186.266 52.7839H184.349V83.0135H186.266V52.7839ZM192.385 48.161H190.476V67.1836H192.385V48.161ZM180.146 15.3951H178.229V23.1368H180.146V15.3951ZM186.266 15.1518H184.349V26.4179H186.266V15.1518ZM192.385 12.8145H190.476V24.3534H192.385V12.8145ZM198.512 13.8025H196.595V25.828H198.512V13.8025ZM204.632 13.8025H202.715V17.3637H204.654L204.632 13.8025ZM155.653 141.946H153.736V175.981H155.653V141.946ZM161.773 140.509H159.863V171.188H161.773V140.509ZM167.9 140.111H165.983V212.957H167.9V140.111ZM174.019 141.799H172.102V228.44H174.019V141.799ZM180.146 151.59H178.229V272.597H180.146V151.59ZM278.103 45.1381H276.171V48.8246H278.088L278.103 45.1381ZM284.222 37.8461H282.313V59.5451H284.222V37.8461ZM290.349 44.7399H288.432V52.2605H290.349V44.7399ZM296.469 43.7667H294.559V51.302H296.469V43.7667ZM253.61 81.1629H251.7V140.546H253.61V81.1629ZM259.737 53.8383H257.82V141.504H259.737V53.8383ZM278.103 54.9516H276.171V152.033H278.088L278.103 54.9516ZM284.222 61.7865H282.313V95.533H284.222V61.7865ZM290.349 60.0685H288.432V86.9139H290.349V60.0685ZM333.208 111.813H331.291V187.755H333.208V111.813ZM363.82 111.813H361.903V174.314H363.82V111.813ZM369.94 109.896H368.023V170.768H369.94V109.896ZM412.799 249.158H410.882V308.755H412.799V249.158ZM418.918 252.801H416.994V308.674H418.903L418.918 252.801ZM425.045 266.286H423.128V308.674H425.045V266.286ZM431.164 273.836H429.247V299.347H431.164V273.836ZM443.411 46.4873H441.494V75.9796H443.411V46.4873ZM449.53 49.8347H447.621V77.0413H449.53V49.8347ZM449.53 81.8044H447.621V97.6638H449.53V81.8044ZM443.411 88.9931H441.494V104.845H443.411V88.9931ZM455.657 49.8347H453.74V81.8044H455.657V49.8347ZM461.777 50.572H459.86V80.7279H461.777V50.572ZM467.904 48.5371H465.987V80.4035H467.904V48.5371ZM474.023 49.149H472.106V75.4783H474.023V49.149ZM480.143 50.6236H478.233V72.8682H480.143V50.6236ZM486.299 53.219H484.382V65.1707H486.299V53.219ZM492.419 57.1636H490.502V63.7256H492.419V57.1636ZM498.546 60.157H496.621V68.1715H498.538L498.546 60.157ZM504.665 71.2609H502.748V72.7871H504.665V71.2609ZM486.299 45.7205H484.382V47.2468H486.299V45.7205ZM498.546 79.2901H496.621V80.8164H498.538L498.546 79.2901ZM510.792 97.6638H508.875V98.32H510.792V97.6638ZM510.792 79.7251H508.875V80.3813H510.792V79.7251ZM517 93.9847H515.054V94.6409H516.971L517 93.9847ZM504.665 100.746H502.748V101.402H504.665V100.746ZM492.419 101.955H490.502V102.611H492.419V101.955ZM486.299 103.164H484.382V103.835H486.299V103.164ZM480.187 102.287H478.277V102.943H480.187V102.287ZM467.933 99.249H466.016V99.9052H467.933V99.249ZM425.045 315.376H423.128V321.916H425.045V315.376ZM418.918 315.376H416.994V317.713H418.903L418.918 315.376ZM-46.4753 120.432H-48.3923V165.194H-46.4753V120.432ZM57.6966 227.703H55.7797V249.726H57.6966V227.703ZM186.266 154.112H184.349V270.253H186.266V154.112ZM192.385 151.598H190.476V263.13H192.385V151.598ZM265.849 49.1933H263.939V146.289H265.849V49.1933ZM271.976 50.3287H270.059V146.083H271.976V50.3287ZM296.469 53.6982H294.559V77.3363H296.469V53.6982ZM302.596 42.7418H300.679V71.5926H302.596V42.7418ZM320.961 113.744H319.045V175.007H320.961V113.744ZM327.081 110.869H325.171V182.69H327.081V110.869ZM339.327 79.268H337.41V194.288H339.327V79.268ZM345.454 73.517H343.537V200.732H345.476L345.454 73.517ZM351.574 115.661H349.657V178.215H351.574V115.661ZM357.693 109.91H355.798V182.69H357.708L357.693 109.91Z" fill="#1CDBBC" fill-opacity="0.6"/>
<path opacity="0.2" d="M-181.083 102.707H-183V102.014H-181.083V102.707ZM-174.964 102.707H-176.88V103.555H-174.964V102.707ZM-168.837 100.731H-170.754V102.419H-168.837V100.731ZM-162.717 99.5217H-164.634V101.21H-162.717V99.5217ZM-156.598 97.5236H-158.507V99.212H-156.62L-156.598 97.5236ZM-156.598 69.823H-158.507V70.9363H-156.62L-156.598 69.823ZM-162.717 67.6774H-164.634V68.7907H-162.717V67.6774ZM-150.471 70.6266H-152.388V78.2799H-150.471V70.6266ZM-150.471 59.2131H-152.388V65.4139H-150.471V59.2131ZM-150.471 52.5774H-152.388V55.0252H-150.471V52.5774ZM-150.471 93.4758H-152.388V96.543H-150.471V93.4758ZM-144.351 47.6743H-146.298V58.2104H-144.381L-144.351 47.6743ZM-144.351 68.7686H-146.298V81.6641H-144.381L-144.351 68.7686ZM-144.351 61.2112H-146.298V65.3991H-144.381L-144.351 61.2112ZM-144.351 89.9662H-146.298V94.1541H-144.381L-144.351 89.9662ZM-138.224 86.3239H-140.141V90.5634H-138.224V86.3239ZM-138.187 45.5877H-140.104V82.3498H-138.187V45.5877ZM-132.068 45.6762H-133.985V84.982H-132.068V45.6762ZM-125.941 45.6762H-127.865V80.6835H-125.948L-125.941 45.6762ZM-119.821 46.4135H-121.738V78.2799H-119.821V46.4135ZM-113.702 46.4135H-115.619V77.2329H-113.702V46.4135ZM-107.575 47.9913H-109.492V78.678H-107.575V47.9913ZM-40.3414 53.0861H-42.2584V171.158H-40.3414V53.0861ZM-34.1555 55.1727H-36.0651V183.7H-34.1555V55.1727ZM-15.797 44.9905H-17.7139V72.6395H-15.797V44.9905ZM-9.67743 51.9875H-11.5944V67.6405H-9.67743V51.9875ZM57.6668 58.4832H55.7572V61.9633H57.6668V58.4832ZM39.323 10.2338H37.406V26.9412H39.323V10.2338ZM45.4499 6.93806H43.5329V28.7771H45.4499V6.93806ZM51.5694 6.93806H49.6524V34.2774H51.5694V6.93806ZM57.6889 6.09753H55.7793V50.3728H57.6889V6.09753ZM63.8158 4.84411H61.8989V72.868H63.8306L63.8158 4.84411ZM69.9353 4.84411H68.0184V76.5546H69.9353V4.84411ZM76.0623 1.27554H74.1526V75.2938H76.0696L76.0623 1.27554ZM82.1818 1.8064H80.2648V62.5826H82.1818V1.8064ZM88.3013 0L86.3917 0V61.6831H88.3013V0ZM94.4282 0L92.5112 0V57.2371H94.4282V0ZM100.555 0.0884775H98.6381V54.6492H100.555V0.0884775ZM106.675 0.309669H104.758V53.2409H106.675V0.309669ZM125.026 7.85232H123.109V14.7019H125.026V7.85232ZM131.145 7.90393H129.236V9.85042H131.145V7.90393ZM112.787 3.15567H110.87V50.0115H112.787V3.15567ZM118.906 7.04865H116.997V35.2138H118.906V7.04865ZM-9.6553 39.5713H-11.5723V42.6385H-9.6553V39.5713ZM-15.797 35.3686H-17.7139V38.3989H-15.797V35.3686ZM-15.797 25.7836H-17.7139V26.9265H-15.797V25.7836ZM-9.64793 29.072H-11.5649V32.3162H-9.64793V29.072ZM-9.64793 12.8513H-11.5649V19.4649H-9.64793V12.8513ZM-15.797 9.65135H-17.7139V16.3313H-15.797V9.65135ZM-21.9017 35.6267H-23.8113V38.657H-21.9017V35.6267ZM-21.9017 30.119H-23.8113V32.1023H-21.9017V30.119ZM-21.9017 19.7967H-23.8113V26.3366H-21.9017V19.7967ZM-28.0213 34.7493H-29.9382V43.3758H-28.0213V34.7493ZM-28.0213 25.8205H-29.9382V31.483H-28.0213V25.8205ZM-34.1481 38.4284H-36.0577V39.9842H-34.1481V38.4284ZM-34.1481 47.3204H-36.0577V51.3092H-34.1481V47.3204ZM-40.2677 40.4265H-42.1846V48.3821H-40.2677V40.4265ZM-40.2677 27.8407H-42.1846V30.4213H-40.2677V27.8407ZM-34.1481 27.1698H-36.0577V29.743H-34.1481V27.1698ZM-34.1481 18.3221H-36.0577V19.7303H-34.1481V18.3221ZM-40.2677 17.1055H-42.1846V18.5285H-40.2677V17.1055ZM-28.0581 20.9543H-29.9677V22.3773H-28.0581V20.9543ZM-28.0581 53.4621H-29.9751V185.27H-28.0581V53.4621ZM-21.9017 43.6633H-23.8187V159.339H-21.9017V43.6633ZM-15.797 82.3498H-17.7139V157.15H-15.797V82.3498ZM-9.67743 87.4004H-11.5944V156.471H-9.67743V87.4004ZM57.6742 252.594H55.7572V293.559H57.6742V252.594ZM63.7937 222.106H61.8768V286.178H63.8306L63.7937 222.106ZM69.9132 225.004H68.0036V275.318H69.9132V225.004ZM76.0401 228.462H74.1526V272.597H76.0696L76.0401 228.462ZM82.1597 229.649H80.2427V259.584H82.1597V229.649ZM8.68851 201.041H6.77156V203.585H8.68851V201.041ZM2.569 202.015H0.652023V204.558H2.569V202.015ZM-3.55791 187.269H-5.47487V200.54H-3.56528L-3.55791 187.269ZM-9.6553 176.091H-11.5723V193.705H-9.6553V176.091ZM-15.797 182.506H-17.7139V188.035H-15.797V182.506ZM-21.9238 182.1H-23.8408V187.63H-21.9238V182.1ZM357.671 220.27H355.798V228.44H357.708L357.671 220.27ZM363.798 214.689H361.881V229.981H363.798V214.689ZM369.917 209.594H368V224.886H369.917V209.594ZM369.917 241.866H368V242.943H369.917V241.866ZM376.044 241.947H374.127V243.016H376.044V241.947ZM382.201 244.808H380.284V245.877H382.201V244.808ZM382.164 225.734H380.276V226.803H382.186L382.164 225.734ZM382.164 220.573H380.276V221.649H382.186L382.164 220.573ZM375.978 221.111H374.061V222.187H375.978V221.111ZM382.164 195.6H380.247V208.872H382.164V195.6ZM376.044 182.55H374.127V196.013H376.044V182.55ZM376.044 139.174H374.127V142.064H376.044V139.174ZM369.917 203.652H368V204.109H369.917V203.652ZM376.044 225.889H374.127V229.192H376.044V225.889ZM192.385 92.9818H190.475V134.883H192.385V92.9818ZM198.512 46.9886H196.595V61.543H198.512V46.9886ZM198.512 82.9986H196.595V132.347H198.512V82.9986ZM198.512 137.029H196.595V139.019H198.512V137.029ZM198.512 144.269H196.595V145.426H198.512V144.269ZM216.878 144.844H214.975V146.002H216.892L216.878 144.844ZM198.512 68.2451H196.595V78.1103H198.512V68.2451ZM204.653 46.0817H202.736V77.3361H204.653V46.0817ZM204.653 81.1922H202.736V130.872H204.653V81.1922ZM204.653 133.401H202.736V140.251H204.653V133.401ZM210.78 130.806H208.863V140.907H210.78V130.806ZM216.9 128.594H214.975V141.438H216.892L216.9 128.594ZM210.758 46.9886H208.841V118.367H210.758V46.9886ZM216.878 62.2287H214.975V120.926H216.892L216.878 62.2287ZM186.265 274.625H184.348V296.427H186.265V274.625ZM192.385 265.998H190.475V298.255H192.385V265.998ZM198.512 151.59H196.595V297.857H198.512V151.59ZM204.631 153.109H202.714V295.033H204.653L204.631 153.109ZM210.758 153.846H208.841V289.437H210.758V153.846ZM216.878 154.643H214.975V277.736H216.892L216.878 154.643ZM222.997 130.503H221.088V165.769H222.997V130.503ZM229.124 246.364H227.207V257.423H229.124V246.364ZM302.595 77.3361H300.678V169.271H302.595V77.3361ZM351.573 40.9869H349.656V109.896H351.573V40.9869ZM357.693 36.1133H355.798V102.235H357.708L357.693 36.1133ZM376.066 40.257H374.149V133.062H376.066V40.257ZM382.186 36.622H380.269V133.652H382.186V36.622ZM388.305 41.5915H386.396V146.119H388.305V41.5915ZM394.432 47.0623H392.515V126.824H394.432V47.0623ZM363.82 271.941H361.903V283.318H363.82V271.941ZM369.939 267.65H368.022V300.512H369.939V267.65ZM376.066 265.298H374.149V298.233H376.066V265.298ZM382.186 259.193H380.269V298.233H382.186V259.193ZM461.813 324.813H459.896V332.068H461.813V324.813ZM467.94 319.416H466.023V325.875H467.94V319.416ZM474.06 302.664H472.143V311.512H474.06V302.664ZM474.06 316.887H472.143V319.799H474.06V316.887ZM480.179 308.666H478.27V313.643H480.179V308.666ZM418.984 123.388H416.993V125.726H418.903L418.984 123.388ZM412.865 125.726H410.948V144.527H412.865V125.726ZM406.671 140.081H404.754V146.119H406.671V140.081ZM400.544 144.505H398.627V148.811H400.544V144.505ZM394.425 147.955H392.508V153.529H394.425V147.955ZM425.037 120.926H423.12V122.098H425.037V120.926ZM431.157 116.996H429.24V118.168H431.157V116.996ZM351.529 26.5873H349.612V38.4727H351.529V26.5873ZM357.649 26.3071H355.798V33.9161H357.708L357.649 26.3071ZM363.82 29.3669H361.903V32.3162H363.82V29.3669ZM-46.4757 81.1628H-48.3926V116.598H-46.4757V81.1628ZM33.2035 280.368H31.2865V324.717H33.2035V280.368ZM39.323 266.197H37.4134V319.586H39.323V266.197ZM45.4499 268.166H43.5329V317.271H45.4499V268.166ZM51.5694 257.379H49.6524V313.134H51.5694V257.379ZM57.6963 211.725H55.7793V224.82H57.6963V211.725ZM222.997 239.19H221.088V262.725H222.997V239.19ZM308.715 89.8261H306.798V164.486H308.715V89.8261ZM284.222 101.313H282.312V161.647H284.222V101.313ZM290.349 93.6527H288.432V151.118H290.349V93.6527ZM296.468 82.1581H294.559V146.304H296.468V82.1581ZM314.842 91.7431H312.925V161.655H314.842V91.7431ZM363.82 36.8727H361.903V105.155H363.82V36.8727ZM369.939 36.8727H368.022V104.196H369.939V36.8727Z" fill="#1CDBBC" fill-opacity="0.6"/>
</svg>
