<svg width="17" height="10" viewBox="0 0 17 10" fill="none" xmlns="http://www.w3.org/2000/svg">
<g clip-path="url(#clip0_2074_25373)">
<path d="M10.9551 9.13926C11.4955 9.19862 12.0041 9.43843 12.4077 9.82415C12.4474 9.86055 12.4981 9.88059 12.5506 9.88065C12.6031 9.88072 12.6538 9.86082 12.6936 9.82452C12.7334 9.78822 12.7596 9.73797 12.7674 9.68291C12.7753 9.62785 12.7642 9.57163 12.7362 9.52451L11.1511 6.61372C11.1312 6.57825 11.1029 6.54887 11.0691 6.52847C11.0352 6.50807 10.997 6.49735 10.958 6.49735C10.9191 6.49735 10.8808 6.50807 10.847 6.52847C10.8131 6.54887 10.7849 6.57825 10.7649 6.61372L9.17408 9.52451C9.15111 9.57243 9.14408 9.62716 9.15411 9.67985C9.16415 9.73254 9.19068 9.78012 9.22938 9.81481C9.26809 9.84951 9.3167 9.86925 9.36734 9.87095C9.41799 9.87265 9.46769 9.85617 9.50838 9.82415C9.91065 9.43996 10.417 9.20028 10.9551 9.13926Z" fill="#18181B"/>
<path d="M4.50165 8.18434C4.44229 8.72466 4.20248 9.23326 3.81677 9.63686C3.78594 9.67809 3.77071 9.72791 3.77355 9.77828C3.77639 9.82866 3.79708 9.87666 3.83237 9.91459C3.86766 9.95251 3.91546 9.97814 3.96808 9.98736C4.02069 9.99658 4.07513 9.98884 4.12252 9.96541L7.03324 8.38032C7.06871 8.36038 7.09816 8.33211 7.11856 8.29826C7.13896 8.26441 7.14969 8.22616 7.14969 8.18723C7.14969 8.1483 7.13896 8.11003 7.11856 8.07618C7.09816 8.04233 7.06871 8.01407 7.03324 7.99414L4.12252 6.40328C4.07446 6.37734 4.01826 6.36796 3.96367 6.37678C3.90909 6.38559 3.8595 6.41203 3.82334 6.45157C3.78718 6.49111 3.76676 6.54128 3.76556 6.59347C3.76436 6.64566 3.78246 6.6966 3.81677 6.73759C4.20095 7.13985 4.44063 7.64616 4.50165 8.18434Z" fill="#18181B"/>
<path d="M4.50152 1.90162C4.44092 2.44163 4.20127 2.94988 3.81663 3.35414C3.7858 3.39537 3.77057 3.44519 3.77341 3.49556C3.77625 3.54594 3.79694 3.59395 3.83223 3.63187C3.86752 3.66979 3.91532 3.69542 3.96794 3.70464C4.02055 3.71386 4.07499 3.70612 4.12238 3.68269L7.0331 2.09182C7.06869 2.07267 7.09829 2.045 7.11887 2.0116C7.13944 1.97819 7.15029 1.94025 7.15029 1.90162C7.15029 1.86299 7.13944 1.82505 7.11887 1.79165C7.09829 1.75824 7.06869 1.73055 7.0331 1.7114L4.12238 0.120556C4.07499 0.0971177 4.02055 0.0893854 3.96794 0.0986031C3.91532 0.107821 3.86752 0.133451 3.83223 0.171374C3.79694 0.209297 3.77625 0.257307 3.77341 0.307681C3.77057 0.358055 3.7858 0.407871 3.81663 0.449106C4.20234 0.852706 4.44215 1.3613 4.50152 1.90162Z" fill="#18181B"/>
<path d="M10.965 2.85235C11.505 2.91294 12.0133 3.15259 12.4175 3.53723C12.4572 3.57363 12.508 3.59367 12.5604 3.59374C12.6129 3.59381 12.6637 3.57391 12.7035 3.53761C12.7433 3.50131 12.7695 3.45106 12.7773 3.396C12.7851 3.34094 12.774 3.28472 12.7461 3.2376L11.1552 0.326811C11.1361 0.291223 11.1084 0.261616 11.075 0.241041C11.0416 0.220466 11.0036 0.209689 10.965 0.209689C10.9264 0.209689 10.8884 0.220466 10.855 0.241041C10.8216 0.261616 10.7939 0.291223 10.7748 0.326811L9.18393 3.2376C9.15597 3.28472 9.1449 3.34094 9.15271 3.396C9.16053 3.45106 9.1867 3.50131 9.2265 3.53761C9.2663 3.57391 9.31708 3.59381 9.36956 3.59374C9.42205 3.59367 9.47277 3.57363 9.51248 3.53723C9.91609 3.15152 10.4247 2.91171 10.965 2.85235Z" fill="#18181B"/>
</g>
<defs>
<clipPath id="clip0_2074_25373">
<rect width="17" height="10" fill="white"/>
</clipPath>
</defs>
</svg>
