<svg width="320" height="285" viewBox="0 0 320 285" fill="none" xmlns="http://www.w3.org/2000/svg">
<g clip-path="url(#clip0_1723_4703)">
<path d="M271.954 276.872C270.493 274.69 269.68 272.137 269.607 269.511C269.607 268.358 267.918 268.052 267.59 269.134L266.463 272.638C266.041 273.791 265.571 274.99 265.126 276.072C264.164 278.424 263.249 280.776 262.052 282.986C261.97 283.156 261.933 283.344 261.946 283.532C261.959 283.72 262.021 283.902 262.125 284.059C262.229 284.215 262.373 284.342 262.541 284.426C262.709 284.511 262.896 284.549 263.084 284.539C265.736 284.539 268.247 284.068 270.898 283.739C272.189 283.551 273.55 283.386 274.864 283.151L278.806 282.304C279.054 282.252 279.276 282.116 279.435 281.919C279.595 281.722 279.682 281.476 279.682 281.222C279.682 280.969 279.595 280.723 279.435 280.526C279.276 280.329 279.054 280.193 278.806 280.141C276.153 279.899 273.665 278.744 271.766 276.872" fill="#1CDBBC"/>
<path d="M90.7623 276.872C89.3016 274.69 88.488 272.137 88.4158 269.511C88.4158 268.358 86.7029 268.052 86.3744 269.134L85.2714 272.638C84.849 273.791 84.3798 274.99 83.934 276.072C82.9719 278.424 82.057 280.776 80.8603 282.986C80.7782 283.156 80.7418 283.344 80.7546 283.532C80.7674 283.72 80.829 283.902 80.9333 284.059C81.0376 284.215 81.1809 284.342 81.3492 284.426C81.5175 284.511 81.7048 284.549 81.8926 284.539C84.5206 284.539 87.0312 284.068 89.6827 283.739C90.9967 283.551 92.3579 283.386 93.6719 283.151L97.6138 282.304C97.8616 282.252 98.084 282.116 98.2437 281.919C98.4033 281.722 98.4906 281.476 98.4906 281.222C98.4906 280.969 98.4033 280.723 98.2437 280.526C98.084 280.329 97.8616 280.193 97.6138 280.141C94.9608 279.899 92.4732 278.744 90.5744 276.872" fill="#1CDBBC"/>
<path d="M210.782 276.684C209.32 274.511 208.506 271.966 208.436 269.346C208.423 269.109 208.332 268.883 208.175 268.705C208.019 268.526 207.808 268.406 207.575 268.362C207.342 268.319 207.101 268.355 206.891 268.465C206.681 268.575 206.515 268.753 206.418 268.97L205.315 272.497C204.893 273.65 204.447 274.849 204.001 275.931C203.086 278.283 202.147 280.635 200.998 282.986C200.916 283.156 200.879 283.344 200.892 283.532C200.905 283.72 200.966 283.902 201.071 284.059C201.175 284.215 201.318 284.342 201.487 284.426C201.655 284.511 201.842 284.549 202.03 284.539C204.681 284.421 207.192 284.021 209.82 283.645L213.809 283.057L217.728 282.187C217.99 282.148 218.229 282.017 218.402 281.816C218.575 281.615 218.67 281.359 218.67 281.093C218.67 280.828 218.575 280.571 218.402 280.371C218.229 280.17 217.99 280.038 217.728 280C215.079 279.779 212.59 278.64 210.689 276.778" fill="#1CDBBC"/>
<path d="M29.5872 276.684C28.1249 274.511 27.3109 271.966 27.2407 269.346C27.2281 269.109 27.1363 268.883 26.9801 268.705C26.8239 268.526 26.6123 268.406 26.3794 268.362C26.1465 268.319 25.9061 268.355 25.6963 268.465C25.4865 268.575 25.3197 268.753 25.2228 268.97L24.12 272.497C23.6977 273.65 23.2517 274.849 22.8059 275.931C21.8673 278.283 20.9524 280.635 19.8026 282.986C19.7205 283.156 19.6841 283.344 19.6969 283.532C19.7097 283.72 19.7713 283.902 19.8756 284.059C19.98 284.215 20.1233 284.342 20.2915 284.426C20.4598 284.511 20.6471 284.549 20.8349 284.539C23.463 284.421 25.9973 284.021 28.6253 283.645L32.6142 283.057L36.5329 282.187C36.7948 282.148 37.0339 282.017 37.2069 281.816C37.3799 281.615 37.4753 281.359 37.4753 281.093C37.4753 280.828 37.3799 280.571 37.2069 280.371C37.0339 280.17 36.7948 280.038 36.5329 280C33.884 279.779 31.3947 278.64 29.4935 276.778" fill="#1CDBBC"/>
<path d="M241.288 276.684C239.842 274.503 239.03 271.963 238.942 269.346C238.942 268.194 237.229 267.911 236.924 268.97L235.821 272.497C235.398 273.65 234.953 274.849 234.507 275.931C233.568 278.283 232.653 280.635 231.48 282.986C231.394 283.156 231.356 283.346 231.369 283.536C231.382 283.726 231.447 283.909 231.555 284.065C231.663 284.222 231.811 284.346 231.983 284.425C232.156 284.504 232.347 284.535 232.536 284.515C235.146 284.365 237.747 284.074 240.326 283.645C241.64 283.457 242.977 283.269 244.315 283.033L248.234 282.187C248.496 282.148 248.735 282.016 248.908 281.816C249.081 281.615 249.176 281.358 249.176 281.093C249.176 280.828 249.081 280.571 248.908 280.371C248.735 280.17 248.496 280.038 248.234 280C245.586 279.773 243.099 278.635 241.194 276.778" fill="#1CDBBC"/>
<path d="M60.0929 276.684C58.6467 274.503 57.8342 271.963 57.7464 269.346C57.7464 268.194 56.0335 267.911 55.7285 268.97L54.6257 272.497C54.2033 273.65 53.7576 274.849 53.2883 275.931C52.4125 278.334 51.4099 280.689 50.2848 282.986C50.1993 283.156 50.1611 283.346 50.1742 283.536C50.1874 283.726 50.2515 283.909 50.3595 284.065C50.4676 284.222 50.6157 284.346 50.7883 284.425C50.961 284.504 51.1518 284.535 51.3406 284.515C53.9509 284.363 56.5514 284.073 59.131 283.645C60.445 283.457 61.7824 283.269 63.0964 283.033L67.0386 282.187C67.3005 282.148 67.5396 282.016 67.7126 281.816C67.8856 281.615 67.981 281.358 67.981 281.093C67.981 280.828 67.8856 280.571 67.7126 280.371C67.5396 280.17 67.3005 280.038 67.0386 280C64.3912 279.773 61.9037 278.635 59.9992 276.778" fill="#1CDBBC"/>
<path d="M291.315 256.129C289.371 254.366 287.957 252.093 287.232 249.567C287.181 249.321 287.041 249.103 286.84 248.952C286.639 248.802 286.39 248.73 286.139 248.75C285.889 248.77 285.655 248.881 285.48 249.062C285.306 249.242 285.203 249.481 285.191 249.732V251.567L285.003 253.377L284.604 257.046C284.464 258.293 284.37 259.586 284.112 260.786L283.408 264.525C283.37 264.71 283.382 264.901 283.441 265.08C283.5 265.259 283.604 265.419 283.744 265.545C283.884 265.671 284.054 265.758 284.238 265.798C284.422 265.837 284.613 265.828 284.792 265.771L288.5 264.478C289.767 264.055 290.846 263.514 292.136 262.996L295.821 261.373L297.674 260.55L299.457 259.61C299.684 259.497 299.867 259.311 299.975 259.081C300.084 258.851 300.111 258.592 300.054 258.344C299.997 258.097 299.859 257.876 299.661 257.717C299.463 257.559 299.218 257.471 298.965 257.469C296.352 257.928 293.662 257.454 291.362 256.129" fill="#1CDBBC"/>
<path d="M110.145 256.129C108.201 254.366 106.787 252.093 106.062 249.567C106.01 249.321 105.87 249.103 105.669 248.952C105.468 248.802 105.219 248.73 104.969 248.75C104.719 248.77 104.484 248.881 104.31 249.062C104.135 249.242 104.032 249.481 104.02 249.732V251.567L103.856 253.377L103.457 257.046C103.293 258.293 103.199 259.586 102.964 260.786L102.261 264.525C102.223 264.71 102.235 264.901 102.294 265.08C102.353 265.259 102.457 265.419 102.597 265.545C102.737 265.671 102.907 265.758 103.091 265.798C103.275 265.837 103.466 265.828 103.645 265.771L107.352 264.478C108.619 264.055 109.699 263.514 110.989 262.996L114.65 261.373L116.527 260.55L118.31 259.61C118.539 259.496 118.723 259.308 118.831 259.076C118.939 258.844 118.965 258.582 118.905 258.333C118.845 258.084 118.702 257.863 118.5 257.706C118.298 257.549 118.05 257.466 117.794 257.469C115.189 257.928 112.506 257.454 110.215 256.129" fill="#1CDBBC"/>
<path d="M230.046 255.87C228.102 254.107 226.688 251.834 225.963 249.309C225.886 249.085 225.736 248.894 225.537 248.766C225.339 248.638 225.104 248.58 224.869 248.602C224.634 248.624 224.413 248.724 224.241 248.886C224.07 249.048 223.957 249.263 223.922 249.497C223.922 250.743 223.922 251.849 223.687 253.142L223.311 256.835C223.077 259.351 222.584 261.75 222.115 264.29C222.075 264.477 222.086 264.672 222.146 264.853C222.206 265.035 222.313 265.198 222.456 265.324C222.599 265.451 222.773 265.537 222.961 265.575C223.148 265.612 223.342 265.599 223.523 265.536C226.009 264.729 228.452 263.795 230.844 262.738L234.504 261.115C235.724 260.55 236.991 260.01 238.141 259.351C238.396 259.26 238.609 259.079 238.74 258.841C238.87 258.603 238.908 258.325 238.847 258.061C238.786 257.796 238.63 257.563 238.409 257.407C238.188 257.25 237.917 257.18 237.648 257.211C235.036 257.676 232.343 257.201 230.046 255.87" fill="#1CDBBC"/>
<path d="M260.576 255.87C258.632 254.107 257.218 251.834 256.493 249.309C256.071 248.227 254.476 248.368 254.452 249.497C254.429 250.626 254.311 251.849 254.194 253.142L253.818 256.835C253.552 259.338 253.16 261.826 252.645 264.29C252.608 264.475 252.619 264.666 252.678 264.845C252.737 265.024 252.842 265.184 252.982 265.31C253.121 265.436 253.292 265.523 253.476 265.563C253.659 265.602 253.85 265.593 254.03 265.536C256.376 264.69 259.004 263.843 261.374 262.738L265.035 261.115C266.255 260.55 267.522 260.01 268.672 259.351C268.898 259.238 269.081 259.052 269.189 258.822C269.298 258.593 269.325 258.333 269.268 258.086C269.211 257.838 269.073 257.618 268.875 257.459C268.677 257.3 268.432 257.213 268.179 257.211C265.566 257.678 262.873 257.203 260.576 255.87Z" fill="#1CDBBC"/>
<path d="M48.8524 255.87C46.9084 254.107 45.4943 251.834 44.7696 249.309C44.3472 248.227 42.7516 248.368 42.7281 249.497C42.7047 250.626 42.5871 251.849 42.4933 253.142L42.118 256.835C41.8834 259.351 41.3906 261.75 40.9213 264.29C40.8839 264.475 40.8952 264.666 40.9543 264.845C41.0133 265.024 41.1177 265.184 41.2576 265.31C41.3975 265.436 41.5679 265.523 41.7517 265.563C41.9355 265.602 42.1264 265.593 42.3057 265.536C44.6521 264.69 47.2802 263.843 49.6501 262.738L53.3104 261.115C54.5306 260.55 55.7978 260.01 56.9476 259.351C57.1746 259.238 57.3568 259.052 57.4652 258.822C57.5735 258.593 57.6015 258.333 57.5445 258.086C57.4875 257.838 57.349 257.618 57.1512 257.459C56.9535 257.3 56.7083 257.213 56.4549 257.211C53.8423 257.678 51.1492 257.203 48.8524 255.87Z" fill="#1CDBBC"/>
<path d="M79.3822 255.87C77.4354 254.105 76.0141 251.834 75.2759 249.308C75.2085 249.078 75.0631 248.878 74.8649 248.744C74.6667 248.609 74.428 248.547 74.1895 248.569C73.951 248.592 73.7276 248.696 73.5576 248.865C73.3876 249.035 73.2816 249.258 73.2577 249.497C73.2577 250.743 73.117 251.848 72.9996 253.142L72.6244 256.834C72.4132 259.351 71.897 261.749 71.4277 264.289C71.3955 264.475 71.4111 264.666 71.4735 264.845C71.5359 265.023 71.6428 265.182 71.784 265.307C71.9252 265.432 72.0961 265.518 72.2801 265.559C72.4642 265.599 72.6553 265.591 72.8355 265.536C75.182 264.689 77.81 263.843 80.18 262.737L83.8168 261.114C85.0604 260.55 86.3277 260.009 87.4774 259.351C87.7063 259.237 87.8899 259.049 87.9979 258.817C88.1059 258.585 88.1318 258.323 88.0718 258.074C88.0118 257.825 87.8691 257.604 87.6673 257.447C87.4655 257.29 87.2167 257.207 86.9613 257.21C84.3562 257.678 81.6704 257.203 79.3822 255.87" fill="#1CDBBC"/>
<path d="M304.758 231.082C303.615 230.603 302.591 229.881 301.754 228.966C301.286 228.491 300.847 227.989 300.44 227.461C299.994 226.92 299.595 226.355 299.196 225.791C299.064 225.595 298.871 225.45 298.647 225.377C298.423 225.305 298.181 225.31 297.96 225.391C297.738 225.472 297.55 225.625 297.426 225.825C297.301 226.025 297.248 226.262 297.272 226.496C297.718 228.848 298.14 231.2 298.516 233.74C298.629 234.354 298.707 234.975 298.751 235.598L298.915 237.456L299.22 241.266C299.23 241.455 299.291 241.638 299.394 241.797C299.498 241.956 299.641 242.084 299.809 242.17C299.978 242.256 300.166 242.296 300.355 242.285C300.544 242.275 300.727 242.216 300.886 242.112L304.1 239.902L305.72 238.749C306.275 238.382 306.808 237.981 307.315 237.55C309.357 235.927 311.445 234.21 313.533 232.423C314.448 231.576 313.533 230.071 312.501 230.471C311.85 230.725 311.184 230.937 310.507 231.106C309.837 231.286 309.155 231.412 308.465 231.482C307.215 231.634 305.947 231.497 304.758 231.082" fill="#1CDBBC"/>
<path d="M123.566 231.082C122.417 230.603 121.384 229.881 120.539 228.966C120.093 228.495 119.671 228.001 119.248 227.461C118.806 226.925 118.391 226.368 118.005 225.791C117.89 225.567 117.697 225.392 117.462 225.301C117.228 225.209 116.968 225.206 116.732 225.293C116.496 225.379 116.299 225.549 116.179 225.771C116.059 225.993 116.024 226.251 116.08 226.496C116.526 228.848 116.949 231.2 117.324 233.74C117.437 234.354 117.515 234.975 117.559 235.598L117.723 237.456L118.028 241.266C118.039 241.455 118.099 241.638 118.202 241.797C118.306 241.956 118.449 242.084 118.618 242.17C118.786 242.256 118.975 242.296 119.164 242.285C119.353 242.275 119.536 242.216 119.694 242.112L122.909 239.902L124.528 238.749C125.091 238.373 125.607 237.973 126.123 237.55C128.165 235.927 130.23 234.21 132.342 232.423C133.257 231.576 132.342 230.071 131.286 230.471C130.643 230.725 129.985 230.937 129.315 231.106C128.637 231.286 127.947 231.412 127.25 231.482C126.007 231.632 124.747 231.495 123.566 231.082" fill="#1CDBBC"/>
<path d="M273.974 230.847C271.67 229.647 269.756 227.811 268.46 225.556C268.334 225.353 268.144 225.199 267.92 225.119C267.696 225.038 267.451 225.036 267.226 225.112C267 225.188 266.807 225.339 266.678 225.539C266.548 225.739 266.49 225.977 266.512 226.214C266.958 228.566 267.38 230.918 267.779 233.505C268.178 236.092 268.248 238.443 268.46 241.03C268.47 241.22 268.53 241.403 268.634 241.562C268.737 241.72 268.88 241.849 269.049 241.935C269.218 242.021 269.406 242.06 269.595 242.05C269.784 242.04 269.967 241.98 270.126 241.877C272.237 240.419 274.396 238.937 276.555 237.338C278.714 235.739 280.661 233.998 282.75 232.211C282.943 232.045 283.074 231.819 283.123 231.569C283.171 231.319 283.134 231.06 283.017 230.834C282.9 230.608 282.711 230.428 282.479 230.324C282.247 230.219 281.987 230.197 281.741 230.259C279.294 231.336 276.554 231.543 273.974 230.847" fill="#1CDBBC"/>
<path d="M243.445 230.847C241.145 229.64 239.234 227.806 237.931 225.556C237.805 225.353 237.615 225.199 237.391 225.119C237.167 225.038 236.923 225.036 236.697 225.112C236.472 225.188 236.279 225.339 236.149 225.539C236.019 225.739 235.961 225.977 235.983 226.214C236.429 228.566 236.851 230.918 237.25 233.505C237.649 236.092 237.743 238.443 237.931 241.03C237.941 241.22 238.002 241.403 238.105 241.562C238.208 241.72 238.352 241.849 238.52 241.935C238.689 242.021 238.877 242.06 239.066 242.05C239.255 242.04 239.438 241.98 239.597 241.877C241.709 240.442 243.867 238.937 246.026 237.338C248.185 235.739 250.132 233.998 252.221 232.211C252.448 232.061 252.612 231.831 252.681 231.567C252.749 231.303 252.718 231.023 252.593 230.78C252.467 230.538 252.257 230.35 252.002 230.254C251.747 230.158 251.466 230.16 251.212 230.259C248.771 231.359 246.023 231.567 243.445 230.847" fill="#1CDBBC"/>
<path d="M92.779 230.847C90.4702 229.653 88.5553 227.815 87.2649 225.556C87.1391 225.353 86.9489 225.199 86.7249 225.119C86.501 225.038 86.2563 225.036 86.0309 225.112C85.8055 225.188 85.6125 225.339 85.483 225.539C85.3534 225.739 85.2949 225.977 85.3171 226.214C85.763 228.566 86.1854 230.918 86.5608 233.505C86.9363 236.092 87.0537 238.443 87.2649 241.03C87.2754 241.22 87.3353 241.403 87.4387 241.562C87.5422 241.72 87.6856 241.849 87.8544 241.935C88.0231 242.021 88.2114 242.06 88.4003 242.05C88.5892 242.04 88.7721 241.98 88.9308 241.877C91.0426 240.419 93.2013 238.937 95.3601 237.338C97.5188 235.739 99.4429 233.998 101.531 232.211C101.748 232.058 101.903 231.832 101.967 231.575C102.031 231.317 102.001 231.045 101.881 230.808C101.761 230.571 101.56 230.385 101.315 230.284C101.07 230.183 100.797 230.175 100.546 230.259C98.0991 231.336 95.3592 231.543 92.779 230.847" fill="#1CDBBC"/>
<path d="M62.2501 230.847C59.946 229.647 58.0327 227.811 56.736 225.556C56.6102 225.353 56.42 225.199 56.1961 225.119C55.9721 225.038 55.7275 225.036 55.502 225.112C55.2766 225.188 55.0836 225.339 54.9541 225.539C54.8246 225.739 54.766 225.977 54.7883 226.214C55.2341 228.566 55.6565 230.918 56.0554 233.505C56.4543 236.092 56.5483 238.443 56.736 241.03C56.7466 241.22 56.8064 241.403 56.9099 241.562C57.0133 241.72 57.1567 241.849 57.3255 241.935C57.4942 242.021 57.6825 242.06 57.8714 242.05C58.0604 242.04 58.2433 241.98 58.4019 241.877C60.5137 240.442 62.6724 238.937 64.8312 237.338C66.9899 235.739 68.9375 233.998 71.0259 232.211C71.2532 232.061 71.417 231.831 71.4856 231.567C71.5542 231.303 71.5227 231.023 71.3974 230.78C71.2721 230.538 71.062 230.35 70.8071 230.254C70.5522 230.158 70.2705 230.16 70.0168 230.259C67.5754 231.357 64.8283 231.565 62.2501 230.847" fill="#1CDBBC"/>
<path d="M311.377 203.449C308.84 202.901 306.517 201.626 304.689 199.78C303.821 199.027 302.343 199.921 302.953 200.909L304.548 204.225C305.065 205.33 305.628 206.577 306.027 207.611C306.918 209.963 307.833 212.315 308.678 214.667C308.735 214.849 308.839 215.012 308.98 215.14C309.12 215.269 309.292 215.358 309.478 215.398C309.663 215.439 309.857 215.43 310.038 215.371C310.219 215.313 310.381 215.208 310.508 215.067C312.198 213.138 313.817 211.116 315.506 209.023C316.343 207.989 317.126 206.914 317.853 205.801L320.199 202.461C320.363 202.257 320.449 202 320.442 201.738C320.434 201.476 320.334 201.225 320.16 201.03C319.985 200.835 319.747 200.709 319.487 200.674C319.228 200.639 318.965 200.697 318.744 200.838C316.665 202.517 314.07 203.422 311.4 203.402" fill="#1CDBBC"/>
<path d="M130.181 203.449C127.645 202.901 125.322 201.626 123.494 199.78C122.626 199.027 121.147 199.921 121.758 200.909L123.33 204.225C123.869 205.33 124.409 206.577 124.832 207.611C125.723 209.963 126.638 212.315 127.483 214.667C127.54 214.849 127.644 215.012 127.785 215.14C127.925 215.269 128.097 215.358 128.283 215.398C128.468 215.439 128.661 215.43 128.842 215.371C129.023 215.313 129.186 215.208 129.313 215.067C130.979 213.138 132.622 211.116 134.311 209.023C135.179 207.988 135.907 206.906 136.658 205.801L139.004 202.461C139.168 202.257 139.254 202 139.246 201.738C139.239 201.476 139.139 201.225 138.965 201.03C138.79 200.835 138.551 200.709 138.292 200.674C138.033 200.639 137.77 200.697 137.549 200.838C135.463 202.505 132.873 203.409 130.205 203.402" fill="#1CDBBC"/>
<path d="M250.226 203.19C247.688 202.604 245.369 201.307 243.539 199.45C242.67 198.674 241.192 199.592 241.802 200.579C242.934 202.764 243.945 205.009 244.829 207.305L246.167 210.81C246.612 212.009 247.105 213.161 247.434 214.408C247.484 214.591 247.583 214.758 247.72 214.89C247.857 215.022 248.027 215.115 248.211 215.158C248.396 215.201 248.59 215.194 248.771 215.136C248.952 215.079 249.114 214.973 249.24 214.831C250.179 213.89 250.977 212.879 251.798 211.891L254.285 208.811C256.022 206.741 257.476 204.554 258.978 202.296C259.142 202.092 259.228 201.835 259.221 201.573C259.213 201.311 259.114 201.06 258.939 200.865C258.764 200.67 258.525 200.544 258.266 200.509C258.007 200.474 257.744 200.532 257.523 200.673C255.44 202.34 252.844 203.23 250.179 203.19" fill="#1CDBBC"/>
<path d="M69.0343 203.19C66.4964 202.604 64.1771 201.307 62.347 199.45C61.4788 198.674 60.0005 199.592 60.6106 200.579C61.7427 202.764 62.753 205.009 63.6373 207.305L64.975 210.81C65.4208 212.009 65.8899 213.161 66.2184 214.408C66.2727 214.591 66.3749 214.757 66.514 214.888C66.6531 215.019 66.8246 215.111 67.0107 215.154C67.1968 215.197 67.3908 215.19 67.5732 215.133C67.7556 215.076 67.9196 214.972 68.0487 214.831C68.9873 213.89 69.7616 212.879 70.6063 211.891L73.0937 208.811C74.8301 206.741 76.2614 204.554 77.7866 202.296C77.9395 202.093 78.0174 201.842 78.0074 201.588C77.9975 201.333 77.9002 201.09 77.7319 200.899C77.5635 200.708 77.3345 200.582 77.0837 200.54C76.8329 200.499 76.5756 200.546 76.3553 200.673C74.2703 202.337 71.6754 203.226 69.0108 203.19" fill="#1CDBBC"/>
<path d="M280.755 203.19C278.217 202.605 275.898 201.308 274.067 199.451C273.199 198.674 271.721 199.568 272.331 200.579C273.364 202.743 274.513 205.001 275.358 207.306L276.695 210.81C277.141 211.986 277.611 213.162 277.939 214.408C277.993 214.591 278.095 214.757 278.234 214.888C278.374 215.019 278.545 215.111 278.731 215.154C278.917 215.197 279.111 215.19 279.294 215.133C279.476 215.077 279.64 214.972 279.769 214.831C280.708 213.891 281.482 212.879 282.327 211.892L284.814 208.811C286.551 206.741 287.982 204.554 289.507 202.296C290.211 201.238 289.085 199.944 288.076 200.673C285.991 202.337 283.396 203.226 280.731 203.19" fill="#1CDBBC"/>
<path d="M99.5389 203.19C97.0051 202.594 94.6886 201.298 92.8515 199.451C92.0068 198.674 90.6456 199.568 91.1383 200.579C92.1708 202.743 93.3206 205.001 94.1654 207.306L95.503 210.81C95.9489 211.986 96.4179 213.162 96.7464 214.408C96.8008 214.591 96.9029 214.757 97.042 214.888C97.1812 215.019 97.3526 215.111 97.5387 215.154C97.7248 215.197 97.9189 215.19 98.1013 215.133C98.2837 215.077 98.4477 214.972 98.5767 214.831C99.4919 213.891 100.29 212.879 101.134 211.892L103.622 208.811C105.358 206.741 106.789 204.554 108.315 202.296C108.478 202.092 108.564 201.836 108.557 201.574C108.55 201.312 108.45 201.061 108.275 200.866C108.1 200.671 107.862 200.544 107.603 200.509C107.343 200.474 107.08 200.532 106.86 200.673C104.777 202.34 102.181 203.23 99.5154 203.19" fill="#1CDBBC"/>
<path d="M312.08 174.968C309.46 174.693 306.994 173.59 305.041 171.817C304.845 171.651 304.598 171.561 304.342 171.562C304.086 171.563 303.838 171.655 303.644 171.822C303.449 171.988 303.32 172.219 303.28 172.472C303.239 172.726 303.29 172.985 303.422 173.204L311.142 186.563C311.236 186.729 311.373 186.867 311.537 186.963C311.702 187.06 311.89 187.11 312.08 187.11C312.271 187.11 312.459 187.06 312.624 186.963C312.788 186.867 312.925 186.729 313.019 186.563L320.716 173.204C320.836 172.987 320.878 172.736 320.835 172.491C320.792 172.247 320.666 172.024 320.479 171.862C320.292 171.699 320.055 171.606 319.808 171.598C319.56 171.59 319.317 171.667 319.12 171.817C317.164 173.585 314.7 174.689 312.08 174.968" fill="#1CDBBC"/>
<path d="M130.885 174.968C128.264 174.697 125.797 173.592 123.846 171.817C123.65 171.651 123.402 171.561 123.147 171.562C122.891 171.563 122.643 171.655 122.448 171.822C122.254 171.988 122.125 172.219 122.084 172.472C122.044 172.726 122.094 172.985 122.227 173.204L129.947 186.563C130.041 186.729 130.177 186.867 130.342 186.963C130.507 187.06 130.695 187.11 130.885 187.11C131.076 187.11 131.264 187.06 131.428 186.963C131.593 186.867 131.73 186.729 131.824 186.563L139.521 173.204C139.641 172.987 139.683 172.736 139.64 172.491C139.597 172.247 139.471 172.024 139.284 171.862C139.097 171.699 138.86 171.606 138.613 171.598C138.365 171.59 138.122 171.667 137.925 171.817C135.969 173.585 133.505 174.689 130.885 174.968" fill="#1CDBBC"/>
<path d="M251.023 174.827C248.409 174.546 245.947 173.453 243.984 171.699C243.787 171.549 243.544 171.472 243.296 171.48C243.049 171.489 242.812 171.582 242.625 171.744C242.438 171.907 242.312 172.129 242.269 172.374C242.226 172.618 242.268 172.87 242.389 173.087L250.108 186.445C250.204 186.606 250.34 186.739 250.502 186.832C250.665 186.924 250.848 186.973 251.035 186.973C251.222 186.973 251.406 186.924 251.568 186.832C251.731 186.739 251.866 186.606 251.962 186.445L259.682 173.087C259.802 172.87 259.844 172.618 259.801 172.374C259.759 172.129 259.633 171.907 259.446 171.744C259.259 171.582 259.022 171.489 258.774 171.48C258.527 171.472 258.284 171.549 258.086 171.699C256.123 173.453 253.662 174.546 251.047 174.827" fill="#1CDBBC"/>
<path d="M281.552 174.827C278.936 174.551 276.473 173.457 274.512 171.699C274.317 171.534 274.069 171.444 273.813 171.445C273.557 171.445 273.309 171.537 273.115 171.704C272.92 171.871 272.791 172.101 272.751 172.355C272.71 172.608 272.761 172.868 272.893 173.087L280.613 186.422C280.707 186.588 280.844 186.726 281.009 186.822C281.174 186.919 281.361 186.969 281.552 186.969C281.742 186.969 281.93 186.919 282.095 186.822C282.26 186.726 282.396 186.588 282.49 186.422L290.187 173.087C290.307 172.87 290.349 172.618 290.306 172.374C290.263 172.129 290.138 171.907 289.951 171.744C289.764 171.582 289.526 171.489 289.279 171.48C289.031 171.472 288.788 171.549 288.591 171.699C286.628 173.453 284.166 174.546 281.552 174.827" fill="#1CDBBC"/>
<path d="M100.357 174.827C97.7394 174.556 95.2753 173.461 93.3172 171.699C93.1215 171.534 92.8737 171.444 92.6177 171.445C92.3617 171.445 92.1142 171.537 91.9196 171.704C91.7251 171.871 91.5962 172.101 91.5556 172.355C91.515 172.608 91.5656 172.868 91.6982 173.087L99.4179 186.422C99.5121 186.588 99.6486 186.726 99.8135 186.822C99.9784 186.919 100.166 186.969 100.357 186.969C100.547 186.969 100.735 186.919 100.9 186.822C101.065 186.726 101.201 186.588 101.295 186.422L108.992 173.087C109.112 172.87 109.154 172.618 109.111 172.374C109.068 172.129 108.942 171.907 108.755 171.744C108.568 171.582 108.331 171.489 108.084 171.48C107.836 171.472 107.593 171.549 107.396 171.699C105.433 173.453 102.971 174.546 100.357 174.827" fill="#1CDBBC"/>
<path d="M69.8321 174.827C67.2174 174.546 64.756 173.453 62.7927 171.699C62.5953 171.549 62.3525 171.472 62.1049 171.48C61.8574 171.489 61.6203 171.582 61.4333 171.744C61.2462 171.907 61.1205 172.129 61.0775 172.374C61.0345 172.618 61.0769 172.87 61.1972 173.087L68.8934 186.445C68.9922 186.606 69.1304 186.738 69.2947 186.83C69.459 186.922 69.6439 186.97 69.8321 186.97C70.0202 186.97 70.2051 186.922 70.3694 186.83C70.5337 186.738 70.6719 186.606 70.7707 186.445L78.4907 173.087C78.6233 172.868 78.6736 172.608 78.633 172.355C78.5924 172.101 78.4635 171.871 78.269 171.704C78.0744 171.537 77.8269 171.445 77.5709 171.445C77.315 171.444 77.0671 171.534 76.8715 171.699C74.9107 173.457 72.4479 174.551 69.8321 174.827" fill="#1CDBBC"/>
<path d="M312.08 146.488C309.46 146.213 306.994 145.109 305.041 143.336C304.845 143.171 304.598 143.081 304.342 143.082C304.086 143.082 303.838 143.174 303.644 143.341C303.449 143.508 303.32 143.738 303.28 143.992C303.239 144.245 303.29 144.505 303.422 144.724L311.142 158.082C311.236 158.248 311.373 158.387 311.537 158.483C311.702 158.579 311.89 158.63 312.08 158.63C312.271 158.63 312.459 158.579 312.624 158.483C312.788 158.387 312.925 158.248 313.019 158.082L320.716 144.724C320.836 144.507 320.878 144.255 320.835 144.011C320.792 143.766 320.666 143.544 320.479 143.381C320.292 143.219 320.055 143.125 319.808 143.117C319.56 143.109 319.317 143.186 319.12 143.336C317.164 145.105 314.7 146.208 312.08 146.488" fill="#1CDBBC"/>
<path d="M130.885 146.488C128.264 146.216 125.797 145.112 123.846 143.336C123.65 143.171 123.402 143.081 123.147 143.082C122.891 143.082 122.643 143.174 122.448 143.341C122.254 143.508 122.125 143.738 122.084 143.992C122.044 144.245 122.094 144.505 122.227 144.724L129.947 158.082C130.041 158.248 130.177 158.387 130.342 158.483C130.507 158.579 130.695 158.63 130.885 158.63C131.076 158.63 131.264 158.579 131.428 158.483C131.593 158.387 131.73 158.248 131.824 158.082L139.521 144.724C139.641 144.507 139.683 144.255 139.64 144.011C139.597 143.766 139.471 143.544 139.284 143.381C139.097 143.219 138.86 143.125 138.613 143.117C138.365 143.109 138.122 143.186 137.925 143.336C135.969 145.105 133.505 146.208 130.885 146.488" fill="#1CDBBC"/>
<path d="M251.023 146.37C248.407 146.08 245.946 144.978 243.984 143.219C243.787 143.069 243.544 142.992 243.296 143C243.049 143.008 242.812 143.101 242.625 143.264C242.438 143.427 242.312 143.649 242.269 143.893C242.226 144.138 242.268 144.39 242.389 144.607L250.108 157.965C250.204 158.126 250.34 158.259 250.502 158.351C250.665 158.444 250.848 158.492 251.035 158.492C251.222 158.492 251.406 158.444 251.568 158.351C251.731 158.259 251.866 158.126 251.962 157.965L259.682 144.607C259.802 144.39 259.844 144.138 259.801 143.893C259.759 143.649 259.633 143.427 259.446 143.264C259.259 143.101 259.022 143.008 258.774 143C258.527 142.992 258.284 143.069 258.086 143.219C256.124 144.978 253.663 146.08 251.047 146.37" fill="#1CDBBC"/>
<path d="M281.552 146.347C278.936 146.071 276.473 144.976 274.512 143.219C274.317 143.054 274.069 142.963 273.813 142.964C273.557 142.965 273.309 143.057 273.115 143.224C272.92 143.39 272.791 143.621 272.751 143.874C272.71 144.128 272.761 144.387 272.893 144.607L280.613 157.965C280.712 158.125 280.85 158.258 281.014 158.35C281.178 158.441 281.363 158.49 281.552 158.49C281.74 158.49 281.925 158.441 282.089 158.35C282.253 158.258 282.391 158.125 282.49 157.965L290.187 144.607C290.307 144.39 290.349 144.138 290.306 143.893C290.263 143.649 290.138 143.427 289.951 143.264C289.764 143.101 289.526 143.008 289.279 143C289.031 142.992 288.788 143.069 288.591 143.219C286.628 144.972 284.166 146.066 281.552 146.347" fill="#1CDBBC"/>
<path d="M100.357 146.347C97.7394 146.075 95.2753 144.98 93.3172 143.219C93.1215 143.054 92.8737 142.963 92.6177 142.964C92.3617 142.965 92.1142 143.057 91.9196 143.224C91.7251 143.39 91.5962 143.621 91.5556 143.874C91.515 144.128 91.5656 144.387 91.6982 144.607L99.4179 157.965C99.5167 158.125 99.6549 158.258 99.8192 158.35C99.9835 158.441 100.168 158.49 100.357 158.49C100.545 158.49 100.73 158.441 100.894 158.35C101.058 158.258 101.196 158.125 101.295 157.965L108.992 144.607C109.112 144.39 109.154 144.138 109.111 143.893C109.068 143.649 108.942 143.427 108.755 143.264C108.568 143.101 108.331 143.008 108.084 143C107.836 142.992 107.593 143.069 107.396 143.219C105.433 144.972 102.971 146.066 100.357 146.347" fill="#1CDBBC"/>
<path d="M69.8321 146.37C67.2156 146.08 64.7547 144.978 62.7927 143.219C62.5953 143.069 62.3525 142.992 62.1049 143C61.8574 143.008 61.6203 143.101 61.4333 143.264C61.2462 143.427 61.1205 143.649 61.0775 143.893C61.0345 144.138 61.0769 144.39 61.1972 144.607L68.8934 157.965C68.9922 158.125 69.1304 158.258 69.2947 158.35C69.459 158.441 69.6439 158.49 69.8321 158.49C70.0202 158.49 70.2051 158.441 70.3694 158.35C70.5337 158.258 70.6719 158.125 70.7707 157.965L78.4907 144.607C78.6233 144.387 78.6736 144.128 78.633 143.874C78.5924 143.621 78.4635 143.39 78.269 143.224C78.0744 143.057 77.8269 142.965 77.5709 142.964C77.315 142.963 77.0671 143.054 76.8715 143.219C74.912 144.982 72.4498 146.084 69.8321 146.37" fill="#1CDBBC"/>
<path d="M312.08 117.984C309.46 117.709 306.994 116.606 305.041 114.833C304.845 114.668 304.598 114.577 304.342 114.578C304.086 114.579 303.838 114.671 303.644 114.838C303.449 115.004 303.32 115.235 303.28 115.488C303.239 115.742 303.29 116.001 303.422 116.221L311.142 129.579C311.236 129.745 311.373 129.883 311.537 129.98C311.702 130.076 311.89 130.126 312.08 130.126C312.271 130.126 312.459 130.076 312.624 129.98C312.788 129.883 312.925 129.745 313.019 129.579L320.716 116.221C320.836 116.004 320.878 115.752 320.835 115.507C320.792 115.263 320.666 115.041 320.479 114.878C320.292 114.715 320.055 114.622 319.808 114.614C319.56 114.606 319.317 114.683 319.12 114.833C317.164 116.602 314.7 117.705 312.08 117.984" fill="#1CDBBC"/>
<path d="M130.885 117.984C128.264 117.713 125.797 116.608 123.846 114.833C123.65 114.668 123.402 114.577 123.147 114.578C122.891 114.579 122.643 114.671 122.448 114.838C122.254 115.004 122.125 115.235 122.084 115.488C122.044 115.742 122.094 116.001 122.227 116.221L129.947 129.579C130.041 129.745 130.177 129.883 130.342 129.98C130.507 130.076 130.695 130.126 130.885 130.126C131.076 130.126 131.264 130.076 131.428 129.98C131.593 129.883 131.73 129.745 131.824 129.579L139.521 116.221C139.641 116.004 139.683 115.752 139.64 115.507C139.597 115.263 139.471 115.041 139.284 114.878C139.097 114.715 138.86 114.622 138.613 114.614C138.365 114.606 138.122 114.683 137.925 114.833C135.969 116.602 133.505 117.705 130.885 117.984" fill="#1CDBBC"/>
<path d="M220.498 117.937C217.882 117.647 215.421 116.545 213.459 114.786C213.261 114.636 213.019 114.558 212.771 114.567C212.524 114.575 212.286 114.668 212.099 114.831C211.912 114.993 211.787 115.216 211.744 115.46C211.701 115.704 211.743 115.956 211.863 116.173L219.583 129.531C219.679 129.692 219.815 129.825 219.977 129.918C220.139 130.01 220.323 130.059 220.51 130.059C220.697 130.059 220.88 130.01 221.043 129.918C221.205 129.825 221.341 129.692 221.437 129.531L229.157 116.173C229.277 115.956 229.319 115.704 229.276 115.46C229.233 115.216 229.108 114.993 228.921 114.831C228.734 114.668 228.496 114.575 228.249 114.567C228.001 114.558 227.758 114.636 227.561 114.786C225.599 116.545 223.138 117.647 220.522 117.937" fill="#1CDBBC"/>
<path d="M8.79838 117.937C6.18186 117.647 3.72103 116.545 1.75898 114.786C1.56163 114.636 1.31879 114.558 1.07126 114.567C0.823724 114.575 0.586635 114.668 0.399568 114.831C0.212501 114.993 0.0868072 115.216 0.0438172 115.46C0.000827243 115.704 0.0432439 115.956 0.163547 116.173L7.88322 129.531C7.97897 129.692 8.11489 129.825 8.27736 129.918C8.43982 130.01 8.6233 130.059 8.81012 130.059C8.99694 130.059 9.18071 130.01 9.34318 129.918C9.50564 129.825 9.64128 129.692 9.73702 129.531L17.457 116.173C17.5773 115.956 17.6194 115.704 17.5764 115.46C17.5334 115.216 17.4077 114.993 17.2207 114.831C17.0336 114.668 16.7965 114.575 16.549 114.567C16.3015 114.558 16.0586 114.636 15.8613 114.786C13.8992 116.545 11.4384 117.647 8.82187 117.937" fill="#1CDBBC"/>
<path d="M189.993 117.937C187.374 117.656 184.91 116.553 182.953 114.786C182.757 114.62 182.51 114.53 182.254 114.531C181.998 114.532 181.75 114.624 181.556 114.79C181.361 114.957 181.232 115.188 181.192 115.441C181.151 115.694 181.202 115.954 181.334 116.173L189.054 129.531C189.153 129.692 189.291 129.824 189.455 129.916C189.619 130.008 189.804 130.056 189.993 130.056C190.181 130.056 190.366 130.008 190.53 129.916C190.694 129.824 190.832 129.692 190.931 129.531L198.628 116.173C198.748 115.956 198.79 115.704 198.747 115.46C198.704 115.215 198.579 114.993 198.392 114.831C198.205 114.668 197.967 114.575 197.72 114.566C197.472 114.558 197.229 114.636 197.032 114.786C195.07 116.545 192.609 117.646 189.993 117.937" fill="#1CDBBC"/>
<path d="M39.3033 117.937C36.6867 117.647 34.2259 116.545 32.2639 114.786C32.0665 114.636 31.8237 114.559 31.5761 114.567C31.3286 114.575 31.0915 114.668 30.9045 114.831C30.7174 114.994 30.5917 115.216 30.5487 115.46C30.5057 115.705 30.5481 115.956 30.6684 116.173L38.3646 129.532C38.4634 129.692 38.6016 129.825 38.7659 129.917C38.9302 130.008 39.1151 130.057 39.3033 130.057C39.4914 130.057 39.6763 130.008 39.8406 129.917C40.0049 129.825 40.1431 129.692 40.2419 129.532L47.9619 116.173C48.0945 115.954 48.1448 115.695 48.1042 115.441C48.0636 115.188 47.9347 114.957 47.7402 114.791C47.5456 114.624 47.2984 114.532 47.0424 114.531C46.7865 114.53 46.5383 114.62 46.3427 114.786C44.3832 116.549 41.921 117.651 39.3033 117.937Z" fill="#1CDBBC"/>
<path d="M251.023 117.89C248.407 117.6 245.946 116.498 243.984 114.739C243.787 114.589 243.544 114.512 243.296 114.52C243.049 114.528 242.812 114.621 242.625 114.784C242.438 114.947 242.312 115.169 242.269 115.413C242.226 115.658 242.268 115.91 242.389 116.127L250.108 129.485C250.204 129.646 250.34 129.779 250.502 129.871C250.665 129.964 250.848 130.012 251.035 130.012C251.222 130.012 251.406 129.964 251.568 129.871C251.731 129.779 251.866 129.646 251.962 129.485L259.682 116.127C259.802 115.91 259.844 115.658 259.801 115.413C259.759 115.169 259.633 114.947 259.446 114.784C259.259 114.621 259.022 114.528 258.774 114.52C258.527 114.512 258.284 114.589 258.086 114.739C256.124 116.498 253.663 117.6 251.047 117.89" fill="#1CDBBC"/>
<path d="M281.552 117.89C278.934 117.604 276.472 116.502 274.512 114.739C274.317 114.574 274.069 114.483 273.813 114.484C273.557 114.485 273.309 114.577 273.115 114.744C272.92 114.91 272.791 115.141 272.751 115.394C272.71 115.648 272.761 115.907 272.893 116.127L280.613 129.485C280.712 129.645 280.85 129.778 281.014 129.87C281.178 129.962 281.363 130.01 281.552 130.01C281.74 130.01 281.925 129.962 282.089 129.87C282.253 129.778 282.391 129.645 282.49 129.485L290.187 116.127C290.307 115.91 290.349 115.658 290.306 115.413C290.263 115.169 290.138 114.947 289.951 114.784C289.764 114.621 289.526 114.528 289.279 114.52C289.031 114.512 288.788 114.589 288.591 114.739C286.629 116.498 284.168 117.6 281.552 117.89" fill="#1CDBBC"/>
<path d="M100.357 117.89C97.7375 117.609 95.274 116.506 93.3172 114.739C93.1215 114.574 92.8737 114.483 92.6177 114.484C92.3617 114.485 92.1142 114.577 91.9196 114.744C91.7251 114.91 91.5962 115.141 91.5556 115.394C91.515 115.648 91.5656 115.907 91.6982 116.127L99.4179 129.485C99.5167 129.645 99.6549 129.778 99.8192 129.87C99.9835 129.962 100.168 130.01 100.357 130.01C100.545 130.01 100.73 129.962 100.894 129.87C101.058 129.778 101.196 129.645 101.295 129.485L108.992 116.127C109.112 115.91 109.154 115.658 109.111 115.413C109.068 115.169 108.942 114.947 108.755 114.784C108.568 114.621 108.331 114.528 108.084 114.52C107.836 114.512 107.593 114.589 107.396 114.739C105.434 116.498 102.973 117.6 100.357 117.89" fill="#1CDBBC"/>
<path d="M69.8321 117.89C67.2156 117.6 64.7547 116.498 62.7927 114.739C62.5953 114.589 62.3525 114.512 62.1049 114.52C61.8574 114.528 61.6203 114.621 61.4333 114.784C61.2462 114.947 61.1205 115.169 61.0775 115.413C61.0345 115.658 61.0769 115.91 61.1972 116.127L68.8934 129.485C68.9922 129.645 69.1304 129.778 69.2947 129.87C69.459 129.962 69.6439 130.01 69.8321 130.01C70.0202 130.01 70.2051 129.962 70.3694 129.87C70.5337 129.778 70.6719 129.645 70.7707 129.485L78.4907 116.127C78.6233 115.907 78.6736 115.648 78.633 115.394C78.5924 115.141 78.4635 114.91 78.269 114.744C78.0744 114.577 77.8269 114.485 77.5709 114.484C77.315 114.483 77.0671 114.574 76.8715 114.739C74.912 116.502 72.4498 117.604 69.8321 117.89" fill="#1CDBBC"/>
<path d="M220.498 89.9744C217.882 89.6839 215.421 88.5822 213.459 86.823C213.261 86.6731 213.019 86.5957 212.771 86.6039C212.524 86.612 212.286 86.7053 212.099 86.868C211.912 87.0307 211.787 87.2529 211.744 87.4973C211.701 87.7418 211.743 87.9936 211.863 88.2106L219.583 101.569C219.679 101.73 219.815 101.863 219.977 101.955C220.139 102.048 220.323 102.096 220.51 102.096C220.697 102.096 220.88 102.048 221.043 101.955C221.205 101.863 221.341 101.73 221.437 101.569L229.157 88.2106C229.277 87.9936 229.319 87.7418 229.276 87.4973C229.233 87.2529 229.108 87.0307 228.921 86.868C228.734 86.7053 228.496 86.612 228.249 86.6039C228.001 86.5957 227.758 86.6731 227.561 86.823C225.599 88.5822 223.138 89.6839 220.522 89.9744" fill="#1CDBBC"/>
<path d="M8.79838 89.9744C6.18186 89.6839 3.72103 88.5822 1.75898 86.823C1.56163 86.6731 1.31879 86.5957 1.07126 86.6039C0.823724 86.612 0.586635 86.7053 0.399568 86.868C0.212501 87.0307 0.0868072 87.2529 0.0438172 87.4973C0.000827243 87.7418 0.0432439 87.9936 0.163547 88.2106L7.88322 101.569C7.97897 101.73 8.11489 101.863 8.27736 101.955C8.43982 102.048 8.6233 102.096 8.81012 102.096C8.99694 102.096 9.18071 102.048 9.34318 101.955C9.50564 101.863 9.64128 101.73 9.73702 101.569L17.457 88.2106C17.5773 87.9936 17.6194 87.7418 17.5764 87.4973C17.5334 87.2529 17.4077 87.0307 17.2207 86.868C17.0336 86.7053 16.7965 86.612 16.549 86.6039C16.3015 86.5957 16.0586 86.6731 15.8613 86.823C13.8992 88.5822 11.4384 89.6839 8.82187 89.9744" fill="#1CDBBC"/>
<path d="M189.993 89.9744C187.374 89.6931 184.91 88.5902 182.953 86.823C182.757 86.6576 182.51 86.5673 182.254 86.5681C181.998 86.569 181.75 86.661 181.556 86.8277C181.361 86.9944 181.232 87.225 181.192 87.4783C181.151 87.7316 181.202 87.9912 181.334 88.2106L189.054 101.569C189.153 101.729 189.291 101.862 189.455 101.954C189.619 102.046 189.804 102.094 189.993 102.094C190.181 102.094 190.366 102.046 190.53 101.954C190.694 101.862 190.832 101.729 190.931 101.569L198.628 88.2106C198.748 87.9936 198.79 87.7418 198.747 87.4973C198.704 87.2528 198.579 87.0306 198.392 86.8679C198.205 86.7053 197.967 86.612 197.72 86.6038C197.472 86.5956 197.229 86.673 197.032 86.823C195.07 88.5822 192.609 89.6838 189.993 89.9744" fill="#1CDBBC"/>
<path d="M39.3033 89.9744C36.6867 89.6838 34.2259 88.5822 32.2639 86.823C32.0665 86.673 31.8237 86.5956 31.5761 86.6038C31.3286 86.612 31.0915 86.7053 30.9045 86.8679C30.7174 87.0306 30.5917 87.2528 30.5487 87.4973C30.5057 87.7418 30.5481 87.9936 30.6684 88.2106L38.3646 101.569C38.4634 101.729 38.6016 101.862 38.7659 101.954C38.9302 102.046 39.1151 102.094 39.3033 102.094C39.4914 102.094 39.6763 102.046 39.8406 101.954C40.0049 101.862 40.1431 101.729 40.2419 101.569L47.9619 88.2106C48.0945 87.9912 48.1448 87.7316 48.1042 87.4783C48.0636 87.225 47.9347 86.9944 47.7402 86.8277C47.5456 86.661 47.2984 86.569 47.0424 86.5681C46.7865 86.5673 46.5383 86.6576 46.3427 86.823C44.3832 88.5862 41.921 89.6884 39.3033 89.9744Z" fill="#1CDBBC"/>
<path d="M312.08 89.4804C309.465 89.2042 307.002 88.1099 305.041 86.3526C304.845 86.1871 304.598 86.0968 304.342 86.0977C304.086 86.0985 303.838 86.1905 303.644 86.3573C303.449 86.524 303.32 86.7546 303.28 87.0079C303.239 87.2612 303.29 87.5207 303.422 87.7401L311.142 101.075C311.236 101.241 311.373 101.379 311.537 101.476C311.702 101.572 311.89 101.622 312.08 101.622C312.271 101.622 312.459 101.572 312.624 101.476C312.788 101.379 312.925 101.241 313.019 101.075L320.716 87.7401C320.836 87.5231 320.878 87.2713 320.835 87.0268C320.792 86.7824 320.666 86.5602 320.479 86.3975C320.292 86.2348 320.055 86.1416 319.808 86.1334C319.56 86.1252 319.317 86.2026 319.12 86.3526C317.157 88.1058 314.695 89.1995 312.08 89.4804Z" fill="#1CDBBC"/>
<path d="M130.885 89.4804C128.268 89.2089 125.804 88.114 123.846 86.3526C123.65 86.1871 123.402 86.0968 123.147 86.0977C122.891 86.0985 122.643 86.1905 122.448 86.3573C122.254 86.524 122.125 86.7546 122.084 87.0079C122.044 87.2612 122.094 87.5207 122.227 87.7401L129.947 101.075C130.041 101.241 130.177 101.379 130.342 101.476C130.507 101.572 130.695 101.622 130.885 101.622C131.076 101.622 131.264 101.572 131.428 101.476C131.593 101.379 131.73 101.241 131.824 101.075L139.521 87.7401C139.641 87.5231 139.683 87.2713 139.64 87.0268C139.597 86.7824 139.471 86.5602 139.284 86.3975C139.097 86.2348 138.86 86.1416 138.613 86.1334C138.365 86.1252 138.122 86.2026 137.925 86.3526C135.961 88.1058 133.5 89.1995 130.885 89.4804Z" fill="#1CDBBC"/>
<path d="M251.023 89.41C248.404 89.1302 245.94 88.0272 243.984 86.2586C243.787 86.1086 243.544 86.0312 243.296 86.0394C243.049 86.0476 242.812 86.1408 242.625 86.3035C242.438 86.4662 242.312 86.6884 242.269 86.9329C242.226 87.1773 242.268 87.4291 242.389 87.6461L250.108 101.004C250.204 101.165 250.34 101.298 250.502 101.391C250.665 101.483 250.848 101.532 251.035 101.532C251.222 101.532 251.406 101.483 251.568 101.391C251.731 101.298 251.866 101.165 251.962 101.004L259.682 87.6461C259.802 87.4291 259.844 87.1773 259.801 86.9329C259.759 86.6884 259.633 86.4662 259.446 86.3035C259.259 86.1408 259.022 86.0476 258.774 86.0394C258.527 86.0312 258.284 86.1086 258.086 86.2586C256.13 88.0272 253.666 89.1302 251.047 89.41" fill="#1CDBBC"/>
<path d="M281.552 89.4099C278.931 89.135 276.465 88.0312 274.512 86.2585C274.317 86.0931 274.069 86.0028 273.813 86.0037C273.557 86.0045 273.309 86.0965 273.115 86.2633C272.92 86.43 272.791 86.6606 272.751 86.9139C272.71 87.1672 272.761 87.4267 272.893 87.6461L280.613 101.004C280.712 101.165 280.85 101.297 281.014 101.389C281.178 101.481 281.363 101.529 281.552 101.529C281.74 101.529 281.925 101.481 282.089 101.389C282.253 101.297 282.391 101.165 282.49 101.004L290.187 87.6461C290.307 87.4291 290.349 87.1773 290.306 86.9328C290.263 86.6884 290.138 86.4661 289.951 86.3035C289.764 86.1408 289.526 86.0476 289.279 86.0394C289.031 86.0312 288.788 86.1086 288.591 86.2585C286.635 88.0271 284.171 89.1302 281.552 89.4099" fill="#1CDBBC"/>
<path d="M100.357 89.4099C97.735 89.1382 95.2686 88.034 93.3172 86.2585C93.1215 86.0931 92.8737 86.0028 92.6177 86.0037C92.3617 86.0045 92.1142 86.0965 91.9196 86.2633C91.7251 86.43 91.5962 86.6606 91.5556 86.9139C91.515 87.1672 91.5656 87.4267 91.6982 87.6461L99.4179 101.004C99.5167 101.165 99.6549 101.297 99.8192 101.389C99.9835 101.481 100.168 101.529 100.357 101.529C100.545 101.529 100.73 101.481 100.894 101.389C101.058 101.297 101.196 101.165 101.295 101.004L108.992 87.6461C109.112 87.4291 109.154 87.1773 109.111 86.9328C109.068 86.6884 108.942 86.4661 108.755 86.3035C108.568 86.1408 108.331 86.0476 108.084 86.0394C107.836 86.0312 107.593 86.1086 107.396 86.2585C105.44 88.0271 102.976 89.1302 100.357 89.4099" fill="#1CDBBC"/>
<path d="M69.8321 89.4099C67.2126 89.1302 64.7486 88.0271 62.7927 86.2585C62.5953 86.1086 62.3525 86.0312 62.1049 86.0394C61.8574 86.0476 61.6203 86.1408 61.4333 86.3035C61.2462 86.4661 61.1205 86.6884 61.0775 86.9328C61.0345 87.1773 61.0769 87.4291 61.1972 87.6461L68.8934 101.004C68.9922 101.165 69.1304 101.297 69.2947 101.389C69.459 101.481 69.6439 101.529 69.8321 101.529C70.0202 101.529 70.2051 101.481 70.3694 101.389C70.5337 101.297 70.6719 101.165 70.7707 101.004L78.4907 87.6461C78.6233 87.4267 78.6736 87.1672 78.633 86.9139C78.5924 86.6606 78.4635 86.43 78.269 86.2633C78.0744 86.0965 77.8269 86.0045 77.5709 86.0037C77.315 86.0028 77.0671 86.0931 76.8715 86.2585C74.9182 88.0312 72.4528 89.135 69.8321 89.4099Z" fill="#1CDBBC"/>
<path d="M220.498 62.0821C217.882 61.7915 215.421 60.6899 213.459 58.9307C213.261 58.7807 213.019 58.7033 212.771 58.7115C212.524 58.7197 212.286 58.813 212.099 58.9756C211.912 59.1383 211.787 59.3605 211.744 59.605C211.701 59.8495 211.743 60.1013 211.863 60.3183L219.583 73.6765C219.679 73.8373 219.815 73.9704 219.977 74.0628C220.139 74.1553 220.323 74.2039 220.51 74.2039C220.697 74.2039 220.88 74.1553 221.043 74.0628C221.205 73.9704 221.341 73.8373 221.437 73.6765L229.157 60.3183C229.277 60.1013 229.319 59.8495 229.276 59.605C229.233 59.3605 229.108 59.1383 228.921 58.9756C228.734 58.813 228.496 58.7197 228.249 58.7115C228.001 58.7033 227.758 58.7807 227.561 58.9307C225.599 60.6899 223.138 61.7915 220.522 62.0821" fill="#1CDBBC"/>
<path d="M8.79838 62.0821C6.18186 61.7915 3.72103 60.6899 1.75898 58.9307C1.56163 58.7807 1.31879 58.7033 1.07126 58.7115C0.823724 58.7197 0.586635 58.813 0.399568 58.9756C0.212501 59.1383 0.0868072 59.3605 0.0438172 59.605C0.000827243 59.8495 0.0432439 60.1013 0.163547 60.3183L7.88322 73.6765C7.97897 73.8373 8.11489 73.9704 8.27736 74.0628C8.43982 74.1553 8.6233 74.2039 8.81012 74.2039C8.99694 74.2039 9.18071 74.1553 9.34318 74.0628C9.50564 73.9704 9.64128 73.8373 9.73702 73.6765L17.457 60.3183C17.5773 60.1013 17.6194 59.8495 17.5764 59.605C17.5334 59.3605 17.4077 59.1383 17.2207 58.9756C17.0336 58.813 16.7965 58.7197 16.549 58.7115C16.3015 58.7033 16.0586 58.7807 15.8613 58.9307C13.8992 60.6899 11.4384 61.7915 8.82187 62.0821" fill="#1CDBBC"/>
<path d="M189.993 62.0821C187.374 61.8008 184.91 60.6979 182.953 58.9307C182.757 58.7653 182.51 58.6749 182.254 58.6758C181.998 58.6767 181.75 58.7687 181.556 58.9354C181.361 59.1021 181.232 59.3327 181.192 59.586C181.151 59.8393 181.202 60.0988 181.334 60.3182L189.054 73.6764C189.153 73.8369 189.291 73.9694 189.455 74.0613C189.619 74.1532 189.804 74.2014 189.993 74.2014C190.181 74.2014 190.366 74.1532 190.53 74.0613C190.694 73.9694 190.832 73.8369 190.931 73.6764L198.628 60.3182C198.748 60.1013 198.79 59.8494 198.747 59.605C198.704 59.3605 198.579 59.1383 198.392 58.9756C198.205 58.8129 197.967 58.7197 197.72 58.7115C197.472 58.7033 197.229 58.7807 197.032 58.9307C195.07 60.6898 192.609 61.7915 189.993 62.0821" fill="#1CDBBC"/>
<path d="M39.3033 62.0821C36.6867 61.7915 34.2259 60.6898 32.2639 58.9307C32.0665 58.7807 31.8237 58.7033 31.5761 58.7115C31.3286 58.7197 31.0915 58.8129 30.9045 58.9756C30.7174 59.1383 30.5917 59.3605 30.5487 59.605C30.5057 59.8494 30.5481 60.1013 30.6684 60.3182L38.3646 73.6764C38.4634 73.8369 38.6016 73.9694 38.7659 74.0613C38.9302 74.1532 39.1151 74.2014 39.3033 74.2014C39.4914 74.2014 39.6763 74.1532 39.8406 74.0613C40.0049 73.9694 40.1431 73.8369 40.2419 73.6764L47.9619 60.3182C48.0945 60.0988 48.1448 59.8393 48.1042 59.586C48.0636 59.3327 47.9347 59.1021 47.7402 58.9354C47.5456 58.7687 47.2984 58.6767 47.0424 58.6758C46.7865 58.6749 46.5383 58.7653 46.3427 58.9307C44.3832 60.6938 41.921 61.7961 39.3033 62.0821" fill="#1CDBBC"/>
<path d="M312.08 61.0003C309.463 60.7143 307.001 59.612 305.041 57.8489C304.845 57.6835 304.598 57.5931 304.342 57.594C304.086 57.5949 303.838 57.6869 303.644 57.8536C303.449 58.0203 303.32 58.2509 303.28 58.5042C303.239 58.7575 303.29 59.017 303.422 59.2364L311.142 72.5946C311.241 72.7551 311.379 72.8876 311.543 72.9795C311.707 73.0714 311.892 73.1196 312.08 73.1196C312.269 73.1196 312.454 73.0714 312.618 72.9795C312.782 72.8876 312.92 72.7551 313.019 72.5946L320.716 59.2364C320.836 59.0194 320.878 58.7676 320.835 58.5232C320.792 58.2787 320.666 58.0565 320.479 57.8938C320.292 57.7311 320.055 57.6379 319.808 57.6297C319.56 57.6215 319.317 57.6989 319.12 57.8489C317.158 59.608 314.697 60.7097 312.08 61.0003" fill="#1CDBBC"/>
<path d="M130.885 61.0003C128.266 60.719 125.803 59.6161 123.846 57.8489C123.65 57.6835 123.402 57.5931 123.147 57.594C122.891 57.5949 122.643 57.6869 122.448 57.8536C122.254 58.0203 122.125 58.2509 122.084 58.5042C122.044 58.7575 122.094 59.017 122.227 59.2364L129.947 72.5946C130.046 72.7551 130.184 72.8876 130.348 72.9795C130.512 73.0714 130.697 73.1196 130.885 73.1196C131.074 73.1196 131.258 73.0714 131.423 72.9795C131.587 72.8876 131.725 72.7551 131.824 72.5946L139.521 59.2364C139.641 59.0194 139.683 58.7676 139.64 58.5232C139.597 58.2787 139.471 58.0565 139.284 57.8938C139.097 57.7311 138.86 57.6379 138.613 57.6297C138.365 57.6215 138.122 57.6989 137.925 57.8489C135.963 59.608 133.502 60.7097 130.885 61.0003" fill="#1CDBBC"/>
<path d="M251.023 60.9295C248.404 60.6498 245.94 59.5467 243.984 57.7781C243.787 57.6281 243.544 57.5508 243.296 57.5589C243.049 57.5671 242.812 57.6603 242.625 57.823C242.438 57.9857 242.312 58.2079 242.269 58.4524C242.226 58.6968 242.268 58.9487 242.389 59.1656L250.108 72.5239C250.199 72.6907 250.333 72.83 250.496 72.927C250.659 73.024 250.846 73.0752 251.035 73.0752C251.225 73.0752 251.411 73.024 251.574 72.927C251.737 72.83 251.871 72.6907 251.962 72.5239L259.682 59.1656C259.802 58.9487 259.844 58.6968 259.801 58.4524C259.759 58.2079 259.633 57.9857 259.446 57.823C259.259 57.6603 259.022 57.5671 258.774 57.5589C258.527 57.5508 258.284 57.6281 258.086 57.7781C256.13 59.5467 253.666 60.6498 251.047 60.9295" fill="#1CDBBC"/>
<path d="M281.552 60.9295C278.931 60.6545 276.465 59.5508 274.512 57.7781C274.317 57.6127 274.069 57.5223 273.813 57.5232C273.557 57.5241 273.309 57.6161 273.115 57.7828C272.92 57.9495 272.791 58.1801 272.751 58.4334C272.71 58.6867 272.761 58.9462 272.893 59.1656L280.613 72.5238C280.707 72.6901 280.844 72.8284 281.009 72.9246C281.174 73.0208 281.361 73.0714 281.552 73.0714C281.742 73.0714 281.93 73.0208 282.095 72.9246C282.26 72.8284 282.396 72.6901 282.49 72.5238L290.187 59.1656C290.307 58.9486 290.349 58.6968 290.306 58.4523C290.263 58.2079 290.138 57.9857 289.951 57.823C289.764 57.6603 289.526 57.5671 289.279 57.5589C289.031 57.5507 288.788 57.6281 288.591 57.7781C286.635 59.5467 284.171 60.6497 281.552 60.9295" fill="#1CDBBC"/>
<path d="M100.357 60.9295C97.735 60.6577 95.2686 59.5536 93.3172 57.7781C93.1215 57.6127 92.8737 57.5223 92.6177 57.5232C92.3617 57.5241 92.1142 57.6161 91.9196 57.7828C91.7251 57.9495 91.5962 58.1801 91.5556 58.4334C91.515 58.6867 91.5656 58.9462 91.6982 59.1656L99.4179 72.5238C99.5121 72.6901 99.6486 72.8284 99.8135 72.9246C99.9784 73.0208 100.166 73.0714 100.357 73.0714C100.547 73.0714 100.735 73.0208 100.9 72.9246C101.065 72.8284 101.201 72.6901 101.295 72.5238L108.992 59.1656C109.112 58.9486 109.154 58.6968 109.111 58.4523C109.068 58.2079 108.942 57.9857 108.755 57.823C108.568 57.6603 108.331 57.5671 108.084 57.5589C107.836 57.5507 107.593 57.6281 107.396 57.7781C105.44 59.5467 102.976 60.6497 100.357 60.9295" fill="#1CDBBC"/>
<path d="M69.8321 60.9295C67.2126 60.6497 64.7486 59.5467 62.7927 57.7781C62.5953 57.6281 62.3525 57.5507 62.1049 57.5589C61.8574 57.5671 61.6203 57.6603 61.4333 57.823C61.2462 57.9857 61.1205 58.2079 61.0775 58.4523C61.0345 58.6968 61.0769 58.9486 61.1972 59.1656L68.8934 72.5238C68.9876 72.6901 69.1241 72.8284 69.289 72.9246C69.4539 73.0208 69.6413 73.0714 69.8321 73.0714C70.0228 73.0714 70.2103 73.0208 70.3751 72.9246C70.54 72.8284 70.6765 72.6901 70.7707 72.5238L78.4907 59.1656C78.6233 58.9462 78.6736 58.6867 78.633 58.4334C78.5924 58.1801 78.4635 57.9495 78.269 57.7828C78.0744 57.6161 77.8269 57.5241 77.5709 57.5232C77.315 57.5223 77.0671 57.6127 76.8715 57.7781C74.9182 59.5508 72.4528 60.6545 69.8321 60.9295Z" fill="#1CDBBC"/>
<path d="M220.498 34.0487C217.879 33.7689 215.415 32.6659 213.459 30.8973C213.261 30.7473 213.019 30.6699 212.771 30.6781C212.524 30.6863 212.286 30.7795 212.099 30.9422C211.912 31.1049 211.787 31.3271 211.744 31.5715C211.701 31.816 211.743 32.0678 211.863 32.2848L219.583 45.643C219.679 45.8038 219.815 45.9369 219.977 46.0294C220.139 46.1218 220.323 46.1704 220.51 46.1704C220.697 46.1704 220.88 46.1218 221.043 46.0294C221.205 45.9369 221.341 45.8038 221.437 45.643L229.157 32.2848C229.277 32.0678 229.319 31.816 229.276 31.5715C229.233 31.3271 229.108 31.1049 228.921 30.9422C228.734 30.7795 228.496 30.6863 228.249 30.6781C228.001 30.6699 227.758 30.7473 227.561 30.8973C225.605 32.6659 223.141 33.7689 220.522 34.0487" fill="#1CDBBC"/>
<path d="M8.79838 34.0487C6.17893 33.7689 3.71491 32.6659 1.75898 30.8973C1.56163 30.7473 1.31879 30.6699 1.07126 30.6781C0.823724 30.6863 0.586635 30.7795 0.399568 30.9422C0.212501 31.1049 0.0868072 31.3271 0.0438172 31.5715C0.000827243 31.816 0.0432439 32.0678 0.163547 32.2848L7.88322 45.643C7.97897 45.8038 8.11489 45.9369 8.27736 46.0294C8.43982 46.1218 8.6233 46.1704 8.81012 46.1704C8.99694 46.1704 9.18071 46.1218 9.34318 46.0294C9.50564 45.9369 9.64128 45.8038 9.73702 45.643L17.457 32.2848C17.5773 32.0678 17.6194 31.816 17.5764 31.5715C17.5334 31.3271 17.4077 31.1049 17.2207 30.9422C17.0336 30.7795 16.7965 30.6863 16.549 30.6781C16.3015 30.6699 16.0586 30.7473 15.8613 30.8973C13.9053 32.6659 11.4413 33.7689 8.82187 34.0487" fill="#1CDBBC"/>
<path d="M189.993 34.0484C187.371 33.7766 184.905 32.6725 182.953 30.897C182.757 30.7316 182.51 30.6412 182.254 30.6421C181.998 30.643 181.75 30.735 181.556 30.9017C181.361 31.0684 181.232 31.299 181.192 31.5523C181.151 31.8056 181.202 32.0651 181.334 32.2845L189.054 45.6427C189.153 45.8032 189.291 45.9357 189.455 46.0276C189.619 46.1195 189.804 46.1677 189.993 46.1677C190.181 46.1677 190.366 46.1195 190.53 46.0276C190.694 45.9357 190.832 45.8032 190.931 45.6427L198.628 32.2845C198.748 32.0676 198.79 31.8157 198.747 31.5712C198.704 31.3268 198.579 31.1046 198.392 30.9419C198.205 30.7792 197.967 30.686 197.72 30.6778C197.472 30.6696 197.229 30.747 197.032 30.897C195.076 32.6656 192.612 33.7687 189.993 34.0484" fill="#1CDBBC"/>
<path d="M39.3032 34.0484C36.6838 33.7687 34.2197 32.6656 32.2638 30.897C32.0664 30.747 31.8236 30.6696 31.5761 30.6778C31.3285 30.686 31.0915 30.7792 30.9044 30.9419C30.7173 31.1046 30.5916 31.3268 30.5486 31.5712C30.5056 31.8157 30.5481 32.0676 30.6684 32.2845L38.3646 45.6427C38.4633 45.8032 38.6016 45.9357 38.7658 46.0276C38.9301 46.1195 39.1151 46.1677 39.3032 46.1677C39.4913 46.1677 39.6763 46.1195 39.8405 46.0276C40.0048 45.9357 40.1431 45.8032 40.2418 45.6427L47.9618 32.2845C48.0944 32.0651 48.1448 31.8056 48.1042 31.5523C48.0636 31.299 47.9346 31.0684 47.7401 30.9017C47.5456 30.735 47.2983 30.643 47.0424 30.6421C46.7864 30.6412 46.5383 30.7316 46.3426 30.897C44.3893 32.6697 41.9239 33.7734 39.3032 34.0484" fill="#1CDBBC"/>
<path d="M312.08 32.4964C309.46 32.2214 306.994 31.1177 305.041 29.345C304.845 29.1796 304.598 29.0892 304.342 29.0901C304.086 29.091 303.838 29.183 303.644 29.3497C303.449 29.5164 303.32 29.747 303.28 30.0003C303.239 30.2536 303.29 30.5131 303.422 30.7325L311.142 44.0908C311.241 44.2512 311.379 44.3837 311.543 44.4756C311.707 44.5675 311.892 44.6157 312.08 44.6157C312.269 44.6157 312.454 44.5675 312.618 44.4756C312.782 44.3837 312.92 44.2512 313.019 44.0908L320.716 30.7325C320.836 30.5156 320.878 30.2637 320.835 30.0193C320.792 29.7748 320.666 29.5526 320.479 29.3899C320.292 29.2272 320.055 29.134 319.808 29.1258C319.56 29.1176 319.317 29.195 319.12 29.345C317.164 31.1136 314.7 32.2167 312.08 32.4964" fill="#1CDBBC"/>
<path d="M130.885 32.4964C128.264 32.2246 125.797 31.1205 123.846 29.345C123.65 29.1796 123.402 29.0892 123.147 29.0901C122.891 29.091 122.643 29.183 122.448 29.3497C122.254 29.5164 122.125 29.747 122.084 30.0003C122.044 30.2536 122.094 30.5131 122.227 30.7325L129.947 44.0908C130.046 44.2512 130.184 44.3837 130.348 44.4756C130.512 44.5675 130.697 44.6157 130.885 44.6157C131.074 44.6157 131.258 44.5675 131.423 44.4756C131.587 44.3837 131.725 44.2512 131.824 44.0908L139.521 30.7325C139.641 30.5156 139.683 30.2637 139.64 30.0193C139.597 29.7748 139.471 29.5526 139.284 29.3899C139.097 29.2272 138.86 29.134 138.613 29.1258C138.365 29.1176 138.122 29.195 137.925 29.345C135.969 31.1136 133.505 32.2167 130.885 32.4964" fill="#1CDBBC"/>
<path d="M251.023 32.4495C248.404 32.1698 245.94 31.0667 243.984 29.2981C243.787 29.1481 243.544 29.0708 243.296 29.079C243.049 29.0871 242.812 29.1804 242.625 29.343C242.438 29.5057 242.312 29.7279 242.269 29.9724C242.226 30.2169 242.268 30.4687 242.389 30.6857L250.108 44.0439C250.199 44.2107 250.333 44.35 250.496 44.447C250.659 44.544 250.846 44.5952 251.035 44.5952C251.225 44.5952 251.411 44.544 251.574 44.447C251.737 44.35 251.871 44.2107 251.962 44.0439L259.682 30.6857C259.802 30.4687 259.844 30.2169 259.801 29.9724C259.759 29.7279 259.633 29.5057 259.446 29.343C259.259 29.1804 259.022 29.0871 258.774 29.079C258.527 29.0708 258.284 29.1481 258.086 29.2981C256.13 31.0667 253.666 32.1698 251.047 32.4495" fill="#1CDBBC"/>
<path d="M281.552 32.4495C278.931 32.1745 276.465 31.0708 274.512 29.2981C274.317 29.1327 274.069 29.0424 273.813 29.0432C273.557 29.0441 273.309 29.1361 273.115 29.3028C272.92 29.4695 272.791 29.7001 272.751 29.9534C272.71 30.2067 272.761 30.4662 272.893 30.6856L280.613 44.0439C280.707 44.2101 280.844 44.3484 281.009 44.4446C281.174 44.5408 281.361 44.5915 281.552 44.5915C281.742 44.5915 281.93 44.5408 282.095 44.4446C282.26 44.3484 282.396 44.2101 282.49 44.0439L290.187 30.6856C290.307 30.4687 290.349 30.2168 290.306 29.9724C290.263 29.7279 290.138 29.5057 289.951 29.343C289.764 29.1803 289.526 29.0871 289.279 29.0789C289.031 29.0707 288.788 29.1481 288.591 29.2981C286.635 31.0667 284.171 32.1698 281.552 32.4495" fill="#1CDBBC"/>
<path d="M100.357 32.4495C97.735 32.1777 95.2686 31.0736 93.3172 29.2981C93.1215 29.1327 92.8737 29.0424 92.6177 29.0432C92.3617 29.0441 92.1142 29.1361 91.9196 29.3028C91.7251 29.4695 91.5962 29.7001 91.5556 29.9534C91.515 30.2067 91.5656 30.4662 91.6982 30.6856L99.4179 44.0439C99.5121 44.2101 99.6486 44.3484 99.8135 44.4446C99.9784 44.5408 100.166 44.5915 100.357 44.5915C100.547 44.5915 100.735 44.5408 100.9 44.4446C101.065 44.3484 101.201 44.2101 101.295 44.0439L108.992 30.6856C109.112 30.4687 109.154 30.2168 109.111 29.9724C109.068 29.7279 108.942 29.5057 108.755 29.343C108.568 29.1803 108.331 29.0871 108.084 29.0789C107.836 29.0707 107.593 29.1481 107.396 29.2981C105.44 31.0667 102.976 32.1698 100.357 32.4495" fill="#1CDBBC"/>
<path d="M69.8321 32.4495C67.2126 32.1698 64.7486 31.0667 62.7927 29.2981C62.5953 29.1481 62.3525 29.0707 62.1049 29.0789C61.8574 29.0871 61.6203 29.1803 61.4333 29.343C61.2462 29.5057 61.1205 29.7279 61.0775 29.9724C61.0345 30.2168 61.0769 30.4687 61.1972 30.6856L68.8934 44.0439C68.9876 44.2101 69.1241 44.3484 69.289 44.4446C69.4539 44.5408 69.6413 44.5915 69.8321 44.5915C70.0228 44.5915 70.2103 44.5408 70.3751 44.4446C70.54 44.3484 70.6765 44.2101 70.7707 44.0439L78.4907 30.6856C78.6233 30.4662 78.6736 30.2067 78.633 29.9534C78.5924 29.7001 78.4635 29.4695 78.269 29.3028C78.0744 29.1361 77.8269 29.0441 77.5709 29.0432C77.315 29.0424 77.0671 29.1327 76.8715 29.2981C74.9182 31.0708 72.4528 32.1745 69.8321 32.4495Z" fill="#1CDBBC"/>
<path d="M220.498 6.08578C217.879 5.80606 215.415 4.70297 213.459 2.93438C213.261 2.78441 213.019 2.70701 212.771 2.71519C212.524 2.72337 212.286 2.81663 212.099 2.97931C211.912 3.14198 211.787 3.36417 211.744 3.60863C211.701 3.85309 211.743 4.10495 211.863 4.32193L219.583 17.6801C219.679 17.8409 219.815 17.9741 219.977 18.0665C220.139 18.1589 220.323 18.2075 220.51 18.2075C220.697 18.2075 220.88 18.1589 221.043 18.0665C221.205 17.9741 221.341 17.8409 221.437 17.6801L229.157 4.32193C229.277 4.10495 229.319 3.85309 229.276 3.60863C229.233 3.36417 229.108 3.14198 228.921 2.97931C228.734 2.81663 228.496 2.72337 228.249 2.71519C228.001 2.70701 227.758 2.78441 227.561 2.93438C225.605 4.70297 223.141 5.80606 220.522 6.08578" fill="#1CDBBC"/>
<path d="M8.79838 6.08578C6.17893 5.80606 3.71491 4.70297 1.75898 2.93438C1.56163 2.78441 1.31879 2.70701 1.07126 2.71519C0.823724 2.72337 0.586635 2.81663 0.399568 2.97931C0.212501 3.14198 0.0868072 3.36417 0.0438172 3.60863C0.000827243 3.85309 0.0432439 4.10495 0.163547 4.32193L7.88322 17.6801C7.97897 17.8409 8.11489 17.9741 8.27736 18.0665C8.43982 18.1589 8.6233 18.2075 8.81012 18.2075C8.99694 18.2075 9.18071 18.1589 9.34318 18.0665C9.50564 17.9741 9.64128 17.8409 9.73702 17.6801L17.457 4.32193C17.5773 4.10495 17.6194 3.85309 17.5764 3.60863C17.5334 3.36417 17.4077 3.14198 17.2207 2.97931C17.0336 2.81663 16.7965 2.72337 16.549 2.71519C16.3015 2.70701 16.0586 2.78441 15.8613 2.93438C13.9053 4.70297 11.4413 5.80606 8.82187 6.08578" fill="#1CDBBC"/>
<path d="M189.993 6.08574C187.371 5.81398 184.905 4.70984 182.953 2.93434C182.757 2.76894 182.51 2.67859 182.254 2.67945C181.998 2.68031 181.75 2.77232 181.556 2.93905C181.361 3.10577 181.232 3.33635 181.192 3.58965C181.151 3.84295 181.202 4.10249 181.334 4.3219L189.054 17.6801C189.153 17.8406 189.291 17.9731 189.455 18.065C189.619 18.1568 189.804 18.2051 189.993 18.2051C190.181 18.2051 190.366 18.1568 190.53 18.065C190.694 17.9731 190.832 17.8406 190.931 17.6801L198.628 4.3219C198.748 4.10492 198.79 3.85306 198.747 3.6086C198.704 3.36414 198.579 3.14195 198.392 2.97927C198.205 2.8166 197.967 2.72334 197.72 2.71516C197.472 2.70697 197.229 2.78437 197.032 2.93434C195.076 4.70294 192.612 5.80602 189.993 6.08574" fill="#1CDBBC"/>
<path d="M39.3033 6.08574C36.6838 5.80602 34.2198 4.70294 32.2639 2.93434C32.0665 2.78437 31.8237 2.70697 31.5761 2.71516C31.3286 2.72334 31.0915 2.8166 30.9045 2.97927C30.7174 3.14195 30.5917 3.36414 30.5487 3.6086C30.5057 3.85306 30.5481 4.10492 30.6684 4.3219L38.3646 17.6801C38.4634 17.8406 38.6016 17.9731 38.7659 18.065C38.9302 18.1568 39.1151 18.2051 39.3033 18.2051C39.4914 18.2051 39.6763 18.1568 39.8406 18.065C40.0049 17.9731 40.1431 17.8406 40.2419 17.6801L47.9619 4.3219C48.0945 4.10249 48.1448 3.84295 48.1042 3.58965C48.0636 3.33635 47.9347 3.10577 47.7402 2.93905C47.5456 2.77232 47.2984 2.68031 47.0424 2.67945C46.7865 2.67859 46.5383 2.76894 46.3427 2.93434C44.3894 4.70706 41.924 5.81078 39.3033 6.08574" fill="#1CDBBC"/>
<path d="M251.023 3.96904C248.404 3.68932 245.94 2.58623 243.984 0.817642C243.787 0.667672 243.544 0.590306 243.296 0.598489C243.049 0.606671 242.812 0.699894 242.625 0.862571C242.438 1.02525 242.312 1.24747 242.269 1.49193C242.226 1.73639 242.268 1.98822 242.389 2.20519L250.108 15.5634C250.199 15.7303 250.333 15.8695 250.496 15.9665C250.659 16.0635 250.846 16.1147 251.035 16.1147C251.225 16.1147 251.411 16.0635 251.574 15.9665C251.737 15.8695 251.871 15.7303 251.962 15.5634L259.682 2.20519C259.802 1.98822 259.844 1.73639 259.801 1.49193C259.759 1.24747 259.633 1.02525 259.446 0.862571C259.259 0.699894 259.022 0.606671 258.774 0.598489C258.527 0.590306 258.284 0.667672 258.086 0.817642C256.13 2.58623 253.666 3.68932 251.047 3.96904" fill="#1CDBBC"/>
<path d="M312.08 3.99273C309.46 3.71776 306.994 2.61404 305.041 0.841327C304.845 0.675919 304.598 0.585568 304.342 0.586432C304.086 0.587296 303.838 0.679303 303.644 0.846028C303.449 1.01275 303.32 1.24334 303.28 1.49663C303.239 1.74993 303.29 2.00947 303.422 2.22888L311.142 15.5871C311.236 15.7533 311.373 15.8916 311.537 15.9878C311.702 16.084 311.89 16.1347 312.08 16.1347C312.271 16.1347 312.459 16.084 312.624 15.9878C312.788 15.8916 312.925 15.7533 313.019 15.5871L320.716 2.22888C320.836 2.0119 320.878 1.76004 320.835 1.51558C320.792 1.27112 320.666 1.04893 320.479 0.886256C320.292 0.723579 320.055 0.63032 319.808 0.622138C319.56 0.613956 319.317 0.691357 319.12 0.841327C317.164 2.60992 314.7 3.71301 312.08 3.99273" fill="#1CDBBC"/>
<path d="M130.885 3.99273C128.264 3.72097 125.797 2.61682 123.846 0.841327C123.65 0.675919 123.402 0.585568 123.147 0.586432C122.891 0.587296 122.643 0.679303 122.448 0.846028C122.254 1.01275 122.125 1.24334 122.084 1.49663C122.044 1.74993 122.094 2.00947 122.227 2.22888L129.947 15.5871C130.041 15.7533 130.177 15.8916 130.342 15.9878C130.507 16.084 130.695 16.1347 130.885 16.1347C131.076 16.1347 131.264 16.084 131.428 15.9878C131.593 15.8916 131.73 15.7533 131.824 15.5871L139.521 2.22888C139.641 2.0119 139.683 1.76004 139.64 1.51558C139.597 1.27112 139.471 1.04893 139.284 0.886256C139.097 0.723579 138.86 0.63032 138.613 0.622138C138.365 0.613956 138.122 0.691357 137.925 0.841327C135.969 2.60992 133.505 3.71301 130.885 3.99273" fill="#1CDBBC"/>
<path d="M281.552 3.96901C278.931 3.69404 276.465 2.59033 274.512 0.81761C274.317 0.652201 274.069 0.561886 273.813 0.56275C273.557 0.563614 273.309 0.655621 273.115 0.822347C272.92 0.989072 272.791 1.21965 272.751 1.47295C272.71 1.72625 272.761 1.98575 272.893 2.20516L280.613 15.5634C280.707 15.7297 280.844 15.8679 281.009 15.9641C281.174 16.0603 281.361 16.111 281.552 16.111C281.742 16.111 281.93 16.0603 282.095 15.9641C282.26 15.8679 282.396 15.7297 282.49 15.5634L290.187 2.20516C290.307 1.98819 290.349 1.73636 290.306 1.4919C290.263 1.24744 290.138 1.02522 289.951 0.862538C289.764 0.699861 289.526 0.606639 289.279 0.598456C289.031 0.590274 288.788 0.66764 288.591 0.81761C286.635 2.5862 284.171 3.68929 281.552 3.96901" fill="#1CDBBC"/>
<path d="M100.357 3.96901C97.735 3.69725 95.2686 2.5931 93.3172 0.81761C93.1215 0.652201 92.8737 0.561886 92.6177 0.56275C92.3617 0.563614 92.1142 0.655621 91.9196 0.822347C91.7251 0.989072 91.5962 1.21965 91.5556 1.47295C91.515 1.72625 91.5656 1.98575 91.6982 2.20516L99.4179 15.5634C99.5121 15.7297 99.6486 15.8679 99.8135 15.9641C99.9784 16.0603 100.166 16.111 100.357 16.111C100.547 16.111 100.735 16.0603 100.9 15.9641C101.065 15.8679 101.201 15.7297 101.295 15.5634L108.992 2.20516C109.112 1.98819 109.154 1.73636 109.111 1.4919C109.068 1.24744 108.942 1.02522 108.755 0.862538C108.568 0.699861 108.331 0.606639 108.084 0.598456C107.836 0.590274 107.593 0.66764 107.396 0.81761C105.44 2.5862 102.976 3.68929 100.357 3.96901" fill="#1CDBBC"/>
<path d="M69.8321 3.96901C67.2126 3.68929 64.7486 2.5862 62.7927 0.81761C62.5953 0.66764 62.3525 0.590274 62.1049 0.598456C61.8574 0.606639 61.6203 0.699861 61.4333 0.862538C61.2462 1.02522 61.1205 1.24744 61.0775 1.4919C61.0345 1.73636 61.0769 1.98819 61.1972 2.20516L68.8934 15.5634C68.9876 15.7297 69.1241 15.8679 69.289 15.9641C69.4539 16.0603 69.6413 16.111 69.8321 16.111C70.0228 16.111 70.2103 16.0603 70.3751 15.9641C70.54 15.8679 70.6765 15.7297 70.7707 15.5634L78.4907 2.20516C78.6233 1.98575 78.6736 1.72625 78.633 1.47295C78.5924 1.21965 78.4635 0.989072 78.269 0.822347C78.0744 0.655621 77.8269 0.563614 77.5709 0.56275C77.315 0.561886 77.0671 0.652201 76.8715 0.81761C74.9182 2.59033 72.4528 3.69404 69.8321 3.96901" fill="#1CDBBC"/>
</g>
<defs>
<clipPath id="clip0_1723_4703">
<rect width="320.879" height="283.956" fill="white" transform="translate(0 0.58252)"/>
</clipPath>
</defs>
</svg>
