<svg width="50" height="50" viewBox="0 0 50 50" fill="none" xmlns="http://www.w3.org/2000/svg">
<path d="M10.4495 4H1V37H28V28.7867" stroke="white" stroke-linecap="round" stroke-linejoin="round"/>
<path d="M10.5701 4H27.5301V27" stroke="white" stroke-linecap="round" stroke-linejoin="round"/>
<rect x="23" y="20.5" width="25" height="25" rx="12.5" fill="#063636"/>
<path d="M30.179 40V37.7841L35.3565 32.9901C35.7969 32.5639 36.1662 32.1804 36.4645 31.8395C36.7675 31.4986 36.9972 31.1648 37.1534 30.8381C37.3097 30.5066 37.3878 30.1491 37.3878 29.7656C37.3878 29.3395 37.2907 28.9725 37.0966 28.6648C36.9025 28.3523 36.6373 28.1132 36.3011 27.9474C35.965 27.777 35.5838 27.6918 35.1577 27.6918C34.7126 27.6918 34.3243 27.7817 33.9929 27.9616C33.6615 28.1416 33.4058 28.3996 33.2259 28.7358C33.0459 29.072 32.956 29.4721 32.956 29.9361H30.0369C30.0369 28.9844 30.2524 28.1581 30.6832 27.4574C31.1141 26.7566 31.7178 26.2145 32.4943 25.831C33.2708 25.4474 34.1657 25.2557 35.179 25.2557C36.2206 25.2557 37.1274 25.4403 37.8991 25.8097C38.6757 26.1742 39.2794 26.6809 39.7102 27.3295C40.1411 27.9782 40.3565 28.7216 40.3565 29.5597C40.3565 30.1089 40.2476 30.651 40.0298 31.1861C39.8168 31.7211 39.4356 32.3153 38.8864 32.9688C38.3371 33.6174 37.563 34.3963 36.5639 35.3054L34.4403 37.3864V37.4858H40.5483V40H30.179Z" fill="#063636"/>
<path d="M30.179 40H29.179V41H30.179V40ZM30.179 37.7841L29.4996 37.0503L29.179 37.3472V37.7841H30.179ZM35.3565 32.9901L36.0359 33.7238L36.044 33.7163L36.052 33.7087L35.3565 32.9901ZM36.4645 31.8395L35.7171 31.1751L35.7119 31.181L36.4645 31.8395ZM37.1534 30.8381L38.0556 31.2695L38.0579 31.2645L37.1534 30.8381ZM37.0966 28.6648L36.2471 29.1925L36.2508 29.1983L37.0966 28.6648ZM36.3011 27.9474L35.8489 28.8394L35.859 28.8444L36.3011 27.9474ZM33.2259 28.7358L34.1075 29.2077L34.1075 29.2077L33.2259 28.7358ZM32.956 29.9361V30.9361H33.956V29.9361H32.956ZM30.0369 29.9361H29.0369V30.9361H30.0369V29.9361ZM30.6832 27.4574L31.5351 27.9812H31.5351L30.6832 27.4574ZM32.4943 25.831L32.0515 24.9344L32.0515 24.9344L32.4943 25.831ZM37.8991 25.8097L37.4675 26.7117L37.4741 26.7149L37.8991 25.8097ZM39.7102 27.3295L38.8772 27.8828V27.8828L39.7102 27.3295ZM40.0298 31.1861L39.1036 30.809L39.1008 30.8161L40.0298 31.1861ZM38.8864 32.9688L39.6495 33.6149L39.6518 33.6122L38.8864 32.9688ZM36.5639 35.3054L35.8909 34.5658L35.8772 34.5782L35.864 34.5912L36.5639 35.3054ZM34.4403 37.3864L33.7404 36.6721L33.4403 36.9662V37.3864H34.4403ZM34.4403 37.4858H33.4403V38.4858H34.4403V37.4858ZM40.5483 37.4858H41.5483V36.4858H40.5483V37.4858ZM40.5483 40V41H41.5483V40H40.5483ZM31.179 40V37.7841H29.179V40H31.179ZM30.8584 38.5179L36.0359 33.7238L34.6771 32.2563L29.4996 37.0503L30.8584 38.5179ZM36.052 33.7087C36.5058 33.2695 36.8955 32.8655 37.2171 32.498L35.7119 31.181C35.4369 31.4953 35.088 31.8583 34.6611 32.2715L36.052 33.7087ZM37.2119 32.5039C37.5618 32.1102 37.85 31.6993 38.0555 31.2695L36.2513 30.4066C36.1443 30.6303 35.9732 30.887 35.7171 31.1751L37.2119 32.5039ZM38.0579 31.2645C38.28 30.7934 38.3878 30.2895 38.3878 29.7656H36.3878C36.3878 30.0088 36.3393 30.2198 36.2489 30.4116L38.0579 31.2645ZM38.3878 29.7656C38.3878 29.1835 38.2535 28.6244 37.9424 28.1313L36.2508 29.1983C36.328 29.3207 36.3878 29.4955 36.3878 29.7656H38.3878ZM37.946 28.1371C37.6514 27.6628 37.2437 27.2972 36.7433 27.0505L35.859 28.8444C36.0309 28.9291 36.1536 29.0418 36.2471 29.1925L37.946 28.1371ZM36.7534 27.0555C36.2597 26.8052 35.7203 26.6918 35.1577 26.6918V28.6918C35.4474 28.6918 35.6702 28.7488 35.8489 28.8393L36.7534 27.0555ZM35.1577 26.6918C34.576 26.6918 34.018 26.8102 33.5158 27.0828L34.47 28.8405C34.6307 28.7533 34.8492 28.6918 35.1577 28.6918V26.6918ZM33.5158 27.0828C33.0106 27.357 32.6152 27.7575 32.3442 28.2639L34.1075 29.2077C34.1963 29.0417 34.3123 28.9261 34.47 28.8405L33.5158 27.0828ZM32.3442 28.2639C32.0714 28.7735 31.956 29.3428 31.956 29.9361H33.956C33.956 29.6013 34.0204 29.3704 34.1075 29.2077L32.3442 28.2639ZM32.956 28.9361H30.0369V30.9361H32.956V28.9361ZM31.0369 29.9361C31.0369 29.1398 31.2155 28.501 31.5351 27.9812L29.8314 26.9336C29.2893 27.8153 29.0369 28.829 29.0369 29.9361H31.0369ZM31.5351 27.9812C31.8621 27.4493 32.32 27.0324 32.9372 26.7276L32.0515 24.9344C31.1156 25.3966 30.3661 26.0639 29.8314 26.9336L31.5351 27.9812ZM32.9372 26.7276C33.5544 26.4227 34.2933 26.2557 35.179 26.2557V24.2557C34.0381 24.2557 32.9873 24.4722 32.0515 24.9344L32.9372 26.7276ZM35.179 26.2557C36.1032 26.2557 36.8566 26.4194 37.4675 26.7117L38.3308 24.9076C37.3982 24.4613 36.3381 24.2557 35.179 24.2557V26.2557ZM37.4741 26.7149C38.1024 27.0098 38.5577 27.4018 38.8772 27.8828L40.5432 26.7762C40.001 25.9599 39.2489 25.3387 38.3241 24.9045L37.4741 26.7149ZM38.8772 27.8828C39.1908 28.3549 39.3565 28.9027 39.3565 29.5597H41.3565C41.3565 28.5405 41.0914 27.6015 40.5432 26.7762L38.8772 27.8828ZM39.3565 29.5597C39.3565 29.973 39.2753 30.3874 39.1036 30.809L40.956 31.5631C41.22 30.9146 41.3565 30.2448 41.3565 29.5597H39.3565ZM39.1008 30.8161C38.9414 31.2163 38.6312 31.7182 38.1209 32.3253L39.6518 33.6122C40.24 32.9125 40.6921 32.2259 40.9589 31.5561L39.1008 30.8161ZM38.1232 32.3226C37.6133 32.9248 36.8742 33.671 35.8909 34.5658L37.2369 36.045C38.2517 35.1216 39.061 34.3101 39.6495 33.6149L38.1232 32.3226ZM35.864 34.5912L33.7404 36.6721L35.1402 38.1006L37.2638 36.0196L35.864 34.5912ZM33.4403 37.3864V37.4858H35.4403V37.3864H33.4403ZM34.4403 38.4858H40.5483V36.4858H34.4403V38.4858ZM39.5483 37.4858V40H41.5483V37.4858H39.5483ZM40.5483 39H30.179V41H40.5483V39Z" fill="#1CDBBC"/>
<rect x="23" y="20.5" width="25" height="25" rx="12.5" stroke="#1CDBBC"/>
<rect x="7.5" y="1.5" width="14" height="6" rx="0.5" fill="#063636" stroke="white"/>
<path d="M14.5 26C17.5376 26 20 23.5376 20 20.5C20 17.4624 17.5376 15 14.5 15C11.4624 15 9 17.4624 9 20.5C9 23.5376 11.4624 26 14.5 26Z" stroke="white" stroke-width="0.8" stroke-linecap="round" stroke-linejoin="round"/>
<path d="M11.8191 21.0667L13.4359 22.6835L17.402 18.9109" stroke="white" stroke-width="0.8" stroke-linecap="round" stroke-linejoin="round"/>
</svg>
