<svg width="390" height="353" viewBox="0 0 390 353" fill="none" xmlns="http://www.w3.org/2000/svg">
<path opacity="0.2" d="M424.594 209.587H422.677V204.109H424.594V209.587ZM418.467 149.128H416.557V204.728H418.467V149.128ZM430.713 169.235H428.796V182.948H430.713V169.235ZM510.341 254.762H508.394V294.835H510.304L510.341 254.762ZM516.468 250.766H514.551V293.132H516.468V250.766ZM522.587 249.94H520.67V295.72H522.587V249.94ZM528.67 258.132H526.753V303.041H528.67V258.132ZM369.489 140.546H367.572V164.295H369.489V140.546ZM375.608 145.331H373.699V165.548H375.608V145.331ZM381.735 145.368H379.818V165.769H381.735V145.368ZM387.855 152.004H385.945V167.443H387.847L387.855 152.004ZM393.981 152.188H392.064V167.406H393.981V152.188ZM400.101 156.796H398.169V168.999H400.086L400.101 156.796ZM406.221 167.332H404.311V177.935H406.221V167.332ZM412.347 154.879H410.43V188.663H412.347V154.879ZM424.594 173.142H422.677V187.822H424.594V173.142ZM436.84 165.482H434.923V177.935H436.84V165.482ZM363.369 140.546H361.452V151.082H363.369V140.546Z" fill="#1CDBBC" fill-opacity="0.6"/>
<path opacity="0.2" d="M20.5068 79.9896H18.5898V49.2733H20.5068V79.9896ZM26.6263 51.0429H24.7167V85.7848H26.6263V51.0429ZM118.463 55.946H116.524V68.6498H118.434L118.463 55.946ZM124.59 50.195H122.673V59.5956H124.59V50.195ZM124.59 66.9466H122.673V69.2249H124.59V66.9466ZM118.463 35.4193H116.524V46.7518H118.434L118.463 35.4193ZM124.59 36.2451H122.673V47.5775H124.59V36.2451ZM136.741 39.3197H134.824V48.9047H136.741V39.3197ZM136.741 64.86H134.824V68.3917H136.741V64.86ZM136.837 73.2727H134.957V134.064H136.874L136.837 73.2727ZM130.71 34.9327H128.793V48.9416H130.71V34.9327ZM130.71 4.88746H128.793V25.6795H130.71V4.88746ZM136.741 3.56031H134.824V21.1746H136.741V3.56031ZM142.956 3.56031H141.039V15.5489H142.956V3.56031ZM149.076 2.823H147.166V12.408H149.076V2.823ZM155.203 2.34375H153.286V9.83479H155.203V2.34375ZM161.322 3.81836H159.405V7.29845H161.322V3.81836ZM234.801 61.6748H232.884V65.5899H234.801V61.6748ZM240.832 61.7707H238.915V68.6129H240.824L240.832 61.7707ZM253.159 162.229H251.25V206.593H253.159V162.229ZM247.04 169.513H245.123V195.938H247.025L247.04 169.513ZM247.04 61.2841H245.123V67.448H247.025L247.04 61.2841ZM118.25 29.3661H116.34V32.6839H118.25V29.3661ZM124.59 29.0195H122.673V32.3153H124.59V29.0195ZM118.463 22.5681H116.524V26.9403H118.434L118.463 22.5681ZM118.463 13.3517H116.524V20.0317H118.434L118.463 13.3517ZM118.463 4.88009H116.524V10.2624H118.434L118.463 4.88009ZM124.59 5.07179H122.673V10.4541H124.59V5.07179ZM124.59 13.4328H122.673V26.3136H124.59V13.4328ZM118.463 91.145H116.524V156.404H118.434L118.463 91.145ZM124.59 92.7155H122.673V163.556H124.59V92.7155ZM130.71 94.1901H128.793V149.149H130.71V94.1901ZM130.71 217.025H128.793V238.592H130.71V217.025ZM136.837 200.583H134.957V254.164H136.874L136.837 200.583ZM142.956 197.008H141.039V258.941H142.956V197.008ZM130.71 173.141H128.793V175.685H130.71V173.141ZM142.956 179.777H141.039V182.32H142.956V179.777ZM149.076 181.045H147.166V181.686H149.076V181.045ZM155.203 182.217H153.286V182.859H155.203V182.217ZM136.837 176.319H134.957V181.686H136.874L136.837 176.319ZM124.59 171.158H122.673V173.701H124.59V171.158ZM259.286 96.2177H257.347V102.492H259.264L259.286 96.2177ZM259.286 124.869H257.347V139.291H259.264L259.286 124.869ZM265.406 94.6398H263.489V100.789H265.406V94.6398ZM265.406 84.0816H263.489V90.2308H265.406V84.0816ZM271.533 85.6594H269.616V105.508H271.533V85.6594ZM271.533 111.465H269.616V115.425H271.533V111.465ZM375.609 169.749H373.699V186.081H375.609V169.749ZM381.736 170.332H379.819V180.765H381.736V170.332ZM455.207 211.798H453.29V216.568H455.207V211.798ZM461.326 218.353H459.409V225.128H461.326V218.353ZM461.326 207.544H459.409V210.006H461.326V207.544ZM467.475 225.416H465.558V233.6H467.475V225.416ZM522.573 225.917H520.656V232.465H522.573V225.917ZM528.7 227.569H526.783V235.539H528.671L528.7 227.569ZM467.475 216.642H465.558V218.95H467.475V216.642ZM473.595 235.642H471.678V237.95H473.595V235.642ZM473.595 186.383H471.678V199.854H473.595V186.383ZM479.714 237.117H477.797V239.417H479.707L479.714 237.117ZM485.812 239.609H483.895V240.686H485.812V239.609ZM516.439 225.394H514.522V226.47H516.439V225.394ZM510.327 229.818H508.395V230.887H510.305L510.327 229.818ZM510.327 218.714H508.41V222.017H510.327V218.714ZM369.504 167.692H367.587V190.549H369.504V167.692ZM338.877 51.0208H336.975V58.5044H338.892L338.877 51.0208ZM259.286 151.589H257.347V211.724H259.264L259.286 151.589ZM265.406 143.597H263.489V212.27H265.406V143.597ZM271.533 144.128H269.616V212.27H271.533V144.128ZM344.996 52.8788H343.087V61.4758H344.996V52.8788ZM351.123 55.4667H349.206V58.8583H351.123V55.4667ZM369.489 50.0107H367.572V51.7138H369.489V50.0107ZM369.489 12.349H367.572V14.0522H369.489V12.349ZM363.37 11.6707H361.453V13.3739H363.37V11.6707ZM375.609 13.1453H373.699V14.3029H375.609V13.1453ZM381.736 8.60349H379.819V9.75368H381.736V8.60349ZM381.736 13.4255H379.819V14.5757H381.736V13.4255ZM387.848 11.7739H385.938V12.9315H387.848V11.7739ZM387.848 29.5209H385.938V30.6785H387.848V29.5209ZM393.975 10.6606H392.058V11.8181H393.975V10.6606ZM393.975 28.3559H392.058V29.5135H393.975V28.3559ZM400.094 25.7975H398.17V27.5818H400.087L400.094 25.7975ZM357.243 12.8799H355.326V13.1969H357.243V12.8799ZM375.675 34.5641H373.758V46.9361H375.675V34.5641ZM381.699 45.7416H379.782V46.9361H381.699V45.7416ZM381.699 31.3715H379.782V35.2645H381.699V31.3715ZM344.996 68.5171H343.087V119.863H344.996V68.5171ZM344.996 176.267H343.087V234.396H344.996V176.267ZM351.123 130.149H349.206V179.718H351.123V130.149ZM351.123 64.366H349.206V124.751H351.123V64.366ZM351.123 189.487H349.206V229.073H351.123V189.487ZM357.243 199.654H355.326V219.473H357.243V199.654ZM357.243 260.283H355.326V278.133H357.243V260.283ZM363.37 255.999H361.453V274.189H363.37V255.999ZM363.37 200.185H361.453V214.017H363.37V200.185ZM369.489 256.103H367.572V260.143H369.489V256.103ZM369.489 197.642H367.572V201.675H369.489V197.642ZM357.243 53.6972H355.326V148.22H357.243V53.6972ZM363.37 55.1718H361.453V136.711H363.37V55.1718ZM369.489 54.2207H367.572V135.752H369.489V54.2207ZM436.841 33.4507H434.924V85.9544H436.841V33.4507ZM442.96 30.214H441.043V107.978H442.96V30.214ZM449.08 29.3808H447.17V104.151H449.08V29.3808ZM461.326 27.2352H459.409V71.5916H461.326V27.2352ZM467.475 23.5929H465.558V66.7991H467.475V23.5929ZM522.551 44.5546H520.634V126.167H522.551V44.5546ZM528.671 45.5426H526.754V119.45H528.671V45.5426ZM534.79 37.2847H532.873V110.145H534.79V37.2847ZM540.91 41.3842H538.993V80.9775H540.902L540.91 41.3842ZM547.036 42.6376H545.12V82.2015H547.036V42.6376ZM553.156 44.3334H551.239V80.9775H553.156V44.3334ZM559.283 46.6854H557.366V83.1231H559.283V46.6854ZM553.156 30.6268H551.239V32.1531H553.156V30.6268ZM547.036 30.6268H545.12V32.1531H547.036V30.6268ZM534.79 29.9854H532.873V31.5116H534.79V29.9854ZM540.91 31.3789H539H540.91ZM540.91 101.556H538.993V108.855H540.902L540.91 101.556ZM540.91 38.2948H539H540.91ZM455.273 11.7075H453.356V18.4539H455.273V11.7075ZM461.326 15.3572H459.409V21.0935H461.326V15.3572ZM449.08 13.1453H447.17V17.0088H449.08V13.1453ZM467.475 18.2548H465.558V20.5995H467.475V18.2548ZM32.7532 71.5916H30.8363V91.9782H32.7532V71.5916ZM38.8727 80.2402H36.9558V99.7641H38.8727V80.2402ZM45.007 93.615H43.0901V108.722H45.007V93.615ZM51.1044 102.234H49.1875V137.831H51.1044V102.234ZM277.652 179.496H275.735V210.006H277.652V179.496ZM283.772 174.063H281.862V209.453H283.772V174.063ZM357.243 152.032H355.326V193.896H357.243V152.032ZM363.37 154.583H361.453V193.741H363.37V154.583ZM375.609 53.6972H373.699V76.3767H375.609V53.6972ZM430.714 36.1272H428.797V85.0106H430.714V36.1272ZM455.207 29.3661H453.29V105.11H455.207V29.3661Z" fill="#1CDBBC" fill-opacity="0.6"/>
<path opacity="0.2" d="M32.7544 67.7588H30.8374V48.7658H32.7544V67.7588ZM38.8739 46.952H36.9569V77.3364H38.8739V46.952ZM45.0082 47.9621H43.0912V90.7259H45.0082V47.9621ZM51.1056 49.5178H49.1886V99.3598H51.1056V49.5178ZM57.203 50.5722H55.3302V146.135H57.2398L57.203 50.5722ZM63.3225 53.6983H61.4055V157.15H63.3225V53.6983ZM69.4199 56.3084H67.5103V157.614H69.4199V56.3084ZM75.5247 56.9646H73.6077V78.3465H75.5247V56.9646ZM143.009 43.8774H141.092V68.6509H143.009V43.8774ZM143.009 73.3107H141.092V129.818H143.009V73.3107ZM149.077 80.2266H147.167V122.99H149.077V80.2266ZM155.204 108.488H153.287V122.976H155.204V108.488ZM155.204 82.0847H153.287V105.243H155.204V82.0847ZM155.204 56.3895H153.287V60.3341H155.204V56.3895ZM155.204 65.6943H153.287V69.6537H155.204V65.6943ZM161.323 57.8715H159.406V61.8087H161.323V57.8715ZM149.077 45.8755H147.167V72.2342H149.077V45.8755ZM161.323 84.9528H159.406V105.229H161.323V84.9528ZM167.45 93.653H165.533V104.573H167.45V93.653ZM161.323 117.461H159.406V119.886H161.323V117.461ZM173.57 106.866H171.653V111.673H173.57V106.866ZM179.689 110.287H177.78V113.059H179.689V110.287ZM155.204 18.3076H153.287V27.465H155.204V18.3076ZM149.077 18.8163H147.167V27.9663H149.077V18.8163ZM75.6131 38.7236H73.6962V51.6118H75.6131V38.7236ZM69.4199 40.4268H67.5103V52.8578H69.4199V40.4268ZM63.3667 35.8776H61.4498V50.8966H63.3667V35.8776ZM57.2398 34.0049H55.3302V43.376H57.2398V34.0049ZM51.1203 34.0049H49.2033V43.376H51.1203V34.0049ZM51.1203 25.4447H49.2033V28.9101H51.1203V25.4447ZM57.2177 22.348H55.3302V25.8134H57.2398L57.2177 22.348ZM63.3667 21.9425H61.4498V30.8418H63.3667V21.9425ZM69.4862 19.6421H67.5693V24.3314H69.4862V19.6421ZM69.4862 29.1165H67.5693V33.791H69.4862V29.1165ZM75.6131 26.5654H73.6962V31.2547H75.6131V26.5654ZM136.808 332.187H134.958V342.31H136.875L136.808 332.187ZM155.174 348.828H153.257V350.413H155.174V348.828ZM167.421 342.192H165.504V343.777H167.421V342.192ZM142.928 302.598H141.011V348.82H142.928V302.598ZM149.055 196.979H147.138V352.44H149.055V196.979ZM155.174 200.725H153.257V276.535H155.174V200.725ZM161.294 200.909H159.384V263.123H161.294V200.909ZM167.421 202.811H165.504V265.04H167.421V202.811ZM173.54 204.456H171.623V254.504H173.54V204.456ZM69.4199 161.529H67.5103V167.052H69.4199V161.529ZM277.653 99.4704H275.736V104.676H277.653V99.4704ZM265.407 123.883H263.49V140.767H265.407V123.883ZM271.534 124.871H269.617V139.823H271.534V124.871ZM277.653 108.097H275.736V131.344H277.653V108.097ZM283.773 103.223H281.863V124.871H283.773V103.223ZM289.9 71.1135H287.983V85.1887H289.9V71.1135ZM296.019 68.4813H294.102V82.5565H296.019V68.4813ZM289.9 99.9717H287.983V123.883H289.9V99.9717ZM296.019 86.7002H294.102V125.365H296.019V86.7002ZM302.146 96.9782H300.229V121.309H302.146V96.9782ZM302.146 126.589H300.229V131.352H302.146V126.589ZM534.799 229.553H532.882V242.257H534.799V229.553ZM540.925 231.493H538.994V241.21H540.911L540.925 231.493ZM547.045 237.17H545.128V245.007H547.045V237.17ZM553.164 234.073H551.255V236.174H553.164V234.073ZM559.291 232.466H557.374V233.601H559.291V232.466ZM565.411 238.866H563.501V241.21H565.411V238.866ZM571.538 244.145H569.621V246.209H571.538V244.145ZM498.067 170.768H496.15V173.658H498.067V170.768ZM498.067 151.288H496.15V161.942H498.067V151.288ZM308.266 131.02H306.349V134.61H308.266V131.02ZM302.146 138.127H300.229V140.339H302.146V138.127ZM302.146 61.2852H300.229V91.6844H302.146V61.2852ZM308.266 95.7101H306.349V125.94H308.266V95.7101ZM308.266 52.7841H306.349V83.0137H308.266V52.7841ZM314.385 48.1612H312.476V67.1837H314.385V48.1612ZM302.146 15.3952H300.229V23.137H302.146V15.3952ZM308.266 15.1519H306.349V26.418H308.266V15.1519ZM314.385 12.8147H312.476V24.3535H314.385V12.8147ZM320.512 13.8027H318.595V25.8281H320.512V13.8027ZM326.632 13.8027H324.715V17.3639H326.654L326.632 13.8027ZM277.653 141.947H275.736V175.981H277.653V141.947ZM283.773 140.509H281.863V171.188H283.773V140.509ZM289.9 140.111H287.983V212.957H289.9V140.111ZM296.019 141.799H294.102V228.44H296.019V141.799ZM302.146 151.591H300.229V272.597H302.146V151.591ZM400.103 45.1382H398.171V48.8247H400.088L400.103 45.1382ZM406.222 37.8462H404.313V59.5452H406.222V37.8462ZM412.349 44.7401H410.432V52.2606H412.349V44.7401ZM418.469 43.7668H416.559V51.3021H418.469V43.7668ZM375.61 81.163H373.7V140.546H375.61V81.163ZM381.737 53.8384H379.82V141.504H381.737V53.8384ZM400.103 54.9518H398.171V152.033H400.088L400.103 54.9518ZM406.222 61.7866H404.313V95.5331H406.222V61.7866ZM412.349 60.0687H410.432V86.914H412.349V60.0687ZM455.208 111.813H453.291V187.755H455.208V111.813ZM485.82 111.813H483.903V174.314H485.82V111.813ZM491.94 109.896H490.023V170.768H491.94V109.896ZM534.799 249.158H532.882V308.755H534.799V249.158ZM540.918 252.801H538.994V308.674H540.903L540.918 252.801ZM547.045 266.286H545.128V308.674H547.045V266.286ZM553.164 273.836H551.247V299.347H553.164V273.836ZM565.411 46.4875H563.494V75.9798H565.411V46.4875ZM571.53 49.8348H569.621V77.0415H571.53V49.8348ZM571.53 81.8045H569.621V97.6639H571.53V81.8045ZM565.411 88.9932H563.494V104.845H565.411V88.9932ZM577.657 49.8348H575.74V81.8045H577.657V49.8348ZM583.777 50.5722H581.86V80.728H583.777V50.5722ZM589.904 48.5372H587.987V80.4036H589.904V48.5372ZM596.023 49.1492H594.106V75.4784H596.023V49.1492ZM602.143 50.6238H600.233V72.8683H602.143V50.6238ZM608.299 53.2191H606.382V65.1708H608.299V53.2191ZM614.419 57.1637H612.502V63.7257H614.419V57.1637ZM620.546 60.1571H618.621V68.1717H620.538L620.546 60.1571ZM626.665 71.261H624.748V72.7872H626.665V71.261ZM608.299 45.7207H606.382V47.2469H608.299V45.7207ZM620.546 79.2903H618.621V80.8165H620.538L620.546 79.2903ZM632.792 97.6639H630.875V98.3202H632.792V97.6639ZM632.792 79.7253H630.875V80.3815H632.792V79.7253ZM639 93.9848H637.054V94.641H638.971L639 93.9848ZM626.665 100.746H624.748V101.402H626.665V100.746ZM614.419 101.955H612.502V102.611H614.419V101.955ZM608.299 103.164H606.382V103.835H608.299V103.164ZM602.187 102.287H600.277V102.943H602.187V102.287ZM589.933 99.2492H588.016V99.9054H589.933V99.2492ZM547.045 315.376H545.128V321.916H547.045V315.376ZM540.918 315.376H538.994V317.713H540.903L540.918 315.376ZM75.5247 120.432H73.6077V165.194H75.5247V120.432ZM179.697 227.703H177.78V249.726H179.697V227.703ZM308.266 154.112H306.349V270.253H308.266V154.112ZM314.385 151.598H312.476V263.13H314.385V151.598ZM387.849 49.1934H385.939V146.289H387.849V49.1934ZM393.976 50.3288H392.059V146.083H393.976V50.3288ZM418.469 53.6983H416.559V77.3364H418.469V53.6983ZM424.596 42.742H422.679V71.5928H424.596V42.742ZM442.961 113.745H441.045V175.007H442.961V113.745ZM449.081 110.869H447.171V182.69H449.081V110.869ZM461.327 79.2681H459.41V194.288H461.327V79.2681ZM467.454 73.5171H465.537V200.732H467.476L467.454 73.5171ZM473.574 115.662H471.657V178.215H473.574V115.662ZM479.693 109.911H477.798V182.69H479.708L479.693 109.911Z" fill="#1CDBBC" fill-opacity="0.6"/>
<path opacity="0.2" d="M-59.083 102.707H-61V102.014H-59.083V102.707ZM-52.9635 102.707H-54.8805V103.555H-52.9635V102.707ZM-46.8366 100.731H-48.7536V102.419H-46.8366V100.731ZM-40.7171 99.5217H-42.6341V101.21H-40.7171V99.5217ZM-34.5976 97.5236H-36.5072V99.212H-34.6197L-34.5976 97.5236ZM-34.5976 69.823H-36.5072V70.9363H-34.6197L-34.5976 69.823ZM-40.7171 67.6774H-42.6341V68.7907H-40.7171V67.6774ZM-28.4707 70.6266H-30.3876V78.2799H-28.4707V70.6266ZM-28.4707 59.2131H-30.3876V65.4139H-28.4707V59.2131ZM-28.4707 52.5774H-30.3876V55.0252H-28.4707V52.5774ZM-28.4707 93.4758H-30.3876V96.543H-28.4707V93.4758ZM-22.3512 47.6743H-24.2976V58.2104H-22.3807L-22.3512 47.6743ZM-22.3512 68.7686H-24.2976V81.6641H-22.3807L-22.3512 68.7686ZM-22.3512 61.2112H-24.2976V65.3991H-22.3807L-22.3512 61.2112ZM-22.3512 89.9662H-24.2976V94.1541H-22.3807L-22.3512 89.9662ZM-16.2243 86.3239H-18.1412V90.5634H-16.2243V86.3239ZM-16.1874 45.5877H-18.1044V82.3498H-16.1874V45.5877ZM-10.0679 45.6762H-11.9848V84.982H-10.0679V45.6762ZM-3.94098 45.6762H-5.86531V80.6835H-3.94836L-3.94098 45.6762ZM2.17854 46.4135H0.261578V78.2799H2.17854V46.4135ZM8.29807 46.4135H6.3811V77.2329H8.29807V46.4135ZM14.425 47.9913H12.508V78.678H14.425V47.9913ZM81.6586 53.0861H79.7416V171.158H81.6586V53.0861ZM87.8445 55.1727H85.9349V183.7H87.8445V55.1727ZM106.203 44.9905H104.286V72.6395H106.203V44.9905ZM112.323 51.9875H110.406V67.6405H112.323V51.9875ZM179.667 58.4832H177.757V61.9633H179.667V58.4832ZM161.323 10.2338H159.406V26.9412H161.323V10.2338ZM167.45 6.93806H165.533V28.7771H167.45V6.93806ZM173.569 6.93806H171.652V34.2774H173.569V6.93806ZM179.689 6.09753H177.779V50.3728H179.689V6.09753ZM185.816 4.84411H183.899V72.868H185.831L185.816 4.84411ZM191.935 4.84411H190.018V76.5546H191.935V4.84411ZM198.062 1.27554H196.153V75.2938H198.07L198.062 1.27554ZM204.182 1.8064H202.265V62.5826H204.182V1.8064ZM210.301 0H208.392V61.6831H210.301V0ZM216.428 0H214.511V57.2371H216.428V0ZM222.555 0.0884775H220.638V54.6492H222.555V0.0884775ZM228.675 0.309669H226.758V53.2409H228.675V0.309669ZM247.026 7.85232H245.109V14.7019H247.026V7.85232ZM253.145 7.90393H251.236V9.85042H253.145V7.90393ZM234.787 3.15567H232.87V50.0115H234.787V3.15567ZM240.906 7.04865H238.997V35.2138H240.906V7.04865ZM112.345 39.5713H110.428V42.6385H112.345V39.5713ZM106.203 35.3686H104.286V38.3989H106.203V35.3686ZM106.203 25.7836H104.286V26.9265H106.203V25.7836ZM112.352 29.072H110.435V32.3162H112.352V29.072ZM112.352 12.8513H110.435V19.4649H112.352V12.8513ZM106.203 9.65135H104.286V16.3313H106.203V9.65135ZM100.098 35.6267H98.1887V38.657H100.098V35.6267ZM100.098 30.119H98.1887V32.1023H100.098V30.119ZM100.098 19.7967H98.1887V26.3366H100.098V19.7967ZM93.9787 34.7493H92.0618V43.3758H93.9787V34.7493ZM93.9787 25.8205H92.0618V31.483H93.9787V25.8205ZM87.8519 38.4284H85.9423V39.9842H87.8519V38.4284ZM87.8519 47.3204H85.9423V51.3092H87.8519V47.3204ZM81.7323 40.4265H79.8154V48.3821H81.7323V40.4265ZM81.7323 27.8407H79.8154V30.4213H81.7323V27.8407ZM87.8519 27.1698H85.9423V29.743H87.8519V27.1698ZM87.8519 18.3221H85.9423V19.7303H87.8519V18.3221ZM81.7323 17.1055H79.8154V18.5285H81.7323V17.1055ZM93.9419 20.9543H92.0323V22.3773H93.9419V20.9543ZM93.9419 53.4621H92.0249V185.27H93.9419V53.4621ZM100.098 43.6633H98.1813V159.339H100.098V43.6633ZM106.203 82.3498H104.286V157.15H106.203V82.3498ZM112.323 87.4004H110.406V156.471H112.323V87.4004ZM179.674 252.594H177.757V293.559H179.674V252.594ZM185.794 222.106H183.877V286.178H185.831L185.794 222.106ZM191.913 225.004H190.004V275.318H191.913V225.004ZM198.04 228.462H196.153V272.597H198.07L198.04 228.462ZM204.16 229.649H202.243V259.584H204.16V229.649ZM130.689 201.041H128.772V203.585H130.689V201.041ZM124.569 202.015H122.652V204.558H124.569V202.015ZM118.442 187.269H116.525V200.54H118.435L118.442 187.269ZM112.345 176.091H110.428V193.705H112.345V176.091ZM106.203 182.506H104.286V188.035H106.203V182.506ZM100.076 182.1H98.1592V187.63H100.076V182.1ZM479.671 220.27H477.798V228.44H479.708L479.671 220.27ZM485.798 214.689H483.881V229.981H485.798V214.689ZM491.917 209.594H490V224.886H491.917V209.594ZM491.917 241.866H490V242.943H491.917V241.866ZM498.044 241.947H496.127V243.016H498.044V241.947ZM504.201 244.808H502.284V245.877H504.201V244.808ZM504.164 225.734H502.276V226.803H504.186L504.164 225.734ZM504.164 220.573H502.276V221.649H504.186L504.164 220.573ZM497.978 221.111H496.061V222.187H497.978V221.111ZM504.164 195.6H502.247V208.872H504.164V195.6ZM498.044 182.55H496.127V196.013H498.044V182.55ZM498.044 139.174H496.127V142.064H498.044V139.174ZM491.917 203.652H490V204.109H491.917V203.652ZM498.044 225.889H496.127V229.192H498.044V225.889ZM314.385 92.9818H312.475V134.883H314.385V92.9818ZM320.512 46.9886H318.595V61.543H320.512V46.9886ZM320.512 82.9986H318.595V132.347H320.512V82.9986ZM320.512 137.029H318.595V139.019H320.512V137.029ZM320.512 144.269H318.595V145.426H320.512V144.269ZM338.878 144.844H336.975V146.002H338.892L338.878 144.844ZM320.512 68.2451H318.595V78.1103H320.512V68.2451ZM326.653 46.0817H324.736V77.3361H326.653V46.0817ZM326.653 81.1922H324.736V130.872H326.653V81.1922ZM326.653 133.401H324.736V140.251H326.653V133.401ZM332.78 130.806H330.863V140.907H332.78V130.806ZM338.9 128.594H336.975V141.438H338.892L338.9 128.594ZM332.758 46.9886H330.841V118.367H332.758V46.9886ZM338.878 62.2287H336.975V120.926H338.892L338.878 62.2287ZM308.265 274.625H306.348V296.427H308.265V274.625ZM314.385 265.998H312.475V298.255H314.385V265.998ZM320.512 151.59H318.595V297.857H320.512V151.59ZM326.631 153.109H324.714V295.033H326.653L326.631 153.109ZM332.758 153.846H330.841V289.437H332.758V153.846ZM338.878 154.643H336.975V277.736H338.892L338.878 154.643ZM344.997 130.503H343.088V165.769H344.997V130.503ZM351.124 246.364H349.207V257.423H351.124V246.364ZM424.595 77.3361H422.678V169.271H424.595V77.3361ZM473.573 40.9869H471.656V109.896H473.573V40.9869ZM479.693 36.1133H477.798V102.235H479.708L479.693 36.1133ZM498.066 40.257H496.149V133.062H498.066V40.257ZM504.186 36.622H502.269V133.652H504.186V36.622ZM510.305 41.5915H508.396V146.119H510.305V41.5915ZM516.432 47.0623H514.515V126.824H516.432V47.0623ZM485.82 271.941H483.903V283.318H485.82V271.941ZM491.939 267.65H490.022V300.512H491.939V267.65ZM498.066 265.298H496.149V298.233H498.066V265.298ZM504.186 259.193H502.269V298.233H504.186V259.193ZM583.813 324.813H581.896V332.068H583.813V324.813ZM589.94 319.416H588.023V325.875H589.94V319.416ZM596.06 302.664H594.143V311.512H596.06V302.664ZM596.06 316.887H594.143V319.799H596.06V316.887ZM602.179 308.666H600.27V313.643H602.179V308.666ZM540.984 123.388H538.993V125.726H540.903L540.984 123.388ZM534.865 125.726H532.948V144.527H534.865V125.726ZM528.671 140.081H526.754V146.119H528.671V140.081ZM522.544 144.505H520.627V148.811H522.544V144.505ZM516.425 147.955H514.508V153.529H516.425V147.955ZM547.037 120.926H545.12V122.098H547.037V120.926ZM553.157 116.996H551.24V118.168H553.157V116.996ZM473.529 26.5873H471.612V38.4727H473.529V26.5873ZM479.649 26.3071H477.798V33.9161H479.708L479.649 26.3071ZM485.82 29.3669H483.903V32.3162H485.82V29.3669ZM75.5243 81.1628H73.6074V116.598H75.5243V81.1628ZM155.203 280.368H153.287V324.717H155.203V280.368ZM161.323 266.197H159.413V319.586H161.323V266.197ZM167.45 268.166H165.533V317.271H167.45V268.166ZM173.569 257.379H171.652V313.134H173.569V257.379ZM179.696 211.725H177.779V224.82H179.696V211.725ZM344.997 239.19H343.088V262.725H344.997V239.19ZM430.715 89.8261H428.798V164.486H430.715V89.8261ZM406.222 101.313H404.312V161.647H406.222V101.313ZM412.349 93.6527H410.432V151.118H412.349V93.6527ZM418.468 82.1581H416.559V146.304H418.468V82.1581ZM436.842 91.7431H434.925V161.655H436.842V91.7431ZM485.82 36.8727H483.903V105.155H485.82V36.8727ZM491.939 36.8727H490.022V104.196H491.939V36.8727Z" fill="#1CDBBC" fill-opacity="0.6"/>
</svg>
