<svg width="15" height="14" viewBox="0 0 15 14" fill="none" xmlns="http://www.w3.org/2000/svg">
<path d="M8.16621 0.353333V0.366666V1.7C11.0929 2.06 13.1662 4.72 12.8062 7.64667C12.4995 10.0733 10.5929 12 8.16621 12.2867V13.62C11.8329 13.2533 14.4995 10 14.1329 6.33333C13.8329 3.16667 11.3195 0.666666 8.16621 0.353333ZM6.83288 0.373332C5.53288 0.499999 4.29288 0.999999 3.27954 1.84L4.23288 2.82667C4.97954 2.22667 5.87954 1.84 6.83288 1.70667V0.373332ZM2.33954 2.78C1.49954 3.79333 0.999544 5.02667 0.866211 6.33333H2.19954C2.32621 5.38667 2.69954 4.48667 3.29288 3.73333L2.33954 2.78ZM9.83288 4.66667L6.57954 7.92L5.16621 6.50667L4.45954 7.21333L6.57954 9.33333L10.5395 5.37333L9.83288 4.66667ZM0.872878 7.66667C1.00621 8.97333 1.51954 10.2067 2.34621 11.22L3.29288 10.2667C2.70621 9.51333 2.32621 8.61333 2.20621 7.66667H0.872878ZM4.23288 11.2467L3.27954 12.16C4.28621 13 5.52621 13.5267 6.83288 13.6667V12.3333C5.88621 12.2133 4.98621 11.8333 4.23288 11.2467Z" fill="#006ADC"/>
</svg>
