<svg width="40" height="36" viewBox="0 0 40 36" fill="none" xmlns="http://www.w3.org/2000/svg">
<g clip-path="url(#clip0_932_1857)">
<path d="M1.09978 0.885715C0.772351 0.850749 0.464349 0.712863 0.219858 0.491789C0.195188 0.473043 0.164833 0.463368 0.133892 0.464391C0.10295 0.465414 0.0733141 0.477071 0.0499307 0.497406C0.0265473 0.51774 0.0108356 0.545514 0.00546189 0.576071C8.81464e-05 0.606629 0.00539023 0.638111 0.0204281 0.665234L0.985388 2.33501C0.997355 2.35511 1.01435 2.37175 1.03465 2.38331C1.05496 2.39486 1.0779 2.40093 1.10125 2.40093C1.1246 2.40093 1.14757 2.39486 1.16788 2.38331C1.18819 2.37175 1.20514 2.35511 1.21711 2.33501L2.18211 0.665234C2.19715 0.638111 2.20241 0.606629 2.19704 0.576071C2.19166 0.545514 2.17595 0.51774 2.15257 0.497406C2.12919 0.477071 2.09955 0.465414 2.06861 0.464391C2.03767 0.463368 2.00731 0.473043 1.98264 0.491789C1.73815 0.712863 1.43015 0.850749 1.10272 0.885715" fill="#262626"/>
<path d="M1.09978 4.38106C0.772351 4.3461 0.464349 4.20821 0.219858 3.98714C0.195188 3.96839 0.164833 3.95871 0.133892 3.95974C0.10295 3.96076 0.0733141 3.97242 0.0499307 3.99275C0.0265473 4.01309 0.0108356 4.04086 0.00546189 4.07142C8.81464e-05 4.10197 0.00539023 4.13346 0.0204281 4.16058L0.985388 5.83035C0.997355 5.85045 1.01435 5.8671 1.03465 5.87865C1.05496 5.89021 1.0779 5.89628 1.10125 5.89628C1.1246 5.89628 1.14757 5.89021 1.16788 5.87865C1.18819 5.8671 1.20514 5.85045 1.21711 5.83035L2.18211 4.16058C2.19715 4.13346 2.20241 4.10197 2.19704 4.07142C2.19166 4.04086 2.17595 4.01309 2.15257 3.99275C2.12919 3.97242 2.09955 3.96076 2.06861 3.95974C2.03767 3.95871 2.00731 3.96839 1.98264 3.98714C1.73815 4.20821 1.43015 4.3461 1.10272 4.38106" fill="#262626"/>
<path d="M1.09978 7.88526C0.772718 7.84893 0.465113 7.71123 0.219858 7.49133C0.195188 7.47259 0.164833 7.46291 0.133892 7.46393C0.10295 7.46496 0.0733141 7.47661 0.0499307 7.49695C0.0265473 7.51728 0.0108356 7.54506 0.00546189 7.57562C8.81464e-05 7.60618 0.00539023 7.63765 0.0204281 7.66478L0.985388 9.33455C0.997355 9.35465 1.01435 9.37129 1.03465 9.38285C1.05496 9.3944 1.0779 9.40048 1.10125 9.40048C1.1246 9.40048 1.14757 9.3944 1.16788 9.38285C1.18819 9.37129 1.20514 9.35465 1.21711 9.33455L2.18211 7.66478C2.19715 7.63765 2.20241 7.60618 2.19704 7.57562C2.19166 7.54506 2.17595 7.51728 2.15257 7.49695C2.12919 7.47661 2.09955 7.46496 2.06861 7.46393C2.03767 7.46291 2.00731 7.47259 1.98264 7.49133C1.73739 7.71123 1.42978 7.84893 1.10272 7.88526" fill="#262626"/>
<path d="M1.09978 11.3718C0.772718 11.3355 0.465113 11.1978 0.219858 10.9779C0.195188 10.9591 0.164833 10.9495 0.133892 10.9505C0.10295 10.9515 0.0733141 10.9632 0.0499307 10.9835C0.0265473 11.0038 0.0108356 11.0316 0.00546189 11.0622C8.81464e-05 11.0927 0.00539023 11.1242 0.0204281 11.1513L0.985388 12.8211C0.997355 12.8412 1.01435 12.8578 1.03465 12.8694C1.05496 12.8809 1.0779 12.887 1.10125 12.887C1.1246 12.887 1.14757 12.8809 1.16788 12.8694C1.18819 12.8578 1.20514 12.8412 1.21711 12.8211L2.18211 11.1513C2.19715 11.1242 2.20241 11.0927 2.19704 11.0622C2.19166 11.0316 2.17595 11.0038 2.15257 10.9835C2.12919 10.9632 2.09955 10.9515 2.06861 10.9505C2.03767 10.9495 2.00731 10.9591 1.98264 10.9779C1.73739 11.1978 1.42978 11.3355 1.10272 11.3718" fill="#262626"/>
<path d="M1.09978 14.8671C0.772718 14.8308 0.465113 14.6931 0.219858 14.4732C0.195188 14.4545 0.164833 14.4448 0.133892 14.4458C0.10295 14.4468 0.0733141 14.4585 0.0499307 14.4788C0.0265473 14.4992 0.0108356 14.5269 0.00546189 14.5575C8.81464e-05 14.5881 0.00539023 14.6195 0.0204281 14.6467L0.985388 16.3164C0.997355 16.3365 1.01435 16.3532 1.03465 16.3647C1.05496 16.3763 1.0779 16.3824 1.10125 16.3824C1.1246 16.3824 1.14757 16.3763 1.16788 16.3647C1.18819 16.3532 1.20514 16.3365 1.21711 16.3164L2.18211 14.6467C2.19715 14.6195 2.20241 14.5881 2.19704 14.5575C2.19166 14.5269 2.17595 14.4992 2.15257 14.4788C2.12919 14.4585 2.09955 14.4468 2.06861 14.4458C2.03767 14.4448 2.00731 14.4545 1.98264 14.4732C1.73739 14.6931 1.42978 14.8308 1.10272 14.8671" fill="#262626"/>
<path d="M4.91289 0.885707C4.58546 0.850741 4.27746 0.712855 4.03297 0.491782C4.0083 0.473035 3.97794 0.46336 3.947 0.464383C3.91606 0.465406 3.88642 0.477063 3.86304 0.497398C3.83966 0.517732 3.82395 0.545506 3.81857 0.576063C3.8132 0.606621 3.8185 0.638104 3.83354 0.665226L4.79556 2.335C4.80791 2.35506 4.82519 2.37162 4.84572 2.38311C4.86626 2.39459 4.88938 2.40062 4.91289 2.40062C4.93641 2.40062 4.95953 2.39459 4.98006 2.38311C5.0006 2.37162 5.01787 2.35506 5.03022 2.335L5.99522 0.665226C6.0118 0.637799 6.01809 0.605357 6.01301 0.573695C6.00794 0.542033 5.99182 0.51321 5.96751 0.492369C5.94319 0.471529 5.91228 0.460028 5.88029 0.45992C5.84829 0.459812 5.81727 0.471106 5.79282 0.491782C5.54866 0.713371 5.24048 0.851336 4.91289 0.885707Z" fill="#262626"/>
<path d="M4.91289 4.38105C4.58546 4.34608 4.27746 4.2082 4.03297 3.98712C4.0083 3.96838 3.97794 3.9587 3.947 3.95973C3.91606 3.96075 3.88642 3.97241 3.86304 3.99274C3.83966 4.01307 3.82395 4.04085 3.81857 4.07141C3.8132 4.10196 3.8185 4.13345 3.83354 4.16057L4.79556 5.83034C4.80791 5.8504 4.82519 5.86697 4.84572 5.87845C4.86626 5.88994 4.88938 5.89596 4.91289 5.89596C4.93641 5.89596 4.95953 5.88994 4.98006 5.87845C5.0006 5.86697 5.01788 5.8504 5.03022 5.83034L5.99522 4.16057C6.0118 4.13314 6.01809 4.1007 6.01301 4.06904C6.00794 4.03737 5.99182 4.00855 5.96751 3.98771C5.94319 3.96687 5.91228 3.95537 5.88029 3.95526C5.84829 3.95515 5.81727 3.96645 5.79282 3.98712C5.54866 4.20871 5.24048 4.34668 4.91289 4.38105Z" fill="#262626"/>
<path d="M4.91289 7.88524C4.58583 7.84892 4.27822 7.71121 4.03297 7.49132C4.0083 7.47257 3.97794 7.46289 3.947 7.46392C3.91606 7.46494 3.88642 7.4766 3.86304 7.49693C3.83966 7.51727 3.82395 7.54505 3.81857 7.5756C3.8132 7.60616 3.8185 7.63764 3.83354 7.66476L4.79556 9.33454C4.80791 9.3546 4.82519 9.37116 4.84572 9.38265C4.86626 9.39413 4.88938 9.40016 4.91289 9.40016C4.93641 9.40016 4.95953 9.39413 4.98006 9.38265C5.0006 9.37116 5.01787 9.3546 5.03022 9.33454L5.99522 7.66476C6.0118 7.63733 6.01809 7.6049 6.01301 7.57323C6.00794 7.54157 5.99182 7.51274 5.96751 7.4919C5.94319 7.47106 5.91228 7.45956 5.88029 7.45945C5.84829 7.45935 5.81727 7.47064 5.79282 7.49132C5.54789 7.71171 5.24011 7.8495 4.91289 7.88524Z" fill="#262626"/>
<path d="M4.91289 11.3718C4.58583 11.3355 4.27822 11.1978 4.03297 10.9779C4.0083 10.9591 3.97794 10.9494 3.947 10.9505C3.91606 10.9515 3.88642 10.9631 3.86304 10.9835C3.83966 11.0038 3.82395 11.0316 3.81857 11.0621C3.8132 11.0927 3.8185 11.1242 3.83354 11.1513L4.79556 12.8211C4.80791 12.8411 4.82519 12.8577 4.84572 12.8692C4.86626 12.8807 4.88938 12.8867 4.91289 12.8867C4.93641 12.8867 4.95953 12.8807 4.98006 12.8692C5.0006 12.8577 5.01787 12.8411 5.03022 12.8211L5.99522 11.1513C6.0118 11.1239 6.01809 11.0914 6.01301 11.0598C6.00794 11.0281 5.99182 10.9993 5.96751 10.9784C5.94319 10.9576 5.91228 10.9461 5.88029 10.946C5.84829 10.9459 5.81727 10.9572 5.79282 10.9779C5.54789 11.1983 5.24011 11.336 4.91289 11.3718Z" fill="#262626"/>
<path d="M4.91289 14.8671C4.58583 14.8308 4.27822 14.6931 4.03297 14.4732C4.0083 14.4545 3.97794 14.4448 3.947 14.4458C3.91606 14.4468 3.88642 14.4585 3.86304 14.4788C3.83966 14.4992 3.82395 14.5269 3.81857 14.5575C3.8132 14.5881 3.8185 14.6195 3.83354 14.6467L4.79556 16.3164C4.80791 16.3365 4.82519 16.3531 4.84572 16.3645C4.86626 16.376 4.88938 16.3821 4.91289 16.3821C4.93641 16.3821 4.95953 16.376 4.98006 16.3645C5.0006 16.3531 5.01787 16.3365 5.03022 16.3164L5.99522 14.6467C6.0118 14.6192 6.01809 14.5868 6.01301 14.5551C6.00794 14.5235 5.99182 14.4946 5.96751 14.4738C5.94319 14.453 5.91228 14.4415 5.88029 14.4414C5.84829 14.4412 5.81727 14.4525 5.79282 14.4732C5.54789 14.6936 5.24011 14.8314 4.91289 14.8671Z" fill="#262626"/>
<path d="M8.72905 0.621119C8.40162 0.586153 8.09362 0.448267 7.84913 0.227194C7.82446 0.208447 7.79411 0.198777 7.76316 0.199799C7.73222 0.200822 7.70259 0.212475 7.6792 0.23281C7.65582 0.253144 7.64011 0.280922 7.63473 0.31148C7.62936 0.342037 7.63466 0.373516 7.6497 0.400638L8.61172 2.07042C8.6235 2.0912 8.64056 2.10848 8.66117 2.12051C8.68178 2.13253 8.70521 2.13887 8.72905 2.13887C8.7529 2.13887 8.77633 2.13253 8.79694 2.12051C8.81755 2.10848 8.83461 2.0912 8.84638 2.07042L9.81138 0.400638C9.82796 0.373211 9.83425 0.340774 9.82917 0.309111C9.8241 0.277449 9.80799 0.248626 9.78367 0.227786C9.75935 0.206945 9.72841 0.195444 9.69641 0.195336C9.66442 0.195228 9.63344 0.206518 9.60898 0.227194C9.36482 0.448783 9.05664 0.586748 8.72905 0.621119Z" fill="#262626"/>
<path d="M8.72905 4.18117C8.40162 4.14621 8.09362 4.00832 7.84913 3.78725C7.82446 3.7685 7.79411 3.75883 7.76316 3.75985C7.73222 3.76088 7.70259 3.77253 7.6792 3.79286C7.65582 3.8132 7.64011 3.84098 7.63473 3.87153C7.62936 3.90209 7.63466 3.93357 7.6497 3.96069L8.61172 5.63047C8.6235 5.65125 8.64056 5.66854 8.66117 5.68056C8.68178 5.69259 8.70521 5.69892 8.72905 5.69892C8.7529 5.69892 8.77633 5.69259 8.79694 5.68056C8.81755 5.66854 8.83461 5.65125 8.84638 5.63047L9.81138 3.96069C9.82796 3.93327 9.83425 3.90083 9.82917 3.86917C9.8241 3.8375 9.80799 3.80868 9.78367 3.78784C9.75935 3.767 9.72841 3.7555 9.69641 3.75539C9.66442 3.75528 9.63344 3.76657 9.60898 3.78725C9.36482 4.00884 9.05664 4.1468 8.72905 4.18117Z" fill="#262626"/>
<path d="M8.72905 7.74117C8.40162 7.70621 8.09362 7.56832 7.84913 7.34725C7.82446 7.3285 7.79411 7.31883 7.76316 7.31985C7.73222 7.32087 7.70259 7.33253 7.6792 7.35286C7.65582 7.3732 7.64011 7.40097 7.63473 7.43153C7.62936 7.46209 7.63466 7.49357 7.6497 7.52069L8.61172 9.19047C8.6235 9.21125 8.64056 9.22854 8.66117 9.24056C8.68178 9.25258 8.70521 9.25892 8.72905 9.25892C8.7529 9.25892 8.77633 9.25258 8.79694 9.24056C8.81755 9.22854 8.83461 9.21125 8.84638 9.19047L9.81138 7.52069C9.82796 7.49326 9.83425 7.46083 9.82917 7.42916C9.8241 7.3975 9.80799 7.36868 9.78367 7.34784C9.75935 7.327 9.72841 7.3155 9.69641 7.31539C9.66442 7.31528 9.63344 7.32657 9.60898 7.34725C9.36482 7.56884 9.05664 7.7068 8.72905 7.74117Z" fill="#262626"/>
<path d="M8.72905 11.3012C8.40162 11.2663 8.09362 11.1284 7.84913 10.9073C7.82446 10.8886 7.79411 10.8789 7.76316 10.8799C7.73222 10.8809 7.70259 10.8926 7.6792 10.9129C7.65582 10.9333 7.64011 10.961 7.63473 10.9916C7.62936 11.0221 7.63466 11.0536 7.6497 11.0807L8.61172 12.7505C8.62407 12.7706 8.64135 12.7871 8.66189 12.7986C8.68242 12.8101 8.70554 12.8161 8.72905 12.8161C8.75257 12.8161 8.77569 12.8101 8.79622 12.7986C8.81676 12.7871 8.83404 12.7706 8.84638 12.7505L9.81138 11.0807C9.82796 11.0533 9.83425 11.0209 9.82917 10.9892C9.8241 10.9576 9.80799 10.9287 9.78367 10.9079C9.75935 10.8871 9.72841 10.8756 9.69641 10.8754C9.66442 10.8753 9.63344 10.8866 9.60898 10.9073C9.36482 11.1289 9.05664 11.2669 8.72905 11.3012Z" fill="#262626"/>
<path d="M8.72905 14.8613C8.40199 14.825 8.09439 14.6872 7.84913 14.4674C7.82446 14.4486 7.79411 14.4389 7.76316 14.44C7.73222 14.441 7.70259 14.4526 7.6792 14.473C7.65582 14.4933 7.64011 14.5211 7.63473 14.5516C7.62936 14.5822 7.63466 14.6137 7.6497 14.6408L8.61172 16.3106C8.62407 16.3306 8.64135 16.3472 8.66189 16.3587C8.68242 16.3702 8.70554 16.3762 8.72905 16.3762C8.75257 16.3762 8.77569 16.3702 8.79622 16.3587C8.81676 16.3472 8.83404 16.3306 8.84638 16.3106L9.81138 14.6408C9.82796 14.6134 9.83425 14.5809 9.82917 14.5493C9.8241 14.5176 9.80799 14.4888 9.78367 14.4679C9.75935 14.4471 9.72841 14.4356 9.69641 14.4355C9.66442 14.4354 9.63344 14.4467 9.60898 14.4674C9.36405 14.6878 9.05628 14.8255 8.72905 14.8613Z" fill="#262626"/>
<path d="M8.72905 18.4213C8.40199 18.385 8.09439 18.2473 7.84913 18.0274C7.82446 18.0086 7.79411 17.9989 7.76316 18C7.73222 18.001 7.70259 18.0126 7.6792 18.033C7.65582 18.0533 7.64011 18.0811 7.63473 18.1116C7.62936 18.1422 7.63466 18.1737 7.6497 18.2008L8.61172 19.8706C8.62407 19.8906 8.64135 19.9072 8.66189 19.9187C8.68242 19.9302 8.70554 19.9362 8.72905 19.9362C8.75257 19.9362 8.77569 19.9302 8.79622 19.9187C8.81676 19.9072 8.83404 19.8906 8.84638 19.8706L9.81138 18.2008C9.82796 18.1734 9.83425 18.1409 9.82917 18.1093C9.8241 18.0776 9.80799 18.0488 9.78367 18.0279C9.75935 18.0071 9.72841 17.9956 9.69641 17.9955C9.66442 17.9954 9.63344 18.0067 9.60898 18.0274C9.36405 18.2478 9.05628 18.3855 8.72905 18.4213Z" fill="#262626"/>
<path d="M8.72905 21.9784C8.40223 21.9433 8.09455 21.8066 7.84913 21.5874C7.82446 21.5687 7.79411 21.559 7.76316 21.56C7.73222 21.561 7.70259 21.5727 7.6792 21.593C7.65582 21.6134 7.64011 21.6411 7.63473 21.6717C7.62936 21.7023 7.63466 21.7337 7.6497 21.7609L8.61172 23.4306C8.62407 23.4507 8.64135 23.4673 8.66189 23.4787C8.68242 23.4902 8.70554 23.4963 8.72905 23.4963C8.75257 23.4963 8.77569 23.4902 8.79622 23.4787C8.81676 23.4673 8.83404 23.4507 8.84638 23.4306L9.81138 21.7609C9.82796 21.7334 9.83425 21.701 9.82917 21.6693C9.8241 21.6377 9.80799 21.6088 9.78367 21.588C9.75935 21.5672 9.72841 21.5557 9.69641 21.5556C9.66442 21.5554 9.63344 21.5667 9.60898 21.5874C9.36389 21.8071 9.05604 21.9439 8.72905 21.9784Z" fill="#262626"/>
<path d="M8.62926 25.5237C8.31202 25.4505 8.0221 25.2884 7.79334 25.0563C7.68482 24.9593 7.50003 25.0739 7.57629 25.1974C7.71781 25.4705 7.8441 25.7511 7.95464 26.0382L8.12184 26.4762C8.17757 26.6261 8.23621 26.7702 8.27727 26.926C8.28406 26.9489 8.29683 26.9696 8.31422 26.986C8.33161 27.0024 8.35304 27.0139 8.3763 27.0193C8.39956 27.0246 8.42382 27.0237 8.44662 27.0166C8.46942 27.0096 8.48992 26.9965 8.50606 26.9789C8.62338 26.8613 8.72016 26.7349 8.82575 26.6114L9.13668 26.2263C9.35373 25.9676 9.53264 25.6942 9.72329 25.412C9.7424 25.3866 9.75215 25.3553 9.7509 25.3235C9.74965 25.2917 9.7375 25.2612 9.71646 25.2374C9.69541 25.2135 9.66678 25.1977 9.63543 25.1925C9.60408 25.1874 9.57191 25.1933 9.54438 25.2092C9.28375 25.4171 8.95939 25.5282 8.62632 25.5237" fill="#262626"/>
<path d="M7.78121 28.9809C7.4932 28.8308 7.25404 28.6013 7.09195 28.3194C7.07623 28.2941 7.05245 28.2749 7.02446 28.2648C6.99646 28.2548 6.96588 28.2545 6.9377 28.264C6.90953 28.2735 6.8854 28.2923 6.86921 28.3173C6.85302 28.3423 6.8457 28.3721 6.84848 28.4017C6.90421 28.6957 6.95701 28.9897 7.00688 29.3131C7.05674 29.6364 7.06848 29.9304 7.09195 30.2538C7.09327 30.2774 7.10075 30.3004 7.11368 30.3202C7.12661 30.34 7.14454 30.3561 7.16563 30.3668C7.18672 30.3776 7.21026 30.3825 7.23387 30.3813C7.25749 30.38 7.28036 30.3725 7.30018 30.3596C7.56416 30.1803 7.834 29.9921 8.10385 29.7922C8.37369 29.5923 8.61714 29.3748 8.87818 29.1514C8.9066 29.1326 8.92707 29.1039 8.93565 29.0709C8.94423 29.0379 8.94028 29.0028 8.92462 28.9725C8.90896 28.9422 8.88269 28.9188 8.85083 28.9068C8.81897 28.8947 8.78376 28.895 8.75205 28.9074C8.44688 29.0446 8.10348 29.0706 7.78121 28.9809Z" fill="#262626"/>
<path d="M6.10651 32.1088C5.86351 31.8883 5.68675 31.6043 5.59616 31.2886C5.54336 31.1534 5.34391 31.171 5.34098 31.3121C5.33805 31.4532 5.32335 31.6061 5.31162 31.7678L5.26472 32.2293C5.23539 32.5439 5.17379 32.8437 5.11513 33.1612C5.11045 33.1843 5.11187 33.2082 5.11924 33.2306C5.12662 33.2529 5.13968 33.273 5.15716 33.2887C5.17465 33.3045 5.19595 33.3154 5.21892 33.3203C5.2419 33.3253 5.26577 33.3241 5.28817 33.317C5.58148 33.2112 5.90998 33.1054 6.20623 32.9672L6.66377 32.7643C6.81629 32.6938 6.97469 32.6262 7.11841 32.5439C7.14678 32.5298 7.16957 32.5065 7.18311 32.4778C7.19665 32.4491 7.20015 32.4166 7.19303 32.3857C7.1859 32.3548 7.16858 32.3272 7.14387 32.3073C7.11915 32.2875 7.0885 32.2766 7.05683 32.2763C6.73025 32.3347 6.39361 32.2753 6.10651 32.1088Z" fill="#262626"/>
<path d="M3.69839 34.7105C3.5156 34.4389 3.41385 34.1207 3.40508 33.7933C3.4035 33.7636 3.39203 33.7354 3.3725 33.7131C3.35297 33.6908 3.32653 33.6757 3.29742 33.6703C3.26831 33.6648 3.23825 33.6694 3.21203 33.6831C3.1858 33.6969 3.16495 33.7191 3.15284 33.7462L3.01499 34.1872C2.9622 34.3312 2.90645 34.4811 2.85072 34.6164C2.7334 34.9104 2.61904 35.2043 2.47532 35.4983C2.46506 35.5195 2.4605 35.543 2.46211 35.5665C2.46371 35.59 2.47141 35.6127 2.48445 35.6323C2.49749 35.6519 2.5154 35.6678 2.53644 35.6783C2.55747 35.6888 2.58088 35.6937 2.60436 35.6923C2.93286 35.6776 3.24965 35.6276 3.57816 35.5806L4.07677 35.5071L4.56661 35.3984C4.59934 35.3935 4.62923 35.3771 4.65085 35.352C4.67248 35.3269 4.6844 35.2948 4.6844 35.2617C4.6844 35.2285 4.67248 35.1964 4.65085 35.1713C4.62923 35.1462 4.59934 35.1298 4.56661 35.125C4.23549 35.0974 3.92433 34.9549 3.68668 34.7222" fill="#262626"/>
<path d="M12.5446 0.621119C12.2169 0.587148 11.9086 0.44913 11.6647 0.227194C11.6402 0.206518 11.6092 0.195228 11.5772 0.195336C11.5452 0.195444 11.5143 0.206945 11.49 0.227786C11.4656 0.248626 11.4495 0.277449 11.4445 0.309111C11.4394 0.340774 11.4457 0.373211 11.4623 0.400638L12.4272 2.07042C12.439 2.0912 12.4561 2.10848 12.4767 2.12051C12.4973 2.13253 12.5207 2.13887 12.5446 2.13887C12.5684 2.13887 12.5919 2.13253 12.6125 2.12051C12.6331 2.10848 12.6501 2.0912 12.6619 2.07042L13.624 0.400638C13.639 0.373516 13.6443 0.342037 13.6389 0.31148C13.6335 0.280922 13.6178 0.253144 13.5944 0.23281C13.571 0.212475 13.5414 0.200822 13.5105 0.199799C13.4795 0.198777 13.4492 0.208447 13.4245 0.227194C13.18 0.448267 12.872 0.586153 12.5446 0.621119Z" fill="#262626"/>
<path d="M12.5446 4.18117C12.2169 4.1472 11.9086 4.00919 11.6647 3.78725C11.6402 3.76657 11.6092 3.75528 11.5772 3.75539C11.5452 3.7555 11.5143 3.767 11.49 3.78784C11.4656 3.80868 11.4495 3.8375 11.4445 3.86917C11.4394 3.90083 11.4457 3.93327 11.4623 3.96069L12.4272 5.63047C12.439 5.65125 12.4561 5.66854 12.4767 5.68056C12.4973 5.69259 12.5207 5.69892 12.5446 5.69892C12.5684 5.69892 12.5919 5.69259 12.6125 5.68056C12.6331 5.66854 12.6501 5.65125 12.6619 5.63047L13.624 3.96069C13.639 3.93357 13.6443 3.90209 13.6389 3.87153C13.6335 3.84098 13.6178 3.8132 13.5944 3.79286C13.571 3.77253 13.5414 3.76088 13.5105 3.75985C13.4795 3.75883 13.4492 3.7685 13.4245 3.78725C13.18 4.00832 12.872 4.14621 12.5446 4.18117Z" fill="#262626"/>
<path d="M12.5446 7.74117C12.2169 7.7072 11.9086 7.56918 11.6647 7.34725C11.6402 7.32657 11.6092 7.31528 11.5772 7.31539C11.5452 7.3155 11.5143 7.327 11.49 7.34784C11.4656 7.36868 11.4495 7.3975 11.4445 7.42916C11.4394 7.46083 11.4457 7.49326 11.4623 7.52069L12.4272 9.19047C12.439 9.21125 12.4561 9.22854 12.4767 9.24056C12.4973 9.25258 12.5207 9.25892 12.5446 9.25892C12.5684 9.25892 12.5919 9.25258 12.6125 9.24056C12.6331 9.22854 12.6501 9.21125 12.6619 9.19047L13.624 7.52069C13.639 7.49357 13.6443 7.46209 13.6389 7.43153C13.6335 7.40097 13.6178 7.3732 13.5944 7.35286C13.571 7.33253 13.5414 7.32087 13.5105 7.31985C13.4795 7.31883 13.4492 7.3285 13.4245 7.34725C13.18 7.56832 12.872 7.70621 12.5446 7.74117Z" fill="#262626"/>
<path d="M12.5446 11.3012C12.2169 11.2673 11.9086 11.1292 11.6647 10.9073C11.6402 10.8866 11.6092 10.8753 11.5772 10.8754C11.5452 10.8756 11.5143 10.8871 11.49 10.9079C11.4656 10.9287 11.4495 10.9576 11.4445 10.9892C11.4394 11.0209 11.4457 11.0533 11.4623 11.0807L12.4272 12.7505C12.4396 12.7706 12.4569 12.7871 12.4774 12.7986C12.4979 12.8101 12.5211 12.8161 12.5446 12.8161C12.5681 12.8161 12.5912 12.8101 12.6117 12.7986C12.6323 12.7871 12.6496 12.7706 12.6619 12.7505L13.624 11.0807C13.639 11.0536 13.6443 11.0221 13.6389 10.9916C13.6335 10.961 13.6178 10.9333 13.5944 10.9129C13.571 10.8926 13.5414 10.8809 13.5105 10.8799C13.4795 10.8789 13.4492 10.8886 13.4245 10.9073C13.18 11.1284 12.872 11.2663 12.5446 11.3012Z" fill="#262626"/>
<path d="M12.5446 14.8613C12.2172 14.8261 11.9093 14.6883 11.6647 14.4674C11.6402 14.4467 11.6092 14.4354 11.5772 14.4355C11.5452 14.4356 11.5143 14.4471 11.49 14.4679C11.4656 14.4888 11.4495 14.5176 11.4445 14.5493C11.4394 14.5809 11.4457 14.6134 11.4623 14.6408L12.4272 16.3106C12.4396 16.3306 12.4569 16.3472 12.4774 16.3587C12.4979 16.3702 12.5211 16.3762 12.5446 16.3762C12.5681 16.3762 12.5912 16.3702 12.6117 16.3587C12.6323 16.3472 12.6496 16.3306 12.6619 16.3106L13.624 14.6408C13.639 14.6137 13.6443 14.5822 13.6389 14.5516C13.6335 14.5211 13.6178 14.4933 13.5944 14.473C13.571 14.4526 13.5414 14.441 13.5105 14.44C13.4795 14.4389 13.4492 14.4486 13.4245 14.4674C13.1792 14.6872 12.8716 14.825 12.5446 14.8613Z" fill="#262626"/>
<path d="M12.5446 18.4183C12.2174 18.3844 11.9094 18.2475 11.6647 18.0274C11.6402 18.0067 11.6092 17.9954 11.5772 17.9955C11.5452 17.9956 11.5143 18.0071 11.49 18.0279C11.4656 18.0488 11.4495 18.0776 11.4445 18.1093C11.4394 18.1409 11.4457 18.1734 11.4623 18.2008L12.4272 19.8706C12.4396 19.8906 12.4569 19.9072 12.4774 19.9187C12.4979 19.9302 12.5211 19.9362 12.5446 19.9362C12.5681 19.9362 12.5912 19.9302 12.6117 19.9187C12.6323 19.9072 12.6496 19.8906 12.6619 19.8706L13.624 18.2008C13.639 18.1737 13.6443 18.1422 13.6389 18.1116C13.6335 18.0811 13.6178 18.0533 13.5944 18.033C13.571 18.0126 13.5414 18.001 13.5105 18C13.4795 17.9989 13.4492 18.0086 13.4245 18.0274C13.1791 18.2465 12.8714 18.3832 12.5446 18.4183Z" fill="#262626"/>
<path d="M12.5446 21.9784C12.2174 21.9445 11.9094 21.8076 11.6647 21.5874C11.6402 21.5667 11.6092 21.5554 11.5772 21.5556C11.5452 21.5557 11.5143 21.5672 11.49 21.588C11.4656 21.6088 11.4495 21.6377 11.4445 21.6693C11.4394 21.701 11.4457 21.7334 11.4623 21.7609L12.4272 23.4277C12.439 23.4485 12.4561 23.4658 12.4767 23.4778C12.4973 23.4898 12.5207 23.4961 12.5446 23.4961C12.5684 23.4961 12.5919 23.4898 12.6125 23.4778C12.6331 23.4658 12.6501 23.4485 12.6619 23.4277L13.624 21.7609C13.639 21.7337 13.6443 21.7023 13.6389 21.6717C13.6335 21.6411 13.6178 21.6134 13.5944 21.593C13.571 21.5727 13.5414 21.561 13.5105 21.56C13.4795 21.559 13.4492 21.5687 13.4245 21.5874C13.1791 21.8066 12.8714 21.9433 12.5446 21.9784Z" fill="#262626"/>
<path d="M12.4423 25.5237C12.1256 25.4492 11.836 25.2873 11.6064 25.0563C11.5008 24.9593 11.3306 25.071 11.3922 25.1974C11.5213 25.4679 11.665 25.7501 11.7706 26.0382L11.9378 26.4762C11.9935 26.6232 12.0522 26.7702 12.0932 26.926C12.1 26.9489 12.1128 26.9696 12.1302 26.986C12.1476 27.0024 12.169 27.0139 12.1923 27.0193C12.2155 27.0247 12.2398 27.0238 12.2626 27.0167C12.2854 27.0096 12.3059 26.9965 12.322 26.9789C12.4364 26.8613 12.5361 26.7349 12.6417 26.6114L12.9527 26.2263C13.1697 25.9676 13.3486 25.6942 13.5393 25.412C13.5597 25.3865 13.5705 25.3544 13.5696 25.3217C13.5686 25.2889 13.5561 25.2576 13.5343 25.2332C13.5124 25.2088 13.4827 25.193 13.4503 25.1886C13.4179 25.1842 13.385 25.1915 13.3574 25.2092C13.097 25.4175 12.7725 25.5287 12.4394 25.5237" fill="#262626"/>
<path d="M11.5974 28.9809C11.3088 28.8316 11.0694 28.6019 10.9081 28.3194C10.8924 28.2941 10.8686 28.2749 10.8406 28.2648C10.8126 28.2548 10.782 28.2545 10.7539 28.264C10.7257 28.2735 10.7016 28.2923 10.6854 28.3173C10.6692 28.3423 10.6619 28.3721 10.6646 28.4017C10.7204 28.6957 10.7732 28.9897 10.8201 29.3131C10.867 29.6364 10.8817 29.9304 10.9081 30.2538C10.9094 30.2774 10.9169 30.3004 10.9298 30.3202C10.9428 30.34 10.9607 30.3561 10.9818 30.3668C11.0029 30.3776 11.0264 30.3825 11.05 30.3813C11.0737 30.38 11.0965 30.3725 11.1163 30.3596C11.3803 30.1774 11.6502 29.9921 11.92 29.7922C12.1899 29.5923 12.4304 29.3748 12.6914 29.1514C12.7185 29.1323 12.7378 29.104 12.7459 29.0718C12.7539 29.0396 12.7501 29.0056 12.7351 28.976C12.7202 28.9463 12.6951 28.9231 12.6644 28.9105C12.6338 28.8979 12.5996 28.8968 12.5682 28.9074C12.2624 29.042 11.9199 29.0679 11.5974 28.9809Z" fill="#262626"/>
<path d="M9.92275 32.1087C9.67939 31.8881 9.50173 31.6042 9.40946 31.2885C9.40103 31.2598 9.38285 31.2348 9.35808 31.2179C9.33331 31.2011 9.30346 31.1934 9.27365 31.1962C9.24384 31.199 9.21592 31.212 9.19467 31.2332C9.17342 31.2543 9.16017 31.2822 9.15718 31.3121C9.15718 31.4679 9.13959 31.606 9.12492 31.7677L9.07802 32.2293C9.05162 32.5438 8.98709 32.8437 8.92843 33.1612C8.9244 33.1844 8.92636 33.2083 8.93416 33.2306C8.94196 33.2528 8.95533 33.2727 8.97297 33.2884C8.99062 33.304 9.01198 33.3148 9.03498 33.3198C9.05799 33.3248 9.08189 33.3239 9.10441 33.317C9.39772 33.2111 9.72622 33.1053 10.0225 32.9671L10.4771 32.7643C10.6325 32.6938 10.7909 32.6261 10.9346 32.5438C10.9633 32.5296 10.9862 32.5061 10.9997 32.4771C11.0132 32.4481 11.0164 32.4153 11.0089 32.3842C11.0014 32.3531 10.9836 32.3255 10.9584 32.3059C10.9332 32.2863 10.9021 32.2759 10.8701 32.2763C10.5445 32.3347 10.2088 32.2753 9.92275 32.1087Z" fill="#262626"/>
<path d="M7.51163 34.7104C7.33086 34.4379 7.2293 34.1203 7.21832 33.7932C7.21832 33.6492 7.00421 33.6139 6.96608 33.7462L6.82823 34.1871C6.77544 34.3312 6.71973 34.4811 6.66106 34.6163C6.55158 34.9168 6.42625 35.2112 6.28562 35.4983C6.27494 35.5195 6.27016 35.5432 6.2718 35.567C6.27344 35.5907 6.28146 35.6136 6.29497 35.6331C6.30848 35.6527 6.32698 35.6682 6.34857 35.6781C6.37015 35.688 6.394 35.6919 6.4176 35.6893C6.74388 35.6704 7.06895 35.6341 7.3914 35.5806C7.55565 35.5571 7.72282 35.5335 7.88707 35.5042L8.37985 35.3983C8.41258 35.3935 8.44247 35.377 8.46409 35.3519C8.48572 35.3268 8.49764 35.2948 8.49764 35.2616C8.49764 35.2285 8.48572 35.1964 8.46409 35.1713C8.44247 35.1462 8.41258 35.1297 8.37985 35.1249C8.04892 35.0966 7.73799 34.9543 7.49992 34.7222" fill="#262626"/>
<path d="M16.3606 0.624076C16.0329 0.590105 15.7246 0.452087 15.4807 0.230151C15.4562 0.209475 15.4253 0.198181 15.3933 0.198289C15.3613 0.198397 15.3303 0.209898 15.306 0.230738C15.2817 0.251579 15.2656 0.280402 15.2605 0.312064C15.2554 0.343726 15.2617 0.376168 15.2783 0.403595L16.2433 2.07337C16.2551 2.09415 16.2721 2.11144 16.2927 2.12346C16.3133 2.13548 16.3368 2.14182 16.3606 2.14182C16.3845 2.14182 16.4079 2.13548 16.4285 2.12346C16.4491 2.11144 16.4662 2.09415 16.478 2.07337L17.44 0.403595C17.455 0.376473 17.4603 0.34499 17.4549 0.314432C17.4496 0.283875 17.4339 0.256101 17.4105 0.235767C17.3871 0.215432 17.3575 0.203775 17.3265 0.202752C17.2956 0.201729 17.2652 0.211404 17.2405 0.230151C16.9961 0.451225 16.6881 0.58911 16.3606 0.624076Z" fill="#262626"/>
<path d="M16.3606 4.18703C16.0329 4.15306 15.7246 4.01504 15.4807 3.7931C15.4562 3.77242 15.4253 3.76113 15.3933 3.76124C15.3613 3.76135 15.3303 3.77285 15.306 3.79369C15.2817 3.81453 15.2656 3.84336 15.2605 3.87502C15.2554 3.90668 15.2617 3.93912 15.2783 3.96654L16.2433 5.63632C16.2556 5.65638 16.2729 5.67294 16.2935 5.68443C16.314 5.69591 16.3371 5.70194 16.3606 5.70194C16.3841 5.70194 16.4073 5.69591 16.4278 5.68443C16.4483 5.67294 16.4656 5.65638 16.478 5.63632L17.44 3.96654C17.455 3.93942 17.4603 3.90794 17.4549 3.87739C17.4496 3.84683 17.4339 3.81905 17.4105 3.79872C17.3871 3.77838 17.3575 3.76672 17.3265 3.7657C17.2956 3.76468 17.2652 3.77435 17.2405 3.7931C16.9961 4.01417 16.6881 4.15206 16.3606 4.18703Z" fill="#262626"/>
<path d="M16.3606 7.75002C16.0332 7.71486 15.7253 7.577 15.4807 7.3561C15.4562 7.33542 15.4253 7.32413 15.3933 7.32424C15.3613 7.32435 15.3303 7.33585 15.306 7.35669C15.2817 7.37753 15.2656 7.40636 15.2605 7.43802C15.2554 7.46968 15.2617 7.50212 15.2783 7.52954L16.2433 9.19932C16.2556 9.21938 16.2729 9.23594 16.2935 9.24743C16.314 9.25891 16.3371 9.26494 16.3606 9.26494C16.3841 9.26494 16.4073 9.25891 16.4278 9.24743C16.4483 9.23594 16.4656 9.21938 16.478 9.19932L17.44 7.52954C17.455 7.50242 17.4603 7.47094 17.4549 7.44039C17.4496 7.40983 17.4339 7.38205 17.4105 7.36172C17.3871 7.34138 17.3575 7.32973 17.3265 7.32871C17.2956 7.32768 17.2652 7.33735 17.2405 7.3561C16.9953 7.57599 16.6877 7.7137 16.3606 7.75002Z" fill="#262626"/>
<path d="M16.3606 11.31C16.0335 11.2761 15.7255 11.1392 15.4807 10.9191C15.4562 10.8984 15.4253 10.8871 15.3933 10.8872C15.3613 10.8873 15.3303 10.8988 15.306 10.9196C15.2817 10.9405 15.2656 10.9693 15.2605 11.001C15.2554 11.0326 15.2617 11.0651 15.2783 11.0925L16.2433 12.7593C16.2551 12.7801 16.2721 12.7974 16.2927 12.8094C16.3133 12.8214 16.3368 12.8278 16.3606 12.8278C16.3845 12.8278 16.4079 12.8214 16.4285 12.8094C16.4491 12.7974 16.4662 12.7801 16.478 12.7593L17.44 11.0925C17.455 11.0654 17.4603 11.0339 17.4549 11.0033C17.4496 10.9728 17.4339 10.945 17.4105 10.9247C17.3871 10.9043 17.3575 10.8927 17.3265 10.8917C17.2956 10.8906 17.2652 10.9003 17.2405 10.9191C16.9951 11.1382 16.6874 11.2749 16.3606 11.31Z" fill="#262626"/>
<path d="M16.3606 14.873C16.0329 14.8391 15.7246 14.701 15.4807 14.4791C15.4562 14.4584 15.4253 14.4471 15.3933 14.4472C15.3613 14.4474 15.3303 14.4589 15.306 14.4797C15.2817 14.5005 15.2656 14.5294 15.2605 14.561C15.2554 14.5927 15.2617 14.6251 15.2783 14.6525L16.2433 16.3223C16.2551 16.3431 16.2721 16.3604 16.2927 16.3724C16.3133 16.3844 16.3368 16.3908 16.3606 16.3908C16.3845 16.3908 16.4079 16.3844 16.4285 16.3724C16.4491 16.3604 16.4662 16.3431 16.478 16.3223L17.44 14.6525C17.455 14.6254 17.4603 14.5939 17.4549 14.5634C17.4496 14.5328 17.4339 14.5051 17.4105 14.4847C17.3871 14.4644 17.3575 14.4527 17.3265 14.4517C17.2956 14.4507 17.2652 14.4604 17.2405 14.4791C16.9961 14.7002 16.6881 14.8381 16.3606 14.873Z" fill="#262626"/>
<path d="M16.3606 18.436C16.0329 18.402 15.7246 18.264 15.4807 18.0421C15.4562 18.0214 15.4253 18.0101 15.3933 18.0102C15.3613 18.0103 15.3303 18.0218 15.306 18.0426C15.2817 18.0635 15.2656 18.0923 15.2605 18.124C15.2554 18.1556 15.2617 18.1881 15.2783 18.2155L16.2433 19.8853C16.2551 19.9061 16.2721 19.9233 16.2927 19.9354C16.3133 19.9474 16.3368 19.9537 16.3606 19.9537C16.3845 19.9537 16.4079 19.9474 16.4285 19.9354C16.4491 19.9233 16.4662 19.9061 16.478 19.8853L17.44 18.2155C17.455 18.1884 17.4603 18.1569 17.4549 18.1263C17.4496 18.0958 17.4339 18.068 17.4105 18.0477C17.3871 18.0273 17.3575 18.0157 17.3265 18.0147C17.2956 18.0136 17.2652 18.0233 17.2405 18.0421C16.9961 18.2631 16.6881 18.401 16.3606 18.436Z" fill="#262626"/>
<path d="M16.3606 21.996C16.0329 21.9621 15.7246 21.824 15.4807 21.6021C15.4562 21.5814 15.4253 21.5701 15.3933 21.5703C15.3613 21.5704 15.3303 21.5819 15.306 21.6027C15.2817 21.6235 15.2656 21.6524 15.2605 21.684C15.2554 21.7157 15.2617 21.7481 15.2783 21.7756L16.2433 23.4453C16.2551 23.4661 16.2721 23.4834 16.2927 23.4954C16.3133 23.5074 16.3368 23.5138 16.3606 23.5138C16.3845 23.5138 16.4079 23.5074 16.4285 23.4954C16.4491 23.4834 16.4662 23.4661 16.478 23.4453L17.44 21.7756C17.455 21.7484 17.4603 21.717 17.4549 21.6864C17.4496 21.6558 17.4339 21.6281 17.4105 21.6077C17.3871 21.5874 17.3575 21.5757 17.3265 21.5747C17.2956 21.5737 17.2652 21.5834 17.2405 21.6021C16.9961 21.8232 16.6881 21.9611 16.3606 21.996Z" fill="#262626"/>
<path d="M16.2727 25.5561C15.9556 25.4876 15.6652 25.3282 15.4368 25.0975C15.3282 25.0034 15.1435 25.1151 15.2197 25.2386L15.4163 25.6531C15.4837 25.7913 15.5512 25.9471 15.604 26.0764C15.7154 26.3704 15.8298 26.6644 15.9354 26.9583C15.9426 26.9811 15.9556 27.0015 15.9731 27.0175C15.9907 27.0336 16.0121 27.0447 16.0353 27.0498C16.0586 27.0549 16.0827 27.0537 16.1053 27.0464C16.1279 27.0391 16.1482 27.026 16.1642 27.0083C16.3724 26.7673 16.5777 26.5144 16.7889 26.2528C16.8974 26.1235 16.9884 25.9882 17.0822 25.8501L17.3755 25.4326C17.396 25.4071 17.4067 25.375 17.4058 25.3423C17.4049 25.3095 17.3924 25.2782 17.3706 25.2538C17.3487 25.2294 17.3189 25.2136 17.2865 25.2092C17.2541 25.2048 17.2212 25.2121 17.1937 25.2298C16.9329 25.4381 16.6091 25.5511 16.2756 25.5502" fill="#262626"/>
<path d="M15.4458 29.0103C15.3022 28.9504 15.1731 28.8601 15.0674 28.7457C15.0117 28.6869 14.9589 28.6252 14.9061 28.5576C14.8508 28.4907 14.7989 28.421 14.7506 28.3488C14.7362 28.3208 14.7121 28.299 14.6828 28.2876C14.6535 28.2761 14.6211 28.2757 14.5916 28.2866C14.562 28.2974 14.5375 28.3187 14.5225 28.3464C14.5075 28.3741 14.5031 28.4063 14.5101 28.437C14.5658 28.731 14.6186 29.025 14.6656 29.3425C14.6797 29.4193 14.6895 29.4968 14.6949 29.5747L14.7154 29.8069L14.7536 30.2832C14.7549 30.3069 14.7624 30.3298 14.7753 30.3496C14.7882 30.3694 14.8062 30.3855 14.8273 30.3963C14.8484 30.407 14.8719 30.4119 14.8955 30.4107C14.9191 30.4094 14.942 30.4019 14.9618 30.389L15.3637 30.1127L15.5661 29.9686C15.6364 29.9216 15.701 29.8716 15.7655 29.8187C16.0207 29.6159 16.2788 29.4013 16.5428 29.1778C16.6571 29.072 16.5428 28.8839 16.4108 28.9338C16.3305 28.9656 16.2481 28.9921 16.1644 29.0132C16.0797 29.0357 15.9934 29.0515 15.9063 29.0602C15.751 29.079 15.5935 29.0619 15.4458 29.0103Z" fill="#262626"/>
<path d="M13.7681 32.1411C13.5251 31.9207 13.3484 31.6366 13.2578 31.3209C13.2513 31.2902 13.2338 31.2628 13.2087 31.244C13.1835 31.2252 13.1524 31.2162 13.1211 31.2187C13.0899 31.2213 13.0606 31.2351 13.0388 31.2577C13.0169 31.2803 13.0041 31.3101 13.0026 31.3415V31.5708L12.982 31.7972L12.9322 32.2558C12.9116 32.4116 12.8999 32.5733 12.8706 32.7232L12.7826 33.1906C12.7779 33.2137 12.7793 33.2376 12.7867 33.26C12.7941 33.2823 12.8072 33.3024 12.8246 33.3181C12.8421 33.3339 12.8634 33.3448 12.8864 33.3497C12.9094 33.3547 12.9332 33.3535 12.9556 33.3464L13.4191 33.1847C13.5774 33.1318 13.7124 33.0642 13.8737 32.9995L14.3312 32.7967L14.5659 32.6938L14.7888 32.5762C14.8174 32.562 14.8403 32.5384 14.8538 32.5094C14.8673 32.4804 14.8706 32.4477 14.8631 32.4166C14.8556 32.3855 14.8378 32.3579 14.8126 32.3383C14.7873 32.3187 14.7562 32.3082 14.7243 32.3087C14.3987 32.366 14.0633 32.3067 13.7769 32.1411" fill="#262626"/>
<path d="M11.3453 34.734C11.1627 34.4612 11.061 34.1422 11.052 33.8138C11.052 33.6698 10.8378 33.6316 10.7968 33.7668L10.6589 34.2048C10.6061 34.3489 10.5475 34.4988 10.4917 34.634C10.3715 34.928 10.2571 35.222 10.1075 35.4983C10.0973 35.5195 10.0927 35.543 10.0943 35.5665C10.0959 35.59 10.1036 35.6127 10.1166 35.6323C10.1297 35.6519 10.1476 35.6678 10.1686 35.6783C10.1897 35.6888 10.2131 35.6937 10.2366 35.6923C10.5651 35.6923 10.8789 35.6335 11.2103 35.5924C11.3746 35.5688 11.5447 35.5483 11.709 35.5189L12.2017 35.413C12.2327 35.4065 12.2605 35.3895 12.2804 35.3649C12.3004 35.3403 12.3113 35.3095 12.3113 35.2778C12.3113 35.2461 12.3004 35.2153 12.2804 35.1907C12.2605 35.1661 12.2327 35.1491 12.2017 35.1426C11.8701 35.1124 11.5591 34.968 11.3218 34.734" fill="#262626"/>
<path d="M23.749 0.885707C23.4213 0.851736 23.113 0.713718 22.8691 0.491782C22.8447 0.471106 22.8137 0.459812 22.7817 0.45992C22.7497 0.460028 22.7188 0.471529 22.6945 0.492369C22.6701 0.51321 22.654 0.542033 22.6489 0.573695C22.6438 0.605357 22.6502 0.637799 22.6668 0.665226L23.6318 2.335C23.6441 2.35506 23.6613 2.37162 23.6819 2.38311C23.7024 2.39459 23.7255 2.40062 23.749 2.40062C23.7726 2.40062 23.7957 2.39459 23.8162 2.38311C23.8368 2.37162 23.854 2.35506 23.8664 2.335L24.8284 0.665226C24.8435 0.638104 24.8487 0.606621 24.8434 0.576063C24.838 0.545506 24.8223 0.517732 24.7989 0.497398C24.7755 0.477063 24.7459 0.465406 24.7149 0.464383C24.684 0.46336 24.6536 0.473035 24.629 0.491782C24.3845 0.712855 24.0765 0.850741 23.749 0.885707Z" fill="#262626"/>
<path d="M23.749 4.38105C23.4213 4.34708 23.113 4.20906 22.8691 3.98712C22.8447 3.96645 22.8137 3.95515 22.7817 3.95526C22.7497 3.95537 22.7188 3.96687 22.6945 3.98771C22.6701 4.00855 22.654 4.03737 22.6489 4.06904C22.6438 4.1007 22.6502 4.13314 22.6668 4.16057L23.6318 5.83034C23.6441 5.8504 23.6613 5.86697 23.6819 5.87845C23.7024 5.88994 23.7255 5.89596 23.749 5.89596C23.7726 5.89596 23.7957 5.88994 23.8162 5.87845C23.8368 5.86697 23.854 5.8504 23.8664 5.83034L24.8284 4.16057C24.8435 4.13345 24.8487 4.10196 24.8434 4.07141C24.838 4.04085 24.8223 4.01307 24.7989 3.99274C24.7755 3.97241 24.7459 3.96075 24.7149 3.95973C24.684 3.9587 24.6536 3.96838 24.629 3.98712C24.3845 4.2082 24.0765 4.34608 23.749 4.38105Z" fill="#262626"/>
<path d="M23.749 7.88525C23.4217 7.85008 23.1137 7.71222 22.8691 7.49132C22.8447 7.47064 22.8137 7.45935 22.7817 7.45946C22.7497 7.45957 22.7188 7.47107 22.6945 7.49191C22.6701 7.51275 22.654 7.54158 22.6489 7.57324C22.6438 7.6049 22.6502 7.63734 22.6668 7.66476L23.6318 9.33454C23.6441 9.3546 23.6613 9.37116 23.6819 9.38265C23.7024 9.39413 23.7255 9.40016 23.749 9.40016C23.7726 9.40016 23.7957 9.39413 23.8162 9.38265C23.8368 9.37116 23.854 9.3546 23.8664 9.33454L24.8284 7.66476C24.8435 7.63764 24.8487 7.60616 24.8434 7.57561C24.838 7.54505 24.8223 7.51727 24.7989 7.49694C24.7755 7.4766 24.7459 7.46494 24.7149 7.46392C24.684 7.4629 24.6536 7.47257 24.629 7.49132C24.3837 7.71121 24.0761 7.84892 23.749 7.88525Z" fill="#262626"/>
<path d="M23.749 11.3718C23.4217 11.3366 23.1137 11.1988 22.8691 10.9779C22.8447 10.9572 22.8137 10.9459 22.7817 10.946C22.7497 10.9461 22.7188 10.9576 22.6945 10.9784C22.6701 10.9993 22.654 11.0281 22.6489 11.0598C22.6438 11.0914 22.6502 11.1239 22.6668 11.1513L23.6318 12.8211C23.6441 12.8411 23.6613 12.8577 23.6819 12.8692C23.7024 12.8807 23.7255 12.8867 23.749 12.8867C23.7726 12.8867 23.7957 12.8807 23.8162 12.8692C23.8368 12.8577 23.854 12.8411 23.8664 12.8211L24.8284 11.1513C24.8435 11.1242 24.8487 11.0927 24.8434 11.0621C24.838 11.0316 24.8223 11.0038 24.7989 10.9835C24.7755 10.9631 24.7459 10.9515 24.7149 10.9505C24.684 10.9494 24.6536 10.9591 24.629 10.9779C24.3837 11.1978 24.0761 11.3355 23.749 11.3718Z" fill="#262626"/>
<path d="M23.749 14.8671C23.4217 14.832 23.1137 14.6941 22.8691 14.4732C22.8447 14.4525 22.8137 14.4412 22.7817 14.4413C22.7497 14.4415 22.7188 14.453 22.6945 14.4738C22.6701 14.4946 22.654 14.5235 22.6489 14.5551C22.6438 14.5868 22.6502 14.6192 22.6668 14.6467L23.6318 16.3164C23.6441 16.3365 23.6613 16.353 23.6819 16.3645C23.7024 16.376 23.7255 16.3821 23.749 16.3821C23.7726 16.3821 23.7957 16.376 23.8162 16.3645C23.8368 16.353 23.854 16.3365 23.8664 16.3164L24.8284 14.6467C24.8435 14.6195 24.8487 14.5881 24.8434 14.5575C24.838 14.5269 24.8223 14.4992 24.7989 14.4788C24.7755 14.4585 24.7459 14.4468 24.7149 14.4458C24.684 14.4448 24.6536 14.4545 24.629 14.4732C24.3837 14.6931 24.0761 14.8308 23.749 14.8671Z" fill="#262626"/>
<path d="M27.5623 0.885715C27.2348 0.850749 26.9268 0.712863 26.6824 0.491789C26.6577 0.473043 26.6274 0.463368 26.5964 0.464391C26.5655 0.465414 26.5358 0.477071 26.5124 0.497406C26.489 0.51774 26.4734 0.545514 26.468 0.576071C26.4626 0.606629 26.4679 0.638111 26.4829 0.665234L27.4479 2.33501C27.4599 2.35511 27.4768 2.37175 27.4971 2.38331C27.5175 2.39486 27.5404 2.40093 27.5637 2.40093C27.5871 2.40093 27.6101 2.39486 27.6304 2.38331C27.6507 2.37175 27.6676 2.35511 27.6796 2.33501L28.6446 0.665234C28.6596 0.638111 28.6649 0.606629 28.6595 0.576071C28.6542 0.545514 28.6385 0.51774 28.6151 0.497406C28.5917 0.477071 28.562 0.465414 28.5311 0.464391C28.5002 0.463368 28.4698 0.473043 28.4451 0.491789C28.2006 0.712863 27.8926 0.850749 27.5652 0.885715" fill="#262626"/>
<path d="M27.5623 4.38106C27.2348 4.3461 26.9268 4.20821 26.6824 3.98714C26.6577 3.96839 26.6274 3.95871 26.5964 3.95974C26.5655 3.96076 26.5358 3.97242 26.5124 3.99275C26.489 4.01309 26.4734 4.04086 26.468 4.07142C26.4626 4.10197 26.4679 4.13346 26.4829 4.16058L27.4479 5.83035C27.4599 5.85045 27.4768 5.8671 27.4971 5.87865C27.5175 5.89021 27.5404 5.89628 27.5637 5.89628C27.5871 5.89628 27.6101 5.89021 27.6304 5.87865C27.6507 5.8671 27.6676 5.85045 27.6796 5.83035L28.6446 4.16058C28.6596 4.13346 28.6649 4.10197 28.6595 4.07142C28.6542 4.04086 28.6385 4.01309 28.6151 3.99275C28.5917 3.97242 28.562 3.96076 28.5311 3.95974C28.5002 3.95871 28.4698 3.96839 28.4451 3.98714C28.2006 4.20821 27.8926 4.3461 27.5652 4.38106" fill="#262626"/>
<path d="M27.5623 7.88526C27.2352 7.84893 26.9276 7.71123 26.6824 7.49133C26.6577 7.47259 26.6274 7.46291 26.5964 7.46393C26.5655 7.46496 26.5358 7.47661 26.5124 7.49695C26.489 7.51728 26.4734 7.54506 26.468 7.57562C26.4626 7.60618 26.4679 7.63765 26.4829 7.66478L27.4479 9.33455C27.4599 9.35465 27.4768 9.37129 27.4971 9.38285C27.5175 9.3944 27.5404 9.40048 27.5637 9.40048C27.5871 9.40048 27.6101 9.3944 27.6304 9.38285C27.6507 9.37129 27.6676 9.35465 27.6796 9.33455L28.6446 7.66478C28.6596 7.63765 28.6649 7.60618 28.6595 7.57562C28.6542 7.54506 28.6385 7.51728 28.6151 7.49695C28.5917 7.47661 28.562 7.46496 28.5311 7.46393C28.5002 7.46291 28.4698 7.47259 28.4451 7.49133C28.1999 7.71123 27.8923 7.84893 27.5652 7.88526" fill="#262626"/>
<path d="M27.5623 11.3718C27.2352 11.3355 26.9276 11.1978 26.6824 10.9779C26.6577 10.9591 26.6274 10.9495 26.5964 10.9505C26.5655 10.9515 26.5358 10.9632 26.5124 10.9835C26.489 11.0038 26.4734 11.0316 26.468 11.0622C26.4626 11.0927 26.4679 11.1242 26.4829 11.1513L27.4479 12.8211C27.4599 12.8412 27.4768 12.8578 27.4971 12.8694C27.5175 12.8809 27.5404 12.887 27.5637 12.887C27.5871 12.887 27.6101 12.8809 27.6304 12.8694C27.6507 12.8578 27.6676 12.8412 27.6796 12.8211L28.6446 11.1513C28.6596 11.1242 28.6649 11.0927 28.6595 11.0622C28.6542 11.0316 28.6385 11.0038 28.6151 10.9835C28.5917 10.9632 28.562 10.9515 28.5311 10.9505C28.5002 10.9495 28.4698 10.9591 28.4451 10.9779C28.1999 11.1978 27.8923 11.3355 27.5652 11.3718" fill="#262626"/>
<path d="M27.5623 14.8671C27.2352 14.8308 26.9276 14.6931 26.6824 14.4732C26.6577 14.4545 26.6274 14.4448 26.5964 14.4458C26.5655 14.4468 26.5358 14.4585 26.5124 14.4788C26.489 14.4992 26.4734 14.5269 26.468 14.5575C26.4626 14.5881 26.4679 14.6195 26.4829 14.6467L27.4479 16.3164C27.4599 16.3365 27.4768 16.3532 27.4971 16.3647C27.5175 16.3763 27.5404 16.3824 27.5637 16.3824C27.5871 16.3824 27.6101 16.3763 27.6304 16.3647C27.6507 16.3532 27.6676 16.3365 27.6796 16.3164L28.6446 14.6467C28.6596 14.6195 28.6649 14.5881 28.6595 14.5575C28.6542 14.5269 28.6385 14.4992 28.6151 14.4788C28.5917 14.4585 28.562 14.4468 28.5311 14.4458C28.5002 14.4448 28.4698 14.4545 28.4451 14.4732C28.1999 14.6931 27.8923 14.8308 27.5652 14.8671" fill="#262626"/>
<path d="M31.378 0.621127C31.0505 0.586161 30.7425 0.448275 30.498 0.227201C30.4734 0.208455 30.443 0.198784 30.4121 0.199807C30.3811 0.20083 30.3515 0.212483 30.3281 0.232818C30.3047 0.253152 30.289 0.28093 30.2837 0.311488C30.2783 0.342045 30.2836 0.373523 30.2986 0.400645L31.2636 2.07042C31.2749 2.09128 31.2917 2.10869 31.3121 2.12081C31.3325 2.13294 31.3557 2.13934 31.3794 2.13934C31.4031 2.13934 31.4264 2.13294 31.4468 2.12081C31.4672 2.10869 31.4839 2.09128 31.4953 2.07042L32.4603 0.400645C32.4753 0.373523 32.4806 0.342045 32.4752 0.311488C32.4698 0.28093 32.4542 0.253152 32.4308 0.232818C32.4074 0.212483 32.3777 0.20083 32.3468 0.199807C32.3158 0.198784 32.2855 0.208455 32.2608 0.227201C32.0163 0.448275 31.7083 0.586161 31.3809 0.621127" fill="#262626"/>
<path d="M31.378 4.18118C31.0505 4.14622 30.7425 4.00833 30.498 3.78726C30.4734 3.76851 30.443 3.75884 30.4121 3.75986C30.3811 3.76088 30.3515 3.77254 30.3281 3.79287C30.3047 3.81321 30.289 3.84098 30.2837 3.87154C30.2783 3.9021 30.2836 3.93358 30.2986 3.9607L31.2636 5.63048C31.2749 5.65134 31.2917 5.66874 31.3121 5.68087C31.3325 5.69299 31.3557 5.69939 31.3794 5.69939C31.4031 5.69939 31.4264 5.69299 31.4468 5.68087C31.4672 5.66874 31.4839 5.65134 31.4953 5.63048L32.4603 3.9607C32.4753 3.93358 32.4806 3.9021 32.4752 3.87154C32.4698 3.84098 32.4542 3.81321 32.4308 3.79287C32.4074 3.77254 32.3777 3.76088 32.3468 3.75986C32.3158 3.75884 32.2855 3.76851 32.2608 3.78726C32.0163 4.00833 31.7083 4.14622 31.3809 4.18118" fill="#262626"/>
<path d="M31.378 7.74118C31.0505 7.70622 30.7425 7.56833 30.498 7.34726C30.4734 7.32851 30.443 7.31884 30.4121 7.31986C30.3811 7.32089 30.3515 7.33254 30.3281 7.35287C30.3047 7.37321 30.289 7.40099 30.2837 7.43154C30.2783 7.4621 30.2836 7.49358 30.2986 7.5207L31.2636 9.19048C31.2749 9.21134 31.2917 9.22874 31.3121 9.24087C31.3325 9.253 31.3557 9.2594 31.3794 9.2594C31.4031 9.2594 31.4264 9.253 31.4468 9.24087C31.4672 9.22874 31.4839 9.21134 31.4953 9.19048L32.4603 7.5207C32.4753 7.49358 32.4806 7.4621 32.4752 7.43154C32.4698 7.40099 32.4542 7.37321 32.4308 7.35287C32.4074 7.33254 32.3777 7.32089 32.3468 7.31986C32.3158 7.31884 32.2855 7.32851 32.2608 7.34726C32.0163 7.56833 31.7083 7.70622 31.3809 7.74118" fill="#262626"/>
<path d="M31.378 11.3012C31.0505 11.2663 30.7425 11.1284 30.498 10.9073C30.4734 10.8886 30.443 10.8789 30.4121 10.8799C30.3811 10.8809 30.3515 10.8926 30.3281 10.9129C30.3047 10.9333 30.289 10.961 30.2837 10.9916C30.2783 11.0222 30.2836 11.0536 30.2986 11.0808L31.2636 12.7505C31.2755 12.7706 31.2925 12.7873 31.3128 12.7988C31.3331 12.8104 31.3561 12.8165 31.3794 12.8165C31.4028 12.8165 31.4257 12.8104 31.4461 12.7988C31.4664 12.7873 31.4833 12.7706 31.4953 12.7505L32.4603 11.0808C32.4753 11.0536 32.4806 11.0222 32.4752 10.9916C32.4698 10.961 32.4542 10.9333 32.4308 10.9129C32.4074 10.8926 32.3777 10.8809 32.3468 10.8799C32.3158 10.8789 32.2855 10.8886 32.2608 10.9073C32.0163 11.1284 31.7083 11.2663 31.3809 11.3012" fill="#262626"/>
<path d="M31.378 14.8613C31.0509 14.825 30.7433 14.6873 30.498 14.4674C30.4734 14.4486 30.443 14.4389 30.4121 14.44C30.3811 14.441 30.3515 14.4526 30.3281 14.473C30.3047 14.4933 30.289 14.5211 30.2837 14.5516C30.2783 14.5822 30.2836 14.6137 30.2986 14.6408L31.2636 16.3106C31.2755 16.3307 31.2925 16.3473 31.3128 16.3589C31.3331 16.3704 31.3561 16.3765 31.3794 16.3765C31.4028 16.3765 31.4257 16.3704 31.4461 16.3589C31.4664 16.3473 31.4833 16.3307 31.4953 16.3106L32.4603 14.6408C32.4753 14.6137 32.4806 14.5822 32.4752 14.5516C32.4698 14.5211 32.4542 14.4933 32.4308 14.473C32.4074 14.4526 32.3777 14.441 32.3468 14.44C32.3158 14.4389 32.2855 14.4486 32.2608 14.4674C32.0156 14.6873 31.708 14.825 31.3809 14.8613" fill="#262626"/>
<path d="M31.378 18.4213C31.0509 18.385 30.7433 18.2473 30.498 18.0274C30.4734 18.0086 30.443 17.9989 30.4121 18C30.3811 18.001 30.3515 18.0126 30.3281 18.033C30.3047 18.0533 30.289 18.0811 30.2837 18.1117C30.2783 18.1422 30.2836 18.1737 30.2986 18.2008L31.2636 19.8706C31.2755 19.8907 31.2925 19.9073 31.3128 19.9189C31.3331 19.9304 31.3561 19.9365 31.3794 19.9365C31.4028 19.9365 31.4257 19.9304 31.4461 19.9189C31.4664 19.9073 31.4833 19.8907 31.4953 19.8706L32.4603 18.2008C32.4753 18.1737 32.4806 18.1422 32.4752 18.1117C32.4698 18.0811 32.4542 18.0533 32.4308 18.033C32.4074 18.0126 32.3777 18.001 32.3468 18C32.3158 17.9989 32.2855 18.0086 32.2608 18.0274C32.0156 18.2473 31.708 18.385 31.3809 18.4213" fill="#262626"/>
<path d="M31.378 21.9784C31.0511 21.9433 30.7434 21.8066 30.498 21.5874C30.4734 21.5687 30.443 21.559 30.4121 21.56C30.3811 21.561 30.3515 21.5727 30.3281 21.593C30.3047 21.6134 30.289 21.6411 30.2837 21.6717C30.2783 21.7023 30.2836 21.7337 30.2986 21.7609L31.2636 23.4306C31.2755 23.4507 31.2925 23.4674 31.3128 23.4789C31.3331 23.4905 31.3561 23.4966 31.3794 23.4966C31.4028 23.4966 31.4257 23.4905 31.4461 23.4789C31.4664 23.4674 31.4833 23.4507 31.4953 23.4306L32.4603 21.7609C32.4753 21.7337 32.4806 21.7023 32.4752 21.6717C32.4698 21.6411 32.4542 21.6134 32.4308 21.593C32.4074 21.5727 32.3777 21.561 32.3468 21.56C32.3158 21.559 32.2855 21.5687 32.2608 21.5874C32.0154 21.8066 31.7077 21.9433 31.3809 21.9784" fill="#262626"/>
<path d="M31.2782 25.5237C30.9609 25.4505 30.671 25.2884 30.4423 25.0563C30.3337 24.9593 30.149 25.0739 30.2252 25.1974C30.3667 25.4705 30.493 25.7511 30.6036 26.0382L30.7708 26.4762C30.8265 26.6261 30.8881 26.7702 30.9292 26.926C30.9355 26.9489 30.9478 26.9697 30.9649 26.9863C30.982 27.0028 31.0033 27.0143 31.0264 27.0197C31.0495 27.0252 31.0737 27.0242 31.0963 27.017C31.1189 27.0098 31.1392 26.9967 31.155 26.9789C31.2723 26.8613 31.3721 26.7349 31.4747 26.6114L31.7856 26.2263C32.0026 25.9676 32.1845 25.6942 32.3722 25.412C32.3927 25.3864 32.4034 25.3544 32.4025 25.3217C32.4016 25.2889 32.3891 25.2575 32.3673 25.2332C32.3454 25.2088 32.3156 25.193 32.2832 25.1886C32.2508 25.1842 32.2179 25.1915 32.1904 25.2092C31.93 25.4175 31.6055 25.5287 31.2723 25.5237" fill="#262626"/>
<path d="M30.4306 28.9809C30.1432 28.83 29.9042 28.6007 29.7413 28.3194C29.7256 28.2941 29.7018 28.2749 29.6738 28.2648C29.6458 28.2548 29.6153 28.2545 29.5871 28.264C29.5589 28.2735 29.5348 28.2923 29.5186 28.3173C29.5024 28.3423 29.4951 28.3721 29.4979 28.4017C29.5536 28.6957 29.6064 28.9897 29.6563 29.3131C29.7061 29.6364 29.7179 29.9304 29.7413 30.2538C29.7426 30.2774 29.7502 30.3004 29.7631 30.3202C29.776 30.34 29.7939 30.3561 29.815 30.3668C29.8361 30.3776 29.8596 30.3825 29.8833 30.3813C29.9069 30.38 29.9297 30.3725 29.9496 30.3596C30.2135 30.1803 30.4834 29.9921 30.7532 29.7922C31.0231 29.5923 31.2665 29.3748 31.5276 29.1514C31.556 29.1326 31.5765 29.1039 31.585 29.0709C31.5936 29.0379 31.5897 29.0028 31.574 28.9725C31.5584 28.9422 31.5321 28.9188 31.5002 28.9068C31.4684 28.8947 31.4332 28.895 31.4015 28.9074C31.0964 29.0448 30.7528 29.0708 30.4306 28.9809Z" fill="#262626"/>
<path d="M28.7558 32.1088C28.5128 31.8884 28.336 31.6043 28.2454 31.2886C28.2358 31.2607 28.217 31.2368 28.1922 31.2208C28.1674 31.2048 28.138 31.1975 28.1087 31.2002C28.0793 31.203 28.0517 31.2154 28.0302 31.2357C28.0087 31.256 27.9947 31.2829 27.9902 31.3121C27.9902 31.4679 27.9903 31.6061 27.9609 31.7678L27.914 32.2293C27.8847 32.5439 27.8231 32.8437 27.7644 33.1612C27.7595 33.1846 27.7608 33.2089 27.7683 33.2317C27.7758 33.2544 27.7892 33.2747 27.8071 33.2905C27.825 33.3064 27.8467 33.3172 27.8702 33.3218C27.8936 33.3265 27.9178 33.3248 27.9404 33.317C28.2511 33.2161 28.5566 33.0993 28.8555 32.9672L29.3131 32.7643C29.4656 32.6938 29.624 32.6262 29.7677 32.5439C29.7996 32.5325 29.8262 32.5098 29.8425 32.4801C29.8588 32.4503 29.8636 32.4156 29.856 32.3826C29.8484 32.3495 29.8289 32.3204 29.8012 32.3008C29.7736 32.2812 29.7397 32.2725 29.7061 32.2763C29.3795 32.3344 29.043 32.2751 28.7558 32.1088Z" fill="#262626"/>
<path d="M26.3478 34.7105C26.165 34.4389 26.0633 34.1207 26.0545 33.7933C26.0529 33.7636 26.0415 33.7354 26.0219 33.7131C26.0024 33.6908 25.976 33.6757 25.9469 33.6703C25.9178 33.6648 25.8877 33.6694 25.8614 33.6831C25.8352 33.6969 25.8144 33.7191 25.8023 33.7462L25.6644 34.1872C25.6116 34.3312 25.5559 34.4811 25.5002 34.6164C25.3858 34.9104 25.2685 35.2043 25.1247 35.4983C25.1145 35.5195 25.1099 35.543 25.1115 35.5665C25.1131 35.59 25.1208 35.6127 25.1339 35.6323C25.1469 35.6519 25.1648 35.6678 25.1858 35.6783C25.2069 35.6888 25.2303 35.6937 25.2538 35.6923C25.5852 35.6776 25.8991 35.6276 26.2276 35.5806L26.7262 35.5071L27.216 35.3984C27.2488 35.3935 27.2787 35.3771 27.3003 35.352C27.3219 35.3269 27.3338 35.2948 27.3338 35.2617C27.3338 35.2285 27.3219 35.1964 27.3003 35.1713C27.2787 35.1462 27.2488 35.1298 27.216 35.125C26.8849 35.0974 26.5737 34.9549 26.3361 34.7222" fill="#262626"/>
<path d="M35.194 0.621119C34.8664 0.586748 34.5582 0.448783 34.3141 0.227194C34.2896 0.206518 34.2586 0.195228 34.2266 0.195336C34.1946 0.195444 34.1637 0.206945 34.1394 0.227786C34.1151 0.248626 34.0989 0.277449 34.0939 0.309111C34.0888 0.340774 34.0951 0.373211 34.1117 0.400638L35.0767 2.07042C35.0884 2.0912 35.1055 2.10848 35.1261 2.12051C35.1468 2.13253 35.1701 2.13887 35.194 2.13887C35.2178 2.13887 35.2413 2.13253 35.2619 2.12051C35.2825 2.10848 35.2995 2.0912 35.3113 2.07042L36.2734 0.400638C36.2884 0.373516 36.2937 0.342037 36.2883 0.31148C36.2829 0.280922 36.2673 0.253144 36.2439 0.23281C36.2205 0.212475 36.1908 0.200822 36.1599 0.199799C36.1289 0.198777 36.0986 0.208447 36.0739 0.227194C35.8294 0.448267 35.5214 0.586153 35.194 0.621119Z" fill="#262626"/>
<path d="M35.194 4.18117C34.8664 4.1468 34.5582 4.00884 34.3141 3.78725C34.2896 3.76657 34.2586 3.75528 34.2266 3.75539C34.1946 3.7555 34.1637 3.767 34.1394 3.78784C34.1151 3.80868 34.0989 3.8375 34.0939 3.86917C34.0888 3.90083 34.0951 3.93327 34.1117 3.96069L35.0767 5.63047C35.0884 5.65125 35.1055 5.66854 35.1261 5.68056C35.1468 5.69259 35.1701 5.69892 35.194 5.69892C35.2178 5.69892 35.2413 5.69259 35.2619 5.68056C35.2825 5.66854 35.2995 5.65125 35.3113 5.63047L36.2734 3.96069C36.2884 3.93357 36.2937 3.90209 36.2883 3.87153C36.2829 3.84098 36.2673 3.8132 36.2439 3.79286C36.2205 3.77253 36.1908 3.76088 36.1599 3.75985C36.1289 3.75883 36.0986 3.7685 36.0739 3.78725C35.8294 4.00832 35.5214 4.14621 35.194 4.18117Z" fill="#262626"/>
<path d="M35.194 7.74117C34.8664 7.7068 34.5582 7.56884 34.3141 7.34725C34.2896 7.32657 34.2586 7.31528 34.2266 7.31539C34.1946 7.3155 34.1637 7.327 34.1394 7.34784C34.1151 7.36868 34.0989 7.3975 34.0939 7.42916C34.0888 7.46083 34.0951 7.49326 34.1117 7.52069L35.0767 9.19047C35.0884 9.21125 35.1055 9.22854 35.1261 9.24056C35.1468 9.25258 35.1701 9.25892 35.194 9.25892C35.2178 9.25892 35.2413 9.25258 35.2619 9.24056C35.2825 9.22854 35.2995 9.21125 35.3113 9.19047L36.2734 7.52069C36.2884 7.49357 36.2937 7.46209 36.2883 7.43153C36.2829 7.40097 36.2673 7.3732 36.2439 7.35286C36.2205 7.33253 36.1908 7.32087 36.1599 7.31985C36.1289 7.31883 36.0986 7.3285 36.0739 7.34725C35.8294 7.56832 35.5214 7.70621 35.194 7.74117Z" fill="#262626"/>
<path d="M35.194 11.3012C34.8664 11.2669 34.5582 11.1289 34.3141 10.9073C34.2896 10.8866 34.2586 10.8753 34.2266 10.8754C34.1946 10.8756 34.1637 10.8871 34.1394 10.9079C34.1151 10.9287 34.0989 10.9576 34.0939 10.9892C34.0888 11.0209 34.0951 11.0533 34.1117 11.0807L35.0767 12.7505C35.089 12.7706 35.1063 12.7871 35.1268 12.7986C35.1474 12.8101 35.1705 12.8161 35.194 12.8161C35.2175 12.8161 35.2407 12.8101 35.2612 12.7986C35.2817 12.7871 35.299 12.7706 35.3113 12.7505L36.2734 11.0807C36.2884 11.0536 36.2937 11.0221 36.2883 10.9916C36.2829 10.961 36.2673 10.9333 36.2439 10.9129C36.2205 10.8926 36.1908 10.8809 36.1599 10.8799C36.1289 10.8789 36.0986 10.8886 36.0739 10.9073C35.8294 11.1284 35.5214 11.2663 35.194 11.3012Z" fill="#262626"/>
<path d="M35.194 14.8613C34.8668 14.8255 34.559 14.6878 34.3141 14.4674C34.2896 14.4467 34.2586 14.4354 34.2266 14.4355C34.1946 14.4356 34.1637 14.4471 34.1394 14.4679C34.1151 14.4888 34.0989 14.5176 34.0939 14.5493C34.0888 14.5809 34.0951 14.6134 34.1117 14.6408L35.0767 16.3106C35.089 16.3306 35.1063 16.3472 35.1268 16.3587C35.1474 16.3702 35.1705 16.3762 35.194 16.3762C35.2175 16.3762 35.2407 16.3702 35.2612 16.3587C35.2817 16.3472 35.299 16.3306 35.3113 16.3106L36.2734 14.6408C36.2884 14.6137 36.2937 14.5822 36.2883 14.5516C36.2829 14.5211 36.2673 14.4933 36.2439 14.473C36.2205 14.4526 36.1908 14.441 36.1599 14.44C36.1289 14.4389 36.0986 14.4486 36.0739 14.4674C35.8287 14.6872 35.5211 14.825 35.194 14.8613Z" fill="#262626"/>
<path d="M35.194 18.4183C34.867 18.3838 34.5592 18.247 34.3141 18.0274C34.2896 18.0067 34.2586 17.9954 34.2266 17.9955C34.1946 17.9956 34.1637 18.0071 34.1394 18.0279C34.1151 18.0488 34.0989 18.0776 34.0939 18.1093C34.0888 18.1409 34.0951 18.1734 34.1117 18.2008L35.0767 19.8706C35.089 19.8906 35.1063 19.9072 35.1268 19.9187C35.1474 19.9302 35.1705 19.9362 35.194 19.9362C35.2175 19.9362 35.2407 19.9302 35.2612 19.9187C35.2817 19.9072 35.299 19.8906 35.3113 19.8706L36.2734 18.2008C36.2884 18.1737 36.2937 18.1422 36.2883 18.1116C36.2829 18.0811 36.2673 18.0533 36.2439 18.033C36.2205 18.0126 36.1908 18.001 36.1599 18C36.1289 17.9989 36.0986 18.0086 36.0739 18.0274C35.8285 18.2465 35.5208 18.3832 35.194 18.4183Z" fill="#262626"/>
<path d="M35.194 21.9784C34.867 21.9439 34.5592 21.8071 34.3141 21.5874C34.2896 21.5667 34.2586 21.5554 34.2266 21.5556C34.1946 21.5557 34.1637 21.5672 34.1394 21.588C34.1151 21.6088 34.0989 21.6377 34.0939 21.6693C34.0888 21.701 34.0951 21.7334 34.1117 21.7609L35.0767 23.4277C35.0884 23.4485 35.1055 23.4658 35.1261 23.4778C35.1468 23.4898 35.1701 23.4961 35.194 23.4961C35.2178 23.4961 35.2413 23.4898 35.2619 23.4778C35.2825 23.4658 35.2995 23.4485 35.3113 23.4277L36.2734 21.7609C36.2884 21.7337 36.2937 21.7023 36.2883 21.6717C36.2829 21.6411 36.2673 21.6134 36.2439 21.593C36.2205 21.5727 36.1908 21.561 36.1599 21.56C36.1289 21.559 36.0986 21.5687 36.0739 21.5874C35.8285 21.8066 35.5208 21.9433 35.194 21.9784Z" fill="#262626"/>
<path d="M35.0943 25.5237C34.7771 25.4506 34.4872 25.2884 34.2584 25.0563C34.1499 24.9593 33.9651 25.071 34.0414 25.1974C34.1704 25.4679 34.3141 25.7501 34.4197 26.0382L34.5869 26.4762C34.6427 26.6232 34.7013 26.7702 34.7424 26.926C34.7492 26.9489 34.7619 26.9696 34.7793 26.986C34.7967 27.0024 34.8181 27.0139 34.8414 27.0193C34.8647 27.0247 34.8889 27.0238 34.9117 27.0167C34.9345 27.0096 34.955 26.9965 34.9711 26.9789C35.0885 26.8613 35.1853 26.7349 35.2909 26.6114L35.6018 26.2263C35.8188 25.9676 35.9977 25.6942 36.1884 25.412C36.2764 25.2797 36.1356 25.118 36.0095 25.2092C35.7488 25.4171 35.4245 25.5282 35.0914 25.5237" fill="#262626"/>
<path d="M34.2468 28.9809C33.9587 28.8308 33.7196 28.6013 33.5575 28.3194C33.5418 28.2941 33.518 28.2749 33.49 28.2648C33.462 28.2548 33.4314 28.2545 33.4032 28.264C33.3751 28.2735 33.3509 28.2923 33.3348 28.3173C33.3186 28.3423 33.3113 28.3721 33.3141 28.4017C33.3698 28.6957 33.4226 28.9897 33.4724 29.3131C33.5223 29.6364 33.5311 29.9304 33.5575 30.2538C33.5588 30.2774 33.5663 30.3004 33.5793 30.3202C33.5922 30.34 33.6101 30.3561 33.6312 30.3668C33.6523 30.3776 33.6758 30.3825 33.6994 30.3813C33.723 30.38 33.7459 30.3725 33.7657 30.3596C34.0297 30.1774 34.2995 29.9921 34.5694 29.7922C34.8392 29.5923 35.0827 29.3748 35.3437 29.1514C35.3679 29.1307 35.3843 29.1024 35.3904 29.0712C35.3965 29.0399 35.3918 29.0075 35.3772 28.9793C35.3626 28.951 35.3389 28.9285 35.3099 28.9154C35.2809 28.9024 35.2484 28.8996 35.2176 28.9074C34.9118 29.042 34.5693 29.0679 34.2468 28.9809Z" fill="#262626"/>
<path d="M32.5721 32.1088C32.3291 31.8883 32.1523 31.6043 32.0617 31.2886C32.0089 31.1534 31.8095 31.171 31.8066 31.3121C31.8036 31.4532 31.789 31.6061 31.7743 31.7678L31.7274 32.2293C31.694 32.5422 31.6451 32.8532 31.5807 33.1612C31.576 33.1843 31.5774 33.2082 31.5848 33.2306C31.5922 33.2529 31.6053 33.273 31.6227 33.2887C31.6402 33.3045 31.6615 33.3154 31.6845 33.3203C31.7075 33.3253 31.7313 33.3241 31.7537 33.317C32.0471 33.2112 32.3756 33.1054 32.6718 32.9672L33.1294 32.7643C33.2819 32.6938 33.4403 32.6262 33.584 32.5439C33.6124 32.5298 33.6352 32.5065 33.6487 32.4778C33.6623 32.4491 33.6657 32.4166 33.6586 32.3857C33.6515 32.3548 33.6342 32.3272 33.6094 32.3073C33.5847 32.2875 33.5541 32.2766 33.5224 32.2763C33.1958 32.3347 32.8592 32.2753 32.5721 32.1088Z" fill="#262626"/>
<path d="M30.1611 34.7104C29.9803 34.4379 29.8787 34.1203 29.8678 33.7932C29.8678 33.6492 29.6536 33.6139 29.6155 33.7462L29.4776 34.1871C29.4249 34.3312 29.3691 34.4811 29.3134 34.6163C29.1961 34.9103 29.0817 35.2043 28.935 35.4983C28.9243 35.5195 28.9196 35.5432 28.9212 35.567C28.9229 35.5907 28.9309 35.6136 28.9444 35.6331C28.9579 35.6527 28.9764 35.6682 28.998 35.6781C29.0196 35.688 29.0434 35.6919 29.067 35.6893C29.3933 35.6705 29.7184 35.6342 30.0408 35.5806C30.2051 35.5571 30.3722 35.5335 30.5394 35.5042L31.0293 35.3983C31.062 35.3935 31.0919 35.377 31.1135 35.3519C31.1352 35.3268 31.1471 35.2948 31.1471 35.2616C31.1471 35.2285 31.1352 35.1964 31.1135 35.1713C31.0919 35.1462 31.062 35.1297 31.0293 35.1249C30.6983 35.0966 30.3874 34.9543 30.1493 34.7222" fill="#262626"/>
<path d="M39.01 0.624076C38.6824 0.589705 38.3743 0.45174 38.1301 0.230151C38.1056 0.209475 38.0747 0.198181 38.0427 0.198289C38.0107 0.198397 37.9798 0.209898 37.9555 0.230738C37.9311 0.251579 37.915 0.280402 37.9099 0.312064C37.9048 0.343726 37.9112 0.376168 37.9277 0.403595L38.8927 2.07337C38.9045 2.09415 38.9215 2.11144 38.9421 2.12346C38.9628 2.13548 38.9862 2.14182 39.01 2.14182C39.0339 2.14182 39.0573 2.13548 39.0779 2.12346C39.0985 2.11144 39.1156 2.09415 39.1274 2.07337L40.0894 0.403595C40.1045 0.376473 40.1097 0.34499 40.1043 0.314432C40.099 0.283875 40.0833 0.256101 40.0599 0.235767C40.0365 0.215432 40.0069 0.203775 39.9759 0.202752C39.945 0.201729 39.9146 0.211404 39.89 0.230151C39.6455 0.451225 39.3375 0.58911 39.01 0.624076Z" fill="#262626"/>
<path d="M39.01 4.18703C38.6824 4.15266 38.3743 4.01469 38.1301 3.7931C38.1056 3.77242 38.0747 3.76113 38.0427 3.76124C38.0107 3.76135 37.9798 3.77285 37.9555 3.79369C37.9311 3.81453 37.915 3.84336 37.9099 3.87502C37.9048 3.90668 37.9112 3.93912 37.9277 3.96654L38.8927 5.63632C38.905 5.65638 38.9223 5.67294 38.9429 5.68443C38.9634 5.69591 38.9865 5.70194 39.01 5.70194C39.0335 5.70194 39.0567 5.69591 39.0772 5.68443C39.0977 5.67294 39.115 5.65638 39.1274 5.63632L40.0894 3.96654C40.1045 3.93942 40.1097 3.90794 40.1043 3.87739C40.099 3.84683 40.0833 3.81905 40.0599 3.79872C40.0365 3.77838 40.0069 3.76672 39.9759 3.7657C39.945 3.76468 39.9146 3.77435 39.89 3.7931C39.6455 4.01417 39.3375 4.15206 39.01 4.18703Z" fill="#262626"/>
<path d="M39.01 7.75002C38.6828 7.71428 38.375 7.5765 38.1301 7.3561C38.1056 7.33542 38.0747 7.32413 38.0427 7.32424C38.0107 7.32435 37.9798 7.33585 37.9555 7.35669C37.9311 7.37753 37.915 7.40636 37.9099 7.43802C37.9048 7.46968 37.9112 7.50212 37.9277 7.52954L38.8927 9.19932C38.905 9.21938 38.9223 9.23594 38.9429 9.24743C38.9634 9.25891 38.9865 9.26494 39.01 9.26494C39.0335 9.26494 39.0567 9.25891 39.0772 9.24743C39.0977 9.23594 39.115 9.21938 39.1274 9.19932L40.0894 7.52954C40.1045 7.50242 40.1097 7.47094 40.1043 7.44039C40.099 7.40983 40.0833 7.38205 40.0599 7.36172C40.0365 7.34138 40.0069 7.32973 39.9759 7.32871C39.945 7.32768 39.9146 7.33735 39.89 7.3561C39.6447 7.57599 39.3371 7.7137 39.01 7.75002Z" fill="#262626"/>
<path d="M39.01 11.31C38.683 11.2755 38.3752 11.1387 38.1301 10.9191C38.1056 10.8984 38.0747 10.8871 38.0427 10.8872C38.0107 10.8873 37.9798 10.8988 37.9555 10.9196C37.9311 10.9405 37.915 10.9693 37.9099 11.001C37.9048 11.0326 37.9112 11.0651 37.9277 11.0925L38.8927 12.7593C38.9045 12.7801 38.9215 12.7974 38.9421 12.8094C38.9628 12.8214 38.9862 12.8278 39.01 12.8278C39.0339 12.8278 39.0573 12.8214 39.0779 12.8094C39.0985 12.7974 39.1156 12.7801 39.1274 12.7593L40.0894 11.0925C40.1045 11.0654 40.1097 11.0339 40.1043 11.0033C40.099 10.9728 40.0833 10.945 40.0599 10.9247C40.0365 10.9043 40.0069 10.8927 39.9759 10.8917C39.945 10.8906 39.9146 10.9003 39.89 10.9191C39.6445 11.1382 39.3369 11.2749 39.01 11.31Z" fill="#262626"/>
<path d="M39.01 14.873C38.6824 14.8387 38.3743 14.7007 38.1301 14.4791C38.1056 14.4584 38.0747 14.4471 38.0427 14.4472C38.0107 14.4474 37.9798 14.4589 37.9555 14.4797C37.9311 14.5005 37.915 14.5294 37.9099 14.561C37.9048 14.5927 37.9112 14.6251 37.9277 14.6525L38.8927 16.3223C38.9045 16.3431 38.9215 16.3604 38.9421 16.3724C38.9628 16.3844 38.9862 16.3908 39.01 16.3908C39.0339 16.3908 39.0573 16.3844 39.0779 16.3724C39.0985 16.3604 39.1156 16.3431 39.1274 16.3223L40.0894 14.6525C40.1045 14.6254 40.1097 14.5939 40.1043 14.5634C40.099 14.5328 40.0833 14.5051 40.0599 14.4847C40.0365 14.4644 40.0069 14.4527 39.9759 14.4517C39.945 14.4507 39.9146 14.4604 39.89 14.4791C39.6455 14.7002 39.3375 14.8381 39.01 14.873Z" fill="#262626"/>
<path d="M39.01 18.436C38.6824 18.4016 38.3743 18.2636 38.1301 18.0421C38.1056 18.0214 38.0747 18.0101 38.0427 18.0102C38.0107 18.0103 37.9798 18.0218 37.9555 18.0426C37.9311 18.0635 37.915 18.0923 37.9099 18.124C37.9048 18.1556 37.9112 18.1881 37.9277 18.2155L38.8927 19.8853C38.9045 19.9061 38.9215 19.9233 38.9421 19.9354C38.9628 19.9474 38.9862 19.9537 39.01 19.9537C39.0339 19.9537 39.0573 19.9474 39.0779 19.9354C39.0985 19.9233 39.1156 19.9061 39.1274 19.8853L40.0894 18.2155C40.1045 18.1884 40.1097 18.1569 40.1043 18.1263C40.099 18.0958 40.0833 18.068 40.0599 18.0477C40.0365 18.0273 40.0069 18.0157 39.9759 18.0147C39.945 18.0136 39.9146 18.0233 39.89 18.0421C39.6455 18.2631 39.3375 18.401 39.01 18.436Z" fill="#262626"/>
<path d="M39.01 21.996C38.6824 21.9617 38.3743 21.8237 38.1301 21.6021C38.1056 21.5814 38.0747 21.5701 38.0427 21.5703C38.0107 21.5704 37.9798 21.5819 37.9555 21.6027C37.9311 21.6235 37.915 21.6524 37.9099 21.684C37.9048 21.7157 37.9112 21.7481 37.9277 21.7756L38.8927 23.4453C38.9045 23.4661 38.9215 23.4834 38.9421 23.4954C38.9628 23.5074 38.9862 23.5138 39.01 23.5138C39.0339 23.5138 39.0573 23.5074 39.0779 23.4954C39.0985 23.4834 39.1156 23.4661 39.1274 23.4453L40.0894 21.7756C40.1045 21.7484 40.1097 21.717 40.1043 21.6864C40.099 21.6558 40.0833 21.6281 40.0599 21.6077C40.0365 21.5874 40.0069 21.5757 39.9759 21.5747C39.945 21.5737 39.9146 21.5834 39.89 21.6021C39.6455 21.8232 39.3375 21.9611 39.01 21.996Z" fill="#262626"/>
<path d="M38.922 25.5561C38.6049 25.4876 38.3145 25.3282 38.0861 25.0975C37.9775 25.0034 37.7928 25.1151 37.869 25.2386L38.0685 25.6531C38.133 25.7913 38.2034 25.9471 38.2533 26.0764C38.3647 26.3704 38.4791 26.6644 38.5847 26.9583C38.5919 26.9811 38.6049 27.0015 38.6224 27.0175C38.64 27.0336 38.6614 27.0447 38.6846 27.0498C38.7079 27.0549 38.732 27.0537 38.7546 27.0464C38.7773 27.0391 38.7976 27.026 38.8135 27.0083C39.0247 26.7673 39.2271 26.5144 39.4382 26.2528C39.5428 26.1236 39.6407 25.9892 39.7316 25.8501L40.0249 25.4326C40.0453 25.4071 40.0561 25.375 40.0552 25.3423C40.0542 25.3095 40.0417 25.2782 40.0199 25.2538C39.998 25.2294 39.9683 25.2136 39.9359 25.2092C39.9035 25.2048 39.8705 25.2121 39.843 25.2298C39.583 25.4396 39.2587 25.5528 38.925 25.5502" fill="#262626"/>
<path d="M38.0947 29.0103C37.9519 28.9503 37.8239 28.8601 37.7193 28.7457C37.6607 28.6864 37.6059 28.6236 37.555 28.5576C37.4993 28.49 37.4494 28.4194 37.3996 28.3488C37.383 28.3244 37.3589 28.3062 37.3309 28.2972C37.3028 28.2881 37.2726 28.2887 37.245 28.2988C37.2173 28.309 37.1938 28.3281 37.1783 28.3531C37.1627 28.3782 37.156 28.4077 37.1591 28.437C37.2148 28.731 37.2676 29.025 37.3145 29.3425C37.3286 29.4193 37.3384 29.4968 37.3439 29.5747L37.3644 29.807L37.4025 30.2832C37.4038 30.3069 37.4113 30.3298 37.4243 30.3496C37.4372 30.3695 37.4551 30.3855 37.4762 30.3963C37.4973 30.407 37.5208 30.412 37.5444 30.4107C37.568 30.4094 37.5909 30.4019 37.6107 30.389L38.0126 30.1127L38.215 29.9686C38.2844 29.9227 38.351 29.8726 38.4144 29.8187C38.6696 29.6159 38.9306 29.4013 39.1917 29.1779C39.3061 29.072 39.1917 28.8839 39.0626 28.9339C38.9813 28.9656 38.898 28.9921 38.8133 29.0132C38.7297 29.0357 38.6443 29.0515 38.5582 29.0603C38.4019 29.0792 38.2434 29.0621 38.0947 29.0103Z" fill="#262626"/>
<path d="M36.4144 32.1411C36.1714 31.9207 35.9946 31.6366 35.904 31.3209C35.8975 31.2902 35.8801 31.2628 35.8549 31.244C35.8298 31.2252 35.7987 31.2162 35.7674 31.2187C35.7361 31.2213 35.7068 31.2351 35.685 31.2577C35.6632 31.2803 35.6503 31.3101 35.6488 31.3415V31.5708L35.6254 31.7972L35.5755 32.2558C35.5579 32.4116 35.5462 32.5733 35.5139 32.7232L35.4259 33.1906C35.4212 33.2137 35.4227 33.2376 35.43 33.26C35.4374 33.2823 35.4505 33.3024 35.468 33.3181C35.4855 33.3339 35.5067 33.3448 35.5297 33.3497C35.5527 33.3547 35.5766 33.3535 35.599 33.3464L36.0624 33.1847C36.2208 33.1318 36.3557 33.0642 36.517 32.9995L36.9775 32.7967L37.2092 32.6938L37.4321 32.5762C37.4605 32.5621 37.4833 32.5388 37.4969 32.5101C37.5104 32.4814 37.5139 32.449 37.5068 32.4181C37.4996 32.3871 37.4823 32.3595 37.4576 32.3397C37.4329 32.3198 37.4022 32.3089 37.3706 32.3087C37.044 32.366 36.7077 32.3067 36.4202 32.1411" fill="#262626"/>
<path d="M33.9942 34.734C33.8116 34.4612 33.7099 34.1422 33.7009 33.8138C33.7009 33.6698 33.4897 33.6316 33.4486 33.7668L33.3079 34.2048C33.2551 34.3489 33.1964 34.4988 33.1407 34.634C33.0204 34.928 32.906 35.222 32.7564 35.4983C32.7462 35.5195 32.7416 35.543 32.7432 35.5665C32.7448 35.59 32.7525 35.6127 32.7656 35.6323C32.7786 35.6519 32.7965 35.6678 32.8176 35.6783C32.8386 35.6888 32.862 35.6937 32.8855 35.6923C33.2169 35.6923 33.5308 35.6335 33.8622 35.5924C34.0235 35.5688 34.1936 35.5483 34.3579 35.5189L34.8507 35.413C34.8816 35.4065 34.9094 35.3895 34.9294 35.3649C34.9493 35.3403 34.9602 35.3095 34.9602 35.2778C34.9602 35.2461 34.9493 35.2153 34.9294 35.1907C34.9094 35.1661 34.8816 35.1491 34.8507 35.1426C34.519 35.1124 34.2081 34.968 33.9707 34.734" fill="#262626"/>
</g>
<defs>
<clipPath id="clip0_932_1857">
<rect width="40.1099" height="35.4945" fill="white" transform="translate(0 0.197803)"/>
</clipPath>
</defs>
</svg>
